<?xml version="1.0" encoding="utf-8"?>
<!-- Generator: Adobe Illustrator 25.0.0, SVG Export Plug-In . SVG Version: 6.00 Build 0)  -->
<svg version="1.1" id="Layer_1" xmlns="http://www.w3.org/2000/svg" xmlns:xlink="http://www.w3.org/1999/xlink" x="0px" y="0px"
	 viewBox="0 0 595.28 595.28" style="enable-background:new 0 0 595.28 595.28;" xml:space="preserve">
<style type="text/css">
	.st0{fill:#DA6512;}
	.st1{fill:#F49A1D;}
	.st2{fill:#FFF7B2;}
	.st3{fill:#FFE476;}
	.st4{fill:#FFD324;}
	.st5{fill:#F9B52A;}
	.st6{fill:#F29100;}
</style>
<g>
	<g>
		<g>
			<path class="st0" d="M320.68,36.85h-46.09v521.57h46.09c121.43,0,219.87-116.76,219.87-260.79
				C540.55,153.61,442.12,36.85,320.68,36.85z"/>
			<path class="st1" d="M274.59,544.28v14.14h46.1c51.59,0,98.99-21.13,136.49-56.41l-182.59,2V544.28z"/>
			<path class="st2" d="M371.98,215.12l156.85-1.5c-10.37-36.14-27.22-68.69-48.93-95.74l-108.88,1.04L371.98,215.12z"/>
			<path class="st2" d="M370.99,100.61l92.78-0.89c-4.75-4.84-9.67-9.44-14.77-13.78l-78.16,0.75L370.99,100.61z"/>
		</g>
		<ellipse class="st3" cx="274.59" cy="297.64" rx="219.87" ry="260.79"/>
		<ellipse class="st4" cx="274.59" cy="297.64" rx="212.65" ry="252.22"/>
		<path class="st2" d="M169.3,516.73l306.28-301.45c-10.41-35.73-27.37-67.83-49.22-94.24L100.26,442
			C118.29,472.57,141.88,498.16,169.3,516.73z"/>
		<path class="st2" d="M479.86,363.51L291.39,549C382.13,540.58,456.85,464.66,479.86,363.51z"/>
		<path class="st2" d="M71.39,223.13L250.22,47.12c-21.45,2.9-41.92,9.59-60.94,19.49L98.9,155.55
			C87.06,176.1,77.71,198.82,71.39,223.13z"/>
		<path class="st2" d="M88.45,419.59l321.53-316.45c-3.87-3.8-7.9-7.38-11.99-10.85L81.64,403.64
			C83.76,409.06,86.02,414.38,88.45,419.59z"/>
		<path class="st2" d="M274.59,46.39c120.08,0,217.62,114.2,219.77,256.02c0.02-1.59,0.1-3.17,0.1-4.77
			c0-144.03-98.44-260.79-219.87-260.79S54.72,153.61,54.72,297.64c0,1.6,0.08,3.18,0.1,4.77
			C56.98,160.59,154.51,46.39,274.59,46.39z"/>
		<ellipse class="st2" cx="279.49" cy="304.7" rx="151.26" ry="179.41"/>
		<ellipse class="st5" cx="274.59" cy="297.64" rx="151.26" ry="179.41"/>
		<path class="st1" d="M133.46,312.83c0-99.08,67.72-179.41,151.26-179.41c45.17,0,85.69,23.52,113.41,60.76
			c-27.39-45.93-72.49-75.95-123.54-75.95c-83.54,0-151.26,80.32-151.26,179.41c0,45.51,14.31,87.02,37.85,118.65
			C143.74,387.05,133.46,351.37,133.46,312.83z"/>
	</g>
	<g>
		<g>
			<path class="st6" d="M265.57,313.62c-0.06,2.53-0.52,4.86-0.86,6.61l-12.96,67.68c-2.02,10.53-6.36,18.93-12.42,24.3
				c-6.05,5.38-13.7,7.61-21.91,6.27c-1.91-0.31-3.87-0.81-5.86-1.52l-4.61-0.75c-0.33-0.04-0.65-0.07-0.98-0.13
				c-3.72-0.6-6.87-2.35-9.09-5.12s-3.42-6.57-3.39-10.92c0.02-1.46,0.16-2.89,0.43-4.28c1.38-7.26,6.2-13.18,12.33-14.81l0.02-0.01
				c2.07-0.56,4.05-0.7,5.93-0.39c2.67,0.43,5.05,1.75,7,3.79c1.95,2.03,3.46,4.75,4.5,8l0.08,0.24c0.09,0.41,0.18,0.84,0.26,1.35
				c1.06-0.2,1.96-0.55,2.7-0.96c1.12-0.65,1.89-1.44,2.5-2.56c0.4-0.75,0.73-1.68,0.95-2.85l0.01-0.05
				c1.31-6.18,2.52-12.32,3.7-18.49c2.23-11.64,4.32-23.35,6.61-35.38c-0.9-0.26-1.76-0.4-2.7-0.55l-0.04-0.01
				c-13.7-2.51-27.42-4.88-41.17-7.1c-1.85-0.3-3.2-0.18-4.21,0.25c-1,0.44-1.78,1.13-2.66,2.5c-0.37,0.59-0.74,1.31-1.1,2.19
				c0.18,0.19,0.36,0.38,0.55,0.59c0.55,0.61,1.15,1.31,1.67,2.21c3.5,4.09,4.54,9.91,3.5,15.34c-0.49,2.58-1.45,5.1-2.85,7.33
				c-1.89,3.05-4.43,5.31-7.22,6.67c-2.79,1.37-5.85,1.86-8.82,1.38c-0.96-0.16-1.92-0.42-2.86-0.79l-0.13-0.05
				c-3.17-1.56-5.55-4.4-6.91-7.9c-1.37-3.5-1.75-7.65-0.94-11.84c0.65-3.42,1.19-6.83,1.6-10.27c0.13-1.37,0.3-2.72,0.56-4.07
				c1.62-8.38,5.82-16,11.41-21.32c5.58-5.32,12.64-8.4,19.82-7.47h0.01c7.28,1.03,14.54,2.16,21.82,3.34
				c14.55,2.36,29.15,4.92,44.12,7.34C264.94,311.55,265.6,312.48,265.57,313.62z"/>
			<path class="st6" d="M286.32,207.37c-1.49,8.42-3.06,16.84-4.67,25.25c-3.22,16.83-6.61,33.67-9.87,50.72
				c-0.1,0.51-0.22,0.75-0.31,0.98c-0.1,0.23-0.18,0.39-0.24,0.56c-0.15,0.3-0.22,0.53-0.22,0.57c-0.12,0.63-0.45,1.22-0.9,1.58
				c-0.45,0.38-1.02,0.55-1.53,0.47c-0.57-0.09-1.1-0.08-1.75-0.07c-0.65-0.01-1.43,0.01-2.32-0.13l-59.02-9.56
				c-7.97-1.29-14.25-6.07-18.05-12.88c-3.81-6.8-5.14-15.59-3.36-24.79c0.39-2.12,0.97-4.26,1.7-6.41l0.03-0.06
				c0.34-0.91,0.59-1.83,0.76-2.7s0.24-1.67,0.23-2.33l0.02-0.47c0.07-0.43,0.14-0.86,0.22-1.27c0.9-4.68,2.77-8.66,5.39-11.58
				c2.61-2.92,5.94-4.71,9.49-5.1l0.03-0.01c1.23-0.13,2.44-0.08,3.6,0.11c6.09,0.97,10.69,6.12,11.84,13.2v0.05
				c0.34,2.29,0.28,4.59-0.14,6.79c-0.61,3.21-1.99,6.2-3.97,8.75s-4.55,4.64-7.57,6.16l-0.16,0.07c-0.22,0.09-0.49,0.2-0.8,0.33
				c0.1,1.19,0.31,2.23,0.6,3.13c0.43,1.31,1.04,2.24,1.85,2.86c0.55,0.41,1.2,0.7,2.04,0.84l0.04,0.01
				c5.15,0.98,10.31,1.86,15.52,2.71c9.78,1.58,19.71,3.01,29.88,4.64l3.29-17.16c2.27-11.86,4.63-23.54,7.1-35.08l0.01-0.06
				c0.45-2.32,0.43-4.01,0.12-5.23c-0.31-1.24-0.87-2.15-1.95-3.05c-0.46-0.38-1.02-0.74-1.66-1.08c-2.51,2.95-4.93,5.17-7.4,6.66
				c-2.79,1.68-5.68,2.36-8.45,1.91c-1.82-0.29-3.57-1.05-5.27-2.17l-0.1-0.06c-2.49-1.85-4.41-4.54-5.57-7.67
				c-1.14-3.12-1.52-6.72-0.82-10.34c0.07-0.35,0.14-0.71,0.23-1.06c0.97-3.93,2.91-7.52,5.46-10.2c2.55-2.67,5.78-4.46,9.18-4.45
				l0.07-0.01c4.39,0.16,8.78,0.48,13.13,1.18c2.69,0.44,5.36,1.01,7.99,1.8l0.1,0.03c11.73,4.34,18.66,18.48,16.19,33.6
				L286.32,207.37z"/>
			<path class="st6" d="M290.86,289.12c2.62-13.66,5.1-27.12,7.65-40.43c2.55-13.3,5.15-26.42,8.01-39.43
				c1.8-8.43,6.63-15.28,12.61-19.72c5.98-4.44,13.17-6.56,19.97-5.46c1.28,0.21,2.56,0.55,3.8,0.97c0.01,0,0.01,0,0.03,0
				c0.03,0,0.05,0.02,0.08,0.03c2.23,0.64,4.47,1.15,6.76,1.52l0.11,0.02c0.33,0.04,0.67,0.08,0.98,0.13
				c3.72,0.6,6.87,2.34,9.07,5.12c2.22,2.77,3.43,6.55,3.4,10.9v0.02c0,1.4-0.12,2.77-0.38,4.13c-1.38,7.13-6.17,13.32-12.36,15.38
				l-0.19,0.05c-1.97,0.43-3.88,0.51-5.67,0.22c-2.65-0.43-5.05-1.68-7-3.66c-1.92-1.97-3.38-4.64-4.3-7.89
				c-0.02-0.04-0.02-0.09-0.04-0.12c-0.15-0.43-0.29-0.88-0.43-1.31c-1.31,0.11-2.4,0.44-3.28,0.94c-1.14,0.63-1.94,1.48-2.57,2.65
				c-0.42,0.78-0.75,1.74-0.97,2.88c0,0.02,0,0.02-0.01,0.03c-3.14,17.69-6.43,35.5-9.86,53.43v0.02l0.03,0.2
				c0,0.02,0,0.02,0.01,0.03l28.36,4.59c3.44,0.56,6.79,1.29,10.22,1.85c1.65,0.27,3.35,0.49,5.07,0.66c0.01,0,0.04,0.01,0.06-0.01
				c2.23-0.01,5-0.77,7.12-2.25c0.47-0.4,0.83-0.78,1.04-1.09c0.23-0.32,0.31-0.54,0.33-0.65c0.01-0.14,0.04-0.27-0.12-0.67
				c-0.14-0.38-0.51-0.96-1.17-1.66c-0.02-0.02-0.06-0.06-0.08-0.08c-2.2-2.02-3.69-4.58-4.48-7.39c-0.79-2.85-0.85-5.96-0.26-8.99
				c0.43-2.26,1.21-4.48,2.3-6.61l0.05-0.11c1.89-3.31,4.44-5.77,7.23-7.26c2.8-1.47,5.85-1.99,8.77-1.52
				c1.19,0.19,2.37,0.55,3.5,1.07c0.01,0,0.01,0,0.02,0.02c3.55,1.58,5.98,4.67,7.19,8.4c1.22,3.77,1.28,8.16,0.42,12.65l-0.03,0.17
				c-0.21,0.83-0.39,1.7-0.56,2.58c-0.68,3.46-1.05,7.21-1.75,10.93c-0.31,1.64-0.7,3.28-1.22,4.89l-0.02,0.01
				c-2.34,7.05-6.41,13.13-11.46,17.29c-5.03,4.16-11.09,6.39-17.26,5.62c-11.16-1.35-22.25-3.03-33.4-4.84
				c-11.14-1.8-22.35-3.73-33.73-5.58c-0.53-0.09-0.98-0.42-1.27-0.92C290.84,290.39,290.74,289.74,290.86,289.12z"/>
			<path class="st6" d="M369.92,375.17c-0.07,0.41-0.13,0.84-0.21,1.25c-0.9,4.68-2.78,8.7-5.46,11.6
				c-2.67,2.91-6.09,4.67-9.79,5.03h-0.1c-0.95,0.04-1.88-0.01-2.77-0.16c-6.07-0.98-10.91-6.07-12.21-13.03l-0.02-0.12
				c-0.33-2.3-0.27-4.63,0.16-6.85c0.61-3.18,1.95-6.14,3.87-8.68c1.92-2.54,4.39-4.65,7.27-6.19c0.17-0.09,0.33-0.14,0.5-0.18
				c0.24-0.06,0.49-0.13,0.75-0.24c0.07-1.34-0.05-2.45-0.3-3.33c-0.35-1.18-0.87-1.97-1.75-2.58c-0.58-0.4-1.33-0.71-2.31-0.86
				l-0.05-0.01c-5.01-0.96-10.1-1.83-15.22-2.66c-10.06-1.63-20.2-3.07-30.19-4.69l-6.11,31.91c-0.9,4.7-1.94,9.3-2.79,13.73
				c-0.42,2.21-0.8,4.39-1.08,6.51l-0.03,0.16c-0.2,1.06-0.19,2.46,0.04,3.84c0.2,1.35,0.6,2.69,1.02,3.69
				c0.01,0.02,0.02,0.05,0.03,0.07c0.35,0.74,0.7,1.32,0.99,1.64c0.3,0.36,0.48,0.42,0.52,0.43c0.04-0.01,0.12,0.04,0.5-0.21
				c0.36-0.25,0.96-0.82,1.71-1.83h-0.01c0-0.02,0.02-0.01,0.03-0.03c1.87-2.61,4.15-4.56,6.6-5.75c2.44-1.19,5.06-1.58,7.61-1.16
				c1.95,0.32,3.87,1.12,5.63,2.38l0.07,0.06c2.37,1.92,4.16,4.64,5.22,7.77c1.05,3.14,1.35,6.72,0.66,10.33
				c-0.24,1.27-0.61,2.54-1.11,3.78c-1.57,3.92-4.1,7.05-7.17,9.01c-3.06,1.97-6.64,2.76-10.26,2.15c-0.28-0.04-0.57-0.09-0.85-0.15
				l-0.11-0.02c-2.25-0.35-4.55-0.44-6.9-0.27l-0.16,0.01c-1.19-0.03-2.37-0.12-3.53-0.31c-7.29-1.2-13.56-5.62-17.63-12
				c-4.09-6.37-5.99-14.76-4.45-23.74v-0.02c1.51-8.58,3.1-17.12,4.75-25.71c3.29-17.19,6.78-34.51,10.22-52.44
				c0.12-0.62,0.45-1.2,0.9-1.58c0.45-0.38,1-0.55,1.53-0.47l63.36,10.26c8.02,1.3,14.29,6.06,18.07,12.77
				c3.79,6.71,5.09,15.35,3.36,24.31c-0.36,1.88-0.85,3.78-1.47,5.66h-0.01c-0.32,1.17-0.59,2.3-0.8,3.41
				c-0.22,1.14-0.37,2.24-0.47,3.3L369.92,375.17z"/>
		</g>
		<g>
			<g>
				<path id="Layer_40_" class="st4" d="M357.06,295.68c11.31,1.38,22.07-8.06,26.46-21.22c1.8-5.52,1.96-12.21,3.49-18.22
					c1.58-8.24-0.35-15.71-6.54-18.51c-5.82-2.73-13.01-0.32-16.95,6.65c-3.58,7.02-3.27,15.13,2.14,20.03
					c3.12,3.19,2.26,5.73-0.41,7.99c-2.59,1.82-5.73,2.65-8.35,2.67c-5.51-0.45-10.5-1.7-15.57-2.52c-9.9-1.6-19.79-3.2-29.69-4.81
					c-0.11-1.36-0.39-1.85-0.23-2.72c3.43-17.94,6.72-35.75,9.86-53.43c1.08-5.64,4.64-8.64,10.24-8.63
					c0.32,0.95,0.63,1.89,0.95,2.84c2.21,7.96,7.87,11.56,14.88,10.01c6.37-2.1,11.13-9.38,11.09-16.99
					c0.05-8.04-4.55-13.26-11.88-14c-2.41-0.39-4.8-0.93-7.16-1.61c-13.26-4.83-30.15,5.41-33.76,22.27
					c-5.71,25.92-10.41,52.45-15.65,79.78C312.8,288.96,334.8,292.97,357.06,295.68L357.06,295.68z"/>
				<path id="Layer_39_" class="st4" d="M245.81,168.96c-5.6-0.01-10.83,5.85-12.52,12.74c-1.61,6.45,0.85,13.11,5.42,16.54
					c6.3,4.15,12.31,1.99,19.65-7.11c5.18,2.18,7.14,5.63,5.81,12.57c-2.46,11.53-4.82,23.23-7.09,35.09
					c-1.25,6.51-2.41,12.58-3.74,19.53c-16.29-2.64-31.95-4.72-47.43-7.68c-4.34-0.7-6.13-5.02-6.14-10.84
					c1.08-0.42,1.88-0.74,2.42-0.95c7.43-3.72,11.46-11.12,10.34-18.9c-1.21-7.35-6.61-12.25-13.46-11.57
					c-6.49,0.74-11.72,6.6-13.1,15.77c0.03,1.79-0.39,3.96-1.16,6.07c-6.72,19.49,1.63,38.29,18.28,40.99
					c19.79,3.2,39.47,6.39,59.02,9.55c1.45,0.23,2.62-0.02,4.07,0.21c0.17-0.87,0.69-1.68,0.78-2.11
					c4.9-25.6,10.08-50.71,14.54-75.94c2.3-13.94-4.15-27.07-14.96-31.05C259.82,169.89,252.86,169.21,245.81,168.96L245.81,168.96z
					"/>
				<path id="Layer_38_" class="st4" d="M194.79,298.94c-14.2-1.85-27.94,13.37-29.37,30.59c-0.42,3.51-0.97,7-1.63,10.47
					c-1.41,7.38,1.32,14.53,6.79,17.2c5.91,2.3,12.73-0.18,16.51-6.27c3.78-6.1,3.91-14.58-0.69-19.8
					c-0.84-1.48-2.12-2.58-3.04-3.62c2.42-6.77,5.45-8.96,10.88-8.08c13.76,2.23,27.49,4.6,41.19,7.12c1.45,0.23,2.9,0.47,4.62,1.2
					c-3.66,19.09-6.78,37.38-10.72,55.97c-1.08,5.64-4.56,8.21-9.88,8.69c-0.11-1.36-0.31-2.29-0.5-3.21
					c-2.57-8.02-8.14-12.06-15.24-10.07c-6.29,1.67-10.96,8.51-11.01,16.56c-0.05,8.04,4.55,13.26,11.88,14
					c1.45,0.23,3.26,0.53,4.71,0.76c18.16,6.52,33.33-4.45,37.65-27.01s8.64-45.13,12.96-67.69c0.33-1.74,0.75-3.91,0.8-6.13
					C238.24,305.97,216.6,302.02,194.79,298.94z"/>
				<path id="Layer_37_" class="st4" d="M293.48,424.96c2.52-0.19,4.99-0.09,7.41,0.3c6.8,1.55,13.14-2.35,16-9.49
					c2.86-7.14,0.65-15.1-4.2-19.02c-5.57-4.03-12.59-2.49-17.18,3.93c-3.53,4.8-5.45,3.14-7.05-0.25c-1.03-2.4-1.82-6.11-1.24-9.15
					c0.88-6.57,2.58-13.45,3.9-20.39c2.16-11.28,4.32-22.56,6.4-33.41c0.81-0.32,1.25-0.69,1.61-0.63
					c15.21,2.46,30.86,4.55,45.98,7.44c4.71,0.76,6.58,4.64,5.78,10.78c-0.83,0.46-1.64,0.78-2.42,0.95
					c-7.07,3.78-11.1,11.18-9.98,18.96c1.29,6.92,6.7,11.82,13.1,11.52c6.85-0.68,12.08-6.54,13.46-15.72
					c0.2-2.35,0.67-4.81,1.41-7.38c6.19-18.68-1.88-36.99-18.53-39.68c-9.17-1.48-18.22-2.95-27.16-4.4
					c-11.95-1.93-23.9-3.87-36.21-5.86c-5.15,26.9-10.41,52.45-14.95,78.1C266.59,409.43,278.22,424.73,293.48,424.96L293.48,424.96
					z"/>
			</g>
		</g>
	</g>
</g>
</svg>
