<?xml version="1.0" encoding="utf-8"?>
<!-- Generator: Adobe Illustrator 25.0.0, SVG Export Plug-In . SVG Version: 6.00 Build 0)  -->
<svg version="1.1" id="Layer_1" xmlns="http://www.w3.org/2000/svg" xmlns:xlink="http://www.w3.org/1999/xlink" x="0px" y="0px"
	 viewBox="0 0 595.28 595.28" style="enable-background:new 0 0 595.28 595.28;" xml:space="preserve">
<style type="text/css">
	.st0{fill:#FFE476;}
	.st1{fill:#FFD324;}
	.st2{fill:#FFF7B2;}
	.st3{fill:#F9B52A;}
	.st4{fill:#F49A1D;}
	.st5{fill:#F29100;}
</style>
<g>
	<g>
		<ellipse class="st0" cx="297.64" cy="297.64" rx="260.79" ry="260.79"/>
		<ellipse class="st1" cx="297.64" cy="297.64" rx="254.12" ry="254.12"/>
		<path class="st2" d="M477.83,118.47L118.47,477.83c24.08,23.94,52.95,43.04,85.03,55.84l330.18-330.18
			C520.87,171.42,501.77,142.55,477.83,118.47z"/>
		<path class="st2" d="M545.36,354.21L354.21,545.36C449.11,523.77,523.77,449.11,545.36,354.21z"/>
		<path class="st2" d="M172.84,76.3l-96.55,96.55c-10.64,18.83-18.98,39.11-24.56,60.53L233.38,51.73
			C211.96,57.31,191.67,65.66,172.84,76.3z"/>
		<path class="st2" d="M444.35,90.21L90.21,444.35c4.13,5.83,8.47,11.48,13.07,16.93l358-358
			C455.83,98.68,450.17,94.33,444.35,90.21z"/>
		<circle class="st2" cx="302.64" cy="302.35" r="184.13"/>
		<ellipse class="st3" cx="297.64" cy="297.64" rx="184.13" ry="184.13"/>
		<path class="st4" d="M123.5,307.64c0-101.69,82.44-184.13,184.13-184.13c48.3,0,92.24,18.63,125.09,49.06
			c-33.63-36.3-81.69-59.05-135.08-59.05c-101.69,0-184.13,82.44-184.13,184.13c0,53.39,22.75,101.45,59.05,135.08
			C142.13,399.88,123.5,355.94,123.5,307.64z"/>
		<path class="st2" d="M297.64,46.85c142.35,0,257.99,114.08,260.66,255.79c0.03-1.67,0.13-3.32,0.13-5
			c0-144.03-116.76-260.79-260.79-260.79S36.85,153.61,36.85,297.64c0,1.68,0.09,3.33,0.13,5
			C39.65,160.92,155.29,46.85,297.64,46.85z"/>
	</g>
	<g>
		<path class="st5" d="M288.58,312.86c0.46,2.34,0.45,4.54,0.45,6.2v64.15c0,9.98-3.01,18.34-8.56,24.19
			c-5.53,5.84-13.49,9.04-22.81,9.02c-2.17,0-4.44-0.16-6.77-0.52h-5.23c-0.37,0.01-0.73,0.03-1.11,0.03
			c-4.23,0-8.06-1.14-11.09-3.36c-3.03-2.22-5.16-5.53-6.04-9.53c-0.28-1.35-0.43-2.68-0.43-4c-0.01-6.88,4.05-13.04,10.46-15.45
			l0.01-0.02c2.16-0.82,4.32-1.24,6.44-1.24c3.03,0,5.94,0.85,8.51,2.44c2.58,1.57,4.81,3.85,6.64,6.68l0.14,0.21
			c0.18,0.36,0.37,0.75,0.57,1.2c1.12-0.34,2.04-0.79,2.77-1.29c1.09-0.76,1.78-1.6,2.22-2.73c0.28-0.75,0.45-1.65,0.45-2.76v-0.04
			c0.13-5.88,0.18-11.7,0.18-17.55c0-11.03-0.16-22.11-0.18-33.51c-1.05-0.1-2.02-0.1-3.09-0.1h-0.04
			c-15.62-0.27-31.23-0.4-46.85-0.4c-2.1,0-3.57,0.31-4.59,0.85c-1,0.55-1.72,1.3-2.4,2.7c-0.28,0.6-0.54,1.32-0.75,2.17
			c0.24,0.15,0.48,0.3,0.73,0.46c0.73,0.48,1.54,1.03,2.31,1.78c4.72,3.24,7.09,8.44,7.09,13.58c0,2.44-0.52,4.9-1.59,7.16
			c-1.44,3.09-3.76,5.55-6.55,7.21c-2.79,1.68-6.05,2.58-9.43,2.58c-1.09,0-2.2-0.1-3.31-0.3l-0.15-0.03
			c-3.82-0.96-7.04-3.22-9.28-6.23c-2.25-3.01-3.54-6.77-3.54-10.75c0-3.24-0.14-6.46-0.4-9.68c-0.15-1.27-0.24-2.55-0.24-3.82
			c0.01-7.94,3.04-15.57,8.08-21.3c5.02-5.73,12.15-9.61,20.26-9.82h0.01c8.24-0.13,16.47-0.18,24.74-0.18
			c16.53,0,33.15,0.18,50.15,0.18C287.44,311.04,288.37,311.81,288.58,312.86z"/>
		<path class="st5" d="M289.03,212.1c0.14,7.96,0.18,15.93,0.18,23.9c0,15.95-0.18,31.94-0.18,48.09c0,0.48-0.09,0.72-0.13,0.94
			c-0.06,0.22-0.12,0.39-0.15,0.55c-0.11,0.3-0.14,0.52-0.12,0.55c0,0.6-0.24,1.18-0.66,1.59c-0.42,0.42-1,0.66-1.59,0.66
			c-0.64,0-1.23,0.09-1.95,0.19c-0.72,0.09-1.57,0.22-2.58,0.22h-67.04c-9.05,0-16.98-3.46-22.6-9.16
			c-5.64-5.68-8.95-13.56-8.93-22.29c-0.01-2.01,0.17-4.06,0.52-6.14l0.01-0.06c0.18-0.88,0.27-1.77,0.27-2.59
			c0-0.82-0.09-1.57-0.24-2.17l-0.08-0.43c-0.01-0.4-0.03-0.81-0.03-1.2c0-4.44,1.23-8.38,3.49-11.45s5.55-5.22,9.38-6.1l0.03-0.01
			c1.33-0.3,2.67-0.43,3.99-0.43c6.91-0.01,13.07,4.03,15.83,10.37l0.02,0.05c0.85,2.05,1.27,4.18,1.27,6.26
			c0,3.04-0.88,5.99-2.53,8.63s-4.03,4.95-7.04,6.79l-0.17,0.09c-0.22,0.12-0.49,0.25-0.81,0.42c0.36,1.08,0.81,2.01,1.32,2.79
			c0.75,1.14,1.62,1.9,2.64,2.35c0.69,0.3,1.47,0.46,2.43,0.46h0.04c5.88,0.13,11.75,0.18,17.67,0.18c11.11,0,22.35-0.16,33.9-0.18
			v-16.26c0-11.24,0.13-22.33,0.42-33.3v-0.06c0-2.2-0.37-3.75-0.97-4.83c-0.6-1.09-1.41-1.84-2.79-2.52
			c-0.58-0.28-1.27-0.52-2.05-0.75c-2.14,3.09-4.35,5.49-6.74,7.22c-2.71,1.96-5.76,3.01-8.9,3.01c-2.07,0-4.15-0.43-6.26-1.21
			l-0.12-0.04c-3.13-1.33-5.82-3.52-7.75-6.22c-1.92-2.7-3.09-5.95-3.09-9.38c0-0.33,0-0.67,0.03-1c0.24-3.76,1.62-7.34,3.87-10.19
			c2.25-2.83,5.43-4.96,9.17-5.46l0.08-0.02c4.87-0.51,9.77-0.87,14.72-0.87c3.06,0,6.11,0.13,9.19,0.46l0.12,0.01
			c13.83,2.25,24.46,14.21,24.92,28.48v0.06H289.03z"/>
		<path class="st5" d="M311.27,286.57c0-12.95-0.11-25.69-0.11-38.31c0-12.6,0.11-25.06,0.51-37.44c0.21-8.02,4.08-15.03,9.73-20.01
			c5.65-4.98,13.13-7.99,20.85-7.99c1.45,0,2.94,0.12,4.39,0.33c0.02,0,0.02,0,0.03,0c0.03,0,0.06,0.01,0.09,0.01
			c2.59,0.25,5.17,0.39,7.76,0.39h0.12c0.37-0.01,0.75-0.03,1.11-0.03c4.23,0,8.06,1.12,11.08,3.36c3.03,2.22,5.16,5.52,6.04,9.52
			v0.02c0.3,1.29,0.45,2.56,0.45,3.85c-0.01,6.76-3.99,13.16-10.37,15.98l-0.2,0.07c-2.08,0.69-4.17,1.05-6.2,1.05
			c-3.01,0-5.92-0.79-8.48-2.32c-2.53-1.53-4.71-3.76-6.4-6.61c-0.03-0.03-0.04-0.08-0.07-0.1c-0.25-0.37-0.51-0.76-0.75-1.14
			c-1.42,0.3-2.55,0.76-3.42,1.35c-1.12,0.75-1.83,1.65-2.28,2.82c-0.3,0.78-0.46,1.71-0.46,2.79c0,0.01,0,0.01,0,0.03
			c0.27,16.73,0.4,33.59,0.4,50.58v0.02l0.08,0.18c0,0.01,0,0.01,0.02,0.03h32.21c3.91,0,7.75,0.18,11.65,0.18
			c1.87,0,3.79-0.05,5.73-0.15c0.01,0,0.05,0,0.06-0.01c2.46-0.34,5.35-1.45,7.37-3.13c0.43-0.43,0.75-0.84,0.91-1.15
			c0.18-0.33,0.23-0.54,0.23-0.64c-0.02-0.13-0.02-0.25-0.27-0.6c-0.24-0.33-0.76-0.81-1.63-1.35c-0.03-0.01-0.08-0.04-0.11-0.06
			c-2.85-1.53-5.04-3.66-6.49-6.13c-1.47-2.5-2.19-5.35-2.19-8.23c0-2.14,0.39-4.3,1.14-6.41l0.03-0.1
			c1.38-3.33,3.67-5.96,6.43-7.75c2.77-1.77,6.02-2.7,9.34-2.7c1.35,0,2.73,0.15,4.08,0.46c0.02,0,0.02,0,0.03,0.01
			c4.24,0.93,7.57,3.4,9.7,6.65c2.14,3.28,3.13,7.31,3.13,11.57v0.16c-0.06,0.79-0.08,1.62-0.08,2.46
			c-0.01,3.28,0.36,6.79,0.37,10.31c0,1.56-0.08,3.12-0.31,4.68l-0.02,0.01c-1.09,6.83-4.29,13.02-8.98,17.6
			c-4.66,4.57-10.87,7.52-17.83,7.73c-12.57,0.42-25.15,0.52-37.81,0.52c-12.65,0-25.4-0.1-38.34-0.1c-0.6,0-1.17-0.24-1.59-0.66
			C311.51,287.74,311.27,287.15,311.27,286.57z"/>
		<path class="st5" d="M416.51,353.91c0.02,0.39,0.03,0.79,0.03,1.18c0,4.44-1.23,8.41-3.57,11.48c-2.32,3.07-5.73,5.2-9.73,6.08
			l-0.1,0.01c-1.03,0.18-2.07,0.27-3.09,0.27c-6.89,0-13.29-3.96-16.2-10.16l-0.05-0.1c-0.85-2.07-1.27-4.21-1.27-6.32
			c0-3.01,0.85-5.93,2.43-8.56c1.57-2.62,3.85-4.93,6.7-6.77c0.17-0.1,0.33-0.18,0.51-0.24c0.25-0.09,0.51-0.19,0.78-0.33
			c-0.21-1.24-0.57-2.25-1.03-3.01c-0.63-1.03-1.38-1.68-2.47-2.11c-0.72-0.28-1.62-0.45-2.73-0.45h-0.06
			c-5.73-0.13-11.51-0.18-17.33-0.18c-11.42,0-22.9,0.18-34.25,0.18v30.24c0,4.45-0.18,8.84-0.18,13.04c0,2.1,0.04,4.15,0.18,6.14
			v0.15c0,1,0.31,2.29,0.85,3.52c0.51,1.21,1.23,2.38,1.9,3.24c0.01,0.02,0.03,0.05,0.05,0.06c0.54,0.63,1.05,1.11,1.44,1.36
			c0.4,0.28,0.61,0.31,0.66,0.31c0.05-0.01,0.14,0.02,0.51-0.27c0.34-0.28,0.88-0.9,1.5-1.93h-0.02c0-0.02,0.02-0.02,0.03-0.03
			c1.51-2.68,3.61-4.81,6.05-6.26s5.25-2.2,8.14-2.2c2.22,0,4.5,0.45,6.7,1.35l0.09,0.04c3.01,1.41,5.56,3.64,7.39,6.37
			c1.81,2.73,2.91,5.98,2.91,9.4c0,1.2-0.13,2.43-0.42,3.64c-0.9,3.84-3.03,7.09-5.99,9.35c-2.95,2.26-6.73,3.52-10.85,3.51
			c-0.31,0-0.64,0-0.97-0.01h-0.12c-2.55,0.01-5.11,0.27-7.66,0.78l-0.18,0.03c-1.32,0.15-2.64,0.24-3.96,0.24
			c-8.29-0.01-16.13-3.15-21.96-8.41c-5.84-5.25-9.71-12.68-9.91-21.16v-0.02c-0.15-8.11-0.2-16.2-0.2-24.34
			c0-16.29,0.2-32.73,0.2-49.73c0-0.58,0.24-1.17,0.66-1.59c0.42-0.42,0.99-0.66,1.59-0.66h71.97c9.11,0,17.03,3.45,22.6,9.05
			c5.59,5.61,8.84,13.35,8.83,21.85c0,1.78-0.14,3.6-0.42,5.43h-0.02c-0.11,1.12-0.17,2.2-0.17,3.25c0,1.08,0.06,2.11,0.18,3.1
			L416.51,353.91z"/>
	</g>
	<g>
		<g>
			<path id="Layer_36_" class="st1" d="M387.2,283.91c12.75-0.41,22.62-10.69,24.67-23.44c0.82-5.35-0.41-11.51,0-17.27
				c0-7.81-3.7-14.39-11.1-16.04c-6.99-1.64-14.39,1.65-17.27,8.64c-2.47,6.99-0.41,14.39,6.58,18.09c4.11,2.47,3.7,4.93,1.23,7.4
				c-2.47,2.06-5.76,3.29-8.64,3.7c-6.17,0.41-11.93,0-17.68,0c-11.24,0-22.48,0-33.72,0c-0.41-1.23-0.82-1.65-0.82-2.47
				c0-17-0.14-33.86-0.41-50.58c0-5.35,3.29-8.64,9.46-9.46c0.55,0.82,1.1,1.65,1.64,2.47c4.11,6.99,11.1,9.46,18.51,6.99
				c6.58-2.88,10.28-10.28,8.64-17.27c-1.65-7.4-7.81-11.51-16.04-11.1c-2.74,0-5.48-0.14-8.22-0.41
				c-15.63-2.47-32.08,9.46-32.49,25.5c-0.82,24.67-0.41,49.76-0.41,75.67C337.03,284.32,362.12,284.73,387.2,283.91L387.2,283.91z"
				/>
			<path id="Layer_35_" class="st1" d="M237.92,183.98c-6.17,0.82-10.69,6.99-11.1,13.57c-0.41,6.17,3.7,11.93,9.46,14.39
				c7.81,2.88,13.98,0,20.15-9.46c6.17,1.23,9.05,4.11,9.05,10.69c-0.27,10.97-0.41,22.07-0.41,33.31c0,6.17,0,11.93,0,18.51
				c-18.51,0-36.19,0.41-53.87,0c-4.93,0-7.81-3.7-9.05-9.05c1.1-0.55,1.92-0.96,2.47-1.23c7.4-4.52,10.28-11.93,7.4-18.92
				c-2.88-6.58-9.87-10.28-17.27-8.64c-6.99,1.65-11.51,7.81-11.1,16.45c0.41,1.65,0.41,3.7,0,5.76
				c-3.29,18.92,9.87,34.96,28.79,34.96c22.48,0,44.83,0,67.03,0c1.65,0,2.88-0.41,4.52-0.41c0-0.82,0.41-1.65,0.41-2.06
				c0-24.26,0.41-48.12,0-71.97c-0.41-13.16-10.28-24.26-23.03-26.32C253.55,182.74,245.73,183.16,237.92,183.98L237.92,183.98z"/>
			<path id="Layer_34_" class="st1" d="M209.13,311.05c-16.04,0.41-27.96,16.45-25.91,32.49c0.27,3.29,0.41,6.58,0.41,9.87
				c0,6.99,4.52,13.16,11.1,14.8c6.99,1.23,13.98-2.06,16.86-8.22c2.88-6.17,1.23-13.98-4.93-18.09c-1.23-1.23-2.88-2.06-4.11-2.88
				c1.23-6.58,4.11-9.05,10.28-9.05c15.63,0,31.25,0.14,46.88,0.41c1.64,0,3.29,0,5.35,0.41c0,18.09,0.41,35.37,0,53.05
				c0,5.35-3.29,8.22-9.05,9.46c-0.41-1.23-0.82-2.06-1.23-2.88c-4.52-6.99-11.51-9.87-18.92-6.99c-6.58,2.47-10.28,9.46-8.64,16.86
				c1.65,7.4,7.81,11.51,16.04,11.1c1.65,0,3.7,0,5.35,0c21.38,3.29,35.78-9.05,35.78-30.43s0-42.77,0-64.15c0-1.64,0-3.7-0.41-5.76
				C258.48,311.05,233.81,310.64,209.13,311.05z"/>
			<path id="Layer_33_" class="st1" d="M344.43,412.22c2.74-0.55,5.48-0.82,8.22-0.82c7.81,0.41,13.98-4.11,15.63-11.1
				c1.64-6.99-2.47-13.98-8.64-16.86c-6.99-2.88-14.39-0.41-18.09,6.17c-2.88,4.93-5.35,3.7-7.81,0.82
				c-1.64-2.06-3.29-5.35-3.29-8.22c-0.41-6.17,0-12.75,0-19.33c0-10.69,0-21.38,0-31.67c0.82-0.41,1.23-0.82,1.64-0.82
				c17.27,0,34.96-0.41,52.23,0c5.35,0,8.22,3.29,8.64,9.05c-0.82,0.55-1.65,0.96-2.47,1.23c-6.99,4.52-9.87,11.93-6.99,18.92
				c2.88,6.17,9.87,9.87,16.86,8.64c7.4-1.65,11.93-7.81,11.51-16.45c-0.27-2.19-0.27-4.52,0-6.99
				c2.88-18.09-9.87-33.72-28.79-33.72c-10.42,0-20.7,0-30.84,0c-13.57,0-27.14,0-41.12,0c0,25.5-0.41,49.76,0,74.02
				C311.53,401.94,327.57,414.28,344.43,412.22L344.43,412.22z"/>
		</g>
	</g>
</g>
</svg>
