<?xml version="1.0" encoding="utf-8"?>
<!-- Generator: Adobe Illustrator 25.0.0, SVG Export Plug-In . SVG Version: 6.00 Build 0)  -->
<svg version="1.1" id="Layer_1" xmlns="http://www.w3.org/2000/svg" xmlns:xlink="http://www.w3.org/1999/xlink" x="0px" y="0px"
	 viewBox="0 0 595.28 595.28" style="enable-background:new 0 0 595.28 595.28;" xml:space="preserve">
<style type="text/css">
	.st0{fill:#DA6512;}
	.st1{fill:#F49A1D;}
	.st2{fill:#FFE476;}
	.st3{fill:#FFD324;}
	.st4{fill:#FFF7B2;}
	.st5{fill:#F9B52A;}
	.st6{fill:#F29100;}
</style>
<g>
	<g>
		<path class="st0" d="M269.72,36.85h55.83v521.57h-55.83c-94.93,0-171.89-116.76-171.89-260.79
			C97.84,153.61,174.79,36.85,269.72,36.85z"/>
		<path class="st1" d="M325.55,544.28v14.14h-55.83c-40.33,0-77.39-21.13-106.7-56.41l162.53,2V544.28z"/>
		<path class="st1" d="M229.63,215.12l-122.62-1.5c8.1-36.14,21.28-68.69,38.26-95.74l85.12,1.04L229.63,215.12z"/>
		<path class="st1" d="M230.4,100.61l-72.53-0.89c3.71-4.84,7.56-9.44,11.54-13.78l61.1,0.75L230.4,100.61z"/>
		<ellipse class="st2" cx="325.55" cy="297.64" rx="171.89" ry="260.79"/>
		<ellipse class="st3" cx="325.55" cy="297.64" rx="166.24" ry="252.22"/>
		<path class="st4" d="M407.87,516.73L168.42,215.29c8.14-35.73,21.39-67.83,38.48-94.24L461.83,442
			C447.74,472.57,429.3,498.16,407.87,516.73z"/>
		<path class="st4" d="M165.07,363.51L312.41,549C241.48,540.58,183.07,464.66,165.07,363.51z"/>
		<path class="st4" d="M484.41,223.13L344.6,47.12c16.77,2.9,32.77,9.59,47.64,19.49l70.65,88.95
			C472.15,176.1,479.46,198.82,484.41,223.13z"/>
		<path class="st4" d="M471.07,419.59L219.71,103.14c3.03-3.8,6.17-7.38,9.38-10.85L476.4,403.64
			C474.74,409.06,472.97,414.38,471.07,419.59z"/>
		<path class="st4" d="M325.55,46.39c-93.88,0-170.13,114.2-171.81,256.02c-0.02-1.59-0.08-3.17-0.08-4.77
			c0-144.03,76.96-260.79,171.89-260.79s171.89,116.76,171.89,260.79c0,1.6-0.06,3.18-0.08,4.77
			C495.68,160.59,419.43,46.39,325.55,46.39z"/>
		<ellipse class="st4" cx="321.72" cy="304.7" rx="118.25" ry="179.41"/>
		<ellipse class="st5" cx="325.55" cy="297.64" rx="118.25" ry="179.41"/>
		<path class="st1" d="M428.61,302.7c0-99.08-52.94-179.41-118.25-179.41c-5.99,0-11.88,0.69-17.64,2
			c10.43-4.56,21.43-7.06,32.83-7.06c65.31,0,118.25,80.32,118.25,179.41c0,89.99-43.67,164.49-100.61,177.41
			C392.52,453.46,428.61,384.5,428.61,302.7z"/>
	</g>
	<g>
		<g>
			<path class="st6" d="M332.75,304.68c0.07,2.55,0.44,4.78,0.71,6.47l10.38,65.14c1.61,10.14,4.96,17.5,9.59,21.36
				c4.61,3.86,10.4,4.12,16.58,0.62c1.44-0.81,2.91-1.83,4.41-3.07l3.47-1.96c0.25-0.13,0.49-0.24,0.74-0.39
				c2.8-1.58,5.16-4.18,6.81-7.56c1.65-3.39,2.52-7.55,2.46-11.94c-0.03-1.48-0.15-2.89-0.36-4.23c-1.1-6.99-4.79-11.72-9.43-11.77
				l-0.01-0.01c-1.56-0.03-3.06,0.35-4.47,1.15c-2.01,1.13-3.8,3.09-5.25,5.67c-1.45,2.56-2.57,5.71-3.32,9.27l-0.06,0.26
				c-0.06,0.43-0.13,0.9-0.18,1.43c-0.8,0.07-1.48-0.04-2.05-0.27c-0.85-0.37-1.44-0.96-1.91-1.94c-0.31-0.65-0.56-1.51-0.74-2.63
				l-0.01-0.05c-1.04-5.92-2.01-11.82-2.96-17.75c-1.78-11.2-3.47-22.51-5.3-34.1c0.68-0.5,1.32-0.86,2.03-1.26l0.03-0.02
				c10.31-6.12,20.64-12.11,30.99-17.96c1.39-0.79,2.42-1.02,3.18-0.85c0.76,0.19,1.35,0.68,2.03,1.84c0.29,0.5,0.57,1.14,0.85,1.93
				c-0.13,0.24-0.27,0.48-0.41,0.75c-0.41,0.76-0.86,1.63-1.24,2.68c-2.61,5.06-3.33,11.22-2.5,16.44c0.4,2.48,1.14,4.78,2.21,6.68
				c1.45,2.6,3.39,4.22,5.51,4.87c2.12,0.66,4.43,0.35,6.67-0.91c0.73-0.41,1.44-0.93,2.15-1.55l0.09-0.09
				c2.38-2.41,4.15-5.91,5.14-9.81c1-3.9,1.25-8.2,0.61-12.24c-0.52-3.29-0.96-6.61-1.3-9.98c-0.11-1.35-0.25-2.68-0.46-3.97
				c-1.3-8.06-4.54-14.67-8.8-18.6c-4.25-3.93-9.61-5.2-15.02-2.38l-0.01,0.01c-5.49,2.95-10.95,5.99-16.43,9.09
				c-10.96,6.19-21.94,12.6-33.21,18.97C333.21,302.41,332.72,303.53,332.75,304.68z"/>
			<path class="st6" d="M316.15,202.53c1.2,8.13,2.46,16.24,3.75,24.34c2.58,16.19,5.29,32.36,7.9,48.77
				c0.08,0.49,0.18,0.7,0.24,0.91c0.08,0.21,0.14,0.35,0.19,0.51c0.12,0.27,0.17,0.48,0.17,0.52c0.1,0.61,0.35,1.11,0.69,1.37
				c0.35,0.27,0.77,0.29,1.16,0.07c0.43-0.24,0.83-0.37,1.32-0.53c0.49-0.18,1.08-0.36,1.74-0.74l44.43-25.12
				c6-3.39,10.69-9.88,13.5-17.77c2.82-7.88,3.74-17.12,2.31-25.98c-0.32-2.04-0.77-4.06-1.34-6.04l-0.02-0.06
				c-0.26-0.83-0.46-1.69-0.6-2.53s-0.2-1.63-0.19-2.3l-0.02-0.47c-0.06-0.42-0.11-0.83-0.17-1.23c-0.72-4.5-2.17-8.05-4.17-10.32
				c-2-2.27-4.52-3.22-7.21-2.68h-0.02c-0.93,0.2-1.84,0.56-2.71,1.05c-4.58,2.57-8.01,8.99-8.81,16.46v0.05
				c-0.23,2.4-0.17,4.72,0.17,6.84c0.49,3.09,1.56,5.76,3.08,7.82c1.52,2.06,3.47,3.51,5.77,4.25l0.12,0.03
				c0.17,0.04,0.37,0.07,0.6,0.12c-0.06,1.23-0.21,2.34-0.42,3.32c-0.31,1.44-0.76,2.54-1.37,3.38c-0.41,0.56-0.9,1.02-1.53,1.38
				l-0.03,0.02c-3.87,2.34-7.76,4.58-11.68,6.8c-7.36,4.16-14.84,8.2-22.5,12.52l-2.63-16.51c-1.82-11.41-3.7-22.63-5.67-33.66
				l-0.01-0.06c-0.36-2.24-0.36-3.95-0.14-5.27c0.22-1.34,0.64-2.4,1.44-3.6c0.34-0.51,0.76-1.01,1.24-1.53
				c1.92,2.33,3.77,3.94,5.64,4.81c2.12,0.98,4.3,0.9,6.39-0.28c1.37-0.77,2.68-2,3.96-3.58l0.07-0.09
				c1.86-2.53,3.28-5.75,4.13-9.22c0.83-3.46,1.08-7.2,0.53-10.68c-0.05-0.33-0.11-0.68-0.18-1.01c-0.77-3.73-2.26-6.85-4.21-8.9
				c-1.95-2.03-4.4-3-6.96-2.1l-0.05,0.01c-3.31,1.31-6.62,2.78-9.9,4.63c-2.03,1.15-4.03,2.43-6.01,3.91l-0.08,0.06
				c-8.81,7.47-13.91,23.59-11.91,38.25L316.15,202.53z"/>
			<path class="st6" d="M313.46,286.49c-2.1-13.15-4.09-26.12-6.13-38.94c-2.04-12.8-4.12-25.41-6.4-37.83
				c-1.44-8.06-5.13-13.74-9.68-16.67c-4.55-2.94-9.99-3.19-15.11-0.3c-0.96,0.54-1.93,1.22-2.86,1.98
				c-0.01,0.01-0.01,0.01-0.02,0.01c-0.02,0.01-0.04,0.04-0.06,0.05c-1.68,1.23-3.36,2.33-5.08,3.3l-0.08,0.04
				c-0.25,0.13-0.5,0.25-0.74,0.39c-2.8,1.58-5.16,4.16-6.8,7.56c-1.65,3.39-2.52,7.53-2.46,11.93v0.02
				c0.01,1.42,0.12,2.77,0.33,4.08c1.1,6.86,4.77,11.87,9.46,12.34h0.14c1.49-0.08,2.93-0.5,4.28-1.26c2-1.13,3.8-3.02,5.25-5.54
				c1.43-2.5,2.51-5.58,3.17-9.11c0.01-0.04,0.02-0.09,0.03-0.13c0.11-0.48,0.21-0.97,0.31-1.44c0.99-0.23,1.81-0.18,2.48,0.09
				c0.87,0.34,1.48,0.99,1.97,2.01c0.32,0.68,0.58,1.56,0.76,2.66c0,0.02,0,0.02,0,0.03c2.53,17.09,5.17,34.26,7.92,51.51v0.02
				l-0.02,0.21c0,0.02,0,0.02-0.01,0.04l-21.35,12.07c-2.59,1.47-5.11,3.09-7.69,4.55c-1.24,0.7-2.52,1.37-3.82,1.99
				c-0.01,0.01-0.03,0.02-0.04,0.01c-1.68,0.57-3.78,0.53-5.39-0.42c-0.36-0.28-0.63-0.57-0.79-0.83c-0.17-0.27-0.24-0.46-0.25-0.57
				c-0.01-0.14-0.03-0.26,0.08-0.71c0.11-0.42,0.38-1.11,0.86-1.98c0.02-0.03,0.04-0.07,0.06-0.1c1.64-2.62,2.75-5.6,3.31-8.66
				c0.57-3.09,0.58-6.25,0.12-9.17c-0.35-2.18-0.95-4.22-1.79-6.09l-0.04-0.1c-1.45-2.86-3.4-4.68-5.52-5.46
				c-2.12-0.76-4.43-0.48-6.63,0.76c-0.89,0.51-1.78,1.17-2.63,2c-0.01,0.01-0.01,0.01-0.02,0.03c-2.66,2.53-4.47,6.29-5.35,10.39
				c-0.89,4.14-0.89,8.6-0.2,12.92l0.03,0.17c0.17,0.78,0.31,1.62,0.45,2.47c0.54,3.33,0.86,7.03,1.42,10.61
				c0.25,1.58,0.55,3.14,0.97,4.63l0.01,0.01c1.83,6.53,4.95,11.62,8.8,14.5c3.83,2.9,8.42,3.57,13.07,1.17
				c8.4-4.28,16.75-8.89,25.15-13.63c8.38-4.74,16.82-9.62,25.39-14.47c0.4-0.22,0.74-0.68,0.95-1.26
				C313.49,287.76,313.56,287.08,313.46,286.49z"/>
			<path class="st6" d="M254.6,394.29c0.05,0.4,0.11,0.82,0.17,1.21c0.72,4.5,2.17,8.08,4.22,10.32c2.04,2.25,4.64,3.14,7.43,2.53
				l0.07-0.02c0.71-0.2,1.41-0.5,2.09-0.88c4.57-2.58,8.17-9,9.09-16.39l0.01-0.12c0.23-2.42,0.16-4.75-0.18-6.9
				c-0.49-3.06-1.53-5.71-2.99-7.78s-3.35-3.56-5.54-4.37c-0.13-0.04-0.25-0.06-0.38-0.05c-0.18,0-0.37-0.01-0.57-0.04
				c-0.06-1.34,0.01-2.5,0.2-3.45c0.25-1.29,0.64-2.22,1.3-3.07c0.43-0.56,1-1.06,1.74-1.48l0.04-0.02
				c3.77-2.28,7.6-4.49,11.45-6.67c7.57-4.28,15.21-8.4,22.73-12.65l4.89,30.71c0.72,4.52,1.55,8.91,2.23,13.17
				c0.34,2.13,0.64,4.23,0.88,6.31l0.02,0.15c0.16,1.02,0.16,2.45,0,3.9c-0.14,1.42-0.43,2.88-0.74,4
				c-0.01,0.02-0.01,0.06-0.02,0.08c-0.26,0.84-0.52,1.52-0.73,1.92c-0.22,0.44-0.36,0.55-0.39,0.57c-0.03,0-0.09,0.07-0.38-0.08
				c-0.27-0.16-0.73-0.58-1.31-1.4l0.01-0.01c0-0.02-0.01-0.01-0.02-0.02c-1.44-2.16-3.17-3.53-5.03-4.09
				c-1.85-0.56-3.83-0.27-5.75,0.81c-1.47,0.83-2.91,2.14-4.22,3.88l-0.05,0.08c-1.77,2.56-3.1,5.78-3.87,9.24
				c-0.76,3.45-0.96,7.16-0.41,10.63c0.19,1.22,0.48,2.41,0.87,3.54c1.22,3.56,3.15,6.06,5.49,7.25c2.32,1.19,5.03,1.06,7.76-0.5
				c0.21-0.12,0.43-0.24,0.64-0.38l0.08-0.04c1.69-0.94,3.43-1.64,5.2-2.08l0.12-0.04c0.9-0.34,1.79-0.74,2.66-1.24
				c5.49-3.12,10.18-9.24,13.19-16.76c3.03-7.52,4.39-16.51,3.14-25.2v-0.02c-1.21-8.29-2.49-16.52-3.81-24.79
				c-2.64-16.54-5.43-33.16-8.17-50.42c-0.09-0.59-0.35-1.1-0.69-1.37c-0.35-0.27-0.76-0.3-1.16-0.07l-47.7,26.96
				c-6.04,3.41-10.73,9.88-13.52,17.66c-2.8,7.79-3.7,16.87-2.32,25.5c0.29,1.81,0.67,3.6,1.16,5.35l0.01-0.01
				c0.25,1.1,0.47,2.18,0.64,3.24c0.17,1.1,0.3,2.17,0.38,3.22L254.6,394.29z"/>
		</g>
		<g>
			<g>
				<path id="Layer_48_" class="st3" d="M266.48,317.3c-8.52,4.36-16.72-2.38-20.15-14.56c-1.41-5.12-1.59-11.85-2.79-17.54
					c-1.26-7.93,0.12-16,4.76-20.45c4.37-4.29,9.81-3.72,12.85,2.3c2.77,6.17,2.6,14.46-1.43,20.84c-2.33,4.05-1.65,6.4,0.38,7.98
					c1.97,1.16,4.35,1.18,6.32,0.52c4.16-1.89,7.9-4.47,11.72-6.63c7.45-4.21,14.9-8.42,22.35-12.63c0.07-1.41,0.28-1.98,0.15-2.81
					c-2.75-17.26-5.39-34.43-7.91-51.52c-0.87-5.43-3.58-7.54-7.8-6.06c-0.23,1.04-0.46,2.08-0.69,3.12
					c-1.59,8.64-5.83,13.76-11.13,14.03c-4.83-0.46-8.48-6.59-8.52-14.3c-0.11-8.13,3.32-14.62,8.83-17.28
					c1.82-1.03,3.61-2.19,5.39-3.5c9.96-8.36,22.79-2.41,25.66,13.72c4.54,24.75,8.32,50.38,12.52,76.68
					C299.8,298.92,283.24,308.74,266.48,317.3L266.48,317.3z"/>
				<path id="Layer_47_" class="st3" d="M349.25,159.9c4.22-1.48,8.22,3.09,9.56,9.62c1.27,6.11-0.52,13.5-3.94,18.16
					c-4.71,5.85-9.27,5.24-14.89-2.06c-3.89,3.56-5.33,7.57-4.27,14.25c1.96,11.03,3.84,22.26,5.66,33.67
					c1,6.26,1.93,12.11,2.99,18.79c12.27-6.93,24.05-13.14,35.71-20.18c3.27-1.85,4.58-6.69,4.53-12.58
					c-0.82-0.15-1.43-0.26-1.84-0.33c-5.64-1.82-8.74-8.26-7.97-16.44c0.84-7.76,4.88-14.14,10.05-15.24
					c4.9-0.95,8.9,3.62,10.02,12.54c-0.01,1.82,0.33,3.91,0.93,5.85c5.24,17.98-0.89,39.19-13.42,46.28
					c-14.9,8.42-29.71,16.79-44.43,25.11c-1.09,0.62-1.97,0.66-3.06,1.28c-0.13-0.84-0.54-1.52-0.61-1.93
					c-3.93-24.64-8.06-48.7-11.64-73.08c-1.86-13.52,2.89-28.49,11.01-35.35C338.7,164.5,343.94,161.99,349.25,159.9L349.25,159.9z"
					/>
				<path id="Layer_46_" class="st3" d="M388.89,278.15c10.7-5.59,21.2,6.23,22.43,23.28c0.35,3.44,0.79,6.84,1.32,10.18
					c1.13,7.1-0.87,15.06-4.96,19.19c-4.43,3.87-9.6,3.15-12.51-2.03c-2.91-5.19-3.08-13.74,0.34-20.22
					c0.62-1.72,1.58-3.17,2.26-4.46c-1.88-6.22-4.19-7.65-8.28-5.34c-10.36,5.85-20.69,11.85-31.01,17.98
					c-1.09,0.62-2.18,1.23-3.48,2.42c2.93,18.37,5.45,36.07,8.58,53.87c0.87,5.43,3.51,7.12,7.53,6.22c0.07-1.41,0.21-2.4,0.35-3.39
					c1.87-8.79,6.04-14.34,11.41-14.19c4.76,0.04,8.34,5.75,8.45,13.89c0.11,8.13-3.32,14.62-8.83,17.28
					c-1.09,0.62-2.45,1.39-3.54,2c-13.64,11.35-25.18,4.22-28.64-17.5s-6.92-43.43-10.38-65.15c-0.27-1.67-0.6-3.76-0.66-6
					C356.19,296.64,372.47,286.98,388.89,278.15z"/>
				<path id="Layer_45_" class="st3" d="M315.58,431.57c-1.91,0.47-3.77,1.22-5.58,2.25c-5.11,3.35-9.93,1.06-12.15-5.42
					s-0.63-15.12,3-20.36c4.17-5.54,9.47-5.81,12.99-0.52c2.71,3.93,4.14,1.76,5.31-2.09c0.76-2.7,1.32-6.66,0.85-9.58
					c-0.73-6.42-2.06-12.95-3.13-19.63c-1.73-10.86-3.46-21.72-5.12-32.15c-0.61-0.11-0.95-0.37-1.22-0.22
					c-11.45,6.47-23.24,12.68-34.62,19.57c-3.54,2-4.92,6.42-4.26,12.42c0.63,0.25,1.25,0.36,1.84,0.33
					c5.37,1.97,8.47,8.41,7.69,16.59c-0.91,7.34-4.94,13.72-9.78,15.09c-5.17,1.1-9.17-3.47-10.29-12.39
					c-0.17-2.33-0.55-4.7-1.13-7.1c-4.84-17.3,1.09-37.94,13.62-45.03c6.91-3.9,13.72-7.76,20.44-11.56
					c9-5.08,17.99-10.17,27.26-15.41c4.13,25.89,8.32,50.38,11.98,75.17C335.73,408.8,327.09,427.34,315.58,431.57L315.58,431.57z"
					/>
			</g>
		</g>
	</g>
</g>
</svg>
