<?xml version="1.0" encoding="utf-8"?>
<!-- Generator: Adobe Illustrator 25.0.0, SVG Export Plug-In . SVG Version: 6.00 Build 0)  -->
<svg version="1.1" id="Layer_1" xmlns="http://www.w3.org/2000/svg" xmlns:xlink="http://www.w3.org/1999/xlink" x="0px" y="0px"
	 viewBox="0 0 595.28 595.28" style="enable-background:new 0 0 595.28 595.28;" xml:space="preserve">
<style type="text/css">
	.st0{fill:#DA6512;}
	.st1{fill:#F49A1D;}
	.st2{fill:#FFF7B2;}
	.st3{fill:#FFE476;}
	.st4{fill:#FFD324;}
	.st5{fill:#F9B52A;}
	.st6{fill:#F29100;}
</style>
<g>
	<g>
		<path class="st0" d="M325.55,36.85h-55.83v521.57h55.83c94.93,0,171.89-116.76,171.89-260.79
			C497.44,153.61,420.48,36.85,325.55,36.85z"/>
		<path class="st1" d="M269.72,544.28v14.14h55.83c40.33,0,77.39-21.13,106.7-56.41l-162.53,2V544.28z"/>
		<path class="st2" d="M365.65,215.12l122.62-1.5c-8.1-36.14-21.28-68.69-38.26-95.74l-85.12,1.04L365.65,215.12z"/>
		<path class="st2" d="M364.88,100.61l72.53-0.89c-3.71-4.84-7.56-9.44-11.54-13.78l-61.1,0.75L364.88,100.61z"/>
		<ellipse class="st3" cx="269.72" cy="297.64" rx="171.89" ry="260.79"/>
		<ellipse class="st4" cx="269.72" cy="297.64" rx="166.24" ry="252.22"/>
		<path class="st2" d="M187.41,516.73l239.44-301.45c-8.14-35.73-21.39-67.83-38.48-94.24L133.44,442
			C147.53,472.57,165.97,498.16,187.41,516.73z"/>
		<path class="st2" d="M430.2,363.51L282.86,549C353.8,540.58,412.21,464.66,430.2,363.51z"/>
		<path class="st2" d="M110.87,223.13l139.8-176.01c-16.77,2.9-32.77,9.59-47.64,19.49l-70.65,88.95
			C123.12,176.1,115.81,198.82,110.87,223.13z"/>
		<path class="st2" d="M124.2,419.59l251.36-316.45c-3.03-3.8-6.17-7.38-9.38-10.85l-247.3,311.35
			C120.54,409.06,122.3,414.38,124.2,419.59z"/>
		<path class="st2" d="M269.72,46.39c93.88,0,170.13,114.2,171.81,256.02c0.02-1.59,0.08-3.17,0.08-4.77
			c0-144.03-76.96-260.79-171.89-260.79S97.83,153.61,97.83,297.64c0,1.6,0.06,3.18,0.08,4.77
			C99.6,160.59,175.85,46.39,269.72,46.39z"/>
		<ellipse class="st2" cx="273.55" cy="304.7" rx="118.25" ry="179.41"/>
		<ellipse class="st5" cx="269.72" cy="297.64" rx="118.25" ry="179.41"/>
		<path class="st1" d="M166.67,302.7c0-99.08,52.94-179.41,118.25-179.41c5.99,0,11.88,0.69,17.64,2
			c-10.43-4.56-21.43-7.06-32.83-7.06c-65.31,0-118.25,80.32-118.25,179.41c0,89.99,43.67,164.49,100.61,177.41
			C202.76,453.46,166.67,384.5,166.67,302.7z"/>
	</g>
	<g>
		<g>
			<path class="st6" d="M264.88,305.72c0.04,2.48-0.21,4.69-0.39,6.36l-6.95,64.38c-1.08,10.02-3.89,17.52-8.02,21.74
				c-4.12,4.23-9.49,5.08-15.38,2.3c-1.37-0.64-2.78-1.48-4.22-2.53l-3.3-1.55c-0.24-0.1-0.47-0.19-0.7-0.3
				c-2.67-1.25-4.97-3.53-6.64-6.65s-2.66-7.08-2.78-11.35c-0.03-1.44,0.02-2.82,0.16-4.14c0.74-6.91,3.97-11.89,8.28-12.41
				l0.01-0.01c1.45-0.19,2.86,0.03,4.2,0.66c1.91,0.9,3.65,2.61,5.11,4.97c1.46,2.34,2.62,5.29,3.47,8.67l0.06,0.25
				c0.07,0.41,0.16,0.86,0.23,1.37c0.75-0.01,1.37-0.19,1.89-0.47c0.77-0.44,1.3-1.08,1.7-2.08c0.26-0.67,0.46-1.52,0.58-2.63v-0.05
				c0.72-5.86,1.38-11.69,2.01-17.56c1.2-11.07,2.29-22.23,3.52-33.69c-0.65-0.42-1.27-0.7-1.94-1.02l-0.03-0.01
				c-9.83-4.89-19.67-9.65-29.53-14.27c-1.32-0.62-2.29-0.74-2.99-0.5c-0.69,0.26-1.23,0.8-1.81,2c-0.24,0.52-0.48,1.16-0.71,1.96
				c0.14,0.22,0.27,0.44,0.41,0.68c0.41,0.7,0.86,1.49,1.26,2.47c2.63,4.65,3.56,10.57,3,15.73c-0.26,2.45-0.86,4.76-1.78,6.72
				c-1.24,2.67-2.98,4.45-4.92,5.3c-1.94,0.86-4.1,0.79-6.23-0.2c-0.69-0.32-1.38-0.76-2.06-1.28l-0.09-0.07
				c-2.31-2.09-4.1-5.32-5.18-9c-1.09-3.69-1.5-7.85-1.07-11.83c0.35-3.25,0.61-6.52,0.79-9.84c0.04-1.32,0.12-2.63,0.26-3.91
				c0.87-7.97,3.61-14.73,7.41-18.98c3.79-4.26,8.71-6.04,13.85-3.85h0.01c5.22,2.3,10.42,4.7,15.64,7.14
				c10.43,4.89,20.91,9.99,31.63,15.02C264.36,303.57,264.87,304.61,264.88,305.72z"/>
			<path class="st6" d="M276.08,204.73c-0.78,8.03-1.61,16.04-2.48,24.04c-1.73,16-3.57,32-5.32,48.21
				c-0.05,0.48-0.13,0.7-0.19,0.91s-0.12,0.36-0.15,0.51c-0.1,0.27-0.14,0.49-0.14,0.52c-0.06,0.6-0.28,1.12-0.59,1.4
				c-0.31,0.3-0.71,0.36-1.07,0.19c-0.41-0.19-0.79-0.27-1.25-0.38c-0.46-0.12-1.02-0.24-1.65-0.54l-42.32-19.84
				c-5.71-2.68-10.34-8.5-13.27-15.88c-2.94-7.37-4.18-16.26-3.22-25.01c0.21-2.02,0.54-4.03,1-6.01l0.02-0.06
				c0.21-0.83,0.36-1.7,0.45-2.52c0.09-0.83,0.11-1.61,0.08-2.25v-0.46c0.03-0.41,0.07-0.82,0.11-1.21
				c0.48-4.45,1.68-8.04,3.44-10.46c1.76-2.41,4.07-3.59,6.58-3.34l0.02-0.01c0.87,0.09,1.73,0.35,2.56,0.74
				c4.36,2.03,7.81,7.91,8.87,15.09v0.05c0.32,2.31,0.35,4.57,0.13,6.66c-0.33,3.05-1.21,5.75-2.53,7.91
				c-1.33,2.16-3.08,3.77-5.18,4.73l-0.11,0.04c-0.15,0.05-0.34,0.11-0.56,0.18c0.11,1.19,0.29,2.26,0.53,3.19
				c0.35,1.36,0.82,2.39,1.41,3.14c0.4,0.5,0.88,0.9,1.48,1.18l0.03,0.01c3.69,1.87,7.4,3.66,11.13,5.41
				c7.01,3.29,14.12,6.45,21.42,9.85l1.76-16.32c1.22-11.28,2.5-22.37,3.87-33.3l0.01-0.06c0.24-2.21,0.17-3.87-0.09-5.13
				c-0.26-1.28-0.69-2.27-1.49-3.35c-0.34-0.46-0.75-0.9-1.21-1.36c-1.69,2.46-3.34,4.22-5.04,5.25c-1.93,1.17-3.96,1.32-5.95,0.39
				c-1.31-0.61-2.57-1.67-3.82-3.07l-0.07-0.08c-1.83-2.27-3.29-5.26-4.22-8.54c-0.92-3.28-1.3-6.89-0.93-10.33
				c0.04-0.33,0.07-0.68,0.13-1c0.56-3.7,1.82-6.89,3.54-9.08c1.73-2.18,3.96-3.37,6.38-2.76l0.05,0.01
				c3.13,0.93,6.26,2.02,9.38,3.48c1.93,0.9,3.85,1.95,5.75,3.19l0.07,0.05c8.49,6.35,13.9,21.5,12.65,35.96L276.08,204.73z"/>
			<path class="st6" d="M282.05,286.06c1.4-13,2.72-25.81,4.08-38.48c1.37-12.65,2.78-25.12,4.38-37.42c1-7.98,4.2-13.88,8.31-17.2
				c4.11-3.32,9.15-4.13,14.02-1.85c0.92,0.43,1.84,0.99,2.74,1.63c0.01,0,0.01,0,0.02,0.01c0.02,0.01,0.04,0.03,0.06,0.04
				c1.61,1.02,3.22,1.92,4.86,2.69l0.08,0.04c0.24,0.1,0.48,0.19,0.7,0.3c2.67,1.25,4.97,3.51,6.63,6.65
				c1.67,3.12,2.66,7.06,2.78,11.34v0.02c0.05,1.38,0.01,2.71-0.13,4c-0.74,6.78-3.94,12.03-8.28,12.96l-0.13,0.02
				c-1.39,0.08-2.74-0.18-4.03-0.78c-1.9-0.89-3.65-2.55-5.1-4.84c-1.43-2.28-2.56-5.17-3.32-8.53c-0.02-0.04-0.02-0.09-0.04-0.13
				c-0.12-0.45-0.24-0.92-0.35-1.36c-0.93-0.12-1.69,0.01-2.3,0.34c-0.79,0.42-1.33,1.11-1.74,2.15c-0.27,0.69-0.48,1.58-0.6,2.66
				c0,0.01,0,0.01,0,0.03c-1.64,16.87-3.38,33.83-5.22,50.88v0.02l0.03,0.2c0,0.02,0,0.02,0.01,0.03l20.33,9.53
				c2.47,1.16,4.87,2.47,7.33,3.63c1.18,0.55,2.4,1.08,3.63,1.54c0.01,0,0.03,0.01,0.04,0c1.59,0.38,3.53,0.12,4.99-0.96
				c0.32-0.31,0.56-0.62,0.7-0.89c0.15-0.28,0.2-0.47,0.21-0.58c0.01-0.14,0.02-0.26-0.11-0.68c-0.12-0.4-0.39-1.04-0.88-1.84
				c-0.02-0.02-0.04-0.07-0.06-0.09c-1.63-2.38-2.78-5.16-3.43-8.07c-0.66-2.95-0.8-6.02-0.49-8.91c0.23-2.15,0.71-4.2,1.41-6.1
				l0.03-0.1c1.23-2.93,2.96-4.9,4.9-5.87c1.94-0.95,4.1-0.92,6.19,0.06c0.85,0.4,1.71,0.96,2.52,1.67c0.01,0,0.01,0,0.02,0.02
				c2.58,2.19,4.41,5.65,5.4,9.55c1,3.93,1.18,8.27,0.72,12.54l-0.02,0.17c-0.12,0.78-0.22,1.6-0.31,2.44
				c-0.37,3.29-0.51,6.92-0.88,10.46c-0.17,1.56-0.39,3.11-0.71,4.6l-0.01,0.01c-1.43,6.53-4.12,11.8-7.57,15
				c-3.44,3.21-7.67,4.33-12.1,2.48c-7.98-3.3-15.93-6.92-23.92-10.67c-7.98-3.74-16.02-7.63-24.19-11.45
				c-0.38-0.18-0.71-0.59-0.93-1.13C282.08,287.3,281.99,286.64,282.05,286.06z"/>
			<path class="st6" d="M341.19,384.79c-0.03,0.4-0.07,0.81-0.11,1.2c-0.48,4.45-1.69,8.07-3.5,10.47c-1.8,2.4-4.18,3.52-6.8,3.23
				l-0.07-0.02c-0.67-0.13-1.33-0.34-1.98-0.64c-4.35-2.04-7.96-7.91-9.13-14.99l-0.02-0.12c-0.32-2.33-0.35-4.6-0.12-6.72
				c0.33-3.02,1.18-5.7,2.46-7.87s2.97-3.81,4.96-4.82c0.12-0.06,0.23-0.08,0.35-0.09c0.17-0.01,0.34-0.04,0.53-0.1
				c0-1.31-0.12-2.42-0.33-3.33c-0.29-1.22-0.69-2.09-1.33-2.85c-0.42-0.5-0.97-0.93-1.67-1.26l-0.04-0.02
				c-3.6-1.83-7.25-3.59-10.92-5.31c-7.21-3.38-14.47-6.6-21.64-9.96l-3.28,30.35c-0.48,4.47-1.07,8.82-1.53,13.03
				c-0.23,2.11-0.42,4.18-0.55,6.22l-0.02,0.15c-0.11,1.01-0.05,2.39,0.16,3.79c0.19,1.37,0.52,2.76,0.85,3.81
				c0.01,0.02,0.01,0.05,0.02,0.07c0.27,0.79,0.54,1.42,0.76,1.79c0.22,0.41,0.35,0.5,0.38,0.51c0.03,0,0.08,0.06,0.35-0.12
				c0.25-0.18,0.66-0.64,1.16-1.5h-0.01c0-0.02,0.01-0.01,0.02-0.02c1.25-2.24,2.8-3.76,4.5-4.49c1.7-0.74,3.55-0.66,5.38,0.2
				c1.4,0.66,2.79,1.78,4.08,3.34l0.05,0.07c1.75,2.31,3.12,5.3,3.97,8.58c0.85,3.27,1.19,6.86,0.82,10.29
				c-0.13,1.2-0.35,2.4-0.66,3.53c-0.98,3.58-2.68,6.22-4.8,7.61c-2.11,1.4-4.63,1.54-7.23,0.31c-0.2-0.09-0.41-0.19-0.61-0.3
				l-0.08-0.04c-1.61-0.74-3.26-1.24-4.92-1.48l-0.12-0.02c-0.85-0.24-1.69-0.54-2.52-0.93c-5.23-2.47-9.84-7.93-12.95-14.94
				c-3.12-6.99-4.76-15.6-3.96-24.17v-0.02c0.78-8.18,1.63-16.32,2.51-24.48c1.76-16.35,3.67-32.79,5.51-49.85
				c0.06-0.59,0.28-1.1,0.59-1.4s0.7-0.37,1.07-0.19l45.43,21.3c5.75,2.7,10.37,8.5,13.29,15.78s4.13,16.02,3.2,24.54
				c-0.19,1.79-0.47,3.57-0.85,5.32h-0.01c-0.19,1.1-0.34,2.16-0.46,3.22c-0.12,1.08-0.19,2.14-0.22,3.17L341.19,384.79z"/>
		</g>
		<g>
			<g>
				<path id="Layer_44_" class="st4" d="M326.98,311.18c8.09,3.36,15.44-4.04,18.11-16.22c1.1-5.12,0.99-11.68,1.87-17.33
					c0.85-7.84-0.78-15.54-5.27-19.38c-4.23-3.72-9.26-2.61-11.84,3.55c-2.31,6.29-1.82,14.32,2.19,20.11
					c2.33,3.69,1.8,6.05-0.02,7.79c-1.78,1.33-3.99,1.6-5.85,1.16c-3.94-1.41-7.53-3.53-11.16-5.23c-7.1-3.33-14.19-6.65-21.29-9.98
					c-0.13-1.36-0.34-1.89-0.25-2.72c1.84-17.06,3.58-34.02,5.22-50.89c0.58-5.37,3.01-7.69,7-6.69c0.26,0.99,0.51,1.98,0.77,2.96
					c1.84,8.23,5.98,12.78,10.92,12.49c4.47-0.94,7.6-7.27,7.32-14.78c-0.24-7.92-3.68-13.87-8.92-15.89
					c-1.73-0.81-3.45-1.76-5.15-2.85c-9.6-7.1-21.27,0-23.27,15.97c-3.19,24.52-5.65,49.82-8.46,75.82
					C295.26,296.74,311.05,304.58,326.98,311.18L326.98,311.18z"/>
				<path id="Layer_43_" class="st4" d="M243.57,166.69c-3.98-1-7.51,3.85-8.48,10.33c-0.93,6.07,1.04,13.06,4.41,17.25
					c4.62,5.2,8.83,4.14,13.74-3.53c3.76,3.06,5.27,6.81,4.55,13.41c-1.36,10.92-2.65,22.03-3.87,33.31
					c-0.67,6.19-1.29,11.97-2,18.57c-11.68-5.48-22.89-10.3-34.01-15.95c-3.12-1.46-4.53-6.03-4.73-11.76
					c0.75-0.23,1.32-0.39,1.69-0.51c5.16-2.35,7.78-8.93,6.72-16.79c-1.1-7.46-5.12-13.24-9.97-13.78
					c-4.59-0.42-8.12,4.43-8.79,13.22c0.08,1.77-0.14,3.84-0.62,5.78c-4.13,18.01,2.44,38,14.38,43.6
					c14.19,6.65,28.3,13.27,42.31,19.84c1.04,0.49,1.86,0.44,2.9,0.93c0.09-0.83,0.44-1.53,0.48-1.94
					c2.63-24.35,5.47-48.17,7.8-72.23c1.17-13.33-3.86-27.39-11.69-33.23C253.57,170.08,248.59,168.18,243.57,166.69L243.57,166.69z
					"/>
				<path id="Layer_42_" class="st4" d="M211.63,285.71c-10.17-4.33-19.43,8.23-19.87,24.94c-0.18,3.38-0.45,6.73-0.81,10.03
					c-0.76,7.02,1.43,14.55,5.4,18.15c4.28,3.31,9.05,2.08,11.53-3.26c2.49-5.34,2.29-13.67-1.15-19.62
					c-0.65-1.6-1.59-2.92-2.28-4.11c1.49-6.24,3.58-7.86,7.47-6.04c9.86,4.63,19.71,9.39,29.55,14.29c1.04,0.49,2.08,0.97,3.33,2
					c-1.96,18.16-3.57,35.62-5.75,53.24c-0.58,5.37-2.97,7.28-6.74,6.81c-0.13-1.36-0.3-2.31-0.47-3.25
					c-2.1-8.36-6.2-13.31-11.18-12.62c-4.42,0.53-7.51,6.45-7.28,14.37c0.24,7.92,3.68,13.87,8.92,15.89
					c1.04,0.49,2.34,1.1,3.37,1.58c13.14,9.63,23.56,1.51,25.88-19.95c2.32-21.46,4.63-42.92,6.95-64.39
					c0.18-1.65,0.4-3.71,0.36-5.9C242.78,300.32,227.25,292.6,211.63,285.71z"/>
				<path id="Layer_41_" class="st4" d="M286.08,427.29c1.79,0.26,3.55,0.8,5.28,1.61c4.89,2.73,9.27,0.01,11.07-6.52
					c1.8-6.53-0.04-14.76-3.62-19.48c-4.1-4.96-9.04-4.67-12.09,0.83c-2.35,4.1-3.78,2.13-5.02-1.49c-0.82-2.55-1.5-6.34-1.19-9.23
					c0.41-6.31,1.38-12.79,2.09-19.4c1.16-10.73,2.32-21.46,3.43-31.78c0.56-0.17,0.87-0.46,1.13-0.34
					c10.9,5.11,22.11,9.93,32.97,15.46c3.37,1.58,4.84,5.74,4.47,11.64c-0.58,0.31-1.14,0.48-1.69,0.51
					c-4.9,2.47-7.52,9.05-6.46,16.92c1.15,7.04,5.16,12.83,9.71,13.66c4.85,0.54,8.37-4.31,9.05-13.1c0.06-2.28,0.32-4.62,0.76-7.02
					c3.78-17.31-2.58-36.77-14.52-42.37c-6.58-3.08-13.07-6.13-19.47-9.13c-8.57-4.02-17.13-8.03-25.96-12.17
					c-2.76,25.59-5.65,49.82-8.02,74.29C266.42,407.23,275.21,424.36,286.08,427.29L286.08,427.29z"/>
			</g>
		</g>
	</g>
</g>
</svg>
