<?xml version="1.0" encoding="utf-8"?>
<!-- Generator: Adobe Illustrator 25.0.0, SVG Export Plug-In . SVG Version: 6.00 Build 0)  -->
<svg version="1.1" id="OBJECT" xmlns="http://www.w3.org/2000/svg" xmlns:xlink="http://www.w3.org/1999/xlink" x="0px" y="0px"
	 viewBox="0 0 391.16 360.14" style="enable-background:new 0 0 391.16 360.14;" xml:space="preserve">
<style type="text/css">
	.st0{fill:#E4E5E6;}
	.st1{fill:#DA6512;}
	.st2{fill:#874213;}
	.st3{fill:#FFD324;}
	.st4{fill:#FCED81;}
	.st5{fill:#F9B52A;}
</style>
<path class="st0" d="M384.43,225.87c0-24.1-35.17-43.64-78.55-43.64c-34.43,0-63.67,12.31-74.28,29.44
	c-6.96-1.12-14.3-1.73-21.9-1.73c-15.52,0-29.98,2.51-42.17,6.83c0.05-0.62,0.09-1.24,0.09-1.87c0-24.1-35.17-43.64-78.55-43.64
	S10.52,190.8,10.52,214.9c0,4.71,1.34,9.24,3.83,13.49c5.08,8.68,4.05,19.48-1.88,27.6c-3.7,5.06-5.73,10.59-5.73,16.38
	c0,24.1,35.17,43.64,78.55,43.64c0.15,0,0.3,0,0.45,0c14.01-0.04,27.27,5.65,37.2,15.54c13.42,13.37,39.12,22.4,68.62,22.4
	c21.69,0,41.32-4.88,55.53-12.78c5.05-2.81,10.82-4,16.59-3.67c0.03,0,0.06,0,0.1,0.01c43.31,2.48,79.54-15.02,80.92-39.08
	c0.23-4.08-0.55-8.1-2.23-11.95c-4.34-9.98,0.55-21.51,10.59-25.7C372.1,252.81,384.43,240.14,384.43,225.87z"/>
<g>
	<g>
		<g>
			<g>
				<path class="st1" d="M264.96,166.86c-5.86-12.91-26.9-22.47-51.96-22.47s-46.1,9.56-51.96,22.47l-1.63-5.26v12.56
					c0,16.44,23.99,29.77,53.59,29.77s53.59-13.33,53.59-29.77V161.6L264.96,166.86z"/>
				<path class="st2" d="M213,200.49c-29.6,0-53.59-13.33-53.59-29.77v3.45c0,16.44,23.99,29.77,53.59,29.77
					s53.59-13.33,53.59-29.77v-3.45C266.59,187.16,242.6,200.49,213,200.49z"/>
				<ellipse class="st3" cx="213" cy="161.6" rx="53.59" ry="29.77"/>
				<path class="st4" d="M213,131.82c-12.73,0-24.42,2.47-33.62,6.59l67.77,46.12c11.87-5.46,19.44-13.71,19.44-22.94
					C266.59,145.15,242.6,131.82,213,131.82z"/>
				<ellipse class="st5" cx="213" cy="161.68" rx="44.66" ry="24.81"/>
				<path class="st1" d="M213,141.98c23.11,0,42.12,9.75,44.42,22.25c0.15-0.84,0.24-1.69,0.24-2.56c0-13.7-19.99-24.81-44.66-24.81
					c-24.66,0-44.66,11.11-44.66,24.81c0,0.86,0.08,1.72,0.24,2.56C170.88,151.74,189.89,141.98,213,141.98z"/>
			</g>
		</g>
	</g>
</g>
<g>
	<g>
		<g>
			<g>
				<path class="st1" d="M259.64,154.29c-5.86-12.91-26.9-22.47-51.96-22.47s-46.1,9.56-51.96,22.47l-1.63-5.26v12.56
					c0,16.44,23.99,29.77,53.59,29.77s53.59-13.33,53.59-29.77v-12.56L259.64,154.29z"/>
				<path class="st2" d="M207.68,187.92c-29.6,0-53.59-13.33-53.59-29.77v3.45c0,16.44,23.99,29.77,53.59,29.77
					s53.59-13.33,53.59-29.77v-3.45C261.27,174.59,237.28,187.92,207.68,187.92z"/>
				<ellipse class="st3" cx="207.68" cy="149.03" rx="53.59" ry="29.77"/>
				<path class="st4" d="M207.68,119.26c-12.73,0-24.42,2.47-33.62,6.59l67.77,46.12c11.87-5.46,19.44-13.71,19.44-22.94
					C261.27,132.59,237.28,119.26,207.68,119.26z"/>
				<ellipse class="st5" cx="207.68" cy="149.12" rx="44.66" ry="24.81"/>
				<path class="st1" d="M207.68,129.42c23.11,0,42.12,9.75,44.42,22.25c0.15-0.84,0.24-1.69,0.24-2.56
					c0-13.7-19.99-24.81-44.66-24.81s-44.66,11.11-44.66,24.81c0,0.86,0.08,1.72,0.24,2.56
					C165.56,139.17,184.57,129.42,207.68,129.42z"/>
			</g>
		</g>
	</g>
</g>
<g>
	<g>
		<g>
			<g>
				<path class="st1" d="M268.57,141.73c-5.86-12.91-26.9-22.47-51.96-22.47s-46.1,9.56-51.96,22.47l-1.63-5.26v12.56
					c0,16.44,23.99,29.77,53.59,29.77s53.59-13.33,53.59-29.77v-12.56L268.57,141.73z"/>
				<path class="st2" d="M216.61,175.36c-29.6,0-53.59-13.33-53.59-29.77v3.45c0,16.44,23.99,29.77,53.59,29.77
					s53.59-13.33,53.59-29.77v-3.45C270.2,162.03,246.21,175.36,216.61,175.36z"/>
				<ellipse class="st3" cx="216.61" cy="136.47" rx="53.59" ry="29.77"/>
				<path class="st4" d="M216.61,106.7c-12.73,0-24.42,2.47-33.62,6.59l67.77,46.12c11.87-5.46,19.44-13.71,19.44-22.94
					C270.2,120.03,246.21,106.7,216.61,106.7z"/>
				<ellipse class="st5" cx="216.61" cy="136.55" rx="44.66" ry="24.81"/>
				<path class="st1" d="M216.61,116.86c23.11,0,42.12,9.75,44.42,22.25c0.15-0.84,0.24-1.69,0.24-2.56
					c0-13.7-19.99-24.81-44.66-24.81c-24.66,0-44.66,11.11-44.66,24.81c0,0.86,0.08,1.72,0.24,2.56
					C174.49,126.61,193.5,116.86,216.61,116.86z"/>
			</g>
		</g>
	</g>
</g>
<g>
	<g>
		<g>
			<g>
				<path class="st1" d="M264.96,129.17c-5.86-12.91-26.9-22.47-51.96-22.47s-46.1,9.56-51.96,22.47l-1.63-5.26v12.56
					c0,16.44,23.99,29.77,53.59,29.77s53.59-13.33,53.59-29.77v-12.56L264.96,129.17z"/>
				<path class="st2" d="M213,162.8c-29.6,0-53.59-13.33-53.59-29.77v3.45c0,16.44,23.99,29.77,53.59,29.77s53.59-13.33,53.59-29.77
					v-3.45C266.59,149.47,242.6,162.8,213,162.8z"/>
				<ellipse class="st3" cx="213" cy="123.91" rx="53.59" ry="29.77"/>
				<path class="st4" d="M213,94.13c-12.73,0-24.42,2.47-33.62,6.59l67.77,46.12c11.87-5.46,19.44-13.71,19.44-22.94
					C266.59,107.46,242.6,94.13,213,94.13z"/>
				<ellipse class="st5" cx="213" cy="123.99" rx="44.66" ry="24.81"/>
				<path class="st1" d="M213,104.29c23.11,0,42.12,9.75,44.42,22.25c0.15-0.84,0.24-1.69,0.24-2.56c0-13.7-19.99-24.81-44.66-24.81
					c-24.66,0-44.66,11.11-44.66,24.81c0,0.86,0.08,1.72,0.24,2.56C170.88,114.05,189.89,104.29,213,104.29z"/>
			</g>
		</g>
	</g>
</g>
<g>
	<g>
		<g>
			<g>
				<path class="st1" d="M259.64,116.6c-5.86-12.91-26.9-22.47-51.96-22.47s-46.1,9.56-51.96,22.47l-1.63-5.26v12.56
					c0,16.44,23.99,29.77,53.59,29.77s53.59-13.33,53.59-29.77v-12.56L259.64,116.6z"/>
				<path class="st2" d="M207.68,150.23c-29.6,0-53.59-13.33-53.59-29.77v3.45c0,16.44,23.99,29.77,53.59,29.77
					s53.59-13.33,53.59-29.77v-3.45C261.27,136.9,237.28,150.23,207.68,150.23z"/>
				<ellipse class="st3" cx="207.68" cy="111.34" rx="53.59" ry="29.77"/>
				<path class="st4" d="M207.68,81.57c-12.73,0-24.42,2.47-33.62,6.59l67.77,46.12c11.87-5.46,19.44-13.71,19.44-22.94
					C261.27,94.9,237.28,81.57,207.68,81.57z"/>
				<ellipse class="st5" cx="207.68" cy="111.43" rx="44.66" ry="24.81"/>
				<path class="st1" d="M207.68,91.73c23.11,0,42.12,9.75,44.42,22.25c0.15-0.84,0.24-1.69,0.24-2.56
					c0-13.7-19.99-24.81-44.66-24.81c-24.66,0-44.66,11.11-44.66,24.81c0,0.86,0.08,1.72,0.24,2.56
					C165.56,101.48,184.57,91.73,207.68,91.73z"/>
			</g>
		</g>
	</g>
</g>
<g>
	<g>
		<g>
			<g>
				<path class="st1" d="M264.96,104.04c-5.86-12.91-26.9-22.47-51.96-22.47s-46.1,9.56-51.96,22.47l-1.63-5.26v12.56
					c0,16.44,23.99,29.77,53.59,29.77s53.59-13.33,53.59-29.77V98.78L264.96,104.04z"/>
				<path class="st2" d="M213,137.67c-29.6,0-53.59-13.33-53.59-29.77v3.45c0,16.44,23.99,29.77,53.59,29.77
					s53.59-13.33,53.59-29.77v-3.45C266.59,124.34,242.6,137.67,213,137.67z"/>
				<ellipse class="st3" cx="213" cy="98.78" rx="53.59" ry="29.77"/>
				<path class="st4" d="M213,69.01c-12.73,0-24.42,2.47-33.62,6.59l67.77,46.12c11.87-5.46,19.44-13.71,19.44-22.94
					C266.59,82.34,242.6,69.01,213,69.01z"/>
				<ellipse class="st5" cx="213" cy="98.86" rx="44.66" ry="24.81"/>
				<path class="st1" d="M213,79.17c23.11,0,42.12,9.75,44.42,22.25c0.15-0.84,0.24-1.69,0.24-2.56c0-13.7-19.99-24.81-44.66-24.81
					c-24.66,0-44.66,11.11-44.66,24.81c0,0.86,0.08,1.72,0.24,2.56C170.88,88.92,189.89,79.17,213,79.17z"/>
			</g>
		</g>
	</g>
</g>
<g>
	<g>
		<g>
			<g>
				<path class="st1" d="M274.95,91.48c-5.86-12.91-26.9-22.47-51.96-22.47s-46.1,9.56-51.96,22.47l-1.63-5.26v12.56
					c0,16.44,23.99,29.77,53.59,29.77s53.59-13.33,53.59-29.77V86.22L274.95,91.48z"/>
				<path class="st2" d="M222.99,125.11c-29.6,0-53.59-13.33-53.59-29.77v3.45c0,16.44,23.99,29.77,53.59,29.77
					s53.59-13.33,53.59-29.77v-3.45C276.58,111.78,252.58,125.11,222.99,125.11z"/>
				<ellipse class="st3" cx="222.99" cy="86.22" rx="53.59" ry="29.77"/>
				<path class="st4" d="M222.99,56.44c-12.73,0-24.42,2.47-33.62,6.59l67.77,46.12c11.87-5.46,19.44-13.71,19.44-22.94
					C276.58,69.77,252.58,56.44,222.99,56.44z"/>
				<ellipse class="st5" cx="222.99" cy="86.3" rx="44.66" ry="24.81"/>
				<path class="st1" d="M222.99,66.6c23.11,0,42.12,9.75,44.42,22.25c0.15-0.84,0.24-1.69,0.24-2.56
					c0-13.7-19.99-24.81-44.66-24.81c-24.66,0-44.66,11.11-44.66,24.81c0,0.86,0.08,1.72,0.24,2.56
					C180.87,76.36,199.88,66.6,222.99,66.6z"/>
			</g>
		</g>
	</g>
</g>
<g>
	<g>
		<g>
			<g>
				<path class="st1" d="M268.57,78.91c-5.86-12.91-26.9-22.47-51.96-22.47s-46.1,9.56-51.96,22.47l-1.63-5.26v12.56
					c0,16.44,23.99,29.77,53.59,29.77s53.59-13.33,53.59-29.77V73.65L268.57,78.91z"/>
				<path class="st2" d="M216.61,112.54c-29.6,0-53.59-13.33-53.59-29.77v3.45c0,16.44,23.99,29.77,53.59,29.77
					s53.59-13.33,53.59-29.77v-3.45C270.2,99.21,246.21,112.54,216.61,112.54z"/>
				<ellipse class="st3" cx="216.61" cy="73.65" rx="53.59" ry="29.77"/>
				<path class="st4" d="M216.61,43.88c-12.73,0-24.42,2.47-33.62,6.59l67.77,46.12c11.87-5.46,19.44-13.71,19.44-22.94
					C270.2,57.21,246.21,43.88,216.61,43.88z"/>
				<ellipse class="st5" cx="216.61" cy="73.74" rx="44.66" ry="24.81"/>
				<path class="st1" d="M216.61,54.04c23.11,0,42.12,9.75,44.42,22.25c0.15-0.84,0.24-1.69,0.24-2.56
					c0-13.7-19.99-24.81-44.66-24.81c-24.66,0-44.66,11.11-44.66,24.81c0,0.86,0.08,1.72,0.24,2.56
					C174.5,63.79,193.5,54.04,216.61,54.04z"/>
			</g>
		</g>
	</g>
</g>
<g>
	<g>
		<g>
			<g>
				<path class="st1" d="M264.96,66.35c-5.86-12.91-26.9-22.47-51.96-22.47s-46.1,9.56-51.96,22.47l-1.63-5.26v12.56
					c0,16.44,23.99,29.77,53.59,29.77s53.59-13.33,53.59-29.77V61.09L264.96,66.35z"/>
				<path class="st2" d="M213,99.98c-29.6,0-53.59-13.33-53.59-29.77v3.45c0,16.44,23.99,29.77,53.59,29.77s53.59-13.33,53.59-29.77
					v-3.45C266.59,86.65,242.6,99.98,213,99.98z"/>
				<ellipse class="st3" cx="213" cy="61.09" rx="53.59" ry="29.77"/>
				<path class="st4" d="M213,31.32c-12.73,0-24.42,2.47-33.62,6.59l67.77,46.12c11.87-5.46,19.44-13.71,19.44-22.94
					C266.59,44.65,242.6,31.32,213,31.32z"/>
				<ellipse class="st5" cx="213" cy="61.17" rx="44.66" ry="24.81"/>
				<path class="st1" d="M213,41.48c23.11,0,42.12,9.75,44.42,22.25c0.15-0.84,0.24-1.69,0.24-2.56c0-13.7-19.99-24.81-44.66-24.81
					c-24.66,0-44.66,11.11-44.66,24.81c0,0.86,0.08,1.72,0.24,2.56C170.88,51.23,189.89,41.48,213,41.48z"/>
			</g>
		</g>
	</g>
</g>
<g>
	<g>
		<g>
			<g>
				<path class="st1" d="M252.26,53.79c-5.86-12.91-26.9-22.47-51.96-22.47s-46.1,9.56-51.96,22.47l-1.63-5.26v12.56
					c0,16.44,23.99,29.77,53.59,29.77s53.59-13.33,53.59-29.77V48.53L252.26,53.79z"/>
				<path class="st2" d="M200.3,87.42c-29.6,0-53.59-13.33-53.59-29.77v3.45c0,16.44,23.99,29.77,53.59,29.77
					s53.59-13.33,53.59-29.77v-3.45C253.89,74.09,229.9,87.42,200.3,87.42z"/>
				<ellipse class="st3" cx="200.3" cy="48.53" rx="53.59" ry="29.77"/>
				<path class="st4" d="M200.3,18.75c-12.73,0-24.42,2.47-33.62,6.59l67.77,46.12c11.87-5.46,19.44-13.71,19.44-22.94
					C253.89,32.08,229.9,18.75,200.3,18.75z"/>
				<ellipse class="st5" cx="200.3" cy="48.61" rx="44.66" ry="24.81"/>
				<path class="st1" d="M200.3,28.91c23.11,0,42.12,9.75,44.42,22.25c0.15-0.84,0.24-1.69,0.24-2.56
					c0-13.7-19.99-24.81-44.66-24.81c-24.66,0-44.66,11.11-44.66,24.81c0,0.86,0.08,1.72,0.24,2.56
					C158.18,38.67,177.19,28.91,200.3,28.91z"/>
			</g>
		</g>
	</g>
</g>
<g>
	<g>
		<g>
			<g>
				<path class="st1" d="M264.96,41.22c-5.86-12.91-26.9-22.47-51.96-22.47s-46.1,9.56-51.96,22.47l-1.63-5.26v12.56
					c0,16.44,23.99,29.77,53.59,29.77s53.59-13.33,53.59-29.77V35.96L264.96,41.22z"/>
				<path class="st2" d="M213,74.85c-29.6,0-53.59-13.33-53.59-29.77v3.45c0,16.44,23.99,29.77,53.59,29.77s53.59-13.33,53.59-29.77
					v-3.45C266.59,61.52,242.6,74.85,213,74.85z"/>
				<ellipse class="st3" cx="213" cy="35.96" rx="53.59" ry="29.77"/>
				<path class="st4" d="M213,6.19c-12.73,0-24.42,2.47-33.62,6.59l67.77,46.12c11.87-5.46,19.44-13.71,19.44-22.94
					C266.59,19.52,242.6,6.19,213,6.19z"/>
				<ellipse class="st5" cx="213" cy="36.05" rx="44.66" ry="24.81"/>
				<path class="st1" d="M213,16.35c23.11,0,42.12,9.75,44.42,22.25c0.15-0.84,0.24-1.69,0.24-2.56c0-13.7-19.99-24.81-44.66-24.81
					c-24.66,0-44.66,11.11-44.66,24.81c0,0.86,0.08,1.72,0.24,2.56C170.88,26.1,189.89,16.35,213,16.35z"/>
			</g>
		</g>
	</g>
</g>
<g>
	<g>
		<g>
			<g>
				<path class="st1" d="M154.59,200.18c-5.86-12.91-26.9-22.47-51.96-22.47s-46.1,9.56-51.96,22.47l-1.63-5.26v12.56
					c0,16.44,23.99,29.77,53.59,29.77s53.59-13.33,53.59-29.77v-12.56L154.59,200.18z"/>
				<path class="st2" d="M102.63,233.81c-29.6,0-53.59-13.33-53.59-29.77v3.45c0,16.44,23.99,29.77,53.59,29.77
					s53.59-13.33,53.59-29.77v-3.45C156.22,220.48,132.23,233.81,102.63,233.81z"/>
				<ellipse class="st3" cx="102.63" cy="194.92" rx="53.59" ry="29.77"/>
				<path class="st4" d="M102.63,165.15c-12.73,0-24.42,2.47-33.62,6.59l67.77,46.12c11.87-5.46,19.44-13.71,19.44-22.94
					C156.22,178.48,132.23,165.15,102.63,165.15z"/>
				<ellipse class="st5" cx="102.63" cy="195" rx="44.66" ry="24.81"/>
				<path class="st1" d="M102.63,175.31c23.11,0,42.12,9.75,44.42,22.25c0.15-0.84,0.24-1.69,0.24-2.56
					c0-13.7-19.99-24.81-44.66-24.81c-24.66,0-44.66,11.11-44.66,24.81c0,0.86,0.08,1.72,0.24,2.56
					C60.51,185.06,79.52,175.31,102.63,175.31z"/>
			</g>
		</g>
	</g>
</g>
<g>
	<g>
		<g>
			<g>
				<path class="st1" d="M149.27,187.62c-5.86-12.91-26.9-22.47-51.96-22.47s-46.1,9.56-51.96,22.47l-1.63-5.26v12.56
					c0,16.44,23.99,29.77,53.59,29.77s53.59-13.33,53.59-29.77v-12.56L149.27,187.62z"/>
				<path class="st2" d="M97.31,221.25c-29.6,0-53.59-13.33-53.59-29.77v3.45c0,16.44,23.99,29.77,53.59,29.77
					s53.59-13.33,53.59-29.77v-3.45C150.9,207.92,126.9,221.25,97.31,221.25z"/>
				<ellipse class="st3" cx="97.31" cy="182.36" rx="53.59" ry="29.77"/>
				<path class="st4" d="M97.31,152.58c-12.73,0-24.42,2.47-33.62,6.59l67.77,46.12c11.87-5.46,19.44-13.71,19.44-22.94
					C150.9,165.91,126.9,152.58,97.31,152.58z"/>
				<ellipse class="st5" cx="97.31" cy="182.44" rx="44.66" ry="24.81"/>
				<path class="st1" d="M97.31,162.74c23.11,0,42.12,9.75,44.42,22.25c0.15-0.84,0.24-1.69,0.24-2.56
					c0-13.7-19.99-24.81-44.66-24.81c-24.66,0-44.66,11.11-44.66,24.81c0,0.86,0.08,1.72,0.24,2.56
					C55.19,172.5,74.2,162.74,97.31,162.74z"/>
			</g>
		</g>
	</g>
</g>
<g>
	<g>
		<g>
			<g>
				<path class="st1" d="M167.14,175.05c-5.86-12.91-26.9-22.47-51.96-22.47s-46.1,9.56-51.96,22.47l-1.63-5.26v12.56
					c0,16.44,23.99,29.77,53.59,29.77s53.59-13.33,53.59-29.77v-12.56L167.14,175.05z"/>
				<path class="st2" d="M115.18,208.68c-29.6,0-53.59-13.33-53.59-29.77v3.45c0,16.44,23.99,29.77,53.59,29.77
					s53.59-13.33,53.59-29.77v-3.45C168.77,195.35,144.77,208.68,115.18,208.68z"/>
				<ellipse class="st3" cx="115.18" cy="169.79" rx="53.59" ry="29.77"/>
				<path class="st4" d="M115.18,140.02c-12.73,0-24.42,2.47-33.62,6.59l67.77,46.12c11.87-5.46,19.44-13.71,19.44-22.94
					C168.77,153.35,144.77,140.02,115.18,140.02z"/>
				<ellipse class="st5" cx="115.18" cy="169.88" rx="44.66" ry="24.81"/>
				<path class="st1" d="M115.18,150.18c23.11,0,42.12,9.75,44.42,22.25c0.15-0.84,0.24-1.69,0.24-2.56
					c0-13.7-19.99-24.81-44.66-24.81s-44.66,11.11-44.66,24.81c0,0.86,0.08,1.72,0.24,2.56C73.06,159.93,92.07,150.18,115.18,150.18
					z"/>
			</g>
		</g>
	</g>
</g>
<g>
	<g>
		<g>
			<g>
				<path class="st1" d="M161.67,162.49c-5.86-12.91-26.9-22.47-51.96-22.47s-46.1,9.56-51.96,22.47l-1.63-5.26v12.56
					c0,16.44,23.99,29.77,53.59,29.77s53.59-13.33,53.59-29.77v-12.56L161.67,162.49z"/>
				<path class="st2" d="M109.71,196.12c-29.6,0-53.59-13.33-53.59-29.77v3.45c0,16.44,23.99,29.77,53.59,29.77
					s53.59-13.33,53.59-29.77v-3.45C163.31,182.79,139.31,196.12,109.71,196.12z"/>
				<ellipse class="st3" cx="109.71" cy="157.23" rx="53.59" ry="29.77"/>
				<path class="st4" d="M109.71,127.46c-12.73,0-24.42,2.47-33.62,6.59l67.77,46.12c11.87-5.46,19.44-13.71,19.44-22.94
					C163.31,140.79,139.31,127.46,109.71,127.46z"/>
				<ellipse class="st5" cx="109.71" cy="157.31" rx="44.66" ry="24.81"/>
				<path class="st1" d="M109.71,137.62c23.11,0,42.12,9.75,44.42,22.25c0.15-0.84,0.24-1.69,0.24-2.56
					c0-13.7-19.99-24.81-44.66-24.81c-24.66,0-44.66,11.11-44.66,24.81c0,0.86,0.08,1.72,0.24,2.56
					C67.6,147.37,86.61,137.62,109.71,137.62z"/>
			</g>
		</g>
	</g>
</g>
<g>
	<g>
		<g>
			<g>
				<path class="st1" d="M149.27,149.93c-5.86-12.91-26.9-22.47-51.96-22.47s-46.1,9.56-51.96,22.47l-1.63-5.26v12.56
					c0,16.44,23.99,29.77,53.59,29.77s53.59-13.33,53.59-29.77v-12.56L149.27,149.93z"/>
				<path class="st2" d="M97.31,183.56c-29.6,0-53.59-13.33-53.59-29.77v3.45c0,16.44,23.99,29.77,53.59,29.77
					s53.59-13.33,53.59-29.77v-3.45C150.9,170.23,126.91,183.56,97.31,183.56z"/>
				<ellipse class="st3" cx="97.31" cy="144.67" rx="53.59" ry="29.77"/>
				<path class="st4" d="M97.31,114.89c-12.73,0-24.42,2.47-33.62,6.59l67.77,46.12c11.87-5.46,19.44-13.71,19.44-22.94
					C150.9,128.22,126.91,114.89,97.31,114.89z"/>
				<ellipse class="st5" cx="97.31" cy="144.75" rx="44.66" ry="24.81"/>
				<path class="st1" d="M97.31,125.05c23.11,0,42.12,9.75,44.42,22.25c0.15-0.84,0.24-1.69,0.24-2.56
					c0-13.7-19.99-24.81-44.66-24.81c-24.66,0-44.66,11.11-44.66,24.81c0,0.86,0.08,1.72,0.24,2.56
					C55.19,134.81,74.2,125.05,97.31,125.05z"/>
			</g>
		</g>
	</g>
</g>
<g>
	<g>
		<g>
			<g>
				<path class="st1" d="M161.67,137.36c-5.86-12.91-26.9-22.47-51.96-22.47s-46.1,9.56-51.96,22.47l-1.63-5.26v12.56
					c0,16.44,23.99,29.77,53.59,29.77s53.59-13.33,53.59-29.77V132.1L161.67,137.36z"/>
				<path class="st2" d="M109.71,170.99c-29.6,0-53.59-13.33-53.59-29.77v3.45c0,16.44,23.99,29.77,53.59,29.77
					s53.59-13.33,53.59-29.77v-3.45C163.31,157.66,139.31,170.99,109.71,170.99z"/>
				<ellipse class="st3" cx="109.71" cy="132.1" rx="53.59" ry="29.77"/>
				<path class="st4" d="M109.71,102.33c-12.73,0-24.42,2.47-33.62,6.59l67.77,46.12c11.87-5.46,19.44-13.71,19.44-22.94
					C163.31,115.66,139.31,102.33,109.71,102.33z"/>
				<ellipse class="st5" cx="109.71" cy="132.19" rx="44.66" ry="24.81"/>
				<path class="st1" d="M109.71,112.49c23.11,0,42.12,9.75,44.42,22.25c0.15-0.84,0.24-1.69,0.24-2.56
					c0-13.7-19.99-24.81-44.66-24.81c-24.66,0-44.66,11.11-44.66,24.81c0,0.86,0.08,1.72,0.24,2.56
					C67.6,122.24,86.61,112.49,109.71,112.49z"/>
			</g>
		</g>
	</g>
</g>
<g>
	<g>
		<g>
			<g>
				<path class="st1" d="M169.51,124.8c-5.86-12.91-26.9-22.47-51.96-22.47s-46.1,9.56-51.96,22.47l-1.63-5.26v12.56
					c0,16.44,23.99,29.77,53.59,29.77s53.59-13.33,53.59-29.77v-12.56L169.51,124.8z"/>
				<path class="st2" d="M117.55,158.43c-29.6,0-53.59-13.33-53.59-29.77v3.45c0,16.44,23.99,29.77,53.59,29.77
					s53.59-13.33,53.59-29.77v-3.45C171.14,145.1,147.15,158.43,117.55,158.43z"/>
				<ellipse class="st3" cx="117.55" cy="119.54" rx="53.59" ry="29.77"/>
				<path class="st4" d="M117.55,89.77c-12.73,0-24.42,2.47-33.62,6.59l67.77,46.12c11.87-5.46,19.44-13.71,19.44-22.94
					C171.14,103.1,147.15,89.77,117.55,89.77z"/>
				<ellipse class="st5" cx="117.55" cy="119.62" rx="44.66" ry="24.81"/>
				<path class="st1" d="M117.55,99.93c23.11,0,42.12,9.75,44.42,22.25c0.15-0.84,0.24-1.69,0.24-2.56
					c0-13.7-19.99-24.81-44.66-24.81s-44.66,11.11-44.66,24.81c0,0.86,0.08,1.72,0.24,2.56C75.43,109.68,94.44,99.93,117.55,99.93z"
					/>
			</g>
		</g>
	</g>
</g>
<g>
	<g>
		<g>
			<g>
				<path class="st1" d="M158.2,112.24c-5.86-12.91-26.9-22.47-51.96-22.47s-46.1,9.56-51.96,22.47l-1.63-5.26v12.56
					c0,16.44,23.99,29.77,53.59,29.77s53.59-13.33,53.59-29.77v-12.56L158.2,112.24z"/>
				<path class="st2" d="M106.24,145.87c-29.6,0-53.59-13.33-53.59-29.77v3.45c0,16.44,23.99,29.77,53.59,29.77
					s53.59-13.33,53.59-29.77v-3.45C159.83,132.54,135.84,145.87,106.24,145.87z"/>
				<ellipse class="st3" cx="106.24" cy="106.98" rx="53.59" ry="29.77"/>
				<path class="st4" d="M106.24,77.2c-12.73,0-24.42,2.47-33.62,6.59l67.77,46.12c11.87-5.46,19.44-13.71,19.44-22.94
					C159.83,90.53,135.84,77.2,106.24,77.2z"/>
				<ellipse class="st5" cx="106.24" cy="107.06" rx="44.66" ry="24.81"/>
				<path class="st1" d="M106.24,87.36c23.11,0,42.12,9.75,44.42,22.25c0.15-0.84,0.24-1.69,0.24-2.56
					c0-13.7-19.99-24.81-44.66-24.81s-44.66,11.11-44.66,24.81c0,0.86,0.08,1.72,0.24,2.56C64.12,97.12,83.13,87.36,106.24,87.36z"
					/>
			</g>
		</g>
	</g>
</g>
<g>
	<g>
		<path class="st1" d="M163.77,99.67c-5.86-12.91-26.9-22.47-51.96-22.47s-46.1,9.56-51.96,22.47l-1.63-5.26v12.56
			c0,16.44,23.99,29.77,53.59,29.77s53.59-13.33,53.59-29.77V94.41L163.77,99.67z"/>
		<path class="st2" d="M111.81,133.3c-29.6,0-53.59-13.33-53.59-29.77v3.45c0,16.44,23.99,29.77,53.59,29.77
			s53.59-13.33,53.59-29.77v-3.45C165.4,119.97,141.41,133.3,111.81,133.3z"/>
		<ellipse class="st3" cx="111.81" cy="94.41" rx="53.59" ry="29.77"/>
		<path class="st4" d="M111.81,64.64c-12.73,0-24.42,2.47-33.62,6.59l67.77,46.12c11.87-5.46,19.44-13.71,19.44-22.94
			C165.4,77.97,141.41,64.64,111.81,64.64z"/>
		<ellipse class="st5" cx="111.81" cy="94.5" rx="44.66" ry="24.81"/>
		<path class="st1" d="M111.81,74.8c23.11,0,42.12,9.75,44.42,22.25c0.15-0.84,0.24-1.69,0.24-2.56c0-13.7-19.99-24.81-44.66-24.81
			c-24.66,0-44.66,11.11-44.66,24.81c0,0.86,0.08,1.72,0.24,2.56C69.69,84.55,88.7,74.8,111.81,74.8z"/>
	</g>
</g>
<g>
	<g>
		<g>
			<g>
				<path class="st1" d="M348.66,213.92c-5.86-12.91-26.9-22.47-51.96-22.47s-46.1,9.56-51.96,22.47l-1.63-5.26v12.56
					c0,16.44,23.99,29.77,53.59,29.77s53.59-13.33,53.59-29.77v-12.56L348.66,213.92z"/>
				<path class="st2" d="M296.7,247.55c-29.6,0-53.59-13.33-53.59-29.77v3.45c0,16.44,23.99,29.77,53.59,29.77
					s53.59-13.33,53.59-29.77v-3.45C350.29,234.22,326.29,247.55,296.7,247.55z"/>
				<ellipse class="st3" cx="296.7" cy="208.66" rx="53.59" ry="29.77"/>
				<path class="st4" d="M296.7,178.89c-12.73,0-24.42,2.47-33.62,6.59l67.77,46.12c11.87-5.46,19.44-13.71,19.44-22.94
					C350.29,192.22,326.29,178.89,296.7,178.89z"/>
				<ellipse class="st5" cx="296.7" cy="208.75" rx="44.66" ry="24.81"/>
				<path class="st1" d="M296.7,189.05c23.11,0,42.12,9.75,44.42,22.25c0.15-0.84,0.24-1.69,0.24-2.56
					c0-13.7-19.99-24.81-44.66-24.81c-24.66,0-44.66,11.11-44.66,24.81c0,0.86,0.08,1.72,0.24,2.56
					C254.58,198.8,273.59,189.05,296.7,189.05z"/>
			</g>
		</g>
	</g>
</g>
<g>
	<g>
		<g>
			<g>
				<path class="st1" d="M358.64,201.36c-5.86-12.91-26.9-22.47-51.96-22.47s-46.1,9.56-51.96,22.47l-1.63-5.26v12.56
					c0,16.44,23.99,29.77,53.59,29.77s53.59-13.33,53.59-29.77V196.1L358.64,201.36z"/>
				<path class="st2" d="M306.68,234.99c-29.6,0-53.59-13.33-53.59-29.77v3.45c0,16.44,23.99,29.77,53.59,29.77
					s53.59-13.33,53.59-29.77v-3.45C360.28,221.66,336.28,234.99,306.68,234.99z"/>
				<ellipse class="st3" cx="306.68" cy="196.1" rx="53.59" ry="29.77"/>
				<path class="st4" d="M306.68,166.33c-12.73,0-24.42,2.47-33.62,6.59l67.77,46.12c11.87-5.46,19.44-13.71,19.44-22.94
					C360.28,179.66,336.28,166.33,306.68,166.33z"/>
				<ellipse class="st5" cx="306.68" cy="196.18" rx="44.66" ry="24.81"/>
				<path class="st1" d="M306.68,176.49c23.11,0,42.12,9.75,44.42,22.25c0.15-0.84,0.24-1.69,0.24-2.56
					c0-13.7-19.99-24.81-44.66-24.81c-24.66,0-44.66,11.11-44.66,24.81c0,0.86,0.08,1.72,0.24,2.56
					C264.57,186.24,283.58,176.49,306.68,176.49z"/>
			</g>
		</g>
	</g>
</g>
<g>
	<g>
		<g>
			<g>
				<path class="st1" d="M348.66,176.23c-5.86-12.91-26.9-22.47-51.96-22.47s-46.1,9.56-51.96,22.47l-1.63-5.26v12.56
					c0,16.44,23.99,29.77,53.59,29.77s53.59-13.33,53.59-29.77v-12.56L348.66,176.23z"/>
				<path class="st2" d="M296.7,209.86c-29.6,0-53.59-13.33-53.59-29.77v3.45c0,16.44,23.99,29.77,53.59,29.77
					s53.59-13.33,53.59-29.77v-3.45C350.29,196.53,326.29,209.86,296.7,209.86z"/>
				<ellipse class="st3" cx="296.7" cy="170.97" rx="53.59" ry="29.77"/>
				<path class="st4" d="M296.7,141.2c-12.73,0-24.42,2.47-33.62,6.59l67.77,46.12c11.87-5.46,19.44-13.71,19.44-22.94
					C350.29,154.53,326.29,141.2,296.7,141.2z"/>
				<ellipse class="st5" cx="296.7" cy="171.06" rx="44.66" ry="24.81"/>
				<path class="st1" d="M296.7,151.36c23.11,0,42.12,9.75,44.42,22.25c0.15-0.84,0.24-1.69,0.24-2.56
					c0-13.7-19.99-24.81-44.66-24.81c-24.66,0-44.66,11.11-44.66,24.81c0,0.86,0.08,1.72,0.24,2.56
					C254.58,161.11,273.59,151.36,296.7,151.36z"/>
			</g>
		</g>
	</g>
</g>
<g>
	<g>
		<g>
			<g>
				<path class="st1" d="M248.06,233.63c-5.86-12.91-26.9-22.47-51.96-22.47s-46.1,9.56-51.96,22.47l-1.63-5.26v12.56
					c0,16.44,23.99,29.77,53.59,29.77s53.59-13.33,53.59-29.77v-12.56L248.06,233.63z"/>
				<path class="st2" d="M196.1,267.26c-29.6,0-53.59-13.33-53.59-29.77v3.45c0,16.44,23.99,29.77,53.59,29.77
					s53.59-13.33,53.59-29.77v-3.45C249.69,253.93,225.7,267.26,196.1,267.26z"/>
				<ellipse class="st3" cx="196.1" cy="228.37" rx="53.59" ry="29.77"/>
				<path class="st4" d="M196.1,198.59c-12.73,0-24.42,2.47-33.62,6.59l67.77,46.12c11.87-5.46,19.44-13.71,19.44-22.94
					C249.69,211.92,225.7,198.59,196.1,198.59z"/>
				<ellipse class="st5" cx="196.1" cy="228.45" rx="44.66" ry="24.81"/>
				<path class="st1" d="M196.1,208.75c23.11,0,42.12,9.75,44.42,22.25c0.15-0.84,0.24-1.69,0.24-2.56
					c0-13.7-19.99-24.81-44.66-24.81c-24.66,0-44.66,11.11-44.66,24.81c0,0.86,0.08,1.72,0.24,2.56
					C153.98,218.51,172.99,208.75,196.1,208.75z"/>
			</g>
		</g>
	</g>
</g>
<g>
	<g>
		<g>
			<g>
				<path class="st1" d="M242.74,221.06c-5.86-12.91-26.9-22.47-51.96-22.47s-46.1,9.56-51.96,22.47l-1.63-5.26v12.56
					c0,16.44,23.99,29.77,53.59,29.77s53.59-13.33,53.59-29.77V215.8L242.74,221.06z"/>
				<path class="st2" d="M190.78,254.69c-29.6,0-53.59-13.33-53.59-29.77v3.45c0,16.44,23.99,29.77,53.59,29.77
					s53.59-13.33,53.59-29.77v-3.45C244.37,241.36,220.38,254.69,190.78,254.69z"/>
				<ellipse class="st3" cx="190.78" cy="215.8" rx="53.59" ry="29.77"/>
				<path class="st4" d="M190.78,186.03c-12.73,0-24.42,2.47-33.62,6.59l67.77,46.12c11.87-5.46,19.44-13.71,19.44-22.94
					C244.37,199.36,220.38,186.03,190.78,186.03z"/>
				<ellipse class="st5" cx="190.78" cy="215.89" rx="44.66" ry="24.81"/>
				<path class="st1" d="M190.78,196.19c23.11,0,42.12,9.75,44.42,22.25c0.15-0.84,0.24-1.69,0.24-2.56
					c0-13.7-19.99-24.81-44.66-24.81c-24.66,0-44.66,11.11-44.66,24.81c0,0.86,0.08,1.72,0.24,2.56
					C148.66,205.94,167.67,196.19,190.78,196.19z"/>
			</g>
		</g>
	</g>
</g>
<g>
	<g>
		<g>
			<g>
				<path class="st1" d="M251.67,208.5c-5.86-12.91-26.9-22.47-51.96-22.47s-46.1,9.56-51.96,22.47l-1.63-5.26v12.56
					c0,16.44,23.99,29.77,53.59,29.77s53.59-13.33,53.59-29.77v-12.56L251.67,208.5z"/>
				<path class="st2" d="M199.71,242.13c-29.6,0-53.59-13.33-53.59-29.77v3.45c0,16.44,23.99,29.77,53.59,29.77
					s53.59-13.33,53.59-29.77v-3.45C253.3,228.8,229.31,242.13,199.71,242.13z"/>
				<ellipse class="st3" cx="199.71" cy="203.24" rx="53.59" ry="29.77"/>
				<path class="st4" d="M199.71,173.47c-12.73,0-24.42,2.47-33.62,6.59l67.77,46.12c11.87-5.46,19.44-13.71,19.44-22.94
					C253.3,186.8,229.31,173.47,199.71,173.47z"/>
				<ellipse class="st5" cx="199.71" cy="203.32" rx="44.66" ry="24.81"/>
				<path class="st1" d="M199.71,183.63c23.11,0,42.12,9.75,44.42,22.25c0.15-0.84,0.24-1.69,0.24-2.56
					c0-13.7-19.99-24.81-44.66-24.81c-24.66,0-44.66,11.11-44.66,24.81c0,0.86,0.08,1.72,0.24,2.56
					C157.6,193.38,176.6,183.63,199.71,183.63z"/>
			</g>
		</g>
	</g>
</g>
<g>
	<g>
		<g>
			<g>
				<path class="st1" d="M252.73,152.88c-5.86-23.24-26.9-40.44-51.96-40.44s-46.1,17.2-51.96,40.44h-1.63v13.15
					c0,29.6,23.99,53.59,53.59,53.59s53.59-23.99,53.59-53.59v-13.15H252.73z"/>
				<path class="st2" d="M200.77,215.24c-29.6,0-53.59-23.99-53.59-53.59v4.38c0,29.6,23.99,53.59,53.59,53.59
					s53.59-23.99,53.59-53.59v-4.38C254.36,191.25,230.36,215.24,200.77,215.24z"/>
				<circle class="st3" cx="200.77" cy="152.88" r="53.59"/>
				<path class="st4" d="M200.77,99.29c-12.73,0-24.42,4.45-33.62,11.87l67.77,83.02c11.87-9.83,19.44-24.68,19.44-41.3
					C254.36,123.28,230.36,99.29,200.77,99.29z"/>
				<ellipse class="st5" cx="200.77" cy="153.03" rx="44.66" ry="44.66"/>
				<path class="st1" d="M200.77,117.58c23.11,0,42.12,17.55,44.42,40.05c0.15-1.51,0.24-3.05,0.24-4.6
					c0-24.66-19.99-44.66-44.66-44.66c-24.66,0-44.66,19.99-44.66,44.66c0,1.55,0.08,3.09,0.24,4.6
					C158.65,135.13,177.66,117.58,200.77,117.58z"/>
			</g>
		</g>
	</g>
</g>
<g>
	<g>
		<g>
			<g>
				<path class="st1" d="M139.96,266.95c-5.86-12.91-26.9-22.47-51.96-22.47s-46.1,9.56-51.96,22.47l-1.63-5.26v12.56
					c0,16.44,23.99,29.77,53.59,29.77s53.59-13.33,53.59-29.77v-12.56L139.96,266.95z"/>
				<path class="st2" d="M88,300.58c-29.6,0-53.59-13.33-53.59-29.77v3.45c0,16.44,23.99,29.77,53.59,29.77s53.59-13.33,53.59-29.77
					v-3.45C141.59,287.25,117.59,300.58,88,300.58z"/>
				<ellipse class="st3" cx="88" cy="261.69" rx="53.59" ry="29.77"/>
				<path class="st4" d="M88,231.92c-12.73,0-24.42,2.47-33.62,6.59l67.77,46.12c11.87-5.46,19.44-13.71,19.44-22.94
					C141.59,245.25,117.59,231.92,88,231.92z"/>
				<ellipse class="st5" cx="88" cy="261.77" rx="44.66" ry="24.81"/>
				<path class="st1" d="M88,242.08c23.11,0,42.12,9.75,44.42,22.25c0.15-0.84,0.24-1.69,0.24-2.56c0-13.7-19.99-24.81-44.66-24.81
					c-24.66,0-44.66,11.11-44.66,24.81c0,0.86,0.08,1.72,0.24,2.56C45.88,251.83,64.89,242.08,88,242.08z"/>
			</g>
		</g>
	</g>
</g>
<g>
	<g>
		<g>
			<g>
				<path class="st1" d="M145.44,254.68c-5.86-12.91-26.9-22.47-51.96-22.47s-46.1,9.56-51.96,22.47l-1.63-5.26v12.56
					c0,16.44,23.99,29.77,53.59,29.77s53.59-13.33,53.59-29.77v-12.56L145.44,254.68z"/>
				<path class="st2" d="M93.48,288.31c-29.6,0-53.59-13.33-53.59-29.77v3.45c0,16.44,23.99,29.77,53.59,29.77
					s53.59-13.33,53.59-29.77v-3.45C147.07,274.98,123.08,288.31,93.48,288.31z"/>
				<ellipse class="st3" cx="93.48" cy="249.43" rx="53.59" ry="29.77"/>
				<path class="st4" d="M93.48,219.65c-12.73,0-24.42,2.47-33.62,6.59l67.77,46.12c11.87-5.46,19.44-13.71,19.44-22.94
					C147.07,232.98,123.08,219.65,93.48,219.65z"/>
				<ellipse class="st5" cx="93.48" cy="249.51" rx="44.66" ry="24.81"/>
				<path class="st1" d="M93.48,229.81c23.11,0,42.12,9.75,44.42,22.25c0.15-0.84,0.24-1.69,0.24-2.56
					c0-13.7-19.99-24.81-44.66-24.81S48.82,235.8,48.82,249.5c0,0.86,0.08,1.72,0.24,2.56C51.36,239.56,70.37,229.81,93.48,229.81z"
					/>
			</g>
		</g>
	</g>
</g>
<g>
	<g>
		<g>
			<g>
				<path class="st1" d="M139.96,242.42c-5.86-12.91-26.9-22.47-51.96-22.47s-46.1,9.56-51.96,22.47l-1.63-5.26v12.56
					c0,16.44,23.99,29.77,53.59,29.77s53.59-13.33,53.59-29.77v-12.56L139.96,242.42z"/>
				<path class="st2" d="M88,276.05c-29.6,0-53.59-13.33-53.59-29.77v3.45c0,16.44,23.99,29.77,53.59,29.77s53.59-13.33,53.59-29.77
					v-3.45C141.59,262.72,117.59,276.05,88,276.05z"/>
				<ellipse class="st3" cx="88" cy="237.16" rx="53.59" ry="29.77"/>
				<path class="st4" d="M88,207.39c-12.73,0-24.42,2.47-33.62,6.59l67.77,46.12c11.87-5.46,19.44-13.71,19.44-22.94
					C141.59,220.72,117.59,207.39,88,207.39z"/>
				<ellipse class="st5" cx="88" cy="237.24" rx="44.66" ry="24.81"/>
				<path class="st1" d="M88,217.55c23.11,0,42.12,9.75,44.42,22.25c0.15-0.84,0.24-1.69,0.24-2.56c0-13.7-19.99-24.81-44.66-24.81
					c-24.66,0-44.66,11.11-44.66,24.81c0,0.86,0.08,1.72,0.24,2.56C45.88,227.3,64.89,217.55,88,217.55z"/>
			</g>
		</g>
	</g>
</g>
<g>
	<g>
		<g>
			<g>
				<path class="st1" d="M244.31,303.01c-5.86-12.91-26.9-22.47-51.96-22.47s-46.1,9.56-51.96,22.47l-1.63-5.26v12.56
					c0,16.44,23.99,29.77,53.59,29.77s53.59-13.33,53.59-29.77v-12.56L244.31,303.01z"/>
				<path class="st2" d="M192.35,336.63c-29.6,0-53.59-13.33-53.59-29.77v3.45c0,16.44,23.99,29.77,53.59,29.77
					s53.59-13.33,53.59-29.77v-3.45C245.94,323.3,221.95,336.63,192.35,336.63z"/>
				<ellipse class="st3" cx="192.35" cy="297.75" rx="53.59" ry="29.77"/>
				<path class="st4" d="M192.35,267.97c-12.73,0-24.42,2.47-33.62,6.59l67.77,46.12c11.87-5.46,19.44-13.71,19.44-22.94
					C245.94,281.3,221.95,267.97,192.35,267.97z"/>
				<ellipse class="st5" cx="192.35" cy="297.83" rx="44.66" ry="24.81"/>
				<path class="st1" d="M192.35,278.13c23.11,0,42.12,9.75,44.42,22.25c0.15-0.84,0.24-1.69,0.24-2.56
					c0-13.7-19.99-24.81-44.66-24.81c-24.66,0-44.66,11.11-44.66,24.81c0,0.86,0.08,1.72,0.24,2.56
					C150.23,287.89,169.24,278.13,192.35,278.13z"/>
			</g>
		</g>
	</g>
</g>
<g>
	<g>
		<g>
			<g>
				<path class="st1" d="M330.93,297.86c-3.48-13.75-22.48-26.89-47.14-31.34c-24.66-4.45-47.06,1.22-55.12,12.88l-0.67-5.46
					l-2.23,12.36c-2.92,16.18,18.32,33.56,47.45,38.82s55.11-3.6,58.03-19.78l2.23-12.36L330.93,297.86z"/>
				<path class="st2" d="M273.82,321.72c-29.13-5.26-50.37-22.64-47.45-38.82l-0.61,3.39c-2.92,16.18,18.32,33.56,47.45,38.82
					s55.11-3.6,58.03-19.78l0.61-3.39C328.93,318.12,302.95,326.98,273.82,321.72z"/>
				
					<ellipse transform="matrix(0.1776 -0.9841 0.9841 0.1776 -48.0774 509.3655)" class="st3" cx="280.72" cy="283.45" rx="29.77" ry="53.59"/>
				<path class="st4" d="M286.02,254.15c-12.53-2.26-24.47-1.91-34.25,0.52l58.5,57.43c12.65-3.27,21.56-10.04,23.2-19.13
					C336.39,276.79,315.14,259.41,286.02,254.15z"/>
				
					<ellipse transform="matrix(0.1776 -0.9841 0.9841 0.1776 -48.1707 509.43)" class="st5" cx="280.71" cy="283.54" rx="24.81" ry="44.66"/>
				<path class="st1" d="M284.21,264.15c22.74,4.1,39.72,17.08,39.76,29.79c0.3-0.8,0.53-1.62,0.69-2.47
					c2.43-13.48-15.27-27.97-39.54-32.35c-24.27-4.38-45.92,3-48.35,16.48c-0.15,0.85-0.23,1.7-0.22,2.56
					C241.03,266.27,261.47,260.05,284.21,264.15z"/>
			</g>
		</g>
	</g>
</g>
<g>
	<g>
		<g>
			<g>
				<path class="st1" d="M152.14,193.12c-10.97-8.99-34.06-8.26-56.54,2.82s-37.12,28.96-36.67,43.13l-3.79-4l5.56,11.27
					c7.27,14.75,34.69,16.1,61.23,3.01c26.55-13.09,42.17-35.65,34.9-50.4l-5.56-11.27L152.14,193.12z"/>
				<path class="st2" d="M120.41,246.26c-26.55,13.09-53.96,11.74-61.23-3.01l1.53,3.09c7.27,14.75,34.69,16.1,61.23,3.01
					c26.55-13.09,42.17-35.65,34.9-50.4l-1.53-3.09C162.58,210.61,146.95,233.17,120.41,246.26z"/>
				
					<ellipse transform="matrix(0.8969 -0.4422 0.4422 0.8969 -82.8296 67.4309)" class="st3" cx="103.21" cy="211.37" rx="53.59" ry="29.77"/>
				<path class="st4" d="M90.05,184.68c-11.42,5.63-20.81,13.02-27.24,20.78l81.18,11.41c8.23-10.15,11.37-20.89,7.29-29.17
					C144.01,172.94,116.59,171.59,90.05,184.68z"/>
				
					<ellipse transform="matrix(0.8969 -0.4422 0.4422 0.8969 -82.8598 67.4575)" class="st5" cx="103.25" cy="211.45" rx="44.66" ry="24.81"/>
				<path class="st1" d="M94.54,193.79c20.73-10.22,42.09-9.88,49.68,0.32c-0.23-0.82-0.54-1.62-0.92-2.4
					c-6.06-12.29-28.9-13.41-51.02-2.51c-22.12,10.91-35.14,29.71-29.08,42c0.38,0.77,0.83,1.5,1.34,2.19
					C61.07,221.16,73.81,204.01,94.54,193.79z"/>
			</g>
		</g>
	</g>
</g>
<g>
	<g>
		<path id="Layer_11_" class="st1" d="M131.22,94.06c2.96-0.25,4.97-2.02,5.07-4.05c0.04-0.85-0.43-1.8-0.5-2.71
			c-0.23-1.23-1.28-2.2-3.06-2.35c-1.68-0.15-3.31,0.47-3.78,1.61c-0.37,1.13,0.32,2.27,2.06,2.74c1.03,0.33,1.01,0.72,0.5,1.14
			c-0.52,0.36-1.25,0.6-1.91,0.71c-1.43,0.16-2.78,0.18-4.13,0.26c-2.62,0.17-5.25,0.34-7.87,0.5c-0.13-0.19-0.24-0.25-0.26-0.38
			c-0.5-2.67-1.02-5.31-1.57-7.94c-0.16-0.84,0.52-1.41,1.93-1.63c0.15,0.12,0.3,0.24,0.46,0.36c1.16,1.04,2.87,1.32,4.52,0.82
			c1.45-0.55,2.1-1.77,1.51-2.84c-0.6-1.14-2.16-1.69-4.07-1.5c-0.64,0.04-1.28,0.06-1.93,0.06c-3.72-0.15-7.21,1.96-6.84,4.49
			c0.53,3.89,1.36,7.82,2.11,11.89C119.52,94.87,125.38,94.56,131.22,94.06L131.22,94.06z"/>
		<path id="Layer_10_" class="st1" d="M93.45,80.59c-1.42,0.22-2.29,1.26-2.2,2.3c0.08,0.97,1.21,1.82,2.63,2.12
			c1.91,0.34,3.26-0.21,4.43-1.79c1.48,0.1,2.23,0.51,2.42,1.54c0.26,1.73,0.55,3.47,0.88,5.24c0.18,0.97,0.35,1.87,0.54,2.91
			c-4.32,0.28-8.43,0.6-12.57,0.8c-1.15,0.07-1.93-0.46-2.38-1.29c0.24-0.1,0.42-0.18,0.54-0.23c1.6-0.82,2.05-2.03,1.18-3.08
			c-0.86-0.99-2.6-1.47-4.28-1.1c-1.58,0.36-2.46,1.4-2.11,2.75c0.14,0.25,0.2,0.58,0.17,0.9c-0.22,3.02,3.32,5.34,7.74,5.06
			c5.25-0.34,10.46-0.67,15.65-1c0.38-0.02,0.66-0.11,1.04-0.13c-0.02-0.13,0.05-0.26,0.04-0.33c-0.71-3.81-1.31-7.56-2.1-11.3
			c-0.48-2.06-3.11-3.66-6.14-3.79C97.07,80.17,95.25,80.35,93.45,80.59L93.45,80.59z"/>
		<path id="Layer_9_" class="st1" d="M90.45,100.98c-3.73,0.3-6.05,3-5.1,5.49c0.16,0.51,0.29,1.03,0.38,1.54
			c0.2,1.1,1.44,2,3.02,2.16c1.67,0.09,3.2-0.53,3.7-1.54c0.49-1.01-0.12-2.21-1.68-2.77c-0.32-0.18-0.73-0.28-1.04-0.39
			c0.1-1.05,0.7-1.48,2.14-1.57c3.65-0.23,7.3-0.44,10.95-0.63c0.38-0.02,0.77-0.05,1.26-0.02c0.53,2.84,1.13,5.55,1.55,8.33
			c0.16,0.84-0.53,1.34-1.84,1.62c-0.13-0.19-0.25-0.31-0.37-0.43c-1.26-1.03-2.98-1.38-4.62-0.82c-1.46,0.49-2.12,1.64-1.52,2.78
			s2.16,1.69,4.07,1.5c0.38-0.02,0.86-0.06,1.25-0.08c5.09,0.2,8.09-1.95,7.46-5.31c-0.62-3.36-1.25-6.72-1.87-10.07
			c-0.05-0.26-0.11-0.58-0.26-0.9C101.96,100.24,96.19,100.54,90.45,100.98z"/>
		<path id="Layer_8_" class="st1" d="M124.98,114.84c0.62-0.13,1.26-0.21,1.9-0.25c1.84-0.05,3.14-0.85,3.32-1.98
			s-0.98-2.16-2.51-2.52c-1.72-0.35-3.37,0.15-4.04,1.24c-0.53,0.82-1.14,0.66-1.8,0.25c-0.44-0.3-0.92-0.79-1.01-1.24
			c-0.28-0.96-0.37-2-0.56-3.03c-0.31-1.68-0.62-3.36-0.92-4.97c0.18-0.08,0.26-0.15,0.36-0.15c4.03-0.26,8.15-0.59,12.19-0.78
			c1.25-0.08,2.02,0.39,2.28,1.29c-0.18,0.1-0.36,0.18-0.54,0.23c-1.5,0.81-1.96,2.02-1.08,3.07c0.85,0.93,2.59,1.4,4.19,1.1
			c1.68-0.37,2.56-1.4,2.21-2.75c-0.13-0.34-0.2-0.71-0.2-1.1c0.14-2.88-3.29-5.15-7.7-4.87c-2.43,0.16-4.83,0.31-7.2,0.46
			c-3.17,0.2-6.34,0.4-9.6,0.61c0.74,4,1.36,7.82,2.16,11.62C117,113.72,121.1,115.42,124.98,114.84L124.98,114.84z"/>
	</g>
	<g>
		<g>
			<path id="Layer_68_" class="st3" d="M130.79,91.91c2.96-0.25,4.97-2.02,5.07-4.05c0.04-0.85-0.43-1.8-0.5-2.71
				c-0.23-1.23-1.28-2.2-3.06-2.35c-1.68-0.15-3.31,0.47-3.78,1.61c-0.37,1.13,0.32,2.27,2.06,2.74c1.03,0.33,1.01,0.72,0.5,1.14
				c-0.52,0.36-1.25,0.6-1.91,0.71c-1.43,0.16-2.78,0.18-4.13,0.26c-2.62,0.17-5.25,0.34-7.87,0.5c-0.13-0.19-0.24-0.25-0.26-0.38
				c-0.5-2.67-1.02-5.31-1.57-7.94c-0.16-0.84,0.52-1.41,1.93-1.63c0.15,0.12,0.3,0.24,0.46,0.36c1.16,1.04,2.87,1.32,4.52,0.82
				c1.45-0.55,2.1-1.77,1.51-2.84c-0.6-1.14-2.16-1.69-4.07-1.5c-0.64,0.04-1.28,0.06-1.93,0.06c-3.72-0.15-7.21,1.96-6.84,4.49
				c0.53,3.89,1.36,7.82,2.11,11.89C119.09,92.73,124.96,92.42,130.79,91.91L130.79,91.91z"/>
			<path id="Layer_67_" class="st3" d="M93.03,78.45c-1.42,0.22-2.29,1.26-2.2,2.3c0.08,0.97,1.21,1.82,2.63,2.12
				c1.91,0.34,3.26-0.21,4.43-1.79c1.48,0.1,2.23,0.51,2.42,1.54c0.26,1.73,0.55,3.47,0.88,5.24c0.18,0.97,0.35,1.87,0.54,2.91
				c-4.32,0.28-8.43,0.6-12.57,0.8c-1.15,0.07-1.93-0.46-2.38-1.29c0.24-0.1,0.42-0.18,0.54-0.23c1.6-0.82,2.05-2.03,1.18-3.08
				c-0.86-0.99-2.6-1.47-4.28-1.1c-1.58,0.36-2.46,1.4-2.11,2.75c0.14,0.25,0.2,0.58,0.17,0.9c-0.22,3.02,3.32,5.34,7.74,5.06
				c5.25-0.34,10.46-0.67,15.65-1c0.38-0.02,0.66-0.11,1.04-0.13c-0.02-0.13,0.05-0.26,0.04-0.33c-0.71-3.81-1.31-7.56-2.1-11.3
				c-0.48-2.06-3.11-3.66-6.14-3.79C96.64,78.02,94.83,78.2,93.03,78.45L93.03,78.45z"/>
			<path id="Layer_66_" class="st3" d="M90.02,98.83c-3.73,0.3-6.05,3-5.1,5.49c0.16,0.51,0.29,1.03,0.38,1.54
				c0.2,1.1,1.44,2,3.02,2.16c1.67,0.09,3.2-0.53,3.7-1.54c0.49-1.01-0.12-2.21-1.68-2.77c-0.32-0.18-0.73-0.28-1.04-0.39
				c0.1-1.05,0.7-1.48,2.14-1.57c3.65-0.23,7.3-0.44,10.95-0.63c0.38-0.02,0.77-0.05,1.26-0.02c0.53,2.84,1.13,5.55,1.55,8.33
				c0.16,0.84-0.53,1.34-1.84,1.62c-0.13-0.19-0.25-0.31-0.37-0.43c-1.26-1.03-2.98-1.38-4.62-0.82c-1.46,0.49-2.12,1.64-1.52,2.78
				s2.16,1.69,4.07,1.5c0.38-0.02,0.86-0.06,1.25-0.08c5.09,0.2,8.09-1.95,7.46-5.31c-0.62-3.36-1.25-6.72-1.87-10.07
				c-0.05-0.26-0.11-0.58-0.26-0.9C101.54,98.1,95.77,98.4,90.02,98.83z"/>
			<path id="Layer_65_" class="st3" d="M124.56,112.7c0.62-0.13,1.26-0.21,1.9-0.25c1.84-0.05,3.14-0.85,3.32-1.98
				c0.18-1.12-0.98-2.16-2.51-2.52c-1.72-0.35-3.37,0.15-4.04,1.24c-0.53,0.82-1.14,0.66-1.8,0.25c-0.44-0.3-0.92-0.79-1.01-1.24
				c-0.28-0.96-0.37-2-0.56-3.03c-0.31-1.68-0.62-3.36-0.92-4.97c0.18-0.08,0.26-0.15,0.36-0.15c4.03-0.26,8.15-0.59,12.19-0.78
				c1.25-0.08,2.02,0.39,2.28,1.29c-0.18,0.1-0.36,0.18-0.54,0.23c-1.5,0.81-1.96,2.02-1.08,3.07c0.85,0.93,2.59,1.4,4.19,1.1
				c1.68-0.37,2.56-1.4,2.21-2.75c-0.13-0.34-0.2-0.71-0.2-1.1c0.14-2.88-3.29-5.15-7.7-4.87c-2.43,0.16-4.83,0.31-7.2,0.46
				c-3.17,0.2-6.34,0.4-9.6,0.61c0.74,4,1.36,7.82,2.16,11.62C116.58,111.58,120.68,113.27,124.56,112.7L124.56,112.7z"/>
		</g>
	</g>
</g>
<g>
	<g>
		<path id="Layer_40_" class="st1" d="M223.36,150.2c3.35-0.44,5.66-3.46,5.83-6.94c0.06-1.46-0.44-3.09-0.5-4.65
			c-0.23-2.1-1.4-3.78-3.4-4.03c-1.89-0.26-3.75,0.81-4.31,2.77c-0.45,1.95,0.31,3.89,2.27,4.7c1.16,0.56,1.12,1.23,0.54,1.96
			c-0.59,0.62-1.42,1.03-2.17,1.22c-1.62,0.27-3.15,0.31-4.67,0.45c-2.97,0.29-5.94,0.58-8.9,0.86c-0.14-0.32-0.27-0.42-0.29-0.64
			c-0.5-4.58-1.02-9.11-1.58-13.61c-0.16-1.44,0.62-2.41,2.22-2.79c0.17,0.21,0.34,0.41,0.51,0.62c1.29,1.78,3.21,2.26,5.09,1.41
			c1.65-0.94,2.41-3.03,1.78-4.87c-0.65-1.95-2.4-2.9-4.56-2.58c-0.72,0.07-1.45,0.1-2.18,0.1c-4.2-0.26-8.19,3.37-7.84,7.7
			c0.5,6.67,1.34,13.41,2.1,20.39C210.12,151.59,216.76,151.06,223.36,150.2L223.36,150.2z"/>
		<path id="Layer_39_" class="st1" d="M181.03,127.11c-1.6,0.38-2.62,2.16-2.54,3.94c0.07,1.67,1.33,3.12,2.92,3.63
			c2.15,0.58,3.69-0.36,5.05-3.06c1.66,0.17,2.51,0.88,2.7,2.65c0.25,2.96,0.54,5.95,0.86,8.98c0.18,1.66,0.35,3.21,0.54,4.98
			c-4.89,0.47-9.54,1.04-14.23,1.38c-1.3,0.13-2.17-0.8-2.65-2.2c0.27-0.18,0.48-0.31,0.62-0.4c1.82-1.41,2.37-3.47,1.4-5.28
			c-0.95-1.7-2.91-2.52-4.81-1.88c-1.8,0.62-2.81,2.4-2.45,4.71c0.16,0.43,0.22,0.99,0.17,1.55c-0.32,5.18,3.63,9.16,8.62,8.68
			c5.94-0.58,11.84-1.15,17.7-1.72c0.43-0.04,0.75-0.18,1.18-0.23c-0.02-0.22,0.06-0.45,0.05-0.56c-0.71-6.53-1.29-12.97-2.1-19.38
			c-0.49-3.53-3.42-6.27-6.85-6.5C185.12,126.38,183.06,126.69,181.03,127.11L181.03,127.11z"/>
		<path id="Layer_38_" class="st1" d="M177.13,162.06c-4.22,0.52-6.9,5.15-5.89,9.41c0.17,0.88,0.3,1.76,0.4,2.65
			c0.2,1.88,1.58,3.43,3.36,3.7c1.88,0.15,3.63-0.91,4.21-2.65s-0.08-3.8-1.83-4.75c-0.36-0.3-0.82-0.48-1.17-0.67
			c0.13-1.8,0.82-2.54,2.45-2.7c4.13-0.4,8.26-0.76,12.39-1.09c0.43-0.04,0.87-0.08,1.42-0.03c0.53,4.87,1.14,9.51,1.55,14.29
			c0.16,1.44-0.63,2.3-2.11,2.78c-0.14-0.32-0.28-0.53-0.41-0.74c-1.4-1.77-3.33-2.36-5.2-1.4c-1.67,0.83-2.44,2.81-1.79,4.76
			c0.65,1.95,2.4,2.9,4.56,2.58c0.43-0.04,0.98-0.09,1.41-0.14c5.74,0.34,9.18-3.35,8.56-9.11s-1.25-11.52-1.87-17.28
			c-0.05-0.44-0.11-1-0.28-1.54C190.16,160.8,183.63,161.32,177.13,162.06z"/>
		<path id="Layer_37_" class="st1" d="M215.81,185.84c0.71-0.22,1.42-0.36,2.15-0.43c2.08-0.09,3.57-1.47,3.8-3.39
			s-1.06-3.7-2.77-4.32c-1.93-0.6-3.81,0.26-4.6,2.12c-0.62,1.4-1.3,1.13-2.04,0.42c-0.49-0.51-1.02-1.36-1.11-2.13
			c-0.29-1.65-0.37-3.43-0.56-5.2c-0.31-2.88-0.62-5.76-0.92-8.53c0.21-0.13,0.3-0.25,0.41-0.26c4.56-0.44,9.22-1.01,13.79-1.34
			c1.41-0.14,2.27,0.68,2.54,2.22c-0.2,0.17-0.41,0.3-0.62,0.4c-1.71,1.4-2.26,3.46-1.29,5.27c0.94,1.59,2.89,2.41,4.7,1.89
			c1.91-0.63,2.92-2.41,2.56-4.72c-0.14-0.58-0.2-1.21-0.2-1.88c0.23-4.95-3.59-8.83-8.58-8.34c-2.75,0.27-5.47,0.53-8.14,0.79
			c-3.58,0.35-7.17,0.69-10.86,1.05c0.74,6.87,1.34,13.41,2.16,19.93C206.82,183.92,211.41,186.83,215.81,185.84L215.81,185.84z"/>
	</g>
	<g>
		<g>
			<path id="Layer_88_" class="st3" d="M223.06,147.52c3.35-0.44,5.66-3.46,5.83-6.94c0.06-1.46-0.44-3.09-0.5-4.65
				c-0.23-2.1-1.4-3.78-3.4-4.03c-1.89-0.26-3.75,0.81-4.31,2.77c-0.45,1.95,0.31,3.89,2.27,4.7c1.16,0.56,1.12,1.23,0.54,1.96
				c-0.59,0.62-1.42,1.03-2.17,1.22c-1.62,0.27-3.15,0.31-4.67,0.45c-2.97,0.29-5.94,0.58-8.9,0.86c-0.14-0.32-0.27-0.42-0.29-0.64
				c-0.5-4.58-1.02-9.11-1.58-13.61c-0.16-1.44,0.62-2.41,2.22-2.79c0.17,0.21,0.34,0.41,0.51,0.62c1.29,1.78,3.21,2.26,5.09,1.41
				c1.65-0.94,2.41-3.03,1.78-4.87c-0.65-1.95-2.4-2.9-4.56-2.58c-0.72,0.07-1.45,0.1-2.18,0.1c-4.2-0.26-8.19,3.37-7.84,7.7
				c0.5,6.67,1.34,13.41,2.1,20.39C209.82,148.92,216.46,148.39,223.06,147.52L223.06,147.52z"/>
			<path id="Layer_87_" class="st3" d="M180.73,124.43c-1.6,0.38-2.62,2.16-2.54,3.94c0.07,1.67,1.33,3.12,2.92,3.63
				c2.15,0.58,3.69-0.36,5.05-3.06c1.66,0.17,2.51,0.88,2.7,2.65c0.25,2.96,0.54,5.95,0.86,8.98c0.18,1.66,0.35,3.21,0.54,4.98
				c-4.89,0.47-9.54,1.04-14.23,1.38c-1.3,0.13-2.17-0.8-2.65-2.2c0.27-0.18,0.48-0.31,0.62-0.4c1.82-1.41,2.37-3.47,1.4-5.28
				c-0.95-1.7-2.91-2.52-4.81-1.88c-1.8,0.62-2.81,2.4-2.45,4.71c0.16,0.43,0.22,0.99,0.17,1.55c-0.32,5.18,3.63,9.16,8.62,8.68
				c5.94-0.58,11.84-1.15,17.7-1.72c0.43-0.04,0.75-0.18,1.18-0.23c-0.02-0.22,0.06-0.45,0.05-0.56c-0.71-6.53-1.29-12.97-2.1-19.38
				c-0.49-3.53-3.42-6.27-6.85-6.5C184.82,123.7,182.77,124.01,180.73,124.43L180.73,124.43z"/>
			<path id="Layer_86_" class="st3" d="M176.83,159.39c-4.22,0.52-6.9,5.15-5.89,9.41c0.17,0.88,0.3,1.76,0.4,2.65
				c0.2,1.88,1.58,3.43,3.36,3.7c1.88,0.15,3.63-0.91,4.21-2.65c0.58-1.73-0.08-3.8-1.83-4.75c-0.36-0.3-0.82-0.48-1.17-0.67
				c0.13-1.8,0.82-2.54,2.45-2.7c4.13-0.4,8.26-0.76,12.39-1.09c0.43-0.04,0.87-0.08,1.42-0.03c0.53,4.87,1.14,9.51,1.55,14.29
				c0.16,1.44-0.63,2.3-2.11,2.78c-0.14-0.32-0.28-0.53-0.41-0.74c-1.4-1.77-3.33-2.36-5.2-1.4c-1.67,0.83-2.44,2.81-1.79,4.76
				c0.65,1.95,2.4,2.9,4.56,2.58c0.43-0.04,0.98-0.09,1.41-0.14c5.74,0.34,9.18-3.35,8.56-9.11c-0.62-5.76-1.25-11.52-1.87-17.28
				c-0.05-0.44-0.11-1-0.28-1.54C189.86,158.13,183.33,158.65,176.83,159.39z"/>
			<path id="Layer_85_" class="st3" d="M215.51,183.17c0.71-0.22,1.42-0.36,2.15-0.43c2.08-0.09,3.57-1.47,3.8-3.39
				s-1.06-3.7-2.77-4.32c-1.93-0.6-3.81,0.26-4.6,2.12c-0.62,1.4-1.3,1.13-2.04,0.42c-0.49-0.51-1.02-1.36-1.11-2.13
				c-0.29-1.65-0.37-3.43-0.56-5.2c-0.31-2.88-0.62-5.76-0.92-8.53c0.21-0.13,0.3-0.25,0.41-0.26c4.56-0.44,9.22-1.01,13.79-1.34
				c1.41-0.14,2.27,0.68,2.54,2.22c-0.2,0.17-0.41,0.3-0.62,0.4c-1.71,1.4-2.26,3.46-1.29,5.27c0.94,1.59,2.89,2.41,4.7,1.89
				c1.91-0.63,2.92-2.41,2.56-4.72c-0.14-0.58-0.2-1.21-0.2-1.88c0.23-4.95-3.59-8.83-8.58-8.34c-2.75,0.27-5.47,0.53-8.14,0.79
				c-3.58,0.35-7.17,0.69-10.86,1.05c0.74,6.87,1.34,13.41,2.16,19.93C206.52,181.24,211.11,184.15,215.51,183.17L215.51,183.17z"/>
		</g>
	</g>
</g>
<g>
	<path id="Layer_76_" class="st1" d="M299.31,279.9c2.93-0.58,3.97-2.4,2.87-4.24c-0.47-0.77-1.52-1.57-2.14-2.38
		c-0.97-1.07-2.65-1.83-4.59-1.75c-1.84,0.06-3.17,0.82-2.97,1.9c0.29,1.06,1.69,2,3.79,2.22c1.27,0.17,1.48,0.53,1.21,0.97
		c-0.32,0.38-0.94,0.69-1.56,0.86c-1.39,0.31-2.79,0.49-4.14,0.73c-2.63,0.46-5.27,0.93-7.9,1.39c-0.25-0.15-0.4-0.19-0.5-0.31
		c-2.11-2.34-4.23-4.65-6.37-6.94c-0.66-0.74-0.3-1.32,1.04-1.69c0.23,0.09,0.46,0.18,0.69,0.27c1.83,0.79,3.77,0.84,5.2,0.2
		c1.18-0.67,1.13-1.84-0.12-2.73c-1.3-0.95-3.26-1.26-5.13-0.87c-0.64,0.11-1.3,0.21-1.98,0.28c-3.97,0.3-6.34,2.62-4.45,4.84
		c2.87,3.43,6.07,6.86,9.29,10.42C287.61,282.02,293.54,281.04,299.31,279.9L299.31,279.9z"/>
	<path id="Layer_75_" class="st1" d="M251.96,272.31c-1.34,0.37-1.64,1.4-0.92,2.32c0.67,0.87,2.35,1.49,4,1.59
		c2.19,0.07,3.27-0.58,3.55-2.13c1.6-0.08,2.63,0.19,3.45,1.1c1.3,1.52,2.64,3.05,4.03,4.6c0.77,0.85,1.48,1.64,2.3,2.54
		c-4.33,0.76-8.43,1.55-12.62,2.22c-1.16,0.2-2.29-0.19-3.24-0.87c0.19-0.12,0.33-0.21,0.42-0.27c1.17-0.93,0.93-2.06-0.61-2.91
		c-1.49-0.79-3.59-1.01-5.12-0.48c-1.43,0.51-1.73,1.55-0.56,2.72c0.3,0.21,0.56,0.49,0.71,0.79c1.58,2.74,6.65,4.4,11.08,3.62
		c5.27-0.93,10.5-1.85,15.7-2.76c0.39-0.07,0.62-0.18,1.01-0.24c-0.1-0.11-0.11-0.24-0.16-0.3c-3.01-3.34-5.87-6.63-8.93-9.9
		c-1.73-1.79-5.42-2.91-8.66-2.67C255.46,271.49,253.68,271.87,251.96,272.31L251.96,272.31z"/>
	<path id="Layer_74_" class="st1" d="M260.97,290.97c-3.71,0.72-4.51,3.41-2.04,5.53c0.47,0.44,0.91,0.89,1.32,1.34
		c0.87,0.96,2.69,1.62,4.44,1.58c1.79-0.12,3.02-0.86,2.93-1.83s-1.45-1.97-3.4-2.28c-0.44-0.12-0.93-0.16-1.32-0.23
		c-0.53-0.96-0.16-1.41,1.29-1.67c3.66-0.64,7.34-1.27,11.03-1.87c0.39-0.07,0.77-0.14,1.3-0.16c2.24,2.49,4.48,4.85,6.58,7.3
		c0.66,0.74,0.25,1.27-0.95,1.67c-0.25-0.15-0.45-0.25-0.65-0.35c-1.93-0.78-3.92-0.88-5.3-0.18c-1.24,0.61-1.23,1.72,0.07,2.67
		c1.3,0.95,3.26,1.26,5.13,0.87c0.39-0.07,0.87-0.15,1.25-0.22c5.42-0.43,7.26-2.72,4.61-5.66s-5.3-5.88-7.96-8.82
		c-0.2-0.23-0.46-0.51-0.81-0.77C272.53,288.93,266.7,289.89,260.97,290.97z"/>
	<path id="Layer_73_" class="st1" d="M305.21,299.3c0.57-0.19,1.18-0.34,1.82-0.45c1.88-0.27,2.76-1.14,2.28-2.17
		s-2.31-1.82-4.11-1.96c-1.99-0.11-3.42,0.54-3.47,1.59c-0.06,0.8-0.79,0.73-1.73,0.44c-0.64-0.21-1.43-0.6-1.79-1
		c-0.86-0.83-1.58-1.75-2.4-2.66c-1.33-1.47-2.65-2.94-3.93-4.35c0.14-0.09,0.19-0.16,0.28-0.18c4.05-0.71,8.14-1.5,12.23-2.15
		c1.25-0.22,2.33,0.11,3.14,0.89c-0.12,0.11-0.27,0.2-0.42,0.27c-1.08,0.91-0.83,2.05,0.71,2.89c1.44,0.73,3.54,0.95,5.02,0.49
		c1.53-0.53,1.82-1.57,0.66-2.74c-0.34-0.29-0.63-0.61-0.87-0.96c-1.57-2.61-6.49-4.23-10.92-3.45c-2.44,0.43-4.85,0.85-7.22,1.27
		c-3.18,0.56-6.36,1.12-9.63,1.69c3.16,3.51,6.07,6.86,9.18,10.18C296.23,299.25,301.51,300.28,305.21,299.3L305.21,299.3z"/>
</g>
<g>
	<g>
		<path id="Layer_116_" class="st3" d="M300.25,278c2.93-0.58,3.97-2.4,2.87-4.24c-0.47-0.77-1.52-1.57-2.14-2.38
			c-0.97-1.07-2.65-1.83-4.59-1.75c-1.84,0.06-3.17,0.82-2.97,1.9c0.29,1.06,1.69,2,3.79,2.22c1.27,0.17,1.48,0.53,1.21,0.97
			c-0.32,0.38-0.94,0.69-1.56,0.86c-1.39,0.31-2.79,0.49-4.14,0.73c-2.63,0.46-5.27,0.93-7.9,1.39c-0.25-0.15-0.4-0.19-0.5-0.31
			c-2.11-2.34-4.23-4.65-6.37-6.94c-0.66-0.74-0.3-1.32,1.04-1.69c0.23,0.09,0.46,0.18,0.69,0.27c1.83,0.79,3.77,0.84,5.2,0.2
			c1.18-0.67,1.13-1.84-0.12-2.73c-1.3-0.95-3.26-1.26-5.13-0.87c-0.64,0.11-1.3,0.21-1.98,0.28c-3.97,0.3-6.34,2.62-4.45,4.84
			c2.87,3.43,6.07,6.86,9.29,10.42C288.55,280.12,294.48,279.15,300.25,278L300.25,278z"/>
		<path id="Layer_115_" class="st3" d="M252.9,270.41c-1.34,0.37-1.64,1.4-0.92,2.32c0.67,0.87,2.35,1.49,4,1.59
			c2.19,0.07,3.27-0.58,3.55-2.13c1.6-0.08,2.63,0.19,3.45,1.1c1.3,1.52,2.64,3.05,4.03,4.6c0.77,0.85,1.48,1.64,2.3,2.54
			c-4.33,0.76-8.43,1.55-12.62,2.22c-1.16,0.2-2.29-0.19-3.24-0.87c0.19-0.12,0.33-0.21,0.42-0.27c1.17-0.93,0.93-2.06-0.61-2.91
			c-1.49-0.79-3.59-1.01-5.12-0.48c-1.43,0.51-1.73,1.55-0.56,2.72c0.3,0.21,0.56,0.49,0.71,0.79c1.58,2.74,6.65,4.4,11.08,3.62
			c5.27-0.93,10.5-1.85,15.7-2.76c0.39-0.07,0.62-0.18,1.01-0.24c-0.1-0.11-0.11-0.24-0.16-0.3c-3.01-3.34-5.87-6.63-8.93-9.9
			c-1.73-1.79-5.42-2.91-8.66-2.67C256.4,269.59,254.62,269.97,252.9,270.41L252.9,270.41z"/>
		<path id="Layer_114_" class="st3" d="M261.91,289.07c-3.71,0.72-4.51,3.41-2.04,5.53c0.47,0.44,0.91,0.89,1.32,1.34
			c0.87,0.96,2.69,1.62,4.44,1.58c1.79-0.12,3.02-0.86,2.93-1.83s-1.45-1.97-3.4-2.28c-0.44-0.12-0.93-0.16-1.32-0.23
			c-0.53-0.96-0.16-1.41,1.29-1.67c3.66-0.64,7.34-1.27,11.03-1.87c0.39-0.07,0.77-0.14,1.3-0.16c2.24,2.49,4.48,4.85,6.58,7.3
			c0.66,0.74,0.25,1.27-0.95,1.67c-0.25-0.15-0.45-0.25-0.65-0.35c-1.93-0.77-3.92-0.88-5.3-0.18c-1.24,0.61-1.23,1.72,0.07,2.67
			c1.3,0.95,3.26,1.26,5.13,0.87c0.39-0.07,0.87-0.15,1.25-0.22c5.42-0.43,7.26-2.72,4.61-5.66c-2.65-2.94-5.3-5.88-7.96-8.82
			c-0.2-0.23-0.46-0.51-0.81-0.77C273.47,287.04,267.64,288,261.91,289.07z"/>
		<path id="Layer_113_" class="st3" d="M306.15,297.41c0.57-0.19,1.18-0.34,1.82-0.45c1.88-0.27,2.76-1.14,2.28-2.17
			s-2.31-1.82-4.11-1.96c-1.99-0.11-3.42,0.54-3.47,1.59c-0.06,0.8-0.79,0.73-1.73,0.43c-0.64-0.21-1.43-0.6-1.79-1
			c-0.86-0.83-1.58-1.75-2.4-2.66c-1.33-1.47-2.65-2.94-3.93-4.35c0.14-0.09,0.19-0.16,0.28-0.18c4.05-0.71,8.14-1.5,12.23-2.15
			c1.25-0.22,2.33,0.11,3.14,0.89c-0.12,0.11-0.27,0.2-0.42,0.27c-1.08,0.91-0.83,2.05,0.71,2.89c1.44,0.73,3.54,0.95,5.02,0.49
			c1.53-0.53,1.82-1.57,0.66-2.74c-0.34-0.29-0.63-0.61-0.87-0.96c-1.57-2.61-6.49-4.23-10.92-3.45c-2.44,0.43-4.85,0.85-7.22,1.27
			c-3.18,0.56-6.36,1.12-9.63,1.69c3.16,3.51,6.07,6.86,9.18,10.18C297.17,297.35,302.46,298.38,306.15,297.41L306.15,297.41z"/>
	</g>
</g>
<g>
	<path id="Layer_80_" class="st1" d="M318.31,166.77c2.93-0.58,3.97-2.4,2.87-4.24c-0.47-0.77-1.52-1.57-2.14-2.38
		c-0.97-1.07-2.65-1.83-4.59-1.75c-1.84,0.06-3.17,0.82-2.97,1.9c0.29,1.06,1.69,2,3.79,2.22c1.27,0.17,1.48,0.53,1.21,0.97
		c-0.32,0.38-0.94,0.69-1.56,0.86c-1.39,0.31-2.79,0.49-4.14,0.73c-2.63,0.46-5.27,0.93-7.9,1.39c-0.25-0.15-0.4-0.19-0.5-0.31
		c-2.11-2.34-4.23-4.65-6.37-6.94c-0.66-0.74-0.3-1.32,1.04-1.69c0.23,0.09,0.46,0.18,0.69,0.27c1.83,0.79,3.77,0.84,5.2,0.2
		c1.18-0.67,1.13-1.84-0.12-2.73c-1.3-0.95-3.26-1.26-5.13-0.87c-0.64,0.11-1.3,0.21-1.98,0.28c-3.97,0.3-6.34,2.62-4.45,4.84
		c2.87,3.43,6.07,6.86,9.29,10.42C306.61,168.89,312.54,167.92,318.31,166.77L318.31,166.77z"/>
	<path id="Layer_79_" class="st1" d="M270.96,159.18c-1.34,0.37-1.64,1.4-0.92,2.32c0.67,0.87,2.35,1.49,4,1.59
		c2.19,0.07,3.27-0.58,3.55-2.13c1.6-0.08,2.63,0.19,3.45,1.1c1.3,1.52,2.64,3.05,4.03,4.6c0.77,0.85,1.48,1.64,2.3,2.54
		c-4.33,0.76-8.43,1.55-12.62,2.22c-1.16,0.2-2.29-0.19-3.24-0.87c0.19-0.12,0.33-0.21,0.42-0.27c1.17-0.93,0.93-2.06-0.61-2.91
		c-1.49-0.79-3.59-1.01-5.12-0.48c-1.43,0.51-1.73,1.55-0.56,2.72c0.3,0.21,0.56,0.49,0.71,0.79c1.58,2.74,6.65,4.4,11.08,3.62
		c5.27-0.93,10.5-1.85,15.7-2.76c0.39-0.07,0.62-0.18,1.01-0.24c-0.1-0.11-0.11-0.24-0.16-0.3c-3.01-3.34-5.87-6.63-8.93-9.9
		c-1.73-1.79-5.42-2.91-8.66-2.67C274.46,158.37,272.69,158.74,270.96,159.18L270.96,159.18z"/>
	<path id="Layer_78_" class="st1" d="M279.97,177.84c-3.71,0.72-4.51,3.41-2.04,5.53c0.47,0.44,0.91,0.89,1.32,1.34
		c0.87,0.96,2.69,1.62,4.44,1.58c1.79-0.12,3.02-0.86,2.93-1.83s-1.45-1.97-3.4-2.28c-0.44-0.12-0.93-0.16-1.32-0.23
		c-0.53-0.96-0.16-1.41,1.29-1.67c3.66-0.64,7.34-1.27,11.03-1.87c0.39-0.07,0.77-0.14,1.3-0.16c2.24,2.49,4.48,4.85,6.58,7.3
		c0.66,0.74,0.25,1.27-0.95,1.67c-0.25-0.15-0.45-0.25-0.65-0.35c-1.93-0.78-3.92-0.88-5.3-0.18c-1.24,0.61-1.23,1.72,0.07,2.67
		s3.26,1.26,5.13,0.87c0.39-0.07,0.87-0.15,1.25-0.22c5.42-0.43,7.26-2.72,4.61-5.66c-2.65-2.94-5.3-5.88-7.96-8.82
		c-0.2-0.23-0.46-0.51-0.81-0.77C291.53,175.81,285.7,176.77,279.97,177.84z"/>
	<path id="Layer_77_" class="st1" d="M324.21,186.18c0.57-0.19,1.18-0.34,1.82-0.45c1.88-0.27,2.76-1.14,2.28-2.17
		s-2.31-1.82-4.11-1.96c-1.99-0.11-3.42,0.54-3.47,1.59c-0.06,0.8-0.79,0.73-1.73,0.43c-0.64-0.21-1.43-0.6-1.79-1
		c-0.86-0.83-1.58-1.75-2.4-2.66c-1.33-1.47-2.65-2.94-3.93-4.35c0.14-0.09,0.19-0.16,0.28-0.18c4.05-0.71,8.14-1.5,12.23-2.15
		c1.25-0.22,2.33,0.11,3.14,0.89c-0.12,0.11-0.27,0.2-0.42,0.27c-1.08,0.91-0.83,2.05,0.71,2.89c1.44,0.73,3.54,0.95,5.02,0.49
		c1.53-0.53,1.82-1.57,0.66-2.74c-0.34-0.29-0.63-0.61-0.87-0.96c-1.57-2.61-6.49-4.23-10.92-3.45c-2.44,0.43-4.85,0.85-7.22,1.27
		c-3.18,0.56-6.36,1.12-9.63,1.69c3.16,3.51,6.07,6.86,9.18,10.18C315.23,186.12,320.52,187.15,324.21,186.18L324.21,186.18z"/>
</g>
<g>
	<g>
		<path id="Layer_128_" class="st3" d="M319.26,164.87c2.93-0.58,3.97-2.4,2.87-4.24c-0.47-0.77-1.52-1.57-2.14-2.38
			c-0.97-1.07-2.65-1.83-4.59-1.75c-1.84,0.06-3.17,0.82-2.97,1.9c0.29,1.06,1.69,2,3.79,2.22c1.27,0.17,1.48,0.53,1.21,0.97
			c-0.32,0.38-0.94,0.69-1.56,0.86c-1.39,0.31-2.79,0.49-4.14,0.73c-2.63,0.46-5.27,0.93-7.9,1.39c-0.25-0.15-0.4-0.19-0.5-0.31
			c-2.11-2.34-4.23-4.65-6.37-6.94c-0.66-0.74-0.3-1.32,1.04-1.69c0.23,0.09,0.46,0.18,0.69,0.27c1.83,0.79,3.77,0.84,5.2,0.2
			c1.18-0.67,1.13-1.84-0.12-2.73c-1.3-0.95-3.26-1.26-5.13-0.87c-0.64,0.11-1.3,0.21-1.98,0.28c-3.97,0.3-6.34,2.62-4.45,4.84
			c2.87,3.43,6.07,6.86,9.29,10.42C307.56,167,313.48,166.02,319.26,164.87L319.26,164.87z"/>
		<path id="Layer_127_" class="st3" d="M271.9,157.28c-1.34,0.37-1.64,1.4-0.92,2.32c0.67,0.87,2.35,1.49,4,1.59
			c2.19,0.07,3.27-0.58,3.55-2.13c1.6-0.08,2.63,0.19,3.45,1.1c1.3,1.52,2.64,3.05,4.03,4.6c0.77,0.85,1.48,1.64,2.3,2.54
			c-4.33,0.76-8.43,1.55-12.62,2.22c-1.16,0.2-2.29-0.19-3.24-0.87c0.19-0.12,0.33-0.21,0.42-0.27c1.17-0.93,0.93-2.06-0.61-2.91
			c-1.49-0.79-3.59-1.01-5.12-0.48c-1.43,0.51-1.73,1.55-0.56,2.72c0.3,0.21,0.56,0.49,0.71,0.79c1.58,2.74,6.65,4.4,11.08,3.62
			c5.27-0.93,10.5-1.85,15.7-2.76c0.39-0.07,0.62-0.18,1.01-0.24c-0.1-0.11-0.11-0.24-0.16-0.3c-3.01-3.34-5.87-6.63-8.93-9.9
			c-1.73-1.79-5.42-2.91-8.66-2.67C275.41,156.47,273.63,156.85,271.9,157.28L271.9,157.28z"/>
		<path id="Layer_126_" class="st3" d="M280.92,175.94c-3.71,0.72-4.51,3.41-2.04,5.53c0.47,0.44,0.91,0.89,1.32,1.34
			c0.87,0.96,2.69,1.62,4.44,1.58c1.79-0.12,3.02-0.86,2.93-1.83s-1.45-1.97-3.4-2.28c-0.44-0.12-0.93-0.16-1.32-0.23
			c-0.53-0.96-0.16-1.41,1.29-1.67c3.66-0.64,7.34-1.27,11.03-1.87c0.39-0.07,0.77-0.14,1.3-0.16c2.24,2.49,4.48,4.85,6.58,7.3
			c0.66,0.74,0.25,1.27-0.95,1.67c-0.25-0.15-0.45-0.25-0.65-0.35c-1.93-0.78-3.92-0.88-5.3-0.18c-1.24,0.61-1.23,1.72,0.07,2.67
			s3.26,1.26,5.13,0.87c0.39-0.07,0.87-0.15,1.25-0.22c5.42-0.43,7.26-2.72,4.61-5.66s-5.3-5.88-7.96-8.82
			c-0.2-0.23-0.46-0.51-0.81-0.77C292.47,173.91,286.64,174.87,280.92,175.94z"/>
		<path id="Layer_125_" class="st3" d="M325.15,184.28c0.57-0.19,1.18-0.34,1.82-0.45c1.88-0.27,2.76-1.14,2.28-2.17
			s-2.31-1.82-4.11-1.96c-1.99-0.11-3.42,0.54-3.47,1.59c-0.06,0.8-0.79,0.73-1.73,0.44c-0.64-0.21-1.43-0.6-1.79-1
			c-0.86-0.83-1.58-1.75-2.4-2.66c-1.33-1.47-2.65-2.94-3.93-4.35c0.14-0.09,0.19-0.16,0.28-0.18c4.05-0.71,8.14-1.5,12.23-2.15
			c1.25-0.22,2.33,0.11,3.14,0.89c-0.12,0.11-0.27,0.2-0.42,0.27c-1.08,0.91-0.83,2.05,0.71,2.89c1.44,0.73,3.54,0.95,5.02,0.49
			c1.53-0.53,1.82-1.57,0.66-2.74c-0.34-0.29-0.63-0.61-0.87-0.96c-1.57-2.61-6.49-4.23-10.92-3.45c-2.44,0.43-4.85,0.85-7.22,1.27
			c-3.18,0.56-6.36,1.12-9.63,1.69c3.16,3.51,6.07,6.86,9.18,10.18C316.17,184.22,321.46,185.26,325.15,184.28L325.15,184.28z"/>
	</g>
</g>
<g>
	<g>
		<path id="Layer_60_" class="st1" d="M118.88,202.92c2.12-1.32,2.85-3.62,2.04-5.46c-0.35-0.77-1.12-1.43-1.57-2.21
			c-0.71-1-1.93-1.47-3.33-0.94c-1.33,0.49-2.28,1.65-2.13,2.83c0.22,1.14,1.24,1.88,2.76,1.66c0.92-0.09,1.07,0.26,0.88,0.82
			c-0.23,0.51-0.67,0.99-1.12,1.33c-1,0.67-2.01,1.19-2.99,1.76c-1.9,1.12-3.8,2.24-5.7,3.36c-0.18-0.12-0.29-0.13-0.36-0.23
			c-1.54-2.17-3.1-4.32-4.67-6.43c-0.49-0.68-0.23-1.43,0.74-2.15c0.17,0.05,0.33,0.1,0.5,0.15c1.33,0.48,2.74,0.1,3.76-0.95
			c0.85-1.02,0.8-2.34-0.11-3.07c-0.95-0.78-2.37-0.69-3.72,0.18c-0.46,0.27-0.94,0.53-1.43,0.77c-2.86,1.24-4.56,4.41-3.17,6.5
			c2.1,3.24,4.45,6.41,6.81,9.72C110.45,207.98,114.72,205.53,118.88,202.92L118.88,202.92z"/>
		<path id="Layer_59_" class="st1" d="M84.58,205.02c-0.97,0.72-1.17,1.96-0.64,2.84c0.49,0.83,1.71,1.16,2.91,0.9
			c1.58-0.41,2.36-1.39,2.54-3.22c1.15-0.46,1.9-0.38,2.5,0.47c0.95,1.43,1.94,2.86,2.96,4.3c0.56,0.79,1.08,1.53,1.68,2.37
			c-3.13,1.85-6.08,3.66-9.1,5.37c-0.83,0.49-1.66,0.31-2.35-0.26c0.14-0.18,0.24-0.31,0.3-0.4c0.84-1.32,0.65-2.55-0.47-3.16
			c-1.08-0.55-2.6-0.33-3.7,0.62c-1.03,0.91-1.24,2.15-0.38,3.21c0.22,0.17,0.41,0.43,0.52,0.74c1.16,2.75,4.84,3.49,8.04,1.6
			c3.8-2.24,7.57-4.47,11.33-6.68c0.28-0.16,0.45-0.34,0.73-0.5c-0.07-0.11-0.08-0.25-0.12-0.3c-2.21-3.1-4.3-6.2-6.54-9.21
			c-1.27-1.64-3.94-2.08-6.28-1.07C87.11,203.31,85.83,204.14,84.58,205.02L84.58,205.02z"/>
		<path id="Layer_58_" class="st1" d="M91.27,224.15c-2.67,1.65-3.23,4.89-1.42,6.74c0.35,0.39,0.67,0.8,0.97,1.22
			c0.64,0.89,1.96,1.23,3.22,0.79c1.29-0.54,2.18-1.66,2.1-2.73c-0.07-1.08-1.06-1.91-2.48-1.82c-0.32-0.03-0.67,0.02-0.96,0.04
			c-0.39-0.96-0.13-1.57,0.91-2.18c2.64-1.56,5.29-3.1,7.96-4.62c0.28-0.16,0.56-0.33,0.94-0.48c1.64,2.32,3.28,4.48,4.82,6.79
			c0.49,0.68,0.19,1.38-0.67,2.11c-0.18-0.12-0.33-0.18-0.47-0.25c-1.4-0.44-2.84-0.11-3.83,0.99c-0.89,0.97-0.88,2.24,0.07,3.02
			s2.37,0.69,3.72-0.18c0.28-0.16,0.63-0.37,0.9-0.53c3.91-1.71,5.22-4.72,3.28-7.46s-3.89-5.47-5.83-8.21
			c-0.15-0.21-0.34-0.47-0.59-0.7C99.6,219.23,95.4,221.64,91.27,224.15z"/>
		<path id="Layer_57_" class="st1" d="M123.32,223.6c0.41-0.34,0.85-0.65,1.31-0.93c1.36-0.73,1.99-1.92,1.63-2.98
			s-1.69-1.54-2.99-1.3c-1.44,0.33-2.47,1.38-2.5,2.59c-0.04,0.92-0.57,1.01-1.25,0.88c-0.46-0.1-1.04-0.36-1.3-0.72
			c-0.63-0.75-1.16-1.63-1.76-2.47c-0.97-1.37-1.94-2.74-2.88-4.05c0.1-0.13,0.13-0.23,0.2-0.27c2.92-1.72,5.87-3.54,8.82-5.21
			c0.9-0.53,1.69-0.4,2.28,0.3c-0.09,0.15-0.19,0.29-0.3,0.4c-0.77,1.28-0.58,2.51,0.54,3.12c1.05,0.5,2.56,0.28,3.63-0.58
			c1.1-0.95,1.3-2.19,0.45-3.25c-0.25-0.25-0.46-0.55-0.64-0.89c-1.16-2.6-4.73-3.33-7.93-1.44c-1.76,1.04-3.5,2.06-5.21,3.08
			c-2.29,1.35-4.59,2.71-6.95,4.1c2.32,3.26,4.45,6.41,6.73,9.47C116.83,225.57,120.66,225.55,123.32,223.6L123.32,223.6z"/>
	</g>
	<g>
		<g>
			<path id="Layer_104_" class="st3" d="M117.44,200.84c2.12-1.32,2.85-3.62,2.04-5.46c-0.35-0.77-1.12-1.43-1.57-2.21
				c-0.71-1-1.93-1.47-3.33-0.94c-1.33,0.49-2.28,1.65-2.13,2.83c0.22,1.14,1.24,1.88,2.76,1.66c0.92-0.09,1.07,0.26,0.88,0.82
				c-0.23,0.51-0.67,0.99-1.12,1.33c-1,0.67-2.01,1.19-2.99,1.76c-1.9,1.12-3.8,2.24-5.7,3.36c-0.18-0.12-0.29-0.13-0.36-0.23
				c-1.54-2.17-3.1-4.32-4.67-6.43c-0.49-0.68-0.23-1.43,0.74-2.15c0.17,0.05,0.33,0.1,0.5,0.15c1.33,0.48,2.74,0.1,3.76-0.95
				c0.85-1.02,0.8-2.34-0.11-3.07c-0.95-0.78-2.37-0.69-3.72,0.18c-0.46,0.27-0.94,0.53-1.43,0.77c-2.86,1.24-4.56,4.41-3.17,6.5
				c2.1,3.24,4.45,6.41,6.81,9.72C109,205.9,113.28,203.45,117.44,200.84L117.44,200.84z"/>
			<path id="Layer_103_" class="st3" d="M83.14,202.94c-0.97,0.72-1.17,1.96-0.64,2.84c0.49,0.83,1.71,1.16,2.91,0.9
				c1.58-0.41,2.36-1.39,2.54-3.22c1.15-0.46,1.9-0.38,2.5,0.47c0.95,1.43,1.94,2.86,2.96,4.3c0.56,0.79,1.08,1.53,1.68,2.37
				c-3.13,1.85-6.08,3.66-9.1,5.37c-0.83,0.49-1.66,0.31-2.35-0.26c0.14-0.18,0.24-0.31,0.3-0.4c0.84-1.32,0.65-2.55-0.47-3.16
				c-1.08-0.55-2.6-0.33-3.7,0.62c-1.03,0.91-1.24,2.15-0.38,3.21c0.22,0.17,0.41,0.43,0.52,0.74c1.16,2.75,4.84,3.49,8.04,1.6
				c3.8-2.24,7.57-4.47,11.33-6.68c0.28-0.16,0.45-0.34,0.73-0.5c-0.07-0.11-0.08-0.25-0.12-0.3c-2.21-3.1-4.3-6.2-6.54-9.21
				c-1.27-1.64-3.94-2.08-6.28-1.07C85.67,201.23,84.39,202.06,83.14,202.94L83.14,202.94z"/>
			<path id="Layer_102_" class="st3" d="M89.83,222.07c-2.67,1.65-3.23,4.89-1.42,6.74c0.35,0.39,0.67,0.8,0.97,1.22
				c0.64,0.89,1.96,1.23,3.22,0.79c1.29-0.54,2.18-1.66,2.1-2.73s-1.06-1.91-2.48-1.82c-0.32-0.03-0.67,0.02-0.96,0.04
				c-0.39-0.96-0.13-1.57,0.91-2.18c2.64-1.56,5.29-3.1,7.96-4.62c0.28-0.16,0.56-0.33,0.94-0.48c1.64,2.32,3.28,4.48,4.82,6.79
				c0.49,0.68,0.19,1.38-0.67,2.11c-0.18-0.12-0.33-0.18-0.47-0.25c-1.4-0.44-2.84-0.11-3.83,0.99c-0.89,0.97-0.88,2.24,0.07,3.02
				s2.37,0.69,3.72-0.18c0.28-0.16,0.63-0.37,0.9-0.53c3.91-1.71,5.22-4.72,3.28-7.46s-3.89-5.47-5.83-8.21
				c-0.15-0.21-0.34-0.47-0.59-0.7C98.16,217.15,93.96,219.56,89.83,222.07z"/>
			<path id="Layer_101_" class="st3" d="M121.88,221.52c0.41-0.34,0.85-0.65,1.31-0.93c1.36-0.73,1.99-1.92,1.63-2.98
				s-1.69-1.54-2.99-1.3c-1.44,0.33-2.47,1.38-2.5,2.59c-0.04,0.92-0.57,1.01-1.25,0.88c-0.46-0.1-1.04-0.36-1.3-0.72
				c-0.63-0.75-1.16-1.63-1.76-2.47c-0.97-1.37-1.94-2.74-2.88-4.05c0.1-0.13,0.13-0.23,0.2-0.27c2.92-1.72,5.87-3.54,8.82-5.21
				c0.9-0.53,1.69-0.4,2.28,0.3c-0.09,0.15-0.19,0.29-0.3,0.4c-0.77,1.28-0.58,2.51,0.54,3.12c1.05,0.5,2.56,0.28,3.63-0.58
				c1.1-0.95,1.3-2.19,0.45-3.25c-0.25-0.25-0.46-0.55-0.64-0.89c-1.16-2.6-4.73-3.33-7.93-1.44c-1.76,1.04-3.5,2.06-5.21,3.08
				c-2.29,1.35-4.59,2.71-6.95,4.1c2.32,3.26,4.45,6.41,6.73,9.47C115.39,223.49,119.22,223.47,121.88,221.52L121.88,221.52z"/>
		</g>
	</g>
</g>
<g>
	<path id="Layer_52_" class="st1" d="M212.42,296.37c2.96-0.34,4.45-2.19,3.91-4.27c-0.24-0.87-1.02-1.82-1.39-2.75
		c-0.63-1.24-2.03-2.21-3.9-2.31c-1.77-0.11-3.25,0.57-3.36,1.75c-0.02,1.17,1.06,2.3,3,2.74c1.16,0.3,1.27,0.71,0.89,1.15
		c-0.41,0.38-1.09,0.65-1.73,0.78c-1.42,0.2-2.8,0.26-4.15,0.38c-2.64,0.24-5.28,0.49-7.92,0.73c-0.2-0.19-0.33-0.24-0.39-0.37
		c-1.37-2.71-2.76-5.39-4.17-8.04c-0.43-0.85,0.08-1.45,1.46-1.71c0.19,0.12,0.39,0.24,0.58,0.36c1.53,1.02,3.37,1.26,4.91,0.71
		c1.31-0.6,1.59-1.86,0.64-2.94c-0.98-1.14-2.76-1.66-4.66-1.42c-0.64,0.06-1.3,0.1-1.96,0.11c-3.87-0.05-6.77,2.2-5.58,4.76
		c1.79,3.95,3.91,7.93,5.99,12.05C200.67,297.53,206.59,297.05,212.42,296.37L212.42,296.37z"/>
	<path id="Layer_51_" class="st1" d="M169.31,283.7c-1.38,0.26-1.95,1.34-1.52,2.4c0.4,0.99,1.83,1.82,3.38,2.09
		c2.07,0.29,3.28-0.3,3.97-1.94c1.55,0.06,2.46,0.46,2.99,1.51c0.82,1.75,1.68,3.52,2.58,5.31c0.5,0.98,0.96,1.9,1.49,2.95
		c-4.35,0.4-8.47,0.85-12.65,1.17c-1.16,0.11-2.13-0.42-2.85-1.24c0.21-0.11,0.37-0.19,0.48-0.25c1.37-0.88,1.45-2.12,0.22-3.17
		c-1.21-0.98-3.15-1.42-4.75-1c-1.51,0.41-2.08,1.49-1.28,2.86c0.23,0.25,0.39,0.58,0.46,0.92c0.75,3.08,5.13,5.35,9.57,4.94
		c5.28-0.49,10.53-0.97,15.74-1.45c0.39-0.04,0.64-0.13,1.03-0.16c-0.07-0.13-0.04-0.27-0.07-0.34c-1.95-3.86-3.78-7.67-5.79-11.46
		c-1.16-2.09-4.37-3.64-7.53-3.69C172.88,283.17,171.08,283.4,169.31,283.7L169.31,283.7z"/>
	<path id="Layer_50_" class="st1" d="M172.78,304.56c-3.73,0.41-5.24,3.23-3.47,5.73c0.33,0.52,0.63,1.04,0.89,1.56
		c0.56,1.11,2.12,2,3.8,2.12c1.74,0.04,3.12-0.63,3.3-1.68c0.18-1.04-0.84-2.25-2.62-2.77c-0.39-0.17-0.84-0.26-1.2-0.37
		c-0.24-1.07,0.24-1.53,1.69-1.66c3.67-0.34,7.35-0.66,11.04-0.95c0.39-0.04,0.77-0.07,1.29-0.05c1.46,2.88,2.94,5.62,4.27,8.44
		c0.43,0.85-0.11,1.38-1.36,1.7c-0.2-0.19-0.36-0.31-0.52-0.43c-1.63-1.01-3.5-1.32-5.01-0.7c-1.35,0.54-1.65,1.73-0.67,2.87
		c0.98,1.14,2.76,1.66,4.66,1.42c0.39-0.04,0.87-0.08,1.26-0.12c5.29,0.06,7.68-2.22,5.95-5.62c-1.72-3.4-3.44-6.81-5.16-10.21
		c-0.13-0.26-0.3-0.59-0.56-0.91C184.37,303.49,178.54,303.96,172.78,304.56z"/>
	<path id="Layer_49_" class="st1" d="M212.7,317.72c0.6-0.15,1.22-0.25,1.87-0.31c1.87-0.1,2.95-0.96,2.78-2.11s-1.7-2.17-3.39-2.5
		c-1.87-0.31-3.41,0.25-3.75,1.37c-0.28,0.85-0.96,0.71-1.77,0.3c-0.55-0.29-1.2-0.78-1.43-1.24c-0.59-0.97-1.03-2.03-1.56-3.08
		c-0.86-1.7-1.72-3.4-2.55-5.04c0.16-0.08,0.22-0.16,0.32-0.17c4.06-0.37,8.18-0.82,12.27-1.13c1.26-0.12,2.2,0.35,2.76,1.25
		c-0.15,0.11-0.31,0.19-0.48,0.25c-1.28,0.87-1.36,2.11-0.12,3.16c1.17,0.92,3.11,1.36,4.66,1.01c1.61-0.42,2.17-1.5,1.38-2.87
		c-0.24-0.34-0.43-0.71-0.56-1.11c-0.78-2.94-5.03-5.15-9.48-4.74c-2.45,0.23-4.86,0.45-7.24,0.67c-3.19,0.29-6.37,0.59-9.66,0.89
		c2.05,4.06,3.91,7.93,5.96,11.78C204.14,316.8,208.9,318.42,212.7,317.72L212.7,317.72z"/>
</g>
<g>
	<g>
		<path id="Layer_100_" class="st3" d="M212.66,294.63c2.96-0.34,4.45-2.19,3.91-4.27c-0.24-0.87-1.02-1.82-1.39-2.75
			c-0.63-1.24-2.03-2.21-3.9-2.31c-1.77-0.11-3.25,0.57-3.36,1.75c-0.02,1.17,1.06,2.3,3,2.74c1.16,0.3,1.27,0.71,0.89,1.15
			c-0.41,0.38-1.09,0.65-1.73,0.78c-1.42,0.2-2.8,0.26-4.15,0.38c-2.64,0.24-5.28,0.49-7.92,0.73c-0.2-0.19-0.33-0.24-0.39-0.37
			c-1.37-2.71-2.76-5.39-4.17-8.04c-0.43-0.85,0.08-1.45,1.46-1.71c0.19,0.12,0.39,0.24,0.58,0.36c1.53,1.02,3.37,1.26,4.91,0.71
			c1.31-0.6,1.59-1.86,0.64-2.94c-0.98-1.14-2.76-1.66-4.66-1.42c-0.64,0.06-1.3,0.1-1.96,0.11c-3.87-0.05-6.77,2.2-5.58,4.76
			c1.79,3.95,3.91,7.93,5.99,12.05C200.9,295.78,206.83,295.3,212.66,294.63L212.66,294.63z"/>
		<path id="Layer_99_" class="st3" d="M169.55,281.96c-1.38,0.26-1.95,1.34-1.52,2.4c0.4,0.99,1.83,1.82,3.38,2.09
			c2.07,0.29,3.28-0.3,3.97-1.94c1.55,0.06,2.46,0.46,2.99,1.51c0.82,1.75,1.68,3.52,2.58,5.31c0.5,0.98,0.96,1.9,1.49,2.95
			c-4.35,0.4-8.47,0.85-12.65,1.17c-1.16,0.11-2.13-0.42-2.85-1.24c0.21-0.11,0.37-0.19,0.48-0.25c1.37-0.88,1.45-2.12,0.22-3.17
			c-1.21-0.98-3.15-1.42-4.75-1c-1.51,0.41-2.08,1.49-1.28,2.86c0.23,0.25,0.39,0.58,0.46,0.92c0.75,3.08,5.13,5.35,9.57,4.94
			c5.28-0.49,10.53-0.97,15.74-1.45c0.39-0.04,0.64-0.13,1.03-0.16c-0.07-0.13-0.04-0.27-0.07-0.34c-1.95-3.86-3.78-7.67-5.79-11.46
			c-1.16-2.09-4.37-3.64-7.53-3.69C173.12,281.42,171.32,281.66,169.55,281.96L169.55,281.96z"/>
		<path id="Layer_98_" class="st3" d="M173.02,302.81c-3.73,0.41-5.24,3.23-3.47,5.73c0.33,0.52,0.63,1.04,0.89,1.56
			c0.56,1.11,2.12,2,3.8,2.12c1.74,0.04,3.12-0.63,3.3-1.68s-0.84-2.25-2.62-2.77c-0.39-0.17-0.84-0.26-1.2-0.37
			c-0.24-1.07,0.24-1.53,1.69-1.66c3.67-0.34,7.35-0.66,11.04-0.95c0.39-0.04,0.77-0.07,1.29-0.05c1.46,2.88,2.94,5.62,4.27,8.44
			c0.43,0.85-0.11,1.38-1.36,1.7c-0.2-0.19-0.36-0.31-0.52-0.43c-1.63-1.01-3.5-1.32-5.01-0.7c-1.35,0.54-1.65,1.73-0.67,2.87
			c0.98,1.14,2.76,1.66,4.66,1.42c0.39-0.04,0.87-0.08,1.26-0.12c5.29,0.06,7.68-2.22,5.95-5.62c-1.72-3.4-3.44-6.81-5.16-10.21
			c-0.13-0.26-0.3-0.59-0.56-0.91C184.61,301.74,178.78,302.21,173.02,302.81z"/>
		<path id="Layer_97_" class="st3" d="M212.94,315.98c0.6-0.15,1.22-0.25,1.87-0.31c1.87-0.1,2.95-0.96,2.78-2.11
			s-1.7-2.17-3.39-2.5c-1.87-0.31-3.41,0.25-3.75,1.37c-0.28,0.85-0.96,0.71-1.77,0.3c-0.55-0.29-1.2-0.78-1.43-1.24
			c-0.59-0.97-1.03-2.03-1.56-3.08c-0.86-1.7-1.72-3.4-2.55-5.04c0.16-0.08,0.22-0.16,0.32-0.17c4.06-0.37,8.18-0.82,12.27-1.13
			c1.26-0.12,2.2,0.35,2.76,1.25c-0.15,0.11-0.31,0.19-0.48,0.25c-1.28,0.87-1.36,2.11-0.12,3.16c1.17,0.92,3.11,1.36,4.66,1.01
			c1.61-0.42,2.17-1.5,1.38-2.87c-0.24-0.34-0.43-0.71-0.56-1.11c-0.78-2.94-5.03-5.15-9.48-4.74c-2.45,0.23-4.86,0.45-7.24,0.67
			c-3.19,0.29-6.38,0.59-9.66,0.89c2.05,4.06,3.91,7.93,5.96,11.78C204.38,315.06,209.14,316.67,212.94,315.98L212.94,315.98z"/>
	</g>
</g>
<g>
	<g>
		<path id="Layer_28_" class="st1" d="M233.82,35.52c2.96-0.25,4.97-2.02,5.07-4.05c0.04-0.85-0.43-1.8-0.5-2.71
			c-0.23-1.23-1.28-2.2-3.06-2.35c-1.68-0.15-3.31,0.47-3.78,1.61c-0.37,1.13,0.32,2.27,2.06,2.74c1.03,0.33,1.01,0.72,0.5,1.14
			c-0.52,0.36-1.25,0.6-1.91,0.71c-1.43,0.16-2.78,0.18-4.13,0.26c-2.62,0.17-5.25,0.34-7.87,0.5c-0.13-0.19-0.24-0.25-0.26-0.38
			c-0.5-2.67-1.02-5.31-1.57-7.94c-0.16-0.84,0.52-1.41,1.93-1.63c0.15,0.12,0.3,0.24,0.46,0.36c1.16,1.04,2.87,1.32,4.52,0.82
			c1.45-0.55,2.1-1.77,1.51-2.84c-0.6-1.14-2.16-1.69-4.07-1.5c-0.64,0.04-1.28,0.06-1.93,0.06c-3.72-0.15-7.21,1.96-6.84,4.49
			c0.53,3.89,1.36,7.82,2.11,11.89C222.12,36.33,227.99,36.03,233.82,35.52L233.82,35.52z"/>
		<path id="Layer_27_" class="st1" d="M196.06,22.06c-1.42,0.22-2.29,1.26-2.2,2.3c0.08,0.97,1.21,1.82,2.63,2.12
			c1.91,0.34,3.26-0.21,4.43-1.79c1.48,0.1,2.23,0.51,2.42,1.54c0.26,1.73,0.55,3.47,0.88,5.24c0.18,0.97,0.35,1.87,0.54,2.91
			c-4.32,0.28-8.43,0.6-12.57,0.8c-1.15,0.07-1.93-0.46-2.38-1.29c0.24-0.1,0.42-0.18,0.54-0.23c1.6-0.82,2.05-2.03,1.18-3.08
			c-0.86-0.99-2.6-1.47-4.28-1.1c-1.58,0.36-2.46,1.4-2.11,2.75c0.14,0.25,0.2,0.58,0.17,0.9c-0.22,3.02,3.32,5.34,7.74,5.06
			c5.25-0.34,10.46-0.67,15.65-1c0.38-0.02,0.66-0.11,1.04-0.13c-0.02-0.13,0.05-0.26,0.04-0.33c-0.71-3.81-1.31-7.56-2.1-11.3
			c-0.48-2.06-3.11-3.66-6.14-3.79C199.67,21.63,197.86,21.81,196.06,22.06L196.06,22.06z"/>
		<path id="Layer_26_" class="st1" d="M193.05,42.44c-3.73,0.3-6.05,3-5.1,5.49c0.16,0.51,0.29,1.03,0.38,1.54
			c0.2,1.1,1.44,2,3.02,2.16c1.67,0.09,3.2-0.53,3.7-1.54c0.49-1.01-0.12-2.21-1.68-2.77c-0.32-0.18-0.73-0.28-1.04-0.39
			c0.1-1.05,0.7-1.48,2.14-1.57c3.65-0.23,7.3-0.44,10.95-0.63c0.38-0.02,0.77-0.05,1.26-0.02c0.53,2.84,1.13,5.55,1.55,8.33
			c0.16,0.84-0.53,1.34-1.84,1.62c-0.13-0.19-0.25-0.31-0.37-0.43c-1.26-1.03-2.98-1.38-4.62-0.82c-1.46,0.49-2.12,1.64-1.52,2.78
			c0.6,1.14,2.16,1.69,4.07,1.5c0.38-0.02,0.86-0.06,1.25-0.08c5.09,0.2,8.09-1.95,7.46-5.31c-0.62-3.36-1.25-6.72-1.87-10.07
			c-0.05-0.26-0.11-0.58-0.26-0.9C204.57,41.7,198.79,42.01,193.05,42.44z"/>
		<path id="Layer_25_" class="st1" d="M227.58,56.31c0.62-0.13,1.26-0.21,1.9-0.25c1.84-0.05,3.14-0.85,3.32-1.98
			c0.18-1.12-0.98-2.16-2.51-2.52c-1.72-0.35-3.37,0.15-4.04,1.24c-0.53,0.82-1.14,0.66-1.8,0.25c-0.44-0.3-0.92-0.79-1.01-1.24
			c-0.28-0.96-0.37-2-0.56-3.03c-0.31-1.68-0.62-3.36-0.92-4.97c0.18-0.08,0.26-0.15,0.36-0.15c4.03-0.26,8.15-0.59,12.19-0.78
			c1.25-0.08,2.02,0.39,2.28,1.29c-0.18,0.1-0.36,0.18-0.54,0.23c-1.5,0.81-1.96,2.02-1.08,3.07c0.85,0.93,2.59,1.4,4.19,1.1
			c1.68-0.37,2.56-1.4,2.21-2.75c-0.13-0.34-0.2-0.71-0.2-1.1c0.14-2.88-3.29-5.15-7.7-4.87c-2.43,0.16-4.83,0.31-7.2,0.46
			c-3.17,0.2-6.34,0.4-9.6,0.61c0.74,4,1.36,7.82,2.16,11.62C219.6,55.18,223.71,56.88,227.58,56.31L227.58,56.31z"/>
	</g>
	<g>
		<g>
			<path id="Layer_64_" class="st3" d="M233.38,33.22c2.96-0.25,4.97-2.02,5.07-4.05c0.04-0.85-0.43-1.8-0.5-2.71
				c-0.23-1.23-1.28-2.2-3.06-2.35c-1.68-0.15-3.31,0.47-3.78,1.61c-0.37,1.13,0.32,2.27,2.06,2.74c1.03,0.33,1.01,0.72,0.5,1.14
				c-0.52,0.36-1.25,0.6-1.91,0.71c-1.43,0.16-2.78,0.18-4.13,0.26c-2.62,0.17-5.25,0.34-7.87,0.5c-0.13-0.19-0.24-0.25-0.26-0.38
				c-0.5-2.67-1.02-5.31-1.57-7.94c-0.16-0.84,0.52-1.41,1.93-1.63c0.15,0.12,0.3,0.24,0.46,0.36c1.16,1.04,2.87,1.32,4.52,0.82
				c1.45-0.55,2.1-1.77,1.51-2.84c-0.6-1.14-2.16-1.69-4.07-1.5c-0.64,0.04-1.28,0.06-1.93,0.06c-3.72-0.15-7.21,1.96-6.84,4.49
				c0.53,3.89,1.36,7.82,2.11,11.89C221.68,34.03,227.55,33.72,233.38,33.22L233.38,33.22z"/>
			<path id="Layer_63_" class="st3" d="M195.62,19.75c-1.42,0.22-2.29,1.26-2.2,2.3c0.08,0.97,1.21,1.82,2.63,2.12
				c1.91,0.34,3.26-0.21,4.43-1.79c1.48,0.1,2.23,0.51,2.42,1.54c0.26,1.73,0.55,3.47,0.88,5.24c0.18,0.97,0.35,1.87,0.54,2.91
				c-4.32,0.28-8.43,0.6-12.57,0.8c-1.15,0.07-1.93-0.46-2.38-1.29c0.24-0.1,0.42-0.18,0.54-0.23c1.6-0.82,2.05-2.03,1.18-3.08
				c-0.86-0.99-2.6-1.47-4.28-1.1c-1.58,0.36-2.46,1.4-2.11,2.75c0.14,0.25,0.2,0.58,0.17,0.9c-0.22,3.02,3.32,5.34,7.74,5.06
				c5.25-0.34,10.46-0.67,15.65-1c0.38-0.02,0.66-0.11,1.04-0.13c-0.02-0.13,0.05-0.26,0.04-0.33c-0.71-3.81-1.31-7.56-2.1-11.3
				c-0.48-2.06-3.11-3.66-6.14-3.79C199.23,19.33,197.42,19.51,195.62,19.75L195.62,19.75z"/>
			<path id="Layer_62_" class="st3" d="M192.61,40.14c-3.73,0.3-6.05,3-5.1,5.49c0.16,0.51,0.29,1.03,0.38,1.54
				c0.2,1.1,1.44,2,3.02,2.16c1.67,0.09,3.2-0.53,3.7-1.54c0.49-1.01-0.12-2.21-1.68-2.77c-0.32-0.18-0.73-0.28-1.04-0.39
				c0.1-1.05,0.7-1.48,2.14-1.57c3.65-0.23,7.3-0.44,10.95-0.63c0.38-0.02,0.77-0.05,1.26-0.02c0.53,2.84,1.13,5.55,1.55,8.33
				c0.16,0.84-0.53,1.34-1.84,1.62c-0.13-0.19-0.25-0.31-0.37-0.43c-1.26-1.03-2.98-1.38-4.62-0.82c-1.46,0.49-2.12,1.64-1.52,2.78
				c0.6,1.14,2.16,1.69,4.07,1.5c0.38-0.02,0.86-0.06,1.25-0.08c5.09,0.2,8.09-1.95,7.46-5.31c-0.62-3.36-1.25-6.72-1.87-10.07
				c-0.05-0.26-0.11-0.58-0.26-0.9C204.13,39.4,198.36,39.7,192.61,40.14z"/>
			<path id="Layer_61_" class="st3" d="M227.14,54c0.62-0.13,1.26-0.21,1.9-0.25c1.84-0.05,3.14-0.85,3.32-1.98
				c0.18-1.12-0.98-2.16-2.51-2.52c-1.72-0.35-3.37,0.15-4.04,1.24c-0.53,0.82-1.14,0.66-1.8,0.25c-0.44-0.3-0.92-0.79-1.01-1.24
				c-0.28-0.96-0.37-2-0.56-3.03c-0.31-1.68-0.62-3.36-0.92-4.97c0.18-0.08,0.26-0.15,0.36-0.15c4.03-0.26,8.15-0.59,12.19-0.78
				c1.25-0.08,2.02,0.39,2.28,1.29c-0.18,0.1-0.36,0.18-0.54,0.23c-1.5,0.81-1.96,2.02-1.08,3.07c0.85,0.93,2.59,1.4,4.19,1.1
				c1.68-0.37,2.56-1.4,2.21-2.75c-0.13-0.34-0.2-0.71-0.2-1.1c0.14-2.88-3.29-5.15-7.7-4.87c-2.43,0.16-4.83,0.31-7.2,0.46
				c-3.17,0.2-6.34,0.4-9.6,0.61c0.74,4,1.36,7.82,2.16,11.62C219.17,52.88,223.27,54.58,227.14,54L227.14,54z"/>
		</g>
	</g>
</g>
</svg>
