<?xml version="1.0" encoding="utf-8"?>
<!-- Generator: Adobe Illustrator 25.0.0, SVG Export Plug-In . SVG Version: 6.00 Build 0)  -->
<svg version="1.1" id="Layer_1" xmlns="http://www.w3.org/2000/svg" xmlns:xlink="http://www.w3.org/1999/xlink" x="0px" y="0px"
	 viewBox="0 0 440.03 439.28" style="enable-background:new 0 0 440.03 439.28;" xml:space="preserve">
<style type="text/css">
	.st0{fill:#262525;}
	.st1{fill:#88512B;}
	.st2{fill:#663915;}
	.st3{fill:#9F6843;}
	.st4{fill:#D29E66;}
	.st5{fill:#F3961E;}
	.st6{fill:#FEBD1D;}
	.st7{fill:#D27E18;}
	.st8{fill:#E19F1E;}
	.st9{fill:#FBB25B;}
	.st10{fill:#FED777;}
	.st11{fill:#B87E49;}
	.st12{fill:#282828;}
	.st13{fill:#F6E684;}
	.st14{fill:#2C2C2B;}
</style>
<g>
	<path class="st0" d="M411.91,300.41c0,7.73,0,15.46,0,23.19c-1.59,2.34-1.29,5.14-1.85,7.72c-10.22,47.73-49.85,79.8-98.81,79.81
		c-91.5,0.03-183-0.01-274.51,0.07c-3.65,0-6.52-0.78-8.62-3.81c0-13.47,0-26.93,0-40.4c2.26-3.38,5.55-4.25,9.36-3.73
		c2.13,0.29,2.73-0.54,2.68-2.65c-0.14-6.22-0.13-12.45,0-18.67c0.05-2.1-0.55-2.94-2.68-2.65c-3.81,0.52-7.09-0.37-9.36-3.73
		c0-13.47,0-26.93,0-40.4c2.09-3.05,4.96-4.03,8.63-3.8c4.23,0.26,8.49-0.06,12.73,0.11c2.15,0.08,2.7-0.61,2.67-2.7
		c-0.11-8.6-0.07-17.2-0.04-25.8c0.02-5.37,2.09-7.44,7.48-7.46c8.62-0.03,17.23-0.07,25.85,0.04c2.11,0.03,2.73-0.55,2.7-2.68
		c-0.12-8.47-0.06-16.95-0.05-25.43c0.01-5.88,1.96-7.85,7.83-7.85c12.74-0.01,25.48-0.15,38.21,0.08c4.47,0.08,7.8-1.07,11.32-4.06
		c12.36-10.51,26.24-18.99,39.43-28.39c9.53-6.79,19.16-13.44,28.82-20.2c-6.62-7.69-7.89-15.64-1.93-23.98
		c1.29-1.8-0.18-2.47-0.8-3.46c-4.88-7.7-3.8-17.06,3.14-22.98c2.19-1.87,2.1-2.83,0.49-4.92c-12.56-16.23-27.73-29.65-44.31-41.59
		c-5.53-3.99-5.77-7.55-0.71-12.03c9.36-8.29,20.63-11.79,32.84-12.77c4.11-0.33,4.12-0.23,2.01-3.62
		c-0.33-0.53-0.67-1.05-0.99-1.59c-2.81-4.7-1.27-8.3,4.02-9.96c2.18-0.69,4.68-0.41,6.55-2.06c4.25,0,8.5,0,12.74,0
		c1.95,1.38,4.39,1.16,6.54,1.99c4.71,1.82,8.72,4.76,12.89,7.45c5.96,3.85,12.22,4.54,18.3,0.7c6.37-4.02,12.64-8.11,20-10.15
		c4,0,8,0,11.99,0c2.74,1.48,5.92,1.24,8.79,2.24c4.33,1.51,5.85,5.17,3.66,9.18c-0.99,1.81-2.5,3.35-3.03,5.47
		c3.43,0.37,6.65,0.6,9.83,1.1c10.45,1.65,19.88,5.57,27.64,12.95c3.72,3.54,3.44,7.23-0.66,10.36c-0.99,0.76-2.04,1.44-3.04,2.18
		c-15.89,11.79-30.61,24.79-42.61,40.65c-1.33,1.75-1.37,2.53,0.41,4.07c7.32,6.3,8.62,15.6,3.35,23.47
		c-1.08,1.61-1.1,2.49-0.01,4.11c4.44,6.62,4.41,14.6-0.48,20.5c-2.19,2.64-1.11,3.39,0.97,4.84
		c19.03,13.23,38.11,26.39,56.97,39.85c26.79,19.13,43.67,44.88,50.88,76.99C410.21,290.8,410.23,295.76,411.91,300.41z
		 M124.08,399.05c3.99,0,7.98,0,11.97,0c8,0,16.01,0,24.01,0c3.99,0,7.98,0,11.97,0c4.01,0,8.01,0,12.02,0c3.99,0,7.98,0,11.97,0
		c3.23,0.04,6.46,0.01,9.68,0.15c1.77,0.08,2.41-0.54,2.35-2.33c-0.11-3.47,0.08-6.95-0.06-10.41c-0.15-3.66,1.66-8.66-0.77-10.64
		c-2.52-2.05-7.37-0.59-11.2-0.47c-3.99,0-7.98,0-11.97,0c-4.01,0-8.01,0-12.02,0c-3.99,0-7.98,0-11.97,0c-8,0-16.01,0-24.01,0
		c-3.99,0-7.98,0-11.97,0c-3.23-0.04-6.46-0.01-9.68-0.15c-1.77-0.08-2.41,0.54-2.35,2.33c0.11,3.47-0.08,6.95,0.06,10.41
		c0.15,3.66-1.66,8.66,0.77,10.64C115.4,400.64,120.24,399.18,124.08,399.05z M172.05,291.31c3.99,0,7.99,0,11.98,0
		c7.22,0.04,14.44,0.04,21.66,0.15c1.75,0.03,2.39-0.49,2.36-2.3c-0.09-6.46-0.09-12.93,0-19.39c0.03-1.81-0.61-2.33-2.36-2.3
		c-7.22,0.12-14.44,0.11-21.66,0.15c-3.99,0-7.99,0-11.98,0c-4,0-8,0-12.01,0c-5.99,0-11.98,0-17.98,0
		c-9.22-0.04-18.44-0.05-27.65-0.15c-1.75-0.02-2.39,0.48-2.37,2.3c0.09,6.47,0.09,12.94,0,19.4c-0.03,1.82,0.62,2.32,2.37,2.3
		c9.22-0.11,18.44-0.11,27.65-0.15c5.99,0,11.98,0,17.98,0C164.04,291.31,168.04,291.31,172.05,291.31z M148.05,339.44
		c-3.99,0-7.99,0-11.98,0c-7.22-0.04-14.44-0.04-21.66-0.15c-1.75-0.03-2.39,0.49-2.36,2.3c0.09,6.46,0.09,12.93,0,19.39
		c-0.03,1.81,0.61,2.33,2.36,2.3c7.22-0.12,14.44-0.11,21.66-0.15c3.99,0,7.99,0,11.98,0c4,0,8,0,12.01,0c5.99,0,11.98,0,17.98,0
		c9.22,0.04,18.44,0.05,27.65,0.15c1.75,0.02,2.39-0.48,2.37-2.3c-0.09-6.47-0.09-12.94,0-19.4c0.03-1.82-0.62-2.32-2.37-2.3
		c-9.22,0.11-18.44,0.11-27.65,0.15c-5.99,0-11.98,0-17.98,0C156.05,339.44,152.05,339.44,148.05,339.44z M148.06,327.22
		c3.99,0,7.98,0,11.97,0c4.01,0,8.01,0,12.02,0c3.99,0,7.98,0,11.97,0c3.23,0.04,6.46,0.01,9.68,0.15c1.77,0.08,2.41-0.54,2.35-2.33
		c-0.11-3.47,0.08-6.95-0.06-10.41c-0.15-3.66,1.66-8.66-0.77-10.64c-2.52-2.05-7.37-0.59-11.2-0.47c-3.99,0-7.98,0-11.97,0
		c-4.01,0-8.01,0-12.02,0c-3.99,0-7.98,0-11.97,0c-4.01,0-8.01,0-12.02,0c-5.99,0-11.98,0-17.97,0c-5.22-0.04-10.44-0.03-15.66-0.15
		c-1.75-0.04-2.39,0.51-2.37,2.32c0.08,6.45,0.08,12.91,0,19.36c-0.02,1.8,0.62,2.36,2.37,2.32c5.22-0.12,10.44-0.11,15.66-0.15
		c5.99,0,11.98,0,17.97,0C140.05,327.22,144.06,327.22,148.06,327.22z M142.04,231.7c-3.99,0-7.98,0-11.97,0
		c-9.21-0.04-18.42-0.05-27.63-0.15c-1.73-0.02-2.41,0.48-2.39,2.3c0.09,6.46,0.09,12.93,0,19.39c-0.02,1.82,0.66,2.32,2.39,2.3
		c9.21-0.1,18.42-0.11,27.63-0.15c3.99,0,7.98,0,11.97,0c4.01,0,8.01,0,12.02,0c5.99,0,11.98,0,17.97,0
		c7.22,0.04,14.43,0.04,21.65,0.15c1.74,0.03,2.41-0.49,2.38-2.31c-0.09-6.46-0.09-12.92,0-19.38c0.02-1.82-0.64-2.33-2.38-2.31
		c-7.21,0.11-14.43,0.11-21.65,0.15c-5.99,0-11.98,0-17.97,0C150.05,231.7,146.05,231.7,142.04,231.7z M82.06,267.61
		c-5.21-0.04-10.43-0.03-15.64-0.15c-1.77-0.04-2.37,0.55-2.35,2.33c0.08,6.44,0.08,12.89,0,19.34c-0.02,1.78,0.58,2.37,2.35,2.33
		c5.21-0.12,10.43-0.11,15.64-0.15c5.21,0.04,10.43,0.03,15.64,0.14c1.73,0.04,2.42-0.52,2.4-2.32c-0.08-6.44-0.08-12.89,0-19.33
		c0.02-1.8-0.67-2.36-2.4-2.32C92.49,267.58,87.27,267.58,82.06,267.61z M82.06,363.14c5.21,0.04,10.43,0.03,15.64,0.14
		c1.73,0.04,2.42-0.52,2.4-2.32c-0.08-6.44-0.08-12.89,0-19.33c0.02-1.8-0.67-2.36-2.4-2.32c-5.21,0.11-10.43,0.1-15.64,0.14
		c-9.2-0.04-18.41-0.05-27.61-0.15c-1.75-0.02-2.4,0.5-2.38,2.31c0.09,6.46,0.09,12.91,0,19.37c-0.02,1.81,0.63,2.33,2.38,2.31
		C63.65,363.18,72.86,363.18,82.06,363.14z M70.07,327.22c5.22,0.04,10.44,0.03,15.66,0.15c1.74,0.04,2.41-0.51,2.38-2.31
		c-0.08-6.45-0.08-12.91,0-19.36c0.02-1.81-0.64-2.35-2.38-2.31c-5.22,0.12-10.44,0.11-15.66,0.15c-9.21-0.04-18.42-0.04-27.63-0.15
		c-1.76-0.02-2.38,0.5-2.36,2.31c0.09,6.46,0.09,12.93,0,19.39c-0.03,1.81,0.6,2.33,2.36,2.31
		C51.65,327.27,60.86,327.26,70.07,327.22z M290.48,46.78c0.59-0.94,1.24-1.86,1.76-2.84c1.95-3.62,1.77-3.91-2.29-3.87
		c-5.63,0.05-10.32,2.49-14.79,5.62c-4,2.8-8.21,5.2-13.06,6.29c-9.2,2.06-17.22-0.67-24.68-5.88c-3.48-2.43-7.04-4.76-11.32-5.59
		c-2.44-0.47-5.74-1.52-7.08,0.22c-1.35,1.75,1.27,4.11,2.48,6.05c5.92,12.46,11.68,24.99,15.58,38.27
		c1.66,5.65,1.1,7.03-3.75,10.25c-4.02-0.1-6.36-2.13-7.51-5.98c-2.99-10.02-6.85-19.72-11.23-29.22c-0.7-1.52-1.36-2.81-3.41-2.89
		c-8.7-0.35-17.17,0.47-25.14,4.28c-4.13,1.98-4.13,2.21-0.6,4.93c15.13,11.68,29.16,24.52,40.05,40.31
		c3.02,4.38,6.25,5.84,11.08,5.05c3.24,0.03,6.5-0.13,9.72,0.13c3.02,0.24,3.8-0.91,3.77-3.81c-0.14-12.07,0.02-24.14-0.11-36.21
		c-0.04-3.44,0.86-6.09,3.95-7.8c1.4,0,2.8,0,4.2,0c3.09,1.71,3.99,4.37,3.95,7.8c-0.13,12.2,0.01,24.41-0.1,36.62
		c-0.02,2.62,0.82,3.54,3.43,3.39c3.36-0.2,6.73-0.1,10.1-0.13c4.65,0.73,7.98-0.36,10.82-4.8c4.95-7.74,11.21-14.56,17.81-20.99
		c7.12-6.95,14.56-13.54,22.46-19.59c3.52-2.69,3.51-2.93-0.65-4.92c-7.97-3.81-16.44-4.62-25.14-4.26c-2.06,0.08-2.7,1.4-3.4,2.91
		c-4.38,9.5-8.24,19.19-11.22,29.21c-1.15,3.85-3.51,5.86-7.52,5.97c-4.85-3.26-5.35-4.6-3.74-10.27c0.3-1.08,0.69-2.13,1.02-3.2
		C279.69,69.71,285.02,58.22,290.48,46.78z M82.06,399.05c5.22,0.04,10.44,0.03,15.66,0.15c1.74,0.04,2.41-0.51,2.38-2.31
		c-0.08-6.45-0.08-12.91,0-19.36c0.02-1.81-0.64-2.35-2.38-2.31c-5.22,0.12-10.44,0.11-15.66,0.15
		c-13.21-0.04-26.41-0.05-39.62-0.15c-1.75-0.01-2.39,0.48-2.37,2.3c0.09,6.47,0.09,12.94,0,19.4c-0.03,1.82,0.62,2.31,2.37,2.3
		C55.65,399.11,68.86,399.09,82.06,399.05z M238.03,399.05c13.21,0.04,26.41,0.05,39.62,0.15c1.75,0.01,2.39-0.48,2.37-2.3
		c-0.09-6.47-0.09-12.94,0-19.4c0.03-1.82-0.62-2.31-2.37-2.3c-13.21,0.1-26.41,0.11-39.62,0.15c-5.22-0.04-10.44-0.03-15.66-0.15
		c-1.74-0.04-2.41,0.51-2.38,2.31c0.08,6.45,0.08,12.91,0,19.36c-0.02,1.81,0.64,2.35,2.38,2.31
		C227.59,399.08,232.81,399.09,238.03,399.05z M238.03,291.31c15.19,0.04,30.39,0.06,45.58,0.15c1.73,0.01,2.42-0.47,2.39-2.3
		c-0.09-6.46-0.09-12.93,0-19.39c0.02-1.83-0.67-2.31-2.39-2.3c-15.19,0.09-30.39,0.11-45.58,0.15c-5.21-0.04-10.43-0.03-15.64-0.14
		c-1.73-0.04-2.42,0.52-2.4,2.32c0.08,6.44,0.08,12.89,0,19.33c-0.02,1.8,0.67,2.36,2.4,2.32
		C227.6,291.35,232.82,291.35,238.03,291.31z M226.03,303.53c-5.22-0.04-10.44-0.03-15.66-0.15c-1.74-0.04-2.41,0.51-2.38,2.31
		c0.08,6.45,0.08,12.91,0,19.36c-0.02,1.81,0.64,2.35,2.38,2.31c5.22-0.12,10.44-0.11,15.66-0.15c17.2,0.04,34.4,0.06,51.6,0.15
		c1.74,0.01,2.4-0.46,2.37-2.29c-0.09-6.47-0.09-12.94,0-19.41c0.03-1.83-0.63-2.3-2.37-2.29
		C260.44,303.47,243.24,303.49,226.03,303.53z M238.03,363.14c17.19,0.04,34.38,0.06,51.57,0.15c1.73,0.01,2.42-0.46,2.4-2.3
		c-0.09-6.47-0.09-12.93,0-19.4c0.02-1.84-0.67-2.3-2.4-2.3c-17.19,0.09-34.38,0.11-51.57,0.15c-5.21-0.04-10.43-0.03-15.64-0.14
		c-1.73-0.04-2.42,0.52-2.4,2.32c0.08,6.44,0.08,12.89,0,19.33c-0.02,1.8,0.67,2.36,2.4,2.32
		C227.6,363.17,232.82,363.18,238.03,363.14z M272.47,159.63c4.47,0.04,8.94,0.19,13.4,0.08c3.52-0.08,5.98-2.59,6.07-5.79
		c0.09-3.37-2.41-5.9-6.12-6.12c-1.48-0.09-2.98-0.01-4.47-0.03c-4.72-0.06-6.26-1.3-7.48-6.01c0.63-3.88,2.82-5.97,6.86-5.96
		c1.25,0,2.49-0.07,3.74-0.12c4.6,0.08,7.36-2.01,7.48-5.68c0.12-3.82-2.72-6.12-7.48-6.05c-19.1-0.05-38.2-0.12-57.31-0.15
		c-4.39-0.01-7.1,2.32-7.16,5.92c-0.07,3.75,2.69,6.09,7.34,6.11c7.12,0.02,14.23-0.05,21.35-0.02c4.62,0.02,7.4,2.42,7.28,6.16
		c-0.12,3.6-2.8,5.78-7.27,5.79c-7.37,0.02-14.73-0.05-22.1-0.01c-3.96,0.03-6.65,2.6-6.59,6.1c0.05,3.39,2.61,5.89,6.4,5.89
		C241.76,159.77,257.12,159.68,272.47,159.63z M390.22,350.59c0.25-0.25,0.5-0.5,0.75-0.76c0.7-1.3,1.52-2.56,2.09-3.92
		c6.94-16.53,8.32-33.63,5.4-51.21c-4.86-29.25-18.38-53.73-41.9-71.79c-18.96-14.55-39.03-27.66-58.61-41.4
		c-3.55-2.53-7.16-4.99-10.64-7.62c-2.09-1.59-4.26-2.23-6.9-2.21c-16.47,0.1-32.94,0.07-49.41,0.02c-2.09-0.01-3.82,0.49-5.55,1.7
		c-20.71,14.54-41.46,29.02-62.18,43.55c-0.91,0.64-2.35,0.92-2.49,2.52c8.56,0,17.03,0,25.49,0c4.75,0.05,9.49,0.09,14.24,0.14
		c5.45,0.05,7.49,2.03,7.51,7.43c0.03,7.98,0.19,15.97-0.07,23.94c-0.12,3.54,0.82,4.65,4.51,4.63c25.86-0.16,51.72-0.09,77.58-0.08
		c5.98,0,7.93,1.9,7.94,7.74c0.02,10.85-0.08,21.7,0.06,32.55c0.04,3.35-1.06,5.79-3.91,7.48c-2.19,0.05-2.15,1.58-2.15,3.15
		c0.02,5.61,0.21,11.23-0.07,16.83c-0.17,3.41,1.07,4.24,4.28,4.14c5.94-0.18,7.77,1.83,7.78,7.8c0.01,10.22,0,20.45,0,30.67
		c0,7.89-1.04,9.02-8.95,9.31c-1.87,0.07-3.1,0.33-3.07,2.64c0.09,6.23,0.07,12.47,0.01,18.7c-0.02,1.93,0.76,2.67,2.67,2.64
		c10.22-0.19,20.5,0.73,30.65-0.89c25.49-4.06,45.55-16.85,60.11-38.12c2.01-2.94,4.4-5.79,4.85-9.56L390.22,350.59z"/>
	<path class="st1" d="M297.95,181.51c19.58,13.75,39.66,26.85,58.61,41.4c23.52,18.06,37.04,42.54,41.9,71.79
		c2.92,17.59,1.54,34.69-5.4,51.21c-0.57,1.36-1.39,2.62-2.09,3.92c-0.25,0.25-0.5,0.5-0.75,0.76c0,0,0.02,0.02,0.02,0.02
		c-5.31,1.72-10.62,3.44-15.93,5.16c0.73-1.29,1.43-2.6,2.2-3.87c10.35-17,13.52-35.34,10.16-54.85c-0.67-3.89-3.51-6.03-6.68-5.55
		c-3.43,0.52-5.44,3.51-4.98,7.46c0.87,7.42,1.4,14.83,0.2,22.29c-2.33,14.49-8.46,26.93-19.49,36.81
		c-10.99-0.46-21.14-3.81-29.88-10.28c-15.32-11.34-25.34-26.68-31.73-44.49c2.85-1.69,3.95-4.13,3.91-7.48
		c-0.14-10.85-0.04-21.7-0.06-32.55c-0.01-5.84-1.96-7.74-7.94-7.74c-25.86-0.01-51.72-0.08-77.58,0.08
		c-3.69,0.02-4.62-1.09-4.51-4.63c0.26-7.97,0.1-15.96,0.07-23.94c-0.02-5.39-2.06-7.37-7.51-7.43c-4.75-0.05-9.49-0.09-14.24-0.14
		c3.09-2.96,7.03-4.67,10.51-7.07c18.43-12.68,38.54-21.26,60.64-25.2c2.6-0.46,4.49-0.1,6.61,1.25
		c14.28,9.12,28.13,18.84,41.47,29.29c3.38,2.65,7.08,2.42,9.26-0.45c2.2-2.9,1.36-6.41-1.95-9.03
		c-9.58-7.56-19.46-14.71-29.61-21.48c-0.78-0.52-2.1-0.87-1.68-2.09c0.28-0.8,1.42-0.91,2.31-0.96c1-0.05,2.06,0.17,2.99-0.09
		C290.46,182.63,294.58,183.99,297.95,181.51z M352.19,321.37c-6.64-0.12-12.03,4.97-12.23,11.53c-0.21,6.75,5.02,12.28,11.74,12.4
		c6.64,0.12,12.03-4.97,12.23-11.53C364.14,327.01,358.9,321.48,352.19,321.37z M380.41,274.7c-0.01-0.04-0.12-1.18-0.56-2.17
		c-3.06-6.94-6.61-13.63-11.06-19.8c-2.45-3.4-5.75-4.1-8.68-2.01c-3.06,2.19-3.59,5.21-1.2,8.78c3.05,4.55,5.89,9.19,8.25,14.13
		c0.96,2.01,1.9,4.06,3.15,5.88c1.61,2.34,4.12,2.86,6.64,1.82C379.25,280.37,380.71,278.51,380.41,274.7z M359.43,299.8
		c0.06-5.46-4.14-9.79-9.57-9.86c-5.31-0.07-9.77,4.04-9.91,9.14c-0.16,5.67,4.05,10.19,9.59,10.3
		C354.95,309.48,359.38,305.19,359.43,299.8z"/>
	<path class="st2" d="M294.11,303.29c6.39,17.81,16.41,33.15,31.73,44.49c8.75,6.47,18.89,9.83,29.88,10.28
		c-4.56,4.92-10.26,8.2-16.17,11.18c-4.37,2.2-9.11,3.32-13.71,4.86c-2.97,1-4.5,4.19-3.76,6.88c0.74,2.69,4.27,5.09,6.96,4.43
		c11.54-2.79,22-7.76,31.37-15.16c5.34-4.22,9.34-9.59,13.89-14.49c5.31-1.72,10.62-3.44,15.93-5.16c-0.45,3.77-2.84,6.63-4.85,9.56
		c-14.55,21.27-34.61,34.05-60.11,38.12c-10.15,1.62-20.43,0.7-30.65,0.89c-1.91,0.04-2.69-0.71-2.67-2.64
		c0.06-6.23,0.08-12.47-0.01-18.7c-0.03-2.3,1.19-2.57,3.07-2.64c7.91-0.29,8.95-1.42,8.95-9.31c0-10.22,0.01-20.45,0-30.67
		c-0.01-5.98-1.84-7.98-7.78-7.8c-3.21,0.1-4.45-0.73-4.28-4.14c0.28-5.6,0.09-11.22,0.07-16.83
		C291.96,304.87,291.92,303.35,294.11,303.29z"/>
	<path class="st3" d="M297.95,181.51c-3.37,2.48-7.49,1.12-11.15,2.14c-0.93,0.26-1.99,0.04-2.99,0.09
		c-0.89,0.04-2.03,0.16-2.31,0.96c-0.43,1.22,0.89,1.57,1.68,2.09c10.16,6.77,20.03,13.92,29.61,21.48
		c3.31,2.61,4.15,6.13,1.95,9.03c-2.18,2.87-5.87,3.1-9.26,0.45c-13.34-10.45-27.19-20.17-41.47-29.29
		c-2.12-1.35-4.01-1.71-6.61-1.25c-22.1,3.94-42.21,12.52-60.64,25.2c-3.48,2.39-7.41,4.11-10.51,7.07c-8.47,0-16.94,0-25.49,0
		c0.14-1.6,1.58-1.88,2.49-2.52c20.71-14.53,41.47-29.01,62.18-43.55c1.73-1.21,3.46-1.71,5.55-1.7
		c16.47,0.05,32.94,0.08,49.41-0.02c2.65-0.02,4.82,0.63,6.9,2.21C290.79,176.52,294.4,178.98,297.95,181.51z"/>
	<path class="st4" d="M284.47,135.69c-1.25,0.04-2.49,0.12-3.74,0.12c-4.04-0.01-6.22,2.08-6.86,5.96c-2.63,0-5.26,0-8.64,0
		c8.37,4.64,10.44,10.23,7.24,17.87c-15.36,0.05-30.71,0.13-46.07,0.13c-3.8,0-6.35-2.5-6.4-5.89c-0.05-3.5,2.63-6.07,6.59-6.1
		c7.37-0.05,14.73,0.03,22.1,0.01c4.47-0.01,7.15-2.19,7.27-5.79c0.12-3.74-2.66-6.14-7.28-6.16c-7.12-0.03-14.23,0.04-21.35,0.02
		c-4.65-0.02-7.4-2.35-7.34-6.11c0.06-3.6,2.78-5.92,7.16-5.92c19.1,0.02,38.2,0.09,57.31,0.15
		C286.52,127.87,286.52,131.78,284.47,135.69z"/>
	<path class="st5" d="M238.03,339.44c17.19-0.04,34.38-0.06,51.57-0.15c1.73-0.01,2.42,0.46,2.4,2.3c-0.09,6.47-0.09,12.93,0,19.4
		c0.02,1.83-0.67,2.3-2.4,2.3c-17.19-0.09-34.38-0.11-51.57-0.15C238.03,355.24,238.03,347.34,238.03,339.44z"/>
	<path class="st6" d="M226.03,303.53c17.2-0.04,34.4-0.06,51.6-0.15c1.74-0.01,2.4,0.46,2.37,2.29c-0.09,6.47-0.09,12.94,0,19.41
		c0.03,1.83-0.63,2.3-2.37,2.29c-17.2-0.09-34.4-0.11-51.6-0.15C226.03,319.33,226.03,311.43,226.03,303.53z"/>
	<path class="st5" d="M238.03,267.61c15.19-0.04,30.39-0.06,45.58-0.15c1.73-0.01,2.42,0.47,2.39,2.3c-0.09,6.46-0.09,12.93,0,19.39
		c0.02,1.83-0.67,2.31-2.39,2.3c-15.19-0.09-30.39-0.11-45.58-0.15C238.03,283.41,238.03,275.51,238.03,267.61z"/>
	<path class="st2" d="M236.57,111.79c-4.83,0.79-8.06-0.68-11.08-5.05c-10.89-15.79-24.92-28.63-40.05-40.31
		c-3.53-2.72-3.53-2.95,0.6-4.93c7.97-3.81,16.44-4.63,25.14-4.28c2.05,0.08,2.71,1.37,3.41,2.89c4.37,9.5,8.23,19.2,11.23,29.22
		c1.15,3.85,3.49,5.89,7.51,5.98c0.49,1.9,1.07,3.78,1.45,5.7C235.5,104.57,237.04,108.02,236.57,111.79z"/>
	<path class="st2" d="M278.64,95.31c4.01-0.11,6.37-2.12,7.52-5.97c2.98-10.02,6.85-19.72,11.22-29.21c0.7-1.51,1.34-2.83,3.4-2.91
		c8.69-0.35,17.17,0.45,25.14,4.26c4.16,1.99,4.17,2.23,0.65,4.92c-7.91,6.05-15.34,12.64-22.46,19.59
		c-6.6,6.44-12.86,13.26-17.81,20.99c-2.84,4.44-6.17,5.53-10.82,4.8C275.85,106.16,277.52,100.79,278.64,95.31z"/>
	<path class="st6" d="M238.03,375.36c13.21-0.04,26.41-0.05,39.62-0.15c1.75-0.01,2.39,0.48,2.37,2.3c-0.09,6.47-0.09,12.94,0,19.4
		c0.03,1.82-0.62,2.31-2.37,2.3c-13.21-0.1-26.41-0.11-39.62-0.15C238.03,391.15,238.03,383.25,238.03,375.36z"/>
	<path class="st6" d="M82.06,399.05c-13.21,0.04-26.41,0.05-39.62,0.15c-1.75,0.01-2.39-0.48-2.37-2.3c0.09-6.47,0.09-12.94,0-19.4
		c-0.03-1.82,0.62-2.31,2.37-2.3c13.21,0.1,26.41,0.11,39.62,0.15C82.06,383.25,82.06,391.15,82.06,399.05z"/>
	<path class="st1" d="M236.57,111.79c0.47-3.77-1.07-7.21-1.78-10.79c-0.38-1.92-0.96-3.8-1.45-5.7c4.85-3.22,5.41-4.6,3.75-10.25
		c-3.9-13.28-9.66-25.81-15.58-38.27c5.58,0.11,10.26,2.43,14.51,5.87c5.53,4.47,10.3,10.15,17.87,11.46
		c-3.09,1.71-3.99,4.36-3.95,7.8c0.13,12.07-0.03,24.14,0.11,36.21c0.03,2.9-0.74,4.05-3.77,3.81
		C243.07,111.66,239.81,111.81,236.57,111.79z"/>
	<path class="st1" d="M278.64,95.31c-1.12,5.48-2.79,10.85-3.17,16.47c-3.37,0.03-6.74-0.07-10.1,0.13
		c-2.61,0.16-3.45-0.76-3.43-3.39c0.11-12.2-0.03-24.41,0.1-36.62c0.04-3.44-0.86-6.1-3.95-7.81c3.88-0.99,7.55-2.46,10.66-5.04
		c2.28-1.89,4.44-3.94,6.69-5.87c4.33-3.71,9.14-6.35,15.04-6.42c-5.45,11.44-10.79,22.93-14.56,35.07
		c-0.33,1.07-0.72,2.12-1.02,3.2C273.29,90.71,273.79,92.05,278.64,95.31z"/>
	<path class="st6" d="M70.07,327.22c-9.21,0.04-18.42,0.04-27.63,0.15c-1.76,0.02-2.38-0.5-2.36-2.31c0.09-6.46,0.09-12.93,0-19.39
		c-0.03-1.81,0.6-2.33,2.36-2.31c9.21,0.11,18.42,0.11,27.63,0.15C70.07,311.43,70.07,319.33,70.07,327.22z"/>
	<path class="st6" d="M142.06,291.31c-9.22,0.04-18.44,0.05-27.65,0.15c-1.75,0.02-2.39-0.48-2.37-2.3c0.09-6.47,0.09-12.94,0-19.4
		c-0.03-1.82,0.62-2.32,2.37-2.3c9.22,0.11,18.44,0.11,27.65,0.15C142.06,275.51,142.06,283.41,142.06,291.31z"/>
	<path class="st6" d="M178.03,339.44c9.22-0.04,18.44-0.05,27.65-0.15c1.75-0.02,2.39,0.48,2.37,2.3c-0.09,6.47-0.09,12.94,0,19.4
		c0.03,1.82-0.62,2.32-2.37,2.3c-9.22-0.11-18.44-0.11-27.65-0.15C178.03,355.24,178.03,347.34,178.03,339.44z"/>
	<path class="st5" d="M82.06,363.14c-9.2,0.04-18.41,0.05-27.61,0.15c-1.74,0.02-2.4-0.5-2.38-2.31c0.09-6.46,0.09-12.91,0-19.37
		c-0.02-1.81,0.63-2.33,2.38-2.31c9.2,0.1,18.41,0.11,27.61,0.15C82.06,347.34,82.06,355.24,82.06,363.14z"/>
	<path class="st5" d="M130.07,255.4c-9.21,0.04-18.42,0.05-27.63,0.15c-1.73,0.02-2.41-0.48-2.39-2.3c0.09-6.46,0.09-12.93,0-19.39
		c-0.02-1.82,0.66-2.32,2.39-2.3c9.21,0.1,18.42,0.11,27.63,0.15C130.07,239.6,130.07,247.5,130.07,255.4z"/>
	<path class="st3" d="M290.48,46.78c-5.9,0.07-10.71,2.71-15.04,6.42c-2.25,1.93-4.41,3.98-6.69,5.87
		c-3.11,2.58-6.78,4.05-10.66,5.04c-1.4,0-2.8,0-4.2,0c-7.57-1.3-12.34-6.98-17.87-11.46c-4.25-3.43-8.93-5.75-14.51-5.87
		c-1.22-1.94-3.83-4.31-2.48-6.05c1.34-1.74,4.64-0.69,7.08-0.22c4.29,0.83,7.84,3.16,11.32,5.59c7.46,5.21,15.48,7.94,24.68,5.88
		c4.85-1.09,9.06-3.48,13.06-6.29c4.47-3.13,9.16-5.57,14.79-5.62c4.06-0.03,4.24,0.25,2.29,3.87
		C291.71,44.91,291.07,45.83,290.48,46.78z"/>
	<ellipse class="st5" cx="148.05" cy="387.2" rx="16.98" ry="16.75"/>
	<path class="st6" d="M136.06,363.14c-7.22,0.04-14.44,0.04-21.66,0.15c-1.75,0.03-2.39-0.49-2.36-2.3c0.09-6.46,0.09-12.93,0-19.39
		c-0.03-1.81,0.61-2.33,2.36-2.3c7.22,0.12,14.44,0.11,21.66,0.15C136.06,347.34,136.06,355.24,136.06,363.14z"/>
	<path class="st6" d="M184.03,267.62c7.22-0.04,14.44-0.04,21.66-0.15c1.75-0.03,2.39,0.49,2.36,2.3c-0.09,6.46-0.09,12.93,0,19.39
		c0.03,1.81-0.61,2.33-2.36,2.3c-7.22-0.12-14.44-0.11-21.66-0.15C184.03,283.41,184.03,275.51,184.03,267.62z"/>
	<path class="st5" d="M172.03,231.7c7.22-0.04,14.43-0.04,21.65-0.15c1.74-0.03,2.41,0.49,2.38,2.31c-0.09,6.46-0.09,12.92,0,19.38
		c0.02,1.82-0.64,2.33-2.38,2.31c-7.21-0.11-14.43-0.11-21.65-0.15C172.03,247.5,172.03,239.6,172.03,231.7z"/>
	<path class="st7" d="M238.03,339.44c0,7.9,0,15.8,0,23.7c-5.21,0.04-10.43,0.03-15.64,0.14c-1.73,0.04-2.42-0.52-2.4-2.32
		c0.08-6.44,0.08-12.89,0-19.33c-0.02-1.8,0.67-2.36,2.4-2.32C227.6,339.41,232.82,339.4,238.03,339.44z"/>
	<path class="st8" d="M82.06,399.05c0-7.9,0-15.8,0-23.7c5.22-0.04,10.44-0.03,15.66-0.15c1.74-0.04,2.41,0.51,2.38,2.31
		c-0.08,6.45-0.08,12.91,0,19.36c0.02,1.81-0.64,2.35-2.38,2.31C92.5,399.08,87.28,399.09,82.06,399.05z"/>
	<path class="st8" d="M238.03,375.36c0,7.9,0,15.8,0,23.7c-5.22,0.04-10.44,0.03-15.66,0.15c-1.74,0.04-2.41-0.51-2.38-2.31
		c0.08-6.45,0.08-12.91,0-19.36c-0.02-1.81,0.64-2.35,2.38-2.31C227.59,375.33,232.81,375.32,238.03,375.36z"/>
	<path class="st7" d="M82.06,363.14c0-7.9,0-15.8,0-23.7c5.21-0.04,10.43-0.03,15.64-0.14c1.73-0.04,2.42,0.52,2.4,2.32
		c-0.08,6.44-0.08,12.89,0,19.33c0.02,1.8-0.67,2.36-2.4,2.32C92.49,363.17,87.27,363.18,82.06,363.14z"/>
	<path class="st9" d="M172.03,231.7c0,7.9,0,15.8,0,23.69c-5.99,0-11.98,0-17.97,0c0-7.9,0-15.79,0-23.69
		C160.05,231.7,166.04,231.7,172.03,231.7z"/>
	<path class="st5" d="M82.06,291.31c-5.21,0.04-10.43,0.03-15.64,0.15c-1.77,0.04-2.37-0.55-2.35-2.33c0.08-6.44,0.08-12.89,0-19.34
		c-0.02-1.78,0.58-2.37,2.35-2.33c5.21,0.12,10.43,0.11,15.64,0.15C82.06,275.51,82.06,283.41,82.06,291.31z"/>
	<path class="st7" d="M82.06,291.31c0-7.9,0-15.8,0-23.7c5.21-0.04,10.43-0.03,15.64-0.14c1.73-0.04,2.42,0.52,2.4,2.32
		c-0.08,6.44-0.08,12.89,0,19.33c0.02,1.8-0.67,2.36-2.4,2.32C92.49,291.35,87.27,291.35,82.06,291.31z"/>
	<path class="st10" d="M142.06,291.31c0-7.9,0-15.79,0-23.69c5.99,0,11.98,0,17.98,0c0,7.9,0,15.79,0,23.69
		C154.05,291.31,148.05,291.31,142.06,291.31z"/>
	<path class="st7" d="M238.03,267.61c0,7.9,0,15.8,0,23.7c-5.21,0.04-10.43,0.03-15.64,0.14c-1.73,0.04-2.42-0.52-2.4-2.32
		c0.08-6.44,0.08-12.89,0-19.33c-0.02-1.8,0.67-2.36,2.4-2.32C227.6,267.58,232.82,267.58,238.03,267.61z"/>
	<path class="st8" d="M70.07,327.22c0-7.9,0-15.8,0-23.7c5.22-0.04,10.44-0.03,15.66-0.15c1.74-0.04,2.41,0.51,2.38,2.31
		c-0.08,6.45-0.08,12.91,0,19.36c0.02,1.81-0.64,2.35-2.38,2.31C80.51,327.25,75.29,327.26,70.07,327.22z"/>
	<path class="st5" d="M118.08,327.22c-5.22,0.04-10.44,0.03-15.66,0.15c-1.75,0.04-2.39-0.51-2.37-2.32
		c0.08-6.45,0.08-12.91,0-19.36c-0.02-1.8,0.62-2.36,2.37-2.32c5.22,0.12,10.44,0.11,15.66,0.15
		C118.08,311.43,118.08,319.33,118.08,327.22z"/>
	<path class="st9" d="M118.08,327.22c0-7.9,0-15.8,0-23.69c5.99,0,11.98,0,17.97,0c0,7.9,0,15.79,0,23.69
		C130.06,327.22,124.07,327.22,118.08,327.22z"/>
	<path class="st8" d="M226.03,303.53c0,7.9,0,15.8,0,23.7c-5.22,0.04-10.44,0.03-15.66,0.15c-1.74,0.04-2.41-0.51-2.38-2.31
		c0.08-6.45,0.08-12.91,0-19.36c-0.02-1.81,0.64-2.35,2.38-2.31C215.59,303.5,220.81,303.49,226.03,303.53z"/>
	<path class="st10" d="M178.03,339.44c0,7.9,0,15.79,0,23.69c-5.99,0-11.98,0-17.98,0c0-7.9,0-15.79,0-23.69
		C166.04,339.44,172.04,339.44,178.03,339.44z"/>
	<ellipse class="st5" cx="178.04" cy="387.2" rx="8.5" ry="16.75"/>
	<path class="st9" d="M184.04,399.05c0-7.9,0-15.8,0-23.69c3.99,0,7.98,0,11.97,0c0,7.9,0,15.79,0,23.69
		C192.02,399.05,188.03,399.05,184.04,399.05z"/>
	<path class="st5" d="M196.01,399.05c0-7.9,0-15.79,0-23.69c3.83-0.13,8.68-1.59,11.2,0.47c2.43,1.98,0.62,6.97,0.77,10.64
		c0.14,3.47-0.05,6.94,0.06,10.41c0.06,1.79-0.58,2.4-2.35,2.33C202.47,399.06,199.24,399.09,196.01,399.05z"/>
	<ellipse class="st5" cx="166.04" cy="315.38" rx="8.5" ry="16.75"/>
	<path class="st9" d="M172.05,327.22c0-7.9,0-15.8,0-23.69c3.99,0,7.98,0,11.97,0c0,7.9,0,15.79,0,23.69
		C180.03,327.22,176.04,327.22,172.05,327.22z"/>
	<path class="st5" d="M184.02,327.22c0-7.9,0-15.79,0-23.69c3.83-0.13,8.68-1.59,11.2,0.47c2.43,1.98,0.62,6.97,0.77,10.64
		c0.14,3.47-0.05,6.94,0.06,10.41c0.06,1.79-0.58,2.4-2.35,2.33C190.48,327.23,187.25,327.26,184.02,327.22z"/>
	<path class="st5" d="M154.06,231.7c0,7.9,0,15.79,0,23.69c-4.01,0-8.01,0-12.02,0c0-7.9,0-15.8,0-23.69
		C146.05,231.7,150.05,231.7,154.06,231.7z"/>
	<path class="st9" d="M142.04,231.7c0,7.9,0,15.8,0,23.69c-3.99,0-7.98,0-11.97,0c0-7.9,0-15.8,0-23.69
		C134.06,231.7,138.05,231.7,142.04,231.7z"/>
	<path class="st5" d="M136.05,327.22c0-7.9,0-15.79,0-23.69c4.01,0,8.01,0,12.02,0c0,7.9,0,15.8,0,23.69
		C144.06,327.22,140.05,327.22,136.05,327.22z"/>
	<path class="st9" d="M148.06,327.22c0-7.9,0-15.8,0-23.69c3.99,0,7.98,0,11.97,0c0,7.9,0,15.8,0,23.69
		C156.04,327.22,152.05,327.22,148.06,327.22z"/>
	<path class="st10" d="M136.06,363.14c0-7.9,0-15.79,0-23.69c3.99,0,7.99,0,11.98,0c0,7.9,0,15.79,0,23.69
		C144.05,363.14,140.06,363.14,136.06,363.14z"/>
	<path class="st6" d="M148.05,363.14c0-7.9,0-15.79,0-23.69c4,0,8,0,12.01,0c0,7.9,0,15.79,0,23.69
		C156.05,363.14,152.05,363.14,148.05,363.14z"/>
	<path class="st10" d="M184.03,267.62c0,7.9,0,15.79,0,23.69c-3.99,0-7.99,0-11.98,0c0-7.9,0-15.79,0-23.69
		C176.04,267.62,180.03,267.62,184.03,267.62z"/>
	<path class="st6" d="M172.05,267.62c0,7.9,0,15.79,0,23.69c-4,0-8,0-12.01,0c0-7.9,0-15.79,0-23.69
		C164.04,267.62,168.04,267.62,172.05,267.62z"/>
	<path class="st5" d="M124.08,399.05c-3.83,0.13-8.68,1.59-11.2-0.47c-2.43-1.98-0.62-6.97-0.77-10.64
		c-0.14-3.47,0.05-6.94-0.06-10.41c-0.06-1.79,0.58-2.4,2.35-2.33c3.22,0.14,6.45,0.11,9.68,0.15
		C124.08,383.25,124.08,391.15,124.08,399.05z"/>
	<path class="st9" d="M124.08,399.05c0-7.9,0-15.8,0-23.69c3.99,0,7.98,0,11.97,0c0,7.9,0,15.8,0,23.69
		C132.06,399.05,128.07,399.05,124.08,399.05z"/>
	<path class="st9" d="M172.03,375.36c0,7.9,0,15.8,0,23.69c-3.99,0-7.98,0-11.97,0c0-7.9,0-15.8,0-23.69
		C164.05,375.36,168.04,375.36,172.03,375.36z"/>
	<path class="st11" d="M272.47,159.63c3.2-7.64,1.12-13.22-7.24-17.87c3.38,0,6.01,0,8.64,0c1.22,4.71,2.77,5.96,7.48,6.01
		c1.49,0.02,2.98-0.06,4.47,0.03c3.72,0.22,6.22,2.75,6.12,6.12c-0.09,3.2-2.55,5.7-6.07,5.79
		C281.41,159.82,276.94,159.67,272.47,159.63z"/>
	<path class="st11" d="M284.47,135.69c2.06-3.91,2.05-7.82,0-11.73c4.76-0.08,7.6,2.22,7.48,6.05
		C291.83,133.68,289.07,135.77,284.47,135.69z"/>
	<path class="st2" d="M390.22,350.59c0.25-0.25,0.5-0.5,0.75-0.76C390.72,350.08,390.47,350.34,390.22,350.59z"/>
	<path class="st12" d="M148.23,183.68c-3.62,0.11-5.96-2.48-6.2-6.88c-0.74-13.42-9.12-24.18-21.69-27.81
		c-2.65-0.77-5.36-1.09-8.11-1.23c-3.8-0.19-6.24-2.75-6.13-6.15c0.11-3.25,2.48-5.49,6.13-5.79c17.97-1.49,28.35-11.85,29.83-29.78
		c0.3-3.65,2.55-6.02,5.8-6.12c3.4-0.11,5.87,2.34,6.19,6.12c1.51,17.93,11.87,28.27,29.83,29.78c3.65,0.31,6.03,2.56,6.13,5.81
		c0.1,3.39-2.35,5.85-6.14,6.17c-18,1.5-28.3,11.79-29.82,29.78C153.74,181.19,151.48,183.57,148.23,183.68z M162.01,141.81
		c-0.57-0.49-0.9-0.83-1.28-1.09c-4.57-3.11-8.48-6.9-11.53-11.52c-0.99-1.51-1.6-1.02-2.38,0.15c-2.94,4.38-6.58,8.1-10.98,11.02
		c-1.65,1.1-1.63,1.76,0.01,2.85c4.3,2.84,7.88,6.45,10.75,10.73c1.03,1.53,1.69,1.84,2.84,0.09c2.9-4.41,6.64-8.02,11.01-10.98
		C160.94,142.72,161.37,142.33,162.01,141.81z"/>
	<path class="st13" d="M80.45,176.12c2.18,5.05,2.18,10.1,0,15.15c-2.83-1.84-5.73-2.49-8.43,0.08c-2.83,2.7-2.28,5.7-0.34,8.67
		c-5.06,2.18-10.12,2.17-15.18,0c1.94-2.97,2.49-5.98-0.34-8.67c-2.69-2.56-5.6-1.93-8.43-0.08c-2.18-5.05-2.18-10.1,0-15.15
		c2.83,1.84,5.74,2.48,8.43-0.08c2.82-2.69,2.28-5.7,0.34-8.67c5.06-2.17,10.12-2.18,15.18,0c-1.86,2.82-2.48,5.73,0.08,8.41
		C74.46,178.6,77.47,178.05,80.45,176.12z"/>
	<path class="st13" d="M88.06,83.88c1.95,0.77,3.33,2.1,4.06,4.08c-5.51,3.99-5.5,7.92,0.02,11.9c-0.75,1.97-2.12,3.32-4.08,4.07
		c-4-5.51-7.93-5.51-11.93-0.01c-1.96-0.75-3.33-2.1-4.09-4.06c5.52-4.01,5.52-7.91,0-11.91c0.74-1.97,2.09-3.34,4.08-4.07
		C80.13,89.39,84.04,89.39,88.06,83.88z"/>
	<path class="st14" d="M71.68,200.02c-1.94-2.97-2.49-5.98,0.34-8.67c2.69-2.57,5.6-1.92,8.43-0.08c1.89,1.97,3.83,3.89,5.66,5.92
		c2.58,2.85,2.62,6.27,0.2,8.68c-2.42,2.42-5.84,2.38-8.69-0.2C75.59,203.84,73.66,201.9,71.68,200.02z"/>
	<path class="st14" d="M47.74,191.27c2.83-1.85,5.74-2.48,8.43,0.08c2.83,2.69,2.28,5.7,0.34,8.67c-1.97,1.89-3.9,3.82-5.93,5.65
		c-2.86,2.58-6.28,2.61-8.7,0.19c-2.43-2.42-2.38-5.83,0.2-8.67C43.92,195.17,45.85,193.24,47.74,191.27z"/>
	<path class="st14" d="M56.51,167.37c1.94,2.97,2.48,5.98-0.34,8.67c-2.69,2.56-5.6,1.92-8.43,0.08c-1.89-1.97-3.83-3.9-5.66-5.92
		c-2.59-2.85-2.63-6.25-0.2-8.67c2.43-2.42,5.82-2.39,8.69,0.2C52.61,163.54,54.54,165.48,56.51,167.37z"/>
	<path class="st14" d="M80.45,176.12c-2.98,1.93-6,2.48-8.69-0.34c-2.56-2.68-1.93-5.59-0.08-8.41c1.97-1.89,3.91-3.82,5.93-5.65
		c2.85-2.58,6.26-2.62,8.69-0.2c2.42,2.42,2.39,5.82-0.2,8.68C84.28,172.23,82.34,174.15,80.45,176.12z"/>
	<path class="st14" d="M88.06,83.88c-4.01,5.52-7.93,5.52-11.94,0.01c-0.01-2.61-0.12-5.22-0.01-7.82c0.15-3.56,2.53-5.98,5.78-6.08
		c3.39-0.11,6,2.38,6.17,6.08C88.18,78.66,88.07,81.27,88.06,83.88z"/>
	<path class="st14" d="M72.04,87.95c5.53,4,5.53,7.9,0,11.91c-2.61,0.01-5.23,0.12-7.84,0.01c-3.71-0.16-6.2-2.76-6.09-6.15
		c0.1-3.25,2.52-5.62,6.09-5.77C66.81,87.84,69.42,87.94,72.04,87.95z"/>
	<path class="st14" d="M92.13,99.86c-5.52-3.99-5.53-7.92-0.02-11.9c2.62-0.01,5.23-0.12,7.84-0.01c3.71,0.16,6.21,2.75,6.1,6.14
		c-0.1,3.24-2.53,5.63-6.09,5.79C97.36,99.99,94.75,99.87,92.13,99.86z"/>
	<path class="st14" d="M76.12,103.92c3.99-5.5,7.93-5.49,11.93,0.01c0.01,2.61,0.13,5.22,0.01,7.82c-0.17,3.7-2.79,6.19-6.17,6.08
		c-3.24-0.11-5.63-2.54-5.78-6.1C76,109.14,76.11,106.53,76.12,103.92z"/>
	<path class="st0" d="M374.31,355.78c-4.55,4.9-8.55,10.27-13.89,14.49c-9.37,7.4-19.83,12.37-31.37,15.16
		c-2.69,0.65-6.22-1.75-6.96-4.43c-0.74-2.7,0.8-5.89,3.76-6.88c4.6-1.54,9.35-2.67,13.71-4.86c5.91-2.97,11.61-6.26,16.17-11.18
		c11.03-9.88,17.16-22.32,19.49-36.81c1.2-7.46,0.67-14.87-0.2-22.29c-0.46-3.94,1.55-6.93,4.98-7.46c3.17-0.48,6.01,1.66,6.68,5.55
		c3.37,19.51,0.19,37.85-10.16,54.85C375.74,353.17,375.04,354.48,374.31,355.78z"/>
	<path class="st2" d="M352.19,321.37c6.72,0.12,11.95,5.65,11.74,12.4c-0.2,6.56-5.6,11.65-12.23,11.53
		c-6.72-0.12-11.95-5.65-11.74-12.4C340.16,326.33,345.55,321.25,352.19,321.37z"/>
	<path class="st0" d="M380.41,274.7c0.3,3.81-1.16,5.67-3.47,6.63c-2.52,1.05-5.02,0.52-6.64-1.82c-1.26-1.82-2.19-3.87-3.15-5.88
		c-2.36-4.94-5.2-9.58-8.25-14.13c-2.39-3.57-1.86-6.59,1.2-8.78c2.93-2.1,6.23-1.4,8.68,2.01c4.45,6.17,8,12.86,11.06,19.8
		C380.29,273.52,380.4,274.66,380.41,274.7z"/>
	<path class="st2" d="M359.43,299.8c-0.06,5.4-4.48,9.68-9.89,9.58c-5.54-0.11-9.75-4.62-9.59-10.3c0.14-5.1,4.6-9.21,9.91-9.14
		C355.29,290.01,359.49,294.34,359.43,299.8z"/>
	<path class="st13" d="M162.01,141.81c-0.64,0.51-1.07,0.91-1.55,1.23c-4.37,2.96-8.11,6.57-11.01,10.98
		c-1.15,1.75-1.82,1.44-2.84-0.09c-2.87-4.27-6.45-7.88-10.75-10.73c-1.64-1.08-1.66-1.75-0.01-2.85c4.4-2.92,8.04-6.64,10.98-11.02
		c0.78-1.17,1.39-1.65,2.38-0.15c3.05,4.62,6.95,8.4,11.53,11.52C161.11,140.99,161.44,141.32,162.01,141.81z"/>
</g>
</svg>
