<svg version="1.2" xmlns="http://www.w3.org/2000/svg" viewBox="0 0 223 283" width="223" height="283">
	<title>New Project</title>
	<style>
		.s0 { fill: #2ad4d8 } 
	</style>
	<path id="Layer" fill-rule="evenodd" class="s0" d="m201.8 108.9c0 0.2-0.1 0.4-0.3 0.4-0.1 0-3.4 0.6-6.4 3.3-0.9 0.8-1.7 1.8-2.5 2.7-1.8 2.2-3.7 4.5-7.2 4.5q-0.1 0-0.3 0c-2.4-0.1-4.3-0.8-5.9-1.3-1.6-0.6-3-1.1-4.6-1q-0.5 0.9-0.8 1.8-1.2 2-2.4 4c0.8-0.5 1.7-0.9 2.7-1.1q0 0 0 0 0 0 0-0.1c0-0.6 0.5-1.2 1.2-1.2 0.6 0 1.2 0.6 1.2 1.2 0 0.7-0.6 1.2-1.2 1.2-0.5 0-0.9-0.3-1.1-0.7q0 0 0 0c-1.3 0.3-2.5 0.9-3.4 1.7-1.7 2.5-3.5 5-5.4 7.3 2.2-0.9 4.6-1.4 7-1.5q0 0 0 0 0 0 0.1 0.1c0-0.8 0.6-1.3 1.4-1.3 0.7 0 1.4 0.6 1.4 1.4 0 0.8-0.7 1.4-1.4 1.4-0.7 0-1.3-0.5-1.4-1.2q-0.1 0-0.1 0c-2.6 0.1-5.3 0.7-7.7 1.8q-1.1 1.3-2.3 2.5-1.4 1.3-2.8 2.5c1.3-0.5 2.8-0.8 4.5-0.9 2.8-1.7 7.9-1.8 11.5-1.5 3.9 0.4 7.1 0.4 7.1 0.4 0.2 0 0.4 0.1 0.4 0.3 0.1 0.2 0 0.4-0.2 0.5 0 0-2.4 1.1-4.4 2.5-1.3 1-2.7 1.5-3.6 1.7 1 0.7 2 1.2 3.2 1.5 3.9 0.9 5.5 1.8 5.5 1.8 0.2 0.1 0.3 0.3 0.2 0.5 0 0.2-0.2 0.3-0.5 0.3-2.5-0.7-4.8-0.4-7.1 0-1.5 0.2-2.9 0.4-4.5 0.4q-0.7 0-1.4-0.1c-3.2-0.2-4.7-1.2-6.1-2.1-0.9-0.5-1.7-1-2.8-1.4-3-1-5.9-0.4-6-0.4q0 0 0 0-2.6 2.1-5.4 3.8 3.7-0.2 7.4 0.4c0.2-0.4 0.6-0.7 1-0.7 0.7 0 1.2 0.5 1.2 1.1 0 0.6-0.5 1.1-1.2 1.1-0.6 0-1.1-0.5-1.1-1.1q0 0 0 0c-2.6-0.4-5.3-0.5-8-0.3q-0.9 0.5-1.7 1-1.7 1-3.3 1.9 0.3-0.1 0.6-0.1c3.5-0.3 6.3 0.5 7.6 1.2 1.7 0.9 2.6 2 3.8 3.4l0.1 0.2c1.5 1.7 2.7 2.7 2.8 2.7 0.1 0.1 0.2 0.3 0.1 0.5-0.1 0.2-0.2 0.2-0.4 0.2q-0.1 0-0.1 0c-0.9-0.2-2.2-0.3-3.5-0.3-2.2 0-4.6 0-6.8-1.1-2.3-1.1-3.2-2-3.9-2.8-0.4-0.5-0.8-0.9-1.5-1.3-1-0.6-1.9-0.8-2.4-0.8q-4.3 2-8.4 3.6c1.5 0 3.1 0.3 4.6 0.8 0 0 0.3 0.2 0.4 0.2 0.2-0.4 0.6-0.7 1.1-0.7 0.7 0 1.2 0.6 1.2 1.2 0 0.7-0.5 1.2-1.2 1.2-0.6 0-1.2-0.5-1.2-1.2q0 0 0.1-0.1-0.1 0-0.1 0c-1.9-0.8-4-1.1-6.1-1q-2.7 1-5.3 1.8c1.3 0 2.7 0 5 1 2.3 1.1 3.3 2.5 4.4 3.8 0.6 0.8 1.2 1.6 2 2.2 0.1 0.2 0.2 0.3 0.1 0.5 0 0.2-0.2 0.3-0.4 0.3-0.2 0-5.9-0.1-9.4-2.6-2.6-1.9-3.9-3.6-4.4-4.4q-3.2 1-6.2 1.7-1.7 0.4-3.3 0.8 2.3 0.5 4.4 1.1c3.8 1.1 7.1 2.2 9.7 3.2 2.7 1 4.7 2 6 2.7 1.4 0.8 2 1.4 2.1 1.4 0.2 0.2 0.2 0.6 0 0.9-0.2 0.2-0.6 0.2-0.9 0 0 0-0.6-0.5-1.8-1.2-1.3-0.7-3.2-1.6-5.8-2.6-2.6-1.1-5.8-2.1-9.6-3.2-2.1-0.6-4.4-1.1-6.8-1.7-2.4 0.6-4.6 1.1-6.7 1.7-3.8 1.1-7 2.1-9.6 3.2-2.6 1-4.5 1.9-5.8 2.6-1.3 0.7-1.9 1.2-1.8 1.2-0.3 0.2-0.7 0.2-0.9 0-0.2-0.3-0.2-0.7 0-0.9 0.1 0 0.7-0.6 2.1-1.4 1.3-0.7 3.3-1.7 6-2.7 2.6-1 5.9-2.1 9.6-3.2q2.1-0.6 4.5-1.1-1.6-0.4-3.3-0.8-3-0.7-6.2-1.7c-0.5 0.8-1.8 2.5-4.4 4.4-3.5 2.5-9.2 2.6-9.5 2.6-0.1 0-0.3-0.1-0.3-0.3-0.1-0.2-0.1-0.3 0.1-0.5 0.8-0.6 1.4-1.4 2-2.2 1.1-1.3 2.1-2.7 4.4-3.8 2.3-1 3.6-1 5-1q-2.6-0.8-5.3-1.8c-2.1-0.1-4.2 0.2-6.1 1q0 0-0.1 0 0 0.1 0.1 0.1c0 0.7-0.6 1.2-1.2 1.2-0.7 0-1.2-0.5-1.2-1.2 0-0.6 0.5-1.2 1.2-1.2 0.4 0 0.9 0.3 1 0.7 0.2 0 0.5-0.2 0.5-0.2 1.5-0.5 3-0.8 4.6-0.8q-4.2-1.6-8.4-3.6c-0.5 0-1.4 0.2-2.5 0.8-0.6 0.4-1 0.8-1.4 1.3-0.7 0.8-1.6 1.7-3.9 2.8-2.2 1-4.7 1.1-6.8 1.1-1.3 0-2.6 0.1-3.5 0.3q-0.1 0-0.1 0c-0.2 0-0.3 0-0.4-0.2-0.1-0.2 0-0.4 0.1-0.5 0 0 1.3-1 2.7-2.7l0.2-0.2c1.2-1.4 2.1-2.5 3.8-3.4 1.3-0.7 4.1-1.5 7.6-1.2q0.3 0 0.6 0.1-1.7-0.9-3.3-1.9-0.9-0.5-1.7-1c-2.7-0.2-5.4-0.1-8.1 0.3q0 0 0 0c0 0.6-0.5 1.1-1.1 1.1-0.6 0-1.1-0.5-1.1-1.1 0-0.6 0.5-1.1 1.1-1.1 0.5 0 0.9 0.3 1.1 0.7q3.6-0.6 7.4-0.4-2.8-1.7-5.4-3.8 0 0-0.1 0c0 0-2.9-0.6-5.9 0.4-1.1 0.4-1.9 0.9-2.8 1.4-1.4 0.9-2.9 1.9-6.1 2.1q-0.7 0.1-1.4 0.1c-1.6 0-3-0.2-4.5-0.4-2.4-0.4-4.6-0.7-7.2 0-0.2 0-0.4-0.1-0.4-0.3-0.1-0.2 0-0.4 0.1-0.5 0.1 0 1.7-0.9 5.6-1.8 1.1-0.3 2.1-0.8 3.2-1.5-1-0.2-2.3-0.7-3.6-1.7-2-1.4-4.4-2.5-4.4-2.5-0.2-0.1-0.3-0.3-0.3-0.5 0.1-0.2 0.3-0.3 0.5-0.3 0 0 3.1 0 7.1-0.4 3.6-0.3 8.7-0.2 11.5 1.5 1.7 0.1 3.2 0.4 4.5 0.9q-1.4-1.2-2.8-2.5-1.2-1.2-2.3-2.5c-2.4-1.1-5.1-1.7-7.7-1.8q-0.1 0-0.1 0c-0.1 0.7-0.7 1.2-1.4 1.2-0.8 0-1.4-0.6-1.4-1.4 0-0.8 0.6-1.4 1.4-1.4 0.8 0 1.4 0.5 1.4 1.3q0.1-0.1 0.1-0.1c2.4 0.1 4.8 0.6 7 1.5-1.9-2.3-3.7-4.8-5.4-7.3-1-0.8-2.1-1.4-3.4-1.7q0 0 0 0c-0.2 0.4-0.6 0.7-1.1 0.7-0.6 0-1.2-0.5-1.2-1.2 0-0.6 0.6-1.2 1.2-1.2 0.7 0 1.2 0.6 1.2 1.2q0 0.1 0 0.1 0 0 0 0c1 0.2 1.9 0.6 2.7 1.1q-1.2-2-2.4-4-0.4-0.9-0.8-1.8c-1.7-0.1-3 0.4-4.6 1-1.7 0.5-3.5 1.2-5.9 1.3q-0.2 0-0.3 0c-3.5 0-5.4-2.3-7.2-4.5-0.8-0.9-1.6-1.9-2.5-2.7-3-2.7-6.4-3.3-6.4-3.3-0.2 0-0.4-0.2-0.3-0.4 0-0.2 0.2-0.4 0.4-0.4 4 0 7.2 0.6 8.8 1-1.9-2.3-3.4-5.3-4.9-8.3-1.3-2.7-2.6-5.3-4.2-7.2-0.1-0.2-0.1-0.4 0-0.6 0.2-0.1 0.4-0.2 0.6-0.1 2.4 1.6 4.9 2.7 7.5 3.8 2.3 1 4.8 2 7.3 3.5 4.1 2.4 5.5 5 7.1 8 0.4 0.9 0.9 1.8 1.5 2.7 0.5 0.9 1 1.7 1.4 2.3-0.5-1.1-0.9-2.2-1.2-3.3-0.5-1.5-1.1-3.1-1.5-4.6l-0.3-1.6c-0.6-0.8-1.3-1.6-2.1-2.3-0.2 0.2-0.5 0.4-0.8 0.4-0.6 0-1.1-0.5-1.1-1.1 0-0.6 0.5-1.1 1.1-1.1 0.6 0 1.1 0.5 1.1 1.1q0 0.1-0.1 0.3 0.9 0.8 1.7 1.7l-0.5-2.1q-0.3-1.4-0.5-2.8c-1.3-2.6-3.1-5.1-5.4-7q0 0 0 0c-0.3 0.3-0.6 0.4-1 0.4-0.9 0-1.6-0.7-1.6-1.5 0-0.9 0.7-1.6 1.6-1.6 0.9 0 1.5 0.7 1.5 1.6 0 0.3-0.1 0.6-0.2 0.8q0 0 0 0c2 1.7 3.6 3.8 4.9 6-0.5-3.2-0.7-6.4-0.8-9.6q-0.1-0.1-0.2-0.2 0 0-0.2-0.6-0.4-0.9-0.9-1.7 0 0-0.1-0.1c-1.1-1.2-4-3-8.4-5.1-3-1.4-5.5-4.8-7.3-9.8-1.5-4.1-3.2-6.5-3.2-6.5-0.1-0.2-0.1-0.4 0.1-0.5 0.1-0.2 0.3-0.2 0.5-0.1 1.7 1 3.2 2.2 4.1 3-0.8-2.8-1.4-5.7-1.9-8.4-0.5-2.4-0.9-4.6-1.5-6.4 0-0.2 0.1-0.4 0.3-0.5 0.2-0.1 0.4 0 0.5 0.2 1 1.9 3.1 3.9 5.5 5.9-0.2-1.2-0.4-3.2-0.1-5.6 0.1-0.2 0.2-0.3 0.4-0.3 0.2 0 0.4 0.1 0.4 0.3 0 0 0.5 1.3 2.3 3.6l0.5 0.5c1.9 2.3 4.8 5.7 6.2 11.5 1.2 5.1 0.9 9 0.9 9.2q0 0.1 0 0.1 0 0.6 0 1.1l0.1 0.2c0.1 2.9 1.2 6.1 1.9 8.1q0-1.4 0-2.8c0.2-2.8 0.5-5.6 0.8-8.3-0.1-3.1-0.6-6.1-1.5-9q-0.2 0-0.3 0c-0.7 0-1.2-0.5-1.2-1.2 0-0.6 0.5-1.2 1.2-1.2 0.7 0 1.2 0.6 1.2 1.2 0 0.4-0.2 0.8-0.6 1q0 0 0.1 0 1.1 3.6 1.4 7.3c0.4-2.4 0.9-4.7 1.7-7q0.7-2.7 1.7-5.3c-0.1-3.5-0.6-7-1.5-10.4q0 0 0 0-0.1 0-0.3 0c-0.8 0-1.4-0.6-1.4-1.4 0-0.8 0.6-1.4 1.4-1.4 0.8 0 1.4 0.6 1.4 1.4 0 0.6-0.3 1-0.7 1.3q0 0 0 0c0.8 3.1 1.3 6.3 1.5 9.5q0.8-2.2 1.8-4.2c0.5-4.6-2.3-8.5-5.3-12.7l-0.6-0.7c-2.4-3.4-2.9-8.2-3.2-11.7-0.2-1.3-0.3-2.4-0.4-3.2-0.7-3.2-1.6-4.8-3.6-7.7-0.1-0.2-0.1-0.4 0-0.5 0.1-0.2 0.3-0.2 0.5-0.1 5 2.2 8.6 7.8 10 10.1 0.3-2.6 1.3-5.4 2.2-7.9 0.4-1.2 0.8-2.2 1.1-3.2 0.8-2.6 2.1-8.2 2.2-8.2 0-0.2 0.2-0.4 0.4-0.4 0.1 0 0.3 0.2 0.4 0.3 0 0.1 1.1 4.1 1.8 8.6l0.2 1.6c0.7 4.4 1.6 10.4 1 14.7-0.7 4.4-2.2 6.8-3.5 8.7-0.6 1-1.1 1.8-1.4 2.6-0.1 0.2-0.5 2-0.5 4.3-0.1 1 0 2 0 2.8 0.3-0.4 0.5-0.9 0.7-1.3 2.2-4 4.6-7.4 6.9-10.3 1-2.9 1.6-5.9 1.7-8.9-0.6-0.2-1.1-0.7-1.1-1.4 0-0.7 0.7-1.4 1.4-1.4 0.8 0 1.5 0.7 1.5 1.4 0 0.8-0.6 1.4-1.4 1.5q-0.2 4-1.4 7.9c2.1-2.5 4.1-4.6 5.8-6.3q0-0.1 0-0.1c2.2-3.3 3.9-6.9 5.2-10.6q0 0 0 0c-0.5-0.2-0.9-0.7-0.9-1.4 0-0.7 0.6-1.4 1.4-1.4 0.8 0 1.4 0.7 1.4 1.4 0 0.8-0.6 1.5-1.4 1.5q-0.1 0-0.1-0.1 0 0.1 0 0.1c-1.2 3.3-2.7 6.5-4.5 9.5 1.9-1.9 3.6-3.2 4.7-4.2q1.2-1 1.6-1.3c0.7-1 1.2-3 1.8-5.1 0.6-2.2 1.3-4.8 2.3-6.8 1.4-2.6 4-4.3 6.4-5.9 1.4-0.9 2.8-1.8 3.6-2.8 0.1-0.1 0.3-0.1 0.5-0.1 0.2 0.1 0.3 0.3 0.2 0.5 0 0.2-0.8 4.7-2.1 7.8 6.7-3.9 17.1-4.8 17.6-4.8 0.2 0 0.4 0.1 0.4 0.3 0.1 0.2-0.1 0.4-0.2 0.5-1.5 0.5-3.8 2.7-6.2 5-2.5 2.3-5.2 4.9-7.9 6.6-3.3 2.1-7.6 3.2-11.1 4-2.2 0.6-4.1 1.1-4.8 1.6q-0.1 0.1-0.2 0.1-0.4 0.3-1.3 1.1c-1.2 1-2.8 2.4-4.8 4.4-1.2 1.1-2.5 2.5-3.9 4 3.3-2.1 6.8-3.7 10.5-4.8 0.1 0 0.2 0.1 0.2 0.1q0 0 0-0.1c0-0.8 0.6-1.4 1.4-1.4 0.8 0 1.4 0.6 1.4 1.4 0 0.8-0.6 1.4-1.4 1.4-0.7 0-1.2-0.5-1.3-1.1q-0.1 0.1-0.2 0.1c-4.1 1.3-8 3.1-11.6 5.5-2.7 3.1-5.6 7-8.3 11.6 1.6-1 4.4-2.9 9-6.1 7.8-5.4 11.3-5.8 16.7-6.3l0.6-0.1c5.5-0.6 9.2-1.9 9.2-1.9 0.2 0 0.4 0.1 0.5 0.2 0.1 0.2 0 0.5-0.2 0.6-2.5 1.5-4.1 3.3-5.6 5-1.9 2.1-3.6 4-6.7 5.4-4.5 2-9 1.5-12.7 1.1-1-0.1-2-0.2-2.8-0.3q-0.2 0-0.3 0c-3.2 0-7.2 2.9-9.6 6q-1.2 2.4-2.3 5.1c2.4-2.1 5.1-4 8-5.4q0 0 0 0-0.1-0.2-0.1-0.4c0-0.9 0.7-1.6 1.6-1.6 0.8 0 1.5 0.7 1.5 1.6 0 0.8-0.7 1.5-1.5 1.5-0.6 0-1.1-0.3-1.3-0.7q0 0 0 0c-3.1 1.5-6 3.5-8.5 5.8q-1.2 3-2.1 6.2-0.4 1.2-0.6 2.4c1.5-1.4 3.6-2.8 4.8-3.4 0.4-0.7 2.5-4.6 7.8-6.3 2.7-0.9 5.2-0.9 7.7-0.9 2.7 0 5.5 0 8.6-1.1 0.1-0.1 0.3 0 0.4 0.1 0.1 0.1 0.2 0.3 0.1 0.4 0 0.1-0.9 2.7-5 4.5q0.1 0 0.2 0.1c0.8 0.2 1.6 0.4 2.5 0.6 3.9 0.7 7.1 0.6 7.2 0.5q0 0 0 0c0.2 0 0.4 0.2 0.4 0.4 0 0.2-0.1 0.4-0.3 0.5-1.6 0.5-3.1 1.4-4.6 2.3-2.4 1.5-5.2 3.3-9.6 3.6-4.6 0.4-8.2-1-10.9-2.1-1.4-0.5-2.6-1-3.4-1-2.3-0.1-5.2 2.5-6.6 4.9-0.7 3.7-1.1 7.6-1.3 11.5q0 1.9 0.1 3.9c0.5-2.5 1.5-4.8 2.8-7q0 0 0.1 0c-0.3-0.2-0.4-0.5-0.4-0.8 0-0.6 0.5-1.1 1.1-1.1 0.6 0 1.1 0.5 1.1 1.1 0 0.6-0.5 1.1-1.1 1.1q-0.2 0-0.4-0.1 0 0-0.1 0c-1.5 2.6-2.6 5.5-3.1 8.5 0.1 2.7 0.3 5.4 0.7 8.1 0.6-2.6 1.7-4.7 2.6-6.4l0.2-0.4c0.5-0.8 0.8-1.8 1.2-3 0.8-2.8 1.9-6.2 4.8-8.4 2.3-1.7 5.1-2.4 7.7-3.1 1.9-0.4 3.7-0.9 5.1-1.7 0.2-0.1 0.4 0 0.5 0.1 0.2 0.2 0.1 0.4 0 0.6 0 0-2.3 2.2-3.8 5.3q-0.4 0.8-0.7 1.6c-1.3 2.8-2.4 5.4-5.6 6.7-1.5 0.7-2.8 1.1-3.9 1.4-1.5 0.5-2.8 1-4.2 1.8-2.4 1.6-3.1 6.9-3.3 8.8q0.1 0.6 0.2 1.3l1 4.6c0.4 1.5 1 3 1.4 4.5 0.4 1.4 0.9 2.7 1.5 4-0.3-4.3 0-8.7 0.9-12.9q0 0 0 0c-0.4-0.2-0.7-0.6-0.7-1.1 0-0.7 0.5-1.2 1.2-1.2 0.7 0 1.2 0.5 1.2 1.2 0 0.6-0.5 1.2-1.2 1.2q0 0-0.1 0 0 0 0 0c-1 4.6-1.3 9.3-0.8 14q0.9 1.8 1.7 3.6 0.3 0.5 0.6 1c-0.1-0.8-0.2-1.8-0.2-2.8q-0.1-1.2 0-2.5 0 0 0-0.1 0 0 0-0.2 0-0.7 0-1.4c0-4.2 0-8.5 3.5-13.1 0.9-1.2 1.8-2.2 2.6-3.1 1.4-1.6 2.8-3.2 4-5.5 0.1-0.2 0.3-0.3 0.5-0.2 0.1 0 0.3 0.2 0.3 0.4-0.1 0.8-0.2 6.6-0.6 9.1q0.6-0.3 1.2-0.6c3-1.3 5.8-2.6 7.9-5.9 0.1-0.1 0.3-0.2 0.5-0.2 0.1 0.1 0.3 0.2 0.3 0.4 0 0.1 0.1 10.3-7.6 14.1-2.5 1.2-4.5 2.1-6.1 2.7-3.2 1.4-4.7 2-5.2 3.5-0.3 0.9-0.4 1.8-0.5 2.8 0.2 1.6 0.4 3.3 0.8 5q1.7 2.9 3.7 5.5c-0.7-3.8-0.7-6.9-0.2-9.9-0.4-0.1-0.7-0.5-0.7-1 0-0.6 0.5-1.1 1.1-1.1 0.6 0 1.1 0.5 1.1 1.1 0 0.6-0.5 1.1-1.1 1.1q0 0 0 0c-0.6 3.2-0.5 6.4 0.4 10.6q1.8 2.4 3.9 4.5c-0.3-1-0.6-2.3-0.8-3.9-0.6-5.4 1.3-8.4 2.6-10.5q0.4-0.7 0.7-1.3c0.4-0.8 0.5-1.6 0.7-2.4 0.2-1.3 0.5-2.7 1.7-3.9 0.1-0.1 0.3-0.1 0.5 0 0.1 0.1 0.2 0.2 0.2 0.4-0.4 1.6-0.1 4 0.1 6.3 0.2 2.2 0.4 4.2 0.2 5.6-0.4 2.6-1.6 4.2-2.6 5.5-0.7 0.9-1.3 1.7-1.5 2.6-0.4 2.2 1.3 4.5 1.3 4.6q0 0 0 0 3.3 3 6.9 5.6c-1.2-2.1-2.1-4.4-2.6-6.9q0 0 0 0c-0.6 0-1.1-0.5-1.1-1.2 0-0.6 0.5-1.2 1.2-1.2 0.6 0 1.2 0.6 1.2 1.2 0 0.6-0.4 1-0.9 1.1q0 0.1 0 0.1c0.5 2.7 1.6 5.3 3.2 7.6q2.2 1.5 4.4 2.8 0.1 0.1 0.1 0.1-0.3-0.6-0.6-1.2c-1.1-2.1-2.4-4.8-2.4-8.6 0-2.5 0.7-4.4 1.3-6.3 0.5-1.5 1-3 1-4.5 0-0.3 0.2-0.4 0.4-0.4 0.3 0 0.4 0.1 0.4 0.4 0 0 0.1 3 1.1 5.8 1 3 1.3 6.8 0.7 9.1l-0.2 1.1c-0.3 1.3-0.4 1.5-0.7 3-0.1 0.7 0.1 1.7 0.2 2.2q4.4 2.5 8.8 4.4c-1.4-1.5-2.6-3.2-3.6-5.1q0 0 0 0-0.1 0-0.3 0c-0.6 0-1.1-0.5-1.1-1.1 0-0.6 0.5-1.1 1.1-1.1 0.6 0 1.1 0.5 1.1 1.1 0 0.4-0.2 0.7-0.4 0.9q0 0 0 0c1.1 2.2 2.5 4.1 4.2 5.8q2.5 1 4.9 1.9-0.6-0.6-1.3-1.2c-1.3-1.1-2.8-2.4-3.7-4.4-1.8-3.6-1.6-8-1.2-12.1 0-0.2 0.2-0.4 0.4-0.4q0.3 0 0.4 0.3c0 0 0.9 2.9 2.2 4.8q0.4 0.6 0.8 1.1c0.6 0.7 1.1 1.4 1.5 2.3 0.2-1.5 0.7-3.7 2.1-6.1 0.1-0.2 0.4-0.2 0.6-0.2 0.1 0.1 0.2 0.3 0.2 0.5 0 0-0.3 1.3 0.3 4.9q0.1 0.9 0.3 1.8c0.3 1.6 0.6 3.3 0.6 5.1-0.1 2-0.5 3-0.9 3.9q-0.1 0.2-0.2 0.4c3.9 1.4 7.6 2.5 11.1 3.4-0.8-0.8-1.7-1.9-2.1-3.3-0.8-2.4-0.8-4.2-0.9-6.2 0-1-0.1-2.1-0.2-3.4-0.1-0.2 0.1-0.4 0.3-0.5 0.2 0 0.4 0.1 0.5 0.4 0.4 1.8 1.7 3.2 2.8 4.6 1 1.3 2.1 2.5 2.7 4 0.9 2.4 0.8 4.3 0.7 5.3q1.6 0.4 3 0.7 1.5-0.3 3.1-0.7c-0.1-1-0.2-2.9 0.7-5.3 0.6-1.5 1.7-2.7 2.7-4 1.1-1.4 2.3-2.8 2.8-4.6 0.1-0.3 0.3-0.4 0.5-0.3 0.2 0 0.3 0.2 0.3 0.4-0.2 1.3-0.2 2.4-0.2 3.4-0.1 2-0.1 3.8-0.9 6.2-0.5 1.4-1.3 2.5-2.2 3.3 3.6-0.9 7.3-2 11.1-3.4q0-0.2-0.1-0.4c-0.4-0.9-0.8-1.9-0.9-3.9 0-1.8 0.3-3.5 0.6-5.1q0.2-0.9 0.3-1.8c0.6-3.6 0.3-4.9 0.3-4.9-0.1-0.2 0-0.4 0.2-0.5 0.2 0 0.4 0 0.5 0.2 1.5 2.4 2 4.6 2.2 6.1 0.4-0.9 0.9-1.6 1.4-2.3q0.4-0.5 0.8-1.1c1.4-1.9 2.2-4.8 2.3-4.8q0-0.3 0.4-0.3c0.2 0 0.3 0.2 0.4 0.4 0.3 4.1 0.6 8.5-1.2 12.1-1 2-2.4 3.3-3.7 4.4q-0.7 0.6-1.3 1.2 2.4-0.9 4.8-1.9c1.8-1.7 3.2-3.6 4.3-5.8q0 0 0 0c-0.3-0.2-0.4-0.5-0.4-0.9 0-0.6 0.4-1.1 1.1-1.1 0.6 0 1.1 0.5 1.1 1.1 0 0.6-0.5 1.1-1.1 1.1q-0.2 0-0.4 0 0.1 0 0 0c-0.9 1.9-2.1 3.6-3.5 5.1q4.4-1.9 8.7-4.4c0.2-0.5 0.3-1.5 0.2-2.2-0.2-1.5-0.3-1.7-0.6-3l-0.3-1.1c-0.5-2.3-0.2-6.1 0.8-9.1 1-2.8 1-5.8 1-5.8 0-0.3 0.2-0.4 0.4-0.4 0.3 0 0.5 0.1 0.5 0.4 0 1.5 0.5 3 1 4.5 0.6 1.9 1.3 3.8 1.3 6.3 0 3.8-1.3 6.5-2.4 8.6q-0.4 0.6-0.6 1.2 0 0 0-0.1 2.3-1.3 4.5-2.8c1.6-2.3 2.7-4.9 3.2-7.6q0 0 0-0.1c-0.5-0.1-0.9-0.5-0.9-1.1 0-0.6 0.6-1.2 1.2-1.2 0.7 0 1.2 0.6 1.2 1.2 0 0.7-0.5 1.2-1.1 1.2q0 0 0 0c-0.5 2.5-1.4 4.8-2.7 6.9q3.6-2.6 7-5.6 0 0 0 0c0-0.1 1.7-2.4 1.3-4.6-0.2-0.9-0.8-1.7-1.5-2.6-1-1.3-2.3-2.9-2.6-5.5-0.2-1.4 0-3.4 0.2-5.6 0.2-2.3 0.5-4.7 0.1-6.3 0-0.2 0.1-0.3 0.2-0.4 0.2-0.1 0.4-0.1 0.5 0 1.2 1.2 1.5 2.6 1.7 3.9 0.2 0.8 0.3 1.6 0.7 2.4q0.2 0.6 0.7 1.3c1.3 2.1 3.2 5.1 2.6 10.5-0.2 1.6-0.5 2.9-0.8 3.9q2.1-2.1 3.9-4.5c0.8-4.2 0.9-7.5 0.4-10.6q0 0 0 0c-0.6 0-1.1-0.5-1.1-1.1 0-0.6 0.5-1.1 1.1-1.1 0.6 0 1.1 0.5 1.1 1.1 0 0.5-0.3 0.9-0.7 1 0.5 3 0.5 6.1-0.2 9.9q2-2.6 3.7-5.5c0.3-1.7 0.6-3.4 0.7-5 0-1-0.1-1.9-0.4-2.8-0.6-1.5-2-2.1-5.2-3.5-1.6-0.6-3.6-1.5-6.1-2.7-7.8-3.8-7.6-14-7.6-14.1 0-0.2 0.1-0.3 0.3-0.4 0.2 0 0.4 0.1 0.5 0.2 2.1 3.3 4.9 4.6 7.9 5.9q0.6 0.3 1.2 0.6c-0.4-2.5-0.6-8.3-0.6-9.1 0-0.2 0.1-0.4 0.3-0.4 0.2-0.1 0.4 0 0.5 0.2 1.2 2.3 2.5 3.9 4 5.5 0.8 0.9 1.7 1.9 2.6 3.1 3.5 4.6 3.5 8.9 3.5 13.1q0 0.7 0 1.4 0 0.2 0 0.2 0 0.1 0 0.1 0 1.3 0 2.5c0 1-0.1 2-0.2 2.8q0.3-0.5 0.6-1 0.8-1.8 1.7-3.6c0.4-4.7 0.2-9.4-0.9-14q0 0 0 0 0 0 0 0c-0.7 0-1.2-0.6-1.2-1.2 0-0.7 0.5-1.2 1.2-1.2 0.6 0 1.2 0.5 1.2 1.2 0 0.5-0.3 0.9-0.8 1.1q0 0 0 0c1 4.2 1.3 8.6 1 12.9 0.5-1.3 1.1-2.6 1.4-4 0.5-1.5 1.1-3 1.5-4.5l1-4.6q0.1-0.7 0.2-1.3c-0.2-1.9-0.9-7.2-3.4-8.8-1.3-0.8-2.6-1.3-4.2-1.8-1.1-0.3-2.3-0.7-3.8-1.4-3.2-1.3-4.4-3.9-5.6-6.7q-0.3-0.8-0.7-1.6c-1.5-3.1-3.8-5.3-3.8-5.3-0.2-0.2-0.2-0.4-0.1-0.6 0.2-0.1 0.4-0.2 0.6-0.1 1.4 0.8 3.2 1.3 5.1 1.7 2.6 0.7 5.3 1.4 7.7 3.1 2.9 2.2 4 5.6 4.8 8.4 0.4 1.2 0.7 2.2 1.1 3l0.3 0.4c0.9 1.7 2 3.8 2.6 6.4 0.3-2.7 0.5-5.4 0.7-8.1-0.5-3-1.6-5.9-3.2-8.5q0 0 0 0-0.2 0.1-0.4 0.1c-0.6 0-1.1-0.5-1.1-1.1 0-0.6 0.5-1.1 1.1-1.1 0.6 0 1.1 0.5 1.1 1.1 0 0.3-0.2 0.6-0.4 0.8q0.1 0 0.1 0c1.3 2.2 2.2 4.5 2.8 7q0.1-2 0.1-3.9c-0.3-3.9-0.6-7.8-1.3-11.5-1.4-2.4-4.3-5-6.6-4.9-0.9 0-2.1 0.5-3.5 1-2.6 1.1-6.3 2.5-10.8 2.1-4.4-0.3-7.2-2.1-9.7-3.6-1.5-0.9-2.9-1.8-4.5-2.3-0.2-0.1-0.4-0.3-0.3-0.5 0-0.2 0.2-0.4 0.4-0.4q0 0 0 0c0 0.1 3.3 0.2 7.1-0.5 1-0.2 1.8-0.4 2.6-0.6q0.1-0.1 0.2-0.1c-4.1-1.8-5-4.4-5.1-4.5 0-0.1 0-0.3 0.1-0.4 0.2-0.1 0.3-0.2 0.5-0.1 3.1 1.1 5.9 1.1 8.6 1.1 2.5 0 5 0 7.7 0.9 5.3 1.7 7.4 5.6 7.8 6.3 1.2 0.6 3.3 2 4.8 3.4q-0.3-1.2-0.6-2.4-0.9-3.2-2.1-6.2c-2.5-2.3-5.4-4.3-8.5-5.8q0 0 0 0c-0.3 0.4-0.7 0.7-1.3 0.7-0.8 0-1.5-0.7-1.5-1.5 0-0.9 0.7-1.6 1.5-1.6 0.9 0 1.6 0.7 1.6 1.6q-0.1 0.2-0.1 0.4 0 0 0 0c2.9 1.4 5.6 3.3 8 5.4q-1.1-2.7-2.3-5.1c-2.4-3.1-6.4-6-9.7-6q-0.1 0-0.2 0c-0.8 0.1-1.8 0.2-2.8 0.3-3.7 0.4-8.2 0.9-12.7-1.1-3.1-1.4-4.8-3.3-6.7-5.4-1.6-1.7-3.2-3.5-5.7-5-0.1-0.1-0.2-0.4-0.1-0.6 0.1-0.1 0.3-0.2 0.5-0.2 0 0 3.6 1.3 9.2 1.9l0.6 0.1c5.3 0.5 8.8 0.9 16.6 6.3 4.7 3.2 7.5 5.1 9 6.1-2.6-4.6-5.5-8.5-8.2-11.6-3.6-2.4-7.5-4.2-11.6-5.5q-0.2 0-0.2-0.1c-0.1 0.6-0.6 1.1-1.3 1.1-0.8 0-1.5-0.6-1.5-1.4 0-0.8 0.7-1.4 1.5-1.4 0.7 0 1.4 0.6 1.4 1.4q0 0.1 0 0.1c0 0 0.1-0.1 0.2-0.1 3.7 1.1 7.2 2.7 10.5 4.8-1.4-1.5-2.7-2.9-3.9-4-2-2-3.7-3.4-4.8-4.4q-0.9-0.8-1.3-1.1-0.1 0-0.2-0.1c-0.7-0.5-2.6-1-4.8-1.6-3.5-0.8-7.9-1.9-11.1-4-2.7-1.7-5.4-4.3-7.9-6.6-2.4-2.3-4.7-4.5-6.2-5-0.2-0.1-0.3-0.3-0.2-0.5 0-0.2 0.2-0.3 0.4-0.3 0.5 0 10.9 0.9 17.6 4.8-1.3-3.1-2.1-7.6-2.2-7.8 0-0.2 0.1-0.4 0.3-0.5 0.1 0 0.3 0 0.5 0.1 0.8 1 2.2 1.9 3.6 2.8 2.4 1.6 5 3.3 6.4 5.9 1 2 1.7 4.6 2.3 6.8 0.5 2.1 1.1 4.1 1.8 5.1q0.4 0.3 1.6 1.3c1.1 1 2.7 2.3 4.7 4.2-1.8-3-3.3-6.2-4.5-9.5q0 0 0-0.1 0 0.1-0.1 0.1c-0.8 0-1.4-0.7-1.4-1.4 0-0.8 0.6-1.5 1.4-1.5 0.8 0 1.4 0.7 1.4 1.5 0 0.6-0.4 1.1-0.9 1.3q0 0 0 0c1.3 3.7 3 7.3 5.2 10.6q0 0 0 0.1c1.7 1.7 3.7 3.8 5.7 6.3q-1.1-3.9-1.3-7.9c-0.8-0.1-1.4-0.7-1.4-1.5 0-0.7 0.7-1.4 1.4-1.4 0.8 0 1.5 0.7 1.5 1.4 0 0.7-0.5 1.3-1.1 1.4 0.1 3 0.7 6 1.7 8.9 2.3 2.9 4.7 6.3 6.9 10.3 0.2 0.4 0.4 0.9 0.6 1.3 0.1-0.8 0.2-1.8 0.1-2.8-0.1-2.3-0.4-4.1-0.5-4.3-0.3-0.8-0.8-1.6-1.4-2.6-1.3-1.9-2.9-4.3-3.5-8.7-0.6-4.3 0.3-10.3 1-14.7l0.2-1.6c0.7-4.5 1.8-8.5 1.8-8.6 0.1-0.1 0.2-0.3 0.4-0.3q0 0 0 0c0.2 0 0.4 0.2 0.4 0.4 0 0 1.4 5.6 2.2 8.2 0.3 1 0.7 2 1.1 3.2 0.9 2.5 1.9 5.3 2.2 7.9 1.4-2.3 5-7.9 10-10.1 0.1-0.1 0.3-0.1 0.5 0.1 0.1 0.1 0.1 0.3 0 0.5-2.1 2.9-2.9 4.5-3.6 7.7-0.2 0.8-0.3 1.9-0.4 3.2-0.3 3.5-0.8 8.4-3.3 11.7l-0.5 0.7c-3 4.2-5.9 8.1-5.3 12.7q0.9 2 1.8 4.2c0.2-3.2 0.6-6.4 1.5-9.5q0 0 0 0c-0.5-0.3-0.8-0.7-0.8-1.3 0-0.8 0.7-1.4 1.5-1.4 0.7 0 1.4 0.6 1.4 1.4 0 0.8-0.7 1.4-1.4 1.4q-0.2 0-0.3 0 0 0 0 0c-0.9 3.4-1.4 6.9-1.5 10.4q0.9 2.6 1.7 5.3c0.7 2.3 1.2 4.6 1.7 7q0.3-3.7 1.4-7.3 0 0 0 0c-0.3-0.2-0.5-0.6-0.5-1 0-0.6 0.5-1.2 1.2-1.2 0.6 0 1.2 0.6 1.2 1.2 0 0.7-0.6 1.2-1.2 1.2q-0.2 0-0.3 0c-0.9 2.9-1.4 5.9-1.6 9 0.4 2.7 0.7 5.5 0.9 8.3q0 1.4 0 2.8c0.7-2 1.8-5.2 1.9-8.1v-0.2q0.1-0.5 0.1-1.1 0-0.1-0.1-0.1c0-0.2-0.3-4.1 1-9.2 1.4-5.8 4.3-9.2 6.2-11.5l0.4-0.5c1.9-2.3 2.3-3.6 2.3-3.6 0.1-0.2 0.3-0.4 0.5-0.3 0.2 0 0.3 0.1 0.3 0.3 0.4 2.4 0.2 4.4 0 5.6 2.4-2 4.5-4 5.5-5.9 0.1-0.2 0.3-0.3 0.5-0.2 0.2 0.1 0.3 0.3 0.2 0.5-0.5 1.8-0.9 4-1.4 6.4-0.5 2.7-1.1 5.6-1.9 8.4 0.9-0.8 2.3-2 4.1-3 0.2-0.1 0.4-0.1 0.5 0.1 0.2 0.1 0.2 0.3 0.1 0.5-0.1 0-1.7 2.4-3.2 6.5-1.8 5-4.4 8.4-7.3 9.8-4.5 2.1-7.4 3.9-8.4 5.1q-0.1 0.1-0.1 0.1-0.5 0.8-0.9 1.7-0.2 0.6-0.3 0.6 0 0.1-0.1 0.2c-0.1 3.2-0.3 6.4-0.8 9.6 1.3-2.2 2.9-4.3 4.9-6q0 0 0 0c-0.1-0.3-0.3-0.5-0.3-0.8 0-0.9 0.7-1.6 1.6-1.6 0.8 0 1.5 0.7 1.5 1.6 0 0.8-0.7 1.5-1.5 1.5-0.4 0-0.8-0.2-1-0.4q0 0 0 0c-2.3 1.9-4.1 4.4-5.4 7q-0.3 1.4-0.5 2.8l-0.5 2.1q0.8-0.9 1.7-1.7-0.1-0.2-0.1-0.3c0-0.6 0.5-1.1 1.1-1.1 0.6 0 1.1 0.5 1.1 1.1 0 0.6-0.5 1.1-1.1 1.1-0.3 0-0.6-0.2-0.8-0.4-0.8 0.6-1.5 1.4-2.1 2.3l-0.3 1.6c-0.5 1.5-1 3-1.5 4.6-0.3 1.1-0.7 2.2-1.2 3.3 0.4-0.6 0.9-1.4 1.4-2.3 0.6-0.9 1.1-1.8 1.5-2.7 1.6-3 3-5.6 7.1-8 2.5-1.5 4.9-2.5 7.3-3.5 2.6-1.1 5.1-2.2 7.5-3.8 0.2-0.1 0.4 0 0.5 0.1 0.2 0.2 0.2 0.4 0.1 0.5-1.6 2-2.9 4.6-4.3 7.3-1.4 3-2.9 6-4.9 8.3 1.7-0.4 4.9-1 8.9-1 0.2 0 0.4 0.2 0.4 0.4zm-66.9 59.3q0 0 0 0 0 0 0 0zm48.9-87.6c0.4-1.3 0.9-2.7 1.3-4.3 0.8-3 1.7-6 2.8-8.3 2.3-4.6 6.4-9.8 9-12.8q-1.3 1.2-2.7 2.4c-2.1 1.8-4.3 3.6-5.8 5.6q0 0 0 0-0.3 0.4-0.6 0.8c-1 1.6-1.7 3.2-2.2 4.8-0.3 1.2-0.6 2.3-0.7 3.3q-0.1 0.2-0.1 0.5 0 0 0 0.1c-0.3 1.6-0.4 3.1-0.4 4.2l-0.1 0.3c0 1.1-0.2 2.3-0.5 3.4zm4.5-12.4c-1.1 2.2-2 5.3-2.8 8.2-0.5 1.7-0.9 3.2-1.4 4.5 2.6-3.6 4.6-6.6 7.3-11.2 1.6-2.8 3.2-6.7 4.6-10.1 0.8-2 1.5-3.9 2.2-5.3-2.2 2.5-7.3 8.6-9.9 13.9zm7.9 0.1q-0.7 1.7-1.6 3.2-0.2 0.3-0.3 0.5-0.2 0.3-0.3 0.5c-1.2 1.7-2.8 3.2-5.4 5.5l-0.9 0.9c-1.3 1.2-2.4 2.4-3.1 3.4 1.8-1.2 4.3-2.5 6.3-3.4 3.5-1.7 5.7-6 6.9-9.4 0.9-2.3 1.8-4.1 2.4-5.2-1.9 1.3-3.3 2.6-3.6 2.9-0.1 0.2-0.2 0.6-0.4 1.1zm2-11.2q0.3-1.6 0.6-3.1c-0.7 1.5-1.6 3.6-2.4 5.8-1.4 3.4-3 7.3-4.6 10.1-2.5 4.2-4.4 7.1-6.6 10.3 1.1-1.2 2.2-2.3 3.4-3.3 1-0.9 2-1.8 2.9-2.7q0 0 0 0 1.1-1.2 2-2.6c0.9-1.3 1.5-2.7 1.9-3.7 1.3-3.3 2.1-7.2 2.8-10.8zm-13.2 11c0.4-1.5 1.1-3 1.9-4.2q0.3-0.5 0.7-0.9 0.1-0.2 0.2-0.3c2.3-3.1 4.8-5 5.4-5.4 0.1-0.5 0.6-2.3 0.4-4.9-0.4 0.7-1 1.6-1.8 2.6l-0.5 0.5c-2 2.4-4.7 5.6-6 11.2q-0.2 0.7-0.3 1.4zm-13.9-44.6q0 0.9-0.1 1.9c0 5.5-0.1 13.7 2.6 18.2q0.2-1.1 0.3-2.1c0.4-3.2 0.9-6.5 0.5-11.9-0.2-3.6-1-7.8-1.7-11.6-0.4-2-0.8-3.9-1-5.4-0.3 3-0.6 8.3-0.6 10.9zm6.6 6.1c0 0.2 0 1-0.1 2.1 0 1.6-0.2 3.2-0.7 5.1-0.4 2.1-1.1 4.2-1.8 5.7q-0.1 0.1-0.1 0.2c-0.5 1.1-0.9 1.9-1 2.2 0.1 0.5 0.4 2.3 0.5 4.3q0 0.6 0 1.1c0.9-3 2.9-5.8 5.1-8.8l0.5-0.7c2.3-3.2 2.8-7.9 3.1-11.3 0.1-1.3 0.2-2.4 0.4-3.3 0.6-2.7 1.3-4.4 2.8-6.6-4.9 3-8.3 9.2-8.7 10zm-4.3-12.3c-0.4-1.1-0.8-2.8-1.2-4.3 0.2 1.4 0.5 3.1 0.9 5 0.7 3.7 1.5 8 1.7 11.6 0.4 5.4-0.1 8.7-0.5 11.9q-0.1 0.5-0.1 1 0.1-0.4 0.3-0.7 0.1-0.1 0.1-0.3c0.7-1.8 1.2-3.4 1.5-4.9q0.1-0.1 0.1-0.3c0.3-1.9 0.5-3.5 0.6-4.7q0-1 0-2c-0.1-2.8-1.3-6.1-2.3-9.1q-0.6-1.7-1.1-3.2zm-1 24.7q0 0 0 0.1c-1.9-4.8-1.8-11.8-1.8-16.7q0-1 0-1.9c0-2.9 0.5-8.9 0.8-11.8-0.4 1.5-0.8 3.6-1.2 5.8l-0.2 1.6c-0.7 4.3-1.6 10.3-1 14.5 0.6 4.2 2.2 6.5 3.4 8.4zm-47.2-31.3c3.3 1.2 9 3.3 11.7 4.9 1.9 1.2 4.3 3.1 7 5.2 2.1 1.7 4.2 3.4 6.1 4.7-1.1-1.3-2.6-3-3.7-4.2q-0.8-0.8-1.7-1.7c-1.6-1.4-3.4-3-4.1-3.6-4.3-3.1-11.2-4.6-15.3-5.3zm-0.6 0.3c2.4 1.4 4.6 2.9 7.1 4.6 1.7 1.1 3.5 2.3 5.6 3.7 4.1 2.6 9.2 5 12 6.2-1.8-1.3-3.8-2.8-5.7-4.4-2.6-2-5.1-4-7-5.1-2.7-1.7-8.9-3.9-12-5zm16.5 4.5q0.3 0.2 0.5 0.4 1.9 1.5 3.4 3 0 0 0 0 0.2 0.1 0.3 0.3c0.5 0.4 1 0.9 1.4 1.3q0 0.1 0.1 0.2c1.4 1.4 2.6 2.7 3.4 3.7q-0.4-1.2-0.7-2.6c-0.6-2.2-1.3-4.7-2.3-6.6-1.2-2.4-3.8-4.1-6-5.6-1.1-0.6-2.1-1.3-2.9-2 0.4 1.9 1.3 5.5 2.4 7.6q0.1 0.1 0.4 0.3zm5.9 9.6q0.6 0.2 1.1 0.3c-2.9-1.3-7.4-3.4-11-5.8-2.2-1.4-3.9-2.5-5.6-3.7-2.1-1.4-4-2.6-6-3.9q1.3 1.2 2.9 2.7c2.4 2.2 5.1 4.8 7.7 6.5 3.2 2 7.5 3.1 10.9 3.9zm3.1 19c4.5 1.6 11 2.2 13.9 2.4-1.7-0.7-3.6-1.4-5.5-2.2-2.1-0.8-4.3-1.7-6.5-2.5-3.6-1.3-11-3.7-14-4.7q0.1 0.1 0.2 0.2c2.4 1.7 7.5 5.2 11.9 6.8zm-5.4-6q-2.3-0.2-4.2-0.6c3.6 1.2 8.8 2.9 11.6 3.9 2.2 0.8 4.4 1.7 6.6 2.5 1.8 0.8 3.6 1.5 5.4 2.2-0.8-0.6-1.6-1.1-2.5-1.8-7.7-5.2-10.9-5.5-16.3-6.1zm17.1 8.6c-3.4-0.3-8.3-1-11.8-2.3-3.4-1.2-7.2-3.5-9.8-5.3q0.7 0.8 1.3 1.5c1.8 2 3.5 3.9 6.5 5.2 4.2 1.9 8.6 1.4 12.2 1q0.8-0.1 1.6-0.1zm-6.3 14.1c2-0.4 4.1-0.7 7.8-0.4 3.6 0.3 5.9 1.4 7.5 2.3q0.5 0.3 1 0.6c-1.1-1.4-3.1-3.4-6.3-4.4-2.5-0.8-4.8-0.8-7.2-0.8q-0.2 0-0.3 0c-2.5 0-5 0-7.9-0.8 0.7 0.9 2.1 2.4 5.2 3.6q0.1-0.1 0.2-0.1zm-8.4 2.4c2.4 0.2 5.1 0 8-0.2 1.8-0.1 3.6-0.3 5.4-0.3q0.2 0 0.3 0c4.3 0 9.5 1.5 11.7 2.2q-0.4-0.3-0.8-0.6-0.6-0.3-1.2-0.8c-1.8-0.9-4.3-1.9-7.5-2.2-3.2-0.3-6.5 0.2-7.4 0.3q-0.8 0.2-1.7 0.4c-0.8 0.2-1.6 0.4-2.6 0.6-1.5 0.3-3 0.5-4.2 0.6zm13.7-0.1q-0.1 0-0.3 0c-1.8 0.1-3.6 0.2-5.4 0.3-2.8 0.2-5.6 0.4-8 0.2 2.6 0.8 7 2 12.2 2.3 4.1 0.2 6.3-0.1 8.2-0.5 1.2-0.2 2.3-0.4 3.6-0.4q0.3 0 0.6 0.1c-2.5-0.8-7.1-2-10.9-2zm10.4 2.4c-1.4 0-2.5 0.1-3.7 0.3-1.5 0.3-3.2 0.6-5.8 0.6q-1.1 0-2.5-0.1c-4.6-0.2-8.6-1.2-11.2-2q0.4 0.3 0.9 0.6c2.5 1.5 5.1 3.1 9.3 3.5 4.3 0.3 7.9-1.1 10.5-2.1 0.9-0.3 1.8-0.6 2.5-0.8zm4 24.1q0.4 0.1 0.7 0.3c-0.7-1-1.2-1.9-1.7-2.9-0.9-1.5-1.7-3.2-3.7-5.3-2.2-2.4-4.3-3.4-7-4.8q-1.3-0.6-2.9-1.4c1.1 1 2.7 2.7 4.4 4.8q0.7 0.8 1.4 1.7c1.9 2.5 4 5 7.5 6.9q0.7 0.3 1.3 0.7zm-12.4-13.9q-1-0.2-1.9-0.5 1.5 0.8 2.8 1.4c2.7 1.3 4.9 2.4 7.2 4.9 1.9 2.1 2.8 3.7 3.6 5.3q0.4 0.6 0.7 1.2-0.2-0.7-0.5-1.4c-0.8-2.7-1.8-6-4.5-7.9-2.2-1.7-4.9-2.4-7.4-3zm8.8 12.4q0.2 0.1 0.4 0.2c-2.6-1.8-4.3-4-6-6.1q-0.6-0.8-1.3-1.7c-2-2.4-3.9-4.3-4.9-5.2 0.7 0.9 1.5 2.1 2.1 3.5q0.4 0.8 0.8 1.6c1.2 2.6 2.2 5.1 5.1 6.3 1.5 0.7 2.7 1.1 3.8 1.4zm-0.5 24.5c-1.1-3.1-4.9-6.9-8.2-8.6l-0.6-0.4c-2.9-1.5-6.5-3.4-8.8-6.8 0.8 2.2 2.7 6.2 7 8.5l1.4 0.8c4.7 2.5 6.5 3.4 9.2 6.5zm-8.2-11.9c1.5 0.7 3 1.6 4.5 3q0.7 0.5 1.2 1c1.3 1.5 2.2 3.2 2.7 4.7-0.2-3.1-0.8-6.1-3.3-9.4-0.8-1.1-1.7-2.1-2.5-3-1.2-1.3-2.3-2.5-3.3-4.2 0.1 2.7 0.4 6.7 0.7 7.9zm-9.2-4.4c2.2 3.5 5.8 5.4 8.7 7l0.7 0.3c2.6 1.4 6.3 4.7 8 7.9q-0.2-0.8-0.5-1.7c-0.6-1.6-1.5-3.2-3-4.7q-0.4-0.5-0.8-0.9c-1.9-1.5-4.4-2.8-4.5-2.9q0 0 0 0-1-0.5-2-0.9c-2.3-1.1-4.6-2.1-6.6-4.1zm12.3 13.7c1.7 0.7 2.9 1.3 3.9 1.9-2.2-2.3-4-3.2-8.2-5.5l-1.4-0.8c-4.5-2.4-6.4-6.6-7.2-8.8 0.5 3.2 2.1 8.2 6.8 10.5 2.5 1.2 4.5 2.1 6.1 2.7zm-20 30.3c0.4 1.3 0.4 1.5 0.7 3.1q0 0.1 0 0.2 0-0.1 0.1-0.1c1-2.1 2.3-4.6 2.3-8.2 0-2.4-0.7-4.3-1.3-6.1q-0.3-0.9-0.5-1.7c-0.2 0.9-0.4 2-0.8 3-1 2.9-1.3 6.5-0.7 8.7zm-70.9 3.2q0 0 0.1 0.1 0-0.1 0-0.2c0.3-1.6 0.3-1.8 0.6-3.1l0.3-1.1c0.5-2.2 0.2-5.8-0.8-8.7-0.3-1-0.6-2.1-0.7-3q-0.3 0.8-0.6 1.7c-0.6 1.8-1.2 3.7-1.2 6.1-0.1 3.6 1.3 6.1 2.3 8.2zm-15.1-37.5l1.4-0.7c4.2-2.3 6.2-6.3 6.9-8.5-2.3 3.4-5.8 5.3-8.7 6.8l-0.7 0.4c-3.2 1.7-7 5.5-8.2 8.6 2.8-3.1 4.6-4 9.3-6.6zm8.8-9.2c-0.8 2.2-2.8 6.4-7.2 8.8l-1.4 0.8c-4.2 2.3-6 3.2-8.2 5.5 0.9-0.6 2.2-1.2 3.9-1.9 1.5-0.6 3.5-1.5 6-2.7 4.8-2.3 6.4-7.3 6.9-10.5zm-9.2 4.5q0 0-0.1 0c0 0.1-2.5 1.4-4.4 2.9q-0.5 0.4-0.9 0.8c-1.4 1.5-2.4 3.2-2.9 4.8q-0.3 0.9-0.5 1.6c1.6-3.1 5.3-6.4 7.9-7.8l0.7-0.3c3-1.6 6.5-3.5 8.8-7-2 2-4.3 3-6.7 4.1q-1 0.4-1.9 0.9zm-9.1 8.1c0.6-1.6 1.4-3.2 2.8-4.7q0.5-0.5 1.2-1.1c1.4-1.3 3-2.2 4.5-2.9 0.3-1.2 0.5-5.2 0.6-7.9-1 1.7-2.1 2.9-3.2 4.2-0.9 0.9-1.7 1.9-2.6 3-2.4 3.2-3.1 6.3-3.3 9.4zm-2.6-20.5c3.6-1.9 5.6-4.4 7.6-6.9q0.7-0.9 1.4-1.7c1.7-2.1 3.3-3.8 4.4-4.8q-1.6 0.8-2.9 1.4c-2.7 1.4-4.9 2.4-7.1 4.8-1.9 2.1-2.8 3.7-3.6 5.3-0.5 1-1 1.9-1.7 2.8q0.3-0.1 0.6-0.2 0.7-0.4 1.3-0.7zm14.2-13.6c-1 0.9-2.9 2.8-4.9 5.2q-0.7 0.9-1.4 1.7c-1.6 2.1-3.3 4.3-6 6q0.2 0 0.4-0.1c1.1-0.3 2.4-0.7 3.9-1.4 2.8-1.2 3.9-3.7 5.1-6.3q0.3-0.8 0.7-1.6c0.7-1.4 1.5-2.6 2.2-3.5zm-15 11.3q-0.2 0.7-0.4 1.4 0.3-0.6 0.6-1.2c0.9-1.6 1.8-3.2 3.7-5.3 2.3-2.5 4.5-3.6 7.2-4.9q1.3-0.6 2.7-1.4-0.9 0.3-1.8 0.5c-2.6 0.6-5.2 1.3-7.5 3-2.6 1.9-3.7 5.2-4.5 7.9zm26.8-22.3c-2.6 0.8-6.7 1.8-11.3 2q-1.3 0.1-2.4 0.1c-2.7 0-4.4-0.3-5.9-0.6-1.2-0.2-2.3-0.3-3.6-0.3 0.7 0.2 1.5 0.5 2.5 0.8 2.6 1 6.1 2.4 10.5 2.1 4.2-0.4 6.8-2 9.3-3.5q0.4-0.3 0.9-0.6zm-23.2 0.7c1.4 0 2.5 0.2 3.7 0.4 1.9 0.3 4.1 0.7 8.2 0.5 5.2-0.3 9.6-1.5 12.1-2.3-2.4 0.2-5.1 0-7.9-0.2-1.8-0.1-3.7-0.3-5.5-0.3q-0.1 0-0.3 0c-3.8 0-8.4 1.2-10.8 2q0.3-0.1 0.5-0.1zm17.2-3q-0.8-0.2-1.7-0.4c-0.8-0.1-4.1-0.7-7.3-0.3-3.2 0.3-5.8 1.3-7.5 2.2q-0.7 0.4-1.2 0.8-0.4 0.3-0.8 0.6c2.2-0.7 7.4-2.2 11.6-2.2q0.2 0 0.3 0c1.8 0 3.7 0.2 5.5 0.3 2.8 0.2 5.6 0.4 8 0.2-1.2-0.1-2.7-0.3-4.3-0.6-0.9-0.2-1.8-0.4-2.6-0.6zm-17.8 1.3q0.5-0.3 1-0.6c1.6-0.9 3.8-2 7.4-2.3 3.7-0.3 5.9 0 7.9 0.4q0.1 0 0.1 0c3.1-1.1 4.6-2.6 5.2-3.6-2.8 0.9-5.3 0.9-7.8 0.9q-0.2 0-0.3 0c-2.4 0-4.7 0-7.2 0.8-3.2 1-5.2 3-6.3 4.4zm25.5-42c-1.2 1.1-2.6 2.8-3.8 4.2 1.9-1.3 4.1-3.1 6.2-4.7 2.6-2.1 5.1-4.1 7-5.2 2.7-1.6 8.4-3.7 11.7-4.9-4.2 0.6-11.1 2.1-15.3 5.3-0.7 0.6-2.6 2.1-4.1 3.6q-0.9 0.9-1.7 1.7zm9.6-5.4c-1.9 1.2-4.4 3.1-7 5.2-1.9 1.5-3.9 3.1-5.7 4.4 2.8-1.3 8-3.6 12.1-6.3 2.1-1.3 3.8-2.5 5.6-3.7 2.4-1.6 4.6-3.1 7.1-4.6-3.2 1.1-9.3 3.4-12.1 5zm11.1-3.9c-2 1.2-3.9 2.5-5.9 3.9-1.7 1.1-3.5 2.3-5.6 3.7-3.7 2.3-8.1 4.5-11.1 5.8q0.6-0.2 1.1-0.3c3.5-0.9 7.8-2 10.9-4 2.6-1.6 5.3-4.2 7.8-6.5q1.5-1.4 2.8-2.6zm-23.9 9.7q-0.4 1.5-0.8 2.6c0.9-1 2-2.2 3.4-3.7q0.1-0.1 0.2-0.2c0.4-0.4 0.8-0.8 1.3-1.3q0.2-0.1 0.3-0.2 0 0 0.1-0.1 1.5-1.4 3.3-3 0.3-0.2 0.6-0.4 0.2-0.2 0.3-0.3c1.2-2 2-5.6 2.4-7.5-0.8 0.7-1.8 1.3-2.8 2-2.3 1.5-4.8 3.1-6.1 5.6-1 1.9-1.7 4.4-2.2 6.5zm-22.3-9.2c-0.2 1.5-0.5 3.4-0.9 5.5-0.8 3.7-1.6 8-1.8 11.6-0.3 5.3 0.1 8.7 0.5 11.9q0.2 1 0.3 2c2.7-4.5 2.6-12.7 2.6-18.1q0-1.1 0-1.9c0-2.7-0.4-7.9-0.7-11zm0.4-0.9c0.2 2.9 0.7 8.9 0.7 11.9q0 0.8 0 1.9c0.1 4.9 0.1 11.9-1.8 16.6q0 0 0.1-0.1c1.2-1.8 2.7-4.2 3.3-8.3 0.7-4.3-0.3-10.2-0.9-14.5l-0.3-1.6c-0.3-2.2-0.8-4.3-1.1-5.9zm-5.4 20c0 1.2 0.2 2.8 0.5 4.6q0.1 0.2 0.1 0.4c0.3 1.5 0.8 3.1 1.5 4.8q0.1 0.2 0.2 0.4 0.1 0.3 0.3 0.6-0.1-0.4-0.2-0.9c-0.4-3.2-0.8-6.5-0.5-11.9 0.2-3.7 1-7.9 1.8-11.7 0.3-1.8 0.6-3.6 0.9-5-0.4 1.6-0.9 3.3-1.2 4.4q-0.5 1.5-1.1 3.2c-1.1 2.9-2.3 6.2-2.4 9.1q0 0.9 0.1 2zm2.3 18.7q0-0.5 0-1.1c0.1-2.1 0.4-3.8 0.5-4.3-0.2-0.3-0.6-1.1-1.1-2.2q0-0.1 0-0.2c-0.7-1.6-1.5-3.7-1.9-5.7-0.4-1.9-0.6-3.6-0.7-5.1-0.1-1.1-0.1-1.9-0.1-2.2-0.4-0.8-3.7-6.9-8.6-10 1.4 2.3 2.1 3.9 2.7 6.6 0.2 0.9 0.3 2.1 0.4 3.4 0.4 3.4 0.8 8.1 3.2 11.3l0.5 0.7c2.1 2.9 4.2 5.7 5.1 8.8zm36.5-13.2c-3 0.9-10.5 3.4-14.1 4.6-2.1 0.8-4.3 1.7-6.5 2.6-1.9 0.8-3.7 1.5-5.5 2.1 2.9-0.2 9.5-0.8 14-2.4 4.4-1.6 9.5-5 11.8-6.7q0.1-0.1 0.3-0.2zm-2.2 2c-2.7 1.8-6.4 4.1-9.8 5.3-3.6 1.3-8.5 2-11.8 2.3q0.8 0 1.6 0.1c3.5 0.4 8 0.9 12.2-1 2.9-1.3 4.6-3.2 6.4-5.2q0.7-0.7 1.4-1.5zm-23.9 6.9c1.7-0.6 3.5-1.3 5.4-2.1 2.1-0.9 4.3-1.8 6.5-2.5 2.8-1 8-2.8 11.6-3.9q-1.8 0.3-4.2 0.6l-0.6 0.1c-5.4 0.5-8.6 0.9-16.2 6.1-0.9 0.6-1.8 1.2-2.5 1.7zm-30.1 11.6q-1.4-1.2-2.7-2.4c2.5 2.9 6.7 8.1 8.9 12.8 1.1 2.2 2 5.3 2.8 8.3 0.5 1.5 0.9 3 1.3 4.2-0.2-1.1-0.4-2.3-0.5-3.4v-0.2c-0.1-1.2-0.2-2.6-0.4-4.3q0 0 0-0.1-0.1-0.2-0.1-0.4c-0.2-1-0.4-2.2-0.8-3.3-0.5-1.6-1.2-3.3-2.2-4.8q-0.2-0.4-0.5-0.8-0.1 0-0.1-0.1c-1.5-1.9-3.6-3.7-5.7-5.5zm-4.1-3.4c0.7 1.5 1.5 3.4 2.3 5.4 1.3 3.4 2.9 7.3 4.5 10 2.7 4.6 4.7 7.6 7.3 11.3-0.5-1.3-0.9-2.9-1.4-4.5-0.8-3-1.7-6-2.7-8.3-2.7-5.3-7.8-11.4-10-13.9zm5.1 3.1c0.5 0.4 3 2.3 5.3 5.3q0.2 0.2 0.3 0.3 0.3 0.5 0.6 0.9c0.9 1.2 1.5 2.8 2 4.3q-0.1-0.7-0.3-1.4c-1.4-5.6-4.1-8.9-6.1-11.2l-0.4-0.6c-0.9-1-1.5-1.8-1.8-2.5-0.2 2.6 0.2 4.4 0.4 4.9zm-5-0.2c0.7 3.6 1.4 7.5 2.7 10.8 0.4 0.9 1.1 2.4 1.9 3.7q0.9 1.4 2 2.5 0.1 0.1 0.1 0.1c0.9 0.9 1.8 1.8 2.8 2.7 1.2 1 2.4 2.1 3.5 3.3-2.3-3.3-4.2-6.1-6.6-10.4-1.7-2.8-3.2-6.7-4.6-10.1-0.9-2.1-1.7-4.2-2.5-5.7q0.3 1.5 0.7 3.1zm13.6 25.2c-0.8-1-1.8-2.2-3.1-3.4l-1-0.9c-2.6-2.4-4.2-3.8-5.3-5.5q-0.2-0.3-0.3-0.5-0.2-0.3-0.4-0.5-0.9-1.5-1.5-3.3c-0.3-0.5-0.4-0.9-0.5-1-0.3-0.3-1.6-1.6-3.6-3 0.7 1.2 1.5 3 2.4 5.3 1.2 3.3 3.4 7.6 6.9 9.3 2.1 1 4.5 2.2 6.4 3.5zm-9.4 15.5c-1.3-0.5-2.5-1.1-3.8-1.7q1.7 1.1 4.3 2.7c4.2 2.6 6.4 4.6 9.8 8.3 1.3 1.4 2.4 2.6 3.4 3.7 1.4 1.4 2.5 2.6 3.7 3.9-0.5-0.8-1.1-1.7-1.9-3-0.6-1-1.1-1.9-1.5-2.8-1.5-2.8-2.8-5.3-6.8-7.7-2.5-1.4-4.8-2.4-7.2-3.4zm13.4 13.2c-1-1.1-2.1-2.3-3.4-3.6-3.4-3.7-5.5-5.7-9.8-8.2-2.4-1.5-4.2-2.7-5.4-3.6 0.8 1.1 1.7 2.2 2.6 3.6 2.3 3.1 4.8 6.7 8.3 9.4 3.6 2.8 6.2 3.9 8.4 4.9 1 0.5 1.9 0.9 2.9 1.4-1.1-1.2-2.3-2.5-3.6-3.9zm-16.2-10.2c1.7 3.4 3.4 6.8 5.8 9.2q0 0 0 0c0 0 1.1 1.1 3.1 2.2q0.1 0 0.3 0.1c1.9 0.8 3.6 1.3 5 1.7 1.9 0.3 3.4 0.6 4.6 1q0.3 0.1 0.6 0.1c-0.9-0.4-1.7-0.8-2.6-1.2-2.3-1-4.9-2.1-8.5-4.9-3.6-2.8-6.2-6.4-8.4-9.6q-1-1.4-2-2.6 1.1 1.9 2.1 4zm21 15.8q-0.8-0.3-2.4-0.8-0.7-0.2-1.5-0.3-1.3-0.3-3-0.7-0.1-0.1-0.3-0.1c-2.2-0.4-4-1.1-5.4-1.8-1.2-0.6-2.2-1.3-3.2-2.3-0.5-0.1-3.1-0.9-6.9-1.2 1.2 0.5 2.6 1.3 3.9 2.5 1 0.9 1.8 1.9 2.6 2.8 1.8 2.3 3.4 4.2 6.5 4.2q0.1 0 0.3 0c2.3-0.1 4-0.7 5.6-1.3 1.3-0.4 2.5-0.8 3.8-1zm13.4 12.2c0.2 2.2 0.6 3.7 1.1 4.7-0.2-0.7-0.3-1.6-0.1-2.4 0.2-1.1 0.9-2 1.6-2.9 1-1.3 2.1-2.7 2.4-5.1 0.2-1.4 0-3.3-0.2-5.4-0.1-1.8-0.3-3.5-0.3-5-0.3 0.7-0.4 1.4-0.6 2.2-0.1 0.9-0.3 1.8-0.7 2.6q-0.3 0.7-0.8 1.4c-1.2 2.1-3 4.9-2.4 9.9zm-15 13.6c1.2-0.2 2.5-0.4 4-0.9 1.5-0.4 2.6-1 3.6-1.5 1.3-0.8 2.6-1.4 4.8-1.8 2.5-0.3 5.3 0.4 7.1 0.9-1.7-1-4.4-2.1-7.6-1.9-3.5 0.2-5.7 1.7-7.9 3.1-1.3 0.8-2.6 1.6-4 2.1zm4 0.8c2.2-0.1 3.6-0.8 5.6-1.8q1.1-0.6 2.5-1.2c2.1-0.9 5.1-0.9 7-0.8-1.8-0.5-4.4-1.1-6.6-0.7-2.2 0.2-3.4 0.9-4.7 1.6-1.1 0.6-2.1 1.1-3.6 1.6-1.9 0.6-3.5 0.8-4.9 1q-0.6 0-1.1 0.1 0.6 0 1.3 0.1c1.1 0 2.5 0.1 4.5 0.1zm-4.7-5.3c1.7 1.2 3.5 1.7 4.1 1.8 3.2-2.4 6-3.2 7.7-3.4-2.7-0.8-6.5-0.9-9.3-0.6-2.2 0.2-4.2 0.3-5.5 0.4 0.9 0.4 2 1.1 3 1.8zm19 1.9c-1.8-0.1-4.3 0-6.1 0.8q-1.3 0.6-2.4 1.2c-2 0.9-3.5 1.7-5.8 1.8q-0.8 0-1.5 0-0.3 0-0.5 0c1.5 0.2 3.2 0.4 5 0.3 2.9-0.3 4.3-1.1 5.7-2 0.9-0.6 1.8-1.1 3-1.5 0.9-0.3 1.8-0.5 2.6-0.6zm35 16.5c-0.6 0.1-1.2 0.1-1.8 0.1q-0.2 0-0.4 0c-1.1 0-2.3 0.1-4.2 0.9-2.1 1-3.1 2.3-4.1 3.6-0.4 0.5-0.8 1-1.3 1.5 1.9-0.1 5.5-0.6 7.9-2.3 2.1-1.5 3.3-3 3.9-3.8zm8.6 0.8q0.3 0.1 0.7 0.2c0-0.9 0-2.7-0.8-4.8-0.5-1.4-1.5-2.6-2.5-3.8-0.7-0.8-1.4-1.7-2-2.6q0.1 0.5 0.1 1c0 1.8 0.1 3.6 0.8 5.9 0.7 2.2 2.5 3.5 3.7 4.1zm-15.8-12.6c0.2 0.7 0.4 1.5 0.5 2.6l0.1 0.5q0.1 0.6 0.2 1.4 0 0 0 0 0.1 1 0.2 1.7 0.1 0.4 0.2 0.6c0.1 0.6 0.3 1.1 0.5 1.5q0-0.2 0.1-0.4c0.4-0.8 0.8-1.8 0.8-3.6 0.1-1.6-0.3-3.4-0.6-4.9q-0.2-0.9-0.3-1.8c-0.2-1.4-0.3-2.5-0.3-3.3-1.3 2.9-1.4 5.2-1.4 5.7zm-2.9-1.4q-0.3-0.4-0.5-0.9c-0.8-1.3-1.4-3.2-1.8-4.5 0.3 3.2 1.3 6.5 2.4 8.5 0.7 1.3 1.2 2 1.8 2.7 0.3 0.5 0.6 0.9 0.9 1.4-0.7-3.2-1.8-5.3-2.8-7.2zm-0.7-3.1q-0.5-0.8-0.9-1.6c0.4 1.2 0.9 2.6 1.4 3.6q0.3 0.5 0.5 0.9c0.8 1.5 1.7 3.2 2.4 5.5q0-0.4 0-0.7l-0.1-0.5c-0.4-3.4-1.4-4.7-2.5-6.1q-0.4-0.5-0.8-1.1zm3.1 10.7q0.2 0.1 0.4 0.3c-0.4-0.7-0.8-1.2-1.2-1.8-0.6-0.7-1.2-1.4-1.9-2.8-0.9-1.7-1.8-4.3-2.2-6.9 0 2.5 0.3 4.9 1.4 7 0.9 1.8 2.2 3 3.5 4.2zm-17.6 1.3c0.6-0.4 1.3-0.9 2.2-1.3 1.9-1.1 3.4-1.5 4.4-1.6-0.5-0.2-1.3-0.3-2.1-0.3-1 0-2.1 0.2-3.4 0.6-2.2 0.8-3.6 1.8-4.8 2.8q-0.5 0.3-0.9 0.6c-1.6 1.2-2.7 1.8-3.4 2.2q0.1 0 0.2 0c4.1-0.5 5.9-1.7 7.8-3zm-7.4 2.2c0.7-0.4 1.5-1 2.6-1.7q0.4-0.3 0.8-0.7c1.3-0.9 2.7-1.9 5-2.8q0.7-0.2 1.3-0.4c-2.3 0.1-4.1 0.7-5.1 1.2-1.5 0.8-2.4 1.8-3.5 3.2l-0.2 0.2q-0.4 0.5-0.9 1zm13.9-4.7c-0.9 0.2-2.3 0.5-4.1 1.5-0.8 0.5-1.5 0.9-2.2 1.4-1.4 1-2.8 1.9-5.3 2.5 1.9 0 3.8-0.2 5.6-1 2.1-1 2.9-1.9 3.6-2.6 0.5-0.6 1-1 1.7-1.5q0.4-0.2 0.7-0.3zm47.2 6.9q-0.2 0-0.4 0c-0.6 0-1.2 0-1.8-0.1 0.6 0.8 1.8 2.3 3.9 3.8 2.4 1.7 6 2.2 7.9 2.3-0.5-0.5-0.9-1-1.3-1.5-1-1.3-2-2.6-4.1-3.6-1.9-0.8-3.1-0.9-4.2-0.9zm10.4-16.9c-0.5 2.6-1.3 5.2-2.2 6.9-0.7 1.4-1.3 2.1-1.9 2.8-0.4 0.6-0.8 1.1-1.2 1.8q0.2-0.2 0.4-0.3c1.3-1.2 2.6-2.4 3.5-4.2 1.1-2.1 1.4-4.5 1.4-7zm-4.4 9.4c0.6-0.7 1.1-1.4 1.8-2.7 1.1-2 2.1-5.3 2.3-8.5-0.3 1.3-0.9 3.2-1.7 4.5q-0.2 0.5-0.5 0.9c-1 1.9-2.1 4-2.9 7.2 0.4-0.5 0.7-0.9 1-1.4zm-0.7-1.7l-0.1 0.5q0 0.3-0.1 0.7c0.8-2.3 1.7-4 2.5-5.5q0.2-0.4 0.5-0.9c0.5-1 1-2.4 1.4-3.6q-0.4 0.8-0.9 1.6-0.4 0.6-0.8 1.1c-1.1 1.4-2.1 2.7-2.5 6.1zm-2.1 5.2q0 0.2 0.1 0.4c0.2-0.4 0.4-0.9 0.5-1.5q0.1-0.2 0.2-0.6 0.1-0.7 0.2-1.7 0.1-0.8 0.2-1.4l0.1-0.5c0.1-1.1 0.3-1.9 0.5-2.6 0-0.5-0.1-2.8-1.4-5.7 0 0.8-0.1 1.9-0.3 3.3q-0.1 0.9-0.3 1.8c-0.3 1.5-0.7 3.3-0.6 4.9 0 1.8 0.4 2.8 0.8 3.6zm-14.7 4.9q0.4-0.1 0.7-0.2c1.2-0.6 3-1.9 3.7-4.1 0.7-2.3 0.7-4.1 0.8-5.9q0-0.5 0-1c-0.5 0.9-1.2 1.8-1.9 2.6-1.1 1.2-2 2.4-2.5 3.8-0.9 2.1-0.8 3.9-0.8 4.8zm42.6-2.3c-0.7-0.4-1.8-1-3.4-2.2q-0.4-0.3-0.9-0.6c-1.3-1-2.6-2-4.8-2.8-1.3-0.4-2.4-0.6-3.4-0.6-0.8 0-1.6 0.1-2.1 0.3 1 0.1 2.5 0.5 4.4 1.6 0.9 0.4 1.5 0.9 2.2 1.3 1.9 1.3 3.7 2.5 7.8 3q0.1 0 0.2 0zm-8.5-1.1c1.8 0.8 3.7 1 5.6 1-2.5-0.6-3.9-1.5-5.3-2.5-0.7-0.5-1.4-0.9-2.2-1.4-1.8-1-3.2-1.3-4.1-1.5q0.3 0.1 0.7 0.3c0.7 0.5 1.2 0.9 1.7 1.5 0.7 0.7 1.5 1.6 3.6 2.6zm3.3-4.1c-1-0.5-2.8-1.1-5.1-1.2q0.6 0.2 1.3 0.4c2.3 0.9 3.7 1.9 5 2.8q0.4 0.4 0.8 0.7c1.1 0.7 1.9 1.3 2.6 1.7q-0.5-0.5-0.9-1l-0.2-0.2c-1.1-1.4-2-2.4-3.5-3.2zm9.2-18.7c0.2 0.8 0.1 1.7-0.1 2.4 0.4-1 0.9-2.5 1.1-4.7 0.6-5-1.2-7.8-2.4-9.9q-0.5-0.7-0.8-1.4c-0.4-0.8-0.6-1.7-0.7-2.6-0.2-0.8-0.3-1.5-0.6-2.2 0 1.5-0.2 3.2-0.3 5-0.2 2.1-0.4 4-0.2 5.4 0.3 2.4 1.4 3.8 2.4 5.1 0.7 0.9 1.4 1.8 1.6 2.9zm-3.5 8c1.8-0.5 4.6-1.2 7.1-0.9 2.2 0.4 3.5 1 4.8 1.8 1 0.5 2.1 1.1 3.6 1.5 1.5 0.5 2.8 0.7 4 0.9-1.4-0.5-2.7-1.3-4-2.1-2.2-1.4-4.4-2.9-7.9-3.1-3.2-0.2-5.9 0.9-7.6 1.9zm20 4q0.7-0.1 1.3-0.1-0.5-0.1-1.1-0.1c-1.4-0.2-3-0.4-4.9-1-1.5-0.5-2.6-1-3.6-1.6-1.3-0.7-2.5-1.4-4.7-1.6-2.2-0.4-4.8 0.2-6.6 0.7 1.9-0.1 4.9-0.1 7 0.8q1.4 0.6 2.5 1.2c2 1 3.4 1.7 5.6 1.8 2 0 3.4-0.1 4.5-0.1zm-2.5 0.5q-0.2 0-0.5 0-0.7 0-1.5 0c-2.3-0.1-3.9-0.9-5.8-1.8q-1.1-0.6-2.4-1.2c-1.8-0.8-4.3-0.9-6.1-0.8 0.8 0.1 1.7 0.3 2.6 0.6 1.2 0.4 2.1 0.9 3 1.5 1.4 0.9 2.8 1.7 5.7 2 1.8 0.1 3.5-0.1 5-0.3zm-9.1-7.3c1.7 0.2 4.5 1 7.7 3.4 0.6-0.1 2.4-0.6 4.1-1.8 1-0.7 2.1-1.4 3-1.8-1.3-0.1-3.3-0.2-5.5-0.4-2.8-0.3-6.6-0.2-9.3 0.6zm32.5-39.5q-0.9 1.2-1.9 2.6c-2.3 3.2-4.9 6.8-8.4 9.6-3.6 2.8-6.2 3.9-8.5 4.9-0.9 0.4-1.7 0.8-2.6 1.2q0.3 0 0.6-0.1c1.2-0.4 2.7-0.7 4.6-1 1.4-0.4 3.1-0.9 5-1.7q0.2-0.1 0.3-0.1c2-1.1 3.1-2.2 3.1-2.2q0 0 0 0c2.4-2.4 4.1-5.8 5.8-9.2q1-2.1 2-4zm-19 16.7c2.3-1 4.9-2.1 8.5-4.9 3.4-2.7 6-6.3 8.3-9.4 0.9-1.4 1.8-2.5 2.6-3.6-1.2 0.9-3.1 2.1-5.5 3.6-4.2 2.5-6.3 4.5-9.7 8.2-1.3 1.3-2.4 2.5-3.4 3.6-1.3 1.4-2.5 2.7-3.6 3.9 1-0.5 1.9-0.9 2.8-1.4zm-3.2 1.2c1.2-1.3 2.3-2.5 3.7-3.9 1-1.1 2.1-2.3 3.4-3.7 3.4-3.7 5.6-5.7 9.8-8.3q2.6-1.6 4.3-2.7c-1.3 0.6-2.5 1.2-3.8 1.7-2.4 1-4.7 2-7.2 3.4-4 2.4-5.3 4.9-6.8 7.7-0.4 0.9-0.9 1.8-1.5 2.8-0.8 1.3-1.4 2.2-1.9 3zm21.9-5.3c-3.9 0.3-6.4 1.1-7 1.2-0.9 1-2 1.7-3.1 2.3-1.4 0.7-3.2 1.4-5.5 1.8q-0.1 0-0.2 0.1-1.7 0.4-3.1 0.7-0.7 0.1-1.4 0.3-1.6 0.5-2.4 0.8c1.3 0.2 2.5 0.6 3.8 1 1.6 0.6 3.3 1.2 5.6 1.3q0.2 0 0.3 0c3.1 0 4.7-1.9 6.5-4.2 0.8-0.9 1.6-1.9 2.6-2.8 1.3-1.2 2.7-2 3.9-2.5z"/>
	<path id="Layer" class="s0" d="m109 128.3l-0.9 3 2.6-1.8 2.6 1.8-0.9-3 2.6-1.9-3.2-0.1-1-3-1.1 3h-3.2z"/>
	<path id="Layer" class="s0" d="m124.9 124.2l-0.8-2.4-0.9 2.4-2.6 0.1 2.1 1.6-0.8 2.5 2.2-1.5 2.1 1.5-0.7-2.5 2.1-1.6z"/>
	<path id="Layer" class="s0" d="m135.9 118.9l-0.8-2.3-0.8 2.2-2.3 0.1 1.8 1.4-0.7 2.2 2-1.3 1.9 1.4-0.7-2.3 1.9-1.4z"/>
	<path id="Layer" class="s0" d="m144.1 110.6l-0.7-2.2-0.8 2.2h-2.3l1.8 1.4-0.7 2.3 1.9-1.4 2 1.4-0.7-2.2 1.9-1.4z"/>
	<path id="Layer" class="s0" d="m98.7 124.2l-0.9-2.4-0.9 2.4-2.6 0.1 2.1 1.6-0.7 2.5 2.1-1.5 2.2 1.5-0.8-2.5 2.1-1.6z"/>
	<path id="Layer" class="s0" d="m87.6 118.8l-0.8-2.2-0.8 2.3h-2.3l1.8 1.4-0.6 2.3 1.9-1.4 1.9 1.3-0.7-2.2 1.9-1.4z"/>
	<path id="Layer" class="s0" d="m79.3 110.6l-0.8-2.2-0.8 2.2-2.3 0.1 1.9 1.4-0.7 2.2 1.9-1.4 2 1.4-0.7-2.3 1.8-1.4z"/>
	<path id="Layer" class="s0" d="m133.3 74.3c3.1-0.1 5.6-2.7 6.1-5.8 0.2-1.4-0.1-2.9 0-4.3 0.1-2-1-3.6-2.7-4-1.8-0.5-3.6 0.4-4.3 2.1-0.7 1.7-0.2 3.6 1.6 4.5 1 0.6 0.9 1.3 0.2 1.8-0.5 0.5-1.4 0.9-2.1 1-1.5 0.1-2.9 0-4.4 0q-4.2 0-8.4 0c-0.1-0.3-0.2-0.4-0.2-0.6q0-6.3-0.1-12.7c0-1.3 0.9-2.1 2.4-2.3q0.1 0.3 0.3 0.6c1.1 1.7 2.9 2.4 4.6 1.7 1.7-0.7 2.7-2.5 2.2-4.3-0.4-1.7-1.9-2.8-4-2.7q-1 0-2-0.1c-3.9-0.6-8 2.3-8.1 6.3-0.2 6.2-0.1 12.5-0.1 18.9 6.5 0 12.7 0.1 19-0.1z"/>
	<path id="Layer" class="s0" d="m96.1 49.4c-1.6 0.2-2.7 1.7-2.8 3.4-0.1 1.5 0.8 3 2.3 3.5 1.9 0.8 3.5 0.1 5-2.3 1.6 0.3 2.3 1 2.3 2.6q-0.1 4.2-0.1 8.4c0 1.5 0 3 0 4.6-4.6 0-9 0.1-13.4 0-1.3 0-2-0.9-2.2-2.2q0.3-0.2 0.6-0.4c1.8-1.1 2.5-2.9 1.7-4.7-0.7-1.7-2.4-2.5-4.2-2.2-1.8 0.5-2.9 2-2.8 4.1 0.1 0.5 0.1 1 0 1.5-0.8 4.7 2.4 8.7 7.2 8.7q8.3 0 16.7 0c0.4 0 0.7-0.1 1.1-0.1 0-0.2 0.1-0.4 0.1-0.5 0-6 0.1-12 0-18-0.1-3.2-2.6-6.1-5.7-6.5-1.9-0.2-3.9-0.1-5.8 0.1z"/>
	<path id="Layer" class="s0" d="m88.8 81.1c-3.9 0.1-6.9 4.1-6.4 8.1q0.1 1.2 0.1 2.4c0 1.8 1.1 3.3 2.8 3.7 1.7 0.4 3.4-0.4 4.2-2 0.7-1.6 0.3-3.5-1.2-4.5-0.4-0.3-0.7-0.5-1.1-0.7 0.4-1.7 1.1-2.3 2.6-2.3q5.9 0 11.7 0.1c0.4 0 0.8 0 1.4 0.1 0 4.5 0 8.9-0.1 13.2 0 1.3-0.8 2.1-2.2 2.3-0.2-0.2-0.3-0.5-0.4-0.7-1.1-1.7-2.9-2.4-4.6-1.7-1.7 0.7-2.6 2.4-2.2 4.2 0.4 1.9 1.9 2.9 4 2.8 0.4 0 0.9 0 1.3 0 5.3 0.8 8.9-2.3 9-7.6q0-8 0-16c0-0.4-0.1-0.9-0.1-1.4-6.4 0-12.6-0.1-18.8 0z"/>
	<path id="Layer" class="s0" d="m122.6 106.3q1-0.2 2-0.2c2 0.1 3.6-1 3.9-2.8 0.4-1.7-0.5-3.5-2.1-4.2-1.7-0.7-3.6-0.1-4.6 1.6-0.6 1.1-1.3 0.9-1.9 0.2-0.4-0.5-0.8-1.3-0.8-2-0.1-1.6 0-3.3 0-4.9 0-2.6 0-5.3 0-7.9 0.2-0.1 0.3-0.2 0.4-0.2 4.4 0 8.7-0.1 13 0 1.3 0 2.1 0.8 2.2 2.2q-0.3 0.2-0.6 0.4c-1.8 1.1-2.4 2.9-1.7 4.6 0.6 1.7 2.4 2.6 4.2 2.2 1.8-0.4 2.9-2 2.8-4q-0.1-0.9 0.1-1.8c0.7-4.6-2.6-8.4-7.2-8.4q-3.9-0.1-7.8 0c-3.4 0-6.7 0-10.2 0 0 6.3-0.1 12.4 0 18.5 0.1 4.1 4.1 7.3 8.3 6.7z"/>
	<path id="Layer" fill-rule="evenodd" class="s0" d="m52.7 193.4q2.3 3.7 2.3 8.6 0 6.6-4 11-4.5 4.9-13.7 4.9h-14.1v-0.8h1.2q2 0 2.9-1.3 0.5-0.8 0.5-3.5v-20.3q0-3-0.7-3.7-0.9-1-2.7-1h-1.2v-0.9h12.9q7 0 10.7 1.6 3.7 1.6 5.9 5.4zm-3 8.8q0-6.5-3.6-10.3-3.5-3.7-9.1-3.7-2.1 0-4.8 0.7v26.7q3 0.7 5 0.7 5.4 0 8.9-3.8 3.6-3.8 3.6-10.3z"/>
	<path id="Layer" class="s0" d="m65.9 215.8q-0.3-0.7-0.3-2.7v-17.1h-1l-6.4 2.6 0.3 0.9q0.9-0.4 1.6-0.4 0.6 0 0.9 0.3 0.4 0.3 0.5 1 0.2 1 0.2 4.5v8.2q0 2-0.3 2.7-0.3 0.7-0.8 1-0.6 0.3-2.1 0.3v0.8h10.3v-0.8q-1.5 0-2-0.3-0.6-0.4-0.9-1z"/>
	<path id="Layer" class="s0" d="m65.3 188.9q0.7-0.7 0.7-1.7 0-0.9-0.7-1.6-0.7-0.7-1.6-0.7-1 0-1.7 0.7-0.7 0.7-0.7 1.6 0 1 0.7 1.7 0.7 0.7 1.7 0.7 0.9 0 1.6-0.7z"/>
	<path id="Layer" fill-rule="evenodd" class="s0" d="m86 218.3q-1.1 0-1.8-0.8-0.6-0.7-0.7-2.6-3.2 2.5-4.1 2.9-1.2 0.6-2.6 0.6-2.3 0-3.7-1.6-1.4-1.5-1.4-3.9 0-1.6 0.7-2.7 0.9-1.6 3.3-3 2.4-1.4 7.8-3.4v-0.8q0-3.2-1-4.4-1-1.2-2.9-1.2-1.5 0-2.3 0.8-0.9 0.8-0.9 1.8v1.4q0 1-0.5 1.6-0.6 0.6-1.4 0.6-0.9 0-1.5-0.6-0.5-0.6-0.5-1.6 0-2 2-3.7 2.1-1.7 5.8-1.7 2.8 0 4.6 1 1.4 0.7 2 2.2 0.5 1 0.5 4.1v7.2q0 3.1 0.1 3.8 0.1 0.6 0.4 0.9 0.2 0.2 0.6 0.2 0.4 0 0.6-0.2 0.5-0.3 1.9-1.7v1.3q-2.6 3.5-5 3.5zm-2.5-13.1q-3.5 1.4-4.5 2-1.8 1-2.6 2.1-0.8 1.2-0.8 2.5 0 1.7 1 2.8 1 1.1 2.3 1.1 1.8 0 4.6-2.4z"/>
	<path id="Layer" class="s0" d="m99.2 215.8q-0.3-0.6-0.3-2.7v-11.4q1.1-1.3 3-2.3 1.2-0.7 2.5-0.7 1.8 0 2.8 1.5 0.8 1.2 0.8 3.8v9.1q0 1.9-0.1 2.3-0.3 0.8-0.9 1.3-0.7 0.4-2.5 0.4v0.8h10.8v-0.8q-1.6 0-2.3-0.4-0.7-0.3-0.9-0.9-0.3-0.5-0.3-2.7v-10.1-1-0.3q1.8-1.7 3-2.3 1.3-0.6 2.5-0.6 2 0 2.9 1.5 0.6 1.1 0.6 3.7v9.1q0 1.9-0.1 2.3-0.2 0.8-0.7 1.1-0.8 0.6-2.2 0.6h-0.4v0.8h10.5v-0.8q-1.4 0-2-0.4-0.7-0.3-0.9-0.9-0.3-0.7-0.3-2.7v-9.1q0-2.9-0.5-4.3-0.8-1.9-2.1-2.8-1.3-0.9-3-0.9-1.8 0-3.4 0.9-1.6 0.9-4 3.6-0.5-2.2-2-3.3-1.4-1.2-3.4-1.2-1.2 0-2.4 0.5-1.2 0.5-2.3 1.4-0.4 0.3-2.7 2.6v-4.5h-1l-6.4 2.6 0.3 0.8q0.9-0.3 1.6-0.3 0.6 0 1 0.3 0.3 0.3 0.5 1 0.2 1.1 0.2 4.6v8.1q0 2-0.3 2.7-0.3 0.7-0.9 1-0.6 0.3-2.1 0.3v0.8h10.6v-0.8q-1.8 0-2.3-0.3-0.6-0.3-0.9-1z"/>
	<path id="Layer" fill-rule="evenodd" class="s0" d="m147.8 199.7q2.4 3.1 2.4 7.2 0 2.8-1.3 5.8-1.4 2.9-3.8 4.4-2.4 1.5-5.4 1.5-4.8 0-7.6-3.9-2.4-3.2-2.4-7.2 0-2.9 1.5-5.8 1.4-2.9 3.8-4.3 2.4-1.4 5-1.4 4.8 0 7.8 3.7zm-1.9 9q0-5.7-2.4-8.9-1.7-2.3-4.2-2.3-1.3 0-2.5 0.8-1.2 0.7-2 2.5-0.8 1.9-0.8 4.7 0 4.7 1.9 8 1.8 3.4 4.8 3.4 2.3 0 3.8-1.8 1.4-1.9 1.4-6.4z"/>
	<path id="Layer" class="s0" d="m172.5 215.8q-0.3-0.7-0.3-2.7v-9.1q0-2.9-0.5-4.2-0.7-2-2-2.9-1.2-0.9-3-0.9-3.4 0-7.1 4.5v-4.5h-1l-6.4 2.6 0.3 0.9q0.9-0.4 1.6-0.4 0.6 0 0.9 0.3 0.4 0.3 0.6 1.1 0.1 0.9 0.1 4.7v7.9q0 2.3-0.5 3.2-0.6 0.8-2.2 0.8h-0.5v0.8h10.5v-0.8q-1.7 0-2.3-0.3-0.5-0.3-0.9-1-0.2-0.5-0.2-2.7v-11.2q2.7-3 5.5-3 1.8 0 2.5 1.3 0.8 1.3 0.8 4.2v8.7q0 1.8-0.1 2.2-0.2 0.9-0.8 1.3-0.6 0.5-2.1 0.5h-0.5v0.8h10.6v-0.8q-1.6 0-2.1-0.3-0.6-0.4-0.9-1z"/>
	<path id="Layer" fill-rule="evenodd" class="s0" d="m199.3 215.1l0.3 0.8-6.3 2.7h-1.1v-3.1q-1.6 1.6-3.1 2.4-1.4 0.7-3.2 0.7-3.4 0-6-2.9-2.6-3-2.6-7.5 0-4.6 2.8-8.4 2.9-3.8 7.4-3.8 2.9 0 4.7 1.8v-3.9q0-3.7-0.2-4.5-0.2-0.9-0.5-1.2-0.4-0.3-1-0.3-0.6 0-1.6 0.4l-0.3-0.8 6.4-2.6h1v24.6q0 3.7 0.2 4.5 0.2 0.9 0.6 1.2 0.3 0.3 0.8 0.3 0.7 0 1.7-0.4zm-7.1-12.2q-0.2-1.5-0.8-2.8-0.7-1.3-1.9-2-1.1-0.7-2.2-0.7-2.1 0-3.7 1.9-2.1 2.4-2.1 7 0 4.7 2 7.2 2.1 2.5 4.6 2.5 2.1 0 4.1-2.1c0 0 0-11 0-11z"/>
	<path id="Layer" class="s0" d="m88.4 244.4h1.1q1.1 0 2.1 0.5 0.7 0.4 1 1 0.3 0.8 0.3 3.2v20.3q0 2.9-0.6 3.6-0.9 1.1-2.8 1.1h-1.1v0.9h13.5v-0.9h-1.2q-1.1 0-2.1-0.5-0.7-0.4-1-1-0.3-0.8-0.3-3.2v-20.3q0-2.9 0.6-3.6 0.9-1.1 2.8-1.1h1.2v-0.9h-13.5c0 0 0 0.9 0 0.9z"/>
	<path id="Layer" class="s0" d="m104.2 244.4h1.1q1.1 0 2.2 0.5 0.7 0.4 0.9 1 0.3 0.8 0.3 3.2v20.3q0 2.9-0.5 3.6-0.9 1.1-2.9 1.1h-1.1v0.9h13.5v-0.9h-1.1q-1.2 0-2.2-0.5-0.7-0.4-0.9-1-0.3-0.8-0.3-3.2v-20.3q0-2.9 0.6-3.6 0.8-1.1 2.8-1.1h1.1v-0.9h-13.5c0 0 0 0.9 0 0.9z"/>
	<path id="Layer" class="s0" d="m120 244.4h1.2q1.1 0 2.1 0.5 0.7 0.4 0.9 1 0.3 0.8 0.4 3.2v20.3q-0.1 2.9-0.6 3.6-0.9 1.1-2.8 1.1h-1.2v0.9h13.5v-0.9h-1.1q-1.1 0-2.1-0.5-0.8-0.4-1-1-0.3-0.8-0.3-3.2v-20.3q0-2.9 0.6-3.6 0.9-1.1 2.8-1.1h1.1v-0.9h-13.5c0 0 0 0.9 0 0.9z"/>
</svg>