<svg version="1.2" xmlns="http://www.w3.org/2000/svg" viewBox="0 0 223 283" width="223" height="283">
	<title>New Project</title>
	<style>
		.s0 { fill: #f9e026 } 
	</style>
	<path id="Layer" fill-rule="evenodd" class="s0" d="m196.7 111.2c0 0.2-0.2 0.4-0.4 0.4 0 0-3.2 0.5-6 3.1-0.9 0.7-1.6 1.6-2.3 2.5-1.8 2.1-3.5 4.2-6.8 4.2q-0.2 0-0.3 0c-2.3 0-4.1-0.7-5.6-1.2-1.5-0.5-2.8-1-4.4-0.9q-0.4 0.8-0.8 1.6-1 2-2.2 3.9c0.8-0.5 1.6-0.9 2.6-1.1q0 0 0 0 0 0 0-0.1c0-0.6 0.5-1.1 1.1-1.1 0.6 0 1.1 0.5 1.1 1.1 0 0.7-0.5 1.2-1.1 1.2-0.5 0-0.9-0.3-1-0.7q0 0-0.1 0c-1.1 0.3-2.3 0.8-3.2 1.6-1.5 2.4-3.2 4.7-5.1 6.9 2.1-0.9 4.4-1.3 6.7-1.4q0 0 0 0 0 0 0 0c0.1-0.6 0.6-1.2 1.3-1.2 0.8 0 1.4 0.6 1.4 1.4 0 0.7-0.6 1.3-1.4 1.3-0.6 0-1.1-0.5-1.3-1.1q0 0 0 0c-2.5 0.1-5 0.6-7.3 1.7q-1.1 1.2-2.2 2.3-1.3 1.3-2.6 2.4c1.2-0.4 2.6-0.8 4.3-0.9 2.5-1.5 7.4-1.7 10.8-1.4 3.7 0.4 6.7 0.4 6.7 0.4 0.2 0 0.4 0.1 0.4 0.3 0 0.2-0.1 0.4-0.2 0.5 0 0-2.3 1-4.2 2.3-1.2 1-2.5 1.4-3.3 1.7 0.9 0.6 1.9 1.1 2.9 1.3 3.7 0.9 5.2 1.7 5.3 1.8 0.2 0.1 0.2 0.3 0.2 0.4-0.1 0.2-0.3 0.3-0.5 0.3-2.4-0.7-4.5-0.4-6.8 0-1.3 0.2-2.7 0.3-4.2 0.3q-0.7 0-1.3 0c-3-0.2-4.4-1.1-5.8-2-0.8-0.5-1.6-1-2.6-1.3-2.8-1-5.6-0.4-5.6-0.4q-0.1 0-0.1 0-2.5 1.9-5.1 3.6 3.6-0.2 7 0.4c0.2-0.4 0.6-0.7 1-0.7 0.6 0 1 0.5 1 1.1 0 0.5-0.4 1-1 1-0.6 0-1.1-0.5-1.1-1q0 0 0.1 0c-2.6-0.4-5.1-0.5-7.7-0.3q-0.8 0.5-1.6 0.9-1.5 0.9-3.1 1.8 0.3-0.1 0.6-0.1c3.3-0.3 5.9 0.5 7.2 1.2 1.6 0.8 2.4 1.8 3.6 3.2l0.1 0.1c1.4 1.7 2.5 2.6 2.6 2.6 0.1 0.1 0.1 0.3 0.1 0.5q-0.2 0.2-0.4 0.2 0 0-0.1 0c-0.9-0.3-2-0.3-3.3-0.3-2 0-4.3-0.1-6.4-1.1-2.1-1-3-1.9-3.7-2.6-0.4-0.5-0.8-0.9-1.4-1.2-1-0.6-1.8-0.8-2.3-0.8q-4 1.9-7.9 3.4c1.5 0 2.9 0.3 4.4 0.8 0 0 0.2 0.1 0.4 0.2 0.1-0.4 0.5-0.7 1-0.7 0.6 0 1.1 0.5 1.1 1.1 0 0.6-0.5 1.2-1.1 1.2-0.6 0-1.1-0.6-1.1-1.2q0 0 0-0.1-0.1 0-0.1 0c-1.8-0.7-3.8-1-5.7-0.9q-2.6 0.9-5 1.7c1.2 0 2.5-0.1 4.7 1 2.1 1 3.1 2.3 4.1 3.5 0.6 0.8 1.1 1.5 1.9 2.1 0.2 0.1 0.2 0.3 0.1 0.5 0 0.1-0.2 0.2-0.3 0.2-0.2 0-5.6-0.1-9-2.4-2.4-1.8-3.6-3.4-4.1-4.1q-3 0.8-5.8 1.5-1.6 0.4-3.1 0.8 2.1 0.5 4.1 1.1c3.6 1 6.7 2 9.2 2.9 2.5 1 4.4 1.9 5.6 2.6 1.3 0.7 1.9 1.3 2 1.3 0.2 0.2 0.2 0.6 0 0.8-0.2 0.3-0.6 0.3-0.8 0.1 0 0-0.6-0.5-1.7-1.1-1.2-0.7-3.1-1.6-5.5-2.6-2.5-0.9-5.5-1.9-9.1-2.9q-3-0.8-6.4-1.6c-2.2 0.5-4.4 1-6.4 1.6-3.5 1-6.5 2-9 2.9-2.4 1-4.3 1.9-5.5 2.6-1.2 0.6-1.8 1.1-1.7 1.1-0.2 0.2-0.6 0.2-0.8-0.1-0.3-0.2-0.2-0.6 0-0.8 0 0 0.6-0.6 1.9-1.3 1.3-0.7 3.2-1.6 5.7-2.6 2.5-0.9 5.5-1.9 9.1-2.9q2-0.6 4.2-1.1-1.5-0.4-3.1-0.8-2.8-0.7-5.8-1.5c-0.5 0.7-1.7 2.3-4.2 4.1-3.3 2.3-8.7 2.4-8.9 2.4-0.2 0-0.3-0.1-0.4-0.2 0-0.2 0-0.4 0.1-0.5 0.8-0.6 1.4-1.3 1.9-2.1 1-1.2 2-2.5 4.2-3.5 2.1-1.1 3.4-1 4.7-1q-2.5-0.8-5-1.7c-2-0.1-3.9 0.2-5.8 0.9q0 0 0 0 0 0.1 0 0.1c0 0.6-0.5 1.2-1.1 1.2-0.6 0-1.1-0.6-1.1-1.2 0-0.6 0.5-1.1 1.1-1.1 0.4 0 0.8 0.3 1 0.7 0.1-0.1 0.4-0.2 0.4-0.2 1.4-0.5 2.9-0.8 4.4-0.8q-3.9-1.5-7.9-3.4c-0.5 0-1.4 0.2-2.4 0.8-0.6 0.3-0.9 0.7-1.4 1.2-0.6 0.7-1.5 1.6-3.6 2.6-2.1 1-4.4 1.1-6.5 1.1-1.2 0-2.4 0-3.3 0.3q0 0-0.1 0-0.2 0-0.3-0.2c-0.1-0.2 0-0.4 0.1-0.5 0 0 1.2-0.9 2.6-2.6l0.1-0.1c1.1-1.4 2-2.4 3.6-3.2 1.2-0.7 3.9-1.5 7.2-1.2q0.3 0 0.5 0.1-1.5-0.9-3.1-1.8-0.8-0.4-1.6-0.9c-2.5-0.2-5.1-0.1-7.6 0.3q0 0 0 0c0 0.5-0.5 1-1 1-0.6 0-1.1-0.5-1.1-1 0-0.6 0.5-1.1 1.1-1.1 0.4 0 0.8 0.3 0.9 0.7q3.5-0.6 7-0.4-2.6-1.7-5.1-3.6 0 0 0 0c0 0-2.8-0.6-5.6 0.4-1.1 0.3-1.8 0.8-2.6 1.3-1.4 0.9-2.8 1.8-5.8 2q-0.7 0-1.3 0c-1.5 0-2.9-0.1-4.3-0.3-2.2-0.4-4.3-0.7-6.7 0-0.2 0-0.4-0.1-0.5-0.3-0.1-0.1 0-0.3 0.2-0.4 0-0.1 1.5-0.9 5.3-1.8 1-0.2 1.9-0.7 2.9-1.3-0.9-0.3-2.2-0.7-3.4-1.7-1.8-1.3-4.1-2.3-4.1-2.3-0.2-0.1-0.3-0.3-0.2-0.5 0-0.2 0.2-0.3 0.3-0.3 0.1 0 3.1 0 6.8-0.4 3.4-0.3 8.2-0.1 10.8 1.4 1.6 0.1 3.1 0.5 4.3 0.9q-1.4-1.1-2.6-2.4-1.2-1.1-2.2-2.3c-2.3-1.1-4.8-1.6-7.3-1.7q-0.1 0-0.1 0c-0.1 0.6-0.6 1.1-1.3 1.1-0.7 0-1.3-0.6-1.3-1.3 0-0.8 0.6-1.4 1.3-1.4 0.7 0 1.3 0.6 1.3 1.2q0.1 0 0.1 0c2.3 0.1 4.5 0.5 6.6 1.4-1.8-2.2-3.5-4.5-5.1-6.9-0.9-0.8-2-1.3-3.2-1.6q0 0 0 0c-0.2 0.4-0.6 0.7-1 0.7-0.6 0-1.1-0.5-1.1-1.2 0-0.6 0.5-1.1 1.1-1.1 0.6 0 1.1 0.5 1.1 1.1q0 0.1 0 0.1 0 0 0 0c0.9 0.2 1.8 0.6 2.6 1.1q-1.2-1.9-2.3-3.9-0.4-0.8-0.7-1.6c-1.6-0.1-2.9 0.4-4.5 0.9-1.5 0.5-3.2 1.2-5.5 1.2q-0.2 0-0.3 0c-3.3 0-5.1-2.1-6.8-4.2-0.7-0.9-1.5-1.8-2.3-2.5-2.9-2.6-6-3.1-6.1-3.1-0.2 0-0.3-0.2-0.3-0.4 0-0.2 0.2-0.4 0.4-0.4 3.8 0 6.8 0.6 8.4 1-1.9-2.2-3.3-5.1-4.7-7.9-1.2-2.6-2.4-5-3.9-6.8-0.1-0.2-0.1-0.4 0-0.6 0.1-0.1 0.3-0.1 0.5 0 2.3 1.5 4.6 2.5 7.1 3.5 2.2 0.9 4.5 1.9 6.9 3.3 3.9 2.3 5.2 4.8 6.7 7.6 0.4 0.8 0.8 1.7 1.4 2.5q0.7 1.3 1.3 2.2c-0.4-1-0.8-2-1.1-3.1-0.5-1.5-1-2.9-1.4-4.4l-0.3-1.4c-0.6-0.9-1.2-1.6-2-2.3-0.2 0.3-0.5 0.4-0.8 0.4-0.5 0-1-0.4-1-1 0-0.6 0.5-1.1 1-1.1 0.6 0 1.1 0.5 1.1 1.1q0 0.1-0.1 0.3 0.9 0.7 1.6 1.6l-0.4-2q-0.3-1.3-0.5-2.6c-1.3-2.5-3-4.8-5.1-6.6q0 0 0 0c-0.3 0.2-0.6 0.3-1 0.3-0.8 0-1.4-0.6-1.4-1.4 0-0.8 0.6-1.5 1.4-1.5 0.8 0 1.5 0.7 1.5 1.5 0 0.3-0.1 0.5-0.3 0.8q0 0 0 0c1.9 1.6 3.5 3.5 4.7 5.7-0.5-3.1-0.7-6.1-0.8-9.1q-0.1-0.1-0.1-0.2-0.1 0-0.3-0.6-0.4-0.8-0.8-1.6 0 0-0.1 0c-1-1.2-3.8-2.9-7.9-4.9-2.8-1.3-5.2-4.5-7-9.2-1.4-3.9-2.9-6.2-2.9-6.2-0.1-0.2-0.1-0.4 0-0.5 0.1-0.1 0.3-0.2 0.5-0.1 1.7 1 3 2.1 3.9 2.9-0.8-2.6-1.3-5.4-1.8-7.9-0.5-2.3-0.9-4.4-1.4-6.1 0-0.2 0.1-0.4 0.2-0.4 0.2-0.1 0.5 0 0.5 0.1 0.9 1.8 3 3.7 5.2 5.6-0.2-1.1-0.4-3 0-5.3 0-0.2 0.1-0.3 0.3-0.3 0.2 0 0.4 0.1 0.4 0.3 0 0 0.5 1.3 2.2 3.4l0.4 0.5c1.8 2.1 4.6 5.4 5.9 10.8 1.2 4.9 0.9 8.6 0.9 8.7q-0.1 0.1-0.1 0.1 0 0.6 0.1 1v0.3c0.1 2.6 1.2 5.7 1.9 7.5q-0.1-1.2 0-2.5c0.1-2.7 0.4-5.3 0.7-7.9-0.1-2.9-0.6-5.8-1.5-8.5q-0.1 0-0.2 0c-0.6 0-1.1-0.5-1.1-1.1 0-0.6 0.5-1.1 1.1-1.1 0.6 0 1.1 0.5 1.1 1.1 0 0.4-0.2 0.7-0.5 0.9q0 0 0 0 1.1 3.4 1.4 6.9c0.4-2.2 0.9-4.5 1.5-6.6q0.8-2.6 1.7-5c-0.1-3.3-0.6-6.6-1.4-9.8q0 0 0 0-0.2 0-0.3 0c-0.7 0-1.3-0.6-1.3-1.3 0-0.8 0.6-1.4 1.3-1.4 0.7 0 1.3 0.6 1.3 1.4 0 0.5-0.3 0.9-0.7 1.1q0 0.1 0 0.1c0.8 2.9 1.3 6 1.4 9q0.8-2.1 1.8-4c0.5-4.4-2.2-8.1-5.1-12l-0.5-0.6c-2.3-3.2-2.8-7.8-3.1-11.1-0.1-1.2-0.2-2.3-0.4-3.1-0.6-2.9-1.4-4.4-3.3-7.2-0.1-0.2-0.1-0.4 0-0.5 0.1-0.1 0.3-0.2 0.5-0.1 4.7 2.1 8.1 7.4 9.4 9.6 0.3-2.5 1.2-5.2 2.1-7.5q0.6-1.6 1-3c0.8-2.5 2-7.7 2-7.8 0.1-0.2 0.2-0.3 0.4-0.3 0.2 0 0.4 0.1 0.4 0.3 0 0 1.1 3.8 1.7 8.1l0.2 1.5c0.7 4.1 1.6 9.8 1 13.9-0.7 4.1-2.1 6.4-3.3 8.2-0.6 0.9-1.1 1.6-1.4 2.4 0 0.2-0.4 2-0.5 4.1 0 1 0.1 1.9 0.1 2.6q0.3-0.6 0.7-1.2c2-3.8 4.2-7 6.4-9.7 1-2.7 1.5-5.5 1.7-8.4-0.6-0.2-1.1-0.7-1.1-1.3 0-0.7 0.6-1.3 1.4-1.3 0.7 0 1.3 0.6 1.3 1.3 0 0.7-0.5 1.3-1.2 1.3q-0.2 3.8-1.3 7.5c1.9-2.4 3.7-4.3 5.4-5.9q0-0.1 0-0.1c2-3.2 3.7-6.5 4.9-10q0 0 0 0c-0.5-0.2-0.9-0.7-0.9-1.3 0-0.7 0.6-1.3 1.4-1.3 0.7 0 1.3 0.6 1.3 1.3 0 0.7-0.6 1.3-1.3 1.3q-0.1 0-0.1 0 0 0.1 0 0.1c-1.1 3.1-2.6 6.1-4.3 9 1.9-1.8 3.4-3.1 4.5-4q1.1-1 1.5-1.3c0.6-0.9 1.2-2.8 1.7-4.8 0.5-2.1 1.2-4.5 2.2-6.4 1.2-2.5 3.8-4.1 6-5.5 1.3-0.9 2.6-1.8 3.4-2.7 0.1-0.1 0.3-0.1 0.5-0.1 0.1 0.1 0.2 0.3 0.2 0.5 0 0.2-0.8 4.4-2.1 7.4 6.4-3.8 16.2-4.6 16.7-4.6 0.2 0 0.4 0.1 0.4 0.3 0 0.2-0.1 0.4-0.3 0.5-1.3 0.4-3.5 2.5-5.8 4.7-2.3 2.1-4.9 4.6-7.4 6.2-3.1 2-7.2 3-10.5 3.8-2.1 0.6-3.9 1-4.5 1.5q-0.1 0.1-0.2 0.1-0.4 0.3-1.3 1c-1.1 1-2.6 2.3-4.5 4.2-1.1 1-2.4 2.3-3.7 3.7 3.1-1.9 6.4-3.4 9.9-4.4 0.1-0.1 0.2 0 0.2 0.1q0-0.1 0-0.2c0-0.7 0.6-1.3 1.4-1.3 0.7 0 1.3 0.6 1.3 1.3 0 0.8-0.6 1.4-1.3 1.4-0.7 0-1.2-0.5-1.3-1.1q0 0.1-0.2 0.2c-3.9 1.1-7.6 2.9-11 5.1-2.5 3-5.2 6.6-7.7 11 1.4-1 4-2.8 8.5-5.8 7.3-5.1 10.6-5.4 15.7-6h0.6c5.2-0.6 8.6-1.8 8.6-1.8 0.2-0.1 0.4 0 0.5 0.2 0.1 0.2 0.1 0.4-0.1 0.5-2.4 1.4-3.9 3.1-5.4 4.8-1.7 1.9-3.4 3.8-6.3 5.1-4.2 1.8-8.5 1.4-12 1-0.9-0.1-1.8-0.2-2.6-0.3q-0.2 0-0.3 0c-3 0-6.8 2.8-9.1 5.7q-1.1 2.3-2.1 4.8c2.2-2 4.8-3.8 7.5-5.1q0 0 0 0 0-0.2 0-0.4c0-0.8 0.6-1.5 1.4-1.5 0.8 0 1.5 0.7 1.5 1.5 0 0.8-0.7 1.4-1.5 1.4-0.5 0-1-0.3-1.2-0.7q0 0 0 0c-2.9 1.5-5.6 3.3-8 5.5q-1.1 2.9-2 5.9-0.3 1.1-0.6 2.2c1.4-1.3 3.4-2.6 4.6-3.1 0.3-0.8 2.3-4.4 7.3-6 2.6-0.9 5-0.9 7.3-0.9 2.6 0 5.2 0 8.1-1 0.2-0.1 0.3 0 0.4 0.1 0.1 0.1 0.2 0.2 0.1 0.4 0 0.1-0.8 2.5-4.8 4.2q0.1 0.1 0.2 0.1c0.8 0.2 1.6 0.4 2.5 0.5 3.6 0.8 6.7 0.6 6.7 0.6q0 0 0 0c0.2 0 0.4 0.1 0.4 0.3 0 0.2-0.1 0.4-0.3 0.5-1.5 0.4-2.9 1.3-4.3 2.2-2.3 1.4-4.9 3.1-9.1 3.4-4.3 0.3-7.7-1-10.2-2-1.4-0.5-2.5-0.9-3.3-0.9-2.2-0.1-4.9 2.3-6.2 4.6-0.7 3.5-1 7.1-1.2 10.8q0 1.8 0 3.7c0.6-2.3 1.5-4.5 2.7-6.6q0 0 0.1 0c-0.3-0.2-0.4-0.5-0.4-0.8 0-0.6 0.5-1 1-1 0.6 0 1.1 0.4 1.1 1 0 0.6-0.5 1.1-1.1 1.1q-0.2 0-0.4-0.1 0 0 0 0c-1.5 2.5-2.5 5.2-2.9 8.1 0.1 2.5 0.3 5 0.6 7.5 0.5-2.4 1.6-4.3 2.5-6l0.2-0.3c0.4-0.8 0.7-1.8 1.1-2.9 0.8-2.6 1.8-5.9 4.5-7.9 2.2-1.6 4.8-2.3 7.3-2.9 1.8-0.5 3.5-0.9 4.8-1.6 0.2-0.1 0.4-0.1 0.5 0.1 0.1 0.1 0.1 0.4 0 0.5-0.1 0-2.2 2.1-3.6 5q-0.4 0.8-0.7 1.5c-1.2 2.6-2.3 5.1-5.2 6.4-1.5 0.6-2.7 1-3.7 1.3-1.5 0.5-2.7 0.9-4 1.7-2.3 1.5-3 6.5-3.2 8.3q0.2 0.6 0.3 1.2l0.9 4.4c0.4 1.4 0.9 2.8 1.4 4.2 0.3 1.3 0.8 2.6 1.4 3.8-0.4-4.1-0.1-8.2 0.8-12.2q0 0 0 0c-0.4-0.2-0.7-0.6-0.7-1 0-0.7 0.5-1.2 1.2-1.2 0.6 0 1.1 0.5 1.1 1.2 0 0.6-0.5 1.1-1.1 1.1q-0.1 0-0.1 0 0 0 0 0c-1 4.3-1.2 8.8-0.8 13.2q0.8 1.7 1.6 3.4 0.3 0.5 0.6 1c-0.1-0.8-0.2-1.7-0.2-2.6q-0.1-1.2 0-2.4 0-0.1 0-0.1 0 0 0-0.2 0-0.6 0-1.3c0-4 0-8.1 3.3-12.5 0.8-1.1 1.7-2 2.4-2.9 1.4-1.5 2.7-2.9 3.8-5.1 0.1-0.2 0.3-0.3 0.5-0.2 0.1 0 0.3 0.2 0.3 0.4-0.1 0.7-0.2 6.2-0.6 8.5q0.6-0.3 1.2-0.5c2.8-1.3 5.4-2.4 7.4-5.6 0.1-0.1 0.3-0.2 0.5-0.1 0.1 0 0.2 0.2 0.2 0.3 0 0.1 0.2 9.8-7.1 13.3-2.3 1.2-4.2 2-5.7 2.6-3.1 1.3-4.5 1.9-5 3.3-0.3 0.8-0.4 1.7-0.4 2.6 0.1 1.6 0.4 3.2 0.7 4.7q1.6 2.7 3.5 5.2c-0.6-3.6-0.7-6.5-0.2-9.3-0.4-0.1-0.6-0.5-0.6-0.9 0-0.6 0.4-1.1 1-1.1 0.6 0 1 0.5 1 1.1 0 0.5-0.4 1-1 1q0 0 0 0c-0.5 3-0.4 6 0.3 10q1.8 2.2 3.8 4.3c-0.4-1-0.6-2.2-0.8-3.8-0.6-5 1.2-7.9 2.4-9.8q0.5-0.7 0.7-1.3c0.4-0.7 0.5-1.5 0.6-2.2 0.3-1.3 0.5-2.6 1.7-3.7 0.1-0.1 0.3-0.1 0.4-0.1 0.2 0.1 0.2 0.3 0.2 0.5-0.3 1.4-0.1 3.7 0.1 5.9 0.2 2 0.4 4 0.2 5.3-0.3 2.5-1.5 4-2.4 5.2-0.7 0.8-1.3 1.5-1.4 2.4-0.4 2.1 1.2 4.3 1.2 4.3q0 0 0 0.1 3.1 2.8 6.5 5.2c-1.2-1.9-2-4.1-2.4-6.4q0 0 0-0.1c-0.6 0-1.1-0.5-1.1-1.1 0-0.6 0.5-1.1 1.1-1.1 0.6 0 1.1 0.5 1.1 1.1 0 0.5-0.3 0.9-0.8 1.1q0 0 0 0c0.5 2.6 1.5 5 3 7.2q2.1 1.4 4.2 2.7 0.1 0 0.1 0-0.2-0.5-0.6-1.1c-1-2-2.3-4.5-2.2-8.1 0-2.3 0.6-4.2 1.2-5.9 0.4-1.5 0.9-2.8 0.9-4.3 0.1-0.2 0.2-0.4 0.4-0.4 0.3 0 0.4 0.2 0.4 0.4 0 0 0.1 2.9 1 5.5 1 2.8 1.3 6.4 0.7 8.6l-0.2 1c-0.3 1.3-0.4 1.5-0.6 2.9-0.1 0.6 0 1.5 0.2 2.1q4.1 2.3 8.2 4.1c-1.3-1.5-2.5-3.1-3.3-4.8q0 0 0-0.1-0.2 0.1-0.3 0.1c-0.6 0-1.1-0.5-1.1-1.1 0-0.5 0.5-1 1.1-1 0.6 0 1 0.5 1 1 0 0.4-0.2 0.7-0.4 0.9q0 0 0 0c1 2 2.4 3.9 4 5.4q2.3 1 4.6 1.8-0.6-0.5-1.2-1.1c-1.2-1.1-2.6-2.3-3.6-4.2-1.6-3.3-1.4-7.5-1-11.4 0-0.2 0.1-0.3 0.3-0.4q0.4 0.1 0.4 0.3c0 0.1 0.8 2.7 2.1 4.6q0.4 0.6 0.8 1c0.5 0.7 1 1.3 1.4 2.2 0.1-1.4 0.6-3.5 2-5.8 0.1-0.2 0.3-0.2 0.5-0.1 0.1 0 0.2 0.2 0.2 0.4 0 0-0.3 1.2 0.2 4.7q0.2 0.8 0.3 1.6c0.3 1.5 0.6 3.2 0.6 4.8-0.1 1.9-0.5 2.9-0.8 3.7q-0.1 0.2-0.2 0.5c3.6 1.2 7.2 2.2 10.5 3.1-0.8-0.7-1.6-1.8-2-3.1-0.7-2.3-0.8-4-0.9-5.8 0-1 0-2.1-0.2-3.3 0-0.2 0.1-0.3 0.3-0.4 0.2 0 0.4 0.1 0.5 0.3 0.4 1.7 1.6 3.1 2.7 4.4 0.9 1.2 1.9 2.4 2.5 3.8 0.8 2.2 0.8 4.1 0.7 5q1.4 0.3 2.8 0.6 1.4-0.3 2.9-0.6c-0.1-0.9-0.2-2.8 0.7-5 0.6-1.4 1.5-2.6 2.5-3.8 1.1-1.3 2.2-2.7 2.7-4.4 0-0.2 0.2-0.3 0.4-0.3 0.2 0.1 0.4 0.2 0.3 0.4-0.1 1.2-0.1 2.3-0.2 3.3 0 1.8-0.1 3.5-0.8 5.8-0.4 1.3-1.2 2.4-2.1 3.1 3.4-0.9 6.9-1.9 10.5-3.1q0-0.3-0.1-0.5c-0.4-0.8-0.8-1.8-0.8-3.7-0.1-1.6 0.2-3.3 0.5-4.8q0.2-0.8 0.3-1.6c0.5-3.5 0.3-4.7 0.3-4.7-0.1-0.2 0-0.4 0.2-0.4 0.2-0.1 0.4 0 0.5 0.1 1.3 2.3 1.8 4.4 2 5.8 0.4-0.9 0.9-1.5 1.4-2.2q0.4-0.4 0.7-1c1.3-1.9 2.1-4.5 2.1-4.6q0.1-0.2 0.4-0.2c0.2 0 0.4 0.1 0.4 0.3 0.3 3.9 0.6 8.1-1.1 11.4-0.9 1.9-2.3 3.1-3.5 4.2q-0.6 0.6-1.2 1.1 2.3-0.8 4.5-1.8c1.7-1.5 3-3.4 4-5.4q0.1 0 0.1 0c-0.3-0.2-0.5-0.5-0.5-0.9 0-0.5 0.5-1 1.1-1 0.6 0 1 0.5 1 1 0 0.6-0.4 1.1-1 1.1q-0.2 0-0.3-0.1 0 0.1 0 0.1c-0.9 1.7-2 3.3-3.4 4.8q4.2-1.8 8.3-4.1c0.1-0.6 0.3-1.5 0.2-2.1-0.3-1.4-0.3-1.6-0.6-2.9l-0.3-1c-0.5-2.2-0.2-5.8 0.8-8.6 0.9-2.6 0.9-5.5 0.9-5.5 0-0.2 0.2-0.4 0.4-0.4 0.2 0 0.4 0.2 0.4 0.4 0.1 1.5 0.5 2.8 1 4.3 0.6 1.7 1.2 3.6 1.2 5.9 0 3.6-1.2 6.1-2.3 8.1q-0.3 0.6-0.6 1.1 0.1 0 0.1 0 2.2-1.3 4.2-2.7c1.5-2.2 2.5-4.6 3-7.2q0 0 0 0c-0.4-0.2-0.8-0.6-0.8-1.1 0-0.6 0.5-1.1 1.1-1.1 0.7 0 1.2 0.5 1.2 1.1 0 0.6-0.5 1.1-1.1 1.1q0 0.1 0 0.1c-0.4 2.3-1.3 4.5-2.5 6.4q3.4-2.4 6.6-5.2 0-0.1 0-0.1c0 0 1.6-2.2 1.2-4.3-0.2-0.9-0.7-1.6-1.4-2.4-0.9-1.2-2.1-2.7-2.5-5.2-0.1-1.3 0-3.3 0.2-5.3 0.2-2.2 0.5-4.5 0.2-5.9-0.1-0.2 0-0.4 0.1-0.5 0.2 0 0.4 0 0.5 0.1 1.1 1.1 1.4 2.4 1.6 3.7 0.1 0.7 0.3 1.5 0.6 2.2q0.3 0.6 0.7 1.3c1.2 1.9 3 4.8 2.5 9.8-0.2 1.6-0.5 2.8-0.8 3.8q2-2.1 3.7-4.3c0.8-4 0.9-7.1 0.4-10q0 0 0 0c-0.6 0-1.1-0.5-1.1-1.1 0-0.5 0.5-1 1.1-1 0.5 0 1 0.5 1 1 0 0.5-0.3 0.9-0.6 1 0.5 2.8 0.4 5.7-0.2 9.3q1.8-2.5 3.5-5.2c0.3-1.5 0.5-3.1 0.7-4.7 0-0.9-0.2-1.8-0.5-2.6-0.5-1.4-1.9-2-4.9-3.3-1.5-0.6-3.4-1.4-5.8-2.6-7.3-3.6-7.1-13.2-7.1-13.3 0-0.1 0.1-0.3 0.3-0.3 0.2-0.1 0.3 0 0.4 0.1 2 3.2 4.7 4.3 7.5 5.6q0.6 0.2 1.2 0.5c-0.4-2.3-0.6-7.8-0.6-8.5 0-0.2 0.1-0.4 0.3-0.4 0.2-0.1 0.3 0 0.4 0.2 1.2 2.2 2.4 3.6 3.8 5.1 0.8 0.9 1.6 1.8 2.5 2.9 3.2 4.4 3.3 8.5 3.3 12.5q0 0.7 0 1.3 0 0.2 0 0.2 0 0 0 0.1 0 1.2-0.1 2.3c0.1 1 0 1.9-0.1 2.7q0.3-0.5 0.6-1 0.7-1.7 1.5-3.4c0.5-4.4 0.2-8.9-0.8-13.2q0 0 0.1 0-0.1 0-0.1 0c-0.6 0-1.1-0.5-1.1-1.1 0-0.7 0.5-1.2 1.1-1.2 0.6 0 1.1 0.5 1.1 1.2 0 0.4-0.3 0.8-0.7 1q0 0 0 0c0.9 4 1.2 8.1 0.9 12.2 0.5-1.2 1-2.5 1.4-3.8 0.4-1.4 1-2.8 1.4-4.2l0.9-4.4q0.1-0.6 0.2-1.2c-0.2-1.8-0.9-6.8-3.2-8.3-1.3-0.8-2.4-1.2-3.9-1.7-1.1-0.3-2.3-0.7-3.7-1.3-3-1.3-4.1-3.8-5.2-6.4q-0.4-0.7-0.7-1.5c-1.4-2.9-3.6-5-3.6-5-0.2-0.1-0.2-0.4-0.1-0.5 0.2-0.2 0.4-0.2 0.5-0.1 1.4 0.7 3.1 1.1 4.8 1.6 2.5 0.6 5.1 1.3 7.4 2.9 2.7 2 3.7 5.3 4.5 7.9 0.4 1.1 0.7 2.1 1.1 2.9l0.2 0.3c0.9 1.7 1.9 3.6 2.4 6 0.4-2.5 0.6-5 0.7-7.5-0.5-2.9-1.5-5.6-3-8.1q0 0 0 0-0.2 0.1-0.4 0.1c-0.6 0-1-0.5-1-1.1 0-0.6 0.4-1 1-1 0.6 0 1.1 0.4 1.1 1 0 0.3-0.2 0.6-0.4 0.8q0.1 0 0.1 0c1.2 2.1 2.1 4.3 2.7 6.6q0-1.9 0-3.7c-0.2-3.7-0.6-7.3-1.2-10.8-1.3-2.3-4.1-4.7-6.2-4.6-0.8 0-2 0.4-3.3 0.9-2.5 1-6 2.3-10.3 2-4.1-0.3-6.7-2-9.1-3.4-1.4-0.9-2.7-1.8-4.3-2.2-0.2-0.1-0.3-0.3-0.3-0.5 0.1-0.2 0.2-0.3 0.4-0.3q0 0 0.1 0c0 0 3 0.2 6.7-0.6 0.9-0.1 1.7-0.3 2.4-0.5q0.1 0 0.2-0.1c-3.9-1.7-4.7-4.1-4.8-4.2 0-0.2 0-0.3 0.1-0.4 0.1-0.1 0.3-0.2 0.4-0.1 3 1 5.6 1 8.1 1 2.4 0 4.8 0 7.4 0.9 4.9 1.6 6.9 5.2 7.3 6 1.1 0.5 3.1 1.8 4.6 3.1q-0.3-1.1-0.6-2.2-0.9-3-2-5.9c-2.4-2.2-5.1-4-8-5.5q0 0 0 0c-0.3 0.4-0.7 0.7-1.3 0.7-0.8 0-1.4-0.6-1.4-1.4 0-0.8 0.6-1.5 1.4-1.5 0.9 0 1.5 0.7 1.5 1.5q0 0.2-0.1 0.4 0 0 0 0c2.8 1.3 5.3 3.1 7.6 5.1q-1-2.6-2.2-4.8c-2.3-2.9-6.1-5.7-9.1-5.7q-0.1 0-0.2 0c-0.8 0.1-1.7 0.2-2.7 0.3-3.4 0.4-7.8 0.8-12-1-2.9-1.3-4.5-3.2-6.3-5.1-1.4-1.7-3-3.4-5.3-4.8-0.2-0.1-0.3-0.3-0.2-0.5 0.1-0.2 0.3-0.3 0.5-0.2 0 0 3.4 1.2 8.7 1.8h0.6c5 0.5 8.3 0.9 15.7 6 4.4 3 7.1 4.8 8.5 5.8-2.5-4.4-5.2-8-7.8-11-3.4-2.2-7.1-4-11-5.1q-0.1-0.1-0.1-0.2c-0.1 0.6-0.7 1.1-1.3 1.1-0.7 0-1.3-0.6-1.3-1.4 0-0.7 0.6-1.3 1.3-1.3 0.7 0 1.3 0.6 1.3 1.3q0 0.1 0 0.2c0.1-0.1 0.1-0.2 0.2-0.1 3.5 1 6.8 2.5 9.9 4.4-1.3-1.4-2.5-2.7-3.6-3.7-1.9-1.9-3.5-3.2-4.6-4.2q-0.8-0.7-1.2-1-0.1 0-0.2-0.1c-0.6-0.5-2.4-0.9-4.5-1.5-3.3-0.8-7.4-1.8-10.5-3.8-2.5-1.6-5.1-4.1-7.4-6.3-2.3-2.1-4.5-4.2-5.9-4.6-0.2-0.1-0.3-0.3-0.2-0.5 0-0.2 0.2-0.3 0.4-0.3 0.4 0 10.3 0.8 16.6 4.6-1.2-3-2-7.2-2-7.4-0.1-0.2 0-0.4 0.2-0.5 0.1 0 0.3 0 0.4 0.1 0.8 0.9 2.1 1.8 3.5 2.7 2.2 1.4 4.7 3 6 5.5 1 1.9 1.6 4.3 2.2 6.4 0.5 2 1 3.9 1.7 4.8q0.3 0.3 1.5 1.3c1.1 0.9 2.6 2.2 4.4 4-1.7-2.9-3.1-5.9-4.2-9q0 0 0-0.1 0 0-0.1 0c-0.7 0-1.3-0.6-1.3-1.3 0-0.7 0.6-1.3 1.3-1.3 0.7 0 1.3 0.6 1.3 1.3 0 0.6-0.3 1.1-0.8 1.2q0 0.1 0 0.1c1.2 3.5 2.8 6.8 4.8 10q0.1 0 0.1 0c1.6 1.7 3.5 3.6 5.4 6q-1.1-3.7-1.3-7.5c-0.7 0-1.3-0.6-1.3-1.3 0-0.7 0.6-1.3 1.4-1.3 0.7 0 1.3 0.6 1.3 1.3 0 0.6-0.4 1.1-1 1.3 0.1 2.9 0.7 5.7 1.6 8.4 2.2 2.7 4.5 5.9 6.5 9.7q0.3 0.6 0.6 1.2c0.1-0.7 0.2-1.6 0.1-2.6-0.1-2.1-0.4-3.9-0.5-4.1-0.2-0.8-0.7-1.5-1.3-2.4-1.2-1.8-2.7-4.1-3.3-8.2-0.6-4.1 0.3-9.8 0.9-14l0.2-1.4c0.7-4.3 1.7-8.1 1.8-8.1 0-0.2 0.2-0.3 0.3-0.3q0 0 0 0c0.2 0 0.4 0.1 0.4 0.3 0 0.1 1.3 5.3 2 7.8 0.3 0.9 0.7 1.9 1.1 3 0.8 2.3 1.8 5 2.1 7.5 1.3-2.2 4.7-7.5 9.4-9.6 0.2-0.1 0.3 0 0.5 0.1 0.1 0.1 0.1 0.3 0 0.5-1.9 2.8-2.7 4.3-3.4 7.2-0.1 0.8-0.2 1.9-0.4 3.1-0.3 3.3-0.7 7.9-3.1 11.1l-0.4 0.6c-2.9 3.9-5.6 7.6-5.1 12q0.9 1.9 1.7 4c0.2-3.1 0.6-6.1 1.4-9q0 0 0-0.1c-0.4-0.2-0.7-0.6-0.7-1.1 0-0.8 0.6-1.4 1.4-1.4 0.7 0 1.3 0.6 1.3 1.4 0 0.7-0.6 1.3-1.3 1.3q-0.2 0-0.3 0 0 0 0 0c-0.9 3.2-1.3 6.5-1.4 9.8q0.9 2.4 1.6 5c0.7 2.1 1.2 4.3 1.6 6.6q0.3-3.5 1.4-6.9 0 0 0 0c-0.3-0.2-0.5-0.5-0.5-0.9 0-0.6 0.5-1.1 1.1-1.1 0.6 0 1.1 0.5 1.1 1.1 0 0.6-0.5 1.1-1.1 1.1q-0.1 0-0.3 0c-0.9 2.7-1.4 5.6-1.5 8.5 0.4 2.6 0.6 5.2 0.8 7.9q0 1.3 0 2.5c0.7-1.8 1.7-4.9 1.9-7.5v-0.3q0-0.4 0-1 0 0 0-0.1c0-0.2-0.3-3.8 0.9-8.7 1.3-5.4 4-8.7 5.8-10.8l0.5-0.5c1.7-2.1 2.1-3.4 2.1-3.4 0.1-0.2 0.3-0.3 0.4-0.3 0.2 0 0.4 0.1 0.4 0.3 0.3 2.3 0.2 4.2 0 5.3 2.2-1.9 4.2-3.8 5.1-5.6 0.1-0.1 0.3-0.2 0.5-0.1 0.2 0 0.3 0.2 0.2 0.4-0.5 1.7-0.9 3.8-1.3 6-0.5 2.6-1.1 5.4-1.8 7.9 0.8-0.7 2.2-1.8 3.9-2.8 0.1-0.1 0.3 0 0.5 0.1 0.1 0.1 0.1 0.3 0 0.5 0 0-1.5 2.3-3 6.2-1.7 4.7-4.1 7.9-6.9 9.2-4.2 2-6.9 3.7-7.9 4.9q-0.1 0-0.2 0-0.4 0.8-0.7 1.6-0.3 0.5-0.3 0.6-0.1 0.1-0.1 0.2c-0.1 3-0.4 6-0.8 9.1 1.2-2.2 2.8-4.1 4.6-5.7q0 0 0 0c-0.1-0.3-0.2-0.5-0.2-0.8 0-0.8 0.6-1.5 1.4-1.5 0.9 0 1.5 0.7 1.5 1.5 0 0.8-0.6 1.4-1.5 1.4-0.3 0-0.7-0.1-0.9-0.3q0 0 0 0c-2.1 1.8-3.9 4.1-5.1 6.6q-0.2 1.3-0.5 2.6l-0.4 2q0.7-0.9 1.6-1.6-0.1-0.2-0.1-0.3c0-0.6 0.5-1.1 1-1.1 0.6 0 1.1 0.5 1.1 1.1 0 0.6-0.5 1-1.1 1-0.3 0-0.6-0.1-0.8-0.4q-1.1 1-1.9 2.3l-0.3 1.4c-0.4 1.5-1 2.9-1.4 4.4-0.3 1.1-0.7 2.1-1.1 3.1q0.5-0.9 1.3-2.2c0.5-0.8 1-1.7 1.4-2.5 1.5-2.8 2.8-5.3 6.7-7.6 2.4-1.4 4.7-2.4 6.9-3.3 2.4-1 4.8-2 7.1-3.5 0.1-0.1 0.3-0.1 0.5 0 0.1 0.2 0.1 0.4 0 0.5-1.5 1.9-2.7 4.3-4 6.9-1.4 2.8-2.8 5.6-4.6 7.9 1.6-0.4 4.5-1 8.4-1 0.2 0 0.3 0.2 0.4 0.4zm-63.2 56q0 0 0 0 0 0 0 0zm46.2-82.8c0.4-1.2 0.7-2.5 1.2-4 0.7-2.8 1.6-5.7 2.6-7.9 2.2-4.3 6.1-9.2 8.5-12q-1.2 1.1-2.6 2.2c-1.9 1.7-4 3.5-5.4 5.3q0 0 0 0.1-0.3 0.3-0.6 0.7c-0.9 1.5-1.6 3-2 4.5-0.4 1.1-0.6 2.2-0.8 3.1q0 0.3-0.1 0.5 0 0 0 0.1c-0.2 1.5-0.3 2.9-0.3 4l-0.1 0.2c0 1.1-0.2 2.2-0.4 3.2zm4.2-11.7c-1.1 2.1-1.9 5-2.7 7.8-0.4 1.5-0.8 3-1.2 4.3 2.4-3.5 4.3-6.3 6.8-10.7 1.5-2.6 3-6.3 4.3-9.5 0.8-1.8 1.5-3.6 2.2-5-2.1 2.3-7 8.1-9.4 13.1zm7.4 0.1q-0.6 1.7-1.4 3.1-0.2 0.2-0.4 0.5-0.1 0.2-0.3 0.4c-1.1 1.6-2.5 3-5 5.2l-0.9 0.9c-1.2 1.1-2.2 2.2-3 3.2 1.8-1.2 4.1-2.4 6-3.3 3.4-1.6 5.4-5.7 6.6-8.8 0.8-2.2 1.6-3.9 2.2-5-1.8 1.3-3.1 2.5-3.4 2.8 0 0.2-0.2 0.5-0.4 1zm1.9-10.5q0.3-1.5 0.6-2.9c-0.7 1.4-1.5 3.3-2.3 5.4-1.3 3.2-2.8 6.9-4.4 9.5-2.3 4-4 6.7-6.2 9.8 1.1-1.2 2.2-2.2 3.3-3.1 0.9-0.9 1.8-1.7 2.7-2.6q0 0 0 0 1.1-1.1 1.9-2.4c0.8-1.2 1.4-2.6 1.8-3.5 1.2-3.2 2-6.8 2.6-10.2zm-12.5 10.4c0.5-1.5 1.1-2.9 1.9-4.1q0.3-0.4 0.6-0.8 0.1-0.1 0.2-0.3c2.2-2.8 4.5-4.6 5.1-5 0.1-0.5 0.5-2.2 0.4-4.6-0.4 0.6-0.9 1.4-1.7 2.4l-0.5 0.5c-1.8 2.2-4.4 5.2-5.7 10.5q-0.2 0.7-0.3 1.4zm-13.1-42.2q0 0.9 0 1.8c-0.1 5.2-0.1 12.9 2.4 17.2q0.2-1 0.3-2c0.4-3 0.8-6.1 0.5-11.2-0.2-3.4-1-7.4-1.7-10.9-0.3-2-0.7-3.8-0.9-5.2-0.2 2.9-0.6 7.8-0.6 10.3zm6.3 5.7c0 0.3 0 1-0.1 2.1-0.1 1.4-0.2 3-0.6 4.8-0.4 1.9-1.2 3.9-1.8 5.4q0 0.1-0.1 0.2c-0.4 1-0.8 1.8-1 2.1 0.1 0.4 0.4 2.1 0.5 4q0 0.6 0 1c0.9-2.8 2.8-5.5 4.8-8.2l0.5-0.7c2.2-3 2.6-7.5 3-10.7 0.1-1.2 0.2-2.3 0.4-3.1 0.5-2.6 1.2-4.1 2.6-6.3-4.7 2.9-7.8 8.7-8.2 9.4zm-4.1-11.5c-0.3-1.1-0.8-2.7-1.1-4.1 0.2 1.3 0.5 2.9 0.8 4.7 0.7 3.5 1.5 7.6 1.7 11 0.3 5.1-0.1 8.2-0.5 11.3q-0.1 0.4-0.1 0.8 0.1-0.3 0.2-0.6 0.1-0.1 0.2-0.3c0.6-1.6 1.1-3.2 1.4-4.6q0-0.1 0.1-0.3c0.3-1.8 0.4-3.3 0.5-4.4q0-1 0-1.9c0-2.7-1.2-5.8-2.2-8.6q-0.6-1.6-1-3zm-0.9 23.3q0 0 0 0.1c-1.8-4.5-1.8-11.2-1.7-15.8q0-0.9 0-1.8c0-2.7 0.5-8.4 0.7-11.1-0.4 1.4-0.8 3.4-1.1 5.5l-0.2 1.5c-0.7 4.1-1.5 9.7-0.9 13.7 0.6 3.9 2 6.1 3.2 7.9zm-44.6-29.5c3.1 1.1 8.5 3.1 11 4.6 1.8 1.1 4.1 2.9 6.6 4.9 2 1.6 4 3.2 5.8 4.4-1-1.2-2.5-2.8-3.5-4q-0.7-0.7-1.6-1.5c-1.5-1.4-3.2-2.9-3.9-3.4-4-3-10.5-4.4-14.4-5zm-0.6 0.2c2.3 1.4 4.4 2.8 6.7 4.3 1.6 1.1 3.3 2.2 5.3 3.5 3.9 2.5 8.7 4.8 11.3 5.9-1.6-1.2-3.5-2.7-5.3-4.1-2.5-2-4.8-3.8-6.6-4.9-2.6-1.6-8.4-3.7-11.4-4.7zm15.6 4.2q0.2 0.2 0.5 0.4 1.7 1.5 3.2 2.9 0 0 0 0 0.2 0.1 0.3 0.2 0.7 0.7 1.2 1.3 0.1 0.1 0.2 0.2c1.3 1.3 2.4 2.5 3.2 3.5q-0.3-1.2-0.7-2.5c-0.5-2-1.2-4.4-2.1-6.2-1.2-2.3-3.6-3.9-5.7-5.3-1-0.6-1.9-1.2-2.7-1.9 0.4 1.8 1.2 5.2 2.3 7.2q0.1 0 0.3 0.2zm5.6 9.2q0.5 0.1 1 0.2c-2.7-1.2-7-3.2-10.4-5.4-2-1.3-3.7-2.5-5.3-3.6-1.9-1.3-3.7-2.4-5.6-3.6q1.2 1.1 2.7 2.5c2.3 2.1 4.9 4.6 7.3 6.1 3 1.9 7 3 10.3 3.8zm2.9 17.8c4.2 1.6 10.4 2.1 13.1 2.3-1.6-0.6-3.3-1.3-5.2-2-2-0.8-4.1-1.7-6.1-2.4-3.4-1.2-10.4-3.5-13.2-4.4q0.1 0.1 0.2 0.2c2.2 1.6 7 4.8 11.2 6.3zm-5.1-5.6q-2.2-0.2-3.9-0.5c3.4 1.1 8.3 2.7 10.9 3.6 2.1 0.8 4.2 1.6 6.2 2.4q2.7 1.1 5.1 2-1.1-0.7-2.4-1.6c-7.2-4.9-10.2-5.3-15.3-5.8zm16.1 8.1c-3.2-0.3-7.8-0.9-11.2-2.1-3.1-1.2-6.7-3.3-9.2-5q0.7 0.7 1.3 1.4c1.7 1.9 3.3 3.7 6.1 4.9 4 1.8 8.2 1.3 11.5 1q0.8-0.1 1.5-0.2zm-5.9 13.4c1.8-0.4 3.9-0.7 7.4-0.4 3.4 0.3 5.5 1.3 7 2.2q0.5 0.2 0.9 0.5c-1-1.3-2.9-3.2-5.9-4.1-2.4-0.8-4.5-0.8-6.8-0.8q-0.1 0-0.3 0c-2.3 0-4.7 0-7.4-0.8 0.6 0.9 2 2.3 4.9 3.4q0.1 0 0.2 0zm-7.9 2.2c2.2 0.2 4.8 0 7.5-0.2 1.7-0.1 3.4-0.2 5.1-0.3q0.2 0 0.3 0c4 0 8.9 1.4 11 2.1q-0.4-0.2-0.8-0.5-0.5-0.4-1.1-0.8c-1.6-0.9-4-1.8-7-2.1-3.1-0.3-6.2 0.2-7 0.3q-0.8 0.2-1.6 0.4c-0.8 0.2-1.6 0.4-2.5 0.6-1.5 0.3-2.8 0.4-3.9 0.5zm12.9-0.1q-0.1 0-0.3 0c-1.7 0.1-3.4 0.2-5.1 0.3-2.7 0.2-5.3 0.4-7.5 0.2 2.4 0.8 6.6 1.9 11.4 2.2 3.9 0.2 6-0.2 7.8-0.5 1.1-0.2 2.1-0.3 3.4-0.3q0.3 0 0.5 0c-2.3-0.7-6.6-1.9-10.2-1.9zm9.8 2.2c-1.3 0-2.3 0.2-3.4 0.4-1.5 0.2-3.1 0.5-5.6 0.5q-1 0-2.3-0.1c-4.3-0.2-8.1-1.1-10.6-1.9q0.4 0.3 0.8 0.6c2.4 1.5 4.8 3 8.8 3.3 4.1 0.3 7.5-1 9.9-1.9 0.9-0.4 1.7-0.7 2.4-0.9zm3.8 22.8q0.3 0.1 0.6 0.3c-0.6-1-1.1-1.8-1.6-2.7-0.8-1.5-1.6-3-3.4-5-2.1-2.3-4.1-3.3-6.7-4.5q-1.2-0.6-2.7-1.4c1 1 2.5 2.6 4.2 4.5q0.6 0.8 1.2 1.6c1.9 2.4 3.8 4.8 7.2 6.6q0.6 0.3 1.2 0.6zm-11.8-13.1q-0.8-0.2-1.7-0.4 1.4 0.7 2.6 1.2c2.6 1.3 4.6 2.3 6.8 4.7 1.8 2 2.6 3.5 3.5 5q0.3 0.6 0.6 1.1-0.2-0.6-0.5-1.3c-0.7-2.5-1.7-5.6-4.2-7.5-2.1-1.6-4.6-2.2-7.1-2.8zm8.4 11.7q0.2 0.1 0.4 0.2c-2.5-1.7-4.1-3.7-5.7-5.7q-0.6-0.8-1.2-1.6c-2-2.3-3.8-4.1-4.7-5 0.7 0.9 1.4 2 2.1 3.3q0.3 0.8 0.7 1.6c1.1 2.4 2.1 4.8 4.8 5.9 1.4 0.6 2.6 1 3.6 1.3zm-0.5 23.2c-1-3-4.6-6.5-7.7-8.2l-0.7-0.3c-2.7-1.5-6-3.2-8.2-6.5 0.7 2.1 2.6 5.9 6.6 8l1.3 0.8c4.4 2.4 6.1 3.3 8.7 6.2zm-7.8-11.3c1.5 0.7 2.9 1.5 4.3 2.8q0.6 0.5 1.1 1c1.3 1.4 2.1 3 2.6 4.4-0.2-2.9-0.8-5.8-3.1-8.8-0.8-1.1-1.6-2-2.4-2.9-1.1-1.2-2.1-2.4-3.1-3.9 0.1 2.5 0.3 6.3 0.6 7.4zm-8.6-4.2c2.1 3.3 5.5 5.2 8.2 6.6l0.7 0.4c2.4 1.3 5.9 4.4 7.5 7.4q-0.2-0.7-0.5-1.5c-0.5-1.6-1.4-3.2-2.8-4.6q-0.4-0.4-0.8-0.8c-1.7-1.4-4.1-2.7-4.2-2.7q0 0 0 0-0.9-0.4-1.8-0.9c-2.3-1-4.5-1.9-6.3-3.9zm11.6 13c1.6 0.7 2.8 1.2 3.6 1.8-2-2.2-3.7-3.1-7.7-5.2l-1.3-0.7c-4.2-2.3-6.1-6.3-6.8-8.4 0.5 3 1.9 7.8 6.5 10 2.3 1.1 4.2 1.9 5.7 2.5zm-18.9 28.6c0.3 1.3 0.4 1.5 0.6 2.9q0.1 0.1 0.1 0.2 0 0 0-0.1c1-1.9 2.3-4.3 2.2-7.7 0-2.3-0.6-4-1.2-5.7q-0.2-0.9-0.5-1.7c-0.1 0.9-0.4 1.9-0.7 2.9-0.9 2.7-1.2 6.1-0.7 8.2zm-66.9 3q0 0 0 0.1 0-0.1 0-0.2c0.3-1.5 0.3-1.7 0.7-2.9l0.2-1.1c0.5-2.1 0.2-5.4-0.7-8.2-0.3-1-0.6-2-0.7-2.9q-0.3 0.9-0.5 1.7c-0.6 1.7-1.2 3.5-1.2 5.7-0.1 3.5 1.2 5.8 2.2 7.8zm-14.3-35.4l1.3-0.7c4-2.2 5.8-5.9 6.6-8-2.2 3.2-5.5 5-8.3 6.4l-0.6 0.4c-3.1 1.6-6.7 5.2-7.7 8.1 2.6-2.9 4.2-3.8 8.7-6.2zm8.3-8.7c-0.7 2.1-2.6 6.1-6.8 8.3l-1.3 0.8c-4 2.1-5.7 3-7.7 5.1 0.8-0.5 2-1 3.6-1.7 1.5-0.6 3.4-1.4 5.7-2.6 4.5-2.2 6-6.9 6.5-9.9zm-8.7 4.3q0 0 0 0c-0.1 0-2.5 1.3-4.2 2.7q-0.5 0.4-0.9 0.8c-1.3 1.4-2.2 2.9-2.7 4.5q-0.3 0.8-0.5 1.5c1.6-3 5-6 7.5-7.4l0.7-0.3c2.7-1.5 6.1-3.3 8.2-6.6-1.8 1.9-4 2.9-6.3 3.9q-0.9 0.4-1.8 0.9zm-8.5 7.6c0.5-1.5 1.3-3 2.6-4.4q0.4-0.5 1.1-1c1.4-1.3 2.8-2.2 4.3-2.9 0.3-1 0.5-4.8 0.6-7.4-1 1.6-2 2.8-3.1 4-0.8 0.8-1.6 1.7-2.4 2.8-2.3 3.1-3 6-3.1 8.9zm-2.5-19.3c3.4-1.8 5.3-4.3 7.2-6.6q0.6-0.8 1.2-1.6c1.7-2 3.2-3.5 4.2-4.5q-1.5 0.8-2.7 1.3c-2.6 1.3-4.6 2.3-6.7 4.6-1.8 2-2.6 3.5-3.4 4.9-0.5 0.9-1 1.8-1.6 2.7q0.3-0.1 0.6-0.2 0.6-0.4 1.2-0.6zm13.4-12.9c-0.9 0.9-2.7 2.6-4.7 4.9q-0.6 0.8-1.2 1.6c-1.6 2-3.2 4-5.7 5.7q0.2 0 0.4-0.1c1-0.3 2.2-0.7 3.6-1.3 2.7-1.2 3.7-3.5 4.8-6q0.4-0.7 0.7-1.5c0.7-1.3 1.4-2.4 2.1-3.3zm-14.2 10.6q-0.2 0.8-0.4 1.4 0.3-0.6 0.6-1.1c0.8-1.5 1.7-3.1 3.5-5.1 2.2-2.4 4.2-3.3 6.8-4.6q1.2-0.6 2.6-1.3-0.9 0.2-1.8 0.5c-2.4 0.6-4.9 1.2-7 2.8-2.5 1.8-3.5 4.9-4.3 7.4zm25.3-21c-2.5 0.7-6.3 1.7-10.6 1.9q-1.3 0.1-2.3 0.1c-2.5 0-4.1-0.3-5.6-0.5-1.1-0.2-2.1-0.4-3.4-0.4 0.7 0.2 1.5 0.5 2.4 0.8 2.4 1 5.8 2.2 9.9 1.9 3.9-0.3 6.4-1.8 8.7-3.3q0.5-0.2 0.9-0.5zm-21.8 0.7c1.3 0 2.3 0.2 3.4 0.4 1.8 0.3 3.9 0.6 7.8 0.4 4.8-0.3 9-1.4 11.4-2.2-2.2 0.3-4.8 0.1-7.5-0.1-1.7-0.2-3.4-0.3-5.1-0.3q-0.2 0-0.3 0c-3.6 0-7.9 1.1-10.3 1.8q0.3 0 0.6 0zm16.2-2.8q-0.8-0.2-1.6-0.4c-0.8-0.2-3.9-0.7-7-0.4-3 0.3-5.4 1.3-7 2.2q-0.7 0.4-1.2 0.7-0.4 0.3-0.7 0.5c2.1-0.6 7-2 11-2q0.1 0 0.3 0c1.7 0 3.4 0.2 5.1 0.3 2.7 0.2 5.3 0.4 7.5 0.1-1.1 0-2.5-0.2-3.9-0.5-0.9-0.2-1.7-0.3-2.5-0.5zm-16.8 1.1q0.4-0.2 0.9-0.5c1.5-0.9 3.6-1.9 7-2.1 3.5-0.3 5.6-0.1 7.4 0.3q0.1 0 0.2 0c2.9-1 4.3-2.5 4.9-3.4-2.7 0.8-5.1 0.8-7.4 0.8q-0.2 0-0.3 0c-2.3 0-4.5 0.1-6.8 0.8-3 1-4.9 2.8-5.9 4.1zm24-39.6c-1 1.1-2.5 2.7-3.5 3.9 1.8-1.2 3.8-2.8 5.8-4.4 2.4-2 4.8-3.8 6.6-4.9 2.5-1.5 7.9-3.5 11-4.6-3.9 0.6-10.4 2-14.4 5-0.7 0.5-2.4 2-3.9 3.4q-0.9 0.8-1.6 1.6zm9.1-5.1c-1.8 1.1-4.1 2.9-6.6 4.9-1.8 1.5-3.7 2.9-5.3 4.1 2.6-1.1 7.4-3.4 11.3-5.9 2-1.3 3.7-2.4 5.3-3.5 2.3-1.5 4.4-2.9 6.7-4.3-3 1-8.8 3.1-11.4 4.7zm10.5-3.7c-1.9 1.2-3.7 2.4-5.6 3.7-1.6 1.1-3.3 2.2-5.3 3.5-3.4 2.2-7.7 4.2-10.4 5.5q0.5-0.2 1-0.3c3.3-0.8 7.3-1.9 10.3-3.7 2.4-1.6 5-4.1 7.3-6.2q1.5-1.4 2.7-2.5zm-22.6 9.2q-0.4 1.3-0.7 2.5c0.8-1 1.8-2.2 3.2-3.5q0.1-0.1 0.1-0.2 0.6-0.6 1.3-1.2 0.1-0.2 0.3-0.3 0 0 0 0 1.5-1.4 3.2-2.9 0.3-0.2 0.5-0.3 0.2-0.2 0.3-0.3c1.1-2 1.9-5.4 2.3-7.2-0.8 0.7-1.7 1.3-2.7 1.9-2.1 1.4-4.5 3-5.7 5.3-0.9 1.8-1.6 4.2-2.1 6.2zm-21-8.7c-0.2 1.4-0.6 3.2-0.9 5.2-0.7 3.5-1.5 7.5-1.7 10.9-0.3 5.1 0.1 8.2 0.5 11.2q0.1 1 0.3 2c2.5-4.3 2.5-12 2.4-17.1q0-1 0-1.9c0-2.5-0.4-7.4-0.6-10.3zm0.3-0.8c0.2 2.7 0.7 8.4 0.7 11.2q0 0.8 0 1.7c0 4.7 0.1 11.3-1.7 15.8q0-0.1 0-0.1c1.2-1.8 2.6-4 3.2-7.9 0.6-4-0.3-9.6-0.9-13.7l-0.2-1.5c-0.3-2.1-0.7-4.1-1.1-5.5zm-5.1 18.8c0.1 1.1 0.2 2.6 0.5 4.4q0.1 0.2 0.1 0.3c0.3 1.5 0.8 3 1.4 4.6q0.1 0.2 0.2 0.4 0.1 0.3 0.2 0.6 0-0.5-0.1-0.9c-0.4-3.1-0.8-6.2-0.5-11.3 0.2-3.4 1-7.4 1.7-11 0.3-1.7 0.6-3.4 0.8-4.7-0.3 1.5-0.8 3.1-1.1 4.1q-0.4 1.4-1 3c-1 2.8-2.2 5.9-2.2 8.6q0 0.9 0 1.9zm2.2 17.7q0-0.5 0-1c0.1-2 0.4-3.6 0.5-4.1-0.2-0.3-0.6-1.1-1-2.1q-0.1-0.1-0.1-0.2c-0.6-1.5-1.4-3.4-1.8-5.4-0.4-1.8-0.5-3.4-0.6-4.8-0.1-1.1-0.1-1.8-0.1-2-0.4-0.8-3.5-6.6-8.2-9.5 1.4 2.2 2.1 3.7 2.6 6.3 0.2 0.8 0.3 1.9 0.4 3.1 0.4 3.3 0.8 7.7 3 10.7l0.5 0.7c2 2.7 3.9 5.4 4.8 8.3zm34.4-12.5c-2.8 0.9-9.8 3.2-13.2 4.4-2 0.7-4.1 1.6-6.1 2.4-1.9 0.7-3.6 1.4-5.2 2 2.7-0.1 8.9-0.7 13.1-2.2 4.2-1.5 9-4.8 11.2-6.4q0.1-0.1 0.2-0.2zm-2 1.9c-2.5 1.7-6.1 3.9-9.3 5-3.3 1.3-8 1.9-11.1 2.2q0.7 0 1.5 0.1c3.3 0.4 7.5 0.8 11.5-0.9 2.8-1.3 4.4-3.1 6.1-4.9q0.6-0.8 1.3-1.5zm-22.6 6.5q2.4-0.9 5.1-2c2-0.8 4.1-1.6 6.2-2.4 2.6-0.9 7.5-2.5 10.9-3.6q-1.7 0.3-3.9 0.6h-0.6c-5.1 0.6-8.1 0.9-15.3 5.8-0.9 0.6-1.7 1.1-2.4 1.6zm-28.4 10.9q-1.4-1.1-2.6-2.2c2.4 2.8 6.3 7.7 8.5 12.1 1 2.1 1.8 5 2.6 7.8 0.5 1.5 0.8 2.9 1.2 4-0.2-1-0.4-2.1-0.5-3.2v-0.2c0-1.1-0.1-2.5-0.3-4q0-0.1 0-0.1-0.1-0.2-0.1-0.5c-0.2-0.9-0.4-2-0.8-3.1-0.4-1.5-1.1-3-2-4.5q-0.3-0.4-0.6-0.7 0-0.1 0-0.1c-1.4-1.8-3.5-3.6-5.4-5.3zm-3.9-3.1c0.7 1.4 1.4 3.2 2.2 5 1.3 3.3 2.8 6.9 4.3 9.5 2.5 4.4 4.4 7.2 6.8 10.7-0.4-1.3-0.8-2.7-1.2-4.3-0.8-2.8-1.6-5.7-2.7-7.8-2.4-5-7.3-10.7-9.4-13.1zm4.8 2.9c0.6 0.4 2.9 2.2 5.1 5q0.1 0.2 0.2 0.3 0.3 0.4 0.6 0.9c0.8 1.1 1.4 2.6 1.9 4q-0.1-0.7-0.3-1.4c-1.3-5.2-3.9-8.3-5.7-10.5l-0.5-0.5c-0.8-1-1.3-1.8-1.7-2.4-0.1 2.4 0.3 4.1 0.4 4.6zm-4.7-0.2c0.6 3.4 1.4 7.1 2.6 10.2 0.4 0.9 1 2.3 1.8 3.5q0.8 1.3 1.9 2.4 0 0 0 0c0.9 0.9 1.8 1.7 2.7 2.6 1.1 1 2.2 2 3.3 3.1-2.2-3.1-3.9-5.8-6.2-9.8-1.6-2.6-3.1-6.3-4.4-9.5-0.8-2.1-1.6-4-2.3-5.4q0.3 1.4 0.6 2.9zm12.9 23.8c-0.8-1-1.8-2.1-3-3.2l-0.9-0.9c-2.5-2.2-3.9-3.6-5-5.2q-0.2-0.2-0.3-0.4-0.2-0.3-0.4-0.5-0.8-1.4-1.4-3.1c-0.2-0.5-0.4-0.8-0.4-1-0.3-0.2-1.6-1.5-3.4-2.7 0.6 1 1.4 2.7 2.2 4.9 1.2 3.2 3.2 7.2 6.6 8.8 1.9 0.9 4.2 2.1 6 3.3zm-8.9 14.6q-1.8-0.7-3.6-1.5 1.6 1 4 2.5c4.1 2.5 6.1 4.3 9.3 7.8 1.2 1.3 2.3 2.4 3.2 3.5 1.3 1.3 2.4 2.5 3.5 3.7-0.5-0.7-1-1.6-1.8-2.8-0.5-0.9-1-1.8-1.4-2.6-1.4-2.8-2.7-5.1-6.4-7.3-2.3-1.4-4.6-2.3-6.8-3.3zm12.7 12.5c-1-1-2.1-2.1-3.2-3.4-3.3-3.5-5.3-5.3-9.3-7.8-2.2-1.4-4-2.5-5.1-3.3 0.7 1 1.5 2.1 2.4 3.3 2.2 3 4.6 6.4 7.9 9 3.4 2.6 5.8 3.7 8 4.6 0.9 0.4 1.7 0.8 2.6 1.3-1-1.2-2.1-2.4-3.3-3.7zm-15.3-9.6c1.6 3.2 3.2 6.4 5.4 8.6q0 0 0 0c0 0.1 1 1.1 2.9 2.1q0.2 0.1 0.3 0.1c1.8 0.8 3.4 1.2 4.8 1.6 1.8 0.3 3.2 0.6 4.3 1q0.3 0 0.6 0.1c-0.9-0.4-1.7-0.8-2.5-1.1-2.2-1-4.6-2.1-8-4.7-3.4-2.6-5.8-6-8-9q-0.9-1.4-1.8-2.5 1 1.8 2 3.8zm19.8 14.9q-0.8-0.3-2.3-0.8-0.6-0.1-1.4-0.3-1.3-0.2-2.9-0.6-0.1-0.1-0.2-0.1c-2.1-0.3-3.8-1-5.1-1.7q-1.7-0.8-3-2.1c-0.5-0.2-2.9-0.9-6.5-1.2 1.1 0.5 2.4 1.3 3.7 2.4 0.8 0.8 1.6 1.7 2.3 2.6 1.8 2.1 3.3 4 6.2 4q0.2 0 0.3 0c2.2-0.1 3.8-0.7 5.3-1.2 1.2-0.5 2.3-0.9 3.6-1zm12.6 11.6c0.2 2 0.6 3.4 1.1 4.4-0.2-0.7-0.3-1.5-0.2-2.3 0.2-1.1 0.9-1.9 1.6-2.8 0.9-1.2 2-2.5 2.3-4.8 0.2-1.2 0-3.1-0.2-5.1-0.2-1.6-0.3-3.3-0.3-4.7-0.3 0.7-0.4 1.4-0.5 2.1-0.2 0.8-0.3 1.6-0.7 2.4q-0.3 0.7-0.8 1.4c-1.2 1.9-2.8 4.6-2.3 9.4zm-14.2 12.7c1.2-0.1 2.4-0.3 3.9-0.7 1.4-0.5 2.4-1 3.3-1.5 1.3-0.7 2.5-1.4 4.6-1.7 2.3-0.3 5 0.3 6.7 0.9-1.6-1-4.1-2-7.2-1.9-3.3 0.2-5.4 1.6-7.5 2.9-1.2 0.9-2.4 1.6-3.8 2zm3.8 0.8c2.1-0.1 3.5-0.8 5.3-1.7q1-0.5 2.4-1.1c2-0.9 4.8-0.9 6.6-0.7-1.7-0.5-4.2-1.1-6.3-0.8-2 0.3-3.1 0.9-4.4 1.6-1 0.5-1.9 1.1-3.4 1.5-1.8 0.6-3.3 0.8-4.6 0.9q-0.5 0.1-1 0.1 0.6 0 1.2 0.1c1.1 0.1 2.3 0.1 4.2 0.1zm-4.4-5c1.6 1.2 3.3 1.6 3.8 1.7 3.1-2.3 5.7-3 7.4-3.2-2.6-0.8-6.2-0.8-8.8-0.6-2.1 0.2-4 0.3-5.2 0.4 0.8 0.4 1.9 1 2.8 1.7zm17.9 1.8c-1.7-0.1-4 0-5.7 0.8q-1.3 0.5-2.3 1.1c-1.8 0.9-3.3 1.6-5.5 1.7q-0.7 0-1.4 0-0.2 0-0.5 0c1.5 0.2 3.1 0.4 4.8 0.2 2.8-0.2 4-1 5.4-1.8 0.8-0.5 1.6-1.1 2.8-1.4 0.8-0.3 1.7-0.5 2.4-0.6zm33.1 15.6c-0.6 0.1-1.1 0.1-1.7 0.1q-0.2-0.1-0.4-0.1c-1 0-2.2 0.1-3.9 1-2 0.9-3 2.1-3.9 3.3-0.4 0.5-0.8 1-1.2 1.5 1.7-0.2 5.1-0.6 7.4-2.3 2-1.4 3.2-2.7 3.7-3.5zm8.1 0.7q0.3 0.1 0.6 0.2c0.1-0.9 0.1-2.6-0.6-4.5-0.5-1.3-1.4-2.4-2.4-3.6-0.7-0.8-1.3-1.6-1.9-2.5q0 0.5 0.1 1c0 1.7 0.1 3.4 0.8 5.6 0.6 2 2.3 3.2 3.4 3.8zm-14.9-11.9c0.2 0.7 0.4 1.5 0.5 2.5l0.1 0.4q0 0.7 0.1 1.3 0 0.1 0 0.1 0.2 0.9 0.3 1.6 0 0.3 0.1 0.6c0.1 0.5 0.3 1 0.5 1.3q0.1-0.1 0.1-0.3c0.3-0.8 0.7-1.7 0.8-3.4 0-1.5-0.3-3.2-0.6-4.6q-0.2-0.9-0.3-1.7c-0.2-1.4-0.3-2.4-0.3-3.2-1.2 2.8-1.3 4.9-1.3 5.4zm-2.8-1.3q-0.2-0.4-0.4-0.8c-0.7-1.3-1.3-3.1-1.7-4.3 0.2 3 1.2 6.1 2.3 8.1 0.6 1.2 1.1 1.9 1.6 2.5 0.4 0.4 0.7 0.8 1 1.3-0.7-3-1.8-5-2.8-6.8zm-0.6-2.9q-0.5-0.7-0.8-1.5c0.3 1.1 0.8 2.4 1.3 3.4q0.2 0.4 0.5 0.9c0.7 1.3 1.6 3 2.3 5.1q-0.1-0.3-0.1-0.7l-0.1-0.5c-0.4-3.2-1.3-4.3-2.3-5.7q-0.4-0.5-0.8-1zm2.9 10.1q0.2 0.1 0.4 0.3c-0.4-0.7-0.7-1.2-1.2-1.7-0.5-0.7-1-1.4-1.7-2.6-0.9-1.7-1.7-4.1-2.1-6.6 0 2.4 0.3 4.6 1.3 6.6 0.8 1.7 2.1 2.9 3.3 4zm-16.6 1.3c0.6-0.5 1.3-0.9 2-1.3 1.9-1 3.3-1.4 4.2-1.6-0.5-0.1-1.1-0.2-1.9-0.2-1 0-2.1 0.2-3.3 0.6-2.1 0.8-3.3 1.7-4.5 2.6q-0.4 0.3-0.8 0.6c-1.5 1.1-2.5 1.7-3.2 2.1q0.1 0 0.2 0c3.9-0.5 5.5-1.7 7.3-2.8zm-6.9 2c0.6-0.4 1.3-0.9 2.3-1.6q0.5-0.3 0.9-0.6c1.2-0.9 2.4-1.9 4.6-2.7q0.7-0.2 1.3-0.3c-2.2 0-3.9 0.6-4.8 1.1-1.5 0.7-2.3 1.7-3.4 3l-0.1 0.1q-0.4 0.6-0.8 1zm13.1-4.4c-0.9 0.1-2.3 0.5-4 1.4-0.7 0.4-1.4 0.9-2 1.3-1.4 0.9-2.7 1.8-5 2.4 1.8 0 3.6-0.2 5.3-1 2-0.9 2.7-1.7 3.4-2.5 0.5-0.5 0.9-0.9 1.6-1.3q0.3-0.2 0.7-0.3zm44.5 6.4q-0.2 0-0.4 0.1c-0.5 0-1.1 0-1.7-0.1 0.6 0.8 1.7 2.1 3.7 3.5 2.3 1.7 5.7 2.1 7.5 2.3-0.5-0.5-0.9-1-1.3-1.5-0.9-1.2-1.8-2.4-3.8-3.3-1.8-0.9-2.9-1-4-1zm9.8-15.9c-0.4 2.5-1.2 4.9-2.1 6.6-0.6 1.2-1.2 1.9-1.7 2.6-0.4 0.5-0.8 1-1.2 1.7q0.2-0.2 0.4-0.3c1.2-1.1 2.5-2.3 3.4-4 0.9-2 1.2-4.2 1.2-6.6zm-4.1 8.9c0.5-0.6 1-1.3 1.7-2.5 1-2 2-5.1 2.2-8.1-0.4 1.2-0.9 3-1.6 4.3q-0.2 0.4-0.5 0.8c-1 1.8-2 3.8-2.7 6.8 0.3-0.5 0.6-0.9 0.9-1.3zm-0.7-1.7v0.5q-0.1 0.4-0.1 0.7c0.7-2.1 1.5-3.8 2.3-5.1q0.2-0.5 0.4-0.9c0.6-1 1-2.3 1.4-3.4q-0.4 0.8-0.9 1.5-0.4 0.5-0.8 1c-1 1.4-1.9 2.5-2.3 5.7zm-2 5q0.1 0.2 0.1 0.3c0.2-0.3 0.4-0.8 0.5-1.3q0.1-0.3 0.2-0.6 0.1-0.7 0.2-1.6 0.1-0.7 0.2-1.4v-0.4c0.2-1 0.3-1.8 0.5-2.5 0-0.5 0-2.6-1.3-5.4 0 0.8-0.1 1.8-0.3 3.2q-0.1 0.8-0.3 1.7c-0.3 1.4-0.6 3.1-0.5 4.6 0 1.7 0.4 2.6 0.7 3.4zm-13.8 4.6q0.3-0.1 0.7-0.2c1.1-0.6 2.7-1.8 3.4-3.8 0.7-2.2 0.7-3.9 0.8-5.6q0-0.5 0-1c-0.5 0.9-1.2 1.7-1.9 2.5-0.9 1.2-1.8 2.3-2.3 3.6-0.8 1.9-0.8 3.6-0.7 4.5zm40.1-2.1c-0.6-0.4-1.6-1-3.1-2.1q-0.4-0.3-0.9-0.6c-1.2-0.9-2.4-1.8-4.5-2.6-1.2-0.4-2.3-0.6-3.2-0.6-0.8 0-1.5 0.1-2 0.2 0.9 0.2 2.4 0.6 4.2 1.6 0.8 0.4 1.4 0.8 2 1.3 1.8 1.1 3.5 2.3 7.4 2.8q0.1 0 0.1 0zm-8-1.1c1.7 0.8 3.6 1 5.3 1-2.3-0.6-3.6-1.5-5-2.4-0.6-0.4-1.2-0.9-2-1.3-1.7-0.9-3.1-1.3-3.9-1.4q0.3 0.1 0.6 0.3c0.8 0.4 1.2 0.8 1.6 1.3 0.7 0.8 1.5 1.6 3.4 2.5zm3.2-3.8c-1-0.5-2.7-1.1-4.9-1.1q0.7 0.1 1.3 0.3c2.2 0.8 3.5 1.8 4.7 2.7q0.4 0.3 0.8 0.6c1 0.7 1.8 1.2 2.4 1.6q-0.4-0.4-0.9-1l-0.1-0.1c-1.1-1.3-1.9-2.3-3.3-3zm8.7-17.7c0.1 0.8 0 1.6-0.1 2.3 0.4-1 0.8-2.4 1-4.4 0.5-4.8-1.1-7.5-2.3-9.4q-0.4-0.7-0.7-1.4c-0.4-0.8-0.6-1.6-0.7-2.4-0.2-0.7-0.3-1.4-0.6-2.1 0.1 1.4-0.1 3.1-0.3 4.7-0.1 2-0.3 3.9-0.1 5.1 0.3 2.3 1.3 3.6 2.2 4.8 0.7 0.9 1.4 1.7 1.6 2.8zm-3.4 7.6c1.7-0.6 4.4-1.2 6.8-0.9 2 0.3 3.2 1 4.5 1.7 1 0.5 1.9 1 3.4 1.5 1.4 0.4 2.7 0.6 3.8 0.7-1.4-0.4-2.6-1.1-3.8-2-2-1.3-4.2-2.7-7.4-2.9-3.1-0.1-5.6 0.9-7.3 1.9zm18.9 3.7q0.7-0.1 1.3-0.1-0.5 0-1.1-0.1c-1.3-0.1-2.8-0.3-4.6-0.9-1.4-0.4-2.4-1-3.4-1.5-1.3-0.7-2.4-1.3-4.4-1.6-2.1-0.3-4.6 0.3-6.3 0.8 1.9-0.2 4.6-0.2 6.7 0.7q1.3 0.6 2.3 1.1c1.9 0.9 3.2 1.6 5.3 1.7 1.9 0 3.2 0 4.2-0.1zm-2.3 0.5q-0.2 0-0.5 0-0.6 0-1.4 0c-2.2-0.1-3.6-0.8-5.5-1.7q-1-0.6-2.3-1.1c-1.7-0.8-4-0.9-5.7-0.8 0.8 0.1 1.6 0.3 2.5 0.6 1.1 0.3 1.9 0.9 2.7 1.4 1.4 0.8 2.7 1.6 5.5 1.8 1.7 0.2 3.2 0 4.7-0.2zm-8.6-6.9c1.6 0.2 4.2 0.9 7.3 3.2 0.5-0.1 2.3-0.5 3.8-1.7 1-0.7 2-1.3 2.9-1.7-1.3-0.1-3.1-0.2-5.2-0.4-2.7-0.2-6.3-0.2-8.8 0.6zm30.7-37.3q-0.8 1.1-1.8 2.5c-2.1 3-4.6 6.4-7.9 9-3.4 2.6-5.9 3.7-8.1 4.7-0.8 0.3-1.6 0.7-2.4 1.1q0.3-0.1 0.5-0.1c1.2-0.4 2.6-0.7 4.4-1 1.3-0.4 2.9-0.8 4.7-1.6q0.2 0 0.3-0.1c1.9-1 2.9-2 2.9-2.1q0 0 0 0c2.3-2.2 3.9-5.4 5.5-8.6q0.9-2 1.9-3.8zm-17.9 15.8c2.1-0.9 4.6-2 7.9-4.6 3.3-2.6 5.8-6 7.9-9 0.9-1.2 1.7-2.3 2.5-3.3-1.2 0.8-2.9 1.9-5.2 3.3-4 2.5-6 4.3-9.2 7.8-1.2 1.3-2.3 2.4-3.2 3.4-1.3 1.3-2.3 2.5-3.4 3.7 0.9-0.5 1.8-0.9 2.7-1.3zm-3.1 1.1c1.1-1.2 2.2-2.4 3.5-3.7 1-1.1 2-2.2 3.2-3.5 3.3-3.5 5.3-5.3 9.3-7.8q2.4-1.5 4-2.5-1.7 0.8-3.6 1.5c-2.2 1-4.4 1.9-6.8 3.3-3.7 2.2-4.9 4.5-6.4 7.3-0.4 0.8-0.8 1.7-1.4 2.6-0.7 1.2-1.3 2.1-1.8 2.8zm20.7-5c-3.6 0.3-6.1 1-6.6 1.2q-1.3 1.3-3 2.1c-1.3 0.7-3 1.4-5.1 1.7q-0.1 0-0.2 0.1-1.6 0.4-2.9 0.6-0.7 0.2-1.3 0.3-1.6 0.5-2.4 0.8c1.3 0.1 2.4 0.5 3.6 1 1.6 0.5 3.2 1.1 5.4 1.2q0.1 0 0.2 0c2.9 0 4.5-1.9 6.2-4 0.7-0.9 1.5-1.8 2.4-2.6 1.3-1.1 2.6-1.9 3.7-2.4z"/>
	<path id="Layer" class="s0" d="m109 129.4l-0.9 2.9 2.5-1.7 2.5 1.8-0.9-2.9 2.4-1.8-3-0.1-0.9-2.8-1 2.8h-3z"/>
	<path id="Layer" class="s0" d="m124.1 125.7l-0.8-2.4-0.9 2.3-2.4 0.1 1.9 1.5-0.7 2.3 2-1.3 2 1.4-0.7-2.4 2-1.5z"/>
	<path id="Layer" class="s0" d="m134.4 120.6l-0.7-2.1-0.8 2.1h-2.2l1.8 1.3-0.7 2.1 1.8-1.2 1.8 1.3-0.6-2.1 1.8-1.4z"/>
	<path id="Layer" class="s0" d="m142.2 112.8l-0.7-2.1-0.8 2-2.2 0.1 1.8 1.3-0.7 2.1 1.8-1.2 1.8 1.3-0.6-2.2 1.8-1.3z"/>
	<path id="Layer" class="s0" d="m99.2 125.6l-0.8-2.3-0.8 2.4h-2.5l2 1.5-0.7 2.4 2-1.4 2.1 1.3-0.8-2.3 2-1.5z"/>
	<path id="Layer" class="s0" d="m88.7 120.6l-0.7-2.1-0.7 2.1h-2.2l1.8 1.4-0.7 2.1 1.8-1.3 1.9 1.2-0.7-2.1 1.8-1.3z"/>
	<path id="Layer" class="s0" d="m80.9 112.7l-0.7-2-0.7 2.1h-2.2l1.7 1.3-0.6 2.2 1.8-1.3 1.9 1.2-0.7-2.1 1.8-1.3z"/>
	<path id="Layer" class="s0" d="m132 78.5c2.9-0.1 5.3-2.6 5.7-5.5 0.2-1.3 0-2.7 0-4.1 0.1-1.9-0.9-3.3-2.5-3.8-1.8-0.4-3.4 0.5-4.1 2.1-0.7 1.6-0.2 3.3 1.5 4.2 0.9 0.6 0.8 1.2 0.2 1.7-0.5 0.5-1.3 0.9-2 1-1.4 0.1-2.7-0.1-4.1-0.1q-4 0-8 0c-0.1-0.2-0.1-0.4-0.1-0.5q-0.1-6-0.1-12c0-1.2 0.8-2 2.2-2.2q0.1 0.3 0.3 0.6c1 1.6 2.7 2.3 4.4 1.6 1.6-0.6 2.4-2.3 2-4.1-0.4-1.6-1.8-2.6-3.7-2.5q-1 0-1.9-0.1c-3.8-0.6-7.6 2.2-7.7 5.9-0.2 5.9-0.1 11.8-0.1 17.9 6.1 0 12 0.1 18-0.1z"/>
	<path id="Layer" class="s0" d="m96.8 55c-1.5 0.2-2.6 1.6-2.6 3.1-0.1 1.5 0.8 2.9 2.1 3.4 1.9 0.7 3.3 0 4.8-2.2 1.5 0.3 2.1 1 2.1 2.5q0 3.9 0 7.9c0 1.4 0 2.8 0 4.4-4.4 0-8.6 0-12.8-0.1-1.1 0-1.8-0.8-2-2q0.3-0.2 0.6-0.4c1.7-1.1 2.3-2.8 1.6-4.5-0.6-1.5-2.3-2.3-4-2-1.7 0.4-2.7 1.9-2.6 3.9 0 0.4 0.1 0.9 0 1.3-0.8 4.5 2.3 8.3 6.8 8.3q7.9 0 15.7 0c0.4 0 0.7-0.1 1.1-0.1 0-0.2 0.1-0.4 0.1-0.5 0-5.7 0.1-11.3 0-17-0.1-3-2.4-5.7-5.4-6.1-1.8-0.2-3.7-0.1-5.5 0.1z"/>
	<path id="Layer" class="s0" d="m90 84.9c-3.8 0.1-6.6 3.9-6.1 7.7q0.1 1.1 0.1 2.3c0 1.7 1 3 2.6 3.4 1.6 0.4 3.3-0.4 3.9-1.9 0.8-1.5 0.3-3.2-1.1-4.3-0.3-0.2-0.7-0.4-1-0.6 0.4-1.6 1-2.1 2.5-2.1q5.5 0 11 0c0.4 0 0.8 0.1 1.3 0.1 0 4.3 0 8.4 0 12.6 0 1.2-0.8 1.9-2.1 2.1-0.2-0.2-0.3-0.4-0.4-0.6-1-1.7-2.7-2.3-4.4-1.7-1.5 0.6-2.4 2.3-2.1 4 0.4 1.7 1.9 2.8 3.8 2.7 0.4-0.1 0.9-0.1 1.3-0.1 5 0.8 8.4-2.1 8.4-7.2q0-7.5 0-15c0-0.5 0-0.9 0-1.4-6.1 0-11.9-0.1-17.7 0z"/>
	<path id="Layer" class="s0" d="m121.8 108.7q1-0.2 1.9-0.1c1.9 0 3.4-1 3.7-2.7 0.4-1.6-0.5-3.3-2-3.9-1.6-0.7-3.4-0.2-4.3 1.4-0.6 1.1-1.2 0.9-1.8 0.2-0.4-0.5-0.7-1.2-0.8-1.9-0.1-1.5 0-3 0-4.6 0-2.5 0-5 0-7.4 0.3-0.2 0.3-0.2 0.4-0.2 4.1-0.1 8.2-0.1 12.3-0.1 1.3 0 2 0.8 2.1 2.2q-0.4 0.1-0.6 0.3c-1.7 1-2.3 2.7-1.6 4.4 0.6 1.5 2.3 2.4 3.9 2 1.8-0.4 2.8-1.8 2.7-3.8q-0.1-0.8 0.1-1.6c0.6-4.4-2.4-8-6.8-8q-3.7 0-7.4 0c-3.1 0-6.3 0-9.6 0 0 6-0.1 11.7 0 17.5 0.1 3.9 3.9 6.8 7.8 6.3z"/>
	<path id="Layer" class="s0" d="m97.2 198.7h0.5v-0.8h-11.5v0.8q1.8 0 2.5 0.4 0.7 0.3 1.1 1 0.3 0.7 0.3 3v8.6q-1.4 0.8-3 1.2-1.5 0.4-3.1 0.4-2.8 0-5.5-1.6-2.7-1.7-4.3-5.2-1.7-3.5-1.7-7.7 0-5.3 2.5-9.1 3-4.5 8.7-4.5 4.1 0 6.8 2.6 1.8 1.8 3 5.3h0.7l-0.7-9.4h-0.8q-0.1 1.1-0.4 1.5-0.3 0.4-0.7 0.4-0.4 0-1.7-0.5-2.4-0.9-3.7-1.1-1.3-0.3-3-0.3-4.4 0-7.7 1.9-3.9 2.3-6.1 6.6-1.9 3.6-1.9 7.5 0 5.4 3.3 9.6 4.5 5.5 13.1 5.5 3 0 5.5-0.6 2.5-0.7 5-2v-9.1q0-2.4 0.4-3.2 0.7-1.2 2.4-1.2z"/>
	<path id="Layer" fill-rule="evenodd" class="s0" d="m102.1 211.1q-2.2-3-2.2-6.8 0-2.8 1.3-5.5 1.4-2.8 3.6-4.1 2.3-1.3 4.8-1.3 4.5 0 7.3 3.5 2.4 3 2.4 6.8 0 2.7-1.3 5.5-1.3 2.7-3.6 4.1-2.3 1.4-5.1 1.4-4.5 0-7.2-3.6zm1.8-8.7q0 4.4 1.8 7.6 1.7 3.2 4.6 3.2 2.1 0 3.5-1.8 1.4-1.7 1.4-6 0-5.4-2.3-8.4-1.6-2.1-4-2.1-1.2 0-2.3 0.6-1.2 0.7-1.9 2.5-0.8 1.7-0.8 4.4z"/>
	<path id="Layer" class="s0" d="m129.4 212.1q-0.3-0.6-0.3-2.5v-26.7h-1l-6 2.5 0.4 0.7q0.9-0.3 1.5-0.3 0.5 0 0.8 0.3 0.4 0.3 0.5 1 0.2 0.8 0.2 4.2v18.3q0 1.8-0.3 2.5-0.3 0.7-0.8 0.9-0.5 0.3-1.9 0.3v0.8h9.9v-0.8q-1.6 0-2.2-0.3-0.5-0.3-0.8-0.9z"/>
	<path id="Layer" fill-rule="evenodd" class="s0" d="m155.6 211.5l0.3 0.7-6 2.5h-1v-2.8q-1.5 1.5-2.9 2.2-1.4 0.6-3 0.6-3.3 0-5.8-2.7-2.4-2.8-2.4-7.1 0-4.3 2.7-7.9 2.7-3.6 7-3.6 2.6 0 4.4 1.7v-3.7q0-3.5-0.2-4.2-0.1-0.8-0.5-1.1-0.4-0.3-0.9-0.3-0.5 0-1.5 0.3l-0.3-0.7 6-2.5h1v23.3q0 3.5 0.2 4.3 0.1 0.7 0.5 1 0.4 0.4 0.8 0.4 0.6 0 1.6-0.4zm-6.7-11.5q-0.1-1.5-0.8-2.8-0.7-1.2-1.7-1.8-1.1-0.6-2.2-0.6-1.9 0-3.4 1.7-2 2.3-2 6.7 0 4.4 1.9 6.8 2 2.3 4.3 2.3 2 0 3.9-2c0 0 0-10.3 0-10.3z"/>
	<path id="Layer" class="s0" d="m117.3 239.1q0.3 0 0.4 0.1 1.5 0.2 2.2 0.8 0.6 0.6 0.6 1.2 0 1-1 3.5l-7.1 17.2-7.5-17.4q-1-2.3-1-3.4 0-0.8 0.6-1.3 0.6-0.5 2.7-0.7v-0.8h-12.2v0.8q1.4 0.1 2.2 0.5 0.8 0.4 1.3 1 0.4 0.5 1.2 2.5l11.2 25.6h0.8l10.4-25.3q0.9-2.2 2-3.3 0.8-0.7 2.4-1v-0.8h-9.2c0 0 0 0.8 0 0.8z"/>
</svg>