<svg version="1.2" xmlns="http://www.w3.org/2000/svg" viewBox="0 0 223 283" width="223" height="283">
	<title>New Project</title>
	<style>
		.s0 { fill: #2ad4d8 } 
		.s1 { fill: #d645e5 } 
	</style>
	<path id="Layer" fill-rule="evenodd" class="s0" d="m69.8 152q-0.2 0-0.2-0.1 0-0.2 0.1-0.3c0 0 1-0.4 3.7-2.3q0.3-0.2 0.7-0.5c1.1-0.8 2.3-1.7 4.2-2.4 3.3-1.2 5.8-0.1 5.9-0.1q0.1 0.1 0.1 0.2c0 0.1-0.1 0.2-0.2 0.2 0 0-1.8-0.1-4.6 1.4-0.7 0.4-1.2 0.8-1.8 1.1-1.8 1.3-3.5 2.4-7.9 2.8q0 0 0 0zm11.6-5.8c-0.9 0-1.9 0.1-2.9 0.5-2 0.7-3.1 1.6-4.2 2.4q-0.4 0.3-0.7 0.5c-1.4 1-2.3 1.6-2.9 1.9 3.6-0.4 5.2-1.4 6.8-2.5 0.6-0.4 1.2-0.8 1.9-1.2 1.6-0.9 2.9-1.3 3.8-1.4-0.5-0.1-1.1-0.2-1.8-0.2z"/>
	<path id="Layer" fill-rule="evenodd" class="s1" d="m55.6 141.7c-1 0-1.8 0-2.5-0.1-1.1-0.1-2-0.1-3.1 0.1-0.1 0-0.2-0.1-0.2-0.1-0.1-0.1 0-0.2 0.1-0.3 0.8-0.3 1.8-0.4 2.9-0.6 1.2-0.1 2.6-0.2 4.2-0.7 1.2-0.5 2.1-0.9 3-1.4 1.1-0.6 2.2-1.2 4.1-1.5 3.3-0.4 7.4 1.2 7.5 1.3 0.1 0 0.2 0.1 0.2 0.2-0.1 0.1-0.2 0.1-0.2 0.1-0.1 0-4.7-0.8-7.6 0.4q-1.2 0.6-2.1 1c-1.7 0.9-3 1.5-5 1.6q-0.7 0-1.3 0zm-3.7-0.5q0.6 0 1.2 0.1c0.9 0 2.1 0.1 3.8 0 1.9 0 3.1-0.6 4.8-1.5q1-0.4 2.2-1c1.8-0.8 4.3-0.8 6-0.7-1.5-0.4-3.8-0.9-5.7-0.6-1.8 0.2-2.9 0.8-4 1.4-0.9 0.5-1.8 1-3.1 1.4-1.6 0.5-3 0.7-4.2 0.8q-0.5 0-1 0.1z"/>
	<path id="Layer" fill-rule="evenodd" class="s1" d="m56.5 139.1q-0.1 0-0.1 0c-0.1 0-2.1-0.3-3.9-1.7-1.7-1.2-3.8-2.2-3.8-2.2-0.1 0-0.2-0.2-0.2-0.4 0.1-0.1 0.2-0.2 0.4-0.2 0 0 2.7 0 6.1-0.4 3.1-0.3 7.5-0.1 9.8 1.3 0.2 0.1 0.3 0.3 0.2 0.4-0.1 0.2-0.2 0.3-0.4 0.3 0-0.1-3.4-0.5-7.9 2.8q-0.1 0.1-0.2 0.1zm-6.2-3.9c0.8 0.4 1.7 1 2.6 1.6 1.4 1.1 3 1.5 3.5 1.5 2.8-2 5.2-2.6 6.6-2.8-2.3-0.8-5.5-0.8-7.9-0.6-2 0.2-3.6 0.3-4.8 0.3z"/>
	<path id="Layer" fill-rule="evenodd" class="s0" d="m46.6 121.2c-3 0-4.6-1.9-6.2-3.8-0.7-0.8-1.3-1.6-2.1-2.3-2.6-2.3-5.5-2.8-5.5-2.8-0.2 0-0.3-0.2-0.3-0.4 0-0.2 0.2-0.3 0.3-0.3 5.3 0 8.7 1.1 8.9 1.2q0.1 0 0.1 0.1c0 0 2.5 2.6 7.1 3.4 6.1 1 7.5 2.4 7.6 2.4 0.1 0.1 0.1 0.3 0.1 0.4q-0.1 0.2-0.4 0.2c-1.6-0.2-2.9 0.3-4.3 0.8-1.4 0.5-3 1.1-5.1 1.1q-0.1 0-0.2 0zm-11.2-8.8c1 0.4 2.2 1.1 3.4 2.2 0.8 0.7 1.5 1.5 2.1 2.3 1.6 2 3 3.6 5.7 3.6q0.1 0 0.2 0c2 0 3.4-0.6 4.8-1.1 1.1-0.3 2.1-0.7 3.3-0.8-1-0.5-2.9-1.1-6.2-1.6-4.4-0.8-6.9-3.1-7.3-3.6-0.5-0.1-2.7-0.8-6-1z"/>
	<path id="Layer" fill-rule="evenodd" class="s0" d="m54.7 118q0 0-0.1-0.1c-1.1-0.7-2.2-1.1-3.4-1.6-1.9-0.9-4.1-1.9-7.2-4.3-3.1-2.3-5.3-5.4-7.3-8.2-1.2-1.7-2.2-3.1-3.2-4.1-0.1-0.1-0.1-0.2-0.1-0.3 0.1 0 0.2-0.1 0.3 0 0 0 2.2 1.6 6 3.9 3.6 2.2 5.5 3.9 8.4 7.1 1.1 1.2 2 2.2 2.9 3.1 1.4 1.5 2.7 2.8 3.8 4.2q0.1 0.1 0 0.2 0 0.1-0.1 0.1zm-19.9-17.4c0.7 0.9 1.4 1.9 2.2 3 2 2.7 4.2 5.8 7.2 8.1 3 2.4 5.2 3.4 7.2 4.2 0.8 0.4 1.6 0.7 2.4 1.2-0.9-1.1-1.9-2.1-3-3.3-0.9-1-1.9-2-2.9-3.1-3-3.2-4.8-4.9-8.4-7.1-2.1-1.2-3.7-2.3-4.7-3z"/>
	<path id="Layer" fill-rule="evenodd" class="s1" d="m58.5 116q-0.1 0-0.1 0-0.1 0-0.1-0.2c0.6-3.2 4.7-6.9 7.4-8.4l0.6-0.3c2.8-1.5 6.2-3.3 8-6.9q0.1-0.1 0.3-0.1 0.1 0.1 0.1 0.2c0 0.1-1.2 6-6.5 8.9l-1.3 0.6c-4.4 2.4-5.7 3.1-8.3 6.2q0 0-0.1 0zm15.4-14.4c-1.9 2.9-5 4.5-7.4 5.8l-0.6 0.3c-2.8 1.5-6.1 4.7-7 7.5 2.3-2.7 3.8-3.5 7.9-5.7l1.2-0.7c3.6-1.9 5.3-5.3 5.9-7.2z"/>
	<path id="Layer" fill-rule="evenodd" class="s1" d="m58.2 116.9c-0.2 0-0.3-0.1-0.3-0.3q0 0 0-0.2 0-0.6 0-1.2c0-3.6 0-7.3 3-11.3 0.8-1 1.5-1.8 2.2-2.6 1.3-1.4 2.5-2.7 3.5-4.7 0.1-0.2 0.2-0.2 0.4-0.2 0.1 0 0.3 0.2 0.2 0.3 0 0.8-0.2 7.4-0.6 8.6q-0.1 0.1-0.2 0.2c0 0-3.4 1.8-4.9 3.4-2.7 2.9-2.9 6.9-2.9 7.6q0 0 0 0.1c0 0.2-0.2 0.3-0.4 0.3zm8.3-18.7c-0.9 1.4-1.8 2.4-2.8 3.5-0.7 0.8-1.5 1.6-2.2 2.6-2.1 2.8-2.7 5.4-2.8 8.1 0.4-1.3 1.2-2.8 2.3-4 1.4-1.5 4.3-3.1 4.9-3.5 0.3-1 0.5-4.4 0.6-6.7z"/>
	<path id="Layer" fill-rule="evenodd" class="s0" d="m54.3 96.2q-0.1 0-0.2-0.1 0-0.1 0-0.2c0.8-1 1.3-1.9 1.8-2.9 0.8-1.3 1.5-2.7 3.2-4.6 1.9-2.1 3.8-3 6.2-4.2 1-0.5 2.3-1.1 3.6-1.9 0.1 0 0.2 0 0.3 0.1 0 0.1 0 0.2 0 0.2-0.1 0-2.4 2-4.8 5q-0.6 0.7-1.2 1.5c-2.1 2.6-4.2 5.4-8.9 7.1q0 0 0 0zm13.6-12.9q-1.4 0.7-2.5 1.2c-2.3 1.2-4.2 2.1-6.1 4.2-1.6 1.8-2.3 3.1-3.1 4.5-0.4 0.8-0.8 1.6-1.4 2.4 4.1-1.7 6.2-4.2 8.1-6.8q0.6-0.7 1.2-1.4c1.5-1.8 2.9-3.2 3.8-4.1z"/>
	<path id="Layer" fill-rule="evenodd" class="s1" d="m48.3 89.3q-0.1 0-0.1 0c-2.7-3.7-4.5-6.4-7.1-10.8-1.4-2.5-2.7-5.8-3.9-8.7-1-2.3-1.8-4.5-2.6-5.8 0 0 0-0.1 0.1-0.2q0.1-0.1 0.2 0c0.1 0.1 6.6 7.1 9.5 13 1 2 1.7 4.6 2.4 7.2 0.6 1.9 1.1 3.8 1.7 5.1 0 0.1 0 0.2-0.1 0.2q0 0-0.1 0zm-12.7-24.2c0.6 1.2 1.2 2.8 1.9 4.5 1.2 3 2.5 6.3 3.9 8.7 2.3 3.9 4 6.5 6.3 9.6-0.4-1.1-0.8-2.4-1.2-3.8-0.7-2.6-1.5-5.2-2.4-7.1-2.2-4.6-6.6-9.8-8.5-11.9z"/>
	<path id="Layer" fill-rule="evenodd" class="s1" d="m47.8 83.8c-0.2 0-0.3-0.2-0.3-0.4 0 0-0.5-6.3-2.8-9.7-2.3-3.4-5.3-5.5-5.3-5.5q-0.1-0.1-0.1-0.2c-0.1-0.1-0.8-2.4-0.3-5.8 0-0.2 0.2-0.3 0.3-0.3 0.2 0 0.3 0.1 0.4 0.2 0 0 0.4 1.2 2 3.1l0.4 0.5c1.6 1.9 4.1 4.9 5.3 9.9 1 4.3 0.8 7.7 0.8 7.8 0 0.2-0.2 0.4-0.4 0.4zm-7.9-16.1c0.6 0.4 3.2 2.4 5.4 5.6 0.7 1 1.3 2.3 1.7 3.7q-0.1-0.6-0.3-1.3c-1.2-4.8-3.5-7.5-5.2-9.6l-0.4-0.4c-0.7-0.9-1.2-1.6-1.5-2.2-0.2 2.2 0.2 3.8 0.3 4.2z"/>
	<path id="Layer" fill-rule="evenodd" class="s1" d="m63.7 58.8q-0.1 0-0.2-0.1c0-0.1 0.1-0.2 0.2-0.2 1.8-0.7 3.7-1.5 5.8-2.3 1.9-0.7 3.7-1.5 5.6-2.2 3.9-1.4 13.1-4.3 13.2-4.3 0-0.1 0.1 0 0.2 0q0 0.2-0.1 0.3c0 0-6.3 4.8-11.4 6.6-5.1 1.9-13.2 2.2-13.3 2.2q0 0 0 0zm23.6-8.5c-2.5 0.8-9 2.9-12.1 4.1-1.8 0.6-3.7 1.4-5.5 2.1q-2.5 1-4.8 1.9c2.5-0.2 8.1-0.7 12-2.1 3.9-1.4 8.6-4.6 10.4-6z"/>
	<path id="Layer" fill-rule="evenodd" class="s1" d="m67 75.5c-2.3 0-3.8-0.3-5.1-0.5-1.5-0.2-2.8-0.5-5-0.2q-0.2 0-0.2-0.1c0-0.1 0-0.2 0.1-0.2 0.1 0 6.1-2.2 10.9-2.2q0.1 0 0.2 0c1.6 0.1 3.2 0.2 4.7 0.3 3.3 0.2 6.3 0.4 8.7-0.2 0.1 0 0.2 0 0.2 0.1 0.1 0.1 0 0.2-0.1 0.2 0 0.1-5.5 2.4-12.4 2.7q-1.1 0.1-2 0.1zm-8.2-1.2c1.2 0 2.2 0.2 3.2 0.4 1.6 0.2 3.5 0.6 7 0.4 4.4-0.3 8.3-1.3 10.4-2-2 0.2-4.4 0-6.8-0.2-1.5-0.1-3.1-0.2-4.7-0.2q-0.1 0-0.2 0c-3.3 0-7.2 1-9.3 1.6q0.2 0 0.4 0z"/>
	<path id="Layer" fill-rule="evenodd" class="s1" d="m57.1 74.5q-0.1 0-0.2-0.1c-0.2-0.1-0.2-0.3-0.2-0.4 0.1-0.2 1.9-4 6.8-5.6 2.3-0.8 4.5-0.7 6.6-0.8 2.3 0.1 4.7 0.1 7.4-0.9 0.1 0 0.3 0 0.3 0.1q0.2 0.1 0.1 0.3c0 0.2-0.9 2.7-5.3 4.3q-0.1 0.1-0.2 0.1c-0.1-0.1-3.4-0.7-6.6-0.4-5.2 0.5-8.5 3.3-8.5 3.3q-0.1 0.1-0.2 0.1zm12.7-6.1c-2 0-4 0-6.1 0.7-2.8 0.9-4.5 2.5-5.4 3.7 1.5-0.9 4.1-2.1 7.5-2.4 3-0.3 6 0.2 6.6 0.3 2.6-0.9 3.9-2.2 4.5-3-2.5 0.7-4.6 0.7-6.8 0.7q-0.1 0-0.3 0z"/>
	<path id="Layer" fill-rule="evenodd" class="s1" d="m93.4 148.8q-0.1 0-0.2-0.1c-0.4-1-0.8-1.6-1.3-2.2-0.5-0.6-1-1.2-1.6-2.4-1.1-2.1-2.2-5.7-2.1-8.9 0 0 0.1-0.1 0.2-0.1q0.2 0 0.2 0.1c0 0 0.8 3.2 1.8 5.2q0.2 0.3 0.4 0.7c1 1.8 2.2 4.1 2.8 7.5 0 0.1-0.1 0.1-0.1 0.2q-0.1 0-0.1 0zm-4.8-12.2c0.2 2.8 1.1 5.6 2 7.4 0.6 1.1 1.1 1.7 1.6 2.3 0.2 0.4 0.5 0.7 0.8 1.1-0.6-2.7-1.6-4.5-2.5-6.1q-0.2-0.4-0.4-0.8c-0.6-1.1-1.1-2.7-1.5-3.9z"/>
	<path id="Layer" fill-rule="evenodd" class="s1" d="m94.6 150.8q-0.2 0-0.3-0.1l-0.3-0.4c0 0-0.4-0.6-0.7-1.8-0.1-0.5-0.2-1.2-0.3-2.1-0.2-1-0.2-2.4-0.5-3.7q0 0 0-0.1c-0.1-0.1-0.3-3.2 1.8-6.8 0.1-0.1 0.3-0.2 0.5-0.1 0.1 0.1 0.2 0.2 0.2 0.4 0 0-0.3 1.1 0.2 4.3q0.1 0.7 0.3 1.5c0.2 1.3 0.5 2.8 0.5 4.3-0.1 1.7-0.4 2.6-0.7 3.3-0.2 0.4-0.3 0.7-0.4 1q0 0.2-0.3 0.3 0 0 0 0zm-1.6-8.2c0.3 1.3 0.5 2.7 0.7 3.7 0.1 0.9 0.2 1.6 0.3 2 0.2 0.6 0.3 1.1 0.5 1.3q0-0.1 0.1-0.3c0.3-0.7 0.6-1.5 0.7-3.1 0-1.4-0.3-2.9-0.5-4.2q-0.2-0.8-0.3-1.5c-0.2-1.3-0.3-2.2-0.3-2.9-1.2 2.6-1.2 4.7-1.2 5z"/>
	<path id="Layer" fill-rule="evenodd" class="s1" d="m75.3 42.1q-0.2 0-0.3-0.1c-0.1-0.1-0.1-0.3 0-0.4q0-0.1 0.1-0.2c0.7-0.8 1.1-2.5 1.6-4.4 0.5-1.9 1.1-4 2-5.8 1.1-2.2 3.4-3.7 5.4-5 1.3-0.8 2.4-1.6 3.2-2.4 0.1-0.1 0.2-0.2 0.4-0.1 0.1 0.1 0.2 0.2 0.2 0.4-0.1 0.2-1 5.3-2.4 7.8q-0.1 0.1-0.1 0.1c0 0.1-3.4 2.8-5.1 4.6-1.5 1.5-4 4.5-4.6 5.3q-0.1 0-0.2 0.1-0.1 0.1-0.2 0.1zm11.7-17c-0.7 0.5-1.6 1.1-2.5 1.7-1.9 1.2-4.1 2.7-5.2 4.8-0.8 1.6-1.4 3.7-1.9 5.6q-0.3 1.3-0.7 2.3c1-1.1 2.2-2.5 3.1-3.4 1.7-1.7 4.6-4.2 5.1-4.6 1-1.7 1.7-4.8 2.1-6.4z"/>
	<path id="Layer" fill-rule="evenodd" class="s0" d="m75.4 42.2q-0.2 0-0.3-0.1c-0.1-0.1-0.1-0.3 0-0.5 0 0 2.9-4.3 9-9.5 5.5-4.5 16.6-5.4 17-5.4 0.2-0.1 0.4 0.1 0.4 0.2 0 0.2-0.1 0.4-0.2 0.4-1.2 0.5-3.2 2.3-5.3 4.3-2.1 2-4.5 4.2-6.8 5.7-2.8 1.8-6.5 2.7-9.5 3.5-1.9 0.4-3.5 0.9-4.1 1.3q-0.1 0.1-0.2 0.1zm24.1-14.7c-3.3 0.5-10.9 1.8-14.9 5.2-4.2 3.5-6.9 6.6-8.1 8.2 0.8-0.3 1.8-0.5 3-0.8 3-0.8 6.6-1.7 9.3-3.4 2.3-1.4 4.6-3.7 6.7-5.6 1.5-1.4 2.9-2.7 4-3.6z"/>
	<path id="Layer" fill-rule="evenodd" class="s0" d="m75.8 41.5q-0.1 0-0.1-0.1c-0.1-0.1 0-0.2 0.1-0.2 1.8-1.2 4.1-3 6.4-4.8 2.3-1.8 4.4-3.5 6-4.5 3.3-2 12-4.9 12.1-4.9 0.1 0 0.2 0 0.3 0.1 0 0.1 0 0.2-0.1 0.2-2.8 1.6-5.1 3.1-7.6 4.9-1.5 0.9-3 2-4.9 3.1-5.1 3.3-12 6.1-12.1 6.2q0 0-0.1 0zm23-13.6c-2.8 1-8 2.9-10.4 4.3-1.6 1-3.7 2.7-6 4.4-1.6 1.4-3.3 2.7-4.8 3.8 2.4-1.1 6.7-3.1 10.3-5.4 1.8-1.1 3.3-2.2 4.8-3.1 2.1-1.5 3.9-2.7 6.1-4z"/>
	<path id="Layer" class="s1" d="m69 47.2q-0.1 0-0.1 0c-0.1 0-0.1-0.1-0.1-0.2 1.9-2.9 3.4-5.9 4.5-9.1 0-0.1 0.1-0.1 0.2-0.1 0.1 0 0.1 0.1 0.1 0.2-1.1 3.2-2.6 6.3-4.5 9.2q0 0-0.1 0z"/>
	<path id="Layer" class="s1" d="m65.3 51.7q-0.1 0-0.2 0c0-0.1 0-0.2 0.1-0.3 3.2-2.3 6.8-4 10.6-5.1 0.1-0.1 0.2 0 0.3 0.1 0 0.1-0.1 0.2-0.2 0.2-3.7 1.1-7.3 2.8-10.5 5.1q-0.1 0-0.1 0z"/>
	<path id="Layer" class="s1" d="m63 54.6q0 0-0.1 0c-0.1 0-0.1-0.1-0.1-0.2 1.1-2.8 1.8-5.8 1.9-8.8q0-0.2 0.2-0.2c0.1 0 0.2 0.1 0.2 0.2-0.2 3-0.8 6.1-1.9 8.9q-0.1 0.1-0.2 0.1z"/>
	<path id="Layer" class="s1" d="m53.9 70.6c-0.1 0-0.1-0.1-0.1-0.2-0.1-3.2-0.5-6.3-1.4-9.4 0-0.1 0.1-0.2 0.2-0.3 0 0 0.2 0.1 0.2 0.2 0.8 3.1 1.3 6.3 1.3 9.5 0 0.1-0.1 0.2-0.2 0.2q0 0 0 0z"/>
	<path id="Layer" class="s1" d="m54.6 69.7q-0.1 0-0.2-0.1c0 0 0-0.1 0-0.2 2.3-2.2 4.9-3.9 7.7-5.3 0.1-0.1 0.2 0 0.2 0 0.1 0.1 0.1 0.2 0 0.3-2.8 1.4-5.4 3.1-7.6 5.3q-0.1 0-0.1 0z"/>
	<path id="Layer" class="s1" d="m50.8 83.9q0 0 0 0c-0.1 0-0.2-0.1-0.2-0.2 0.1-3.2-0.4-6.4-1.4-9.4 0-0.1 0-0.2 0.1-0.2 0.1-0.1 0.2 0 0.3 0.1 1 3.1 1.4 6.3 1.4 9.5 0 0.1-0.1 0.2-0.2 0.2z"/>
	<path id="Layer" class="s1" d="m50.7 96q0 0 0 0c-0.1 0-0.2-0.1-0.2-0.2 0.3-3.2 1.3-6.4 3-9.2 0 0 0.1-0.1 0.2 0 0.1 0 0.1 0.1 0.1 0.2-1.7 2.7-2.7 5.9-2.9 9-0.1 0.1-0.1 0.2-0.2 0.2z"/>
	<path id="Layer" class="s1" d="m51.3 103.6q-0.1 0-0.1-0.1c-1.2-2.6-2.9-4.9-5-6.7-0.1-0.1-0.1-0.2 0-0.3 0-0.1 0.1-0.1 0.2 0 2.2 1.8 3.9 4.2 5.1 6.8 0 0.1 0 0.2-0.1 0.3q0 0-0.1 0z"/>
	<path id="Layer" class="s1" d="m52.3 108.4q-0.1 0-0.1-0.1-0.9-1.5-2.2-2.5c-0.1-0.1-0.1-0.2-0.1-0.3 0.1-0.1 0.2-0.1 0.3 0q1.4 1.1 2.3 2.6c0 0.1 0 0.2-0.1 0.3q0 0-0.1 0z"/>
	<path id="Layer" class="s1" d="m56.1 118.6q-0.1-0.1-0.2-0.2c-0.6-4.4-0.4-8.9 0.6-13.3 0-0.1 0.1-0.1 0.2-0.1 0.1 0 0.2 0.1 0.1 0.2-0.9 4.3-1.1 8.8-0.5 13.2 0 0-0.1 0.1-0.2 0.1q0 0.1 0 0.1z"/>
	<path id="Layer" class="s1" d="m60 125.9q-0.1 0-0.1-0.1c-1-1.1-2.3-1.8-3.7-2.1-0.1-0.1-0.2-0.1-0.1-0.2 0-0.1 0.1-0.2 0.2-0.2 1.5 0.3 2.8 1.2 3.8 2.3 0.1 0.1 0.1 0.2 0 0.3q0 0-0.1 0z"/>
	<path id="Layer" class="s1" d="m63 129.8q-0.2 0-0.2-0.2c-0.9-4.1-1-7.1-0.5-10.1 0-0.1 0.1-0.2 0.2-0.2 0.1 0.1 0.1 0.2 0.1 0.3-0.5 2.9-0.3 5.9 0.5 10 0.1 0.1 0 0.2-0.1 0.2q0 0 0 0z"/>
	<path id="Layer" class="s1" d="m64.9 132.2q0 0 0 0c-2.2-1.1-4.7-1.7-7.2-1.7-0.1 0-0.1-0.1-0.1-0.2 0-0.1 0-0.2 0.1-0.2 2.6 0.1 5.1 0.7 7.3 1.8 0.1 0.1 0.1 0.2 0.1 0.3q0 0-0.2 0z"/>
	<path id="Layer" class="s1" d="m76.4 141.8q-0.1 0-0.2-0.1c-1.8-2.2-3-4.9-3.5-7.7 0-0.1 0-0.2 0.1-0.2q0.2 0 0.2 0.1c0.5 2.8 1.7 5.4 3.5 7.6 0.1 0.1 0.1 0.2 0 0.2q-0.1 0.1-0.1 0.1z"/>
	<path id="Layer" class="s1" d="m70.6 143.2c-0.1 0-0.2 0-0.2-0.1 0-0.1 0.1-0.2 0.2-0.2 2.8-0.4 5.7-0.5 8.5-0.2 0.1 0.1 0.2 0.1 0.1 0.2q0 0.2-0.2 0.2c-2.8-0.3-5.6-0.3-8.4 0.1q0 0.1 0 0z"/>
	<path id="Layer" class="s1" d="m89.8 148.8q0 0-0.1-0.1c-1.9-1.6-3.5-3.6-4.6-5.8 0-0.1 0-0.2 0.1-0.2 0.1-0.1 0.2 0 0.3 0 1 2.2 2.6 4.2 4.4 5.8 0.1 0 0.1 0.1 0.1 0.2q-0.1 0.1-0.2 0.1z"/>
	<path id="Layer" class="s1" d="m87.9 151.3q-0.1 0-0.2-0.1 0-0.1 0-0.2c0 0 0.5-0.2 0.5-0.2 1.8-0.7 3.8-0.9 5.7-0.7 0.1 0 0.2 0.1 0.2 0.2 0 0.1-0.1 0.2-0.2 0.2-2-0.3-4.1 0-6 0.8q0 0 0 0z"/>
	<path id="Layer" class="s1" d="m73.7 38c-0.7 0-1.2-0.6-1.2-1.3 0-0.6 0.5-1.2 1.2-1.2 0.7 0 1.2 0.6 1.2 1.2 0 0.7-0.5 1.3-1.2 1.3z"/>
	<path id="Layer" class="s1" d="m52.2 61c-0.7 0-1.2-0.5-1.2-1.2 0-0.7 0.5-1.2 1.2-1.2 0.7 0 1.2 0.5 1.2 1.2 0 0.7-0.5 1.2-1.2 1.2z"/>
	<path id="Layer" class="s0" d="m56.5 131.5c-0.7 0-1.2-0.6-1.2-1.2 0-0.7 0.5-1.3 1.2-1.3 0.7 0 1.2 0.6 1.2 1.3 0 0.6-0.5 1.2-1.2 1.2z"/>
	<path id="Layer" class="s0" d="m55.1 85.9c0 0.5-0.4 0.9-0.9 0.9-0.6 0-1-0.4-1-0.9 0-0.5 0.4-0.9 1-0.9 0.5 0 0.9 0.4 0.9 0.9z"/>
	<path id="Layer" class="s0" d="m50.3 105.2c0 0.5-0.5 1-1 1-0.5 0-0.9-0.5-0.9-1 0-0.5 0.4-0.9 0.9-0.9 0.5 0 1 0.4 1 0.9z"/>
	<path id="Layer" class="s0" d="m63.6 118.6c0 0.5-0.4 1-1 1-0.5 0-0.9-0.5-0.9-1 0-0.5 0.4-0.9 0.9-0.9 0.6 0 1 0.4 1 0.9z"/>
	<path id="Layer" class="s1" d="m69.7 144.2c-0.5 0-0.9-0.4-0.9-1 0-0.5 0.4-0.9 0.9-0.9 0.5 0 0.9 0.4 0.9 0.9 0 0.6-0.4 1-0.9 1z"/>
	<path id="Layer" class="s0" d="m85.8 142c0 0.5-0.4 0.9-0.9 0.9-0.5 0-1-0.4-1-0.9 0-0.6 0.5-1 1-1 0.5 0 0.9 0.4 0.9 1z"/>
	<path id="Layer" class="s0" d="m77.2 47.4c-0.6 0-1.2-0.5-1.2-1.2 0-0.7 0.6-1.2 1.2-1.2 0.7 0 1.3 0.5 1.3 1.2 0 0.7-0.6 1.2-1.3 1.2z"/>
	<path id="Layer" class="s0" d="m65 45.7c-0.7 0-1.2-0.6-1.2-1.2 0-0.7 0.5-1.3 1.2-1.3 0.7 0 1.2 0.6 1.2 1.3 0 0.6-0.5 1.2-1.2 1.2z"/>
	<path id="Layer" class="s1" d="m63.4 65c-0.8 0-1.3-0.6-1.3-1.3 0-0.8 0.5-1.3 1.3-1.3 0.7 0 1.3 0.5 1.3 1.3 0 0.7-0.6 1.3-1.3 1.3z"/>
	<path id="Layer" class="s1" d="m45.3 97.1c-0.7 0-1.3-0.6-1.3-1.3 0-0.8 0.6-1.4 1.3-1.4 0.7 0 1.3 0.6 1.3 1.4 0 0.7-0.6 1.3-1.3 1.3z"/>
	<path id="Layer" class="s0" d="m49 74.4c-0.6 0-1-0.5-1-1.1 0-0.5 0.4-1 1-1 0.6 0 1 0.5 1 1 0 0.6-0.4 1.1-1 1.1z"/>
	<path id="Layer" class="s1" d="m57.9 104.2c0 0.6-0.4 1-1 1-0.6 0-1-0.4-1-1 0-0.6 0.4-1 1-1 0.6 0 1 0.4 1 1z"/>
	<path id="Layer" class="s1" d="m55.3 124.3c-0.6 0-1.1-0.5-1.1-1.1 0-0.5 0.5-1 1.1-1 0.5 0 1 0.5 1 1 0 0.6-0.5 1.1-1 1.1z"/>
	<path id="Layer" class="s0" d="m86.9 152.4c-0.6 0-1-0.4-1-1 0-0.6 0.4-1 1-1 0.5 0 1 0.4 1 1 0 0.6-0.5 1-1 1z"/>
	<path id="Layer" class="s1" d="m73.8 133c0 0.5-0.5 1-1.1 1-0.5 0-1-0.5-1-1 0-0.6 0.5-1.1 1-1.1 0.6 0 1.1 0.5 1.1 1.1z"/>
	<path id="Layer" fill-rule="evenodd" class="s1" d="m56.3 65.4q-0.1 0-0.2-0.1c-0.2-0.1-0.2-0.3-0.1-0.4l1.5-2.7q0-0.1 0.1-0.1c0 0 2.2-1.5 9-6.1 6.7-4.6 9.7-5 14.3-5.4l0.5-0.1c4.8-0.5 7.9-1.6 7.9-1.6 0.2 0 0.4 0 0.4 0.2 0.1 0.2 0.1 0.4-0.1 0.4-2.1 1.4-3.5 2.9-4.9 4.4-1.5 1.7-3.1 3.4-5.7 4.6-3.8 1.7-7.7 1.3-10.9 0.9-0.8-0.1-1.7-0.2-2.4-0.2q-0.1 0-0.2 0c-3.1 0-7 3.1-8.9 6q-0.2 0.2-0.3 0.2zm9.2-6.9q0.1 0 0.2 0c0.8 0 1.6 0.1 2.5 0.2 3.1 0.4 6.9 0.8 10.5-0.8 2.5-1.2 4-2.8 5.5-4.5 1-1.1 2-2.2 3.3-3.2-1.4 0.3-3.5 0.8-6 1l-0.6 0.1c-4.6 0.5-7.3 0.8-13.9 5.3q-1.8 1.2-3.1 2.1 0.8-0.2 1.6-0.2z"/>
	<path id="Layer" fill-rule="evenodd" class="s0" d="m56 65.8q-0.1 0-0.2 0c-0.1 0-0.2-0.2-0.2-0.4 0.5-3.9-2-7.3-4.6-10.8l-0.4-0.6c-2.1-2.9-2.5-7.1-2.8-10.1-0.1-1.1-0.2-2.1-0.4-2.8-0.6-2.6-1.3-4-3-6.6-0.1-0.1-0.1-0.3 0-0.4 0.1-0.1 0.3-0.2 0.4-0.1 5.4 2.5 8.9 9.3 9 9.6q0.1 0.1 0.1 0.2c0 0 0 2.4 0.6 5.8 0.5 3.4 2.6 7.2 2.6 7.2q0 0.1 0 0.3c0 0-0.3 1.7-0.4 3.7-0.1 2 0.2 3.7 0.2 3.7q0 0.1 0 0.2l-0.6 1q-0.1 0.1-0.3 0.1zm-10.3-30.5c1.3 2 1.9 3.3 2.4 5.7 0.2 0.7 0.3 1.7 0.4 2.8 0.3 3 0.7 7 2.7 9.7l0.4 0.6c1.8 2.5 3.6 4.9 4.4 7.6q0-0.5 0-0.9c0-1.8 0.3-3.3 0.4-3.7-0.4-0.7-2.1-4.2-2.6-7.4-0.6-3.1-0.6-5.4-0.6-5.8-0.4-0.7-3.3-6-7.5-8.6z"/>
	<path id="Layer" fill-rule="evenodd" class="s0" d="m56.8 57.4q-0.2-0.1-0.3-0.2c-3-5.8-3.3-10.1-3.3-13.3 0.1-2.6 1.1-5.5 2.1-8q0.5-1.5 0.9-2.7c0.7-2.3 1.8-7 1.9-7.1 0-0.1 0.1-0.3 0.3-0.3 0.2 0 0.3 0.1 0.3 0.3 0.1 0 1 3.5 1.6 7.4l0.2 1.3c0.6 3.7 1.4 8.9 0.8 12.6-0.5 3.8-1.9 5.8-3 7.5-0.5 0.8-0.9 1.5-1.2 2.2 0 0.1-0.2 0.2-0.3 0.3q0 0 0 0zm1.6-29.7c-0.4 1.6-1 4.2-1.5 5.7q-0.4 1.3-1 2.7c-0.9 2.5-1.9 5.4-1.9 7.8-0.1 3 0.2 7 2.8 12.3 0.2-0.6 0.6-1.1 0.9-1.7 1.1-1.6 2.4-3.6 2.9-7.2 0.6-3.6-0.2-8.7-0.8-12.4l-0.2-1.3c-0.4-2.4-0.9-4.6-1.2-5.9z"/>
	<path id="Layer" fill-rule="evenodd" class="s0" d="m56.6 56.6q-0.1 0-0.1 0-0.1-0.1-0.1-0.2c-0.1-0.7-0.2-1.5-0.3-2.2-0.4-2.8-0.8-5.7-0.5-10.3 0.2-3.1 0.9-6.8 1.5-10 0.6-2.9 1.1-5.4 1-6.7 0-0.1 0.1-0.2 0.2-0.2q0 0 0 0c0.1 0 0.2 0.1 0.2 0.1 0 0.1 0.7 8.2 0.7 11.6q0 0.7 0.1 1.6c0 4.9 0.1 12.3-2.6 16.2q-0.1 0.1-0.1 0.1zm1.7-27.3c-0.2 1.3-0.5 2.9-0.8 4.7-0.6 3.2-1.3 6.8-1.5 9.9-0.3 4.6 0.1 7.5 0.4 10.2q0.2 0.9 0.3 1.8c2.3-3.9 2.2-10.9 2.2-15.6q0-0.9 0-1.6c0-2.3-0.4-6.8-0.6-9.4z"/>
	<path id="Layer" fill-rule="evenodd" class="s1" d="m51.5 80q0 0-0.1 0c-0.2-0.1-0.3-0.2-0.2-0.4l0.3-1.5q0 0 0-0.1c1-1.6 4.1-3.6 5.4-4.2 0.3-0.1 0.7-0.4 1.1-0.7 1.3-0.9 3.4-2.4 7.5-2.7 4.1-0.4 6.1 0.1 8.3 0.7 0.7 0.1 1.4 0.3 2.2 0.5 3.3 0.6 6.1 0.5 6.1 0.5q0 0 0 0c0.2 0 0.3 0.1 0.4 0.3 0 0.1-0.1 0.3-0.3 0.4-1.4 0.4-2.6 1.2-3.9 2-2.1 1.3-4.5 2.8-8.3 3.1-3.9 0.3-7-0.9-9.3-1.8-1.2-0.5-2.2-0.8-3-0.9-2-0.1-4.7 2.4-5.9 4.6q-0.1 0.2-0.3 0.2zm6.1-5.5q0.1 0 0.1 0c0.9 0 1.9 0.4 3.2 0.9 2.3 0.9 5.3 2.1 9.1 1.8 3.5-0.3 5.8-1.7 7.9-3 0.8-0.5 1.6-1 2.4-1.4-1.1-0.1-2.7-0.2-4.5-0.5-0.8-0.2-1.5-0.4-2.2-0.5-2.2-0.6-4-1-8-0.7-3.9 0.3-5.9 1.7-7.2 2.6-0.5 0.3-0.8 0.6-1.2 0.8q-0.1 0-0.2 0.1 0.3-0.1 0.6-0.1z"/>
	<path id="Layer" fill-rule="evenodd" class="s1" d="m50.1 93.5c-0.1 0-0.2-0.1-0.3-0.2q0-0.1-0.2-0.6c-1.6-3.6-4-5.7-6.2-7.7-1.8-1.6-3.5-3.1-4.7-5.1-2-3.4-3-8.1-3.8-12.2-0.4-2.1-0.8-4-1.2-5.5-0.1-0.2 0-0.4 0.2-0.4 0.2-0.1 0.4 0 0.4 0.1 0.9 1.8 3 3.6 5.2 5.5 2.1 1.8 4.3 3.6 5.6 5.7 2.6 4 2.9 8.6 3.1 11.4v0.2c0.2 2.9 1.5 6.5 2 7.8q0.1 0.2 0.3 0.5c0 0.2-0.1 0.4-0.2 0.4q-0.1 0.1-0.2 0.1zm-15.2-29.5q0.4 1.6 0.7 3.5c0.8 4.1 1.7 8.8 3.7 12 1.2 2 2.8 3.4 4.5 5 1.6 1.4 3.2 2.8 4.5 4.6-0.4-1.4-0.7-2.9-0.8-4.4v-0.2c-0.2-2.7-0.4-7.2-3-11.1-1.2-1.9-3.4-3.7-5.4-5.5-1.6-1.3-3.1-2.6-4.2-3.9z"/>
	<path id="Layer" fill-rule="evenodd" class="s1" d="m49 91.3q-0.1 0-0.3-0.1c-0.9-1.1-3.4-2.6-7.1-4.4-2.6-1.2-4.8-4.1-6.4-8.4-1.3-3.5-2.6-5.6-2.7-5.6 0-0.2 0-0.3 0.1-0.5 0.1-0.1 0.3-0.1 0.4 0 2.6 1.5 4.5 3.4 4.5 3.4q0.1 0.1 0.1 0.2c0 0 0.9 2.5 2.2 4.4 1 1.4 2.3 2.6 4.5 4.6l0.8 0.8c2.8 2.5 4.2 5 4.2 5.1 0.1 0.2 0.1 0.4-0.1 0.5q-0.1 0-0.2 0zm-15.1-17.6c0.5 0.9 1.3 2.5 2 4.4 1.1 2.9 2.9 6.6 6 8 1.7 0.9 3.8 2 5.4 3-0.7-0.8-1.5-1.9-2.7-2.9l-0.8-0.8c-2.2-2-3.6-3.2-4.6-4.7-1.2-1.8-2.1-4.1-2.2-4.5-0.3-0.3-1.5-1.4-3.1-2.5z"/>
	<path id="Layer" fill-rule="evenodd" class="s0" d="m51.8 104.8c-0.2 0-0.4-0.1-0.4-0.3-0.2-4 1.3-6.8 2.5-9l0.2-0.3c0.4-0.7 0.6-1.6 1-2.6 0.7-2.4 1.6-5.3 4.1-7.2 2-1.5 4.4-2.1 6.6-2.6 1.6-0.4 3.2-0.8 4.4-1.5 0.1-0.1 0.3 0 0.4 0.1 0.2 0.2 0.1 0.4 0 0.5 0 0-2 1.9-3.2 4.5q-0.4 0.7-0.7 1.4c-1 2.4-2 4.6-4.7 5.8-1.3 0.5-2.4 0.9-3.4 1.2-1.3 0.4-2.4 0.8-3.6 1.5-2.5 1.6-2.9 8.1-2.9 8.2 0 0.2-0.2 0.3-0.3 0.3zm17.2-22.2c-1 0.4-2 0.6-3 0.9-2.2 0.5-4.5 1.1-6.4 2.5-2.3 1.7-3.1 4.5-3.9 6.8-0.3 1.1-0.6 2-1 2.7l-0.1 0.3q0 0 0.1-0.1c1.2-0.8 2.4-1.1 3.7-1.6 1-0.3 2-0.6 3.3-1.2 2.5-1 3.4-3.1 4.4-5.4q0.3-0.7 0.6-1.4c0.7-1.4 1.6-2.6 2.3-3.5z"/>
	<path id="Layer" fill-rule="evenodd" class="s0" d="m55.8 119q-0.1 0-0.2 0c-1-0.8-2.3-1-4-1.4-1.9-0.4-4.1-0.9-7.1-2.1-4-1.5-6.1-5.9-8.3-10.2-1.1-2.3-2.2-4.5-3.6-6.2-0.1-0.1-0.1-0.3 0.1-0.5 0.1-0.1 0.3-0.1 0.4 0 2.1 1.4 4.2 2.2 6.5 3.2 2 0.8 4 1.7 6.2 3 3.6 2.1 4.7 4.3 6.1 6.9 0.4 0.7 0.8 1.5 1.3 2.3 2.1 3.4 2.9 4.4 2.9 4.4 0.1 0.2 0.1 0.4 0 0.5q-0.1 0.1-0.3 0.1zm-21.6-18.9c1 1.4 1.8 3.1 2.7 4.9 2 4.1 4.1 8.4 7.8 9.9 3 1.1 5.2 1.6 7 2 1.2 0.2 2.1 0.4 2.9 0.8-0.4-0.8-1.1-1.8-2-3.4-0.5-0.8-0.9-1.6-1.3-2.3-1.3-2.5-2.5-4.6-5.9-6.6-2.1-1.3-4.1-2.1-6.1-3-1.8-0.7-3.4-1.4-5.1-2.3z"/>
	<path id="Layer" fill-rule="evenodd" class="s1" d="m59.1 124.3c-0.2 0-0.3-0.1-0.4-0.2 0-0.1-0.8-2.7-0.8-5.3-0.2-3.7 0.4-7.5 3.4-10.6 2.1-2.2 4.3-3.2 6.5-4.2 2.5-1.1 4.9-2.2 6.8-5 0.1-0.2 0.2-0.2 0.4-0.2 0.1 0.1 0.2 0.2 0.2 0.4 0 0 0.2 8.8-6.5 12-2.1 1.1-3.8 1.8-5.2 2.4-2.7 1.1-4 1.7-4.5 3-0.2 0.7-0.3 1.5-0.4 2.3 0.2 1.7 0.5 3.4 0.8 5 0 0.2-0.1 0.4-0.2 0.4q-0.1 0-0.1 0zm15.4-24c-1.9 2.3-4.1 3.3-6.4 4.4-2.1 0.9-4.3 1.9-6.3 3.9-2 2.2-2.9 4.6-3.1 7.1 0.7-1.1 2.1-1.7 4.5-2.8 1.4-0.5 3.1-1.3 5.2-2.3 4.8-2.4 5.9-7.8 6.1-10.3z"/>
	<path id="Layer" fill-rule="evenodd" class="s0" d="m68.7 135.6q0 0-0.1 0c-0.1 0-2.3-0.7-3-6.5-0.5-4.5 1.2-7.2 2.2-8.9q0.4-0.7 0.7-1.2c0.3-0.6 0.4-1.3 0.5-2 0.3-1.2 0.5-2.4 1.5-3.3 0.1-0.1 0.3-0.2 0.4-0.1 0.2 0.1 0.2 0.2 0.2 0.4-0.3 1.3-0.1 3.4 0.1 5.4 0.2 1.9 0.4 3.6 0.2 4.8-0.3 2.2-1.4 3.6-2.2 4.7-0.6 0.8-1.2 1.4-1.3 2.2-0.4 1.9 1.1 3.9 1.1 3.9 0.1 0.2 0.1 0.3 0 0.5q-0.1 0.1-0.3 0.1zm1.6-20.4c-0.3 0.6-0.4 1.2-0.6 1.9-0.1 0.8-0.2 1.5-0.6 2.2q-0.2 0.6-0.7 1.3c-1 1.7-2.5 4.1-2.1 8.5 0.2 1.8 0.6 3.1 1 4-0.2-0.7-0.2-1.4-0.1-2.1 0.2-1 0.8-1.7 1.4-2.5 0.8-1.1 1.8-2.3 2.1-4.4 0.1-1.1 0-2.8-0.2-4.6-0.1-1.5-0.3-3-0.2-4.3z"/>
	<path id="Layer" fill-rule="evenodd" class="s1" d="m58.4 142.7c-1.4 0-2.7-0.2-3.9-0.4-2-0.3-4-0.5-6.1 0.1-0.2 0-0.4-0.1-0.5-0.3 0-0.1 0-0.3 0.2-0.4 0 0 1.4-0.8 4.8-1.6 1.3-0.3 2.4-1 3.6-1.8 1.9-1.2 4-2.6 7.1-2.8 5.3-0.4 8.9 3.1 9 3.2 0.1 0.1 0.1 0.3 0.1 0.4-0.1 0.2-0.3 0.3-0.4 0.2 0 0-2.6-0.6-5.1 0.3-1 0.4-1.7 0.8-2.4 1.2-1.2 0.8-2.5 1.6-5.3 1.8q-0.6 0.1-1.1 0.1zm-7.2-1.4c1.2 0 2.3 0.2 3.4 0.3 1.5 0.2 3.1 0.5 4.9 0.3 2.5-0.2 3.7-0.9 4.9-1.7 0.7-0.4 1.5-0.9 2.5-1.2 1.6-0.6 3.2-0.6 4.2-0.6-1.3-0.9-4-2.4-7.4-2.2-3 0.2-4.9 1.5-6.8 2.7-1.2 0.8-2.4 1.6-3.8 1.9q-1.1 0.3-1.9 0.5z"/>
	<path id="Layer" fill-rule="evenodd" class="s1" d="m80.4 144.4c-0.1 0-0.3-0.1-0.3-0.2q0-0.1 0-0.1c-0.2-0.7-0.6-1.4-1-2.2-0.9-1.8-2.1-4-2.1-7.3 0.1-2.2 0.6-3.8 1.2-5.4 0.4-1.3 0.8-2.6 0.8-3.9 0-0.2 0.2-0.4 0.4-0.4 0.2 0 0.3 0.2 0.3 0.4 0 0 0.1 2.6 0.9 5 0.9 2.6 1.2 5.8 0.7 7.8l-0.2 1c-0.3 1.1-0.4 1.2-0.6 2.5-0.1 0.8 0.2 2 0.3 2.3q0 0 0 0.1c0 0.2-0.1 0.3-0.3 0.4q0 0-0.1 0zm-1.1-16.5q-0.2 0.7-0.5 1.5c-0.5 1.5-1 3.1-1 5.2-0.1 3.1 1 5.3 2 7q0 0 0 0.1 0-0.1 0-0.2c0.2-1.3 0.3-1.5 0.6-2.6l0.2-1c0.5-1.9 0.2-4.9-0.7-7.4-0.3-0.9-0.5-1.8-0.6-2.6z"/>
	<path id="Layer" fill-rule="evenodd" class="s0" d="m69.3 152.4q-0.2 0-0.3-0.2c-0.1-0.1 0-0.3 0.1-0.4 0 0 1.1-0.8 2.3-2.3l0.1-0.2c1.1-1.2 1.8-2.1 3.3-2.9 1.1-0.6 3.6-1.3 6.6-1 2.7 0.2 4 0.9 4.1 0.9 0.1 0.1 0.2 0.2 0.2 0.4-0.1 0.2-0.2 0.3-0.4 0.3q0 0 0 0c0 0-1.1-0.1-2.5 0.7-0.5 0.3-0.8 0.7-1.2 1.1-0.6 0.7-1.4 1.5-3.3 2.4-2 0.9-4.1 0.9-5.9 1-1.1 0-2.2 0-3 0.2q0 0-0.1 0zm10.8-6.4c-2.3 0-4.1 0.5-5 1-1.3 0.7-2 1.6-3 2.8l-0.1 0.1q-0.9 1-1.5 1.6 0.9 0 1.9 0c1.8-0.1 3.8-0.1 5.6-0.9 1.8-0.9 2.4-1.6 3.1-2.3 0.4-0.5 0.7-0.9 1.4-1.2q0.8-0.4 1.4-0.6c-0.6-0.2-1.5-0.3-2.6-0.4q-0.6-0.1-1.2-0.1z"/>
	<path id="Layer" fill-rule="evenodd" class="s1" d="m94.6 150.8q-0.2 0-0.3-0.2 0 0-0.3-0.3c-0.4-0.7-1.1-1.4-1.9-2-1.1-1-2.3-2.1-3.2-3.8-1.5-3.1-1.3-6.8-0.9-10.4 0-0.2 0.1-0.3 0.3-0.3q0.3 0 0.4 0.2c0 0.1 0.7 2.5 1.8 4.2q0.4 0.5 0.7 0.9c1 1.3 1.9 2.5 2.3 5.6v0.4c0.2 1.1 0.3 2.5 0.5 3.2 0.2 0.7 0.5 1.3 0.6 1.6q0.2 0.2 0.3 0.4c0.1 0.1 0 0.3-0.1 0.4q-0.1 0.1-0.2 0.1zm-6.1-15c-0.2 3-0.1 6 1.1 8.4 0.7 1.6 1.9 2.6 3 3.6q0.4 0.3 0.7 0.6c-0.2-0.8-0.3-2.2-0.5-3.2v-0.4c-0.4-2.9-1.2-4-2.1-5.2q-0.4-0.5-0.7-1c-0.6-0.9-1.1-1.9-1.5-2.8z"/>
	<path id="Layer" fill-rule="evenodd" class="s0" d="m107.4 154.4q0 0-0.1 0c-0.1 0-3.5-1.1-4.5-4.4-0.7-2.1-0.7-3.6-0.8-5.3 0-0.9-0.1-1.9-0.2-2.9 0-0.2 0.1-0.4 0.3-0.4 0.2-0.1 0.4 0.1 0.4 0.2 0.4 1.6 1.4 2.8 2.4 4.1 0.9 1 1.8 2.1 2.3 3.4 1.1 2.8 0.6 5 0.6 5.1q-0.1 0.1-0.2 0.2-0.1 0-0.2 0zm-4.7-10.6q0 0.5 0 0.9c0.1 1.6 0.1 3.1 0.7 5.1 0.8 2.3 2.9 3.4 3.7 3.8 0.1-0.7 0.2-2.4-0.6-4.3-0.4-1.1-1.2-2.1-2.1-3.2-0.6-0.7-1.2-1.5-1.7-2.3z"/>
	<path id="Layer" fill-rule="evenodd" class="s1" d="m88.1 158.6c-0.1 0-0.2 0-0.3-0.2 0-0.1 0-0.3 0.1-0.4 0.7-0.5 1.2-1.2 1.8-1.9 0.9-1.1 1.8-2.3 3.7-3.2 2-1 3.2-0.9 4.3-0.9 0.7 0 1.4 0 2.2-0.2q0.2-0.1 0.3 0.1c0.1 0.1 0.1 0.2 0.1 0.4-0.1 0-1 2-4 4.1-3.1 2.2-7.9 2.2-8.2 2.2q0 0 0 0zm9.2-5.9c-0.9 0-2 0-3.6 0.8-1.8 0.9-2.6 2-3.5 3.1q-0.5 0.6-1.1 1.3c1.6-0.1 4.7-0.6 6.8-2.1 1.8-1.2 2.8-2.5 3.3-3.2-0.5 0.1-1 0.1-1.5 0.1q-0.2 0-0.4 0z"/>
	<path id="Layer" class="s0" d="m75.8 41.9c0 0-0.5 0.4-1.5 1.2-1 0.9-2.4 2.1-4.1 3.8-3.4 3.3-8.1 8.4-12 15.6-2 3.6-3.8 7.7-5 12.2-1.4 4.5-1.9 9.5-2.2 14.6 0 5.1 0.2 10.4 1.4 15.6l0.8 4c0.4 1.3 0.8 2.6 1.2 3.9 0.8 2.6 2.1 5 3.2 7.5 2.6 4.7 5.7 9.3 9.5 13 3.9 3.8 8.1 7 12.5 9.6 8.8 5.2 18 8.2 26 10.2 4 0.9 7.7 1.8 10.9 2.7 3.3 0.9 6.1 1.8 8.3 2.7 2.3 0.9 4 1.7 5.2 2.3 1.1 0.7 1.7 1.2 1.7 1.2 0.2 0.2 0.3 0.5 0.1 0.8-0.2 0.2-0.6 0.2-0.8 0 0 0-0.4-0.4-1.5-1-1.1-0.7-2.8-1.5-5-2.3-2.3-0.9-5-1.8-8.2-2.7-3.3-0.9-6.9-1.7-11-2.7-8-2-17.3-5-26.3-10.2-4.5-2.7-8.8-6-12.7-9.8-3.9-3.8-7.1-8.4-9.7-13.3-1.2-2.5-2.5-5-3.2-7.7-0.5-1.3-0.9-2.6-1.3-3.9l-0.8-4c-1.2-5.4-1.5-10.8-1.4-16 0.3-5.2 0.9-10.2 2.3-14.7 1.3-4.6 3.1-8.8 5.1-12.4 4-7.3 8.8-12.5 12.3-15.8 1.7-1.7 3.2-2.9 4.2-3.8 1-0.8 1.5-1.2 1.5-1.2 0.1-0.2 0.4-0.2 0.5 0 0.2 0.2 0.1 0.4 0 0.6z"/>
	<path id="Layer" fill-rule="evenodd" class="s0" d="m151.1 152c-4.4-0.4-6.1-1.5-7.9-2.8-0.6-0.3-1.2-0.7-1.8-1.1-2.8-1.5-4.6-1.4-4.6-1.4-0.1 0-0.2-0.1-0.2-0.2q0-0.1 0.1-0.2c0.1 0 2.6-1.1 5.9 0.1 1.9 0.7 3.1 1.6 4.2 2.4q0.4 0.3 0.7 0.5c2.7 1.9 3.7 2.3 3.7 2.3q0.1 0.1 0.1 0.3 0 0.1-0.2 0.1 0 0 0 0zm-13.4-5.6c0.9 0.1 2.2 0.5 3.8 1.4 0.7 0.4 1.3 0.8 1.9 1.2 1.6 1.1 3.2 2.1 6.8 2.5-0.6-0.3-1.5-0.9-2.9-1.9q-0.4-0.2-0.7-0.5c-1.1-0.8-2.2-1.7-4.2-2.4-1-0.4-2-0.5-2.9-0.5-0.7 0-1.3 0.1-1.8 0.2z"/>
	<path id="Layer" fill-rule="evenodd" class="s1" d="m164 141.7c-2-0.1-3.3-0.7-5-1.6q-0.9-0.4-2.1-1c-2.9-1.2-7.5-0.4-7.6-0.4 0 0-0.1 0-0.2-0.1 0-0.1 0.1-0.2 0.1-0.2 0.2-0.1 4.3-1.7 7.6-1.3 1.9 0.3 2.9 0.9 4.1 1.5 0.9 0.5 1.7 0.9 3 1.4 1.6 0.5 3 0.6 4.2 0.7 1.1 0.2 2.1 0.3 2.9 0.6 0.1 0.1 0.2 0.2 0.1 0.3 0 0-0.1 0.1-0.2 0.1-1.1-0.2-2-0.2-3.1-0.1-0.7 0.1-1.5 0.1-2.5 0.1q-0.6 0-1.3 0zm4-0.6c-1.2-0.1-2.6-0.3-4.2-0.8-1.3-0.4-2.2-0.9-3.1-1.4-1.1-0.6-2.2-1.2-4-1.4-1.9-0.3-4.2 0.2-5.7 0.6 1.7-0.1 4.2-0.1 6 0.7q1.2 0.6 2.2 1c1.6 0.9 2.9 1.5 4.8 1.5 1.7 0.1 2.9 0 3.8 0q0.6-0.1 1.1-0.1-0.4-0.1-0.9-0.1z"/>
	<path id="Layer" fill-rule="evenodd" class="s1" d="m164.2 139c-4.5-3.3-7.9-2.9-7.9-2.8-0.2 0-0.3-0.1-0.4-0.3-0.1-0.1 0-0.3 0.2-0.4 2.3-1.4 6.7-1.6 9.8-1.3 3.4 0.4 6.1 0.4 6.1 0.4 0.2 0 0.3 0.1 0.4 0.2 0 0.2-0.1 0.4-0.2 0.4-0.1 0.1-2.1 1-3.8 2.2-1.8 1.4-3.8 1.7-3.9 1.7q0 0-0.1 0-0.1 0-0.2-0.1zm1.6-4.1c-2.4-0.2-5.6-0.2-7.9 0.6 1.4 0.2 3.8 0.8 6.6 2.8 0.5 0 2.1-0.4 3.5-1.5 0.9-0.6 1.8-1.2 2.6-1.6-1.2 0-2.9-0.1-4.8-0.3z"/>
	<path id="Layer" fill-rule="evenodd" class="s0" d="m174.1 121.2c-2.1 0-3.7-0.6-5.1-1.1-1.5-0.5-2.7-1-4.3-0.8q-0.3 0-0.4-0.2c0-0.1 0-0.3 0.1-0.4 0.1 0 1.5-1.4 7.6-2.4 4.6-0.8 7.1-3.4 7.1-3.4q0-0.1 0.1-0.1c0.2-0.1 3.6-1.2 8.8-1.2 0.2 0 0.4 0.1 0.4 0.3 0 0.2-0.1 0.4-0.3 0.4 0 0-2.9 0.5-5.5 2.8-0.8 0.7-1.4 1.5-2.1 2.3-1.6 1.9-3.2 3.8-6.2 3.8q-0.1 0-0.2 0zm5.4-7.8c-0.4 0.5-2.9 2.8-7.3 3.6-3.3 0.5-5.2 1.1-6.2 1.6 1.2 0.1 2.2 0.5 3.3 0.8 1.4 0.5 2.8 1.1 4.8 1.1q0.1 0 0.2 0c2.7 0 4.1-1.6 5.7-3.6 0.6-0.8 1.3-1.6 2.1-2.3 1.2-1.1 2.4-1.8 3.4-2.2-3.3 0.2-5.5 0.9-6 1z"/>
	<path id="Layer" fill-rule="evenodd" class="s0" d="m166 117.9c0-0.1 0-0.2 0.1-0.2 1.1-1.4 2.4-2.7 3.8-4.2 0.8-0.9 1.8-1.9 2.9-3.1 2.9-3.2 4.8-4.9 8.4-7.1 3.8-2.3 6-3.9 6-3.9 0.1-0.1 0.2 0 0.2 0 0.1 0.1 0.1 0.2 0 0.3-1 1-2 2.4-3.2 4.1-2 2.8-4.2 5.9-7.3 8.2-3.1 2.4-5.3 3.4-7.3 4.2-1.1 0.6-2.2 1-3.3 1.7q-0.1 0.1-0.1 0.1-0.1 0-0.2-0.1zm15.4-14.3c-3.6 2.2-5.4 3.9-8.4 7.1-1 1.1-2 2.1-2.9 3.1-1.1 1.2-2.1 2.2-3 3.3 0.8-0.5 1.6-0.8 2.4-1.2 1.9-0.8 4.2-1.8 7.2-4.2 3-2.3 5.2-5.4 7.2-8.1 0.8-1.1 1.5-2.1 2.2-3-1 0.7-2.6 1.8-4.7 3z"/>
	<path id="Layer" fill-rule="evenodd" class="s1" d="m162.3 116c-2.6-3.1-4-3.8-8.3-6.2l-1.3-0.7c-5.3-2.8-6.5-8.7-6.5-8.8q0-0.1 0.1-0.2 0.2 0 0.3 0.1c1.8 3.6 5.2 5.4 8 6.9l0.6 0.3c2.7 1.5 6.8 5.2 7.4 8.4q0 0.2-0.1 0.2 0 0-0.1 0-0.1 0-0.1 0zm-9.4-7.2l1.2 0.7c4.1 2.2 5.6 3 7.9 5.7-0.9-2.8-4.2-6-7-7.5l-0.6-0.3c-2.5-1.3-5.5-2.9-7.4-5.8 0.6 1.9 2.3 5.3 5.9 7.2z"/>
	<path id="Layer" fill-rule="evenodd" class="s1" d="m162.3 116.6q0-0.1 0-0.1c0-0.7-0.2-4.7-2.9-7.6-1.5-1.6-4.9-3.4-4.9-3.4q-0.1-0.1-0.2-0.2c-0.4-1.2-0.6-7.8-0.7-8.6 0-0.1 0.1-0.3 0.3-0.3 0.2-0.1 0.3 0 0.4 0.2 1 2 2.2 3.3 3.4 4.7 0.8 0.8 1.5 1.6 2.3 2.6 3 4 3 7.7 3 11.3q0 0.6 0 1.2 0 0.2 0 0.2c0 0.2-0.1 0.3-0.3 0.3-0.2 0-0.4-0.1-0.4-0.3zm-7.3-11.7c0.6 0.4 3.5 2 4.9 3.5 1.1 1.2 1.9 2.7 2.3 4-0.1-2.7-0.7-5.3-2.8-8.1-0.7-1-1.5-1.8-2.2-2.6-1-1.1-1.9-2.1-2.8-3.5 0.1 2.3 0.3 5.7 0.6 6.7z"/>
	<path id="Layer" fill-rule="evenodd" class="s0" d="m166.6 96.2c-4.7-1.7-6.8-4.5-8.9-7.1q-0.6-0.8-1.2-1.5c-2.4-3-4.7-5-4.8-5 0 0 0-0.1 0-0.2 0.1-0.1 0.2-0.1 0.2-0.1 1.4 0.8 2.7 1.4 3.7 1.9 2.4 1.2 4.3 2.1 6.2 4.2 1.7 1.9 2.4 3.3 3.2 4.6 0.5 1 1 1.9 1.8 2.9q0 0.1 0 0.2-0.1 0.1-0.2 0.1 0 0 0 0zm-9.8-8.8q0.6 0.7 1.2 1.4c1.9 2.6 4 5.1 8.1 6.8-0.6-0.8-1-1.6-1.4-2.4-0.8-1.4-1.5-2.7-3.1-4.5-1.9-2.1-3.8-3-6.1-4.2q-1.1-0.5-2.5-1.2c0.9 0.9 2.3 2.3 3.8 4.1z"/>
	<path id="Layer" fill-rule="evenodd" class="s1" d="m172.5 89.3c-0.1 0-0.1-0.1-0.1-0.2 0.6-1.3 1.1-3.2 1.7-5.1 0.7-2.6 1.4-5.2 2.4-7.2 2.9-5.9 9.4-12.9 9.5-13q0.1-0.1 0.2 0c0.1 0.1 0.1 0.2 0 0.2-0.7 1.3-1.6 3.5-2.5 5.8-1.2 2.9-2.5 6.2-3.9 8.7-2.6 4.4-4.4 7.1-7.1 10.8q0 0-0.1 0-0.1 0-0.1 0zm4.3-12.3c-1 1.9-1.7 4.5-2.4 7.1-0.4 1.4-0.8 2.7-1.2 3.8 2.3-3.1 3.9-5.7 6.3-9.6 1.3-2.4 2.7-5.7 3.9-8.7 0.7-1.7 1.3-3.3 1.9-4.5-1.9 2.1-6.3 7.3-8.5 11.9z"/>
	<path id="Layer" fill-rule="evenodd" class="s1" d="m172.7 83.4c0-0.1-0.2-3.5 0.8-7.8 1.2-5 3.7-8 5.3-9.9l0.4-0.5c1.6-1.9 2-3.1 2-3.1 0.1-0.1 0.2-0.2 0.4-0.2 0.1 0 0.3 0.1 0.3 0.3 0.5 3.4-0.3 5.7-0.3 5.8q0 0.1-0.1 0.2c0 0-3 2.1-5.3 5.5-2.3 3.4-2.8 9.7-2.8 9.7 0 0.2-0.1 0.4-0.3 0.4-0.2 0-0.4-0.2-0.4-0.4zm8.6-19.9c-0.3 0.6-0.8 1.3-1.5 2.2l-0.4 0.4c-1.7 2.1-4.1 4.8-5.2 9.6q-0.2 0.7-0.3 1.3c0.4-1.3 1-2.7 1.7-3.7 2.2-3.2 4.8-5.2 5.4-5.6 0.1-0.4 0.5-2 0.3-4.2z"/>
	<path id="Layer" fill-rule="evenodd" class="s1" d="m157.2 58.8c-0.1 0-8.2-0.3-13.3-2.2-5.1-1.8-11.4-6.6-11.4-6.6q-0.1-0.1-0.1-0.3c0.1 0 0.2-0.1 0.2 0 0.1 0 9.3 2.9 13.2 4.3 1.8 0.7 3.7 1.5 5.6 2.2 2 0.8 4 1.6 5.8 2.3 0.1 0 0.2 0.1 0.1 0.2 0 0 0 0.1-0.1 0.1q0 0 0 0zm-13.2-2.5c3.9 1.4 9.5 1.9 12 2.1q-2.3-0.9-4.8-1.9c-1.8-0.7-3.7-1.5-5.5-2.1-3.1-1.2-9.6-3.3-12.1-4.1 1.8 1.4 6.5 4.6 10.4 6z"/>
	<path id="Layer" fill-rule="evenodd" class="s1" d="m151.8 75.4c-6.8-0.3-12.3-2.6-12.3-2.7-0.1 0-0.2-0.1-0.1-0.2 0-0.1 0.1-0.1 0.2-0.1 2.4 0.6 5.4 0.4 8.7 0.2 1.5-0.1 3.1-0.2 4.7-0.3q0.1 0 0.2 0c4.7 0 10.8 2.2 10.9 2.2 0.1 0 0.1 0.1 0.1 0.2q0 0.1-0.2 0.1c-2.2-0.3-3.5 0-5 0.2-1.3 0.2-2.8 0.5-5.1 0.5q-0.9 0-2.1-0.1zm10.7-1.1c-2.1-0.6-6-1.6-9.3-1.6q-0.1 0-0.2 0c-1.6 0-3.2 0.1-4.7 0.2-2.4 0.2-4.8 0.4-6.8 0.2 2.1 0.7 5.9 1.7 10.4 2 3.5 0.2 5.4-0.2 7-0.4 1-0.2 2-0.4 3.1-0.4q0.3 0 0.5 0z"/>
	<path id="Layer" fill-rule="evenodd" class="s1" d="m163.6 74.4c0 0-3.3-2.8-8.5-3.3-3.2-0.3-6.5 0.3-6.6 0.4q-0.1 0-0.2-0.1c-4.4-1.6-5.3-4.1-5.3-4.2q-0.1-0.3 0-0.4c0.1-0.1 0.3-0.1 0.4-0.1 2.7 1 5.1 1 7.4 0.9 2.1 0.1 4.3 0 6.6 0.8 4.9 1.6 6.7 5.4 6.7 5.6 0.1 0.1 0.1 0.3-0.1 0.4q-0.1 0.1-0.2 0.1-0.1 0-0.2-0.1zm-12.8-6c-2.2 0-4.3 0-6.8-0.7 0.6 0.8 1.9 2.1 4.5 3 0.6-0.1 3.6-0.6 6.6-0.3 3.4 0.3 6 1.5 7.5 2.4-0.9-1.2-2.6-2.8-5.4-3.7-2.1-0.7-4.1-0.7-6.2-0.7q-0.1 0-0.2 0z"/>
	<path id="Layer" fill-rule="evenodd" class="s1" d="m127.4 148.8c-0.1-0.1-0.1-0.1-0.1-0.2 0.6-3.4 1.8-5.7 2.8-7.5q0.2-0.4 0.4-0.7c1-2 1.8-5.2 1.8-5.2q0-0.1 0.2-0.1c0.1 0 0.1 0.1 0.1 0.1 0.2 3.2-0.9 6.8-2 8.9-0.6 1.2-1.1 1.8-1.6 2.4-0.5 0.6-0.9 1.2-1.4 2.2q0 0.1-0.1 0.1 0 0-0.1 0zm3.4-8.3q-0.2 0.4-0.4 0.8c-0.9 1.6-1.9 3.4-2.5 6.1 0.3-0.4 0.5-0.7 0.8-1.1 0.5-0.6 1-1.2 1.6-2.3 0.9-1.8 1.8-4.6 2-7.4-0.4 1.2-0.9 2.8-1.5 3.9z"/>
	<path id="Layer" fill-rule="evenodd" class="s1" d="m126.2 150.8q-0.2-0.1-0.2-0.3c-0.1-0.3-0.2-0.6-0.4-1-0.3-0.7-0.6-1.6-0.7-3.3 0-1.5 0.3-3 0.5-4.3q0.2-0.8 0.3-1.5c0.5-3.2 0.2-4.3 0.2-4.3 0-0.2 0.1-0.3 0.2-0.4 0.2-0.1 0.4 0 0.5 0.1 2.1 3.6 1.8 6.7 1.8 6.8q0 0.1 0 0.1c-0.3 1.3-0.3 2.7-0.5 3.7-0.1 0.9-0.2 1.6-0.3 2.1-0.3 1.2-0.7 1.8-0.7 1.8l-0.3 0.4q-0.1 0.1-0.3 0.1 0 0-0.1 0zm0.5-13.2c0 0.7-0.1 1.6-0.3 2.9q-0.1 0.7-0.3 1.5c-0.2 1.3-0.5 2.8-0.5 4.2 0.1 1.6 0.4 2.4 0.7 3.1q0.1 0.2 0.1 0.3c0.2-0.2 0.3-0.7 0.5-1.3 0.1-0.4 0.2-1.1 0.3-2 0.2-1 0.3-2.4 0.7-3.7 0-0.3 0-2.4-1.2-5z"/>
	<path id="Layer" fill-rule="evenodd" class="s1" d="m145.4 42q-0.1-0.1-0.2-0.2c-0.6-0.7-3.1-3.7-4.6-5.2-1.7-1.8-5.1-4.5-5.1-4.6q-0.1 0-0.1-0.1c-1.4-2.5-2.4-7.6-2.4-7.8 0-0.2 0.1-0.3 0.2-0.4 0.2-0.1 0.3 0 0.4 0.1 0.7 0.8 1.9 1.6 3.2 2.4 2 1.3 4.2 2.8 5.4 5 0.9 1.8 1.5 3.9 2 5.8 0.5 1.8 0.9 3.6 1.6 4.4q0.1 0.1 0.1 0.2c0.1 0.1 0.1 0.3 0 0.4q-0.2 0.1-0.3 0.1-0.1 0-0.2-0.1zm-9.4-10.5c0.4 0.4 3.4 2.9 5.1 4.6 0.8 0.9 2.1 2.3 3 3.4q-0.3-1-0.6-2.3c-0.5-1.9-1.1-4-1.9-5.6-1.1-2.1-3.3-3.6-5.2-4.8-0.9-0.6-1.8-1.2-2.5-1.7 0.4 1.6 1.1 4.7 2.1 6.4z"/>
	<path id="Layer" fill-rule="evenodd" class="s0" d="m145.3 42.1c-0.6-0.4-2.2-0.9-4.1-1.3-3-0.8-6.7-1.7-9.5-3.5-2.3-1.5-4.7-3.7-6.8-5.7-2.1-2-4.1-3.8-5.3-4.3-0.2 0-0.3-0.2-0.2-0.4 0-0.1 0.2-0.3 0.4-0.2 0.4 0 11.5 0.9 16.9 5.4 6.2 5.2 9.1 9.5 9.1 9.5 0.1 0.2 0.1 0.4 0 0.5q-0.1 0.1-0.3 0.1-0.1 0-0.2-0.1zm-19.9-11c2.1 1.9 4.4 4.2 6.7 5.6 2.6 1.7 6.3 2.6 9.3 3.4 1.2 0.3 2.2 0.5 3 0.8-1.2-1.6-3.9-4.7-8.1-8.2-4-3.4-11.6-4.7-14.9-5.2 1.1 0.9 2.5 2.2 4 3.6z"/>
	<path id="Layer" fill-rule="evenodd" class="s0" d="m145 41.5c-0.1-0.1-7-2.9-12.2-6.2-1.8-1.1-3.3-2.2-4.8-3.1-2.6-1.8-4.8-3.3-7.6-4.9-0.1 0-0.1-0.1-0.1-0.2 0.1-0.1 0.2-0.1 0.3-0.1 0.1 0 8.8 2.9 12.1 4.9 1.6 1 3.7 2.7 6 4.5 2.3 1.8 4.6 3.6 6.4 4.8 0.1 0 0.1 0.1 0.1 0.2q0 0.1-0.2 0.1 0 0 0 0zm-16.8-9.6c1.5 0.9 3 2 4.8 3.1 3.5 2.3 7.9 4.3 10.3 5.4-1.5-1.1-3.2-2.4-4.8-3.8-2.3-1.7-4.4-3.4-6-4.4-2.4-1.4-7.6-3.3-10.4-4.3 2.2 1.3 4 2.5 6.1 4z"/>
	<path id="Layer" class="s1" d="m151.9 47.2q0.1 0 0.1 0c0.1 0 0.1-0.1 0.1-0.2-1.9-2.9-3.4-5.9-4.5-9.1 0-0.1-0.1-0.1-0.2-0.1-0.1 0-0.1 0.1-0.1 0.2 1.1 3.2 2.6 6.3 4.5 9.2q0 0 0.1 0z"/>
	<path id="Layer" class="s1" d="m155.6 51.7q0.1 0 0.2 0c0-0.1 0-0.2-0.1-0.3-3.2-2.3-6.8-4-10.7-5.1-0.1-0.1-0.1 0-0.2 0.1 0 0.1 0.1 0.2 0.1 0.2 3.8 1.1 7.4 2.8 10.6 5.1q0.1 0 0.1 0z"/>
	<path id="Layer" class="s1" d="m157.9 54.6q0 0 0.1 0c0.1 0 0.1-0.1 0.1-0.2-1.1-2.8-1.8-5.8-1.9-8.8q0-0.2-0.2-0.2c-0.1 0-0.2 0.1-0.2 0.2 0.2 3 0.8 6.1 1.9 8.9q0.1 0.1 0.2 0.1z"/>
	<path id="Layer" class="s1" d="m167 70.6c0.1 0 0.1-0.1 0.1-0.2 0.1-3.2 0.5-6.3 1.4-9.4 0-0.1-0.1-0.2-0.2-0.3-0.1 0-0.2 0.1-0.2 0.2-0.8 3.1-1.3 6.3-1.3 9.5 0 0.1 0.1 0.2 0.2 0.2q0 0 0 0z"/>
	<path id="Layer" class="s1" d="m166.3 69.7q0.1 0 0.2-0.1c0 0 0-0.1 0-0.2-2.3-2.2-4.9-3.9-7.7-5.3-0.1-0.1-0.2 0-0.3 0 0 0.1 0 0.2 0.1 0.3 2.8 1.4 5.4 3.1 7.6 5.3q0.1 0 0.1 0z"/>
	<path id="Layer" class="s1" d="m170.1 83.9c0.1 0 0.2-0.1 0.2-0.2-0.1-3.2 0.4-6.4 1.4-9.4 0-0.1-0.1-0.2-0.1-0.2-0.1-0.1-0.2 0-0.3 0.1-1 3.1-1.4 6.3-1.4 9.5 0 0.1 0.1 0.2 0.2 0.2z"/>
	<path id="Layer" class="s1" d="m170.2 96q0 0 0 0c0.1 0 0.2-0.1 0.2-0.2-0.3-3.2-1.3-6.4-3-9.2 0 0-0.1-0.1-0.2 0-0.1 0-0.1 0.1-0.1 0.2 1.7 2.7 2.7 5.9 2.9 9 0 0.1 0.1 0.2 0.2 0.2z"/>
	<path id="Layer" class="s1" d="m169.6 103.6q0.1 0 0.1-0.1c1.2-2.6 2.9-4.9 5-6.7 0.1-0.1 0.1-0.2 0-0.3 0-0.1-0.1-0.1-0.2 0-2.2 1.8-3.9 4.2-5.1 6.8 0 0.1 0 0.2 0.1 0.3q0 0 0.1 0z"/>
	<path id="Layer" class="s1" d="m168.6 108.4q0.1 0 0.1-0.1 0.9-1.5 2.2-2.5c0.1-0.1 0.1-0.2 0-0.3 0-0.1-0.1-0.1-0.2 0q-1.4 1.1-2.3 2.6c0 0.1 0 0.2 0.1 0.3q0 0 0.1 0z"/>
	<path id="Layer" class="s1" d="m164.8 118.6c0.1 0 0.2-0.1 0.2-0.2 0.6-4.4 0.4-8.9-0.6-13.3 0-0.1-0.1-0.1-0.2-0.1-0.1 0-0.2 0.1-0.1 0.2 0.9 4.3 1.1 8.8 0.5 13.2 0 0 0.1 0.1 0.2 0.1q0 0.1 0 0.1z"/>
	<path id="Layer" class="s1" d="m160.9 125.9q0.1 0 0.1-0.1c1-1.1 2.3-1.8 3.7-2.1 0.1-0.1 0.1-0.1 0.1-0.2 0-0.1-0.1-0.2-0.2-0.2-1.5 0.3-2.8 1.2-3.8 2.3-0.1 0.1-0.1 0.2 0 0.3q0 0 0.1 0z"/>
	<path id="Layer" class="s1" d="m157.9 129.8q0.2 0 0.2-0.2c0.9-4.1 1-7.1 0.5-10.1 0-0.1-0.1-0.2-0.2-0.2-0.1 0.1-0.2 0.2-0.1 0.3 0.5 2.9 0.3 5.9-0.5 10-0.1 0.1 0 0.2 0.1 0.2q0 0 0 0z"/>
	<path id="Layer" class="s1" d="m155.9 132.2q0.1 0 0.1 0c2.2-1.1 4.7-1.7 7.2-1.7 0.1 0 0.1-0.1 0.1-0.2 0-0.1 0-0.2-0.1-0.2q0 0 0 0c-2.6 0.1-5.1 0.7-7.3 1.8-0.1 0.1-0.2 0.2-0.1 0.3q0 0 0.1 0z"/>
	<path id="Layer" class="s1" d="m144.5 141.8q0.1 0 0.2-0.1c1.8-2.2 3-4.9 3.5-7.7 0-0.1 0-0.2-0.1-0.2q-0.2 0-0.2 0.1c-0.6 2.8-1.7 5.4-3.5 7.6-0.1 0.1-0.1 0.2 0 0.2q0.1 0.1 0.1 0.1z"/>
	<path id="Layer" class="s1" d="m150.3 143.2c0.1 0 0.2 0 0.2-0.1 0-0.1-0.1-0.2-0.2-0.2-2.8-0.4-5.7-0.5-8.5-0.2-0.1 0.1-0.2 0.1-0.1 0.2q0 0.2 0.1 0.2c2.8-0.3 5.7-0.3 8.5 0.1q0 0.1 0 0z"/>
	<path id="Layer" class="s1" d="m131.1 148.8q0 0 0.1-0.1c1.9-1.6 3.4-3.6 4.6-5.8 0-0.1 0-0.2-0.1-0.2-0.1-0.1-0.2 0-0.3 0-1.1 2.2-2.6 4.2-4.4 5.8-0.1 0-0.1 0.1-0.1 0.2q0.1 0.1 0.2 0.1z"/>
	<path id="Layer" class="s1" d="m133 151.3q0.1 0 0.2-0.1 0-0.1 0-0.2c0 0-0.5-0.2-0.5-0.2-1.8-0.7-3.8-0.9-5.7-0.7-0.1 0-0.2 0.1-0.2 0.2 0 0.1 0.1 0.2 0.2 0.2 2-0.3 4.1 0 6 0.8q0 0 0 0z"/>
	<path id="Layer" class="s0" d="m147.2 38c-0.7 0-1.2-0.6-1.2-1.3 0-0.6 0.5-1.2 1.2-1.2 0.7 0 1.2 0.6 1.2 1.2 0 0.7-0.5 1.3-1.2 1.3z"/>
	<path id="Layer" class="s0" d="m168.7 61c-0.7 0-1.2-0.5-1.2-1.2 0-0.7 0.5-1.2 1.2-1.2 0.7 0 1.2 0.5 1.2 1.2 0 0.7-0.5 1.2-1.2 1.2z"/>
	<path id="Layer" class="s1" d="m164.4 131.5c-0.7 0-1.2-0.6-1.2-1.2 0-0.7 0.5-1.3 1.2-1.3 0.7 0 1.2 0.6 1.2 1.3 0 0.6-0.5 1.2-1.2 1.2z"/>
	<path id="Layer" class="s0" d="m165.8 85.9c0 0.5 0.4 0.9 0.9 0.9 0.6 0 1-0.4 1-0.9 0-0.5-0.4-0.9-1-0.9-0.5 0-0.9 0.4-0.9 0.9z"/>
	<path id="Layer" class="s1" d="m171.6 106.2c-0.5 0-1-0.5-1-1 0-0.5 0.5-0.9 1-0.9 0.5 0 0.9 0.4 0.9 0.9 0 0.5-0.4 1-0.9 1z"/>
	<path id="Layer" class="s0" d="m157.3 118.6c0 0.5 0.4 1 1 1 0.5 0 0.9-0.5 0.9-1 0-0.5-0.4-0.9-0.9-0.9-0.6 0-1 0.4-1 0.9z"/>
	<path id="Layer" class="s0" d="m151.2 144.2c-0.5 0-1-0.4-1-1 0-0.5 0.5-0.9 1-0.9 0.5 0 0.9 0.4 0.9 0.9 0 0.6-0.4 1-0.9 1z"/>
	<path id="Layer" class="s0" d="m136 142.9c-0.5 0-0.9-0.4-0.9-0.9 0-0.6 0.4-1 0.9-1 0.5 0 1 0.4 1 1 0 0.5-0.5 0.9-1 0.9z"/>
	<path id="Layer" class="s0" d="m143.7 47.4c-0.7 0-1.3-0.5-1.3-1.2 0-0.7 0.6-1.2 1.3-1.2 0.6 0 1.2 0.5 1.2 1.2 0 0.7-0.6 1.2-1.2 1.2z"/>
	<path id="Layer" class="s1" d="m155.9 45.7c-0.7 0-1.2-0.6-1.2-1.2 0-0.7 0.5-1.3 1.2-1.3 0.7 0 1.2 0.6 1.2 1.3 0 0.6-0.5 1.2-1.2 1.2z"/>
	<path id="Layer" class="s0" d="m157.5 65c-0.7 0-1.3-0.6-1.3-1.3 0-0.8 0.6-1.3 1.3-1.3 0.7 0 1.3 0.5 1.3 1.3 0 0.7-0.6 1.3-1.3 1.3z"/>
	<path id="Layer" class="s0" d="m175.6 97.1c-0.8 0-1.3-0.6-1.3-1.3 0-0.8 0.5-1.4 1.3-1.4 0.7 0 1.3 0.6 1.3 1.4 0 0.7-0.6 1.3-1.3 1.3z"/>
	<path id="Layer" class="s1" d="m171.9 74.4c-0.6 0-1-0.5-1-1.1 0-0.5 0.4-1 1-1 0.6 0 1 0.5 1 1 0 0.6-0.4 1.1-1 1.1z"/>
	<path id="Layer" class="s1" d="m163 104.2c0 0.6 0.4 1 1 1 0.6 0 1-0.4 1-1 0-0.6-0.4-1-1-1-0.6 0-1 0.4-1 1z"/>
	<path id="Layer" class="s0" d="m165.6 124.3c-0.5 0-1-0.5-1-1.1 0-0.5 0.5-1 1-1 0.6 0 1 0.5 1 1 0 0.6-0.4 1.1-1 1.1z"/>
	<path id="Layer" class="s1" d="m134 152.4c-0.5 0-1-0.4-1-1 0-0.6 0.5-1 1-1 0.6 0 1 0.4 1 1 0 0.6-0.4 1-1 1z"/>
	<path id="Layer" class="s1" d="m147.1 133c0 0.5 0.5 1 1.1 1 0.5 0 1-0.5 1-1 0-0.6-0.5-1.1-1-1.1-0.6 0-1.1 0.5-1.1 1.1z"/>
	<path id="Layer" fill-rule="evenodd" class="s1" d="m164.3 65.2c-1.9-2.9-5.8-6-8.9-6q-0.1 0-0.2 0c-0.7 0-1.6 0.1-2.4 0.2-3.2 0.4-7.1 0.8-10.9-0.9-2.7-1.2-4.2-2.9-5.8-4.6-1.3-1.5-2.7-3-4.8-4.4-0.2 0-0.2-0.2-0.1-0.4 0-0.2 0.2-0.2 0.4-0.2 0 0 3.1 1.1 7.9 1.6l0.5 0.1c4.6 0.4 7.6 0.8 14.3 5.4 6.8 4.6 9 6.1 9 6.1q0 0 0.1 0.1l1.5 2.7c0.1 0.1 0.1 0.3-0.1 0.4q-0.1 0.1-0.2 0.1-0.1 0-0.3-0.2zm-7.3-6.5q-1.4-0.9-3.1-2.1c-6.6-4.5-9.3-4.8-14-5.3l-0.5-0.1c-2.5-0.2-4.6-0.7-6-1 1.3 1 2.3 2.1 3.3 3.2 1.5 1.7 3 3.3 5.5 4.5 3.6 1.6 7.4 1.2 10.5 0.8 0.9-0.1 1.7-0.2 2.5-0.2q0.1 0 0.2 0 0.8 0 1.6 0.2z"/>
	<path id="Layer" fill-rule="evenodd" class="s0" d="m164.6 65.7l-0.6-1q0-0.1 0-0.2c0 0 0.3-1.7 0.2-3.7-0.1-2-0.4-3.7-0.4-3.7q-0.1-0.2 0-0.3c0 0 2.1-3.8 2.6-7.2 0.6-3.4 0.6-5.8 0.6-5.8q0-0.1 0.1-0.2c0.1-0.3 3.6-7.1 9-9.6 0.1-0.1 0.3 0 0.4 0.1 0.1 0.1 0.1 0.3 0 0.4-1.7 2.6-2.4 4-3 6.6-0.2 0.7-0.3 1.7-0.4 2.8-0.3 3-0.7 7.2-2.8 10.1l-0.4 0.6c-2.6 3.5-5.1 6.9-4.6 10.9 0 0.1-0.1 0.3-0.3 0.3q0 0-0.1 0-0.2 0-0.3-0.1zm3.1-21.8c0 0.4 0 2.7-0.6 5.8-0.5 3.2-2.3 6.7-2.6 7.4 0.1 0.4 0.4 1.9 0.4 3.7q0 0.4 0 0.9c0.8-2.7 2.6-5.1 4.4-7.6l0.4-0.6c2-2.7 2.4-6.7 2.7-9.7 0.1-1.1 0.2-2.1 0.4-2.8 0.5-2.4 1.1-3.7 2.3-5.7-4.1 2.6-7 7.9-7.4 8.6z"/>
	<path id="Layer" fill-rule="evenodd" class="s0" d="m164.1 57.4c-0.1-0.1-0.3-0.2-0.3-0.3-0.3-0.7-0.7-1.4-1.2-2.2-1.1-1.7-2.5-3.7-3-7.5-0.6-3.7 0.2-8.8 0.8-12.6l0.2-1.3c0.6-3.9 1.5-7.4 1.6-7.4 0-0.1 0.1-0.3 0.3-0.3q0 0 0 0c0.2 0 0.3 0.2 0.3 0.3 0.1 0.1 1.2 4.9 1.9 7.1q0.4 1.2 0.9 2.7c0.9 2.5 2 5.4 2 8 0.1 3.2-0.2 7.5-3.2 13.3q-0.1 0.1-0.3 0.2 0 0 0 0zm-2.8-23.8l-0.2 1.3c-0.6 3.7-1.4 8.8-0.8 12.4 0.5 3.6 1.8 5.6 2.8 7.2 0.4 0.6 0.8 1.1 1 1.7 2.6-5.3 2.9-9.3 2.8-12.3 0-2.4-1-5.3-1.9-7.8q-0.6-1.4-1-2.7c-0.5-1.5-1.1-4.1-1.5-5.7-0.4 1.3-0.8 3.5-1.2 5.9z"/>
	<path id="Layer" fill-rule="evenodd" class="s0" d="m164.2 56.5c-2.7-3.9-2.6-11.3-2.6-16.2q0-0.9 0.1-1.6c0-3.4 0.7-11.5 0.7-11.6 0 0 0.1-0.1 0.2-0.1q0 0 0 0c0.1 0 0.1 0.1 0.1 0.2 0 1.3 0.5 3.8 1 6.7 0.7 3.2 1.4 6.9 1.6 10 0.2 4.6-0.1 7.5-0.5 10.3-0.1 0.7-0.2 1.5-0.3 2.2q0 0.1-0.1 0.2 0 0-0.1 0 0 0-0.1-0.1zm-2.2-17.8q0 0.7 0 1.6c0 4.7-0.1 11.7 2.2 15.6q0.1-0.9 0.2-1.8c0.4-2.7 0.8-5.6 0.5-10.2-0.2-3.1-0.9-6.7-1.5-9.9-0.3-1.8-0.7-3.4-0.8-4.7-0.3 2.6-0.6 7.1-0.6 9.4z"/>
	<path id="Layer" fill-rule="evenodd" class="s1" d="m169 79.8c-1.1-2.2-3.8-4.7-5.8-4.6-0.8 0.1-1.8 0.4-3 0.9-2.3 0.9-5.4 2.1-9.3 1.8-3.8-0.3-6.2-1.8-8.3-3.1-1.3-0.8-2.5-1.6-3.9-2-0.2-0.1-0.3-0.3-0.3-0.4 0.1-0.2 0.2-0.3 0.4-0.3q0 0 0 0c0 0 2.8 0.1 6.1-0.5 0.8-0.2 1.5-0.4 2.2-0.5 2.2-0.6 4.2-1.1 8.3-0.7 4.1 0.3 6.1 1.8 7.5 2.7 0.4 0.3 0.8 0.6 1.1 0.7 1.3 0.6 4.3 2.6 5.4 4.2q0 0.1 0 0.1l0.3 1.5c0 0.2-0.1 0.3-0.2 0.4q-0.1 0-0.1 0-0.2 0-0.4-0.2zm-5.1-5.2q-0.1-0.1-0.2-0.1c-0.4-0.2-0.8-0.5-1.2-0.8-1.3-0.9-3.3-2.3-7.2-2.6-4-0.3-5.8 0.1-8 0.7-0.7 0.1-1.4 0.3-2.2 0.5-1.8 0.3-3.4 0.4-4.5 0.5 0.8 0.4 1.6 0.9 2.4 1.4 2.1 1.3 4.3 2.7 7.9 3 3.8 0.3 6.8-0.9 9-1.8 1.3-0.5 2.4-0.9 3.2-0.9q0.1 0 0.2 0 0.3 0 0.6 0.1z"/>
	<path id="Layer" fill-rule="evenodd" class="s1" d="m170.6 93.4c-0.1 0-0.2-0.2-0.2-0.4q0.1-0.3 0.3-0.5c0.5-1.3 1.8-4.9 2-7.8v-0.2c0.2-2.8 0.4-7.4 3.1-11.4 1.3-2.1 3.5-3.9 5.6-5.7 2.2-1.9 4.3-3.7 5.2-5.5 0-0.1 0.2-0.2 0.4-0.1 0.2 0 0.3 0.2 0.2 0.4-0.5 1.5-0.8 3.4-1.2 5.5-0.8 4.1-1.8 8.8-3.8 12.2-1.2 2-2.9 3.5-4.7 5.1-2.2 2-4.6 4.1-6.2 7.7q-0.2 0.5-0.2 0.6c-0.1 0.1-0.2 0.2-0.3 0.2q-0.1 0-0.2-0.1zm11.2-25.5c-2 1.8-4.2 3.6-5.4 5.5-2.6 3.9-2.8 8.4-3 11.1v0.2c-0.1 1.5-0.4 3-0.8 4.4 1.3-1.8 2.9-3.2 4.5-4.6 1.7-1.6 3.3-3 4.5-5 2-3.2 2.9-7.9 3.7-12q0.3-1.9 0.7-3.5c-1.1 1.3-2.6 2.6-4.2 3.9z"/>
	<path id="Layer" fill-rule="evenodd" class="s1" d="m171.7 91.3c-0.2-0.1-0.2-0.3-0.1-0.5 0-0.1 1.4-2.6 4.2-5.1l0.8-0.8c2.2-2 3.5-3.2 4.5-4.6 1.2-1.9 2.2-4.4 2.2-4.4q0-0.1 0.1-0.2c0 0 1.9-1.9 4.5-3.4 0.1-0.1 0.3-0.1 0.4 0 0.1 0.2 0.1 0.3 0 0.5 0 0-1.4 2.1-2.7 5.6-1.5 4.3-3.7 7.2-6.3 8.4-3.7 1.8-6.2 3.3-7.2 4.4q-0.1 0.1-0.2 0.1-0.1 0-0.2 0zm12.2-15.1c-0.1 0.4-1 2.7-2.2 4.5-1 1.5-2.4 2.7-4.6 4.7l-0.8 0.8c-1.2 1-2.1 2.1-2.7 2.9 1.6-1 3.7-2.1 5.4-3 3-1.4 4.9-5.1 6-8 0.7-1.9 1.5-3.5 2-4.4-1.6 1.1-2.8 2.2-3.1 2.5z"/>
	<path id="Layer" fill-rule="evenodd" class="s0" d="m168.8 104.5c0-0.1-0.4-6.6-3-8.2-1.1-0.7-2.2-1.1-3.5-1.5-1-0.3-2.1-0.7-3.4-1.2-2.7-1.2-3.7-3.4-4.7-5.8q-0.3-0.7-0.7-1.4c-1.3-2.6-3.2-4.5-3.2-4.5-0.1-0.1-0.2-0.3-0.1-0.5 0.1-0.1 0.3-0.2 0.5-0.1 1.2 0.7 2.7 1.1 4.4 1.5 2.2 0.6 4.6 1.1 6.6 2.6 2.5 1.9 3.4 4.8 4.1 7.2 0.4 1 0.6 1.9 1 2.6l0.2 0.3c1.2 2.2 2.7 5 2.5 9 0 0.2-0.2 0.3-0.4 0.3-0.1 0-0.3-0.1-0.3-0.3zm-14.6-18.4q0.3 0.7 0.6 1.4c1 2.3 1.9 4.4 4.4 5.4 1.3 0.6 2.3 0.9 3.3 1.2 1.3 0.5 2.5 0.8 3.7 1.6q0.1 0.1 0.1 0.1l-0.1-0.3c-0.4-0.7-0.7-1.6-1.1-2.7-0.7-2.3-1.5-5.1-3.8-6.8-1.9-1.4-4.2-2-6.4-2.5-1.1-0.3-2.1-0.5-3-0.9 0.7 0.9 1.6 2.1 2.3 3.5z"/>
	<path id="Layer" fill-rule="evenodd" class="s0" d="m164.8 118.9c-0.1-0.1-0.1-0.3 0-0.5 0 0 0.8-1 2.9-4.4 0.5-0.8 0.9-1.6 1.3-2.3 1.4-2.6 2.5-4.8 6.1-6.9 2.1-1.3 4.2-2.2 6.2-3 2.3-1 4.4-1.8 6.5-3.2 0.1-0.1 0.3-0.1 0.4 0 0.2 0.2 0.2 0.4 0.1 0.5-1.4 1.7-2.5 3.9-3.7 6.2-2.1 4.3-4.2 8.7-8.2 10.2-3 1.2-5.2 1.7-7.1 2.1-1.7 0.4-3 0.6-4 1.4q-0.1 0-0.2 0-0.2 0-0.3-0.1zm16.8-16.5c-2 0.9-4 1.7-6.1 3-3.4 2-4.6 4.1-5.9 6.6-0.4 0.7-0.8 1.5-1.3 2.3-0.9 1.6-1.6 2.7-2.1 3.4 0.9-0.4 1.8-0.6 3-0.8 1.8-0.4 4-0.9 7-2 3.7-1.5 5.8-5.8 7.8-9.9 0.9-1.8 1.7-3.5 2.7-4.9-1.7 0.9-3.3 1.6-5.1 2.3z"/>
	<path id="Layer" fill-rule="evenodd" class="s1" d="m161.7 124.3c-0.1 0-0.3-0.2-0.2-0.4 0.3-1.6 0.6-3.3 0.8-5-0.1-0.8-0.2-1.6-0.4-2.3-0.5-1.3-1.8-1.9-4.5-3-1.4-0.6-3.1-1.3-5.3-2.4-6.6-3.2-6.4-12-6.4-12 0-0.2 0.1-0.3 0.2-0.4 0.2 0 0.3 0 0.4 0.2 1.9 2.8 4.3 3.9 6.8 5 2.2 1 4.4 2 6.5 4.2 3 3.1 3.6 6.9 3.4 10.6 0 2.6-0.8 5.2-0.8 5.3-0.1 0.1-0.2 0.2-0.4 0.2q0 0-0.1 0zm-9.2-13.7c2.1 1 3.8 1.8 5.2 2.3 2.4 1.1 3.8 1.7 4.5 2.8-0.2-2.5-1.1-4.9-3.1-7.1-2-2-4.2-3-6.3-3.9-2.3-1.1-4.5-2.1-6.4-4.4 0.2 2.5 1.2 7.9 6.1 10.3z"/>
	<path id="Layer" fill-rule="evenodd" class="s0" d="m151.9 135.5c-0.1-0.2-0.1-0.3 0-0.5 0 0 1.5-2 1.1-3.9-0.1-0.8-0.7-1.4-1.3-2.2-0.8-1.1-1.9-2.5-2.2-4.7-0.2-1.2 0-2.9 0.2-4.8 0.2-2 0.4-4.1 0.1-5.4 0-0.2 0-0.3 0.2-0.4 0.1-0.1 0.3 0 0.4 0.1 1 0.9 1.2 2.1 1.4 3.3 0.2 0.7 0.3 1.4 0.6 2q0.3 0.5 0.7 1.2c1 1.7 2.7 4.4 2.2 8.9-0.7 5.8-2.9 6.5-3 6.5q-0.1 0-0.1 0-0.2 0-0.3-0.1zm-1.5-16c-0.2 1.8-0.3 3.5-0.2 4.6 0.3 2.1 1.3 3.3 2.1 4.4 0.6 0.8 1.2 1.5 1.4 2.5 0.1 0.7 0.1 1.4-0.1 2.1 0.4-0.9 0.8-2.2 1-4 0.4-4.4-1.1-6.8-2.1-8.5q-0.5-0.7-0.7-1.3c-0.4-0.7-0.5-1.4-0.6-2.2-0.2-0.7-0.3-1.3-0.6-1.9 0.1 1.3-0.1 2.8-0.2 4.3z"/>
	<path id="Layer" fill-rule="evenodd" class="s1" d="m161.4 142.6c-2.8-0.2-4.1-1-5.3-1.8-0.7-0.4-1.4-0.8-2.4-1.2-2.5-0.9-5.1-0.3-5.1-0.3-0.1 0.1-0.3 0-0.4-0.2-0.1-0.1 0-0.3 0.1-0.4 0.1-0.1 3.7-3.6 9-3.2 3.1 0.2 5.2 1.6 7.1 2.8 1.2 0.8 2.3 1.5 3.6 1.8 3.4 0.8 4.7 1.6 4.8 1.6 0.2 0.1 0.2 0.3 0.2 0.4-0.1 0.2-0.3 0.3-0.5 0.2-2.1-0.5-4.1-0.3-6.1 0-1.2 0.2-2.5 0.4-3.9 0.4q-0.5 0-1.1-0.1zm6.4-1.8c-1.4-0.3-2.6-1.1-3.8-1.9-1.9-1.2-3.8-2.5-6.8-2.7-3.4-0.2-6.1 1.3-7.4 2.2 1 0 2.6 0 4.2 0.6 1 0.3 1.7 0.8 2.5 1.2 1.2 0.8 2.4 1.5 4.9 1.7 1.8 0.2 3.4-0.1 4.9-0.3 1.1-0.1 2.2-0.3 3.4-0.3q-0.8-0.2-1.9-0.5z"/>
	<path id="Layer" fill-rule="evenodd" class="s1" d="m140.4 144.4c-0.2-0.1-0.3-0.2-0.3-0.4q0-0.1 0-0.1c0.1-0.3 0.4-1.5 0.3-2.3-0.2-1.3-0.3-1.4-0.6-2.5l-0.2-1c-0.5-2-0.2-5.2 0.7-7.8 0.8-2.4 0.8-5 0.8-5 0.1-0.2 0.2-0.4 0.4-0.4 0.2 0 0.3 0.2 0.4 0.4 0 1.3 0.4 2.6 0.8 3.9 0.6 1.6 1.1 3.2 1.1 5.4 0.1 3.3-1.1 5.5-2 7.3-0.4 0.8-0.8 1.5-1 2.2q0 0 0 0.1c-0.1 0.1-0.2 0.2-0.4 0.2q0 0 0 0zm0.5-13.9c-0.8 2.5-1.1 5.5-0.6 7.4l0.2 1c0.3 1.1 0.3 1.3 0.6 2.6q0 0.1 0 0.2 0-0.1 0-0.1c0.9-1.7 2.1-3.9 2-7 0-2.1-0.5-3.7-1-5.2q-0.3-0.8-0.5-1.5c-0.1 0.8-0.3 1.7-0.7 2.6z"/>
	<path id="Layer" fill-rule="evenodd" class="s0" d="m151.5 152.4c-0.8-0.2-1.9-0.2-3-0.2-1.9-0.1-4-0.1-5.9-1-1.9-0.9-2.7-1.7-3.3-2.4-0.4-0.4-0.7-0.8-1.2-1.1-1.4-0.8-2.5-0.7-2.5-0.7q0 0 0 0c-0.2 0-0.3-0.1-0.4-0.3 0-0.2 0.1-0.3 0.2-0.4 0.1 0 1.4-0.7 4.1-0.9 3-0.3 5.5 0.4 6.6 1 1.4 0.8 2.2 1.7 3.3 2.9l0.1 0.2c1.2 1.5 2.3 2.3 2.3 2.3 0.1 0.1 0.2 0.3 0.1 0.4q-0.1 0.2-0.3 0.2-0.1 0-0.1 0zm-11.9-6.3c-1.1 0.1-2 0.2-2.6 0.4q0.6 0.2 1.4 0.6c0.6 0.3 1 0.7 1.4 1.2 0.7 0.7 1.3 1.4 3.1 2.3 1.8 0.8 3.8 0.8 5.6 0.9q1 0 1.9 0-0.6-0.6-1.5-1.6l-0.1-0.1c-1-1.2-1.7-2.1-3-2.8-0.9-0.5-2.7-1-5-1q-0.6 0-1.2 0.1z"/>
	<path id="Layer" fill-rule="evenodd" class="s1" d="m126.1 150.7c-0.1-0.1-0.2-0.3-0.1-0.4q0.1-0.2 0.2-0.4c0.2-0.3 0.5-0.9 0.7-1.6 0.2-0.7 0.3-2.1 0.5-3.2v-0.4c0.4-3.1 1.3-4.3 2.3-5.6q0.3-0.4 0.6-0.9c1.2-1.7 1.9-4.1 1.9-4.2q0.1-0.2 0.4-0.2c0.2 0 0.3 0.1 0.3 0.3 0.4 3.6 0.6 7.3-0.9 10.4-0.9 1.7-2.1 2.8-3.3 3.8-0.7 0.6-1.4 1.3-1.8 2q-0.3 0.3-0.3 0.3-0.1 0.2-0.3 0.2-0.1 0-0.2-0.1zm4.8-12.1q-0.3 0.5-0.7 1c-0.9 1.2-1.7 2.3-2.1 5.2v0.4c-0.2 1-0.3 2.4-0.5 3.2q0.3-0.3 0.7-0.6c1.1-1 2.2-2 3-3.6 1.2-2.4 1.3-5.4 1.1-8.4-0.4 0.9-0.9 1.9-1.5 2.8z"/>
	<path id="Layer" fill-rule="evenodd" class="s1" d="m113.3 154.4q-0.1-0.1-0.2-0.2c0-0.1-0.5-2.3 0.6-5.1 0.5-1.3 1.4-2.4 2.3-3.4 1-1.3 2-2.5 2.4-4.1 0-0.1 0.2-0.3 0.4-0.2 0.2 0 0.3 0.2 0.3 0.4-0.2 1-0.2 2-0.2 2.9-0.1 1.7-0.1 3.2-0.8 5.3-1 3.3-4.4 4.4-4.5 4.4q-0.1 0-0.1 0-0.1 0-0.2 0zm3.2-8.3c-0.9 1.1-1.7 2.1-2.1 3.2-0.8 1.9-0.7 3.6-0.6 4.3 0.8-0.4 2.9-1.5 3.7-3.8 0.6-2 0.6-3.5 0.7-5.1q0-0.4 0-0.9c-0.5 0.8-1.1 1.6-1.7 2.3z"/>
	<path id="Layer" fill-rule="evenodd" class="s1" d="m132.7 158.6c-0.2 0-5 0-8.1-2.2-3-2.1-4-4-4-4.1-0.1-0.2 0-0.3 0-0.4q0.2-0.2 0.4-0.1c0.8 0.2 1.5 0.2 2.2 0.2 1.1 0 2.3-0.1 4.3 0.9 1.9 0.9 2.8 2.1 3.7 3.2 0.6 0.7 1.1 1.4 1.8 1.9 0.1 0.1 0.1 0.3 0.1 0.4-0.1 0.2-0.2 0.2-0.4 0.2q0 0.1 0 0zm-9.5-5.9c-0.5 0-1 0-1.6-0.1 0.6 0.7 1.6 1.9 3.4 3.2 2.1 1.5 5.2 1.9 6.8 2.1q-0.6-0.7-1.1-1.3c-0.9-1.1-1.7-2.2-3.5-3.1-1.7-0.8-2.7-0.8-3.6-0.8q-0.2 0-0.4 0z"/>
	<path id="Layer" class="s0" d="m145.1 41.9c0 0 0.5 0.4 1.5 1.2 1 0.9 2.4 2.1 4.1 3.8 3.4 3.3 8.1 8.4 12 15.6 2 3.6 3.7 7.7 5 12.2 1.4 4.5 1.9 9.5 2.2 14.6 0 5.1-0.3 10.4-1.4 15.6l-0.8 4c-0.4 1.3-0.8 2.6-1.2 3.9-0.8 2.6-2.1 5-3.2 7.5-2.6 4.7-5.7 9.3-9.5 13-3.9 3.8-8.1 7-12.5 9.6-8.8 5.2-18 8.2-26 10.2-4 0.9-7.7 1.8-10.9 2.7-3.3 0.9-6.1 1.8-8.3 2.7-2.3 0.9-4 1.7-5.2 2.3-1.1 0.7-1.7 1.2-1.7 1.2-0.3 0.2-0.3 0.5-0.1 0.8 0.2 0.2 0.6 0.2 0.8 0-0.1 0 0.4-0.4 1.5-1 1.1-0.7 2.8-1.5 5-2.3 2.3-0.9 5-1.8 8.2-2.7 3.2-0.9 6.9-1.7 11-2.7 8-2 17.3-5 26.3-10.2 4.5-2.7 8.7-6 12.7-9.8 3.9-3.8 7.1-8.4 9.7-13.3 1.1-2.5 2.5-5 3.2-7.7 0.4-1.3 0.9-2.6 1.3-3.9l0.8-4c1.2-5.4 1.5-10.8 1.4-16-0.3-5.2-0.9-10.2-2.3-14.7-1.3-4.6-3.1-8.8-5.1-12.4-4-7.3-8.8-12.5-12.3-15.8-1.7-1.7-3.2-2.9-4.2-3.8-1-0.8-1.5-1.2-1.5-1.2-0.2-0.2-0.4-0.2-0.5 0-0.2 0.2-0.2 0.4 0 0.6z"/>
	<path id="Layer" class="s0" d="m111.2 126.8l2.7 0.1-2.2 1.7 0.8 2.6-2.2-1.6-2.3 1.5 0.8-2.6-2.1-1.6 2.7-0.1 0.9-2.5z"/>
	<path id="Layer" class="s1" d="m122.5 125.1l2.2 0.1-1.8 1.3 0.6 2.1-1.8-1.3-1.9 1.3 0.7-2.1-1.8-1.4h2.3l0.7-2.1z"/>
	<path id="Layer" class="s0" d="m131.8 120.5h2l-1.6 1.2 0.6 1.9-1.7-1.1-1.6 1.1 0.6-1.9-1.6-1.2 2-0.1 0.7-1.9z"/>
	<path id="Layer" class="s1" d="m138.9 113.4h2l-1.6 1.2 0.6 2-1.7-1.2-1.6 1.1 0.6-1.9-1.6-1.2 2-0.1 0.7-1.8z"/>
	<path id="Layer" class="s1" d="m98.4 125.1l-2.2 0.1 1.8 1.3-0.6 2.1 1.8-1.3 1.8 1.3-0.6-2.1 1.8-1.4h-2.3l-0.8-2.1z"/>
	<path id="Layer" class="s0" d="m89.1 120.5h-2.1l1.7 1.2-0.6 1.9 1.6-1.1 1.7 1.1-0.6-1.9 1.6-1.2-2-0.1-0.7-1.9z"/>
	<path id="Layer" class="s1" d="m82 113.4h-2l1.6 1.2-0.6 2 1.7-1.2 1.6 1.1-0.6-1.9 1.6-1.2-2-0.1-0.7-1.8z"/>
	<path id="Layer" class="s1" d="m113.3 82.3c0-5.5-0.1-10.8 0.1-16.2 0.1-3.4 3.6-5.9 7-5.4q0.8 0.1 1.7 0.1c1.7-0.1 3.1 0.8 3.4 2.3 0.4 1.6-0.4 3.1-1.8 3.7-1.5 0.6-3.1 0-4-1.5q-0.2-0.2-0.3-0.5c-1.3 0.2-2 0.9-2 2q0 5.5 0.1 10.9c0 0.1 0 0.2 0.1 0.5q3.6 0 7.2 0c1.3 0 2.5 0.1 3.8 0 0.6-0.1 1.3-0.4 1.8-0.8 0.6-0.5 0.7-1.1-0.2-1.6-1.5-0.8-2-2.4-1.4-3.8 0.6-1.5 2.2-2.3 3.7-1.9 1.5 0.4 2.4 1.7 2.4 3.4-0.1 1.3 0.1 2.6-0.1 3.8-0.3 2.6-2.5 4.9-5.2 5-5.3 0.1-10.7 0-16.3 0z"/>
	<path id="Layer" class="s0" d="m90 76.3c0.2 1.1 0.8 1.9 1.9 1.9 3.8 0.1 7.6 0 11.6 0 0-1.4 0-2.7 0-4q0-3.5 0-7.1c0-1.4-0.5-2-1.9-2.3-1.3 2-2.7 2.7-4.3 2-1.3-0.5-2.1-1.7-2-3 0.1-1.4 1-2.8 2.4-2.9 1.6-0.2 3.3-0.3 5-0.1 2.7 0.4 4.8 2.8 4.9 5.6 0 5.1 0 10.3 0 15.4 0 0.1-0.1 0.2-0.1 0.5-0.3 0-0.6 0-1 0q-7.1 0.1-14.3 0c-4.1 0-6.9-3.4-6.1-7.5 0-0.4 0-0.8 0-1.2-0.1-1.8 0.8-3.1 2.4-3.5 1.5-0.3 3 0.4 3.6 1.8 0.6 1.6 0 3.1-1.5 4.1q-0.3 0.1-0.6 0.3z"/>
	<path id="Layer" class="s1" d="m101.6 105.6c1.2-0.2 1.9-0.9 1.9-2 0-3.7 0-7.5 0-11.3-0.4-0.1-0.8-0.1-1.1-0.1q-5.1-0.1-10.1-0.1c-1.3 0-1.9 0.5-2.2 2 0.3 0.1 0.6 0.3 0.9 0.5 1.3 1 1.7 2.6 1 4-0.6 1.3-2.1 2-3.5 1.6-1.5-0.3-2.4-1.6-2.4-3.1q0-1-0.1-2.1c-0.5-3.4 2.1-6.8 5.5-6.9 5.3-0.1 10.6 0 16.1 0 0 0.4 0 0.8 0 1.2q0 6.8 0 13.7c0 4.6-3.1 7.2-7.7 6.5-0.3 0-0.7 0-1.1 0-1.8 0.1-3.1-0.8-3.4-2.4-0.3-1.5 0.5-3 1.9-3.6 1.5-0.6 3 0 3.9 1.5 0.1 0.2 0.2 0.4 0.4 0.6z"/>
	<path id="Layer" class="s0" d="m113.3 88c3 0 5.9 0 8.8 0q3.3 0 6.6 0c4 0.1 6.8 3.4 6.2 7.3q-0.1 0.7-0.1 1.5c0.1 1.8-0.8 3.1-2.4 3.4-1.5 0.4-3-0.4-3.6-1.8-0.6-1.5 0-3.1 1.5-4q0.2-0.1 0.6-0.3c-0.2-1.2-0.8-1.9-1.9-1.9-3.8-0.1-7.5 0-11.2 0-0.1 0-0.1 0.1-0.4 0.2 0 2.2 0 4.5 0 6.8 0 1.3-0.1 2.7 0 4.1 0.1 0.6 0.4 1.3 0.8 1.8 0.5 0.5 1.1 0.8 1.6-0.2 0.8-1.5 2.4-2 3.9-1.4 1.4 0.6 2.2 2.2 1.8 3.7-0.3 1.5-1.6 2.4-3.3 2.4q-0.9-0.1-1.8 0c-3.6 0.6-7-2.1-7.1-5.7-0.1-5.2 0-10.4 0-15.9z"/>
	<path id="Layer" class="s0" d="m30 177.8l0.7 8.5h-0.7q-1-3.2-2.7-4.8-2.4-2.3-6.2-2.3-5.2 0-7.9 4.1-2.2 3.4-2.2 8.2 0 3.8 1.5 7 1.5 3.2 3.9 4.7 2.4 1.5 5 1.5 1.5 0 2.9-0.4 1.3-0.4 2.6-1.1v-7.8q0-2.1-0.3-2.7-0.3-0.6-0.9-0.9-0.7-0.4-2.3-0.4v-0.7h10.5v0.7h-0.5q-1.6 0-2.2 1.1-0.4 0.7-0.4 2.9v8.3q-2.3 1.2-4.5 1.8-2.2 0.5-5 0.5-7.8 0-11.8-5-3.1-3.7-3.1-8.7 0-3.5 1.7-6.8 2-3.9 5.6-6 3-1.7 7-1.7 1.5 0 2.7 0.2 1.2 0.3 3.4 1.1 1.1 0.4 1.5 0.4 0.4 0 0.6-0.3 0.3-0.4 0.4-1.4c0 0 0.7 0 0.7 0z"/>
	<path id="Layer" class="s0" d="m41 186.6v4.1q2.3-4.1 4.7-4.1 1.1 0 1.9 0.7 0.7 0.7 0.7 1.5 0 0.8-0.5 1.4-0.6 0.5-1.3 0.5-0.7 0-1.5-0.7-0.9-0.7-1.3-0.7-0.4 0-0.8 0.4-0.9 0.8-1.9 2.7v8.8q0 1.5 0.4 2.3 0.3 0.5 0.9 0.8 0.7 0.4 1.9 0.4v0.7h-9.3v-0.7q1.4 0 2.1-0.4 0.5-0.4 0.7-1 0.1-0.4 0.1-2v-7.1q0-3.1-0.2-3.8-0.1-0.6-0.4-0.8-0.4-0.3-0.9-0.3-0.6 0-1.4 0.3l-0.2-0.7 5.5-2.3c0 0 0.8 0 0.8 0z"/>
	<path id="Layer" fill-rule="evenodd" class="s0" d="m59.6 202.8q-2.8 2.2-3.5 2.5-1.1 0.5-2.3 0.5-1.9 0-3.1-1.3-1.2-1.3-1.2-3.4 0-1.3 0.6-2.3 0.8-1.4 2.8-2.6 2-1.2 6.7-2.9v-0.7q0-2.7-0.8-3.7-0.9-1-2.6-1-1.2 0-1.9 0.6-0.8 0.7-0.8 1.6v1.1q0 1-0.4 1.5-0.5 0.5-1.3 0.5-0.7 0-1.2-0.6-0.4-0.5-0.4-1.4 0-1.7 1.7-3.1 1.8-1.5 4.9-1.5 2.5 0 4 0.9 1.2 0.6 1.8 1.9 0.3 0.8 0.3 3.5v6.2q0 2.6 0.1 3.2 0.1 0.6 0.3 0.8 0.3 0.2 0.6 0.2 0.3 0 0.5-0.2 0.5-0.2 1.6-1.4v1.1q-2.2 3-4.2 3-1 0-1.6-0.7-0.5-0.7-0.6-2.3zm0-1.3v-7q-3 1.2-3.9 1.7-1.5 0.9-2.2 1.9-0.7 0.9-0.7 2.1 0 1.4 0.9 2.3 0.8 1 2 1 1.5 0 3.9-2z"/>
	<path id="Layer" class="s0" d="m72.7 190.5q3.2-3.9 6.1-3.9 1.5 0 2.6 0.8 1.1 0.7 1.7 2.4 0.5 1.2 0.5 3.7v7.8q0 1.7 0.2 2.3 0.3 0.5 0.7 0.8 0.5 0.3 1.8 0.3v0.7h-9v-0.7h0.4q1.3 0 1.8-0.4 0.5-0.4 0.7-1.1 0.1-0.3 0.1-1.9v-7.5q0-2.5-0.7-3.6-0.6-1.1-2.2-1.1-2.3 0-4.7 2.6v9.6q0 1.8 0.2 2.3 0.3 0.6 0.8 0.8 0.5 0.3 2 0.3v0.7h-9v-0.7h0.4q1.4 0 1.8-0.7 0.5-0.7 0.5-2.7v-6.8q0-3.3-0.1-4-0.2-0.7-0.5-1-0.3-0.2-0.8-0.2-0.6 0-1.3 0.3l-0.3-0.7 5.5-2.3h0.8c0 0 0 3.9 0 3.9z"/>
	<path id="Layer" fill-rule="evenodd" class="s0" d="m100.7 203.4q-1.3 1.4-2.6 2-1.3 0.6-2.8 0.6-3 0-5.2-2.5-2.2-2.5-2.2-6.4 0-4 2.5-7.2 2.4-3.3 6.3-3.3 2.4 0 4 1.6v-3.4q0-3.1-0.2-3.9-0.1-0.7-0.4-0.9-0.3-0.3-0.8-0.3-0.5 0-1.4 0.3l-0.3-0.7 5.5-2.2h0.9v21.1q0 3.2 0.1 3.9 0.2 0.7 0.5 1 0.3 0.3 0.8 0.3 0.5 0 1.4-0.4l0.2 0.7-5.4 2.3h-0.9c0 0 0-2.6 0-2.6zm0-1.4v-9.4q-0.1-1.4-0.7-2.5-0.6-1.1-1.6-1.7-1-0.5-1.9-0.5-1.8 0-3.2 1.5-1.8 2.1-1.8 6.1 0 4 1.8 6.1 1.7 2.2 3.9 2.2 1.8 0 3.5-1.8z"/>
	<path id="Layer" class="s0" d="m113.6 190.5q2-2 2.4-2.3 0.9-0.7 1.9-1.1 1-0.5 2.1-0.5 1.7 0 2.9 1 1.2 1 1.7 2.9 2-2.4 3.4-3.1 1.4-0.8 2.9-0.8 1.5 0 2.6 0.8 1.1 0.7 1.8 2.4 0.4 1.2 0.4 3.6v7.9q0 1.7 0.3 2.3 0.2 0.5 0.7 0.8 0.6 0.3 1.8 0.3v0.7h-9v-0.7h0.4q1.1 0 1.8-0.5 0.5-0.3 0.7-1 0-0.3 0-1.9v-7.9q0-2.2-0.5-3.1-0.8-1.3-2.5-1.3-1.1 0-2.1 0.6-1.1 0.5-2.6 1.9v0.2 0.9 8.7q0 1.9 0.2 2.3 0.2 0.5 0.8 0.8 0.6 0.3 2 0.3v0.7h-9.3v-0.7q1.6 0 2.1-0.4 0.6-0.3 0.8-1 0.1-0.4 0.1-2v-7.8q0-2.3-0.6-3.3-0.9-1.2-2.5-1.2-1.1 0-2.1 0.5-1.7 0.9-2.6 2v9.8q0 1.8 0.3 2.3 0.2 0.6 0.7 0.8 0.5 0.3 2 0.3v0.7h-9v-0.7q1.2 0 1.7-0.3 0.5-0.2 0.8-0.8 0.2-0.6 0.2-2.3v-7q0-3-0.1-3.9-0.2-0.6-0.5-0.9-0.3-0.2-0.8-0.2-0.6 0-1.3 0.3l-0.3-0.7 5.5-2.3h0.8c0 0 0 3.9 0 3.9z"/>
	<path id="Layer" fill-rule="evenodd" class="s0" d="m150.3 202.8q-2.8 2.2-3.5 2.5-1.1 0.5-2.3 0.5-1.9 0-3.2-1.3-1.2-1.3-1.2-3.4 0-1.3 0.6-2.3 0.8-1.4 2.9-2.6 2-1.2 6.7-2.9v-0.7q0-2.7-0.9-3.7-0.9-1-2.5-1-1.3 0-2 0.6-0.8 0.7-0.8 1.6l0.1 1.1q0 1-0.5 1.5-0.5 0.5-1.2 0.5-0.7 0-1.2-0.6-0.5-0.5-0.5-1.4 0-1.7 1.8-3.1 1.7-1.5 4.9-1.5 2.4 0 4 0.9 1.1 0.6 1.7 1.9 0.4 0.8 0.4 3.5v6.2q0 2.6 0.1 3.2 0.1 0.6 0.3 0.8 0.2 0.2 0.5 0.2 0.3 0 0.6-0.2 0.4-0.2 1.6-1.4v1.1q-2.2 3-4.3 3-0.9 0-1.5-0.7-0.6-0.7-0.6-2.3zm0-1.3v-7q-3 1.2-3.9 1.7-1.6 0.9-2.3 1.9-0.6 0.9-0.6 2.1 0 1.4 0.8 2.3 0.9 1 2 1 1.5 0 4-2z"/>
	<path id="Layer" class="s0" d="m169.8 186.6v6.3h-0.6q-0.8-3-2-4-1.1-1.1-3-1.1-1.4 0-2.2 0.7-0.9 0.8-0.9 1.7 0 1.1 0.7 1.9 0.6 0.8 2.5 1.7l2.9 1.4q4 2 4 5.2 0 2.5-1.9 4.1-1.9 1.5-4.2 1.5-1.7 0-3.8-0.6-0.7-0.2-1.1-0.2-0.4 0-0.7 0.5h-0.7v-6.5h0.7q0.6 2.8 2.1 4.2 1.6 1.4 3.6 1.4 1.3 0 2.2-0.8 0.9-0.8 0.9-1.9 0-1.4-1-2.4-1-0.9-3.9-2.3-2.8-1.5-3.7-2.6-0.9-1.1-0.9-2.9 0-2.2 1.5-3.7 1.5-1.6 4-1.6 1.1 0 2.6 0.5 1 0.3 1.4 0.3 0.3 0 0.5-0.1 0.1-0.2 0.4-0.7c0 0 0.6 0 0.6 0z"/>
	<path id="Layer" class="s0" d="m179.2 181.2v6h4.3v1.4h-4.3v11.8q0 1.8 0.5 2.4 0.5 0.6 1.3 0.6 0.7 0 1.3-0.4 0.6-0.4 1-1.2h0.7q-0.7 1.9-1.9 2.9-1.3 1-2.7 1-0.9 0-1.8-0.5-0.8-0.5-1.2-1.4-0.5-1-0.5-3v-12.2h-2.9v-0.7q1.1-0.4 2.3-1.5 1.1-1 2-2.5 0.5-0.7 1.3-2.7z"/>
	<path id="Layer" fill-rule="evenodd" class="s0" d="m188.3 194q0 4.1 2 6.4 2 2.3 4.7 2.3 1.8 0 3.1-1 1.3-0.9 2.2-3.3l0.6 0.4q-0.4 2.7-2.4 4.9-2 2.3-5 2.3-3.3 0-5.7-2.6-2.3-2.5-2.3-6.9 0-4.6 2.4-7.3 2.4-2.6 6-2.6 3.1 0 5.1 2 1.9 2.1 1.9 5.4c0 0-12.6 0-12.6 0zm0-1.1h8.5q-0.1-1.8-0.4-2.5-0.5-1.1-1.5-1.7-1-0.7-2.1-0.7-1.6 0-2.9 1.3-1.4 1.3-1.6 3.6z"/>
	<path id="Layer" class="s0" d="m208.7 186.6v4.1q2.3-4.1 4.7-4.1 1.1 0 1.8 0.7 0.7 0.7 0.7 1.5 0 0.8-0.5 1.4-0.5 0.5-1.2 0.5-0.7 0-1.6-0.7-0.8-0.7-1.3-0.7-0.3 0-0.7 0.4-0.9 0.8-1.9 2.7v8.8q0 1.5 0.4 2.3 0.2 0.5 0.9 0.8 0.7 0.4 1.9 0.4v0.7h-9.3v-0.7q1.3 0 2-0.4 0.5-0.4 0.7-1 0.1-0.4 0.1-2v-7.1q0-3.1-0.1-3.8-0.1-0.6-0.5-0.8-0.3-0.3-0.8-0.3-0.7 0-1.4 0.3l-0.2-0.7 5.5-2.3c0 0 0.8 0 0.8 0z"/>
	<path id="Layer" class="s1" d="m124.6 227.4v0.7q-1.5 0.3-2.2 0.9-1.1 1-1.9 3l-9.4 23h-0.7l-10.2-23.3q-0.7-1.8-1.1-2.2-0.5-0.6-1.2-0.9-0.7-0.4-2-0.5v-0.7h11.1v0.7q-1.9 0.2-2.4 0.6-0.6 0.5-0.6 1.2 0 1 0.9 3.1l6.9 15.9 6.4-15.7q0.9-2.3 0.9-3.2 0-0.6-0.6-1.1-0.6-0.5-1.9-0.7-0.1-0.1-0.4-0.1v-0.7z"/>
</svg>