<svg version="1.2" xmlns="http://www.w3.org/2000/svg" viewBox="0 0 223 283" width="223" height="283">
	<title>New Project</title>
	<style>
		.s0 { fill: #2ad4d8 } 
		.s1 { fill: #d645e5 } 
	</style>
	<path id="Layer" fill-rule="evenodd" class="s0" d="m70.3 153.1q-0.2 0-0.2-0.1 0-0.2 0.1-0.2c0 0 1-0.5 3.6-2.3q0.4-0.3 0.7-0.5c1.1-0.9 2.2-1.7 4.2-2.4 3.2-1.2 5.6-0.1 5.7-0.1q0.1 0.1 0.1 0.2c0 0.1-0.1 0.2-0.2 0.2 0 0-1.7-0.1-4.4 1.4-0.7 0.3-1.3 0.7-1.8 1.1-1.8 1.2-3.5 2.3-7.8 2.7q0 0 0 0zm11.4-5.7c-0.9 0-1.8 0.1-2.9 0.5-1.9 0.7-3 1.5-4.1 2.3q-0.3 0.3-0.7 0.6c-1.3 1-2.3 1.5-2.9 1.9 3.7-0.5 5.2-1.5 6.8-2.6 0.5-0.4 1.1-0.8 1.8-1.1 1.6-0.9 2.9-1.3 3.7-1.4-0.4-0.1-1-0.2-1.7-0.2z"/>
	<path id="Layer" fill-rule="evenodd" class="s1" d="m56.4 143c-1.1 0-1.9 0-2.5-0.1-1.1-0.1-2-0.1-3.1 0.1-0.1 0-0.2-0.1-0.2-0.1 0-0.1 0-0.2 0.1-0.3 0.9-0.3 1.8-0.4 2.9-0.6 1.2-0.1 2.5-0.2 4.1-0.7 1.3-0.4 2.1-0.9 3-1.3 1.1-0.7 2.2-1.2 4-1.5 3.2-0.5 7.2 1.1 7.4 1.2 0.1 0 0.1 0.1 0.1 0.2 0 0.1-0.1 0.2-0.2 0.1 0 0-4.6-0.7-7.4 0.5q-1.2 0.5-2.1 1c-1.6 0.8-2.9 1.4-4.9 1.5q-0.7 0-1.2 0zm-3.6-0.5q0.5 0 1.1 0.1c0.9 0 2.1 0.1 3.7 0 1.9 0 3.1-0.6 4.8-1.5q0.9-0.4 2.1-0.9c1.8-0.8 4.2-0.8 5.9-0.7-1.5-0.4-3.8-0.9-5.6-0.7-1.8 0.3-2.8 0.8-4 1.5-0.8 0.4-1.7 0.9-3 1.3-1.6 0.5-2.9 0.7-4.1 0.8q-0.5 0-0.9 0.1z"/>
	<path id="Layer" fill-rule="evenodd" class="s1" d="m57.2 140.4q0 0-0.1 0c0 0-2-0.3-3.8-1.6-1.7-1.2-3.7-2.1-3.7-2.2-0.2 0-0.2-0.2-0.2-0.3 0-0.2 0.2-0.3 0.3-0.3 0.1 0 2.7 0 6-0.3 3.1-0.3 7.4-0.2 9.7 1.2 0.2 0.1 0.2 0.3 0.2 0.4-0.1 0.2-0.2 0.3-0.4 0.2 0 0-3.3-0.4-7.8 2.8q-0.1 0.1-0.2 0.1zm-6-3.8c0.7 0.4 1.6 1 2.5 1.6 1.4 1.1 2.9 1.4 3.4 1.5 2.8-2 5.1-2.6 6.6-2.8-2.3-0.7-5.5-0.8-7.9-0.6-1.9 0.2-3.5 0.3-4.6 0.3z"/>
	<path id="Layer" fill-rule="evenodd" class="s0" d="m47.5 122.9c-3 0-4.6-1.9-6.1-3.8-0.6-0.8-1.3-1.6-2.1-2.3-2.5-2.3-5.3-2.7-5.4-2.7-0.1 0-0.3-0.2-0.3-0.4 0.1-0.1 0.2-0.3 0.4-0.3 5.1 0 8.5 1.1 8.7 1.2q0 0 0.1 0.1c0 0 2.5 2.5 6.9 3.3 6 1 7.5 2.3 7.5 2.4 0.1 0.1 0.2 0.3 0.1 0.4q-0.1 0.2-0.3 0.2c-1.6-0.2-2.9 0.3-4.3 0.8-1.4 0.5-2.9 1-5 1.1q-0.1 0-0.2 0zm-11-8.7c1 0.4 2.2 1.1 3.3 2.1 0.8 0.7 1.5 1.6 2.1 2.4 1.6 1.9 3 3.5 5.6 3.5q0.1 0 0.2 0c1.9-0.1 3.4-0.6 4.8-1.1 1-0.4 2-0.7 3.1-0.8-1-0.5-2.8-1.1-6-1.6-4.3-0.8-6.8-3.1-7.2-3.5-0.5-0.1-2.6-0.8-5.9-1z"/>
	<path id="Layer" fill-rule="evenodd" class="s0" d="m55.5 119.7q-0.1 0-0.1-0.1c-1.1-0.7-2.2-1.1-3.3-1.6-2-0.9-4.1-1.8-7.2-4.2-3-2.3-5.2-5.3-7.1-8-1.2-1.7-2.2-3.1-3.2-4.1-0.1-0.1-0.1-0.2 0-0.2 0-0.1 0.1-0.1 0.2-0.1 0 0 2.2 1.6 5.9 3.9 3.6 2.2 5.4 3.8 8.3 7 1 1.1 2 2.1 2.9 3 1.3 1.5 2.5 2.8 3.7 4.1q0.1 0.1 0 0.2-0.1 0.1-0.1 0.1zm-19.6-17.1c0.7 0.8 1.4 1.8 2.2 3 1.9 2.6 4.1 5.7 7 7.9 3 2.4 5.2 3.3 7.1 4.2 0.8 0.3 1.6 0.7 2.4 1.1-0.9-1-1.9-2.1-3-3.2-0.9-1-1.8-2-2.9-3.1-2.9-3.1-4.6-4.8-8.2-6.9-2-1.3-3.6-2.3-4.6-3z"/>
	<path id="Layer" fill-rule="evenodd" class="s1" d="m59.2 117.8q-0.1 0-0.1 0-0.1-0.1-0.1-0.2c0.6-3.2 4.6-6.9 7.3-8.3l0.6-0.3c2.7-1.4 6.1-3.2 7.9-6.8q0-0.1 0.2-0.1 0.1 0.1 0.1 0.2c0 0.1-1.2 5.9-6.4 8.7l-1.2 0.7c-4.3 2.3-5.6 3-8.2 6q-0.1 0.1-0.1 0.1zm15.2-14.2c-2 2.8-4.9 4.4-7.4 5.7l-0.6 0.3c-2.7 1.5-5.9 4.6-6.9 7.3 2.4-2.6 3.9-3.4 7.8-5.5l1.2-0.7c3.6-1.9 5.2-5.3 5.9-7.1z"/>
	<path id="Layer" fill-rule="evenodd" class="s1" d="m58.9 118.7c-0.2 0-0.3-0.2-0.3-0.4q0 0 0-0.2 0-0.5 0-1.1c0-3.6 0-7.3 3-11.1 0.7-1 1.5-1.9 2.2-2.6 1.2-1.4 2.3-2.7 3.3-4.7 0.1-0.1 0.3-0.2 0.4-0.1 0.2 0 0.3 0.2 0.3 0.3 0 0.7-0.2 7.2-0.7 8.4q0 0.1-0.1 0.2c-0.1 0-3.4 1.8-4.8 3.3-2.7 2.9-2.9 6.9-2.9 7.5q0 0.1 0 0.1c0 0.2-0.2 0.4-0.4 0.4zm8.1-18.5c-0.8 1.4-1.7 2.4-2.7 3.5-0.7 0.8-1.4 1.6-2.2 2.6-2 2.7-2.6 5.3-2.7 7.9 0.4-1.3 1.1-2.7 2.3-3.9 1.4-1.5 4.2-3.1 4.8-3.5 0.3-0.9 0.5-4.3 0.5-6.6z"/>
	<path id="Layer" fill-rule="evenodd" class="s0" d="m55 98.3q-0.1 0-0.1-0.1-0.1-0.1 0-0.2c0.8-1 1.2-1.9 1.8-2.9 0.7-1.3 1.4-2.7 3.1-4.5 1.9-2.1 3.7-3 6-4.1 1.1-0.5 2.3-1.1 3.7-1.9 0 0 0.1 0 0.2 0.1 0 0.1 0 0.2 0 0.2-0.1 0-2.3 2-4.7 4.9q-0.6 0.7-1.2 1.5c-2 2.6-4.1 5.3-8.7 6.9q0 0.1-0.1 0.1zm13.4-12.7q-1.3 0.7-2.4 1.2c-2.3 1.1-4.1 2-6 4.1-1.6 1.7-2.3 3.1-3 4.4-0.5 0.8-0.9 1.6-1.5 2.4 4.1-1.6 6.1-4.2 8-6.6q0.6-0.8 1.2-1.5c1.4-1.7 2.8-3.1 3.7-4z"/>
	<path id="Layer" fill-rule="evenodd" class="s1" d="m49.2 91.5q-0.1 0-0.2 0c-2.5-3.7-4.3-6.3-6.9-10.7-1.4-2.3-2.7-5.6-3.9-8.5-0.9-2.2-1.7-4.4-2.4-5.6-0.1-0.1-0.1-0.2 0-0.2q0.1-0.1 0.2 0c0.1 0 6.5 6.9 9.4 12.8 0.9 1.9 1.6 4.4 2.3 7 0.6 1.9 1.1 3.7 1.7 5 0 0.1 0 0.2-0.1 0.2q-0.1 0-0.1 0zm-12.5-23.8c0.5 1.2 1.2 2.8 1.9 4.5 1.1 2.9 2.5 6.1 3.8 8.5 2.3 3.9 4 6.4 6.1 9.5-0.3-1.2-0.7-2.5-1.1-3.8-0.7-2.5-1.4-5.1-2.3-7-2.2-4.5-6.6-9.6-8.4-11.7z"/>
	<path id="Layer" fill-rule="evenodd" class="s1" d="m48.7 86.1c-0.2 0-0.3-0.2-0.3-0.4-0.1 0-0.5-6.2-2.8-9.5-2.2-3.4-5.1-5.4-5.2-5.4q-0.1-0.1-0.1-0.2c0-0.1-0.8-2.4-0.3-5.7 0.1-0.2 0.2-0.3 0.3-0.3 0.2-0.1 0.4 0 0.4 0.2 0 0 0.4 1.2 2 3l0.3 0.5c1.7 1.9 4.1 4.8 5.3 9.7 1 4.3 0.8 7.6 0.7 7.7 0 0.2-0.1 0.4-0.3 0.4zm-7.8-15.8c0.6 0.4 3.2 2.3 5.3 5.5 0.7 1 1.3 2.3 1.7 3.6q-0.1-0.6-0.3-1.2c-1.1-4.8-3.4-7.5-5.1-9.5l-0.4-0.4c-0.7-0.9-1.2-1.6-1.5-2.2-0.2 2.2 0.2 3.7 0.3 4.2z"/>
	<path id="Layer" fill-rule="evenodd" class="s1" d="m64.3 61.5q-0.1 0-0.1-0.1c-0.1-0.1 0-0.2 0.1-0.2 1.8-0.6 3.7-1.4 5.7-2.2 1.8-0.8 3.7-1.5 5.5-2.2 3.8-1.3 12.8-4.2 12.9-4.3 0.1 0 0.2 0.1 0.2 0.1q0.1 0.2 0 0.3c-0.1 0-6.2 4.7-11.2 6.5-5 1.8-13 2.1-13.1 2.1q0 0 0 0zm23.2-8.3c-2.4 0.8-8.8 2.9-11.9 4-1.8 0.6-3.6 1.4-5.4 2.1q-2.5 1-4.7 1.8c2.5-0.2 8-0.7 11.8-2 3.8-1.4 8.4-4.6 10.2-5.9z"/>
	<path id="Layer" fill-rule="evenodd" class="s1" d="m67.5 77.9c-2.2 0-3.7-0.2-4.9-0.4-1.5-0.3-2.8-0.5-5-0.2q-0.2 0-0.2-0.2c0 0 0-0.1 0.1-0.2 0.1 0 6.1-2.1 10.7-2.1q0.1 0 0.3 0c1.5 0 3.1 0.2 4.6 0.3 3.2 0.2 6.2 0.4 8.5-0.2 0.1 0 0.2 0 0.2 0.1 0.1 0.1 0 0.2-0.1 0.2 0 0.1-5.4 2.3-12.1 2.7q-1.2 0-2.1 0zm-8-1.1c1.2 0 2.1 0.1 3.1 0.3 1.6 0.3 3.5 0.6 6.9 0.4 4.4-0.2 8.1-1.2 10.3-1.9-2.1 0.2-4.4 0-6.7-0.2-1.6-0.1-3.1-0.2-4.6-0.2q-0.2 0-0.3 0c-3.2 0-7.1 1-9.1 1.6q0.2 0 0.4 0z"/>
	<path id="Layer" fill-rule="evenodd" class="s1" d="m57.8 76.9q-0.1 0-0.2 0c-0.1-0.1-0.2-0.3-0.1-0.4 0-0.2 1.8-4 6.6-5.5 2.3-0.8 4.4-0.8 6.5-0.8 2.3 0 4.6 0 7.3-0.9 0.1-0.1 0.2 0 0.3 0.1q0.2 0.1 0.1 0.3c0 0.1-0.9 2.7-5.3 4.2q-0.1 0.1-0.2 0.1c0 0-3.2-0.7-6.4-0.4-5.1 0.5-8.3 3.2-8.4 3.3q-0.1 0-0.2 0zm12.5-6c-2 0-3.9 0-6 0.7-2.7 0.9-4.4 2.5-5.3 3.7 1.5-0.9 4-2.1 7.3-2.4 3-0.3 6 0.2 6.6 0.4 2.6-1 3.8-2.3 4.3-3.1-2.4 0.7-4.5 0.7-6.6 0.7q-0.1 0-0.3 0z"/>
	<path id="Layer" fill-rule="evenodd" class="s1" d="m93.5 149.9q-0.1 0-0.2-0.1c-0.4-0.9-0.8-1.5-1.3-2.1-0.4-0.5-0.9-1.2-1.5-2.3-1.1-2.1-2.2-5.6-2.1-8.8 0 0 0.1-0.1 0.2-0.1q0.1 0 0.2 0.1c0 0 0.7 3.2 1.8 5.1q0.1 0.4 0.4 0.7c0.9 1.8 2.1 4 2.7 7.3 0 0.1-0.1 0.2-0.1 0.2q-0.1 0-0.1 0zm-4.7-11.9c0.2 2.7 1.1 5.5 2 7.2 0.5 1.1 1 1.7 1.5 2.3 0.3 0.4 0.5 0.7 0.8 1.1-0.6-2.6-1.6-4.4-2.4-6q-0.3-0.4-0.5-0.7c-0.6-1.2-1.1-2.8-1.4-3.9z"/>
	<path id="Layer" fill-rule="evenodd" class="s1" d="m94.6 151.9q-0.1 0-0.2-0.1l-0.3-0.3c0-0.1-0.4-0.7-0.7-1.8-0.1-0.5-0.2-1.2-0.3-2-0.2-1.1-0.2-2.4-0.5-3.7q0-0.1 0-0.1c0-0.1-0.3-3.1 1.8-6.7 0.1-0.1 0.3-0.2 0.4-0.1 0.2 0.1 0.3 0.2 0.2 0.4 0 0-0.2 1.1 0.3 4.2q0.1 0.7 0.2 1.4c0.3 1.4 0.6 2.9 0.5 4.3 0 1.7-0.4 2.6-0.7 3.3-0.1 0.3-0.2 0.6-0.3 0.9q-0.1 0.3-0.3 0.3 0 0-0.1 0zm-1.5-8.1c0.3 1.4 0.5 2.7 0.7 3.8 0.1 0.8 0.2 1.5 0.3 1.9 0.2 0.6 0.3 1 0.4 1.3q0.1-0.2 0.2-0.4c0.3-0.7 0.6-1.5 0.6-3 0.1-1.4-0.2-2.8-0.5-4.1q-0.1-0.8-0.2-1.5c-0.2-1.2-0.3-2.2-0.3-2.8-1.2 2.5-1.2 4.6-1.2 4.8z"/>
	<path id="Layer" fill-rule="evenodd" class="s1" d="m75.7 45.2q-0.1 0-0.2-0.1c-0.2-0.2-0.2-0.4-0.1-0.5q0 0 0.1-0.2c0.7-0.8 1.1-2.5 1.6-4.3 0.5-1.8 1.1-4 1.9-5.7 1.2-2.2 3.4-3.6 5.4-4.9 1.2-0.8 2.4-1.6 3.1-2.4 0.1-0.1 0.2-0.1 0.4-0.1 0.1 0.1 0.2 0.3 0.2 0.4-0.1 0.2-1 5.2-2.4 7.7q0 0.1-0.1 0.1c0 0.1-3.3 2.8-5 4.5-1.4 1.5-3.9 4.5-4.5 5.2q-0.1 0.1-0.2 0.1-0.1 0.2-0.2 0.2zm11.5-16.8c-0.7 0.5-1.6 1.1-2.4 1.7-1.9 1.2-4.1 2.6-5.1 4.6-0.9 1.7-1.4 3.8-1.9 5.6q-0.4 1.2-0.7 2.3c1-1.1 2.2-2.5 3-3.4 1.7-1.7 4.6-4.1 5-4.5 1-1.7 1.7-4.7 2.1-6.3z"/>
	<path id="Layer" fill-rule="evenodd" class="s0" d="m75.8 45.2q-0.2 0-0.3-0.1c-0.1-0.1-0.1-0.3 0-0.4 0-0.1 2.8-4.3 8.9-9.4 5.3-4.5 16.2-5.3 16.7-5.4 0.2 0 0.3 0.1 0.4 0.3 0 0.2-0.1 0.4-0.3 0.4-1.2 0.4-3.1 2.3-5.2 4.2-2 1.9-4.4 4.1-6.6 5.6-2.8 1.7-6.4 2.7-9.4 3.4-1.8 0.5-3.4 0.9-4 1.3q-0.1 0.1-0.2 0.1zm23.7-14.4c-3.3 0.4-10.7 1.7-14.6 5-4.2 3.5-6.8 6.6-8 8.2 0.8-0.3 1.8-0.6 3-0.9 2.9-0.7 6.5-1.6 9.1-3.3 2.2-1.4 4.5-3.6 6.5-5.5 1.5-1.4 2.9-2.7 4-3.5z"/>
	<path id="Layer" fill-rule="evenodd" class="s0" d="m76.2 44.5q-0.1 0-0.1-0.1c-0.1-0.1 0-0.2 0.1-0.2 1.8-1.1 4.1-2.9 6.3-4.7 2.2-1.8 4.3-3.4 5.9-4.4 3.2-2 11.8-4.8 11.9-4.8 0.1 0 0.2 0 0.2 0.1 0.1 0.1 0 0.2-0.1 0.2-2.7 1.5-4.9 3-7.4 4.7-1.5 1-3 2-4.8 3.2-5 3.2-11.8 6-11.9 6q0 0-0.1 0zm22.6-13.3c-2.7 0.9-7.9 2.8-10.2 4.2-1.6 1-3.7 2.6-5.9 4.4-1.6 1.3-3.3 2.6-4.8 3.6 2.4-1 6.7-3 10.1-5.2 1.8-1.2 3.3-2.2 4.8-3.1 2-1.4 3.9-2.7 6-3.9z"/>
	<path id="Layer" class="s1" d="m69.5 50.2q0 0-0.1-0.1c-0.1 0-0.1-0.1 0-0.2 1.7-2.8 3.2-5.8 4.3-8.9 0-0.1 0.1-0.2 0.2-0.1 0.1 0 0.2 0.1 0.1 0.2-1.1 3.2-2.5 6.2-4.4 9q0 0.1-0.1 0.1z"/>
	<path id="Layer" class="s1" d="m65.8 54.6q0 0-0.1-0.1c-0.1-0.1 0-0.2 0-0.2 3.3-2.3 6.8-4 10.5-5.1 0.1 0 0.2 0 0.3 0.1 0 0.1-0.1 0.2-0.2 0.2-3.7 1.1-7.2 2.8-10.4 5q0 0.1-0.1 0.1z"/>
	<path id="Layer" class="s1" d="m63.6 57.4q0 0-0.1 0c0 0-0.1-0.1 0-0.2 1-2.8 1.7-5.7 1.8-8.7q0-0.1 0.2-0.1c0.1 0 0.2 0 0.2 0.1-0.2 3-0.8 6-1.9 8.8q-0.1 0.1-0.2 0.1z"/>
	<path id="Layer" class="s1" d="m54.7 73.1c-0.1 0-0.2 0-0.2-0.1 0-3.2-0.4-6.3-1.3-9.3 0-0.1 0.1-0.2 0.2-0.3 0 0 0.2 0.1 0.2 0.2 0.8 3 1.2 6.2 1.3 9.4 0 0.1-0.1 0.1-0.2 0.1q0 0 0 0z"/>
	<path id="Layer" class="s1" d="m55.3 72.2q-0.1 0-0.1 0c-0.1-0.1-0.1-0.2 0-0.3 2.2-2.1 4.8-3.8 7.5-5.2 0.1 0 0.2 0 0.3 0.1 0 0.1 0 0.2-0.1 0.2-2.7 1.4-5.2 3.1-7.5 5.2q0 0-0.1 0z"/>
	<path id="Layer" class="s1" d="m51.6 86.1q0 0 0 0c-0.1 0-0.2 0-0.2-0.1 0.1-3.2-0.4-6.3-1.3-9.2 0-0.1 0-0.2 0.1-0.3 0.1 0 0.2 0.1 0.2 0.2 1 3 1.5 6.1 1.4 9.3 0 0.1-0.1 0.1-0.2 0.1z"/>
	<path id="Layer" class="s1" d="m51.5 98.1q0 0 0 0c-0.1 0-0.2-0.1-0.2-0.2 0.3-3.2 1.3-6.3 2.9-9 0.1-0.1 0.2-0.1 0.3-0.1 0.1 0.1 0.1 0.2 0 0.3-1.6 2.6-2.6 5.7-2.8 8.8 0 0.1-0.1 0.2-0.2 0.2z"/>
	<path id="Layer" class="s1" d="m52.2 105.5q-0.2 0-0.2-0.1c-1.1-2.5-2.8-4.8-4.9-6.6-0.1 0-0.1-0.2 0-0.2 0-0.1 0.1-0.1 0.2 0 2.1 1.8 3.9 4.1 5 6.7 0 0.1 0 0.2-0.1 0.2q0 0 0 0z"/>
	<path id="Layer" class="s1" d="m53.1 110.3q-0.1 0-0.1-0.1-0.9-1.5-2.2-2.5c-0.1-0.1-0.1-0.2 0-0.3 0.1 0 0.2-0.1 0.2 0q1.4 1.1 2.3 2.6c0 0.1 0 0.2-0.1 0.2q0 0.1-0.1 0.1z"/>
	<path id="Layer" class="s1" d="m56.8 120.2q-0.1 0-0.1-0.1c-0.6-4.4-0.4-8.7 0.5-13 0-0.1 0.1-0.2 0.2-0.2 0.1 0.1 0.2 0.1 0.2 0.2-1 4.3-1.2 8.6-0.6 12.9 0 0.1 0 0.2-0.1 0.2q0 0-0.1 0z"/>
	<path id="Layer" class="s1" d="m60.7 127.5q-0.1 0-0.2-0.1c-0.9-1.1-2.2-1.8-3.6-2.1-0.1 0-0.1-0.1-0.1-0.2 0-0.1 0.1-0.2 0.2-0.2 1.5 0.3 2.8 1.1 3.8 2.3 0.1 0 0.1 0.2 0 0.2q-0.1 0.1-0.1 0.1z"/>
	<path id="Layer" class="s1" d="m63.6 131.3q-0.1 0-0.2-0.2c-0.9-4-1-7-0.5-9.9 0-0.1 0.1-0.2 0.2-0.2 0.1 0 0.2 0.1 0.2 0.2-0.6 2.9-0.4 5.9 0.5 9.9 0 0.1-0.1 0.2-0.2 0.2q0 0 0 0z"/>
	<path id="Layer" class="s1" d="m65.5 133.7q0 0 0 0c-2.2-1.1-4.6-1.7-7.1-1.7-0.1 0-0.1-0.1-0.1-0.2 0-0.1 0-0.2 0.1-0.2 2.5 0.1 5 0.7 7.2 1.8 0.1 0 0.1 0.1 0.1 0.2q-0.1 0.1-0.2 0.1z"/>
	<path id="Layer" class="s1" d="m76.8 143.1q-0.1 0-0.2-0.1c-1.8-2.2-3-4.8-3.5-7.6 0-0.1 0.1-0.2 0.2-0.2q0.2 0 0.2 0.2c0.5 2.7 1.7 5.2 3.4 7.4 0.1 0.1 0 0.2 0 0.2q-0.1 0.1-0.1 0.1z"/>
	<path id="Layer" class="s1" d="m71.1 144.5q-0.2 0-0.2-0.1c0-0.1 0.1-0.2 0.1-0.2 2.8-0.5 5.6-0.5 8.4-0.2 0.1 0 0.2 0.1 0.2 0.2q0 0.2-0.2 0.2c-2.8-0.4-5.6-0.3-8.3 0.1q0 0 0 0z"/>
	<path id="Layer" class="s1" d="m90 149.9q-0.1 0-0.1 0c-1.9-1.6-3.4-3.6-4.5-5.7-0.1-0.1 0-0.2 0.1-0.3 0 0 0.1 0 0.2 0.1 1.1 2.2 2.6 4.1 4.4 5.6 0.1 0.1 0.1 0.2 0 0.3q0 0-0.1 0z"/>
	<path id="Layer" class="s1" d="m88.1 152.4q-0.1 0-0.2-0.1-0.1-0.1 0-0.2c0 0 0.4-0.2 0.5-0.2 1.8-0.6 3.7-0.8 5.6-0.6 0.1 0 0.2 0.1 0.2 0.2 0 0.1-0.1 0.1-0.2 0.1-2-0.2-4 0.1-5.9 0.8q0 0 0 0z"/>
	<path id="Layer" class="s1" d="m74.1 41.1c-0.6 0-1.2-0.6-1.2-1.2 0-0.7 0.6-1.2 1.2-1.2 0.7 0 1.2 0.5 1.2 1.2 0 0.6-0.5 1.2-1.2 1.2z"/>
	<path id="Layer" class="s1" d="m53 63.7c-0.7 0-1.2-0.5-1.2-1.2 0-0.7 0.5-1.2 1.2-1.2 0.7 0 1.2 0.5 1.2 1.2 0 0.7-0.5 1.2-1.2 1.2z"/>
	<path id="Layer" class="s0" d="m57.2 132.9c-0.7 0-1.2-0.5-1.2-1.2 0-0.6 0.5-1.2 1.2-1.2 0.7 0 1.2 0.6 1.2 1.2 0 0.7-0.5 1.2-1.2 1.2z"/>
	<path id="Layer" class="s0" d="m55.9 88.2c0 0.5-0.5 0.9-1 0.9-0.5 0-0.9-0.4-0.9-0.9 0-0.6 0.4-1 0.9-1 0.5 0 1 0.4 1 1z"/>
	<path id="Layer" class="s0" d="m51.1 107.1c0 0.5-0.4 1-0.9 1-0.5 0-1-0.5-1-1 0-0.5 0.5-0.9 1-0.9 0.5 0 0.9 0.4 0.9 0.9z"/>
	<path id="Layer" class="s0" d="m64.2 120.3c0 0.5-0.4 0.9-0.9 0.9-0.5 0-1-0.4-1-0.9 0-0.5 0.5-0.9 1-0.9 0.5 0 0.9 0.4 0.9 0.9z"/>
	<path id="Layer" class="s1" d="m70.2 145.4c-0.5 0-0.9-0.4-0.9-0.9 0-0.5 0.4-0.9 0.9-0.9 0.5 0 0.9 0.4 0.9 0.9 0 0.5-0.4 0.9-0.9 0.9z"/>
	<path id="Layer" class="s0" d="m86 143.2c0 0.6-0.4 1-0.9 1-0.5 0-0.9-0.4-0.9-1 0-0.5 0.4-0.9 0.9-0.9 0.5 0 0.9 0.4 0.9 0.9z"/>
	<path id="Layer" class="s0" d="m77.6 50.4c-0.7 0-1.2-0.6-1.2-1.2 0-0.7 0.5-1.2 1.2-1.2 0.7 0 1.2 0.5 1.2 1.2 0 0.6-0.5 1.2-1.2 1.2z"/>
	<path id="Layer" class="s0" d="m65.6 48.6c-0.7 0-1.2-0.5-1.2-1.2 0-0.6 0.5-1.2 1.2-1.2 0.6 0 1.2 0.6 1.2 1.2 0 0.7-0.6 1.2-1.2 1.2z"/>
	<path id="Layer" class="s1" d="m64 67.6c-0.7 0-1.3-0.6-1.3-1.3 0-0.7 0.6-1.3 1.3-1.3 0.7 0 1.3 0.6 1.3 1.3 0 0.7-0.6 1.3-1.3 1.3z"/>
	<path id="Layer" class="s1" d="m46.2 99.2c-0.7 0-1.3-0.6-1.3-1.4 0-0.7 0.6-1.3 1.3-1.3 0.8 0 1.3 0.6 1.3 1.3 0 0.8-0.5 1.4-1.3 1.4z"/>
	<path id="Layer" class="s0" d="m49.9 76.8c-0.6 0-1-0.4-1-1 0-0.5 0.4-1 1-1 0.5 0 1 0.5 1 1 0 0.6-0.5 1-1 1z"/>
	<path id="Layer" class="s1" d="m58.6 106.1c0 0.6-0.4 1-1 1-0.5 0-1-0.4-1-1 0-0.5 0.5-1 1-1 0.6 0 1 0.5 1 1z"/>
	<path id="Layer" class="s1" d="m56 125.9c-0.5 0-1-0.5-1-1 0-0.6 0.5-1 1-1 0.6 0 1 0.4 1 1 0 0.5-0.4 1-1 1z"/>
	<path id="Layer" class="s0" d="m87.1 153.5c-0.6 0-1-0.4-1-1 0-0.5 0.4-1 1-1 0.5 0 1 0.5 1 1 0 0.6-0.5 1-1 1z"/>
	<path id="Layer" class="s1" d="m74.2 134.4c0 0.6-0.5 1-1 1-0.6 0-1-0.4-1-1 0-0.6 0.4-1 1-1 0.5 0 1 0.4 1 1z"/>
	<path id="Layer" fill-rule="evenodd" class="s1" d="m57 68q-0.1 0-0.2 0c-0.2-0.1-0.2-0.3-0.1-0.5l1.5-2.6q0.1-0.1 0.1-0.1c0 0 2.2-1.5 8.9-6.1 6.5-4.5 9.5-4.8 14-5.3h0.5c4.7-0.5 7.7-1.6 7.8-1.6 0.1 0 0.3 0 0.4 0.2 0.1 0.1 0 0.3-0.1 0.4-2.1 1.3-3.5 2.8-4.8 4.3-1.6 1.7-3.1 3.4-5.7 4.5-3.7 1.7-7.6 1.3-10.6 0.9-0.9-0.1-1.7-0.1-2.4-0.2q-0.1 0-0.2 0c-3 0-6.9 3.1-8.8 6q-0.1 0.1-0.3 0.1zm9.1-6.8q0.1 0 0.2 0c0.7 0.1 1.6 0.1 2.4 0.2 3 0.4 6.8 0.8 10.4-0.8 2.4-1.1 3.9-2.7 5.4-4.4 0.9-1 1.9-2.1 3.2-3.1-1.4 0.3-3.4 0.7-5.9 1h-0.5c-4.6 0.5-7.3 0.8-13.7 5.2q-1.8 1.2-3.1 2.1 0.8-0.2 1.6-0.2z"/>
	<path id="Layer" fill-rule="evenodd" class="s0" d="m56.7 68.5q-0.1 0-0.1-0.1c-0.2 0-0.3-0.2-0.2-0.3 0.4-4-2-7.3-4.5-10.7l-0.5-0.6c-2.1-2.9-2.5-6.9-2.7-9.9-0.2-1.1-0.2-2-0.4-2.7-0.6-2.7-1.3-4-3-6.5-0.1-0.2-0.1-0.3 0-0.5 0.1-0.1 0.3-0.1 0.4 0 5.3 2.4 8.8 9.1 8.9 9.4q0.1 0.1 0.1 0.2c0 0 0 2.4 0.5 5.7 0.6 3.3 2.6 7.1 2.6 7.1q0.1 0.1 0 0.2c0 0-0.3 1.7-0.4 3.7-0.1 1.9 0.2 3.6 0.2 3.6q0 0.1 0 0.2l-0.6 1q-0.1 0.1-0.3 0.2zm-10-30.1c1.2 2 1.8 3.3 2.3 5.6 0.1 0.7 0.2 1.7 0.3 2.8 0.3 2.9 0.7 6.9 2.7 9.6l0.4 0.6c1.8 2.4 3.5 4.8 4.3 7.4q0-0.5 0-1c0.1-1.7 0.3-3.2 0.4-3.6-0.3-0.7-2-4-2.6-7.2-0.5-3.1-0.5-5.3-0.5-5.7-0.4-0.7-3.2-5.9-7.3-8.5z"/>
	<path id="Layer" fill-rule="evenodd" class="s0" d="m57.5 60.1q-0.2 0-0.3-0.2c-2.9-5.6-3.2-9.9-3.2-13 0.1-2.5 1.1-5.4 2-7.9q0.6-1.4 0.9-2.6c0.7-2.2 1.8-6.9 1.9-7 0-0.1 0.1-0.3 0.3-0.3 0.2 0 0.3 0.1 0.3 0.3 0 0 1 3.4 1.6 7.2l0.2 1.3c0.5 3.7 1.3 8.8 0.8 12.5-0.6 3.6-1.9 5.7-3 7.3-0.5 0.8-0.9 1.5-1.2 2.2 0 0.1-0.1 0.2-0.3 0.2q0 0 0 0zm1.6-29.2c-0.4 1.6-1 4.2-1.5 5.7q-0.4 1.2-0.9 2.7c-0.9 2.4-1.9 5.2-2 7.6 0 2.9 0.2 6.9 2.8 12 0.2-0.5 0.6-1 1-1.6 1-1.6 2.3-3.5 2.8-7 0.5-3.6-0.3-8.6-0.8-12.3l-0.2-1.3c-0.4-2.3-0.9-4.5-1.2-5.8z"/>
	<path id="Layer" fill-rule="evenodd" class="s0" d="m57.3 59.3q0 0-0.1 0-0.1 0-0.1-0.1c-0.1-0.8-0.2-1.5-0.3-2.2-0.3-2.8-0.7-5.6-0.4-10.1 0.2-3.1 0.9-6.7 1.5-9.8 0.5-2.9 1-5.3 1-6.7-0.1-0.1 0-0.1 0.1-0.1q0 0 0 0c0.1 0 0.2 0 0.2 0.1 0 0.1 0.7 8 0.7 11.4q0 0.7 0 1.6c0.1 4.8 0.1 12.1-2.5 15.9q0 0-0.1 0zm1.7-26.8c-0.2 1.3-0.5 2.9-0.8 4.6-0.6 3.2-1.3 6.8-1.5 9.8-0.2 4.5 0.1 7.3 0.5 10q0.1 0.9 0.2 1.8c2.3-3.8 2.2-10.7 2.2-15.3q0-0.9 0-1.6c0-2.3-0.4-6.7-0.6-9.3z"/>
	<path id="Layer" fill-rule="evenodd" class="s1" d="m52.3 82.4q0 0-0.1 0c-0.1-0.1-0.2-0.3-0.2-0.4l0.3-1.5q0 0 0-0.1c1-1.5 4-3.5 5.4-4.1 0.2-0.2 0.6-0.4 1-0.7 1.3-0.9 3.4-2.4 7.4-2.7 4-0.3 5.9 0.1 8.1 0.7 0.7 0.1 1.4 0.3 2.2 0.5 3.2 0.6 6 0.5 6 0.5q0 0 0 0c0.2 0 0.3 0.1 0.3 0.3 0.1 0.1 0 0.3-0.2 0.4-1.4 0.4-2.6 1.1-3.9 1.9-2 1.3-4.4 2.8-8.1 3.1-3.8 0.3-6.9-0.9-9.1-1.8-1.2-0.4-2.2-0.8-3-0.8-2-0.1-4.6 2.3-5.7 4.5q-0.1 0.2-0.4 0.2zm6-5.4q0.1 0 0.2 0c0.8 0 1.8 0.4 3.1 0.9 2.2 0.8 5.2 2 8.9 1.7 3.5-0.3 5.7-1.6 7.8-3 0.8-0.5 1.5-0.9 2.3-1.3-1.1-0.1-2.6-0.2-4.4-0.5-0.8-0.2-1.5-0.4-2.2-0.5-2.1-0.6-3.9-1-7.8-0.7-3.9 0.3-5.8 1.7-7.1 2.6-0.4 0.3-0.8 0.6-1.2 0.7q-0.1 0.1-0.2 0.1 0.3 0 0.6 0z"/>
	<path id="Layer" fill-rule="evenodd" class="s1" d="m51 95.6c-0.2 0-0.3-0.1-0.3-0.2q-0.1-0.1-0.3-0.6c-1.5-3.5-3.8-5.5-6.1-7.5-1.7-1.6-3.3-3-4.6-5.1-2-3.2-2.9-7.9-3.7-12-0.4-2-0.7-3.8-1.2-5.3 0-0.2 0.1-0.4 0.2-0.5 0.2 0 0.4 0 0.5 0.2 0.8 1.7 2.9 3.5 5 5.4 2.1 1.7 4.2 3.6 5.5 5.5 2.6 4 2.9 8.5 3.1 11.2v0.3c0.1 2.8 1.5 6.3 2 7.6q0.1 0.3 0.2 0.5c0.1 0.2 0 0.4-0.2 0.5q-0.1 0-0.1 0zm-15-29q0.4 1.7 0.7 3.5c0.8 4 1.7 8.6 3.6 11.8 1.2 1.9 2.8 3.3 4.5 4.9 1.5 1.3 3.1 2.7 4.4 4.5-0.4-1.3-0.7-2.9-0.8-4.3v-0.2c-0.2-2.7-0.5-7.1-2.9-10.9-1.3-1.9-3.4-3.7-5.4-5.4-1.6-1.3-3-2.6-4.1-3.9z"/>
	<path id="Layer" fill-rule="evenodd" class="s1" d="m49.9 93.5q-0.2 0-0.3-0.1c-0.9-1.1-3.3-2.6-7.1-4.4-2.5-1.2-4.6-4-6.2-8.2-1.2-3.5-2.6-5.5-2.6-5.5-0.1-0.2-0.1-0.3 0-0.5 0.1-0.1 0.3-0.1 0.5 0 2.5 1.4 4.3 3.3 4.4 3.4q0 0 0.1 0.1c0 0 0.9 2.5 2.1 4.4 1 1.3 2.3 2.5 4.4 4.5l0.9 0.7c2.6 2.5 4 5 4.1 5.1 0.1 0.1 0 0.3-0.1 0.4q-0.1 0.1-0.2 0.1zm-14.9-17.4c0.5 1 1.3 2.5 2 4.4 1 2.9 2.9 6.5 5.8 7.9 1.8 0.8 3.8 1.9 5.4 2.9-0.7-0.8-1.5-1.8-2.6-2.8l-0.9-0.8c-2.1-2-3.4-3.2-4.4-4.6-1.2-1.8-2.1-4.1-2.3-4.5-0.2-0.2-1.4-1.4-3-2.5z"/>
	<path id="Layer" fill-rule="evenodd" class="s0" d="m52.6 106.7c-0.2 0-0.4-0.1-0.4-0.3-0.2-3.9 1.3-6.6 2.5-8.8l0.2-0.3c0.3-0.6 0.6-1.5 0.9-2.6 0.7-2.3 1.6-5.2 4.1-7 2-1.5 4.3-2 6.5-2.6 1.6-0.4 3.1-0.8 4.3-1.4 0.1-0.1 0.3-0.1 0.4 0.1 0.1 0.1 0.1 0.3 0 0.4 0 0-1.9 1.9-3.2 4.5q-0.3 0.7-0.6 1.3c-1 2.4-2 4.6-4.7 5.7-1.3 0.6-2.3 0.9-3.3 1.2-1.3 0.4-2.3 0.8-3.5 1.5-2.5 1.6-2.9 7.9-2.9 8 0 0.2-0.1 0.3-0.3 0.3zm16.9-21.8c-0.9 0.4-1.9 0.6-2.9 0.9-2.2 0.5-4.4 1.1-6.3 2.5-2.3 1.6-3.1 4.4-3.8 6.6-0.3 1.1-0.6 2-1 2.7l-0.1 0.3q0-0.1 0-0.1c1.3-0.8 2.4-1.1 3.7-1.6 0.9-0.3 2-0.6 3.2-1.1 2.5-1.1 3.4-3.1 4.4-5.3q0.3-0.7 0.6-1.4c0.7-1.4 1.5-2.6 2.2-3.5z"/>
	<path id="Layer" fill-rule="evenodd" class="s0" d="m56.6 120.7q-0.2 0-0.2-0.1c-1-0.7-2.3-0.9-4-1.3-1.8-0.4-4.1-0.8-7-2-3.9-1.6-6-5.9-8.1-10-1.1-2.3-2.2-4.5-3.5-6.2-0.1-0.1-0.1-0.3 0-0.4 0.1-0.1 0.3-0.2 0.4-0.1 2.1 1.4 4.2 2.2 6.4 3.2 2 0.8 4 1.7 6.1 2.9 3.5 2.1 4.7 4.3 6 6.8 0.4 0.7 0.8 1.5 1.3 2.3 2 3.4 2.8 4.3 2.8 4.3 0.1 0.2 0.1 0.4 0 0.5q-0.1 0.1-0.2 0.1zm-21.3-18.6c1 1.4 1.8 3.1 2.7 4.8 2 4.1 4 8.3 7.7 9.7 2.8 1.2 5.1 1.6 6.8 2 1.2 0.3 2.1 0.5 2.9 0.8-0.5-0.7-1.1-1.8-2-3.3-0.5-0.8-0.9-1.6-1.3-2.3-1.3-2.4-2.4-4.5-5.7-6.5-2.1-1.2-4.1-2.1-6.1-2.9-1.7-0.7-3.3-1.4-5-2.3z"/>
	<path id="Layer" fill-rule="evenodd" class="s1" d="m59.8 125.9c-0.2 0-0.3-0.1-0.4-0.2 0-0.1-0.8-2.7-0.8-5.2-0.2-3.7 0.4-7.4 3.4-10.5 2-2.1 4.2-3.1 6.3-4 2.5-1.1 4.9-2.2 6.7-5 0.1-0.1 0.2-0.2 0.4-0.1 0.1 0 0.2 0.1 0.2 0.3 0 0.1 0.2 8.7-6.3 11.9-2.1 1-3.8 1.7-5.2 2.3-2.7 1.1-3.9 1.6-4.4 2.9-0.2 0.7-0.4 1.5-0.4 2.3 0.2 1.6 0.5 3.3 0.8 4.9 0 0.2-0.1 0.4-0.3 0.4q0 0 0 0zm15.1-23.5c-1.8 2.2-4 3.2-6.3 4.2-2 0.9-4.2 1.9-6.1 3.9-2 2.1-2.9 4.5-3.2 7 0.7-1.2 2.1-1.8 4.6-2.8 1.3-0.5 3-1.3 5.1-2.3 4.7-2.3 5.7-7.7 5.9-10z"/>
	<path id="Layer" fill-rule="evenodd" class="s0" d="m69.2 137q0 0-0.1 0c-0.1 0-2.3-0.7-2.9-6.3-0.5-4.6 1.1-7.1 2.2-8.8q0.4-0.7 0.6-1.2c0.3-0.6 0.4-1.3 0.6-2 0.2-1.1 0.4-2.3 1.4-3.3 0.1-0.1 0.3-0.1 0.4 0 0.1 0.1 0.2 0.2 0.2 0.4-0.3 1.3-0.1 3.3 0.1 5.3 0.2 1.8 0.3 3.5 0.2 4.7-0.3 2.2-1.4 3.5-2.2 4.6-0.6 0.8-1.1 1.4-1.3 2.2-0.3 1.8 1.1 3.8 1.1 3.9 0.1 0.1 0.1 0.2 0 0.4q-0.1 0.1-0.3 0.1zm1.5-20c-0.2 0.5-0.3 1.2-0.5 1.8-0.1 0.8-0.2 1.5-0.6 2.2q-0.2 0.6-0.6 1.2c-1.1 1.7-2.6 4.1-2.1 8.4 0.2 1.8 0.6 3.1 1 3.9-0.2-0.6-0.3-1.3-0.2-2 0.2-1 0.8-1.7 1.4-2.5 0.9-1.1 1.8-2.3 2.1-4.3 0.1-1.1 0-2.8-0.2-4.5-0.1-1.5-0.3-3-0.3-4.2z"/>
	<path id="Layer" fill-rule="evenodd" class="s1" d="m59.1 144c-1.4 0-2.6-0.2-3.8-0.4-2-0.3-3.9-0.5-6.1 0-0.2 0.1-0.3 0-0.4-0.2-0.1-0.1 0-0.3 0.2-0.4 0 0 1.4-0.7 4.7-1.6 1.3-0.3 2.4-1 3.6-1.8 1.8-1.2 3.8-2.5 6.9-2.7 5.2-0.3 8.7 3 8.9 3.2 0.1 0.1 0.1 0.2 0 0.4-0.1 0.1-0.2 0.2-0.4 0.1 0 0-2.5-0.5-5 0.4-0.9 0.3-1.6 0.7-2.3 1.1-1.2 0.8-2.5 1.6-5.2 1.8q-0.6 0.1-1.1 0.1zm-7.1-1.4c1.2 0 2.2 0.2 3.4 0.3 1.5 0.2 3 0.5 4.8 0.3 2.5-0.2 3.6-0.9 4.8-1.6 0.7-0.5 1.5-0.9 2.5-1.3 1.6-0.5 3.1-0.6 4.1-0.5-1.3-1-4-2.4-7.3-2.2-2.9 0.2-4.8 1.4-6.7 2.6-1.2 0.8-2.4 1.6-3.8 1.9q-1 0.3-1.8 0.5z"/>
	<path id="Layer" fill-rule="evenodd" class="s1" d="m80.8 145.7c-0.2 0-0.3-0.1-0.4-0.3q0 0 0-0.1c-0.2-0.6-0.5-1.3-0.9-2.1-1-1.8-2.1-4-2.1-7.2 0-2.1 0.6-3.7 1.1-5.3 0.4-1.3 0.8-2.5 0.9-3.9 0-0.1 0.1-0.3 0.3-0.3 0.2 0 0.4 0.2 0.4 0.3 0 0.1 0 2.6 0.8 5 0.9 2.5 1.2 5.7 0.7 7.7l-0.2 0.9c-0.3 1.1-0.3 1.2-0.6 2.5-0.1 0.7 0.2 1.9 0.3 2.2q0 0.1 0 0.1c0 0.2-0.1 0.4-0.2 0.4q-0.1 0.1-0.1 0.1zm-1.2-16.3q-0.2 0.7-0.4 1.5c-0.5 1.5-1.1 3.1-1.1 5.1 0 3.1 1.1 5.2 2 6.9q0 0 0 0.1 0-0.1 0-0.2c0.3-1.3 0.3-1.5 0.6-2.6l0.2-0.9c0.5-1.9 0.2-4.9-0.6-7.3-0.3-0.9-0.5-1.8-0.7-2.6z"/>
	<path id="Layer" fill-rule="evenodd" class="s0" d="m69.8 153.6q-0.2-0.1-0.3-0.2c-0.1-0.2 0-0.4 0.1-0.5 0 0 1.1-0.8 2.3-2.3l0.1-0.1c1-1.2 1.8-2.1 3.2-2.9 1.1-0.6 3.5-1.2 6.5-1 2.7 0.2 4 0.9 4 0.9 0.2 0.1 0.2 0.3 0.2 0.4-0.1 0.2-0.2 0.3-0.3 0.3q-0.1 0-0.1 0c0 0-1-0.1-2.4 0.7-0.5 0.3-0.8 0.6-1.2 1.1-0.6 0.6-1.4 1.4-3.3 2.3-1.9 0.9-3.9 1-5.7 1-1.2 0-2.2 0-3 0.2q0 0.1-0.1 0.1zm10.6-6.4c-2.2 0-4 0.6-4.9 1-1.3 0.7-2 1.6-3 2.8l-0.1 0.1q-0.8 1-1.4 1.6 0.8-0.1 1.8-0.1c1.8 0 3.8-0.1 5.5-0.9 1.8-0.8 2.5-1.6 3.1-2.2 0.4-0.5 0.7-0.9 1.4-1.2q0.7-0.4 1.3-0.6c-0.6-0.2-1.4-0.3-2.5-0.4q-0.6-0.1-1.2-0.1z"/>
	<path id="Layer" fill-rule="evenodd" class="s1" d="m94.6 151.9q-0.1 0-0.2-0.1-0.1 0-0.3-0.4c-0.5-0.7-1.1-1.3-1.8-1.9-1.1-1-2.4-2.1-3.2-3.8-1.5-3-1.3-6.6-1-10.2 0.1-0.1 0.2-0.3 0.4-0.3q0.3 0 0.3 0.3c0 0 0.7 2.4 1.9 4.1q0.3 0.5 0.7 0.9c0.9 1.2 1.8 2.4 2.2 5.4v0.5c0.2 1 0.3 2.4 0.5 3.1 0.2 0.7 0.4 1.2 0.6 1.5q0.1 0.2 0.2 0.4c0.1 0.2 0.1 0.4-0.1 0.5q-0.1 0-0.2 0zm-5.9-14.7c-0.2 2.9-0.1 5.8 1 8.2 0.8 1.6 1.9 2.6 3 3.6q0.4 0.3 0.7 0.6c-0.2-0.8-0.3-2.2-0.5-3.2v-0.4c-0.4-2.9-1.2-3.9-2.1-5.1q-0.3-0.4-0.7-0.9c-0.6-0.9-1.1-1.9-1.4-2.8z"/>
	<path id="Layer" fill-rule="evenodd" class="s0" d="m107.3 155.5q-0.1 0-0.1 0c-0.2 0-3.5-1.1-4.5-4.4-0.6-2-0.7-3.5-0.7-5.2-0.1-0.9-0.1-1.8-0.2-2.8-0.1-0.2 0.1-0.4 0.2-0.4 0.2-0.1 0.4 0.1 0.4 0.2 0.4 1.6 1.5 2.8 2.4 4 0.9 1 1.8 2.1 2.3 3.3 1 2.8 0.5 5 0.5 5q0 0.2-0.2 0.3 0 0-0.1 0zm-4.7-10.4q0 0.4 0.1 0.8c0 1.6 0.1 3.1 0.7 5 0.7 2.3 2.7 3.4 3.6 3.8 0.1-0.7 0.1-2.3-0.6-4.2-0.4-1.2-1.3-2.1-2.1-3.2-0.6-0.7-1.2-1.4-1.7-2.2z"/>
	<path id="Layer" fill-rule="evenodd" class="s1" d="m88.3 159.6c-0.1 0-0.2 0-0.3-0.2 0-0.1 0-0.3 0.1-0.4 0.7-0.5 1.2-1.2 1.7-1.8 0.9-1.2 1.8-2.3 3.7-3.2 1.9-0.9 3.1-0.9 4.2-0.9 0.7 0 1.4 0 2.2-0.2q0.2-0.1 0.3 0.1 0.1 0.2 0.1 0.4c-0.1 0.1-1 2-4 4.1-3 2.1-7.8 2.1-8 2.1q0 0 0 0zm9.1-5.8c-1 0-2 0-3.6 0.8-1.7 0.8-2.6 1.9-3.4 3q-0.5 0.7-1.1 1.3c1.5-0.1 4.6-0.6 6.6-2 1.8-1.3 2.8-2.5 3.3-3.2-0.5 0.1-1 0.1-1.5 0.1q-0.2 0-0.3 0z"/>
	<path id="Layer" class="s0" d="m76.2 44.9c0 0-0.5 0.4-1.5 1.2-1 0.9-2.4 2.1-4 3.7-3.4 3.3-8 8.3-11.8 15.4-2 3.5-3.7 7.5-4.9 12-1.4 4.4-1.9 9.3-2.2 14.3 0 5 0.3 10.2 1.4 15.4l0.8 3.9c0.3 1.3 0.8 2.5 1.2 3.8 0.7 2.5 2 4.9 3.1 7.3 2.5 4.7 5.6 9.2 9.4 12.9 3.7 3.7 7.9 6.8 12.2 9.4 8.7 5.1 17.8 8 25.6 10 3.9 0.9 7.6 1.7 10.7 2.6 3.2 0.9 6 1.8 8.2 2.7 2.2 0.8 3.9 1.7 5 2.3 1.2 0.6 1.7 1.1 1.8 1.1 0.2 0.2 0.2 0.6 0 0.8-0.2 0.2-0.5 0.2-0.7 0 0 0-0.5-0.4-1.6-1-1-0.6-2.7-1.4-4.9-2.2-2.2-0.9-4.9-1.8-8-2.7-3.2-0.8-6.8-1.7-10.8-2.6-7.9-2-17-4.9-25.8-10.1-4.4-2.6-8.7-5.8-12.5-9.6-3.9-3.7-7-8.3-9.6-13-1.1-2.5-2.4-5-3.1-7.6-0.5-1.3-0.9-2.6-1.3-3.9l-0.8-3.9c-1.1-5.3-1.4-10.6-1.4-15.7 0.4-5.1 0.9-10 2.3-14.5 1.3-4.5 3-8.6 5.1-12.2 3.9-7.1 8.6-12.2 12-15.5 1.7-1.6 3.1-2.8 4.1-3.7 1-0.8 1.5-1.2 1.5-1.2 0.2-0.1 0.4-0.1 0.5 0 0.2 0.2 0.1 0.4 0 0.6z"/>
	<path id="Layer" fill-rule="evenodd" class="s0" d="m150.2 153.1c-4.3-0.4-6-1.5-7.8-2.7-0.5-0.4-1.1-0.8-1.8-1.1-2.7-1.5-4.4-1.4-4.5-1.4 0 0-0.1-0.1-0.1-0.2q-0.1-0.1 0.1-0.2c0.1 0 2.5-1.1 5.7 0.1 1.9 0.7 3.1 1.5 4.2 2.4q0.3 0.2 0.7 0.5c2.6 1.8 3.6 2.3 3.6 2.3q0.1 0 0.1 0.2 0 0.1-0.2 0.1 0 0 0 0zm-13.1-5.5c0.8 0.1 2.1 0.5 3.7 1.4 0.7 0.3 1.3 0.7 1.8 1.1 1.6 1.1 3.1 2.1 6.7 2.6-0.5-0.4-1.5-0.9-2.8-1.9q-0.4-0.3-0.8-0.6c-1-0.8-2.1-1.6-4-2.3-1.1-0.4-2.1-0.5-2.9-0.5-0.7 0-1.3 0.1-1.7 0.2z"/>
	<path id="Layer" fill-rule="evenodd" class="s1" d="m162.9 143c-2-0.1-3.3-0.7-4.9-1.5q-0.9-0.5-2.1-1c-2.8-1.2-7.4-0.5-7.4-0.5-0.1 0.1-0.2 0-0.2-0.1-0.1-0.1 0-0.2 0.1-0.2 0.1-0.1 4.2-1.7 7.4-1.2 1.8 0.3 2.9 0.8 4 1.5 0.9 0.4 1.7 0.9 3 1.3 1.6 0.5 2.9 0.6 4.1 0.7 1.1 0.2 2 0.3 2.9 0.6 0.1 0.1 0.1 0.2 0.1 0.3 0 0-0.1 0.1-0.2 0.1-1.1-0.2-2-0.2-3.1-0.1-0.7 0.1-1.5 0.1-2.5 0.1q-0.6 0-1.2 0zm3.9-0.6c-1.2-0.1-2.5-0.3-4.1-0.8-1.3-0.4-2.2-0.9-3-1.3-1.2-0.7-2.2-1.2-4-1.5-1.9-0.2-4.1 0.3-5.6 0.7 1.6-0.1 4.1-0.1 5.9 0.7q1.2 0.5 2.1 0.9c1.7 0.9 2.9 1.5 4.8 1.5 1.6 0.1 2.8 0 3.7 0q0.6-0.1 1.1-0.1-0.4-0.1-0.9-0.1z"/>
	<path id="Layer" fill-rule="evenodd" class="s1" d="m163.1 140.3c-4.5-3.2-7.8-2.8-7.8-2.8-0.2 0.1-0.3 0-0.4-0.2 0-0.1 0-0.3 0.2-0.4 2.3-1.4 6.6-1.5 9.6-1.2 3.4 0.3 6 0.3 6.1 0.3 0.1 0 0.3 0.1 0.3 0.3 0 0.1-0.1 0.3-0.2 0.3 0 0.1-2.1 1-3.7 2.2-1.8 1.3-3.8 1.6-3.9 1.6q0 0 0 0-0.1 0-0.2-0.1zm1.6-4c-2.4-0.2-5.6-0.1-7.9 0.6 1.5 0.2 3.8 0.8 6.6 2.8 0.4-0.1 2-0.4 3.4-1.5 0.9-0.6 1.8-1.2 2.5-1.6-1.1 0-2.7-0.1-4.6-0.3z"/>
	<path id="Layer" fill-rule="evenodd" class="s0" d="m172.8 122.9c-2.1-0.1-3.6-0.6-5-1.1-1.4-0.5-2.7-1-4.3-0.8q-0.2 0-0.3-0.2c-0.1-0.1-0.1-0.3 0.1-0.4 0-0.1 1.4-1.4 7.5-2.4 4.4-0.8 6.9-3.3 6.9-3.3q0.1-0.1 0.1-0.1c0.2-0.1 3.6-1.2 8.7-1.2 0.2 0 0.3 0.1 0.4 0.3 0 0.2-0.2 0.4-0.3 0.4-0.1 0-2.9 0.4-5.5 2.7-0.7 0.7-1.4 1.5-2 2.3-1.5 1.9-3.1 3.8-6.1 3.8q-0.1 0-0.2 0zm5.3-7.7c-0.4 0.5-2.9 2.7-7.2 3.5-3.2 0.5-5 1.1-6.1 1.6 1.2 0.1 2.2 0.4 3.2 0.8 1.4 0.5 2.9 1 4.8 1.1q0.1 0 0.2 0c2.6 0 4-1.6 5.6-3.5 0.6-0.8 1.3-1.7 2.1-2.4 1.1-1 2.3-1.7 3.3-2.1-3.3 0.2-5.4 0.9-5.9 1z"/>
	<path id="Layer" fill-rule="evenodd" class="s0" d="m164.9 119.6c-0.1-0.1-0.1-0.2 0-0.2 1.2-1.3 2.4-2.6 3.7-4.1 0.9-0.9 1.8-1.9 2.9-3 2.9-3.2 4.7-4.9 8.3-7 3.7-2.3 5.9-3.9 5.9-3.9 0.1 0 0.2 0 0.2 0.1 0.1 0 0.1 0.1 0 0.2-1 1-2 2.4-3.2 4.1-1.9 2.7-4.1 5.7-7.1 8-3.1 2.4-5.2 3.3-7.2 4.2-1.1 0.5-2.2 0.9-3.3 1.6q0 0.1-0.1 0.1-0.1 0-0.1-0.1zm15.1-14c-3.6 2.1-5.4 3.8-8.2 6.9-1.1 1.1-2 2.1-2.9 3.1-1.1 1.1-2.1 2.2-3 3.2 0.8-0.4 1.6-0.8 2.4-1.1 1.9-0.9 4.1-1.8 7.1-4.2 2.9-2.2 5.1-5.3 7-7.9 0.8-1.2 1.5-2.2 2.2-3-1 0.7-2.6 1.7-4.6 3z"/>
	<path id="Layer" fill-rule="evenodd" class="s1" d="m161.2 117.7c-2.6-3-3.9-3.7-8.2-6l-1.2-0.7c-5.2-2.8-6.4-8.6-6.4-8.7q0-0.1 0.1-0.2 0.2 0 0.2 0.1c1.8 3.6 5.2 5.4 7.9 6.8l0.6 0.3c2.7 1.4 6.7 5.1 7.3 8.3q0 0.1-0.1 0.2 0 0-0.1 0-0.1 0-0.1-0.1zm-9.2-7l1.2 0.7c3.9 2.1 5.4 2.9 7.7 5.5-0.9-2.7-4.1-5.8-6.9-7.3l-0.5-0.3c-2.5-1.3-5.4-2.9-7.4-5.7 0.7 1.8 2.3 5.2 5.9 7.1z"/>
	<path id="Layer" fill-rule="evenodd" class="s1" d="m161.2 118.3q0 0 0-0.1c0-0.6-0.2-4.6-2.9-7.5-1.4-1.5-4.7-3.3-4.8-3.3q-0.1-0.1-0.1-0.2c-0.5-1.2-0.7-7.7-0.7-8.4 0-0.1 0.1-0.3 0.3-0.3 0.1-0.1 0.3 0 0.4 0.1 1 2 2.1 3.3 3.3 4.7 0.7 0.7 1.5 1.6 2.2 2.6 2.9 3.8 3 7.5 3 11.1q0 0.6 0 1.1 0 0.2 0 0.2c0 0.2-0.2 0.4-0.3 0.4h-0.1c-0.1 0-0.3-0.2-0.3-0.4zm-7.2-11.5c0.6 0.4 3.4 2 4.8 3.5 1.2 1.2 1.9 2.6 2.3 3.9-0.1-2.6-0.7-5.2-2.7-7.9-0.8-1-1.5-1.8-2.2-2.6-1-1.1-1.9-2.1-2.8-3.5 0.1 2.3 0.3 5.7 0.6 6.6z"/>
	<path id="Layer" fill-rule="evenodd" class="s0" d="m165.4 98.2c-4.6-1.6-6.7-4.3-8.7-6.9q-0.6-0.8-1.2-1.5c-2.4-2.9-4.7-4.9-4.7-4.9 0 0-0.1-0.1 0-0.2 0.1-0.1 0.2-0.1 0.2-0.1 1.4 0.8 2.6 1.4 3.7 1.9 2.3 1.1 4.1 2 6 4.1 1.7 1.8 2.4 3.2 3.1 4.5 0.5 1 1 1.9 1.8 2.9q0.1 0.1 0 0.2-0.1 0.1-0.1 0.1-0.1 0-0.1-0.1zm-9.6-8.6q0.6 0.7 1.1 1.5c2 2.4 4 5 8.1 6.6-0.6-0.8-1-1.6-1.5-2.4-0.7-1.3-1.4-2.7-3-4.4-1.9-2.1-3.7-3-6-4.1q-1.1-0.5-2.4-1.2c0.9 0.9 2.3 2.3 3.7 4z"/>
	<path id="Layer" fill-rule="evenodd" class="s1" d="m171.2 91.5c-0.1 0-0.1-0.1-0.1-0.2 0.6-1.3 1.1-3.1 1.6-5 0.8-2.6 1.5-5.1 2.4-7 2.9-5.9 9.3-12.8 9.4-12.8q0.1-0.1 0.2 0c0.1 0 0.1 0.1 0 0.2-0.7 1.2-1.5 3.4-2.5 5.6-1.1 2.9-2.5 6.2-3.8 8.5-2.6 4.4-4.4 7-7 10.7q0 0-0.1 0 0 0-0.1 0zm4.2-12.1c-0.9 1.9-1.6 4.5-2.3 7-0.4 1.3-0.8 2.6-1.2 3.8 2.2-3.1 3.9-5.6 6.2-9.5 1.3-2.4 2.7-5.6 3.8-8.5 0.7-1.7 1.3-3.3 1.9-4.5-1.8 2.1-6.2 7.2-8.4 11.7z"/>
	<path id="Layer" fill-rule="evenodd" class="s1" d="m171.4 85.7c0-0.1-0.2-3.4 0.8-7.7 1.2-4.9 3.6-7.8 5.3-9.7l0.3-0.5c1.6-1.8 2-3 2-3 0-0.2 0.2-0.3 0.3-0.2 0.2 0 0.3 0.1 0.4 0.3 0.5 3.3-0.3 5.6-0.3 5.7q-0.1 0.1-0.1 0.2c-0.1 0-3 2-5.2 5.4-2.3 3.3-2.8 9.5-2.8 9.5 0 0.2-0.1 0.4-0.3 0.4-0.2 0-0.3-0.2-0.4-0.4zm8.5-19.6c-0.3 0.6-0.8 1.3-1.5 2.2l-0.4 0.4c-1.7 2-4 4.7-5.1 9.5q-0.2 0.6-0.3 1.2c0.4-1.3 1-2.6 1.7-3.6 2.1-3.2 4.7-5.1 5.3-5.5 0.1-0.5 0.4-2 0.3-4.2z"/>
	<path id="Layer" fill-rule="evenodd" class="s1" d="m156.2 61.5c-0.1 0-8.1-0.3-13.1-2.1-5-1.8-11.1-6.5-11.2-6.5q-0.1-0.1-0.1-0.3c0.1 0 0.2-0.1 0.3-0.1 0 0.1 9.1 3 12.9 4.3 1.8 0.7 3.7 1.4 5.5 2.2 2 0.8 3.9 1.6 5.7 2.2 0.1 0 0.2 0.1 0.1 0.2 0 0.1-0.1 0.1-0.1 0.1q0 0 0 0zm-13-2.4c3.8 1.3 9.3 1.8 11.8 2q-2.2-0.8-4.7-1.8c-1.8-0.7-3.6-1.5-5.4-2.1-3.1-1.1-9.5-3.2-11.9-4 1.8 1.3 6.4 4.5 10.2 5.9z"/>
	<path id="Layer" fill-rule="evenodd" class="s1" d="m150.9 77.9c-6.7-0.4-12.1-2.6-12.1-2.7-0.1 0-0.2-0.1-0.1-0.2 0-0.1 0.1-0.1 0.2-0.1 2.3 0.6 5.3 0.4 8.5 0.2 1.5-0.1 3.1-0.3 4.6-0.3q0.1 0 0.3 0c4.6 0 10.6 2.1 10.7 2.1 0.1 0.1 0.1 0.2 0.1 0.2q-0.1 0.2-0.2 0.2c-2.2-0.3-3.5-0.1-5 0.2-1.2 0.2-2.7 0.4-4.9 0.4q-0.9 0-2.1 0zm10.5-1.1c-2-0.6-5.9-1.6-9.1-1.6q-0.2 0-0.3 0c-1.5 0-3 0.1-4.6 0.2-2.4 0.2-4.6 0.4-6.7 0.2 2.2 0.7 5.9 1.7 10.3 1.9 3.4 0.2 5.3-0.1 6.9-0.4 1-0.2 1.9-0.3 3.1-0.3q0.2 0 0.4 0z"/>
	<path id="Layer" fill-rule="evenodd" class="s1" d="m162.5 76.9c-0.1-0.1-3.3-2.8-8.4-3.3-3.2-0.3-6.4 0.4-6.4 0.4q-0.1 0-0.2-0.1c-4.4-1.5-5.3-4.1-5.3-4.2q-0.1-0.2 0.1-0.3c0.1-0.1 0.2-0.1 0.3-0.1 2.7 0.9 5 0.9 7.3 0.9 2.1 0 4.2 0 6.5 0.8 4.8 1.5 6.5 5.3 6.6 5.5 0.1 0.1 0 0.3-0.1 0.4q-0.1 0-0.2 0-0.1 0-0.2 0zm-12.6-6c-2.1 0-4.3 0-6.7-0.7 0.6 0.8 1.8 2.1 4.4 3.1 0.6-0.2 3.6-0.7 6.6-0.4 3.3 0.3 5.8 1.5 7.3 2.4-0.9-1.2-2.6-2.8-5.3-3.7-2.1-0.7-4-0.7-6.1-0.7q-0.1 0-0.2 0z"/>
	<path id="Layer" fill-rule="evenodd" class="s1" d="m126.9 149.9c0 0-0.1-0.1-0.1-0.2 0.6-3.3 1.8-5.5 2.7-7.3q0.2-0.3 0.4-0.7c1-1.9 1.8-5.1 1.8-5.1q0.1-0.1 0.2-0.1c0.1 0 0.2 0.1 0.2 0.1 0.1 3.2-1 6.7-2.1 8.8-0.6 1.1-1.1 1.8-1.5 2.3-0.5 0.6-0.9 1.2-1.4 2.1q0 0.1-0.1 0.1 0 0-0.1 0zm3.3-8q-0.1 0.3-0.4 0.7c-0.8 1.6-1.8 3.4-2.4 6 0.3-0.4 0.5-0.7 0.8-1.1 0.5-0.6 0.9-1.2 1.5-2.3 0.9-1.7 1.8-4.5 2-7.2-0.3 1.1-0.8 2.7-1.5 3.9z"/>
	<path id="Layer" fill-rule="evenodd" class="s1" d="m125.8 151.9q-0.2 0-0.3-0.3c-0.1-0.3-0.2-0.6-0.3-0.9-0.3-0.7-0.7-1.6-0.7-3.3-0.1-1.4 0.2-2.9 0.5-4.3q0.1-0.7 0.2-1.4c0.5-3.1 0.3-4.2 0.3-4.2-0.1-0.2 0-0.3 0.2-0.4 0.1-0.1 0.3 0 0.4 0.1 2.1 3.6 1.8 6.6 1.8 6.7q0 0 0 0.1c-0.3 1.3-0.3 2.6-0.5 3.7-0.1 0.8-0.2 1.5-0.3 2-0.3 1.1-0.7 1.7-0.7 1.8l-0.3 0.3q-0.1 0.1-0.3 0.1 0 0 0 0zm0.4-12.9c0 0.6-0.1 1.6-0.3 2.8q-0.1 0.7-0.2 1.5c-0.3 1.3-0.6 2.7-0.5 4.1 0 1.5 0.3 2.3 0.6 3q0.1 0.2 0.2 0.4c0.1-0.3 0.2-0.7 0.4-1.3 0.1-0.4 0.2-1.1 0.3-1.9 0.2-1.1 0.4-2.4 0.7-3.8 0-0.2 0-2.3-1.2-4.8z"/>
	<path id="Layer" fill-rule="evenodd" class="s1" d="m144.6 45q-0.1 0-0.2-0.1c-0.6-0.7-3.1-3.7-4.6-5.2-1.6-1.8-4.9-4.5-4.9-4.5q-0.1 0-0.1-0.1c-1.4-2.5-2.3-7.5-2.4-7.7 0-0.1 0.1-0.3 0.2-0.4 0.2 0 0.3 0 0.4 0.1 0.7 0.8 1.9 1.6 3.1 2.4 2 1.3 4.2 2.7 5.4 4.9 0.8 1.7 1.4 3.9 1.9 5.7 0.5 1.8 0.9 3.5 1.5 4.3q0.2 0.2 0.2 0.2c0.1 0.1 0.1 0.3-0.1 0.5q-0.1 0-0.2 0-0.1 0.1-0.2-0.1zm-9.2-10.3c0.4 0.4 3.3 2.8 4.9 4.5 0.9 0.9 2.1 2.3 3.1 3.4q-0.4-1.1-0.7-2.3c-0.5-1.8-1-3.9-1.9-5.6-1-2-3.2-3.4-5.1-4.6-0.9-0.6-1.7-1.2-2.4-1.7 0.4 1.6 1.1 4.6 2.1 6.3z"/>
	<path id="Layer" fill-rule="evenodd" class="s0" d="m144.5 45.1c-0.6-0.4-2.2-0.8-4-1.3-3-0.7-6.7-1.7-9.4-3.4-2.2-1.4-4.6-3.7-6.6-5.6-2.1-1.9-4-3.8-5.2-4.2-0.2 0-0.3-0.2-0.3-0.4 0.1-0.2 0.2-0.3 0.4-0.3 0.5 0.1 11.4 0.9 16.7 5.4 6.1 5.1 8.9 9.3 8.9 9.4 0.1 0.1 0.1 0.3-0.1 0.4q-0.1 0.1-0.2 0.1-0.1 0-0.2-0.1zm-19.6-10.8c2.1 1.9 4.4 4.1 6.6 5.5 2.6 1.7 6.2 2.6 9.1 3.3 1.2 0.3 2.2 0.6 3 0.9-1.2-1.6-3.8-4.7-8-8.2-3.9-3.3-11.3-4.6-14.6-5 1.1 0.8 2.5 2.1 3.9 3.5z"/>
	<path id="Layer" fill-rule="evenodd" class="s0" d="m144.2 44.5c-0.1 0-6.9-2.8-11.9-6-1.8-1.2-3.3-2.2-4.8-3.2-2.5-1.7-4.7-3.2-7.5-4.7 0 0-0.1-0.1 0-0.2 0-0.1 0.1-0.1 0.2-0.1 0.1 0 8.6 2.8 11.9 4.8 1.6 1 3.7 2.6 5.9 4.4 2.2 1.8 4.5 3.6 6.3 4.7 0.1 0 0.1 0.1 0.1 0.2q-0.1 0.1-0.2 0.1 0 0 0 0zm-16.5-9.4c1.5 0.9 3 1.9 4.7 3.1 3.5 2.2 7.8 4.2 10.2 5.2-1.5-1-3.2-2.3-4.8-3.6-2.2-1.8-4.3-3.5-5.9-4.4-2.3-1.4-7.5-3.3-10.2-4.2 2.1 1.2 4 2.5 6 3.9z"/>
	<path id="Layer" class="s1" d="m151 50.2q0 0 0.1-0.1c0.1 0 0.1-0.1 0-0.2-1.8-2.8-3.2-5.8-4.3-8.9 0-0.1-0.1-0.2-0.2-0.1-0.1 0-0.2 0.1-0.1 0.2 1.1 3.2 2.5 6.2 4.3 9q0.1 0.1 0.2 0.1z"/>
	<path id="Layer" class="s1" d="m154.6 54.6q0.1 0 0.2-0.1c0-0.1 0-0.2-0.1-0.2-3.2-2.3-6.7-4-10.5-5.1 0 0-0.1 0-0.2 0.1 0 0.1 0.1 0.2 0.1 0.2 3.8 1.1 7.3 2.8 10.4 5q0.1 0.1 0.1 0.1z"/>
	<path id="Layer" class="s1" d="m156.9 57.4q0 0 0 0c0.1 0 0.2-0.1 0.1-0.2-1.1-2.8-1.7-5.7-1.8-8.7q0-0.1-0.2-0.1c-0.1 0-0.2 0-0.2 0.1 0.2 3 0.8 6 1.9 8.8q0.1 0.1 0.2 0.1z"/>
	<path id="Layer" class="s1" d="m165.8 73.1c0.1 0 0.2 0 0.2-0.1 0-3.2 0.4-6.3 1.3-9.3 0-0.1-0.1-0.2-0.2-0.3-0.1 0-0.2 0.1-0.2 0.2-0.8 3-1.2 6.2-1.3 9.4 0 0.1 0.1 0.1 0.2 0.1q0 0 0 0z"/>
	<path id="Layer" class="s1" d="m165.2 72.2q0 0 0.1 0c0.1-0.1 0.1-0.2 0-0.3-2.3-2.1-4.8-3.8-7.6-5.2 0 0-0.1 0-0.2 0.1 0 0.1 0 0.2 0.1 0.2 2.7 1.4 5.2 3.1 7.5 5.2q0 0 0.1 0z"/>
	<path id="Layer" class="s1" d="m168.9 86.1c0.1 0 0.1 0 0.1-0.1 0-3.2 0.4-6.3 1.4-9.2 0-0.1 0-0.2-0.1-0.3-0.1 0-0.2 0.1-0.2 0.2-1 3-1.5 6.1-1.4 9.3 0 0.1 0.1 0.1 0.2 0.1z"/>
	<path id="Layer" class="s1" d="m169 98.1q0 0 0 0c0.1 0 0.2-0.1 0.2-0.2-0.3-3.2-1.3-6.3-2.9-9-0.1-0.1-0.2-0.1-0.3-0.1-0.1 0.1-0.1 0.2 0 0.3 1.6 2.6 2.5 5.7 2.8 8.8 0 0.1 0.1 0.2 0.2 0.2z"/>
	<path id="Layer" class="s1" d="m168.3 105.5q0.1 0 0.2-0.1c1.1-2.5 2.8-4.8 4.9-6.6 0.1 0 0.1-0.2 0-0.2 0-0.1-0.2-0.1-0.2 0-2.2 1.8-3.9 4.1-5 6.7-0.1 0.1 0 0.2 0.1 0.2q0 0 0 0z"/>
	<path id="Layer" class="s1" d="m167.4 110.3q0.1 0 0.1-0.1 0.9-1.5 2.2-2.5c0-0.1 0.1-0.2 0-0.3-0.1 0-0.2-0.1-0.2 0q-1.4 1.1-2.3 2.6c0 0.1 0 0.2 0.1 0.2q0 0.1 0.1 0.1z"/>
	<path id="Layer" class="s1" d="m163.7 120.2q0.1 0 0.1-0.1c0.6-4.4 0.4-8.7-0.5-13-0.1-0.1-0.1-0.2-0.2-0.2-0.1 0.1-0.2 0.1-0.2 0.2 1 4.3 1.2 8.6 0.6 12.9 0 0.1 0 0.2 0.1 0.2q0 0 0.1 0z"/>
	<path id="Layer" class="s1" d="m159.8 127.5q0.1 0 0.1-0.1c1-1.1 2.3-1.8 3.6-2.1 0.1 0 0.2-0.1 0.2-0.2 0-0.1-0.1-0.2-0.2-0.2-1.5 0.3-2.8 1.1-3.8 2.3-0.1 0-0.1 0.2 0 0.2q0 0.1 0.1 0.1z"/>
	<path id="Layer" class="s1" d="m156.9 131.3q0.1 0 0.2-0.2c0.8-4 1-7 0.5-9.9 0-0.1-0.1-0.2-0.2-0.2-0.1 0-0.2 0.1-0.2 0.2 0.5 2.9 0.4 5.9-0.5 9.9 0 0.1 0.1 0.2 0.2 0.2q0 0 0 0z"/>
	<path id="Layer" class="s1" d="m155 133.7q0 0 0 0c2.2-1.1 4.6-1.7 7-1.7 0.1 0 0.2-0.1 0.2-0.2 0-0.1-0.1-0.2-0.2-0.2q0 0 0 0c-2.4 0.1-4.9 0.7-7.1 1.8-0.1 0-0.1 0.1-0.1 0.2q0.1 0.1 0.2 0.1z"/>
	<path id="Layer" class="s1" d="m143.7 143.1q0.1 0 0.2-0.1c1.7-2.2 2.9-4.8 3.4-7.6 0.1-0.1 0-0.2-0.1-0.2q-0.2 0-0.2 0.2c-0.5 2.7-1.7 5.2-3.4 7.4-0.1 0.1 0 0.2 0 0.2q0.1 0.1 0.1 0.1z"/>
	<path id="Layer" class="s1" d="m149.4 144.5q0.2 0 0.2-0.1c0-0.1-0.1-0.2-0.2-0.2-2.7-0.5-5.6-0.5-8.3-0.2-0.1 0-0.2 0.1-0.2 0.2q0 0.2 0.2 0.2c2.8-0.4 5.5-0.3 8.3 0.1q0 0 0 0z"/>
	<path id="Layer" class="s1" d="m130.5 149.9q0.1 0 0.1 0c1.9-1.6 3.4-3.6 4.5-5.7 0.1-0.1 0-0.2-0.1-0.3-0.1 0-0.2 0-0.2 0.1-1.1 2.2-2.6 4.1-4.4 5.6-0.1 0.1-0.1 0.2 0 0.3q0 0 0.1 0z"/>
	<path id="Layer" class="s1" d="m132.4 152.4q0.1 0 0.2-0.1 0-0.1 0-0.2c0 0-0.5-0.2-0.5-0.2-1.8-0.6-3.7-0.8-5.6-0.6-0.1 0-0.2 0.1-0.2 0.2 0 0.1 0.1 0.1 0.2 0.1 2-0.2 4 0.1 5.9 0.8q0 0 0 0z"/>
	<path id="Layer" class="s0" d="m146.4 41.1c-0.7 0-1.2-0.6-1.2-1.2 0-0.7 0.5-1.2 1.2-1.2 0.6 0 1.2 0.5 1.2 1.2 0 0.6-0.6 1.2-1.2 1.2z"/>
	<path id="Layer" class="s0" d="m167.5 63.7c-0.7 0-1.2-0.5-1.2-1.2 0-0.7 0.5-1.2 1.2-1.2 0.7 0 1.2 0.5 1.2 1.2 0 0.7-0.5 1.2-1.2 1.2z"/>
	<path id="Layer" class="s1" d="m163.3 132.9c-0.7 0-1.2-0.5-1.2-1.2 0-0.6 0.5-1.2 1.2-1.2 0.6 0 1.2 0.6 1.2 1.2 0 0.7-0.6 1.2-1.2 1.2z"/>
	<path id="Layer" class="s0" d="m164.6 88.2c0 0.5 0.5 0.9 1 0.9 0.5 0 0.9-0.4 0.9-0.9 0-0.6-0.4-1-0.9-1-0.5 0-1 0.4-1 1z"/>
	<path id="Layer" class="s1" d="m170.3 108.1c-0.5 0-0.9-0.4-0.9-1 0-0.5 0.4-0.9 0.9-0.9 0.5 0 1 0.4 1 0.9 0 0.6-0.5 1-1 1z"/>
	<path id="Layer" class="s0" d="m156.3 120.3c0 0.5 0.4 0.9 0.9 0.9 0.5 0 1-0.4 1-0.9 0-0.5-0.5-0.9-1-0.9-0.5 0-0.9 0.4-0.9 0.9z"/>
	<path id="Layer" class="s0" d="m150.3 145.4c-0.5 0-0.9-0.4-0.9-0.9 0-0.5 0.4-0.9 0.9-0.9 0.5 0 0.9 0.4 0.9 0.9 0 0.5-0.4 0.9-0.9 0.9z"/>
	<path id="Layer" class="s0" d="m135.4 144.2c-0.5 0-1-0.4-1-1 0-0.5 0.5-0.9 1-0.9 0.5 0 0.9 0.4 0.9 0.9 0 0.6-0.4 1-0.9 1z"/>
	<path id="Layer" class="s0" d="m142.9 50.4c-0.7 0-1.2-0.6-1.2-1.2 0-0.7 0.5-1.2 1.2-1.2 0.6 0 1.2 0.5 1.2 1.2 0 0.6-0.6 1.2-1.2 1.2z"/>
	<path id="Layer" class="s1" d="m154.9 48.6c-0.6 0-1.2-0.5-1.2-1.2 0-0.6 0.6-1.2 1.2-1.2 0.7 0 1.2 0.6 1.2 1.2 0 0.7-0.5 1.2-1.2 1.2z"/>
	<path id="Layer" class="s0" d="m156.5 67.6c-0.7 0-1.3-0.6-1.3-1.3 0-0.7 0.6-1.3 1.3-1.3 0.7 0 1.3 0.6 1.3 1.3 0 0.7-0.6 1.3-1.3 1.3z"/>
	<path id="Layer" class="s0" d="m174.3 99.2c-0.8 0-1.3-0.6-1.3-1.4 0-0.7 0.5-1.3 1.3-1.3 0.7 0 1.3 0.6 1.3 1.3 0 0.8-0.6 1.4-1.3 1.4z"/>
	<path id="Layer" class="s1" d="m170.6 76.8c-0.5 0-1-0.4-1-1 0-0.5 0.5-1 1-1 0.6 0 1 0.5 1 1 0 0.6-0.4 1-1 1z"/>
	<path id="Layer" class="s1" d="m161.9 106.1c0 0.6 0.4 1 1 1 0.5 0 1-0.4 1-1 0-0.5-0.5-1-1-1-0.6 0-1 0.5-1 1z"/>
	<path id="Layer" class="s0" d="m164.5 125.9c-0.6 0-1-0.5-1-1 0-0.6 0.4-1 1-1 0.5 0 1 0.4 1 1 0 0.5-0.5 1-1 1z"/>
	<path id="Layer" class="s1" d="m133.4 153.5c-0.5 0-1-0.4-1-1 0-0.5 0.5-1 1-1 0.6 0 1 0.5 1 1 0 0.6-0.4 1-1 1z"/>
	<path id="Layer" class="s1" d="m146.3 134.4c0 0.6 0.4 1 1 1 0.6 0 1-0.4 1-1 0-0.6-0.4-1-1-1-0.6 0-1 0.4-1 1z"/>
	<path id="Layer" fill-rule="evenodd" class="s1" d="m163.2 67.9c-1.9-2.9-5.8-6-8.8-6q-0.1 0-0.2 0c-0.7 0-1.5 0.1-2.4 0.2-3.1 0.4-6.9 0.8-10.7-0.9-2.6-1.1-4-2.8-5.6-4.5-1.3-1.5-2.7-3-4.8-4.3-0.1-0.1-0.2-0.3-0.1-0.4 0.1-0.2 0.3-0.2 0.4-0.2 0.1 0 3.1 1.1 7.8 1.6h0.5c4.5 0.5 7.4 0.8 14 5.3 6.7 4.6 8.8 6 8.9 6.1q0 0 0.1 0.1l1.5 2.6c0.1 0.2 0 0.4-0.1 0.5q-0.1 0-0.2 0-0.2 0-0.3-0.1zm-7.2-6.5q-1.3-0.9-3.1-2.1c-6.4-4.4-9.1-4.7-13.7-5.2h-0.5c-2.5-0.3-4.5-0.7-5.9-1 1.3 1 2.3 2.1 3.2 3.1 1.5 1.7 3 3.3 5.4 4.4 3.6 1.6 7.3 1.2 10.4 0.8 0.8-0.1 1.7-0.1 2.4-0.2q0.1 0 0.2 0 0.8 0 1.6 0.2z"/>
	<path id="Layer" fill-rule="evenodd" class="s0" d="m163.5 68.3l-0.6-1q-0.1-0.1 0-0.2c0 0 0.2-1.7 0.2-3.6-0.1-2-0.4-3.7-0.4-3.7q-0.1-0.1 0-0.2c0 0 2-3.8 2.6-7.1 0.5-3.3 0.5-5.7 0.5-5.7q0-0.1 0.1-0.2c0.1-0.3 3.6-7 8.8-9.4 0.2-0.1 0.4-0.1 0.5 0 0.1 0.2 0.1 0.3 0 0.5-1.7 2.5-2.4 3.8-3 6.5-0.2 0.7-0.3 1.6-0.4 2.7-0.3 3-0.6 7-2.7 9.9l-0.5 0.6c-2.5 3.5-4.9 6.7-4.5 10.7 0.1 0.1 0 0.3-0.2 0.3q-0.1 0.1-0.1 0.1-0.2-0.1-0.3-0.2zm3-21.5c0 0.5 0 2.7-0.6 5.8-0.5 3.2-2.2 6.5-2.5 7.2 0 0.4 0.3 1.9 0.4 3.6q0 0.5 0 0.9c0.7-2.5 2.5-4.9 4.3-7.3l0.4-0.6c2-2.7 2.4-6.7 2.6-9.6 0.2-1.1 0.2-2.1 0.4-2.8 0.5-2.3 1.1-3.6 2.3-5.6-4.1 2.6-6.9 7.8-7.3 8.4z"/>
	<path id="Layer" fill-rule="evenodd" class="s0" d="m163 60.1c-0.2 0-0.3-0.1-0.3-0.2-0.3-0.7-0.7-1.4-1.2-2.2-1.1-1.6-2.4-3.7-3-7.3-0.5-3.7 0.2-8.8 0.8-12.5l0.2-1.3c0.6-3.8 1.5-7.2 1.6-7.2 0-0.2 0.1-0.3 0.3-0.3q0 0 0 0c0.2 0 0.3 0.2 0.3 0.3 0 0.1 1.2 4.8 1.8 7q0.4 1.2 1 2.6c0.9 2.5 1.9 5.4 2 7.9 0 3.1-0.3 7.4-3.2 13q-0.1 0.2-0.3 0.2 0 0 0 0zm-2.8-23.4l-0.2 1.3c-0.6 3.7-1.3 8.7-0.8 12.3 0.5 3.5 1.8 5.4 2.8 7 0.4 0.6 0.8 1.1 1 1.6 2.6-5.1 2.8-9.1 2.8-12-0.1-2.4-1.1-5.2-2-7.6q-0.5-1.5-0.9-2.7c-0.5-1.5-1.1-4.1-1.5-5.7-0.3 1.3-0.8 3.5-1.2 5.8z"/>
	<path id="Layer" fill-rule="evenodd" class="s0" d="m163.1 59.3c-2.7-3.8-2.6-11.1-2.5-15.9q0-0.9 0-1.6c0-3.4 0.7-11.3 0.7-11.4 0-0.1 0.1-0.1 0.2-0.1q0 0 0 0c0.1 0 0.1 0 0.1 0.1 0 1.4 0.5 3.8 1 6.7 0.6 3.1 1.3 6.7 1.5 9.8 0.3 4.5-0.1 7.3-0.4 10.1-0.1 0.7-0.2 1.4-0.3 2.2q0 0.1-0.1 0.1-0.1 0-0.1 0-0.1 0-0.1 0zm-2.2-17.5q0 0.7 0 1.6c0 4.6-0.1 11.5 2.2 15.3q0.1-0.9 0.2-1.8c0.4-2.7 0.7-5.5 0.5-10-0.2-3-0.9-6.6-1.5-9.8-0.4-1.7-0.7-3.3-0.8-4.6-0.3 2.6-0.6 7-0.6 9.3z"/>
	<path id="Layer" fill-rule="evenodd" class="s1" d="m167.8 82.2c-1.1-2.2-3.7-4.6-5.7-4.5-0.8 0-1.8 0.4-3 0.8-2.2 0.9-5.3 2.1-9.1 1.8-3.7-0.3-6.1-1.8-8.1-3.1-1.3-0.8-2.5-1.5-3.9-1.9-0.2-0.1-0.3-0.3-0.2-0.4 0-0.2 0.1-0.3 0.3-0.3q0 0 0 0c0 0 2.8 0.1 6-0.5 0.8-0.2 1.5-0.4 2.2-0.5 2.2-0.6 4-1 8.1-0.7 4 0.3 6.1 1.8 7.4 2.7 0.4 0.3 0.8 0.5 1 0.7 1.3 0.6 4.3 2.6 5.3 4.1q0.1 0.1 0.1 0.1l0.3 1.5c0 0.1-0.1 0.3-0.2 0.4q-0.1 0-0.2 0-0.2 0-0.3-0.2zm-5-5.2q-0.1 0-0.2-0.1c-0.4-0.1-0.8-0.4-1.2-0.7-1.3-0.9-3.2-2.3-7.1-2.6-3.9-0.3-5.7 0.1-7.8 0.7-0.7 0.1-1.4 0.3-2.2 0.5-1.8 0.3-3.3 0.4-4.4 0.5 0.8 0.4 1.5 0.8 2.3 1.3 2.1 1.4 4.3 2.7 7.8 3 3.7 0.3 6.7-0.9 8.9-1.7 1.3-0.5 2.3-0.9 3.1-0.9q0.1 0 0.1 0 0.4 0 0.7 0z"/>
	<path id="Layer" fill-rule="evenodd" class="s1" d="m169.4 95.6c-0.2-0.1-0.3-0.3-0.2-0.5q0.1-0.2 0.2-0.5c0.5-1.3 1.9-4.8 2-7.6v-0.3c0.2-2.7 0.5-7.2 3.1-11.2 1.2-1.9 3.4-3.8 5.4-5.5 2.2-1.9 4.3-3.7 5.1-5.4 0.1-0.2 0.3-0.2 0.5-0.2 0.1 0.1 0.2 0.3 0.2 0.5-0.5 1.5-0.8 3.3-1.2 5.3-0.8 4.1-1.7 8.8-3.7 12-1.3 2.1-2.9 3.5-4.6 5.1-2.3 2-4.6 4-6.1 7.5q-0.2 0.5-0.3 0.6c0 0.1-0.1 0.2-0.3 0.2q0 0-0.1 0zm11-25.1c-2 1.7-4.1 3.5-5.4 5.4-2.5 3.8-2.7 8.2-2.9 10.9v0.2c-0.1 1.4-0.4 3-0.8 4.3 1.3-1.8 2.9-3.2 4.4-4.5 1.7-1.6 3.3-3 4.5-4.9 1.9-3.2 2.8-7.8 3.6-11.8q0.3-1.8 0.7-3.5c-1.1 1.3-2.6 2.6-4.1 3.9z"/>
	<path id="Layer" fill-rule="evenodd" class="s1" d="m170.4 93.4c-0.1-0.1-0.2-0.3-0.1-0.4 0.1-0.1 1.4-2.6 4.1-5l0.9-0.8c2.1-2 3.4-3.2 4.3-4.5 1.3-1.9 2.2-4.4 2.2-4.4q0-0.1 0.1-0.1c0.1-0.1 1.9-2 4.4-3.4 0.2-0.1 0.3-0.1 0.5 0 0.1 0.2 0.1 0.3 0 0.5 0 0-1.4 2-2.7 5.5-1.5 4.2-3.6 7-6.2 8.2-3.7 1.8-6.1 3.3-7 4.4q-0.1 0.1-0.3 0.1-0.1 0-0.2-0.1zm12.1-14.8c-0.2 0.4-1.1 2.7-2.3 4.5-1 1.4-2.3 2.6-4.5 4.6l-0.8 0.8c-1.1 1-2 2-2.6 2.8 1.6-1 3.6-2.1 5.3-2.9 3-1.4 4.9-5 5.9-7.9 0.7-1.9 1.4-3.4 2-4.4-1.6 1.1-2.8 2.3-3 2.5z"/>
	<path id="Layer" fill-rule="evenodd" class="s0" d="m167.6 106.4c0-0.1-0.4-6.4-2.9-8-1.2-0.7-2.2-1.1-3.5-1.5-1-0.3-2-0.6-3.3-1.2-2.7-1.1-3.7-3.3-4.7-5.7q-0.3-0.6-0.6-1.3c-1.3-2.6-3.2-4.5-3.2-4.5-0.1-0.1-0.2-0.3 0-0.4 0.1-0.2 0.2-0.2 0.4-0.1 1.2 0.6 2.7 1 4.3 1.4 2.2 0.6 4.5 1.1 6.5 2.6 2.4 1.8 3.3 4.7 4.1 7 0.3 1.1 0.6 2 0.9 2.6l0.2 0.3c1.2 2.2 2.7 4.9 2.5 8.8 0 0.2-0.2 0.3-0.4 0.3-0.2 0-0.3-0.1-0.3-0.3zm-14.4-18q0.3 0.7 0.6 1.4c1 2.2 1.9 4.2 4.4 5.3 1.2 0.5 2.3 0.8 3.2 1.1 1.3 0.5 2.4 0.8 3.7 1.6q0 0 0 0.1l-0.1-0.3c-0.4-0.7-0.7-1.6-1-2.7-0.7-2.2-1.6-5-3.8-6.6-1.9-1.4-4.1-2-6.3-2.5-1-0.3-2-0.5-2.9-0.9 0.7 0.9 1.5 2.1 2.2 3.5z"/>
	<path id="Layer" fill-rule="evenodd" class="s0" d="m163.7 120.6c-0.1-0.1-0.1-0.3 0-0.5 0 0 0.8-0.9 2.8-4.3 0.5-0.8 0.9-1.6 1.3-2.3 1.3-2.5 2.5-4.7 6-6.8 2.1-1.2 4.1-2.1 6.1-2.9 2.2-1 4.3-1.8 6.3-3.2 0.2-0.1 0.4 0 0.5 0.1 0.1 0.1 0.1 0.3 0 0.4-1.3 1.7-2.4 3.9-3.5 6.2-2.1 4.1-4.2 8.4-8.1 10-2.9 1.2-5.2 1.6-7 2-1.7 0.4-3 0.6-4 1.3q-0.1 0.1-0.2 0.1-0.1 0-0.2-0.1zm16.5-16.2c-2 0.8-4 1.7-6.1 2.9-3.3 2-4.4 4.1-5.7 6.5-0.4 0.7-0.8 1.5-1.3 2.3-0.9 1.5-1.6 2.6-2 3.3 0.8-0.3 1.7-0.5 2.9-0.8 1.7-0.4 4-0.8 6.8-2 3.6-1.4 5.7-5.6 7.7-9.7 0.9-1.7 1.7-3.4 2.7-4.8-1.7 0.9-3.3 1.6-5 2.3z"/>
	<path id="Layer" fill-rule="evenodd" class="s1" d="m160.6 125.9c-0.1 0-0.2-0.2-0.2-0.4 0.3-1.6 0.6-3.3 0.8-4.9-0.1-0.8-0.2-1.6-0.4-2.3-0.5-1.3-1.7-1.8-4.4-2.9-1.4-0.6-3.1-1.3-5.2-2.3-6.5-3.2-6.3-11.8-6.3-11.9 0-0.2 0.1-0.3 0.2-0.3 0.2-0.1 0.3 0 0.4 0.1 1.8 2.8 4.2 3.9 6.7 5 2.1 0.9 4.3 1.9 6.3 4 3 3.1 3.6 6.8 3.4 10.5 0 2.5-0.8 5.1-0.8 5.2-0.1 0.1-0.2 0.2-0.4 0.2q0 0-0.1 0zm-9.1-13.5c2.1 1 3.8 1.8 5.1 2.3 2.5 1 3.8 1.6 4.5 2.8-0.2-2.5-1.1-4.9-3.1-7-1.9-2-4.1-3-6.1-3.9-2.3-1-4.5-2-6.3-4.2 0.2 2.3 1.2 7.7 5.9 10z"/>
	<path id="Layer" fill-rule="evenodd" class="s0" d="m151 136.9c-0.1-0.2-0.1-0.3 0-0.4 0-0.1 1.4-2.1 1.1-3.9-0.2-0.8-0.7-1.4-1.3-2.2-0.8-1.1-1.9-2.4-2.2-4.6-0.1-1.2 0-2.9 0.2-4.7 0.2-2 0.4-4 0.1-5.3 0-0.2 0.1-0.3 0.2-0.4 0.1-0.1 0.3-0.1 0.4 0 1 1 1.2 2.2 1.4 3.3 0.2 0.7 0.3 1.4 0.6 2q0.2 0.5 0.6 1.2c1.1 1.7 2.7 4.2 2.2 8.8-0.6 5.6-2.9 6.3-2.9 6.3q-0.1 0-0.1 0-0.2 0-0.3-0.1zm-1.5-15.7c-0.2 1.7-0.3 3.4-0.2 4.5 0.3 2 1.2 3.2 2.1 4.3 0.6 0.8 1.2 1.5 1.4 2.5 0.1 0.7 0 1.4-0.2 2 0.4-0.8 0.8-2.1 1-3.9 0.5-4.3-1-6.7-2.1-8.4q-0.4-0.6-0.7-1.2c-0.3-0.7-0.4-1.4-0.6-2.2-0.1-0.6-0.2-1.3-0.5-1.8 0.1 1.2-0.1 2.7-0.2 4.2z"/>
	<path id="Layer" fill-rule="evenodd" class="s1" d="m160.3 143.9c-2.7-0.2-4-1-5.2-1.8-0.7-0.4-1.4-0.8-2.3-1.1-2.5-0.9-5-0.4-5-0.4-0.2 0.1-0.4 0-0.4-0.1-0.1-0.2-0.1-0.3 0-0.4 0.2-0.2 3.7-3.5 8.8-3.2 3.2 0.2 5.2 1.5 7 2.7 1.2 0.8 2.3 1.5 3.6 1.8 3.3 0.9 4.7 1.6 4.7 1.6 0.2 0.1 0.2 0.3 0.2 0.4-0.1 0.2-0.3 0.3-0.4 0.2-2.2-0.5-4.1-0.3-6.1 0-1.2 0.2-2.4 0.4-3.8 0.4q-0.5 0-1.1-0.1zm6.3-1.8c-1.3-0.3-2.5-1.1-3.8-1.9-1.8-1.2-3.7-2.4-6.6-2.6-3.4-0.2-6 1.2-7.3 2.2 1-0.1 2.5 0 4.1 0.5 1 0.4 1.8 0.8 2.5 1.3 1.2 0.7 2.3 1.4 4.8 1.6 1.8 0.2 3.3-0.1 4.8-0.3 1.1-0.1 2.2-0.3 3.4-0.3q-0.8-0.2-1.9-0.5z"/>
	<path id="Layer" fill-rule="evenodd" class="s1" d="m139.6 145.6c-0.1 0-0.3-0.2-0.2-0.4q0 0 0-0.1c0.1-0.3 0.4-1.5 0.3-2.2-0.3-1.3-0.3-1.4-0.6-2.5l-0.2-0.9c-0.5-2-0.2-5.2 0.7-7.7 0.8-2.4 0.8-4.9 0.8-5 0-0.1 0.2-0.3 0.4-0.3 0.1 0 0.3 0.2 0.3 0.3 0.1 1.4 0.5 2.6 0.9 3.9 0.5 1.6 1 3.2 1.1 5.3 0 3.2-1.1 5.4-2.1 7.2-0.4 0.8-0.7 1.5-0.9 2.1q0 0.1 0 0.1c-0.1 0.2-0.2 0.3-0.4 0.3q0 0-0.1-0.1zm0.6-13.6c-0.8 2.4-1.1 5.4-0.6 7.3l0.2 0.9c0.3 1.1 0.3 1.3 0.5 2.6q0.1 0.1 0.1 0.2 0-0.1 0-0.1c0.9-1.7 2-3.8 2-6.9 0-2-0.6-3.6-1.1-5.1q-0.2-0.8-0.4-1.5c-0.2 0.8-0.4 1.7-0.7 2.6z"/>
	<path id="Layer" fill-rule="evenodd" class="s0" d="m150.6 153.5c-0.8-0.2-1.9-0.2-3-0.2-1.8-0.1-3.8-0.1-5.7-1-1.9-0.9-2.7-1.7-3.3-2.4-0.4-0.4-0.7-0.7-1.2-1-1.4-0.8-2.4-0.7-2.4-0.7q-0.1 0-0.1 0c-0.1 0-0.3-0.1-0.3-0.3 0-0.2 0-0.3 0.2-0.4 0 0 1.3-0.7 4-0.9 3-0.2 5.4 0.4 6.5 1 1.4 0.8 2.2 1.7 3.2 2.9l0.1 0.1c1.2 1.5 2.3 2.3 2.3 2.3 0.1 0.1 0.2 0.3 0.1 0.5q-0.1 0.1-0.3 0.2-0.1 0-0.1-0.1zm-11.7-6.2c-1.1 0.1-1.9 0.2-2.5 0.4q0.6 0.2 1.3 0.6c0.6 0.3 1 0.7 1.4 1.2 0.6 0.6 1.3 1.4 3.1 2.2 1.7 0.8 3.7 0.9 5.5 0.9q0.9 0 1.8 0.1-0.6-0.6-1.4-1.6l-0.1-0.1c-1-1.2-1.7-2.1-3-2.8-0.9-0.4-2.7-1-5-1q-0.5 0-1.1 0.1z"/>
	<path id="Layer" fill-rule="evenodd" class="s1" d="m125.7 151.9c-0.2-0.1-0.2-0.3-0.2-0.5q0.2-0.2 0.3-0.4c0.2-0.3 0.4-0.8 0.6-1.5 0.2-0.7 0.3-2.1 0.5-3.1v-0.5c0.4-3 1.3-4.2 2.2-5.4q0.4-0.4 0.7-0.9c1.2-1.7 1.9-4.1 1.9-4.1q0-0.3 0.3-0.3c0.2 0 0.3 0.2 0.3 0.3 0.4 3.6 0.6 7.2-0.9 10.2-0.8 1.7-2.1 2.8-3.2 3.8-0.7 0.6-1.4 1.2-1.8 1.9q-0.2 0.3-0.3 0.4-0.1 0.1-0.3 0.1-0.1 0-0.1 0zm4.7-11.9q-0.4 0.5-0.7 0.9c-0.9 1.2-1.7 2.3-2.1 5.1v0.4c-0.2 1-0.3 2.4-0.5 3.2q0.3-0.3 0.7-0.6c1.1-1 2.2-2 3-3.6 1.1-2.4 1.2-5.3 1-8.2-0.3 0.9-0.8 1.9-1.4 2.8z"/>
	<path id="Layer" fill-rule="evenodd" class="s1" d="m113 155.5q-0.1-0.1-0.1-0.3c0 0-0.5-2.2 0.5-5 0.5-1.2 1.4-2.3 2.3-3.3 0.9-1.2 2-2.4 2.4-4 0-0.1 0.2-0.3 0.4-0.2 0.1 0 0.3 0.2 0.2 0.4-0.1 1-0.1 1.9-0.2 2.8 0 1.7-0.1 3.2-0.7 5.2-1 3.3-4.3 4.4-4.5 4.4q0 0-0.1 0-0.1 0-0.2 0zm3.2-8.2c-0.9 1.1-1.7 2-2.1 3.2-0.7 1.9-0.7 3.5-0.6 4.2 0.9-0.4 2.9-1.5 3.6-3.8 0.6-1.9 0.7-3.4 0.7-5q0.1-0.4 0.1-0.8c-0.5 0.8-1.1 1.5-1.7 2.2z"/>
	<path id="Layer" fill-rule="evenodd" class="s1" d="m132.2 159.6c-0.2 0-5 0-8-2.1-3-2.1-3.9-4-4-4.1 0-0.1 0-0.3 0.1-0.4q0.1-0.2 0.3-0.1c0.8 0.2 1.5 0.2 2.2 0.2 1.1 0 2.2 0 4.2 0.9 1.9 0.9 2.8 2 3.7 3.2 0.5 0.6 1 1.3 1.7 1.8 0.1 0.1 0.1 0.3 0.1 0.4-0.1 0.2-0.2 0.3-0.3 0.3q0 0 0-0.1zm-9.4-5.8c-0.5 0-1 0-1.5-0.1 0.5 0.7 1.5 1.9 3.3 3.2 2 1.4 5.1 1.9 6.6 2q-0.6-0.6-1.1-1.3c-0.8-1.1-1.7-2.2-3.4-3-1.6-0.8-2.6-0.8-3.6-0.8q-0.2 0-0.3 0z"/>
	<path id="Layer" class="s0" d="m144.3 44.9c0 0 0.5 0.4 1.5 1.2 0.9 0.9 2.4 2.1 4 3.7 3.4 3.3 8 8.3 11.8 15.4 2 3.5 3.7 7.5 4.9 12 1.4 4.4 1.9 9.3 2.2 14.3 0 5-0.3 10.2-1.4 15.4l-0.8 3.9c-0.3 1.3-0.8 2.5-1.2 3.8-0.7 2.5-2 4.9-3.1 7.3-2.5 4.7-5.6 9.2-9.4 12.9-3.7 3.7-7.9 6.8-12.2 9.4-8.7 5.1-17.8 8-25.6 10-3.9 0.9-7.6 1.7-10.7 2.6-3.2 0.9-6 1.8-8.2 2.7-2.2 0.8-3.9 1.7-5.1 2.3-1.1 0.6-1.6 1.1-1.7 1.1-0.2 0.2-0.2 0.6 0 0.8 0.2 0.2 0.5 0.2 0.7 0 0 0 0.5-0.4 1.6-1 1-0.6 2.7-1.4 4.9-2.2 2.2-0.9 4.9-1.8 8-2.7 3.2-0.8 6.8-1.7 10.8-2.6 7.8-2 17-4.9 25.8-10.1 4.4-2.6 8.7-5.8 12.5-9.6 3.8-3.7 7-8.3 9.6-13 1.1-2.5 2.4-5 3.1-7.6 0.4-1.3 0.9-2.6 1.3-3.9l0.8-3.9c1.1-5.3 1.4-10.6 1.4-15.7-0.4-5.1-0.9-10-2.3-14.5-1.3-4.5-3.1-8.6-5.1-12.2-3.9-7.1-8.6-12.2-12-15.5-1.7-1.6-3.1-2.8-4.1-3.7-1-0.8-1.5-1.2-1.5-1.2-0.2-0.1-0.4-0.1-0.5 0-0.2 0.2-0.1 0.4 0 0.6z"/>
	<path id="Layer" class="s0" d="m111 128.4l2.6 0.1-2.1 1.6 0.7 2.5-2.1-1.5-2.3 1.5 0.8-2.6-2.1-1.6h2.7l0.9-2.5z"/>
	<path id="Layer" class="s1" d="m122.1 126.7h2.2l-1.8 1.3 0.6 2.2-1.8-1.3-1.8 1.2 0.6-2.1-1.7-1.3h2.2l0.7-2.1z"/>
	<path id="Layer" class="s0" d="m131.3 122.1l1.9 0.1-1.6 1.2 0.6 1.9-1.6-1.2-1.6 1.1 0.5-1.9-1.5-1.2h2l0.6-1.9z"/>
	<path id="Layer" class="s1" d="m138.2 115.1l2 0.1-1.6 1.2 0.6 1.9-1.6-1.2-1.7 1.2 0.6-1.9-1.5-1.2 1.9-0.1 0.7-1.8z"/>
	<path id="Layer" class="s1" d="m98.4 126.7h-2.2l1.8 1.3-0.6 2.2 1.8-1.3 1.8 1.2-0.7-2.1 1.8-1.3h-2.2l-0.8-2.1z"/>
	<path id="Layer" class="s0" d="m89.2 122.1l-1.9 0.1 1.5 1.2-0.5 1.9 1.6-1.2 1.6 1.1-0.6-1.9 1.6-1.2h-2l-0.6-1.9z"/>
	<path id="Layer" class="s1" d="m82.3 115.1l-2 0.1 1.6 1.2-0.6 1.9 1.6-1.2 1.7 1.2-0.6-1.9 1.5-1.2-1.9-0.1-0.7-1.8z"/>
	<path id="Layer" class="s1" d="m113.1 84.6c0-5.4-0.1-10.6 0-15.9 0.1-3.3 3.6-5.8 6.9-5.3q0.9 0.1 1.7 0.1c1.7-0.1 3 0.8 3.4 2.3 0.3 1.5-0.4 3-1.9 3.6-1.4 0.6-3 0-3.9-1.4q-0.1-0.3-0.2-0.5c-1.3 0.1-2 0.8-2 1.9q0 5.4 0.1 10.7c0 0.1 0 0.2 0.1 0.5q3.5 0 7.1 0c1.2 0 2.5 0.1 3.7 0 0.6-0.1 1.3-0.4 1.8-0.8 0.5-0.5 0.6-1-0.3-1.5-1.4-0.8-1.9-2.4-1.3-3.8 0.6-1.5 2.1-2.2 3.7-1.8 1.4 0.3 2.3 1.6 2.2 3.3 0 1.2 0.2 2.5 0 3.7-0.4 2.6-2.5 4.8-5.1 4.9-5.3 0.1-10.6 0-16 0z"/>
	<path id="Layer" class="s0" d="m90.2 78.7c0.2 1.1 0.8 1.9 1.8 1.9 3.8 0 7.5 0 11.4 0 0-1.4 0-2.6 0-3.9q0-3.5 0-7c0-1.4-0.5-2-1.9-2.2-1.2 1.9-2.6 2.5-4.2 1.9-1.2-0.5-2-1.7-1.9-3 0-1.4 1-2.7 2.3-2.8 1.6-0.2 3.3-0.3 4.9-0.1 2.7 0.4 4.8 2.8 4.8 5.5 0.1 5 0 10.1 0 15.1 0 0.2 0 0.3-0.1 0.5-0.3 0-0.6 0.1-0.9 0.1q-7 0-14.1 0c-4-0.1-6.7-3.4-6-7.4 0-0.4 0-0.8 0-1.2-0.1-1.8 0.8-3.1 2.3-3.5 1.5-0.3 3 0.5 3.6 1.8 0.6 1.5 0.1 3.1-1.5 4q-0.2 0.2-0.5 0.3z"/>
	<path id="Layer" class="s1" d="m101.5 107.5c1.2-0.2 1.9-0.8 1.9-1.9 0.1-3.7 0-7.4 0-11.2-0.4 0-0.8-0.1-1.1-0.1q-4.9 0-9.9 0c-1.3 0-1.8 0.5-2.2 1.9 0.3 0.2 0.7 0.3 0.9 0.6 1.3 0.9 1.7 2.4 1 3.8-0.6 1.3-2 2-3.5 1.7-1.4-0.4-2.3-1.6-2.3-3.1q0-1.1-0.1-2.1c-0.4-3.4 2.1-6.7 5.4-6.8 5.2-0.1 10.4 0 15.8 0 0 0.4 0.1 0.8 0.1 1.2q0 6.7 0 13.4c0 4.5-3.1 7.2-7.6 6.5-0.3-0.1-0.7 0-1.1 0-1.7 0.1-3-0.8-3.4-2.4-0.3-1.5 0.5-3 1.9-3.5 1.5-0.6 3 0 3.9 1.4 0.1 0.2 0.2 0.4 0.3 0.6z"/>
	<path id="Layer" class="s0" d="m113.1 90.3c2.9 0 5.7 0 8.6 0q3.2-0.1 6.5 0c3.9 0 6.7 3.2 6.1 7.1q-0.1 0.7-0.1 1.5c0.1 1.7-0.8 3-2.4 3.4-1.4 0.3-2.9-0.5-3.5-1.9-0.6-1.4 0-3 1.4-3.9q0.3-0.1 0.6-0.3c-0.1-1.2-0.7-1.9-1.9-1.9-3.6 0-7.3 0-10.9 0-0.1 0-0.2 0.1-0.4 0.2 0 2.2 0 4.4 0 6.7 0 1.4-0.1 2.7 0 4.1 0.1 0.6 0.3 1.2 0.7 1.7 0.5 0.6 1.1 0.8 1.6-0.2 0.8-1.4 2.4-1.9 3.9-1.3 1.3 0.6 2.1 2.1 1.8 3.5-0.3 1.5-1.7 2.5-3.3 2.4q-0.9 0-1.7 0.1c-3.6 0.5-7-2.1-7-5.6-0.1-5.2 0-10.3 0-15.6z"/>
	<path id="Layer" class="s0" d="m31.2 178.5l0.7 8.3h-0.7q-1-3.1-2.7-4.7-2.4-2.3-6.1-2.3-5 0-7.7 4-2.2 3.4-2.2 8.1 0 3.8 1.5 6.9 1.4 3.2 3.8 4.6 2.4 1.5 4.9 1.5 1.5 0 2.8-0.4 1.4-0.4 2.7-1.1v-7.7q0-1.9-0.3-2.6-0.3-0.6-1-0.9-0.6-0.3-2.2-0.3v-0.8h10.3v0.8h-0.5q-1.5 0-2.1 1-0.4 0.7-0.4 2.8v8.2q-2.2 1.2-4.4 1.8-2.2 0.5-4.9 0.5-7.7 0-11.7-4.9-3-3.7-3-8.5 0-3.5 1.7-6.8 2-3.8 5.5-5.8 2.9-1.7 6.9-1.7 1.4 0 2.6 0.2 1.2 0.2 3.3 1 1.1 0.4 1.5 0.4 0.4 0 0.7-0.3 0.2-0.3 0.3-1.3c0 0 0.7 0 0.7 0z"/>
	<path id="Layer" class="s0" d="m42 187.2v4q2.3-4 4.7-4 1 0 1.7 0.6 0.8 0.7 0.8 1.5 0 0.8-0.6 1.3-0.5 0.5-1.2 0.5-0.7 0-1.5-0.6-0.9-0.7-1.3-0.7-0.3 0-0.7 0.4-0.9 0.8-1.9 2.6v8.6q0 1.5 0.4 2.3 0.3 0.5 0.9 0.9 0.7 0.3 1.9 0.3v0.7h-9.2v-0.7q1.4 0 2-0.4 0.5-0.3 0.7-1 0.1-0.4 0.1-1.9v-7q0-3.1-0.1-3.7-0.1-0.6-0.5-0.9-0.3-0.2-0.8-0.2-0.6 0-1.4 0.2l-0.2-0.7 5.4-2.1c0 0 0.8 0 0.8 0z"/>
	<path id="Layer" fill-rule="evenodd" class="s0" d="m60.3 203q-2.7 2.2-3.5 2.5-1 0.5-2.2 0.5-1.9 0-3.1-1.3-1.2-1.3-1.2-3.3 0-1.3 0.6-2.3 0.8-1.3 2.8-2.5 2-1.2 6.6-2.9v-0.7q0-2.7-0.8-3.7-0.9-1-2.5-1-1.2 0-2 0.7-0.7 0.7-0.7 1.5v1.2q0 0.9-0.4 1.4-0.5 0.5-1.2 0.5-0.8 0-1.2-0.6-0.5-0.5-0.5-1.3 0-1.7 1.7-3.1 1.8-1.4 4.9-1.4 2.4 0 3.9 0.8 1.1 0.6 1.7 1.9 0.3 0.8 0.3 3.4v6.1q0 2.6 0.1 3.1 0.1 0.6 0.4 0.8 0.2 0.2 0.5 0.2 0.3 0 0.5-0.1 0.4-0.3 1.6-1.5v1.1q-2.2 3-4.2 3-0.9 0-1.5-0.7-0.6-0.7-0.6-2.3zm0-1.2v-6.9q-2.9 1.2-3.8 1.7-1.6 0.8-2.2 1.8-0.7 0.9-0.7 2 0 1.5 0.9 2.4 0.8 0.9 1.9 0.9 1.5 0 3.9-1.9z"/>
	<path id="Layer" class="s0" d="m73.2 191q3.1-3.8 6-3.8 1.5 0 2.5 0.7 1.1 0.7 1.7 2.4 0.4 1.2 0.4 3.6v7.7q0 1.7 0.3 2.3 0.2 0.5 0.7 0.7 0.5 0.3 1.8 0.3v0.7h-8.9v-0.7h0.4q1.2 0 1.7-0.4 0.5-0.4 0.7-1.1 0.1-0.3 0.1-1.8v-7.4q0-2.4-0.6-3.5-0.7-1.1-2.2-1.1-2.3 0-4.6 2.5v9.5q0 1.8 0.2 2.2 0.3 0.6 0.7 0.8 0.5 0.3 2 0.3v0.7h-8.9v-0.7h0.4q1.4 0 1.9-0.7 0.4-0.7 0.4-2.6v-6.7q0-3.2-0.1-3.9-0.1-0.7-0.5-1-0.3-0.2-0.8-0.2-0.5 0-1.3 0.2l-0.3-0.7 5.4-2.1h0.9c0 0 0 3.8 0 3.8z"/>
	<path id="Layer" fill-rule="evenodd" class="s0" d="m100.7 203.6q-1.4 1.4-2.6 2-1.3 0.6-2.7 0.6-2.9 0-5.1-2.5-2.2-2.5-2.2-6.3 0-3.9 2.4-7.1 2.4-3.2 6.2-3.2 2.4 0 4 1.5v-3.3q0-3-0.2-3.7-0.1-0.8-0.4-1-0.4-0.3-0.8-0.3-0.5 0-1.4 0.4l-0.2-0.7 5.3-2.2h0.9v20.7q0 3.2 0.1 3.9 0.2 0.7 0.5 0.9 0.3 0.3 0.8 0.3 0.5 0 1.4-0.3l0.2 0.7-5.3 2.2h-0.9c0 0 0-2.6 0-2.6zm0-1.4v-9.2q-0.2-1.3-0.7-2.4-0.6-1.1-1.6-1.7-1-0.6-1.9-0.6-1.7 0-3.1 1.6-1.7 2-1.7 5.9 0 4 1.7 6.1 1.7 2.1 3.8 2.1 1.8 0 3.5-1.8z"/>
	<path id="Layer" class="s0" d="m113.4 191q1.9-2 2.3-2.3 0.9-0.7 1.9-1.1 1-0.4 2-0.4 1.7 0 2.9 0.9 1.2 1 1.6 2.9 2-2.4 3.4-3.1 1.4-0.7 2.9-0.7 1.4 0 2.5 0.7 1.1 0.7 1.8 2.4 0.4 1.1 0.4 3.5v7.8q0 1.6 0.3 2.3 0.1 0.4 0.7 0.7 0.5 0.3 1.7 0.3v0.7h-8.8v-0.7h0.3q1.2 0 1.8-0.4 0.5-0.4 0.7-1 0-0.4 0-1.9v-7.8q0-2.1-0.5-3-0.7-1.3-2.4-1.3-1.1 0-2.1 0.5-1.1 0.5-2.5 1.9l-0.1 0.3 0.1 0.8v8.6q0 1.8 0.2 2.3 0.2 0.4 0.7 0.7 0.6 0.3 2 0.3v0.7h-9.1v-0.7q1.5 0 2.1-0.3 0.5-0.4 0.7-1.1 0.1-0.3 0.1-1.9v-7.8q0-2.1-0.6-3.1-0.9-1.3-2.4-1.3-1.1 0-2.1 0.6-1.6 0.9-2.5 2v9.6q0 1.7 0.2 2.3 0.3 0.5 0.7 0.7 0.5 0.3 2 0.3v0.7h-8.9v-0.7q1.3 0 1.7-0.3 0.5-0.2 0.8-0.8 0.2-0.6 0.2-2.2v-6.9q0-2.9-0.1-3.8-0.2-0.7-0.5-0.9-0.3-0.2-0.8-0.2-0.5 0-1.3 0.3l-0.3-0.8 5.4-2.1h0.9c0 0 0 3.8 0 3.8z"/>
	<path id="Layer" fill-rule="evenodd" class="s0" d="m149.4 203q-2.8 2.2-3.5 2.5-1 0.5-2.2 0.5-1.9 0-3.1-1.3-1.2-1.3-1.2-3.3 0-1.3 0.6-2.3 0.8-1.3 2.8-2.5 2-1.2 6.6-2.9v-0.7q0-2.7-0.9-3.7-0.8-1-2.4-1-1.3 0-2 0.7-0.7 0.7-0.7 1.5v1.2q0 0.9-0.5 1.4-0.4 0.5-1.2 0.5-0.7 0-1.2-0.6-0.4-0.5-0.4-1.3 0-1.7 1.7-3.1 1.7-1.4 4.8-1.4 2.4 0 4 0.8 1.1 0.6 1.7 1.9 0.3 0.8 0.3 3.4v6.1q0 2.6 0.1 3.1 0.1 0.6 0.3 0.8 0.3 0.2 0.6 0.2 0.3 0 0.5-0.1 0.4-0.3 1.6-1.5v1.1q-2.2 3-4.2 3-1 0-1.5-0.7-0.6-0.7-0.6-2.3zm0-1.2v-6.9q-3 1.2-3.8 1.7-1.6 0.8-2.2 1.8-0.7 0.9-0.7 2 0 1.5 0.8 2.4 0.9 0.9 2 0.9 1.5 0 3.9-1.9z"/>
	<path id="Layer" class="s0" d="m168.6 187.2v6.1h-0.6q-0.8-2.9-1.9-4-1.2-1-3-1-1.4 0-2.2 0.7-0.9 0.8-0.9 1.6 0 1.1 0.7 1.9 0.6 0.8 2.4 1.7l2.9 1.4q4 2 4 5.1 0 2.5-1.9 4-1.8 1.5-4.1 1.5-1.7 0-3.8-0.6-0.6-0.2-1-0.2-0.5 0-0.7 0.5h-0.7v-6.4h0.7q0.5 2.7 2 4.1 1.6 1.4 3.5 1.4 1.4 0 2.2-0.8 0.9-0.8 0.9-1.9 0-1.3-1-2.3-0.9-0.9-3.8-2.3-2.8-1.4-3.7-2.5-0.9-1.2-0.9-2.9 0-2.2 1.5-3.7 1.6-1.4 4-1.4 1 0 2.5 0.4 1 0.3 1.4 0.3 0.3 0 0.5-0.1 0.1-0.2 0.4-0.6c0 0 0.6 0 0.6 0z"/>
	<path id="Layer" class="s0" d="m177.8 181.8v5.9h4.2v1.4h-4.2v11.6q0 1.7 0.5 2.3 0.5 0.6 1.3 0.6 0.7 0 1.3-0.4 0.6-0.4 0.9-1.1h0.8q-0.7 1.9-2 2.8-1.2 1-2.6 1-0.9 0-1.7-0.5-0.9-0.5-1.3-1.4-0.4-0.9-0.4-2.9v-12h-2.8v-0.7q1-0.4 2.2-1.5 1.1-1 2-2.4 0.4-0.7 1.2-2.7z"/>
	<path id="Layer" fill-rule="evenodd" class="s0" d="m186.8 194.4q0 4 1.9 6.3 2 2.3 4.6 2.3 1.8 0 3.1-1 1.3-1 2.2-3.3l0.6 0.4q-0.4 2.7-2.4 4.9-2 2.2-5 2.2-3.2 0-5.5-2.6-2.3-2.5-2.3-6.7 0-4.6 2.4-7.2 2.3-2.6 5.9-2.6 3 0 4.9 2 2 2 2 5.3c0 0-12.4 0-12.4 0zm0-1.1h8.3q-0.1-1.7-0.4-2.4-0.5-1.1-1.5-1.7-1-0.7-2-0.7-1.6 0-2.9 1.3-1.3 1.3-1.5 3.5z"/>
	<path id="Layer" class="s0" d="m206.8 187.2v4q2.3-4 4.6-4 1.1 0 1.8 0.6 0.7 0.7 0.7 1.5 0 0.8-0.5 1.3-0.5 0.5-1.2 0.5-0.7 0-1.5-0.6-0.9-0.7-1.3-0.7-0.4 0-0.8 0.4-0.8 0.8-1.8 2.6v8.6q0 1.5 0.4 2.3 0.2 0.5 0.9 0.9 0.6 0.3 1.8 0.3v0.7h-9.1v-0.7q1.3 0 2-0.4 0.5-0.3 0.7-1 0.1-0.4 0.1-1.9v-7q0-3.1-0.1-3.7-0.2-0.6-0.5-0.9-0.4-0.2-0.9-0.2-0.6 0-1.3 0.2l-0.2-0.7 5.4-2.1c0 0 0.8 0 0.8 0z"/>
	<path id="Layer" class="s1" d="m101.3 253v0.7h-11.3v-0.7h0.9q1.7 0 2.4-1 0.5-0.6 0.5-3v-17.1q0-2-0.3-2.7-0.2-0.5-0.8-0.8-0.8-0.5-1.8-0.5h-0.9v-0.7h11.3v0.7h-0.9q-1.6 0-2.4 1-0.5 0.6-0.5 3v17.1q0 2 0.3 2.7 0.2 0.5 0.8 0.8 0.8 0.5 1.8 0.5z"/>
	<path id="Layer" class="s1" d="m130.8 227.2v0.7q-1.4 0.3-2.1 0.9-1.1 1-1.9 2.9l-9.2 22.6h-0.8l-9.9-22.9q-0.8-1.7-1.1-2.1-0.5-0.6-1.2-1-0.7-0.3-1.9-0.4v-0.7h10.8v0.7q-1.8 0.2-2.4 0.6-0.5 0.5-0.5 1.2 0 1 0.9 3l6.7 15.6 6.3-15.4q0.9-2.2 0.9-3.1 0-0.6-0.5-1.1-0.6-0.5-2-0.7-0.1-0.1-0.3-0.1v-0.7z"/>
</svg>