<svg version="1.2" xmlns="http://www.w3.org/2000/svg" viewBox="0 0 223 283" width="223" height="283">
	<title>New Project</title>
	<style>
		.s0 { fill: #2ad4d8 } 
		.s1 { fill: #d645e5 } 
	</style>
	<path id="Layer" fill-rule="evenodd" class="s0" d="m68 154q-0.1 0-0.1-0.1-0.1-0.2 0.1-0.2c0-0.1 1.1-0.5 3.8-2.4q0.3-0.3 0.7-0.6c1.2-0.8 2.3-1.7 4.4-2.5 3.3-1.2 5.9-0.1 6 0q0.1 0.1 0.1 0.2c0 0.1-0.1 0.1-0.2 0.1 0 0-1.9-0.1-4.7 1.5-0.7 0.4-1.3 0.8-1.9 1.2-1.8 1.2-3.6 2.4-8.1 2.8q0 0-0.1 0zm12-6c-0.9 0-1.9 0.2-3 0.6-2 0.7-3.1 1.6-4.3 2.4q-0.3 0.3-0.7 0.6c-1.4 1-2.4 1.6-3 1.9 3.8-0.4 5.3-1.5 7-2.6 0.6-0.4 1.2-0.8 1.9-1.2 1.7-1 3.1-1.3 3.9-1.5-0.4-0.1-1.1-0.2-1.8-0.2z"/>
	<path id="Layer" fill-rule="evenodd" class="s1" d="m53.5 143.4c-1.1 0-1.9 0-2.6-0.1-1.2 0-2-0.1-3.2 0.1-0.1 0-0.2 0-0.2-0.1-0.1-0.1 0-0.2 0.1-0.2 0.9-0.4 1.9-0.5 3-0.7 1.3-0.1 2.7-0.3 4.3-0.8 1.3-0.4 2.2-0.9 3.1-1.4 1.2-0.6 2.3-1.2 4.3-1.5 3.3-0.5 7.5 1.2 7.7 1.3 0.1 0 0.1 0.1 0.1 0.2 0 0.1-0.1 0.1-0.2 0.1 0 0-4.8-0.8-7.8 0.5q-1.2 0.5-2.1 1c-1.8 0.9-3.1 1.5-5.2 1.6q-0.7 0-1.3 0zm-3.8-0.5q0.6 0 1.2 0.1c1 0 2.2 0.1 3.9 0 2 0 3.3-0.7 5-1.5q0.9-0.5 2.2-1c1.9-0.9 4.5-0.9 6.2-0.7-1.6-0.5-3.9-1-5.9-0.7-1.9 0.2-2.9 0.8-4.1 1.5-0.9 0.4-1.8 0.9-3.2 1.4-1.7 0.5-3.1 0.7-4.3 0.8q-0.5 0-1 0.1z"/>
	<path id="Layer" fill-rule="evenodd" class="s1" d="m54.4 140.7q-0.1 0-0.1 0c-0.1 0-2.1-0.3-4-1.7-1.7-1.3-3.9-2.2-3.9-2.2-0.1-0.1-0.2-0.3-0.2-0.4 0-0.2 0.2-0.3 0.4-0.3 0 0 2.8 0 6.3-0.4 3.1-0.3 7.7-0.1 10.1 1.3 0.1 0.1 0.2 0.3 0.1 0.5 0 0.1-0.2 0.2-0.4 0.2 0 0-3.4-0.5-8.1 3q-0.1 0-0.2 0zm-6.3-3.9c0.7 0.4 1.7 1 2.6 1.6 1.5 1.1 3.1 1.5 3.6 1.6 2.9-2.1 5.3-2.8 6.8-3-2.3-0.7-5.7-0.8-8.2-0.5-1.9 0.2-3.7 0.2-4.8 0.3z"/>
	<path id="Layer" fill-rule="evenodd" class="s0" d="m44.2 122.4c-3.1 0-4.8-2-6.4-4-0.6-0.8-1.3-1.6-2.1-2.3-2.7-2.5-5.7-2.9-5.7-2.9-0.2-0.1-0.3-0.2-0.3-0.4 0-0.2 0.2-0.3 0.4-0.3 5.4 0 8.9 1.1 9.1 1.2q0 0 0.1 0.1c0 0 2.6 2.6 7.2 3.4 6.4 1.1 7.9 2.5 7.9 2.6 0.1 0.1 0.2 0.2 0.1 0.4q-0.1 0.2-0.4 0.2c-1.6-0.2-2.9 0.3-4.4 0.8-1.5 0.5-3.1 1.1-5.3 1.2q-0.1 0-0.2 0zm-11.5-9.1c1.1 0.4 2.3 1.1 3.5 2.2 0.8 0.8 1.5 1.6 2.2 2.4 1.6 2 3 3.7 5.8 3.7q0.1 0 0.2 0c2.1 0 3.6-0.6 5-1.1 1.1-0.4 2.2-0.7 3.4-0.8-1.1-0.5-3-1.2-6.4-1.7-4.5-0.8-7.1-3.2-7.6-3.7-0.4-0.1-2.7-0.8-6.1-1z"/>
	<path id="Layer" fill-rule="evenodd" class="s0" d="m52.6 119q-0.1 0-0.1 0c-1.2-0.7-2.3-1.2-3.5-1.8-2-0.8-4.3-1.9-7.5-4.3-3.1-2.4-5.4-5.6-7.4-8.5-1.3-1.7-2.3-3.2-3.4-4.2-0.1-0.1-0.1-0.2 0-0.3 0.1 0 0.2 0 0.2 0 0.1 0 2.4 1.7 6.2 4 3.8 2.3 5.6 4.1 8.7 7.3 1.1 1.2 2.1 2.3 3 3.3 1.4 1.5 2.7 2.8 3.9 4.2 0.1 0.1 0.1 0.2 0 0.2q-0.1 0.1-0.1 0.1zm-20.5-17.9c0.7 0.9 1.4 2 2.3 3.1 2 2.8 4.3 6 7.3 8.4 3.2 2.4 5.5 3.4 7.5 4.3 0.8 0.4 1.6 0.7 2.5 1.2-1-1.1-2-2.2-3.2-3.4-0.9-1-1.9-2-3-3.2-3-3.3-4.9-5-8.6-7.3-2.1-1.3-3.8-2.3-4.8-3.1z"/>
	<path id="Layer" fill-rule="evenodd" class="s1" d="m56.4 117q0 0 0 0-0.2-0.1-0.1-0.2c0.6-3.3 4.8-7.1 7.6-8.6l0.6-0.4c2.8-1.5 6.4-3.4 8.3-7.1q0-0.1 0.2-0.1 0.1 0.1 0.1 0.2c0 0.1-1.2 6.2-6.7 9.1l-1.3 0.7c-4.5 2.4-5.8 3.2-8.5 6.4q-0.1 0-0.2 0zm15.9-14.9c-2 3-5.1 4.7-7.6 6.1l-0.6 0.3c-2.9 1.5-6.3 4.8-7.3 7.6 2.5-2.7 4-3.6 8.2-5.8l1.2-0.7c3.8-2 5.5-5.5 6.1-7.5z"/>
	<path id="Layer" fill-rule="evenodd" class="s1" d="m56.2 117.9c-0.2 0-0.4-0.1-0.4-0.3q0 0 0-0.2 0-0.6 0-1.2c0.1-3.7 0.1-7.6 3.2-11.7 0.7-1 1.5-1.9 2.2-2.7 1.3-1.4 2.5-2.8 3.6-4.8 0.1-0.2 0.2-0.2 0.4-0.2 0.2 0.1 0.3 0.2 0.3 0.4-0.1 0.7-0.3 7.5-0.7 8.8q-0.1 0.1-0.2 0.1c0 0.1-3.5 1.9-5 3.5-2.8 3-3 7.2-3 7.9q0 0 0 0.1c0 0.2-0.2 0.3-0.4 0.3zm8.5-19.3c-0.9 1.5-1.9 2.6-2.9 3.7-0.7 0.8-1.5 1.7-2.3 2.7-2.1 2.8-2.7 5.5-2.9 8.2 0.5-1.3 1.3-2.8 2.5-4.1 1.4-1.5 4.3-3.2 5-3.5 0.3-1 0.5-4.6 0.6-7z"/>
	<path id="Layer" fill-rule="evenodd" class="s0" d="m52.1 96.6q-0.1 0-0.1-0.1-0.1-0.1 0-0.2c0.8-1.1 1.3-2 1.8-3 0.8-1.4 1.6-2.8 3.3-4.7 2-2.2 3.9-3.1 6.3-4.3 1.1-0.5 2.4-1.1 3.8-2 0.1 0 0.2 0 0.3 0.1 0 0.1 0 0.2-0.1 0.2 0 0.1-2.3 2.1-4.9 5.2q-0.6 0.7-1.2 1.5c-2.1 2.7-4.3 5.5-9.1 7.3q-0.1 0-0.1 0zm14-13.2q-1.4 0.7-2.5 1.2c-2.4 1.2-4.3 2.1-6.3 4.3-1.6 1.8-2.4 3.2-3.2 4.6-0.4 0.8-0.9 1.6-1.5 2.5 4.3-1.7 6.4-4.4 8.4-6.9q0.6-0.8 1.2-1.5c1.5-1.9 3-3.3 3.9-4.2z"/>
	<path id="Layer" fill-rule="evenodd" class="s1" d="m46 89.6q-0.1 0-0.2-0.1c-2.7-3.8-4.5-6.6-7.2-11.1-1.4-2.5-2.8-5.9-4.1-9-0.9-2.3-1.8-4.5-2.6-5.9 0 0 0-0.1 0.1-0.2 0.1-0.1 0.2 0 0.2 0 0.1 0.1 6.8 7.3 9.8 13.4 1 2 1.7 4.7 2.5 7.3 0.5 2.1 1.1 4 1.7 5.3 0 0.1 0 0.2-0.1 0.2q-0.1 0.1-0.1 0.1zm-13.1-25c0.6 1.3 1.3 3 2 4.7 1.2 3 2.6 6.4 4 8.9 2.4 4 4.1 6.7 6.4 9.9-0.4-1.2-0.8-2.5-1.2-4-0.7-2.6-1.5-5.3-2.4-7.2-2.3-4.7-6.9-10.1-8.8-12.3z"/>
	<path id="Layer" fill-rule="evenodd" class="s1" d="m45.5 83.8c-0.2 0-0.4-0.1-0.4-0.3 0-0.1-0.5-6.6-2.8-10-2.4-3.5-5.4-5.7-5.5-5.7q-0.1-0.1-0.1-0.2c0-0.1-0.8-2.5-0.3-6 0-0.1 0.2-0.3 0.3-0.3 0.2 0 0.4 0.1 0.4 0.3 0 0 0.4 1.2 2 3.2l0.4 0.4c1.7 2 4.3 5.1 5.5 10.2 1.1 4.5 0.9 7.9 0.8 8.1 0 0.2-0.1 0.3-0.3 0.3zm-8.1-16.5c0.5 0.4 3.2 2.5 5.5 5.7 0.7 1.1 1.3 2.5 1.7 3.8q-0.1-0.6-0.3-1.2c-1.2-5-3.6-7.8-5.3-9.9l-0.4-0.5c-0.8-0.9-1.3-1.7-1.6-2.2-0.2 2.2 0.2 3.9 0.4 4.3z"/>
	<path id="Layer" fill-rule="evenodd" class="s1" d="m61.8 58.1q-0.1 0-0.1-0.1c-0.1-0.1 0-0.2 0.1-0.2 1.9-0.7 3.9-1.5 6-2.3 1.9-0.8 3.8-1.6 5.7-2.3 4-1.4 13.5-4.4 13.6-4.5 0.1 0 0.2 0.1 0.2 0.1q0.1 0.2-0.1 0.3c0 0-6.4 4.9-11.7 6.8-5.2 1.9-13.6 2.2-13.7 2.2q0 0 0 0zm24.3-8.7c-2.6 0.9-9.2 3-12.4 4.2-1.9 0.7-3.9 1.4-5.8 2.2q-2.5 1-4.8 1.9c2.5-0.2 8.3-0.7 12.3-2.1 4-1.5 8.8-4.8 10.7-6.2z"/>
	<path id="Layer" fill-rule="evenodd" class="s1" d="m65.2 75.3c-2.4 0-3.9-0.3-5.2-0.5-1.6-0.2-2.9-0.5-5.2-0.2q-0.2 0-0.2-0.1c0-0.1 0-0.2 0.1-0.2 0.1 0 6.3-2.2 11.2-2.2q0.1 0 0.3 0c1.6 0 3.2 0.1 4.8 0.2 3.3 0.3 6.5 0.5 8.9-0.2 0.1 0 0.2 0.1 0.3 0.2 0 0.1 0 0.1-0.1 0.2-0.1 0-5.7 2.4-12.8 2.7q-1.2 0.1-2.1 0.1zm-8.4-1.2c1.2 0 2.2 0.2 3.2 0.4 1.7 0.2 3.6 0.6 7.3 0.4 4.5-0.3 8.5-1.3 10.7-2.1-2.1 0.3-4.5 0.1-7-0.1-1.6-0.1-3.2-0.2-4.8-0.3q-0.2 0-0.3 0c-3.3 0-7.4 1.1-9.6 1.7q0.3 0 0.5 0z"/>
	<path id="Layer" fill-rule="evenodd" class="s1" d="m55 74.3q-0.1 0-0.2-0.1c-0.2-0.1-0.2-0.3-0.1-0.4 0-0.2 1.8-4.2 6.9-5.8 2.4-0.8 4.6-0.7 6.8-0.8 2.4 0.1 4.8 0 7.6-0.9 0.1-0.1 0.3 0 0.4 0.1q0.1 0.1 0.1 0.3c-0.1 0.1-1 2.8-5.6 4.4q-0.1 0.1-0.2 0.1c0-0.1-3.4-0.7-6.7-0.4-5.4 0.5-8.7 3.4-8.8 3.4q-0.1 0.1-0.2 0.1zm13.1-6.3c-2.1 0-4.1 0-6.3 0.7-2.8 0.9-4.6 2.6-5.5 3.9 1.5-1 4.2-2.2 7.6-2.5 3.2-0.3 6.3 0.2 6.9 0.3 2.7-1 4-2.3 4.6-3.2-2.6 0.8-4.8 0.8-7 0.8q-0.1 0-0.3 0z"/>
	<path id="Layer" fill-rule="evenodd" class="s1" d="m92.4 150.7q-0.1 0-0.2-0.1c-0.4-1-0.9-1.6-1.4-2.2-0.5-0.6-1-1.3-1.6-2.5-1.2-2.2-2.3-5.8-2.1-9.1 0-0.1 0-0.2 0.1-0.2q0.2 0 0.2 0.1c0 0.1 0.8 3.3 1.9 5.4q0.2 0.3 0.4 0.7c1 1.9 2.3 4.2 2.9 7.7 0 0.1-0.1 0.2-0.2 0.2q0 0 0 0zm-4.9-12.5c0.1 2.8 1.1 5.7 2 7.6 0.6 1.1 1.1 1.7 1.6 2.3 0.3 0.4 0.6 0.8 0.9 1.2-0.7-2.7-1.7-4.6-2.6-6.3q-0.2-0.4-0.4-0.8c-0.7-1.2-1.2-2.8-1.5-4z"/>
	<path id="Layer" fill-rule="evenodd" class="s1" d="m93.6 152.8q-0.2 0-0.3-0.2l-0.3-0.3c0-0.1-0.4-0.7-0.7-1.9-0.1-0.5-0.2-1.2-0.4-2.1-0.1-1.1-0.2-2.5-0.5-3.9q0 0 0 0c0-0.2-0.3-3.3 1.9-7 0.1-0.2 0.3-0.2 0.5-0.2 0.1 0.1 0.2 0.3 0.2 0.5 0 0-0.3 1.1 0.2 4.3q0.1 0.8 0.3 1.6c0.3 1.4 0.6 2.9 0.5 4.5 0 1.7-0.4 2.6-0.7 3.4-0.2 0.3-0.3 0.6-0.4 1q0 0.2-0.2 0.3-0.1 0-0.1 0zm-1.6-8.5c0.3 1.4 0.5 2.8 0.7 3.9 0.1 0.8 0.2 1.6 0.3 2.1 0.2 0.6 0.3 1 0.5 1.3q0-0.2 0.1-0.4c0.3-0.7 0.6-1.5 0.7-3.1 0-1.5-0.3-3-0.5-4.4q-0.2-0.8-0.3-1.6c-0.2-1.2-0.3-2.2-0.3-2.9-1.2 2.7-1.2 4.8-1.2 5.1z"/>
	<path id="Layer" fill-rule="evenodd" class="s1" d="m73.7 41q-0.1 0-0.2-0.1c-0.2-0.1-0.2-0.3-0.1-0.5q0.1 0 0.2-0.2c0.6-0.8 1.1-2.6 1.6-4.5 0.5-1.9 1.1-4.1 2-5.9 1.2-2.3 3.6-3.9 5.6-5.2 1.3-0.8 2.5-1.6 3.3-2.5 0.1-0.1 0.2-0.1 0.4-0.1 0.1 0.1 0.2 0.3 0.2 0.4 0 0.3-1 5.5-2.5 8.1q0 0.1-0.1 0.1c0 0-3.4 2.9-5.2 4.7-1.5 1.6-4.1 4.7-4.8 5.4q0 0.1-0.1 0.2-0.1 0.1-0.3 0.1zm12.1-17.6c-0.8 0.6-1.6 1.2-2.6 1.8-2 1.3-4.2 2.8-5.3 4.9-0.9 1.7-1.5 3.9-2 5.8q-0.3 1.3-0.7 2.4c1.1-1.2 2.3-2.6 3.2-3.5 1.7-1.8 4.8-4.3 5.2-4.7 1-1.8 1.8-5 2.2-6.7z"/>
	<path id="Layer" fill-rule="evenodd" class="s0" d="m73.8 41q-0.1 0-0.2-0.1c-0.2-0.1-0.2-0.3-0.1-0.4 0.1-0.1 3-4.5 9.4-9.8 5.5-4.7 16.9-5.6 17.4-5.6 0.2-0.1 0.4 0.1 0.4 0.3 0 0.1-0.1 0.3-0.2 0.4-1.3 0.4-3.3 2.3-5.5 4.4-2.1 2-4.6 4.3-6.9 5.8-2.9 1.8-6.7 2.8-9.8 3.6-2 0.5-3.6 0.9-4.3 1.4q-0.1 0-0.2 0zm24.9-15c-3.5 0.4-11.2 1.8-15.4 5.2-4.3 3.7-7.1 6.9-8.3 8.6 0.8-0.3 1.9-0.6 3.1-0.9 3-0.8 6.8-1.7 9.6-3.5 2.3-1.5 4.7-3.7 6.8-5.8 1.6-1.4 3-2.7 4.2-3.6z"/>
	<path id="Layer" fill-rule="evenodd" class="s0" d="m74.3 40.3q-0.1 0-0.1-0.1c-0.1-0.1-0.1-0.2 0-0.2 1.9-1.2 4.3-3.1 6.6-4.9 2.4-1.9 4.5-3.6 6.2-4.6 3.4-2.1 12.4-5 12.5-5.1 0.1 0 0.2 0.1 0.2 0.1 0.1 0.1 0 0.2-0.1 0.3-2.8 1.6-5.1 3.1-7.8 4.9-1.5 1-3.1 2.1-4.9 3.3-5.3 3.4-12.4 6.3-12.5 6.3q-0.1 0-0.1 0zm23.6-13.9c-2.8 0.9-8.2 2.9-10.7 4.4-1.6 1-3.8 2.7-6.1 4.6-1.7 1.3-3.5 2.7-5 3.8 2.4-1.1 7-3.2 10.6-5.5 1.8-1.2 3.4-2.3 4.9-3.3 2.2-1.4 4.1-2.7 6.3-4z"/>
	<path id="Layer" class="s1" d="m67.3 46.3q-0.1 0-0.1-0.1c-0.1 0-0.2-0.1-0.1-0.2 1.9-2.9 3.4-6.1 4.6-9.4 0-0.1 0.1-0.1 0.2-0.1 0.1 0.1 0.1 0.2 0.1 0.3-1.2 3.3-2.7 6.4-4.6 9.4q-0.1 0.1-0.1 0.1z"/>
	<path id="Layer" class="s1" d="m63.4 50.9q-0.1 0-0.1-0.1c-0.1-0.1-0.1-0.2 0-0.3 3.4-2.3 7.1-4.1 11-5.3 0.1 0 0.2 0.1 0.2 0.2 0.1 0.1 0 0.2-0.1 0.2-3.9 1.1-7.5 2.9-10.9 5.2q0 0.1-0.1 0.1z"/>
	<path id="Layer" class="s1" d="m61.1 53.9q0 0-0.1-0.1c-0.1 0-0.1-0.1-0.1-0.2 1.2-2.9 1.8-6 2-9.1q0-0.1 0.2-0.2c0.1 0.1 0.1 0.1 0.1 0.2-0.1 3.2-0.8 6.3-1.9 9.2q-0.1 0.1-0.2 0.2z"/>
	<path id="Layer" class="s1" d="m51.8 70.3c-0.1 0-0.2-0.1-0.2-0.2-0.1-3.3-0.5-6.6-1.4-9.7 0-0.1 0.1-0.2 0.2-0.3 0 0 0.2 0.1 0.2 0.2 0.8 3.2 1.3 6.5 1.4 9.8 0 0.1-0.1 0.2-0.2 0.2q0 0 0 0z"/>
	<path id="Layer" class="s1" d="m52.4 69.4q-0.1 0-0.1-0.1c-0.1-0.1-0.1-0.2 0-0.3 2.3-2.2 5-4 7.9-5.4 0.1-0.1 0.2 0 0.2 0 0.1 0.1 0 0.2-0.1 0.3-2.8 1.4-5.4 3.2-7.8 5.4q0 0.1-0.1 0.1z"/>
	<path id="Layer" class="s1" d="m48.5 83.9q0 0 0 0c-0.1 0-0.2-0.1-0.1-0.2 0-3.2-0.5-6.5-1.5-9.6 0-0.1 0-0.2 0.1-0.2 0.1-0.1 0.2 0 0.3 0.1 1 3.1 1.5 6.4 1.4 9.7 0 0.1-0.1 0.2-0.2 0.2z"/>
	<path id="Layer" class="s1" d="m48.4 96.4q0 0 0 0c-0.1 0-0.2-0.1-0.2-0.2 0.3-3.3 1.4-6.6 3.1-9.4 0-0.1 0.1-0.1 0.2-0.1 0.1 0.1 0.1 0.2 0.1 0.3-1.7 2.8-2.7 6-3 9.2 0 0.1-0.1 0.2-0.2 0.2z"/>
	<path id="Layer" class="s1" d="m49.1 104.2q-0.1 0-0.2-0.1c-1.1-2.7-2.9-5-5.1-6.9-0.1-0.1-0.1-0.2 0-0.3 0 0 0.2-0.1 0.2 0 2.3 1.9 4.1 4.4 5.3 7 0 0.1 0 0.2-0.1 0.3q-0.1 0-0.1 0z"/>
	<path id="Layer" class="s1" d="m50.1 109.2q-0.1 0-0.2-0.1-0.8-1.6-2.2-2.7c-0.1 0-0.1-0.1 0-0.2 0-0.1 0.1-0.1 0.2 0q1.4 1.1 2.4 2.7c0 0.1 0 0.2-0.1 0.2q0 0.1-0.1 0.1z"/>
	<path id="Layer" class="s1" d="m54 119.6c-0.1 0-0.2-0.1-0.2-0.1-0.6-4.6-0.4-9.2 0.6-13.7 0-0.1 0.1-0.2 0.2-0.1 0.1 0 0.2 0.1 0.2 0.2-1 4.4-1.2 9-0.6 13.5 0 0.1-0.1 0.2-0.2 0.2q0 0 0 0z"/>
	<path id="Layer" class="s1" d="m58 127.2q-0.1 0-0.1-0.1c-1-1.1-2.3-1.9-3.8-2.2-0.1-0.1-0.2-0.1-0.1-0.2 0-0.1 0.1-0.2 0.2-0.2 1.5 0.3 2.9 1.2 4 2.4 0 0 0 0.2-0.1 0.2q0 0.1-0.1 0.1z"/>
	<path id="Layer" class="s1" d="m61.1 131.2q-0.2 0-0.2-0.2c-0.9-4.2-1.1-7.4-0.5-10.4 0-0.1 0.1-0.2 0.2-0.2 0.1 0 0.1 0.1 0.1 0.2-0.5 3.1-0.4 6.1 0.5 10.3 0.1 0.1 0 0.2-0.1 0.3q0 0 0 0z"/>
	<path id="Layer" class="s1" d="m63.1 133.7q0 0-0.1 0c-2.2-1.2-4.8-1.8-7.3-1.8-0.1 0-0.2-0.1-0.2-0.2 0-0.1 0.1-0.2 0.2-0.2 2.6 0.1 5.2 0.7 7.5 1.9 0.1 0 0.1 0.1 0.1 0.2q-0.1 0.1-0.2 0.1z"/>
	<path id="Layer" class="s1" d="m74.8 143.5q0 0-0.1-0.1c-1.8-2.3-3.1-5-3.6-7.9-0.1-0.1 0-0.2 0.1-0.2q0.2 0 0.2 0.1c0.5 2.9 1.8 5.6 3.6 7.8 0.1 0.1 0 0.2 0 0.3q-0.1 0-0.2 0z"/>
	<path id="Layer" class="s1" d="m68.9 145c-0.1 0-0.2-0.1-0.2-0.1 0-0.1 0.1-0.2 0.2-0.2 2.9-0.5 5.8-0.5 8.7-0.2 0.1 0 0.2 0.1 0.2 0.2q0 0.2-0.2 0.2c-2.9-0.4-5.8-0.3-8.7 0.1q0 0 0 0z"/>
	<path id="Layer" class="s1" d="m88.7 150.7q-0.1 0-0.1-0.1c-2-1.6-3.6-3.7-4.7-5.9-0.1-0.1 0-0.2 0.1-0.3 0.1 0 0.2 0 0.2 0.1 1.1 2.2 2.7 4.3 4.6 5.9 0.1 0 0.1 0.2 0 0.2q0 0.1-0.1 0.1z"/>
	<path id="Layer" class="s1" d="m86.7 153.3q-0.1 0-0.2-0.1 0-0.1 0-0.2c0 0 0.5-0.2 0.5-0.2 1.9-0.7 3.9-0.9 5.9-0.7 0.1 0 0.2 0.1 0.2 0.2 0 0.1-0.1 0.2-0.2 0.1-2.1-0.2-4.2 0.1-6.2 0.9q0 0 0 0z"/>
	<path id="Layer" class="s1" d="m72.1 36.7c-0.7 0-1.3-0.6-1.3-1.2 0-0.7 0.6-1.3 1.3-1.3 0.7 0 1.2 0.6 1.2 1.3 0 0.6-0.5 1.2-1.2 1.2z"/>
	<path id="Layer" class="s1" d="m50 60.4c-0.7 0-1.3-0.5-1.3-1.2 0-0.7 0.6-1.3 1.3-1.3 0.7 0 1.2 0.6 1.2 1.3 0 0.7-0.5 1.2-1.2 1.2z"/>
	<path id="Layer" class="s0" d="m54.4 132.9c-0.7 0-1.3-0.6-1.3-1.3 0-0.7 0.6-1.2 1.3-1.2 0.7 0 1.2 0.5 1.2 1.2 0 0.7-0.5 1.3-1.2 1.3z"/>
	<path id="Layer" class="s0" d="m53 86c0 0.6-0.5 1-1 1-0.5 0-1-0.4-1-1 0-0.5 0.5-1 1-1 0.5 0 1 0.5 1 1z"/>
	<path id="Layer" class="s0" d="m48 105.9c0 0.5-0.4 1-1 1-0.5 0-1-0.5-1-1 0-0.6 0.5-1 1-1 0.6 0 1 0.4 1 1z"/>
	<path id="Layer" class="s0" d="m61.7 119.7c0 0.5-0.4 1-1 1-0.5 0-0.9-0.5-0.9-1 0-0.6 0.4-1 0.9-1 0.6 0 1 0.4 1 1z"/>
	<path id="Layer" class="s1" d="m68 146c-0.5 0-1-0.4-1-1 0-0.5 0.5-1 1-1 0.5 0 1 0.5 1 1 0 0.6-0.5 1-1 1z"/>
	<path id="Layer" class="s0" d="m84.6 143.7c0 0.5-0.5 1-1 1-0.5 0-1-0.5-1-1 0-0.6 0.5-1 1-1 0.5 0 1 0.4 1 1z"/>
	<path id="Layer" class="s0" d="m75.7 46.5c-0.7 0-1.2-0.6-1.2-1.3 0-0.7 0.5-1.3 1.2-1.3 0.7 0 1.3 0.6 1.3 1.3 0 0.7-0.6 1.3-1.3 1.3z"/>
	<path id="Layer" class="s0" d="m63.1 44.6c-0.6 0-1.2-0.5-1.2-1.2 0-0.7 0.6-1.3 1.2-1.3 0.7 0 1.3 0.6 1.3 1.3 0 0.7-0.6 1.2-1.3 1.2z"/>
	<path id="Layer" class="s1" d="m61.5 64.5c-0.8 0-1.4-0.6-1.4-1.3 0-0.8 0.6-1.4 1.4-1.4 0.7 0 1.4 0.6 1.4 1.4 0 0.7-0.7 1.3-1.4 1.3z"/>
	<path id="Layer" class="s1" d="m42.9 97.5c-0.8 0-1.4-0.6-1.4-1.3 0-0.8 0.6-1.4 1.4-1.4 0.8 0 1.4 0.6 1.4 1.4 0 0.7-0.6 1.3-1.4 1.3z"/>
	<path id="Layer" class="s0" d="m46.7 74.2c-0.6 0-1.1-0.5-1.1-1.1 0-0.6 0.5-1 1.1-1 0.6 0 1 0.4 1 1 0 0.6-0.4 1.1-1 1.1z"/>
	<path id="Layer" class="s1" d="m55.9 104.8c0 0.6-0.5 1.1-1.1 1.1-0.6 0-1-0.5-1-1.1 0-0.5 0.4-1 1-1 0.6 0 1.1 0.5 1.1 1z"/>
	<path id="Layer" class="s1" d="m53.1 125.5c-0.5 0-1-0.5-1-1.1 0-0.5 0.5-1 1-1 0.6 0 1.1 0.5 1.1 1 0 0.6-0.5 1.1-1.1 1.1z"/>
	<path id="Layer" class="s0" d="m85.7 154.4c-0.6 0-1.1-0.4-1.1-1 0-0.6 0.5-1.1 1.1-1.1 0.5 0 1 0.5 1 1.1 0 0.6-0.5 1-1 1z"/>
	<path id="Layer" class="s1" d="m72.2 134.4c0 0.6-0.5 1.1-1.1 1.1-0.6 0-1-0.5-1-1.1 0-0.6 0.4-1 1-1 0.6 0 1.1 0.4 1.1 1z"/>
	<path id="Layer" fill-rule="evenodd" class="s1" d="m54.2 64.9q-0.1 0-0.2 0c-0.2-0.1-0.3-0.3-0.2-0.5l1.6-2.7q0.1-0.1 0.2-0.2c0 0 2.2-1.5 9.2-6.3 6.9-4.7 10-5 14.7-5.5l0.5-0.1c4.9-0.5 8.1-1.6 8.2-1.6 0.1-0.1 0.3 0 0.4 0.2 0.1 0.1 0 0.3-0.1 0.4-2.2 1.4-3.7 2.9-5 4.5-1.7 1.8-3.2 3.5-5.9 4.7-4 1.8-8 1.3-11.2 1-0.9-0.1-1.8-0.2-2.5-0.2q-0.1-0.1-0.2-0.1c-3.2 0-7.2 3.2-9.2 6.3q-0.2 0.1-0.3 0.1zm9.5-7.1q0.1 0 0.2 0c0.8 0.1 1.6 0.2 2.6 0.3 3.1 0.3 7 0.7 10.8-0.9 2.5-1.2 4-2.9 5.6-4.6 1-1.1 2-2.3 3.4-3.3-1.5 0.3-3.6 0.8-6.2 1l-0.5 0.1c-4.8 0.5-7.6 0.8-14.4 5.4q-1.8 1.3-3.2 2.2 0.9-0.2 1.7-0.2z"/>
	<path id="Layer" fill-rule="evenodd" class="s0" d="m53.9 65.4q-0.1 0-0.2 0c-0.1-0.1-0.2-0.2-0.2-0.4 0.5-4.1-2-7.6-4.7-11.2l-0.5-0.6c-2.2-3-2.6-7.3-2.9-10.4-0.1-1.1-0.2-2.1-0.3-2.8-0.6-2.8-1.4-4.2-3.2-6.8-0.1-0.2-0.1-0.3 0.1-0.5 0.1-0.1 0.2-0.1 0.4-0.1 5.5 2.6 9.1 9.6 9.3 9.9q0 0.1 0 0.2c0 0 0 2.5 0.6 6 0.6 3.5 2.7 7.4 2.7 7.4q0.1 0.1 0 0.3c0 0-0.3 1.7-0.4 3.8-0.1 2 0.2 3.8 0.2 3.8q0 0.1 0 0.2l-0.6 1q-0.1 0.2-0.3 0.2zm-10.5-31.4c1.2 2 1.9 3.4 2.4 5.8 0.1 0.8 0.2 1.8 0.4 2.9 0.3 3.1 0.7 7.2 2.7 10l0.5 0.7c1.8 2.5 3.7 5 4.5 7.7q0-0.5 0-0.9c0-1.9 0.3-3.4 0.4-3.9-0.4-0.7-2.1-4.2-2.7-7.5-0.6-3.2-0.6-5.5-0.6-6-0.4-0.7-3.3-6.1-7.6-8.8z"/>
	<path id="Layer" fill-rule="evenodd" class="s0" d="m54.7 56.7q-0.2-0.1-0.3-0.2c-3.1-5.9-3.4-10.4-3.3-13.7 0-2.6 1.1-5.6 2-8.2q0.6-1.5 1-2.8c0.7-2.3 1.9-7.2 1.9-7.3 0-0.1 0.2-0.3 0.4-0.3 0.1 0 0.3 0.1 0.3 0.3 0 0 1 3.6 1.6 7.6l0.2 1.3c0.6 3.9 1.5 9.2 0.9 13.1-0.6 3.8-2 5.9-3.1 7.6-0.5 0.9-1 1.6-1.3 2.3 0 0.1-0.1 0.2-0.3 0.3q0 0 0 0zm1.7-30.6c-0.4 1.7-1.1 4.4-1.6 5.9q-0.4 1.3-1 2.8c-0.9 2.6-2 5.5-2 8-0.1 3.1 0.2 7.2 2.9 12.6 0.2-0.5 0.6-1.1 1-1.7 1.1-1.6 2.4-3.7 3-7.3 0.5-3.8-0.3-9-0.9-12.8l-0.2-1.4c-0.4-2.5-0.9-4.7-1.2-6.1z"/>
	<path id="Layer" fill-rule="evenodd" class="s0" d="m54.5 55.9q-0.1 0-0.1 0-0.1-0.1-0.1-0.2c-0.1-0.8-0.2-1.5-0.3-2.3-0.4-2.9-0.8-5.8-0.5-10.6 0.2-3.2 0.9-6.9 1.6-10.3 0.5-2.9 1-5.5 1-6.9 0-0.1 0.1-0.2 0.2-0.2q0 0 0 0c0.1 0 0.2 0.1 0.2 0.2 0 0.1 0.7 8.4 0.7 11.8q0 0.8 0 1.7c0.1 5.1 0.2 12.7-2.6 16.7q0 0.1-0.1 0.1zm1.8-28.1c-0.2 1.3-0.5 3-0.9 4.8-0.6 3.3-1.3 7.1-1.5 10.3-0.3 4.7 0.1 7.6 0.5 10.4q0.1 0.9 0.2 1.8c2.4-3.9 2.3-11.1 2.3-16q0-0.9 0-1.7c0-2.3-0.4-6.9-0.6-9.6z"/>
	<path id="Layer" fill-rule="evenodd" class="s1" d="m49.3 80q-0.1 0-0.1 0c-0.2-0.1-0.3-0.3-0.3-0.5l0.3-1.5q0.1 0 0.1-0.1c1-1.6 4.2-3.7 5.5-4.3 0.4-0.2 0.7-0.4 1.1-0.7 1.4-1 3.6-2.5 7.8-2.8 4.2-0.4 6.2 0.1 8.5 0.7 0.7 0.1 1.4 0.3 2.2 0.5 3.5 0.6 6.3 0.5 6.3 0.5q0 0 0.1 0c0.1 0 0.3 0.1 0.3 0.3 0 0.2-0.1 0.4-0.2 0.4-1.5 0.5-2.7 1.3-4.1 2.1-2.2 1.3-4.6 2.9-8.5 3.2-4 0.3-7.2-1-9.6-1.9-1.2-0.4-2.3-0.8-3-0.9-2.2-0.1-4.9 2.5-6.1 4.8q-0.1 0.2-0.3 0.2zm6.3-5.7q0 0 0.1 0c0.9 0 1.9 0.4 3.3 1 2.3 0.8 5.4 2 9.3 1.7 3.6-0.2 5.9-1.7 8.1-3 0.9-0.6 1.7-1.1 2.5-1.5-1.2 0-2.8-0.2-4.6-0.5-0.8-0.2-1.6-0.4-2.3-0.5-2.2-0.6-4.1-1.1-8.2-0.7-4.1 0.3-6.1 1.8-7.5 2.7-0.4 0.3-0.8 0.6-1.2 0.7q-0.1 0.1-0.2 0.2 0.3-0.1 0.7-0.1z"/>
	<path id="Layer" fill-rule="evenodd" class="s1" d="m47.9 93.8c-0.2 0-0.3-0.1-0.4-0.2q0-0.1-0.2-0.6c-1.6-3.6-4.1-5.8-6.4-7.9-1.8-1.6-3.5-3.2-4.8-5.3-2.1-3.4-3-8.3-3.9-12.5-0.4-2.1-0.8-4.1-1.3-5.7 0-0.1 0.1-0.3 0.3-0.4 0.1-0.1 0.3 0 0.4 0.2 0.9 1.8 3.1 3.6 5.3 5.6 2.2 1.8 4.4 3.7 5.8 5.8 2.7 4.2 3 8.9 3.2 11.7v0.3c0.1 3 1.5 6.6 2.1 8q0.1 0.2 0.2 0.5c0.1 0.2 0 0.4-0.2 0.5q-0.1 0-0.1 0zm-15.7-30.3c0.2 1.1 0.5 2.3 0.7 3.6 0.9 4.2 1.8 9 3.8 12.3 1.2 2.1 2.9 3.6 4.7 5.2 1.6 1.4 3.2 2.8 4.6 4.7-0.4-1.4-0.8-3-0.9-4.5v-0.2c-0.1-2.8-0.4-7.4-3-11.4-1.3-2-3.5-3.9-5.6-5.7-1.6-1.4-3.2-2.7-4.3-4z"/>
	<path id="Layer" fill-rule="evenodd" class="s1" d="m46.7 91.6q-0.1 0-0.3-0.1c-0.9-1.2-3.5-2.7-7.4-4.6-2.6-1.2-4.8-4.2-6.5-8.6-1.3-3.6-2.7-5.8-2.7-5.8-0.1-0.1-0.1-0.3 0-0.4 0.1-0.2 0.3-0.2 0.5-0.1 2.6 1.5 4.5 3.5 4.6 3.6q0 0 0.1 0.1c0 0 0.9 2.6 2.3 4.6 0.9 1.4 2.3 2.7 4.5 4.7l0.9 0.8c2.8 2.6 4.3 5.2 4.3 5.3 0.1 0.1 0.1 0.3-0.1 0.4q-0.1 0.1-0.2 0.1zm-15.5-18.2c0.5 1 1.3 2.6 2 4.6 1.1 3 3.1 6.8 6.1 8.3 1.9 0.8 4 1.9 5.7 3-0.7-0.9-1.6-1.9-2.8-3l-0.9-0.8c-2.2-2-3.6-3.3-4.6-4.8-1.3-1.9-2.2-4.2-2.4-4.7-0.2-0.2-1.4-1.4-3.1-2.6z"/>
	<path id="Layer" fill-rule="evenodd" class="s0" d="m49.5 105.5c-0.2 0-0.3-0.2-0.3-0.4-0.3-4.1 1.3-6.9 2.6-9.2l0.1-0.3c0.4-0.7 0.7-1.6 1-2.7 0.8-2.4 1.7-5.5 4.3-7.3 2.1-1.6 4.5-2.2 6.8-2.8 1.7-0.4 3.2-0.8 4.5-1.5 0.2-0.1 0.4 0 0.5 0.1 0.1 0.2 0.1 0.4-0.1 0.5 0 0-2 1.9-3.3 4.7q-0.4 0.7-0.7 1.4c-1 2.4-2.1 4.7-4.9 5.9-1.3 0.6-2.4 1-3.4 1.3-1.4 0.4-2.5 0.8-3.7 1.5-2.6 1.7-3 8.4-3 8.4 0 0.2-0.2 0.4-0.4 0.4zm17.7-22.8c-0.9 0.3-1.9 0.6-3 0.8-2.3 0.6-4.6 1.2-6.6 2.6-2.3 1.8-3.2 4.7-4 7-0.3 1.1-0.6 2.1-1 2.8l-0.2 0.3q0.1 0 0.1-0.1c1.3-0.8 2.5-1.2 3.9-1.6 0.9-0.3 2-0.7 3.4-1.2 2.5-1.1 3.4-3.3 4.5-5.6q0.3-0.7 0.6-1.4c0.7-1.5 1.6-2.8 2.3-3.6z"/>
	<path id="Layer" fill-rule="evenodd" class="s0" d="m53.7 120.1q-0.1 0-0.2-0.1c-1-0.7-2.4-1-4.2-1.4-1.9-0.4-4.2-0.9-7.3-2.1-4-1.6-6.3-6.1-8.4-10.5-1.2-2.4-2.3-4.7-3.7-6.4-0.1-0.1-0.1-0.3 0-0.5 0.1-0.1 0.3-0.1 0.5 0 2.1 1.4 4.3 2.3 6.6 3.3 2.1 0.8 4.2 1.7 6.4 3 3.7 2.2 4.9 4.5 6.3 7.1 0.4 0.8 0.8 1.6 1.3 2.4 2.1 3.6 3 4.6 3 4.6 0.1 0.1 0.1 0.3 0 0.5q-0.1 0.1-0.3 0.1zm-22.2-19.5c1 1.5 1.8 3.3 2.7 5.1 2.1 4.2 4.3 8.6 8.1 10.1 3 1.2 5.3 1.7 7.2 2.1 1.2 0.3 2.2 0.5 3 0.8-0.5-0.7-1.2-1.8-2.1-3.4-0.6-0.9-1-1.7-1.4-2.4-1.3-2.6-2.5-4.8-6-6.8-2.1-1.3-4.2-2.2-6.3-3.1-1.8-0.7-3.5-1.5-5.2-2.4z"/>
	<path id="Layer" fill-rule="evenodd" class="s1" d="m57 125.6c-0.1 0-0.2-0.1-0.3-0.3 0-0.1-0.9-2.8-0.8-5.4-0.3-3.9 0.4-7.7 3.5-11 2.1-2.2 4.4-3.2 6.6-4.2 2.6-1.2 5.1-2.3 7-5.2 0.1-0.2 0.3-0.2 0.4-0.2 0.2 0.1 0.3 0.2 0.3 0.4 0 0.1 0.1 9-6.7 12.4-2.2 1.1-4 1.8-5.4 2.4-2.8 1.2-4.1 1.7-4.6 3.1-0.3 0.7-0.4 1.6-0.4 2.4 0.1 1.7 0.5 3.4 0.8 5.1 0 0.2-0.1 0.4-0.3 0.5q0 0-0.1 0zm15.9-24.7c-1.9 2.3-4.2 3.4-6.6 4.4-2.1 1-4.4 2-6.4 4.1-2.1 2.2-3 4.7-3.3 7.3 0.8-1.2 2.2-1.8 4.7-2.9 1.4-0.6 3.2-1.3 5.4-2.4 4.9-2.4 6-8 6.2-10.5z"/>
	<path id="Layer" fill-rule="evenodd" class="s0" d="m67 137.2q-0.1 0-0.1-0.1c-0.1 0-2.4-0.7-3.1-6.6-0.5-4.7 1.2-7.4 2.3-9.2q0.4-0.7 0.6-1.2c0.4-0.7 0.5-1.4 0.6-2.1 0.2-1.2 0.5-2.4 1.5-3.4 0.1-0.1 0.3-0.1 0.5-0.1 0.1 0.1 0.2 0.3 0.1 0.4-0.3 1.4-0.1 3.5 0.1 5.6 0.2 1.9 0.4 3.7 0.2 4.9-0.3 2.3-1.4 3.7-2.3 4.9-0.6 0.7-1.1 1.4-1.3 2.2-0.3 2 1.1 4.1 1.2 4.1 0.1 0.1 0.1 0.3 0 0.4q-0.2 0.1-0.3 0.2zm1.6-21c-0.3 0.6-0.4 1.2-0.6 1.9-0.1 0.8-0.2 1.6-0.6 2.3q-0.3 0.6-0.7 1.3c-1.1 1.8-2.7 4.3-2.2 8.7 0.2 1.9 0.6 3.3 1 4.2-0.1-0.7-0.2-1.5-0.1-2.2 0.2-1 0.8-1.8 1.4-2.6 0.9-1.1 1.9-2.4 2.2-4.5 0.2-1.1 0-2.9-0.2-4.7-0.1-1.6-0.3-3.1-0.2-4.4z"/>
	<path id="Layer" fill-rule="evenodd" class="s1" d="m56.3 144.4c-1.4 0-2.7-0.2-3.9-0.3-2.1-0.3-4.1-0.6-6.4 0-0.2 0-0.3-0.1-0.4-0.2-0.1-0.2 0-0.4 0.2-0.5 0 0 1.4-0.8 4.9-1.6 1.3-0.3 2.5-1.1 3.7-1.9 1.9-1.2 4.1-2.6 7.4-2.9 5.3-0.3 9 3.2 9.2 3.3 0.1 0.2 0.1 0.3 0 0.5 0 0.1-0.2 0.2-0.4 0.2 0 0-2.6-0.6-5.2 0.3-1 0.3-1.7 0.8-2.4 1.2-1.3 0.8-2.7 1.7-5.5 1.9q-0.6 0-1.2 0zm-7.3-1.4c1.1 0 2.3 0.2 3.5 0.3 1.5 0.3 3.2 0.5 5 0.4 2.6-0.3 3.8-1 5.1-1.8 0.7-0.5 1.5-0.9 2.5-1.3 1.7-0.6 3.3-0.6 4.4-0.5-1.4-1-4.2-2.5-7.7-2.3-3.1 0.2-5 1.5-7 2.7-1.3 0.8-2.5 1.6-3.9 2q-1.1 0.3-1.9 0.5z"/>
	<path id="Layer" fill-rule="evenodd" class="s1" d="m79 146.2c-0.1 0-0.3-0.1-0.3-0.3q0 0 0 0c-0.2-0.7-0.6-1.4-1-2.2-1-1.9-2.2-4.2-2.2-7.6 0.1-2.2 0.6-3.9 1.2-5.6 0.4-1.3 0.8-2.6 0.9-4 0-0.2 0.2-0.3 0.4-0.3 0.2 0 0.3 0.1 0.3 0.3 0 0 0.1 2.7 0.9 5.2 0.9 2.6 1.2 5.9 0.7 8l-0.2 1c-0.3 1.1-0.4 1.3-0.6 2.6-0.1 0.8 0.2 2 0.3 2.4q0 0 0 0.1c0 0.1-0.1 0.3-0.3 0.4q0 0-0.1 0zm-1.1-17q-0.3 0.8-0.5 1.5c-0.6 1.7-1.1 3.3-1.1 5.4-0.1 3.2 1.1 5.4 2 7.2q0.1 0.1 0.1 0.1 0-0.1 0-0.2c0.2-1.3 0.3-1.5 0.6-2.7l0.2-0.9c0.5-2 0.2-5.2-0.7-7.7-0.3-0.9-0.5-1.9-0.6-2.7z"/>
	<path id="Layer" fill-rule="evenodd" class="s0" d="m67.6 154.5q-0.2 0-0.3-0.2c-0.1-0.2-0.1-0.4 0.1-0.5 0 0 1.1-0.8 2.4-2.4l0.1-0.1c1.1-1.3 1.8-2.2 3.3-3 1.2-0.7 3.7-1.3 6.8-1.1 2.8 0.2 4.2 0.9 4.2 0.9 0.2 0.1 0.3 0.3 0.2 0.5 0 0.1-0.2 0.2-0.3 0.2q-0.1 0-0.1 0c0 0-1.1 0-2.5 0.8-0.6 0.3-0.9 0.7-1.3 1.1-0.6 0.7-1.4 1.6-3.4 2.5-2 0.9-4.1 1-6 1-1.2 0-2.3 0-3.1 0.3q-0.1 0-0.1 0zm11.1-6.6c-2.3 0-4.2 0.5-5.1 1-1.4 0.7-2.1 1.6-3.2 2.9l-0.1 0.1c-0.6 0.7-1.1 1.2-1.5 1.6q0.9 0 1.9 0c1.9-0.1 4-0.1 5.8-1 1.8-0.8 2.5-1.6 3.2-2.3 0.4-0.5 0.8-0.9 1.4-1.3q0.8-0.4 1.5-0.6c-0.7-0.1-1.5-0.3-2.7-0.4q-0.6 0-1.2 0z"/>
	<path id="Layer" fill-rule="evenodd" class="s1" d="m93.6 152.8q-0.2 0-0.3-0.2 0 0-0.3-0.4c-0.5-0.7-1.2-1.3-1.9-2-1.2-1-2.5-2.2-3.3-3.9-1.6-3.1-1.4-7-1-10.7 0-0.2 0.1-0.3 0.3-0.3q0.3 0 0.4 0.2c0 0.1 0.7 2.6 1.9 4.3q0.4 0.5 0.7 1c1 1.3 2 2.5 2.4 5.7v0.4c0.1 1.1 0.3 2.6 0.5 3.4 0.2 0.6 0.5 1.2 0.6 1.5q0.2 0.2 0.3 0.4c0.1 0.2 0 0.4-0.1 0.5q-0.1 0.1-0.2 0.1zm-6.2-15.4c-0.2 3-0.2 6.1 1 8.6 0.8 1.6 2 2.6 3.2 3.7q0.3 0.3 0.7 0.6c-0.2-0.9-0.4-2.2-0.5-3.3l-0.1-0.4c-0.3-3-1.2-4.1-2.1-5.4q-0.4-0.4-0.8-1c-0.6-0.9-1.1-1.9-1.4-2.8z"/>
	<path id="Layer" fill-rule="evenodd" class="s0" d="m106.8 156.5q-0.1 0-0.1 0c-0.2 0-3.6-1.2-4.7-4.6-0.7-2.1-0.7-3.7-0.8-5.4 0-0.9 0-1.9-0.2-3 0-0.2 0.1-0.4 0.3-0.4 0.2 0 0.4 0.1 0.4 0.3 0.4 1.6 1.5 2.8 2.5 4.1 0.9 1.1 1.8 2.2 2.4 3.5 1.1 2.9 0.6 5.1 0.5 5.2q0 0.2-0.1 0.3-0.1 0-0.2 0zm-4.9-10.9q0 0.5 0.1 0.9c0 1.6 0.1 3.2 0.7 5.2 0.7 2.4 2.9 3.6 3.8 4 0.1-0.8 0.1-2.5-0.6-4.4-0.5-1.2-1.3-2.3-2.2-3.3-0.6-0.8-1.3-1.6-1.8-2.4z"/>
	<path id="Layer" fill-rule="evenodd" class="s1" d="m87 160.9c-0.2 0-0.3-0.1-0.4-0.3 0-0.1 0-0.3 0.1-0.4 0.8-0.6 1.3-1.2 1.8-1.9 0.9-1.2 1.9-2.4 3.9-3.4 2-0.9 3.2-0.9 4.4-0.9 0.7 0 1.4 0 2.2-0.2q0.3-0.1 0.4 0.1c0.1 0.1 0.1 0.3 0.1 0.4-0.1 0.1-1.1 2.1-4.2 4.3-3.1 2.2-8.1 2.3-8.3 2.3q0 0 0 0zm9.4-6.2c-1 0-2 0.1-3.7 0.9-1.8 0.8-2.7 2-3.6 3.1q-0.5 0.7-1.1 1.4c1.6-0.2 4.8-0.6 6.9-2.1 1.9-1.4 3-2.6 3.5-3.4-0.6 0.1-1.1 0.1-1.6 0.1q-0.2 0-0.4 0z"/>
	<path id="Layer" class="s0" d="m74.2 40.7c0 0-0.5 0.5-1.5 1.3-1 0.9-2.5 2.2-4.2 3.9-3.5 3.4-8.4 8.6-12.4 16.1-2 3.7-3.8 7.9-5.1 12.5-1.4 4.7-2 9.7-2.3 15 0 5.2 0.3 10.7 1.4 16.1l0.9 4.1c0.4 1.3 0.9 2.6 1.3 4 0.7 2.6 2.1 5.1 3.2 7.7 2.7 4.9 5.9 9.5 9.8 13.4 4 3.9 8.3 7.2 12.9 9.9 9.1 5.3 18.5 8.4 26.7 10.4 4.1 1 7.9 1.9 11.3 2.8 3.3 0.9 6.2 1.9 8.5 2.8 2.3 0.9 4.1 1.7 5.3 2.4 1.2 0.7 1.8 1.2 1.8 1.2 0.2 0.2 0.2 0.6 0 0.8-0.2 0.2-0.5 0.2-0.7 0 0 0-0.5-0.4-1.6-1-1.2-0.7-2.9-1.5-5.2-2.4-2.3-0.9-5.1-1.8-8.4-2.7-3.3-1-7.1-1.8-11.3-2.8-8.2-2.1-17.8-5.1-27-10.6-4.6-2.7-9-6.1-13.1-10-4-3.9-7.3-8.7-10-13.7-1.2-2.6-2.5-5.1-3.3-7.9-0.4-1.3-0.9-2.7-1.3-4.1l-0.9-4.1c-1.1-5.5-1.5-11-1.4-16.4 0.3-5.3 0.9-10.5 2.4-15.2 1.3-4.7 3.2-9 5.3-12.7 4.1-7.5 9-12.8 12.6-16.2 1.8-1.8 3.3-3 4.3-3.9 1-0.8 1.5-1.3 1.5-1.3 0.2-0.1 0.5-0.1 0.6 0.1 0.1 0.1 0.1 0.4-0.1 0.5z"/>
	<path id="Layer" fill-rule="evenodd" class="s0" d="m151.7 154c-4.5-0.4-6.3-1.6-8.1-2.8-0.6-0.4-1.2-0.8-1.9-1.2-2.8-1.6-4.7-1.5-4.7-1.5-0.1 0-0.1 0-0.2-0.1q0-0.1 0.1-0.2c0.1-0.1 2.7-1.2 6 0 2.1 0.8 3.2 1.7 4.4 2.5q0.4 0.3 0.8 0.6c2.7 1.9 3.7 2.3 3.7 2.4 0.1 0 0.2 0.1 0.1 0.2q0 0.1-0.1 0.1 0 0-0.1 0zm-13.7-5.8c0.8 0.2 2.2 0.5 3.9 1.5 0.7 0.4 1.3 0.8 1.9 1.2 1.7 1.1 3.3 2.2 7 2.6-0.6-0.3-1.5-0.9-3-1.9q-0.3-0.3-0.7-0.6c-1.2-0.8-2.3-1.7-4.3-2.4-1.1-0.4-2.1-0.6-3-0.6-0.7 0-1.4 0.1-1.8 0.2z"/>
	<path id="Layer" fill-rule="evenodd" class="s1" d="m165 143.4c-2.1-0.1-3.4-0.7-5.1-1.6q-1-0.5-2.2-1c-3-1.3-7.7-0.5-7.8-0.5-0.1 0-0.2 0-0.2-0.1 0-0.1 0-0.2 0.1-0.2 0.2-0.1 4.4-1.8 7.7-1.3 2 0.3 3.1 0.9 4.3 1.5 0.9 0.5 1.8 1 3.1 1.4 1.7 0.5 3 0.7 4.3 0.8 1.1 0.2 2.1 0.3 3 0.7 0.1 0 0.2 0.1 0.1 0.2 0 0.1-0.1 0.1-0.2 0.1-1.1-0.2-2-0.1-3.2-0.1-0.7 0.1-1.5 0.1-2.6 0.1q-0.6 0-1.3 0zm4.1-0.6c-1.2-0.1-2.6-0.3-4.3-0.8-1.3-0.5-2.3-1-3.2-1.4-1.2-0.7-2.2-1.3-4.1-1.5-2-0.3-4.3 0.2-5.9 0.7 1.7-0.2 4.3-0.2 6.2 0.7q1.3 0.5 2.2 1c1.7 0.8 3 1.5 5 1.5 1.7 0.1 2.9 0 3.9 0q0.6-0.1 1.2-0.1-0.5-0.1-1-0.1z"/>
	<path id="Layer" fill-rule="evenodd" class="s1" d="m165.2 140.7c-4.7-3.5-8.1-3-8.1-3-0.2 0-0.4-0.1-0.4-0.2-0.1-0.2 0-0.4 0.1-0.5 2.4-1.4 7-1.6 10.2-1.3 3.4 0.4 6.2 0.4 6.2 0.4 0.2 0 0.4 0.1 0.4 0.3 0 0.1 0 0.3-0.2 0.4 0 0-2.2 0.9-3.9 2.2-1.8 1.4-3.9 1.7-4 1.7q0 0-0.1 0-0.1 0-0.2 0zm1.7-4.2c-2.5-0.3-5.8-0.2-8.2 0.5 1.5 0.2 3.9 0.9 6.8 3 0.5-0.1 2.1-0.5 3.6-1.6 0.9-0.6 1.9-1.2 2.7-1.6-1.2-0.1-3-0.1-4.9-0.3z"/>
	<path id="Layer" fill-rule="evenodd" class="s0" d="m175.4 122.4c-2.2-0.1-3.8-0.7-5.2-1.2-1.6-0.5-2.9-1-4.5-0.8q-0.3 0-0.4-0.2c0-0.2 0-0.3 0.1-0.4 0.1-0.1 1.6-1.5 7.9-2.6 4.6-0.8 7.2-3.4 7.2-3.4q0.1-0.1 0.2-0.1c0.1-0.1 3.6-1.3 9-1.3 0.2 0 0.4 0.2 0.4 0.4 0 0.2-0.1 0.3-0.3 0.4 0 0-3 0.4-5.7 2.8-0.8 0.8-1.5 1.6-2.1 2.4-1.6 2-3.3 4-6.4 4q-0.1 0-0.2 0zm5.6-8.1c-0.5 0.5-3.1 2.9-7.6 3.7-3.3 0.5-5.3 1.2-6.3 1.7 1.1 0.1 2.2 0.4 3.3 0.8 1.4 0.5 2.9 1.1 5 1.1q0.1 0 0.2 0c2.8 0 4.2-1.7 5.8-3.7 0.7-0.8 1.4-1.6 2.2-2.4 1.2-1.1 2.5-1.8 3.5-2.2-3.4 0.2-5.7 0.9-6.1 1z"/>
	<path id="Layer" fill-rule="evenodd" class="s0" d="m167.1 118.9c-0.1 0-0.1-0.1 0-0.2 1.2-1.4 2.5-2.7 3.9-4.2 0.9-1 1.9-2.1 3-3.3 3.1-3.2 5-5 8.7-7.3 3.8-2.3 6.1-4 6.2-4 0-0.1 0.1 0 0.2 0 0.1 0.1 0.1 0.2 0 0.3-1.1 1-2.1 2.5-3.4 4.2-2 2.9-4.3 6.1-7.4 8.5-3.2 2.4-5.5 3.4-7.5 4.3-1.2 0.6-2.3 1-3.5 1.8q0 0-0.1 0 0 0-0.1-0.1zm15.8-14.7c-3.7 2.3-5.6 4-8.6 7.3-1.1 1.2-2.1 2.2-3 3.2-1.1 1.2-2.2 2.3-3.1 3.4 0.8-0.5 1.6-0.8 2.5-1.2 2-0.9 4.2-1.9 7.4-4.3 3.1-2.4 5.3-5.6 7.3-8.4 0.9-1.1 1.6-2.2 2.3-3.1-1 0.8-2.7 1.8-4.8 3.1z"/>
	<path id="Layer" fill-rule="evenodd" class="s1" d="m163.2 117c-2.7-3.2-4-4-8.5-6.4l-1.3-0.7c-5.5-2.9-6.7-9-6.7-9.1q0-0.1 0.1-0.2 0.2 0 0.2 0.1c1.9 3.7 5.5 5.6 8.3 7.1l0.6 0.4c2.8 1.5 7 5.3 7.6 8.6q0.1 0.1-0.1 0.2 0 0 0 0-0.1 0-0.2 0zm-9.6-7.4l1.2 0.7c4.2 2.2 5.8 3.1 8.2 5.8-1-2.8-4.4-6.1-7.2-7.6l-0.6-0.3c-2.6-1.4-5.7-3.1-7.7-6.1 0.6 2 2.3 5.5 6.1 7.5z"/>
	<path id="Layer" fill-rule="evenodd" class="s1" d="m163.2 117.6q0-0.1 0-0.1c0-0.7-0.2-4.9-3-7.9-1.5-1.6-4.9-3.4-5-3.5q-0.1 0-0.2-0.1c-0.4-1.3-0.6-8.1-0.7-8.8 0-0.2 0.1-0.3 0.3-0.4 0.2 0 0.4 0 0.4 0.2 1.1 2 2.3 3.4 3.6 4.8 0.7 0.8 1.5 1.7 2.2 2.7 3.1 4.1 3.1 8 3.2 11.7q0 0.6 0 1.2 0 0.2 0 0.2c0 0.2-0.2 0.3-0.4 0.3-0.2 0-0.4-0.1-0.4-0.3zm-7.5-12c0.7 0.3 3.6 2 5 3.5 1.2 1.3 2 2.8 2.5 4.1-0.2-2.7-0.8-5.4-2.9-8.2-0.8-1-1.6-1.9-2.3-2.7-1-1.1-2-2.2-2.9-3.7 0.1 2.4 0.3 6 0.6 7z"/>
	<path id="Layer" fill-rule="evenodd" class="s0" d="m167.6 96.6c-4.7-1.8-7-4.6-9.1-7.3q-0.6-0.8-1.2-1.5c-2.5-3.1-4.9-5.1-4.9-5.2-0.1 0-0.1-0.1 0-0.2 0-0.1 0.1-0.1 0.2-0.1 1.4 0.9 2.7 1.5 3.8 2 2.4 1.2 4.3 2.1 6.3 4.3 1.8 1.9 2.5 3.3 3.3 4.7 0.5 1 1 1.9 1.8 3q0.1 0.1 0 0.2 0 0.1-0.1 0.1 0 0-0.1 0zm-10-9q0.6 0.7 1.2 1.5c2 2.5 4.1 5.2 8.4 6.9-0.6-0.9-1.1-1.7-1.5-2.5-0.8-1.4-1.5-2.8-3.2-4.6-2-2.2-3.9-3.1-6.3-4.3q-1.1-0.5-2.5-1.2c0.9 0.9 2.4 2.3 3.9 4.2z"/>
	<path id="Layer" fill-rule="evenodd" class="s1" d="m173.7 89.5c-0.1 0-0.1-0.1-0.1-0.2 0.6-1.3 1.2-3.2 1.7-5.3 0.8-2.6 1.5-5.3 2.5-7.3 3-6.1 9.7-13.3 9.8-13.4q0.1-0.1 0.2 0c0.1 0.1 0.1 0.2 0.1 0.2-0.8 1.4-1.7 3.6-2.6 5.9-1.3 3.1-2.6 6.5-4.1 9-2.7 4.5-4.5 7.3-7.2 11.1q-0.1 0.1-0.2 0.1 0 0-0.1-0.1zm4.4-12.6c-0.9 1.9-1.7 4.6-2.4 7.2-0.4 1.5-0.8 2.8-1.2 4 2.3-3.2 4-5.9 6.4-9.9 1.4-2.5 2.8-5.9 4-8.9 0.7-1.8 1.4-3.4 2-4.7-1.9 2.2-6.5 7.6-8.8 12.3z"/>
	<path id="Layer" fill-rule="evenodd" class="s1" d="m174 83.5c0-0.2-0.3-3.6 0.8-8.1 1.2-5.1 3.8-8.2 5.5-10.2l0.4-0.4c1.6-2 2-3.2 2-3.2 0.1-0.2 0.2-0.3 0.4-0.3 0.1 0 0.3 0.2 0.3 0.3 0.5 3.5-0.3 5.9-0.3 6q0 0.1-0.1 0.2c-0.1 0-3.1 2.2-5.5 5.7-2.3 3.4-2.8 9.9-2.8 10 0 0.2-0.2 0.3-0.4 0.3-0.2 0-0.3-0.1-0.3-0.3zm8.8-20.5c-0.3 0.5-0.8 1.3-1.6 2.2l-0.4 0.5c-1.7 2.1-4.1 4.9-5.3 9.9q-0.2 0.6-0.3 1.2c0.4-1.3 1-2.7 1.7-3.8 2.3-3.2 5-5.3 5.6-5.7 0.1-0.4 0.5-2.1 0.3-4.3z"/>
	<path id="Layer" fill-rule="evenodd" class="s1" d="m158 58.1c-0.1 0-8.5-0.3-13.7-2.2-5.3-1.9-11.7-6.8-11.7-6.8q-0.1-0.1-0.1-0.3c0.1 0 0.2-0.1 0.2-0.1 0.1 0.1 9.6 3.1 13.6 4.5 1.9 0.7 3.8 1.5 5.7 2.3 2.1 0.8 4.2 1.6 6 2.3 0.1 0 0.2 0.1 0.2 0.2-0.1 0.1-0.1 0.1-0.2 0.1q0 0 0 0zm-13.6-2.5c4 1.4 9.8 1.9 12.3 2.1-1.5-0.6-3.1-1.2-4.8-1.9-1.9-0.8-3.9-1.5-5.8-2.2-3.1-1.2-9.8-3.3-12.4-4.2 1.9 1.4 6.7 4.7 10.7 6.2z"/>
	<path id="Layer" fill-rule="evenodd" class="s1" d="m152.5 75.2c-7.1-0.3-12.7-2.7-12.8-2.7 0-0.1-0.1-0.1-0.1-0.2 0.1-0.1 0.2-0.2 0.3-0.2 2.4 0.7 5.6 0.5 8.9 0.2 1.6-0.1 3.2-0.2 4.8-0.2q0.2 0 0.3 0c4.9 0 11.1 2.2 11.2 2.2 0.1 0 0.1 0.1 0.1 0.2q0 0.1-0.2 0.1c-2.3-0.3-3.6 0-5.2 0.2-1.3 0.2-2.8 0.5-5.2 0.5q-0.9 0-2.1-0.1zm11-1.1c-2.2-0.6-6.2-1.7-9.6-1.7q-0.1 0-0.3 0c-1.5 0.1-3.2 0.2-4.8 0.3-2.5 0.2-4.9 0.4-7 0.1 2.2 0.8 6.2 1.8 10.7 2.1 3.7 0.2 5.6-0.2 7.3-0.4 1-0.2 2-0.4 3.2-0.4q0.2 0 0.5 0z"/>
	<path id="Layer" fill-rule="evenodd" class="s1" d="m164.6 74.2c-0.1 0-3.4-2.9-8.8-3.4-3.3-0.3-6.7 0.3-6.7 0.4q-0.1 0-0.2-0.1c-4.6-1.6-5.5-4.3-5.6-4.4q0-0.2 0.1-0.3c0.1-0.1 0.3-0.2 0.4-0.1 2.8 0.9 5.2 1 7.6 0.9 2.2 0.1 4.4 0 6.8 0.8 5.1 1.7 6.9 5.6 6.9 5.8 0.1 0.1 0.1 0.3-0.1 0.4q-0.1 0.1-0.2 0.1-0.1 0-0.2-0.1zm-13.2-6.2c-2.2 0-4.4 0-7-0.8 0.6 0.9 1.9 2.2 4.6 3.2 0.6-0.1 3.7-0.6 6.9-0.3 3.5 0.3 6.1 1.5 7.6 2.5-0.9-1.3-2.7-3-5.5-3.9-2.2-0.7-4.2-0.7-6.3-0.7q-0.2 0-0.3 0z"/>
	<path id="Layer" fill-rule="evenodd" class="s1" d="m127.4 150.7c-0.1 0-0.2-0.1-0.1-0.2 0.6-3.5 1.8-5.8 2.8-7.7q0.2-0.4 0.4-0.7c1.1-2.1 1.9-5.3 1.9-5.4q0-0.1 0.2-0.1c0.1 0 0.1 0.1 0.1 0.2 0.2 3.3-0.9 6.9-2.1 9.1-0.6 1.2-1.1 1.9-1.6 2.5-0.5 0.6-0.9 1.2-1.4 2.2q-0.1 0.1-0.2 0.1 0 0 0 0zm3.4-8.5q-0.2 0.4-0.4 0.8c-0.9 1.7-1.9 3.6-2.5 6.3 0.2-0.4 0.5-0.8 0.8-1.2 0.5-0.6 1-1.2 1.6-2.3 1-1.9 1.9-4.8 2.1-7.6-0.4 1.2-0.9 2.8-1.6 4z"/>
	<path id="Layer" fill-rule="evenodd" class="s1" d="m126.2 152.8q-0.3-0.1-0.3-0.3c-0.1-0.4-0.2-0.7-0.4-1-0.3-0.8-0.7-1.7-0.7-3.4-0.1-1.6 0.2-3.1 0.5-4.5q0.2-0.8 0.3-1.6c0.5-3.2 0.2-4.3 0.2-4.3 0-0.2 0.1-0.4 0.2-0.5 0.2 0 0.4 0 0.5 0.2 2.2 3.7 1.9 6.8 1.9 7q0 0 0 0c-0.3 1.4-0.4 2.8-0.5 3.9-0.2 0.9-0.3 1.6-0.4 2.1-0.3 1.2-0.7 1.8-0.7 1.9l-0.3 0.3q-0.1 0.2-0.3 0.2 0 0 0 0zm0.4-13.6c0 0.7-0.1 1.7-0.3 2.9q-0.1 0.8-0.3 1.6c-0.2 1.4-0.5 2.9-0.5 4.4 0.1 1.6 0.4 2.4 0.7 3.1q0.1 0.2 0.2 0.4c0.1-0.3 0.2-0.7 0.4-1.3 0.1-0.5 0.2-1.3 0.3-2.1 0.2-1.1 0.4-2.5 0.7-3.9 0-0.3 0-2.4-1.2-5.1z"/>
	<path id="Layer" fill-rule="evenodd" class="s1" d="m145.8 40.9q-0.1-0.1-0.1-0.2c-0.7-0.7-3.3-3.8-4.8-5.4-1.8-1.8-5.2-4.7-5.2-4.7q-0.1 0-0.1-0.1c-1.5-2.6-2.5-7.9-2.5-8.1 0-0.1 0.1-0.3 0.2-0.4 0.2 0 0.3 0 0.4 0.1 0.8 0.9 2 1.7 3.3 2.5 2 1.3 4.4 2.9 5.6 5.2 0.9 1.8 1.5 4 2 5.9 0.5 1.9 1 3.7 1.6 4.5q0.2 0.2 0.2 0.2c0.1 0.1 0.1 0.4-0.1 0.5q-0.1 0.1-0.2 0.1-0.2 0-0.3-0.1zm-9.6-10.8c0.4 0.4 3.5 2.9 5.2 4.7 0.9 0.9 2.2 2.3 3.2 3.5q-0.4-1.1-0.7-2.4c-0.5-1.9-1.1-4.1-2-5.8-1.1-2.1-3.3-3.6-5.3-4.9-0.9-0.6-1.8-1.2-2.5-1.8 0.3 1.7 1.1 4.9 2.1 6.7z"/>
	<path id="Layer" fill-rule="evenodd" class="s0" d="m145.8 41c-0.6-0.5-2.3-0.9-4.3-1.4-3-0.8-6.9-1.8-9.8-3.6-2.3-1.5-4.8-3.8-6.9-5.8-2.2-2.1-4.2-4-5.5-4.4-0.1-0.1-0.2-0.3-0.2-0.4 0-0.2 0.2-0.4 0.4-0.3 0.5 0 11.9 0.9 17.5 5.6 6.3 5.3 9.3 9.7 9.3 9.8 0.1 0.1 0.1 0.3-0.1 0.4q-0.1 0.1-0.2 0.1-0.1 0-0.2 0zm-20.5-11.4c2.1 2.1 4.5 4.3 6.8 5.8 2.8 1.8 6.6 2.7 9.6 3.5 1.2 0.3 2.3 0.6 3.1 0.9-1.2-1.7-4-4.9-8.3-8.6-4.2-3.4-11.9-4.8-15.4-5.2 1.2 0.9 2.6 2.2 4.2 3.6z"/>
	<path id="Layer" fill-rule="evenodd" class="s0" d="m145.4 40.3c0 0-7.2-2.9-12.5-6.3-1.8-1.2-3.4-2.3-4.9-3.3-2.7-1.8-5-3.3-7.8-4.9-0.1-0.1-0.2-0.2-0.1-0.3 0 0 0.1-0.1 0.2-0.1 0.1 0.1 9.1 3 12.5 5.1 1.7 1 3.8 2.7 6.2 4.6 2.3 1.8 4.7 3.7 6.6 4.9 0.1 0 0.1 0.1 0.1 0.2q-0.1 0.1-0.2 0.1 0 0-0.1 0zm-17.2-9.9c1.5 1 3.1 2.1 4.9 3.3 3.7 2.3 8.2 4.4 10.6 5.5-1.5-1.1-3.3-2.5-5-3.8-2.3-1.9-4.4-3.6-6.1-4.6-2.5-1.5-7.9-3.5-10.7-4.4 2.2 1.3 4.1 2.6 6.3 4z"/>
	<path id="Layer" class="s1" d="m152.6 46.3q0 0 0.1-0.1c0 0 0.1-0.1 0-0.2-1.9-2.9-3.4-6.1-4.5-9.4-0.1-0.1-0.2-0.1-0.3-0.1-0.1 0.1-0.1 0.2-0.1 0.3 1.2 3.3 2.7 6.4 4.6 9.4q0.1 0.1 0.2 0.1z"/>
	<path id="Layer" class="s1" d="m156.4 50.9q0.1 0 0.1-0.1c0.1-0.1 0.1-0.2 0-0.3-3.4-2.3-7.1-4.1-11-5.3-0.1 0-0.2 0.1-0.2 0.2-0.1 0.1 0 0.2 0.1 0.2 3.9 1.1 7.5 2.9 10.9 5.2q0 0.1 0.1 0.1z"/>
	<path id="Layer" class="s1" d="m158.7 53.9q0.1 0 0.1-0.1c0.1 0 0.1-0.1 0.1-0.2-1.2-2.9-1.8-6-2-9.1q0-0.1-0.1-0.2c-0.1 0.1-0.2 0.1-0.2 0.2 0.1 3.2 0.8 6.3 1.9 9.2q0.1 0.1 0.2 0.2z"/>
	<path id="Layer" class="s1" d="m168 70.3c0.1 0 0.2-0.1 0.2-0.2 0.1-3.3 0.5-6.6 1.4-9.7 0-0.1-0.1-0.2-0.2-0.3 0 0-0.2 0.1-0.2 0.2-0.8 3.2-1.3 6.5-1.3 9.8 0 0.1 0 0.2 0.1 0.2q0 0 0 0z"/>
	<path id="Layer" class="s1" d="m167.4 69.4q0.1 0 0.1-0.1c0.1-0.1 0.1-0.2 0-0.3-2.3-2.2-5-4-7.9-5.4-0.1-0.1-0.2 0-0.2 0-0.1 0.1 0 0.2 0.1 0.3 2.8 1.4 5.5 3.2 7.8 5.4q0 0.1 0.1 0.1z"/>
	<path id="Layer" class="s1" d="m171.3 83.9c0.1 0 0.2-0.1 0.2-0.2-0.1-3.2 0.4-6.5 1.4-9.6 0-0.1 0-0.2-0.1-0.2-0.1-0.1-0.2 0-0.3 0.1-1 3.1-1.5 6.4-1.4 9.7 0 0.1 0.1 0.2 0.2 0.2z"/>
	<path id="Layer" class="s1" d="m171.4 96.4q0 0 0 0c0.1 0 0.2-0.1 0.2-0.2-0.3-3.3-1.4-6.6-3.1-9.4 0-0.1-0.1-0.1-0.2-0.1-0.1 0.1-0.1 0.2-0.1 0.3 1.7 2.8 2.7 6 3 9.2 0 0.1 0.1 0.2 0.2 0.2z"/>
	<path id="Layer" class="s1" d="m170.7 104.2q0.1 0 0.2-0.1c1.2-2.7 2.9-5 5.1-6.9 0.1-0.1 0.1-0.2 0-0.3 0 0-0.1-0.1-0.2 0-2.2 1.9-4.1 4.4-5.3 7 0 0.1 0.1 0.2 0.1 0.3q0.1 0 0.1 0z"/>
	<path id="Layer" class="s1" d="m169.7 109.2q0.1 0 0.2-0.1 0.8-1.6 2.2-2.7c0.1 0 0.1-0.1 0-0.2 0-0.1-0.1-0.1-0.2 0q-1.4 1.1-2.4 2.7c0 0.1 0 0.2 0.1 0.2q0.1 0.1 0.1 0.1z"/>
	<path id="Layer" class="s1" d="m165.8 119.6c0.1 0 0.2-0.1 0.2-0.1 0.6-4.6 0.4-9.2-0.6-13.7 0-0.1-0.1-0.2-0.2-0.1-0.1 0-0.2 0.1-0.2 0.2 1 4.4 1.2 9 0.6 13.5 0 0.1 0.1 0.2 0.2 0.2q0 0 0 0z"/>
	<path id="Layer" class="s1" d="m161.8 127.2q0.1 0 0.1-0.1c1-1.1 2.3-1.9 3.8-2.2 0.1-0.1 0.2-0.1 0.1-0.2 0-0.1-0.1-0.2-0.2-0.2-1.5 0.3-2.9 1.2-3.9 2.4-0.1 0-0.1 0.2 0 0.2q0 0.1 0.1 0.1z"/>
	<path id="Layer" class="s1" d="m158.7 131.2q0.2 0 0.2-0.2c0.9-4.2 1.1-7.4 0.5-10.4 0-0.1-0.1-0.2-0.2-0.2-0.1 0-0.1 0.1-0.1 0.2 0.5 3.1 0.4 6.1-0.5 10.3-0.1 0.1 0 0.2 0.1 0.3q0 0 0 0z"/>
	<path id="Layer" class="s1" d="m156.7 133.7q0 0 0.1 0c2.3-1.2 4.8-1.8 7.3-1.8 0.1 0 0.2-0.1 0.2-0.2 0-0.1-0.1-0.2-0.2-0.2q0 0 0 0c-2.6 0.1-5.2 0.7-7.5 1.9-0.1 0-0.1 0.1-0.1 0.2q0.1 0.1 0.2 0.1z"/>
	<path id="Layer" class="s1" d="m145 143.5q0 0 0.1-0.1c1.9-2.3 3.1-5 3.6-7.9 0.1-0.1 0-0.2-0.1-0.2q-0.2 0-0.2 0.1c-0.5 2.9-1.8 5.6-3.6 7.8 0 0.1 0 0.2 0 0.3q0.1 0 0.2 0z"/>
	<path id="Layer" class="s1" d="m150.9 145c0.1 0 0.2-0.1 0.2-0.1 0-0.1-0.1-0.2-0.2-0.2-2.9-0.5-5.8-0.5-8.7-0.2-0.1 0-0.2 0.1-0.2 0.2q0 0.2 0.2 0.2c2.9-0.4 5.8-0.3 8.7 0.1q0 0 0 0z"/>
	<path id="Layer" class="s1" d="m131.1 150.7q0.1 0 0.1-0.1c2-1.6 3.6-3.7 4.7-5.9 0.1-0.1 0-0.2 0-0.3-0.1 0-0.2 0-0.3 0.1-1.1 2.2-2.7 4.3-4.6 5.9-0.1 0-0.1 0.2 0 0.2q0 0.1 0.1 0.1z"/>
	<path id="Layer" class="s1" d="m133.1 153.3q0.1 0 0.2-0.1 0-0.1 0-0.2c0 0-0.5-0.2-0.5-0.2-1.9-0.7-3.9-0.9-5.9-0.7-0.1 0-0.2 0.1-0.2 0.2 0 0.1 0.1 0.2 0.2 0.1 2.1-0.2 4.2 0.1 6.2 0.9q0 0 0 0z"/>
	<path id="Layer" class="s0" d="m147.7 36.7c-0.7 0-1.2-0.6-1.2-1.2 0-0.7 0.5-1.3 1.2-1.3 0.7 0 1.3 0.6 1.3 1.3 0 0.6-0.6 1.2-1.3 1.2z"/>
	<path id="Layer" class="s0" d="m169.8 60.4c-0.7 0-1.2-0.5-1.2-1.2 0-0.7 0.5-1.3 1.2-1.3 0.7 0 1.3 0.6 1.3 1.3 0 0.7-0.6 1.2-1.3 1.2z"/>
	<path id="Layer" class="s1" d="m165.4 132.9c-0.7 0-1.2-0.6-1.2-1.3 0-0.7 0.5-1.2 1.2-1.2 0.7 0 1.3 0.5 1.3 1.2 0 0.7-0.6 1.3-1.3 1.3z"/>
	<path id="Layer" class="s0" d="m166.8 86c0 0.6 0.5 1 1 1 0.6 0 1-0.4 1-1 0-0.5-0.4-1-1-1-0.5 0-1 0.5-1 1z"/>
	<path id="Layer" class="s1" d="m172.8 106.9c-0.5 0-1-0.5-1-1 0-0.6 0.5-1 1-1 0.5 0 1 0.4 1 1 0 0.5-0.5 1-1 1z"/>
	<path id="Layer" class="s0" d="m158.1 119.7c0 0.5 0.4 1 1 1 0.5 0 1-0.5 1-1 0-0.6-0.5-1-1-1-0.6 0-1 0.4-1 1z"/>
	<path id="Layer" class="s0" d="m151.8 146c-0.5 0-1-0.4-1-1 0-0.5 0.5-1 1-1 0.6 0 1 0.5 1 1 0 0.6-0.4 1-1 1z"/>
	<path id="Layer" class="s0" d="m136.2 144.7c-0.5 0-1-0.5-1-1 0-0.6 0.5-1 1-1 0.5 0 1 0.4 1 1 0 0.5-0.5 1-1 1z"/>
	<path id="Layer" class="s0" d="m144.1 46.5c-0.7 0-1.3-0.6-1.3-1.3 0-0.7 0.6-1.3 1.3-1.3 0.7 0 1.2 0.6 1.2 1.3 0 0.7-0.5 1.3-1.2 1.3z"/>
	<path id="Layer" class="s1" d="m156.7 44.6c-0.7 0-1.3-0.5-1.3-1.2 0-0.7 0.6-1.3 1.3-1.3 0.7 0 1.2 0.6 1.2 1.3 0 0.7-0.5 1.2-1.2 1.2z"/>
	<path id="Layer" class="s0" d="m158.3 64.5c-0.7 0-1.4-0.6-1.4-1.3 0-0.8 0.7-1.4 1.4-1.4 0.8 0 1.4 0.6 1.4 1.4 0 0.7-0.6 1.3-1.4 1.3z"/>
	<path id="Layer" class="s0" d="m176.9 97.5c-0.7 0-1.4-0.6-1.4-1.3 0-0.8 0.7-1.4 1.4-1.4 0.8 0 1.4 0.6 1.4 1.4 0 0.7-0.6 1.3-1.4 1.3z"/>
	<path id="Layer" class="s1" d="m173.1 74.2c-0.6 0-1-0.5-1-1.1 0-0.6 0.4-1 1-1 0.6 0 1.1 0.4 1.1 1 0 0.6-0.5 1.1-1.1 1.1z"/>
	<path id="Layer" class="s1" d="m163.9 104.8c0 0.6 0.5 1.1 1.1 1.1 0.6 0 1-0.5 1-1.1 0-0.5-0.4-1-1-1-0.6 0-1.1 0.5-1.1 1z"/>
	<path id="Layer" class="s0" d="m166.7 125.5c-0.6 0-1.1-0.5-1.1-1.1 0-0.5 0.5-1 1.1-1 0.5 0 1 0.5 1 1 0 0.6-0.5 1.1-1 1.1z"/>
	<path id="Layer" class="s1" d="m134.2 154.4c-0.6 0-1.1-0.4-1.1-1 0-0.6 0.5-1.1 1.1-1.1 0.5 0 1 0.5 1 1.1 0 0.6-0.5 1-1 1z"/>
	<path id="Layer" class="s1" d="m147.6 134.4c0 0.6 0.5 1.1 1.1 1.1 0.6 0 1-0.5 1-1.1 0-0.6-0.4-1-1-1-0.6 0-1.1 0.4-1.1 1z"/>
	<path id="Layer" fill-rule="evenodd" class="s1" d="m165.3 64.8c-2-3.1-6-6.3-9.2-6.3q-0.1 0-0.2 0.1c-0.7 0-1.6 0.1-2.5 0.2-3.2 0.3-7.2 0.8-11.2-1-2.7-1.2-4.2-2.9-5.9-4.7-1.3-1.6-2.8-3.1-5-4.5-0.1-0.1-0.2-0.3-0.1-0.4 0.1-0.2 0.3-0.3 0.5-0.2 0 0 3.2 1.1 8.1 1.6l0.5 0.1c4.7 0.5 7.8 0.8 14.7 5.5 7 4.8 9.2 6.3 9.2 6.3q0.1 0.1 0.2 0.1l1.6 2.8c0.1 0.2 0 0.4-0.2 0.5q-0.1 0-0.2 0-0.1 0-0.3-0.1zm-7.5-6.8q-1.4-0.9-3.2-2.2c-6.7-4.6-9.6-4.9-14.3-5.4l-0.6-0.1c-2.6-0.2-4.7-0.7-6.2-1 1.4 1 2.4 2.2 3.4 3.3 1.6 1.8 3.1 3.4 5.6 4.6 3.8 1.6 7.7 1.2 10.9 0.9 0.9-0.1 1.7-0.2 2.5-0.3q0.1 0 0.2 0 0.9 0 1.7 0.2z"/>
	<path id="Layer" fill-rule="evenodd" class="s0" d="m165.6 65.2l-0.6-1q0-0.1 0-0.2c0 0 0.3-1.8 0.2-3.8-0.1-2.1-0.4-3.8-0.4-3.8q-0.1-0.2 0-0.3c0 0 2.1-3.9 2.7-7.4 0.6-3.5 0.6-6 0.6-6q0-0.1 0-0.2c0.2-0.3 3.8-7.3 9.3-9.9 0.2 0 0.3 0 0.5 0.1 0.1 0.2 0.1 0.3 0 0.5-1.8 2.6-2.6 4-3.2 6.8-0.1 0.7-0.2 1.7-0.3 2.8-0.3 3.1-0.7 7.4-2.9 10.4l-0.5 0.6c-2.6 3.6-5.2 7.1-4.7 11.2 0 0.2-0.1 0.3-0.2 0.4q-0.1 0-0.2 0-0.1 0-0.3-0.2zm3.2-22.4c0 0.5 0 2.8-0.6 6-0.6 3.3-2.3 6.8-2.7 7.5 0.1 0.5 0.4 2 0.4 3.9q0.1 0.4 0 0.9c0.8-2.7 2.7-5.2 4.5-7.7l0.5-0.7c2.1-2.8 2.5-6.9 2.8-10 0.1-1.1 0.2-2.1 0.3-2.9 0.5-2.4 1.2-3.8 2.5-5.8-4.4 2.7-7.3 8.1-7.7 8.8z"/>
	<path id="Layer" fill-rule="evenodd" class="s0" d="m165.1 56.7c-0.2-0.1-0.3-0.2-0.3-0.3-0.3-0.7-0.8-1.4-1.3-2.3-1.1-1.7-2.5-3.8-3.1-7.6-0.5-3.9 0.3-9.2 0.9-13.1l0.2-1.3c0.6-4 1.6-7.6 1.6-7.6 0-0.1 0.2-0.3 0.3-0.3q0 0 0.1 0c0.1 0 0.3 0.2 0.3 0.3 0 0.1 1.2 5 1.9 7.3q0.4 1.3 1 2.8c0.9 2.6 2 5.6 2 8.2 0.1 3.3-0.2 7.8-3.3 13.7q-0.1 0.1-0.3 0.2 0 0 0 0zm-2.9-24.5l-0.2 1.4c-0.6 3.8-1.4 9-0.9 12.8 0.6 3.6 1.9 5.7 3 7.3 0.4 0.6 0.8 1.2 1 1.7 2.7-5.4 3-9.5 2.9-12.6 0-2.5-1.1-5.4-2-8q-0.6-1.5-1-2.8c-0.5-1.5-1.2-4.2-1.6-5.9-0.3 1.4-0.8 3.6-1.2 6.1z"/>
	<path id="Layer" fill-rule="evenodd" class="s0" d="m165.2 55.8c-2.8-4-2.7-11.6-2.6-16.7q0-0.9 0-1.7c0-3.4 0.7-11.7 0.7-11.8 0-0.1 0.1-0.2 0.2-0.2q0 0 0 0c0.1 0 0.2 0.1 0.2 0.2 0 1.4 0.5 4 1 6.9 0.7 3.4 1.4 7.1 1.6 10.3 0.3 4.8-0.1 7.7-0.5 10.6-0.1 0.8-0.2 1.5-0.3 2.3q0 0.1-0.1 0.2 0 0-0.1 0 0 0-0.1-0.1zm-2.3-18.4q0 0.8 0 1.7c0 4.9-0.1 12.1 2.3 16q0.1-0.9 0.3-1.8c0.3-2.8 0.7-5.7 0.4-10.4-0.2-3.2-0.9-7-1.5-10.3-0.4-1.8-0.7-3.5-0.9-4.8-0.2 2.7-0.6 7.3-0.6 9.6z"/>
	<path id="Layer" fill-rule="evenodd" class="s1" d="m170.2 79.8c-1.2-2.3-3.9-4.9-6.1-4.8-0.7 0.1-1.8 0.5-3 0.9-2.4 0.9-5.6 2.2-9.6 1.9-3.9-0.3-6.3-1.9-8.5-3.2-1.3-0.8-2.6-1.6-4.1-2.1-0.1 0-0.2-0.2-0.2-0.4 0-0.2 0.2-0.3 0.4-0.3q0 0 0 0c0 0 2.9 0.1 6.3-0.5 0.8-0.2 1.5-0.4 2.2-0.5 2.3-0.6 4.3-1.1 8.5-0.7 4.2 0.3 6.4 1.8 7.8 2.8 0.4 0.3 0.8 0.5 1.1 0.7 1.3 0.6 4.5 2.7 5.5 4.3q0 0.1 0.1 0.1l0.3 1.5c0 0.2-0.1 0.4-0.3 0.5q0 0-0.1 0c-0.1 0-0.3-0.1-0.3-0.2zm-5.3-5.4q-0.1-0.1-0.2-0.2c-0.4-0.1-0.8-0.4-1.2-0.7-1.4-0.9-3.4-2.4-7.5-2.7-4.1-0.4-6 0.1-8.2 0.7-0.7 0.1-1.4 0.3-2.3 0.5-1.8 0.3-3.4 0.5-4.6 0.5 0.8 0.4 1.6 0.9 2.5 1.5 2.2 1.3 4.5 2.8 8.1 3 3.9 0.3 7-0.9 9.3-1.7 1.4-0.6 2.4-1 3.3-1q0.1 0 0.1 0 0.4 0 0.7 0.1z"/>
	<path id="Layer" fill-rule="evenodd" class="s1" d="m171.8 93.8c-0.2-0.1-0.3-0.3-0.2-0.5q0.1-0.3 0.2-0.5c0.6-1.4 2-5 2.1-8l0.1-0.3c0.1-2.8 0.4-7.5 3.1-11.7 1.4-2.1 3.6-4 5.8-5.8 2.2-2 4.4-3.8 5.3-5.6 0.1-0.2 0.3-0.3 0.5-0.2 0.1 0.1 0.2 0.3 0.2 0.4-0.5 1.6-0.9 3.6-1.3 5.7-0.8 4.2-1.8 9.1-3.9 12.5-1.3 2.1-3 3.7-4.8 5.3-2.3 2.1-4.7 4.3-6.4 7.9q-0.2 0.5-0.2 0.6c-0.1 0.1-0.2 0.2-0.3 0.2q-0.1 0-0.2 0zm11.5-26.3c-2.1 1.8-4.3 3.7-5.6 5.7-2.6 4-2.9 8.6-3 11.4v0.2c-0.1 1.5-0.5 3.1-0.9 4.5 1.4-1.9 3-3.3 4.6-4.7 1.8-1.6 3.5-3.1 4.7-5.2 2-3.3 3-8.1 3.8-12.3 0.2-1.3 0.5-2.5 0.7-3.6-1.1 1.3-2.6 2.6-4.3 4z"/>
	<path id="Layer" fill-rule="evenodd" class="s1" d="m172.9 91.5c-0.2-0.1-0.2-0.3-0.1-0.4 0-0.1 1.5-2.7 4.3-5.3l0.9-0.8c2.2-2 3.6-3.3 4.5-4.7 1.4-2 2.3-4.6 2.3-4.6q0.1-0.1 0.1-0.1c0.1-0.1 2-2.1 4.6-3.6 0.2-0.1 0.4-0.1 0.5 0.1 0.1 0.1 0.1 0.3 0 0.4 0 0-1.4 2.2-2.7 5.8-1.7 4.4-3.9 7.4-6.5 8.6-3.9 1.9-6.5 3.4-7.4 4.6q-0.1 0.1-0.3 0.1-0.1 0-0.2-0.1zm12.6-15.5c-0.2 0.5-1.1 2.8-2.3 4.7-1.1 1.5-2.5 2.8-4.7 4.8l-0.9 0.8c-1.2 1.1-2.1 2.1-2.7 3 1.6-1.1 3.7-2.2 5.6-3 3.1-1.5 5-5.3 6.1-8.3 0.7-2 1.5-3.6 2.1-4.6-1.7 1.2-3 2.4-3.2 2.6z"/>
	<path id="Layer" fill-rule="evenodd" class="s0" d="m169.9 105.1c0 0-0.4-6.7-3-8.3-1.2-0.8-2.3-1.2-3.7-1.6-1-0.3-2.1-0.7-3.4-1.3-2.8-1.2-3.8-3.5-4.9-5.9q-0.3-0.7-0.7-1.4c-1.3-2.8-3.3-4.7-3.3-4.7-0.1-0.1-0.2-0.3-0.1-0.5 0.1-0.1 0.4-0.2 0.5-0.1 1.3 0.7 2.8 1.1 4.5 1.5 2.3 0.6 4.7 1.2 6.8 2.8 2.6 1.8 3.5 4.9 4.3 7.3 0.3 1.1 0.6 2 1 2.7l0.2 0.3c1.2 2.3 2.8 5.1 2.5 9.2 0 0.2-0.1 0.4-0.3 0.4-0.2 0-0.4-0.2-0.4-0.4zm-15-18.8q0.3 0.7 0.6 1.4c1.1 2.3 2 4.5 4.6 5.6 1.3 0.5 2.4 0.9 3.3 1.2 1.4 0.4 2.6 0.8 3.9 1.6q0 0.1 0.1 0.1l-0.2-0.3c-0.4-0.7-0.7-1.7-1-2.8-0.8-2.3-1.7-5.2-4-7-2-1.4-4.3-2-6.6-2.6-1.1-0.2-2.1-0.5-3-0.8 0.7 0.8 1.6 2.1 2.3 3.6z"/>
	<path id="Layer" fill-rule="evenodd" class="s0" d="m165.8 120c-0.1-0.2-0.1-0.4 0-0.5 0 0 0.9-1 3-4.6 0.5-0.8 0.9-1.6 1.4-2.4 1.3-2.6 2.5-4.9 6.2-7.1 2.2-1.3 4.4-2.2 6.4-3 2.3-1 4.5-1.9 6.7-3.3 0.1-0.1 0.3-0.1 0.4 0 0.1 0.2 0.2 0.4 0 0.5-1.3 1.7-2.5 4-3.7 6.4-2.1 4.4-4.4 8.9-8.4 10.5-3.1 1.2-5.4 1.7-7.3 2.1-1.8 0.4-3.1 0.7-4.2 1.4q-0.1 0.1-0.2 0.1-0.2 0-0.3-0.1zm17.3-17c-2 0.9-4.2 1.8-6.3 3.1-3.5 2-4.7 4.2-6 6.8-0.4 0.7-0.8 1.5-1.3 2.4-1 1.6-1.7 2.7-2.2 3.4 0.9-0.3 1.8-0.5 3-0.8 1.9-0.4 4.2-0.9 7.2-2.1 3.8-1.5 6-5.9 8.1-10.1 0.9-1.8 1.8-3.6 2.7-5.1-1.7 0.9-3.4 1.7-5.2 2.4z"/>
	<path id="Layer" fill-rule="evenodd" class="s1" d="m162.7 125.6c-0.2-0.1-0.3-0.3-0.3-0.5 0.4-1.7 0.7-3.4 0.8-5.1 0-0.8-0.1-1.7-0.4-2.4-0.5-1.4-1.8-1.9-4.6-3.1-1.4-0.6-3.2-1.3-5.4-2.4-6.8-3.4-6.7-12.3-6.7-12.4 0-0.2 0.1-0.3 0.3-0.4 0.2 0 0.3 0 0.4 0.2 1.9 2.9 4.4 4 7 5.2 2.2 1 4.5 2 6.6 4.2 3.1 3.3 3.8 7.1 3.5 11 0.1 2.6-0.7 5.3-0.8 5.4 0 0.2-0.2 0.3-0.3 0.3q-0.1 0-0.1 0zm-9.6-14.2c2.2 1.1 4 1.8 5.4 2.4 2.5 1.1 4 1.7 4.7 2.9-0.3-2.6-1.2-5.1-3.3-7.3-2-2.1-4.3-3.1-6.4-4.1-2.4-1-4.7-2.1-6.6-4.4 0.2 2.5 1.3 8.1 6.2 10.5z"/>
	<path id="Layer" fill-rule="evenodd" class="s0" d="m152.5 137c0-0.1 0-0.3 0.1-0.4 0 0 1.5-2.1 1.1-4.1-0.2-0.8-0.7-1.5-1.3-2.2-0.9-1.2-2-2.6-2.3-4.9-0.2-1.2 0-3 0.2-4.9 0.2-2.1 0.4-4.2 0.1-5.6-0.1-0.1 0-0.3 0.2-0.4 0.1 0 0.3 0 0.4 0.1 1.1 1 1.3 2.2 1.5 3.4 0.1 0.7 0.3 1.4 0.6 2.1q0.2 0.5 0.6 1.2c1.1 1.8 2.8 4.5 2.3 9.2-0.6 5.9-3 6.6-3.1 6.6q0 0.1-0.1 0.1-0.1-0.1-0.3-0.2zm-1.5-16.4c-0.2 1.8-0.3 3.6-0.2 4.7 0.3 2.1 1.3 3.4 2.2 4.5 0.6 0.8 1.2 1.6 1.4 2.6 0.1 0.7 0.1 1.5-0.1 2.2 0.4-0.9 0.8-2.3 1-4.2 0.5-4.4-1.1-6.9-2.2-8.7q-0.4-0.7-0.7-1.3c-0.3-0.7-0.5-1.5-0.6-2.3-0.1-0.7-0.3-1.3-0.5-1.9 0 1.3-0.2 2.8-0.3 4.4z"/>
	<path id="Layer" fill-rule="evenodd" class="s1" d="m162.3 144.4c-2.8-0.2-4.2-1.1-5.4-1.9-0.8-0.4-1.5-0.9-2.5-1.2-2.6-0.9-5.2-0.3-5.2-0.3-0.2 0-0.4-0.1-0.4-0.2-0.1-0.2-0.1-0.3 0-0.5 0.2-0.1 3.9-3.6 9.3-3.3 3.2 0.3 5.4 1.7 7.3 2.9 1.2 0.8 2.4 1.6 3.7 1.9 3.5 0.8 4.9 1.6 4.9 1.6 0.2 0.1 0.3 0.3 0.2 0.5-0.1 0.1-0.2 0.2-0.4 0.2-2.3-0.6-4.2-0.3-6.3 0-1.3 0.1-2.6 0.3-4 0.3q-0.6 0-1.2 0zm6.6-1.9c-1.4-0.4-2.6-1.2-3.9-2-1.9-1.2-3.9-2.5-7-2.7-3.5-0.2-6.2 1.3-7.7 2.3 1.1-0.1 2.7-0.1 4.4 0.5 1 0.4 1.8 0.8 2.5 1.3 1.3 0.8 2.5 1.5 5.1 1.8 1.8 0.1 3.5-0.1 5-0.4 1.2-0.1 2.4-0.3 3.5-0.3q-0.8-0.2-1.9-0.5z"/>
	<path id="Layer" fill-rule="evenodd" class="s1" d="m140.7 146.2c-0.2-0.1-0.3-0.3-0.3-0.4q0-0.1 0-0.1c0.1-0.4 0.4-1.6 0.3-2.4-0.2-1.3-0.3-1.5-0.6-2.6l-0.2-1c-0.5-2.1-0.2-5.4 0.7-8 0.8-2.5 0.9-5.2 0.9-5.2 0-0.2 0.1-0.3 0.3-0.3 0.2 0 0.4 0.1 0.4 0.3 0.1 1.4 0.5 2.7 0.9 4 0.6 1.7 1.1 3.4 1.2 5.6 0 3.4-1.2 5.7-2.2 7.6-0.4 0.8-0.8 1.5-1 2.2q0 0 0 0c0 0.2-0.2 0.3-0.3 0.3q-0.1 0-0.1 0zm0.6-14.3c-0.9 2.5-1.2 5.7-0.7 7.6l0.2 1c0.3 1.2 0.4 1.4 0.6 2.7q0 0.1 0 0.2 0.1 0 0.1-0.1c0.9-1.8 2.1-4 2-7.2 0-2.1-0.5-3.7-1.1-5.4q-0.2-0.7-0.5-1.5c-0.1 0.8-0.3 1.8-0.6 2.7z"/>
	<path id="Layer" fill-rule="evenodd" class="s0" d="m152.1 154.5c-0.8-0.3-1.9-0.3-3.1-0.3-1.9 0-4-0.1-6-1-2-0.9-2.8-1.8-3.4-2.5-0.4-0.4-0.7-0.8-1.3-1.1-1.4-0.8-2.5-0.8-2.5-0.8q0 0 0 0c-0.2 0-0.4-0.1-0.4-0.2 0-0.2 0-0.4 0.2-0.5 0 0 1.4-0.7 4.2-0.9 3.1-0.2 5.6 0.4 6.8 1.1 1.5 0.8 2.3 1.7 3.3 3l0.2 0.1c1.2 1.6 2.3 2.4 2.3 2.4 0.2 0.1 0.2 0.3 0.1 0.5q-0.1 0.2-0.3 0.2 0 0-0.1 0zm-12.2-6.6c-1.1 0.1-2 0.3-2.7 0.4q0.7 0.2 1.5 0.6c0.6 0.4 1 0.8 1.4 1.3 0.7 0.7 1.4 1.5 3.2 2.3 1.9 0.9 3.9 0.9 5.8 1q1 0 1.9 0c-0.4-0.4-0.9-0.9-1.5-1.6l-0.1-0.1c-1.1-1.3-1.8-2.2-3.1-2.9-1-0.5-2.9-1-5.2-1q-0.6 0-1.2 0z"/>
	<path id="Layer" fill-rule="evenodd" class="s1" d="m126 152.7c-0.1-0.1-0.2-0.3-0.1-0.5q0.1-0.2 0.3-0.4c0.1-0.3 0.4-0.9 0.6-1.5 0.2-0.8 0.4-2.3 0.5-3.4l0.1-0.4c0.3-3.2 1.3-4.4 2.3-5.7q0.3-0.5 0.7-1c1.2-1.7 1.9-4.2 1.9-4.3q0.1-0.2 0.4-0.2c0.2 0 0.3 0.1 0.3 0.3 0.4 3.7 0.6 7.6-1 10.7-0.8 1.7-2.1 2.9-3.3 3.9-0.7 0.7-1.4 1.3-1.9 2q-0.2 0.4-0.3 0.4-0.1 0.2-0.3 0.2-0.1 0-0.2-0.1zm5-12.5q-0.4 0.6-0.8 1c-0.9 1.3-1.8 2.4-2.1 5.4l-0.1 0.4c-0.1 1.1-0.3 2.4-0.5 3.3q0.4-0.3 0.7-0.6c1.2-1 2.4-2.1 3.2-3.7 1.2-2.5 1.3-5.6 1-8.6-0.3 0.9-0.8 1.9-1.4 2.8z"/>
	<path id="Layer" fill-rule="evenodd" class="s1" d="m112.8 156.5q-0.1-0.1-0.1-0.3c-0.1-0.1-0.6-2.3 0.5-5.2 0.6-1.3 1.5-2.4 2.4-3.5 1-1.3 2.1-2.5 2.5-4.1 0-0.2 0.2-0.3 0.4-0.3 0.2 0 0.3 0.2 0.3 0.4-0.2 1.1-0.2 2.1-0.2 3-0.1 1.7-0.1 3.3-0.8 5.4-1.1 3.4-4.5 4.6-4.7 4.6q0 0-0.1 0-0.1 0-0.2 0zm3.3-8.5c-0.9 1-1.7 2.1-2.2 3.3-0.7 1.9-0.7 3.6-0.6 4.4 0.9-0.4 3.1-1.6 3.8-4 0.7-2 0.7-3.6 0.8-5.2q0-0.4 0-0.9c-0.5 0.8-1.1 1.6-1.8 2.4z"/>
	<path id="Layer" fill-rule="evenodd" class="s1" d="m132.8 160.9c-0.2 0-5.2-0.1-8.3-2.3-3.1-2.2-4.1-4.2-4.1-4.3-0.1-0.1-0.1-0.3 0-0.4q0.1-0.2 0.4-0.1c0.8 0.2 1.5 0.2 2.2 0.2 1.2 0 2.4 0 4.4 0.9 2 1 3 2.2 3.9 3.4 0.5 0.7 1 1.3 1.8 1.9 0.1 0.1 0.1 0.3 0.1 0.4-0.1 0.2-0.2 0.3-0.4 0.3q0 0 0 0zm-9.8-6.2c-0.5 0-1 0-1.6-0.1 0.6 0.8 1.6 2 3.5 3.4 2.1 1.5 5.3 1.9 6.9 2.1q-0.6-0.7-1.1-1.4c-0.9-1.1-1.7-2.3-3.6-3.1-1.7-0.8-2.7-0.9-3.7-0.9q-0.2 0-0.4 0z"/>
	<path id="Layer" class="s0" d="m145.6 40.7c0 0 0.5 0.5 1.5 1.3 1 0.9 2.5 2.2 4.2 3.9 3.6 3.4 8.4 8.6 12.4 16.1 2 3.7 3.8 7.9 5.1 12.5 1.4 4.7 2 9.7 2.3 15 0 5.2-0.3 10.7-1.4 16.1l-0.9 4.1c-0.4 1.3-0.9 2.6-1.3 4-0.7 2.6-2.1 5.1-3.2 7.7-2.7 4.9-5.9 9.5-9.8 13.4-4 3.9-8.3 7.2-12.8 9.9-9.1 5.3-18.6 8.4-26.8 10.4-4.1 1-7.9 1.9-11.3 2.8-3.3 0.9-6.2 1.9-8.5 2.8-2.3 0.9-4.1 1.7-5.3 2.4-1.2 0.7-1.8 1.2-1.8 1.2-0.2 0.2-0.2 0.6 0 0.8 0.2 0.2 0.5 0.2 0.8 0-0.1 0 0.4-0.4 1.5-1 1.2-0.7 2.9-1.5 5.2-2.4 2.3-0.9 5.1-1.8 8.4-2.7 3.3-1 7.1-1.8 11.3-2.8 8.2-2.1 17.8-5.1 27-10.6 4.6-2.7 9.1-6.1 13.1-10 4-3.9 7.3-8.7 10-13.7 1.2-2.6 2.6-5.1 3.3-7.9 0.4-1.3 1-2.7 1.3-4.1l0.9-4.1c1.2-5.5 1.5-11 1.4-16.4-0.3-5.3-0.9-10.5-2.4-15.2-1.3-4.7-3.2-9-5.3-12.7-4.1-7.5-9-12.8-12.6-16.2-1.8-1.8-3.3-3-4.3-3.9-1-0.8-1.5-1.3-1.5-1.3-0.2-0.1-0.4-0.1-0.6 0.1-0.1 0.1-0.1 0.4 0.1 0.5z"/>
	<path id="Layer" class="s0" d="m110.7 128.1l2.8 0.1-2.3 1.7 0.8 2.7-2.3-1.6-2.3 1.5 0.8-2.6-2.2-1.7 2.8-0.1 1-2.6z"/>
	<path id="Layer" class="s1" d="m122.3 126.3l2.3 0.1-1.9 1.4 0.7 2.2-1.9-1.3-1.9 1.3 0.7-2.2-1.9-1.5h2.3l0.8-2.2z"/>
	<path id="Layer" class="s0" d="m131.9 121.6h2.1l-1.7 1.3 0.6 2-1.7-1.2-1.7 1.1 0.6-2-1.6-1.2h2l0.7-2z"/>
	<path id="Layer" class="s1" d="m139.2 114.3h2.1l-1.7 1.3 0.6 2-1.7-1.2-1.7 1.1 0.6-2-1.6-1.2h2l0.7-2z"/>
	<path id="Layer" class="s1" d="m97.5 126.3l-2.3 0.1 1.9 1.4-0.7 2.2 1.9-1.3 1.9 1.3-0.7-2.2 1.9-1.5h-2.3l-0.8-2.2z"/>
	<path id="Layer" class="s0" d="m87.9 121.6h-2.1l1.7 1.3-0.6 2 1.7-1.2 1.7 1.1-0.6-2 1.6-1.2h-2l-0.7-2z"/>
	<path id="Layer" class="s1" d="m80.6 114.3h-2.1l1.7 1.3-0.6 2 1.7-1.2 1.7 1.1-0.6-2 1.6-1.2h-2l-0.7-2z"/>
	<path id="Layer" class="s1" d="m112.9 82.3c0-5.6-0.2-11.1 0-16.6 0.1-3.5 3.7-6.1 7.2-5.6q0.9 0.1 1.8 0.1c1.8-0.1 3.1 0.8 3.5 2.4 0.4 1.6-0.4 3.2-1.9 3.8-1.5 0.6-3.1 0-4.1-1.5q-0.1-0.3-0.3-0.6c-1.3 0.3-2 0.9-2 2.1q0 5.6 0 11.2c0 0.1 0.1 0.2 0.2 0.5q3.7 0 7.4 0c1.3 0 2.6 0.1 3.9 0 0.6-0.1 1.4-0.4 1.9-0.8 0.5-0.5 0.6-1.1-0.3-1.6-1.5-0.9-2-2.5-1.4-4 0.7-1.5 2.2-2.3 3.8-1.9 1.6 0.4 2.5 1.8 2.4 3.5 0 1.3 0.2 2.6 0 3.8-0.4 2.8-2.6 5.1-5.4 5.2-5.5 0.1-11 0-16.7 0z"/>
	<path id="Layer" class="s0" d="m88.9 76.1c0.2 1.2 0.8 2 2 2 3.9 0.1 7.8 0 11.8 0 0-1.4 0-2.8 0-4.1q0.1-3.7 0.1-7.3c0-1.4-0.6-2.1-2-2.4-1.4 2.1-2.7 2.8-4.4 2.1-1.3-0.5-2.1-1.8-2.1-3.2 0.1-1.4 1.1-2.8 2.5-2.9 1.7-0.2 3.4-0.3 5.1-0.1 2.8 0.4 5 2.9 5 5.7 0.1 5.3 0.1 10.6 0.1 15.9 0 0.1-0.1 0.3-0.1 0.5-0.4 0-0.7 0.1-1 0.1q-7.4 0-14.7 0c-4.2-0.1-7.1-3.6-6.4-7.8 0.1-0.4 0.1-0.8 0.1-1.2-0.2-1.9 0.8-3.3 2.4-3.6 1.5-0.4 3.1 0.4 3.7 1.8 0.7 1.6 0.1 3.2-1.5 4.2q-0.3 0.2-0.6 0.3z"/>
	<path id="Layer" class="s1" d="m100.8 106.3c1.2-0.3 1.9-0.9 2-2 0-3.9 0-7.8 0-11.7-0.5-0.1-0.9-0.1-1.2-0.1q-5.2-0.1-10.3-0.1c-1.4 0-2 0.6-2.3 2 0.3 0.2 0.6 0.4 0.9 0.6 1.3 1 1.7 2.6 1.1 4-0.7 1.4-2.2 2.1-3.7 1.8-1.5-0.4-2.5-1.7-2.5-3.2q0-1.1-0.1-2.2c-0.4-3.5 2.2-7 5.7-7.1 5.5-0.2 10.9-0.1 16.5-0.1 0.1 0.5 0.1 0.9 0.1 1.3q0 7 0 14.1c0 4.7-3.2 7.4-7.9 6.7-0.4 0-0.8 0-1.2 0-1.8 0.1-3.1-0.8-3.5-2.5-0.3-1.5 0.5-3.1 2-3.6 1.5-0.7 3.1-0.1 4 1.5 0.1 0.2 0.2 0.3 0.4 0.6z"/>
	<path id="Layer" class="s0" d="m112.8 88.2c3.1 0 6.1 0 9.1 0q3.4 0 6.8 0c4.1 0.1 7 3.4 6.4 7.5q-0.1 0.8-0.1 1.5c0.1 1.8-0.9 3.2-2.5 3.6-1.5 0.3-3.1-0.5-3.7-1.9-0.6-1.6 0-3.2 1.5-4.1q0.3-0.2 0.6-0.3c-0.1-1.3-0.8-2-1.9-2-3.9-0.1-7.7 0-11.5 0-0.1 0-0.2 0.1-0.4 0.2 0 2.3 0 4.6 0 7 0 1.4-0.1 2.8 0 4.2 0 0.7 0.3 1.4 0.7 1.8 0.6 0.6 1.2 0.9 1.7-0.2 0.9-1.5 2.5-1.9 4-1.3 1.4 0.5 2.3 2.2 1.9 3.7-0.3 1.5-1.7 2.5-3.4 2.5q-0.9-0.1-1.8 0c-3.7 0.6-7.3-2.2-7.3-5.9-0.1-5.3-0.1-10.7-0.1-16.3z"/>
	<path id="Layer" class="s0" d="m27.3 180.5l0.7 8.8h-0.7q-1.1-3.3-2.8-4.9-2.5-2.4-6.4-2.4-5.3 0-8.1 4.2-2.3 3.5-2.3 8.4 0 4 1.6 7.3 1.5 3.3 4 4.8 2.5 1.5 5.1 1.5 1.5 0 3-0.4 1.4-0.4 2.7-1.1v-8.1q0-2-0.3-2.7-0.3-0.6-1-1-0.6-0.3-2.3-0.3v-0.8h10.7v0.8h-0.5q-1.6 0-2.2 1.1-0.4 0.7-0.4 2.9v8.5q-2.3 1.3-4.6 1.9-2.3 0.6-5.1 0.6-8.1 0-12.3-5.2-3.1-3.8-3.1-8.9 0-3.7 1.8-7 2.1-4 5.7-6.2 3.1-1.8 7.2-1.8 1.5 0 2.8 0.3 1.2 0.2 3.5 1.1 1.1 0.4 1.5 0.4 0.4 0 0.7-0.3 0.3-0.4 0.3-1.5c0 0 0.8 0 0.8 0z"/>
	<path id="Layer" class="s0" d="m38.6 189.6v4.3q2.4-4.3 4.9-4.3 1.1 0 1.8 0.7 0.8 0.7 0.8 1.6 0 0.8-0.6 1.4-0.5 0.5-1.2 0.5-0.7 0-1.6-0.7-0.9-0.7-1.4-0.7-0.3 0-0.8 0.4-0.9 0.9-1.9 2.8v9q0 1.5 0.4 2.3 0.3 0.6 1 1 0.6 0.3 1.9 0.3v0.8h-9.6v-0.8q1.4 0 2.1-0.4 0.6-0.3 0.8-1.1 0.1-0.3 0.1-2v-7.2q0-3.3-0.2-3.9-0.1-0.7-0.5-0.9-0.3-0.3-0.9-0.3-0.6 0-1.4 0.3l-0.2-0.8 5.7-2.3c0 0 0.8 0 0.8 0z"/>
	<path id="Layer" fill-rule="evenodd" class="s0" d="m57.8 206.3q-2.9 2.2-3.7 2.5-1.1 0.6-2.3 0.6-2 0-3.2-1.4-1.3-1.3-1.3-3.5 0-1.3 0.6-2.4 0.9-1.3 2.9-2.6 2.1-1.2 7-3v-0.7q0-2.8-0.9-3.9-0.9-1-2.6-1-1.3 0-2.1 0.7-0.8 0.7-0.8 1.6l0.1 1.2q0 0.9-0.5 1.4-0.5 0.5-1.3 0.5-0.7 0-1.2-0.5-0.5-0.5-0.5-1.4 0-1.8 1.8-3.3 1.8-1.5 5.1-1.5 2.5 0 4.1 0.9 1.2 0.6 1.8 2 0.3 0.9 0.3 3.6v6.4q0 2.6 0.1 3.2 0.1 0.6 0.4 0.9 0.2 0.2 0.5 0.2 0.3 0 0.6-0.2 0.4-0.3 1.7-1.5v1.2q-2.3 3-4.4 3-1 0-1.6-0.7-0.6-0.7-0.6-2.3zm0-1.4v-7.1q-3.1 1.2-4 1.7-1.7 0.9-2.4 1.9-0.6 1-0.6 2.2 0 1.4 0.8 2.4 0.9 1 2.1 1 1.5 0 4.1-2.1z"/>
	<path id="Layer" class="s0" d="m71.2 193.6q3.3-4 6.3-4 1.6 0 2.7 0.8 1.1 0.8 1.7 2.5 0.5 1.3 0.5 3.8v8q0 1.8 0.3 2.4 0.2 0.6 0.7 0.8 0.5 0.3 1.8 0.3v0.8h-9.2v-0.8h0.3q1.4 0 1.9-0.4 0.5-0.4 0.7-1.1 0.1-0.4 0.1-2v-7.7q0-2.5-0.7-3.7-0.6-1.1-2.2-1.1-2.5 0-4.9 2.6v9.9q0 1.9 0.2 2.4 0.3 0.6 0.8 0.9 0.5 0.2 2.1 0.2v0.8h-9.3v-0.8h0.4q1.4 0 1.9-0.7 0.5-0.7 0.5-2.8v-6.9q0-3.4-0.1-4.2-0.2-0.7-0.5-1-0.3-0.2-0.8-0.2-0.6 0-1.4 0.3l-0.3-0.8 5.6-2.3h0.9c0 0 0 4 0 4z"/>
	<path id="Layer" fill-rule="evenodd" class="s0" d="m100 206.9q-1.4 1.4-2.7 2-1.3 0.6-2.8 0.6-3.1 0-5.4-2.5-2.3-2.6-2.3-6.6 0-4.1 2.6-7.4 2.5-3.4 6.5-3.4 2.5 0 4.1 1.6v-3.5q0-3.2-0.2-3.9-0.1-0.8-0.4-1-0.4-0.3-0.9-0.3-0.5 0-1.4 0.3l-0.2-0.7 5.6-2.3h0.9v21.7q0 3.3 0.1 4.1 0.2 0.7 0.5 1 0.4 0.3 0.8 0.3 0.6 0 1.5-0.4l0.2 0.7-5.6 2.3h-0.9c0 0 0-2.6 0-2.6zm0-1.5v-9.6q-0.1-1.4-0.7-2.6-0.7-1.1-1.7-1.7-1-0.6-2-0.6-1.8 0-3.2 1.6-1.8 2.1-1.8 6.2 0 4.2 1.8 6.4 1.8 2.2 4 2.2 1.9 0 3.6-1.9z"/>
	<path id="Layer" class="s0" d="m113.3 193.6q2-2 2.4-2.3 0.9-0.8 2-1.2 1.1-0.5 2.1-0.5 1.8 0 3 1.1 1.3 1 1.7 2.9 2.2-2.4 3.6-3.2 1.5-0.8 3-0.8 1.5 0 2.7 0.8 1.1 0.8 1.8 2.5 0.4 1.2 0.4 3.8v8q0 1.8 0.3 2.4 0.2 0.5 0.8 0.8 0.5 0.3 1.8 0.3v0.8h-9.3v-0.8h0.4q1.2 0 1.9-0.4 0.5-0.4 0.7-1.1 0-0.3 0-2v-8q0-2.3-0.5-3.3-0.8-1.3-2.6-1.3-1.1 0-2.2 0.5-1.1 0.6-2.6 2.1v0.2 0.9 8.9q0 2 0.2 2.4 0.2 0.5 0.8 0.8 0.6 0.3 2 0.3v0.8h-9.4v-0.8q1.5 0 2.1-0.3 0.6-0.4 0.8-1.1 0.1-0.4 0.1-2.1v-8q0-2.3-0.7-3.3-0.9-1.4-2.5-1.4-1.1 0-2.2 0.6-1.7 0.9-2.6 2.1v10q0 1.9 0.3 2.4 0.2 0.6 0.7 0.9 0.5 0.2 2.1 0.2v0.8h-9.3v-0.8q1.3 0 1.8-0.2 0.5-0.3 0.8-0.9 0.2-0.6 0.2-2.4v-7.1q0-3.1-0.2-4-0.1-0.7-0.4-1-0.3-0.2-0.9-0.2-0.5 0-1.3 0.3l-0.3-0.8 5.6-2.3h0.9c0 0 0 4 0 4z"/>
	<path id="Layer" fill-rule="evenodd" class="s0" d="m151 206.3q-2.9 2.2-3.6 2.5-1.1 0.6-2.4 0.6-1.9 0-3.2-1.4-1.2-1.3-1.2-3.5 0-1.3 0.6-2.4 0.8-1.3 2.9-2.6 2.1-1.2 6.9-3v-0.7q0-2.8-0.9-3.9-0.9-1-2.6-1-1.3 0-2 0.7-0.8 0.7-0.8 1.6v1.2q0 0.9-0.4 1.4-0.5 0.5-1.3 0.5-0.8 0-1.2-0.5-0.5-0.5-0.5-1.4 0-1.8 1.8-3.3 1.8-1.5 5-1.5 2.5 0 4.1 0.9 1.2 0.6 1.8 2 0.4 0.9 0.4 3.6v6.4q0 2.6 0.1 3.2 0.1 0.6 0.3 0.9 0.3 0.2 0.6 0.2 0.3 0 0.5-0.2 0.5-0.3 1.7-1.5v1.2q-2.3 3-4.4 3-1 0-1.6-0.7-0.6-0.7-0.6-2.3zm0-1.4v-7.1q-3.1 1.2-4 1.7-1.6 0.9-2.3 1.9-0.7 1-0.7 2.2 0 1.4 0.9 2.4 0.9 1 2 1 1.6 0 4.1-2.1z"/>
	<path id="Layer" class="s0" d="m171.1 189.6v6.4h-0.6q-0.8-3-2-4.1-1.3-1-3.2-1-1.4 0-2.3 0.7-0.8 0.8-0.8 1.7 0 1.1 0.6 2 0.6 0.8 2.6 1.7l3 1.5q4.1 2 4.1 5.3 0 2.6-1.9 4.2-1.9 1.5-4.3 1.5-1.8 0-4-0.6-0.6-0.2-1.1-0.2-0.4 0-0.7 0.6h-0.7v-6.7h0.7q0.6 2.8 2.2 4.3 1.6 1.4 3.6 1.4 1.4 0 2.3-0.8 0.9-0.8 0.9-2 0-1.4-1-2.4-1-0.9-4-2.4-2.9-1.5-3.8-2.7-1-1.1-1-2.9 0-2.3 1.6-3.9 1.6-1.6 4.1-1.6 1.1 0.1 2.7 0.5 1.1 0.3 1.4 0.3 0.3 0 0.5-0.1 0.2-0.2 0.4-0.7c0 0 0.7 0 0.7 0z"/>
	<path id="Layer" class="s0" d="m180.8 184v6.2h4.4v1.4h-4.4v12.2q0 1.8 0.5 2.5 0.5 0.6 1.3 0.6 0.7 0 1.4-0.4 0.6-0.4 0.9-1.3h0.8q-0.7 2-2 3.1-1.3 1-2.7 1-0.9 0-1.8-0.5-0.9-0.6-1.4-1.5-0.4-1-0.4-3v-12.7h-3v-0.6q1.2-0.5 2.3-1.6 1.2-1 2.1-2.5 0.5-0.8 1.3-2.9z"/>
	<path id="Layer" fill-rule="evenodd" class="s0" d="m190.1 197.3q0 4.1 2.1 6.5 2 2.4 4.8 2.4 1.8 0 3.2-1 1.4-1 2.3-3.5l0.6 0.4q-0.4 2.8-2.5 5.1-2.1 2.3-5.2 2.3-3.4 0-5.8-2.6-2.4-2.6-2.4-7.1 0-4.8 2.5-7.5 2.5-2.7 6.2-2.7 3.2 0 5.2 2.1 2 2.1 2 5.6c0 0-13 0-13 0zm0-1.2h8.7q-0.1-1.8-0.4-2.6-0.5-1.1-1.5-1.8-1-0.6-2.1-0.6-1.7 0-3.1 1.3-1.3 1.3-1.6 3.7z"/>
	<path id="Layer" class="s0" d="m211.1 189.6v4.3q2.4-4.3 4.8-4.3 1.2 0 1.9 0.7 0.7 0.7 0.7 1.6 0.1 0.8-0.5 1.4-0.5 0.5-1.3 0.5-0.7 0-1.6-0.7-0.9-0.7-1.3-0.7-0.4 0-0.8 0.4-0.9 0.9-1.9 2.8v9q0 1.5 0.4 2.3 0.3 0.6 0.9 1 0.7 0.3 2 0.3v0.8h-9.6v-0.8q1.4 0 2.1-0.4 0.5-0.3 0.7-1.1 0.1-0.3 0.1-2v-7.2q0-3.3-0.1-3.9-0.1-0.7-0.5-0.9-0.4-0.3-0.9-0.3-0.6 0-1.4 0.3l-0.2-0.8 5.7-2.3c0 0 0.8 0 0.8 0z"/>
	<path id="Layer" class="s1" d="m101.9 258.6v0.7h-11.9v-0.7h1q1.7 0 2.5-1 0.5-0.7 0.5-3.2v-17.9q0-2.1-0.3-2.8-0.2-0.5-0.8-0.9-0.9-0.5-1.9-0.5h-1v-0.8h11.9v0.8h-1q-1.7 0-2.5 1-0.5 0.7-0.5 3.2v17.9q0 2.1 0.3 2.8 0.2 0.5 0.8 0.9 0.9 0.5 1.9 0.5z"/>
	<path id="Layer" class="s1" d="m115.9 258.6v0.7h-11.9v-0.7h0.9q1.8 0 2.5-1 0.5-0.7 0.5-3.2v-17.9q0-2.1-0.2-2.8-0.2-0.5-0.9-0.9-0.9-0.5-1.9-0.5h-0.9v-0.8h11.9v0.8h-1q-1.7 0-2.5 1-0.5 0.7-0.5 3.2v17.9q0 2.1 0.2 2.8 0.2 0.5 0.9 0.9 0.9 0.5 1.9 0.5z"/>
	<path id="Layer" class="s1" d="m129.8 258.6v0.7h-11.9v-0.7h1q1.7 0 2.5-1 0.5-0.7 0.5-3.2v-17.9q0-2.1-0.3-2.8-0.2-0.5-0.8-0.9-0.9-0.5-1.9-0.5h-1v-0.8h11.9v0.8h-1q-1.7 0-2.4 1-0.6 0.7-0.6 3.2v17.9q0 2.1 0.3 2.8 0.2 0.5 0.9 0.9 0.9 0.5 1.8 0.5z"/>
</svg>