<svg version="1.2" xmlns="http://www.w3.org/2000/svg" viewBox="0 0 223 283" width="223" height="283">
	<title>New Project</title>
	<style>
		.s0 { fill: #ce0019 } 
		.s1 { fill: #f9ff00 } 
	</style>
	<path id="Layer" fill-rule="evenodd" class="s0" d="m65.2 155.2q-0.1 0-0.2-0.1c0-0.1 0.1-0.2 0.1-0.2 0.1 0 1.2-0.5 4.1-2.6q0.4-0.3 0.9-0.6c1.2-0.9 2.5-1.9 4.6-2.7 3.7-1.3 6.4-0.1 6.5 0q0.2 0 0.1 0.2c0 0.1-0.1 0.1-0.2 0.1 0 0-2-0.1-5 1.6-0.8 0.4-1.4 0.9-2.1 1.3-2 1.3-3.8 2.6-8.8 3q0 0 0 0zm12.9-6.4c-0.9 0-2 0.1-3.2 0.6-2.2 0.8-3.4 1.7-4.6 2.6q-0.4 0.3-0.8 0.6c-1.6 1.1-2.6 1.8-3.3 2.1 4.1-0.5 5.8-1.6 7.6-2.8 0.7-0.5 1.3-0.9 2.1-1.3 1.8-1 3.3-1.4 4.2-1.6-0.5-0.1-1.2-0.2-2-0.2z"/>
	<path id="Layer" fill-rule="evenodd" class="s0" d="m49.5 143.8c-1.1 0-2.1 0-2.8-0.1-1.2-0.1-2.2-0.1-3.5 0.1-0.1 0-0.2-0.1-0.2-0.1 0-0.1 0-0.2 0.1-0.3 1-0.4 2.1-0.5 3.3-0.7 1.3-0.1 2.8-0.3 4.6-0.8 1.4-0.5 2.4-1 3.4-1.5 1.3-0.7 2.5-1.4 4.6-1.7 3.6-0.5 8.1 1.3 8.3 1.4 0.1 0 0.2 0.1 0.1 0.2 0 0.1-0.1 0.2-0.2 0.2 0 0-5.2-0.9-8.4 0.5q-1.3 0.6-2.3 1.1c-1.9 0.9-3.3 1.6-5.6 1.7q-0.7 0-1.4 0zm-4.1-0.6q0.6 0.1 1.3 0.1c1.1 0.1 2.3 0.2 4.2 0.1 2.2-0.1 3.5-0.8 5.4-1.7q1-0.5 2.4-1.1c2-0.9 4.8-0.9 6.7-0.7-1.7-0.5-4.3-1.1-6.4-0.8-2 0.3-3.1 0.9-4.5 1.6-0.9 0.5-1.9 1.1-3.4 1.5-1.8 0.6-3.3 0.8-4.6 0.9q-0.6 0.1-1.1 0.1z"/>
	<path id="Layer" fill-rule="evenodd" class="s0" d="m50.4 140.9q0 0 0 0c-0.1 0-2.3-0.3-4.4-1.9-1.8-1.3-4.1-2.4-4.1-2.4-0.2 0-0.3-0.2-0.3-0.4 0.1-0.2 0.2-0.3 0.4-0.3 0 0 3.1 0 6.8-0.4 3.4-0.3 8.4-0.2 11 1.4 0.1 0.1 0.2 0.3 0.1 0.5 0 0.2-0.2 0.3-0.4 0.2 0 0-3.8-0.5-8.8 3.2q-0.1 0.1-0.3 0.1zm-6.8-4.3c0.9 0.5 1.9 1.1 2.9 1.8 1.6 1.2 3.3 1.6 3.8 1.7 3.2-2.3 5.8-3 7.4-3.2-2.5-0.8-6.1-0.9-8.8-0.6-2.1 0.2-4 0.3-5.3 0.3z"/>
	<path id="Layer" fill-rule="evenodd" class="s0" d="m39.5 121.1c-3.4 0-5.2-2.2-6.9-4.3-0.7-0.9-1.5-1.8-2.3-2.6-3-2.6-6.1-3.1-6.2-3.1-0.2 0-0.3-0.2-0.3-0.4 0-0.2 0.2-0.3 0.4-0.3 5.8 0 9.7 1.2 9.8 1.3q0.1 0 0.2 0.1c0 0 2.8 2.9 7.8 3.7 6.8 1.2 8.4 2.7 8.5 2.8 0.1 0.1 0.1 0.3 0.1 0.4-0.1 0.2-0.3 0.3-0.4 0.2-1.8-0.2-3.2 0.3-4.8 0.9-1.6 0.6-3.3 1.2-5.7 1.3q-0.1 0-0.2 0zm-12.4-9.8c1.1 0.4 2.4 1.2 3.7 2.4 0.9 0.8 1.7 1.7 2.4 2.6 1.8 2.1 3.3 4 6.2 4q0.2 0 0.3 0c2.2-0.1 3.8-0.7 5.4-1.2 1.2-0.4 2.3-0.9 3.6-1-1.2-0.5-3.2-1.2-6.8-1.8-5-0.8-7.7-3.4-8.2-3.9-0.5-0.1-3-0.9-6.6-1.1z"/>
	<path id="Layer" fill-rule="evenodd" class="s0" d="m48.5 117.4q-0.1 0-0.1 0c-1.3-0.8-2.5-1.3-3.7-1.9-2.2-0.9-4.7-2-8.1-4.7-3.4-2.6-5.9-6-8.1-9.1-1.3-1.9-2.5-3.5-3.6-4.6-0.1-0.1-0.1-0.2 0-0.3 0 0 0.2-0.1 0.2 0 0.1 0 2.5 1.8 6.7 4.3 4 2.5 6.1 4.4 9.4 8 1.2 1.2 2.2 2.4 3.2 3.4 1.6 1.7 2.9 3.1 4.2 4.6 0.1 0.1 0.1 0.2 0 0.3q0 0-0.1 0zm-22.1-19.3c0.7 1 1.6 2.1 2.5 3.4 2.1 3 4.6 6.4 7.9 9 3.4 2.6 5.9 3.7 8 4.7 0.9 0.4 1.8 0.8 2.7 1.2-1-1.1-2.1-2.3-3.4-3.6-1-1.1-2-2.2-3.2-3.5-3.3-3.5-5.3-5.4-9.3-7.8-2.3-1.4-4.1-2.6-5.2-3.4z"/>
	<path id="Layer" fill-rule="evenodd" class="s0" d="m52.7 115.3q-0.1 0-0.1 0-0.1-0.1-0.1-0.2c0.7-3.6 5.2-7.8 8.2-9.4l0.7-0.3c3-1.7 6.9-3.7 8.9-7.7 0.1-0.1 0.2-0.1 0.2-0.1 0.1 0 0.2 0.1 0.2 0.2 0 0.1-1.3 6.6-7.3 9.8l-1.3 0.8c-4.9 2.6-6.4 3.4-9.3 6.8q0 0.1-0.1 0.1zm17.2-16.1c-2.2 3.3-5.6 5.1-8.3 6.5l-0.7 0.4c-3.1 1.6-6.7 5.2-7.8 8.2 2.6-2.9 4.3-3.9 8.8-6.3l1.4-0.7c4-2.2 5.8-6 6.6-8.1z"/>
	<path id="Layer" fill-rule="evenodd" class="s0" d="m52.4 116.3c-0.2 0-0.4-0.2-0.4-0.4q0 0 0-0.2 0-0.7 0-1.3c0.1-4 0.1-8.2 3.4-12.6 0.8-1.1 1.7-2 2.5-2.9 1.3-1.6 2.7-3 3.8-5.2 0.1-0.2 0.3-0.3 0.4-0.2 0.2 0 0.3 0.2 0.3 0.4 0 0.8-0.2 8.1-0.7 9.4q-0.1 0.2-0.2 0.2c-0.1 0.1-3.8 2.1-5.4 3.8-3 3.3-3.3 7.8-3.3 8.5q0 0.1 0 0.1c0 0.2-0.2 0.4-0.4 0.4zm9.2-20.9c-1 1.6-2 2.8-3.1 4-0.8 0.9-1.6 1.8-2.5 2.9-2.3 3.1-2.9 6-3.1 8.9 0.5-1.4 1.3-3 2.6-4.4 1.6-1.7 4.8-3.5 5.5-3.9 0.3-1 0.5-4.9 0.6-7.5z"/>
	<path id="Layer" fill-rule="evenodd" class="s0" d="m48 93.2q-0.1 0-0.2-0.1 0-0.1 0-0.2c0.9-1.1 1.5-2.1 2-3.2 0.9-1.5 1.7-3.1 3.6-5.1 2.1-2.4 4.2-3.4 6.8-4.6 1.2-0.6 2.6-1.3 4.1-2.2 0.1 0 0.2 0 0.3 0.1 0 0.1 0 0.2-0.1 0.3 0 0-2.5 2.2-5.3 5.5q-0.6 0.8-1.3 1.6c-2.3 3-4.7 6-9.8 7.9q-0.1 0-0.1 0zm15.1-14.3q-1.5 0.8-2.7 1.4c-2.6 1.3-4.6 2.2-6.8 4.6-1.8 2-2.6 3.5-3.4 5-0.5 0.9-1 1.8-1.6 2.7 4.6-1.9 6.9-4.7 9-7.5q0.7-0.8 1.3-1.6c1.7-2 3.2-3.6 4.2-4.6z"/>
	<path id="Layer" fill-rule="evenodd" class="s0" d="m41.4 85.6q-0.1 0-0.2 0c-2.9-4.2-4.9-7.1-7.8-12.1-1.5-2.6-3.1-6.3-4.4-9.6-1-2.6-2-4.9-2.8-6.4 0-0.1 0-0.2 0.1-0.2 0-0.1 0.2-0.1 0.2 0 0.1 0.1 7.3 7.8 10.6 14.4 1 2.2 1.9 5.1 2.7 8 0.6 2.2 1.2 4.2 1.8 5.7 0 0 0 0.2-0.1 0.2q-0.1 0-0.1 0zm-14.2-26.9c0.7 1.4 1.4 3.2 2.2 5 1.3 3.3 2.8 7 4.4 9.6 2.5 4.4 4.4 7.3 6.9 10.8-0.5-1.3-0.9-2.8-1.3-4.3-0.8-2.8-1.6-5.8-2.7-7.9-2.5-5.1-7.4-10.9-9.5-13.2z"/>
	<path id="Layer" fill-rule="evenodd" class="s0" d="m40.8 79.4c-0.2 0-0.3-0.1-0.3-0.3-0.1-0.1-0.6-7.1-3.1-10.9-2.6-3.7-5.9-6-5.9-6.1q-0.1 0-0.1-0.2c-0.1-0.1-0.9-2.7-0.4-6.4 0.1-0.2 0.2-0.4 0.4-0.4 0.2 0 0.3 0.1 0.4 0.3 0 0 0.4 1.3 2.2 3.4l0.4 0.6c1.9 2.1 4.6 5.4 6 10.9 1.1 4.9 0.8 8.6 0.8 8.8 0 0.2-0.2 0.3-0.4 0.3zm-8.7-17.8c0.6 0.4 3.5 2.7 5.9 6.2 0.8 1.2 1.4 2.6 1.9 4.1q-0.1-0.7-0.3-1.4c-1.3-5.3-3.9-8.4-5.8-10.6l-0.4-0.6c-0.8-0.9-1.4-1.8-1.7-2.4-0.2 2.5 0.2 4.2 0.4 4.7z"/>
	<path id="Layer" fill-rule="evenodd" class="s0" d="m58.5 51.7c-0.1 0-0.2-0.1-0.2-0.2 0-0.1 0.1-0.2 0.1-0.2 2.1-0.7 4.3-1.6 6.6-2.5 2-0.8 4.1-1.7 6.2-2.4 4.3-1.5 14.5-4.8 14.6-4.9 0.1 0 0.2 0.1 0.2 0.1q0.1 0.2 0 0.3c-0.1 0-7 5.3-12.7 7.4-5.7 2-14.7 2.4-14.8 2.4q0 0 0 0zm26.3-9.4c-2.8 0.9-10.1 3.2-13.5 4.5-2.1 0.7-4.2 1.6-6.2 2.4-1.8 0.7-3.6 1.4-5.2 2 2.7-0.2 9-0.7 13.2-2.3 4.4-1.6 9.6-5.1 11.7-6.6z"/>
	<path id="Layer" fill-rule="evenodd" class="s0" d="m62.1 70.2c-2.5 0-4.1-0.2-5.6-0.5-1.7-0.3-3.1-0.5-5.6-0.2q-0.2 0-0.2-0.1c0-0.1 0-0.2 0.1-0.3 0.1 0 6.9-2.4 12.1-2.4q0.2 0 0.3 0c1.7 0.1 3.5 0.2 5.2 0.3 3.6 0.3 7 0.5 9.7-0.2 0.1 0 0.2 0.1 0.2 0.1 0 0.1 0 0.3-0.1 0.3-0.1 0-6.1 2.6-13.8 3q-1.2 0-2.3 0zm-9-1.2c1.3 0 2.3 0.1 3.5 0.3 1.8 0.3 3.9 0.7 7.8 0.5 4.9-0.3 9.2-1.4 11.6-2.2-2.3 0.2-4.9 0-7.6-0.2-1.7-0.1-3.5-0.2-5.2-0.3q-0.1 0-0.3 0c-3.6 0-8 1.2-10.3 1.9q0.2 0 0.5 0z"/>
	<path id="Layer" fill-rule="evenodd" class="s0" d="m51.1 69.1q-0.1 0-0.2 0c-0.2-0.2-0.2-0.4-0.1-0.5 0-0.2 2-4.5 7.4-6.2 2.6-0.9 5-0.9 7.4-0.9 2.6 0 5.2 0 8.2-1 0.1-0.1 0.3 0 0.4 0.1 0.1 0.1 0.2 0.2 0.1 0.4 0 0.1-1 3-6 4.7q-0.1 0.1-0.2 0.1c0-0.1-3.7-0.8-7.3-0.4-5.7 0.5-9.4 3.6-9.4 3.6q-0.1 0.1-0.3 0.1zm14.2-6.8c-2.3 0-4.4 0.1-6.8 0.8-3.1 1-5 2.9-6 4.2 1.7-1 4.5-2.4 8.3-2.7 3.4-0.4 6.7 0.2 7.4 0.4 2.9-1.1 4.3-2.6 4.9-3.5-2.7 0.8-5.1 0.8-7.5 0.8q-0.1 0-0.3 0z"/>
	<path id="Layer" fill-rule="evenodd" class="s0" d="m91.5 151.7q-0.1 0-0.2-0.1c-0.5-1.2-0.9-1.8-1.5-2.4-0.5-0.7-1.1-1.4-1.7-2.7-1.3-2.4-2.5-6.3-2.3-9.9 0-0.1 0-0.1 0.1-0.2q0.2 0 0.2 0.2c0.1 0 0.9 3.6 2.1 5.7q0.2 0.4 0.4 0.9c1.1 2 2.4 4.4 3.1 8.2 0 0.1-0.1 0.2-0.1 0.3q-0.1 0-0.1 0zm-5.3-13.5c0.2 3 1.2 6.2 2.2 8.1 0.7 1.3 1.2 2 1.7 2.6 0.3 0.4 0.6 0.8 0.9 1.3-0.7-3-1.7-5-2.7-6.8q-0.3-0.5-0.5-0.9c-0.7-1.3-1.3-3.1-1.6-4.3z"/>
	<path id="Layer" fill-rule="evenodd" class="s0" d="m92.8 153.9q-0.2 0-0.3-0.1l-0.3-0.4c-0.1-0.1-0.5-0.7-0.8-2-0.1-0.6-0.2-1.4-0.4-2.3-0.1-1.2-0.2-2.7-0.6-4.2q0 0 0-0.1c0-0.1-0.3-3.5 2.1-7.5 0.1-0.2 0.3-0.2 0.5-0.2 0.2 0.1 0.3 0.3 0.2 0.5 0 0-0.2 1.2 0.3 4.7q0.1 0.8 0.3 1.7c0.3 1.5 0.6 3.2 0.5 4.8 0 1.9-0.4 2.9-0.8 3.7-0.1 0.4-0.2 0.7-0.3 1.1q-0.1 0.2-0.3 0.3-0.1 0-0.1 0zm-1.7-9.1c0.3 1.5 0.5 3 0.7 4.2 0.1 0.9 0.3 1.7 0.4 2.2 0.1 0.7 0.3 1.1 0.5 1.4q0-0.2 0.1-0.4c0.3-0.8 0.7-1.7 0.8-3.4 0-1.6-0.3-3.2-0.6-4.7q-0.2-0.9-0.3-1.7c-0.2-1.4-0.3-2.4-0.3-3.2-1.3 2.9-1.3 5.3-1.3 5.6z"/>
	<path id="Layer" fill-rule="evenodd" class="s0" d="m71.4 33.2q-0.2 0-0.3-0.1c-0.2-0.2-0.2-0.4-0.1-0.6q0.1 0 0.2-0.1c0.7-0.9 1.2-2.9 1.7-4.9 0.6-2.1 1.2-4.5 2.2-6.4 1.3-2.5 3.9-4.2 6.1-5.6 1.4-0.9 2.7-1.8 3.5-2.7 0.1-0.1 0.3-0.2 0.4-0.1 0.2 0.1 0.3 0.3 0.3 0.4-0.1 0.3-1.1 5.9-2.7 8.8q0 0-0.1 0.1c0 0-3.7 3-5.6 5-1.7 1.8-4.5 5.1-5.2 5.9q-0.1 0.1-0.2 0.2-0.1 0.1-0.2 0.1zm12.9-19c-0.7 0.7-1.7 1.3-2.7 1.9-2.1 1.4-4.6 3-5.8 5.3-0.9 1.9-1.5 4.2-2.1 6.3q-0.4 1.4-0.7 2.6c1.1-1.3 2.4-2.8 3.4-3.8 1.8-1.9 5.1-4.7 5.6-5.1 1.1-2 2-5.4 2.3-7.2z"/>
	<path id="Layer" fill-rule="evenodd" class="s0" d="m71.5 33.2q-0.2 0-0.3-0.1c-0.2-0.1-0.2-0.3-0.1-0.5 0.1 0 3.3-4.8 10.1-10.5 6-5.1 18.4-6.1 18.9-6.1 0.2 0 0.4 0.1 0.4 0.3 0 0.2-0.1 0.4-0.3 0.5-1.3 0.4-3.5 2.5-5.9 4.7-2.3 2.2-4.9 4.7-7.5 6.3-3.1 2-7.2 3-10.5 3.9-2.1 0.5-3.9 1-4.6 1.5q-0.1 0-0.2 0zm26.8-16.2c-3.7 0.5-12.1 1.9-16.6 5.7-4.7 3.9-7.6 7.4-9 9.1 0.9-0.3 2-0.6 3.4-0.9 3.2-0.8 7.3-1.9 10.3-3.8 2.5-1.5 5.1-4 7.4-6.2 1.7-1.6 3.2-3 4.5-3.9z"/>
	<path id="Layer" fill-rule="evenodd" class="s0" d="m72 32.5q-0.1 0-0.2-0.2c0 0 0-0.2 0.1-0.2 2-1.2 4.6-3.3 7.1-5.3 2.5-2 4.9-3.9 6.7-5 3.7-2.2 13.4-5.4 13.5-5.4 0.1-0.1 0.2 0 0.2 0.1 0.1 0.1 0 0.2-0.1 0.2-3 1.8-5.5 3.5-8.4 5.4-1.7 1.1-3.3 2.2-5.4 3.5-5.6 3.7-13.4 6.8-13.4 6.8q-0.1 0.1-0.1 0.1zm25.4-15.1c-3 1-8.8 3.2-11.5 4.8-1.8 1-4.1 2.9-6.6 4.9-1.8 1.5-3.7 3-5.4 4.1 2.6-1.1 7.5-3.4 11.4-5.9 2-1.3 3.7-2.4 5.4-3.5 2.3-1.6 4.4-3 6.7-4.4z"/>
	<path id="Layer" class="s0" d="m64.4 38.9q-0.1 0-0.1-0.1c-0.1 0-0.2-0.2-0.1-0.2 2-3.2 3.7-6.6 4.9-10.1 0.1-0.1 0.2-0.2 0.3-0.2 0.1 0.1 0.1 0.2 0.1 0.3-1.3 3.6-2.9 7-5 10.2q0 0.1-0.1 0.1z"/>
	<path id="Layer" class="s0" d="m60.2 43.8q-0.1 0-0.1 0c-0.1-0.1-0.1-0.3 0-0.3 3.6-2.6 7.6-4.5 11.9-5.7 0.1-0.1 0.2 0 0.2 0.1 0.1 0.1 0 0.2-0.1 0.2-4.2 1.3-8.2 3.2-11.8 5.7q0 0-0.1 0z"/>
	<path id="Layer" class="s0" d="m57.7 47.1q0 0-0.1 0c-0.1-0.1-0.1-0.2-0.1-0.3 1.3-3.1 2-6.4 2.1-9.8q0-0.2 0.2-0.2c0.1 0 0.2 0.1 0.2 0.2-0.1 3.4-0.9 6.8-2.1 9.9q-0.1 0.2-0.2 0.2z"/>
	<path id="Layer" class="s0" d="m47.6 64.8c-0.1 0-0.2-0.1-0.2-0.2 0-3.5-0.5-7.1-1.4-10.5-0.1-0.1 0-0.2 0.1-0.2 0.1-0.1 0.2 0 0.3 0.1 0.9 3.5 1.4 7 1.4 10.6 0 0.1 0 0.2-0.2 0.2q0 0 0 0z"/>
	<path id="Layer" class="s0" d="m48.3 63.8q-0.1 0-0.1 0c-0.1-0.1-0.1-0.2 0-0.3 2.5-2.4 5.4-4.4 8.5-6 0.1 0 0.2 0 0.3 0.1 0 0.1 0 0.3-0.1 0.3-3.1 1.5-5.9 3.5-8.4 5.9q-0.1 0-0.2 0z"/>
	<path id="Layer" class="s0" d="m44.1 79.5q0 0 0 0c-0.1 0-0.2-0.1-0.2-0.2 0.1-3.5-0.4-7-1.5-10.4 0-0.1 0-0.2 0.1-0.2 0.1-0.1 0.2 0 0.3 0.1 1.1 3.4 1.6 7 1.5 10.5 0 0.2 0 0.2-0.2 0.2z"/>
	<path id="Layer" class="s0" d="m44 93q0 0 0 0c-0.1 0-0.2-0.1-0.2-0.2 0.3-3.6 1.5-7.1 3.3-10.2 0.1-0.1 0.2-0.1 0.3 0 0.1 0 0.1 0.2 0 0.2-1.8 3.1-2.9 6.5-3.2 10 0 0.1-0.1 0.2-0.2 0.2z"/>
	<path id="Layer" class="s0" d="m44.7 101.4q-0.1 0-0.1-0.1c-1.3-2.8-3.2-5.4-5.6-7.4-0.1-0.1-0.1-0.2 0-0.3 0.1-0.1 0.2-0.1 0.3 0 2.4 2 4.3 4.7 5.6 7.6 0.1 0.1 0 0.2-0.1 0.2q0 0-0.1 0z"/>
	<path id="Layer" class="s0" d="m45.8 106.8q-0.1 0-0.1-0.1-1-1.6-2.5-2.8c0-0.1-0.1-0.2 0-0.3 0.1-0.1 0.2-0.1 0.3 0q1.5 1.2 2.5 2.9c0.1 0.1 0 0.2-0.1 0.3q0 0-0.1 0z"/>
	<path id="Layer" class="s0" d="m50 118.1c-0.1 0-0.1-0.1-0.1-0.2-0.7-4.9-0.5-9.9 0.6-14.7 0-0.1 0.1-0.2 0.2-0.2 0.1 0.1 0.2 0.2 0.2 0.3-1.1 4.8-1.3 9.7-0.7 14.6 0.1 0.1 0 0.2-0.1 0.2q0 0-0.1 0z"/>
	<path id="Layer" class="s0" d="m54.4 126.2q-0.1 0-0.2 0c-1-1.2-2.5-2.1-4-2.4-0.1-0.1-0.2-0.2-0.2-0.3 0-0.1 0.1-0.2 0.2-0.1 1.7 0.3 3.2 1.2 4.3 2.5 0.1 0.1 0.1 0.2 0 0.3q0 0-0.1 0z"/>
	<path id="Layer" class="s0" d="m57.7 130.6c-0.1 0-0.2-0.1-0.2-0.2-1-4.6-1.2-8-0.6-11.3 0-0.1 0.1-0.1 0.2-0.1 0.2 0 0.2 0.1 0.2 0.2-0.6 3.3-0.4 6.6 0.6 11.1 0 0.1-0.1 0.2-0.2 0.3q0 0 0 0z"/>
	<path id="Layer" class="s0" d="m59.9 133.3q-0.1 0-0.1 0c-2.5-1.2-5.2-1.9-7.9-2-0.2 0-0.2-0.1-0.2-0.2 0-0.1 0.1-0.2 0.2-0.2 2.8 0.1 5.6 0.8 8.1 2 0.1 0.1 0.1 0.2 0.1 0.3q-0.1 0.1-0.2 0.1z"/>
	<path id="Layer" class="s0" d="m72.6 143.9q-0.1 0-0.2-0.1c-2-2.5-3.4-5.4-3.9-8.6 0-0.1 0-0.2 0.1-0.2q0.2 0 0.3 0.2c0.5 3 1.9 5.9 3.8 8.4 0.1 0 0.1 0.2 0 0.2q-0.1 0.1-0.1 0.1z"/>
	<path id="Layer" class="s0" d="m66.1 145.5c-0.1 0-0.1 0-0.2-0.1 0-0.1 0.1-0.2 0.2-0.3 3.1-0.5 6.3-0.5 9.5-0.1 0.1 0 0.2 0.1 0.2 0.2q-0.1 0.2-0.3 0.2c-3.1-0.4-6.2-0.4-9.3 0.1q0 0-0.1 0z"/>
	<path id="Layer" class="s0" d="m87.5 151.7q-0.1 0-0.1-0.1c-2.1-1.8-3.9-4-5.1-6.5 0-0.1 0-0.2 0.1-0.2 0.1-0.1 0.2 0 0.3 0.1 1.2 2.4 2.9 4.6 4.9 6.3 0.1 0.1 0.1 0.2 0.1 0.3q-0.1 0.1-0.2 0.1z"/>
	<path id="Layer" class="s0" d="m85.3 154.5q-0.1 0-0.1-0.1c-0.1-0.1-0.1-0.2 0-0.3 0 0 0.5-0.2 0.5-0.2 2-0.7 4.2-1 6.4-0.7 0.1 0 0.2 0.1 0.1 0.2 0 0.1-0.1 0.2-0.2 0.1-2.2-0.2-4.5 0.1-6.6 0.9q0 0.1-0.1 0.1z"/>
	<path id="Layer" class="s1" d="m69.6 28.6c-0.8 0-1.4-0.7-1.4-1.4 0-0.8 0.6-1.4 1.4-1.4 0.7 0 1.3 0.6 1.3 1.4 0 0.7-0.6 1.4-1.3 1.4z"/>
	<path id="Layer" class="s1" d="m45.7 54.2c-0.7 0-1.3-0.7-1.3-1.4 0-0.7 0.6-1.4 1.3-1.4 0.8 0 1.4 0.7 1.4 1.4 0 0.7-0.6 1.4-1.4 1.4z"/>
	<path id="Layer" class="s1" d="m50.5 132.4c-0.8 0-1.4-0.6-1.4-1.3 0-0.8 0.6-1.4 1.4-1.4 0.7 0 1.3 0.6 1.3 1.4 0 0.7-0.6 1.3-1.3 1.3z"/>
	<path id="Layer" class="s1" d="m48.9 81.8c0 0.6-0.4 1.1-1 1.1-0.6 0-1.1-0.5-1.1-1.1 0-0.6 0.5-1 1.1-1 0.6 0 1 0.4 1 1z"/>
	<path id="Layer" class="s1" d="m43.6 103.3c0 0.5-0.5 1-1.1 1-0.6 0-1-0.5-1-1 0-0.6 0.4-1.1 1-1.1 0.6 0 1.1 0.5 1.1 1.1z"/>
	<path id="Layer" class="s1" d="m58.4 118.2c0 0.5-0.5 1-1.1 1-0.6 0-1-0.5-1-1 0-0.6 0.4-1.1 1-1.1 0.6 0 1.1 0.5 1.1 1.1z"/>
	<path id="Layer" class="s1" d="m65.2 146.6c-0.6 0-1.1-0.5-1.1-1.1 0-0.6 0.5-1 1.1-1 0.5 0 1 0.4 1 1 0 0.6-0.5 1.1-1 1.1z"/>
	<path id="Layer" class="s1" d="m83.1 144.1c0 0.6-0.5 1-1.1 1-0.6 0-1-0.4-1-1 0-0.6 0.4-1.1 1-1.1 0.6 0 1.1 0.5 1.1 1.1z"/>
	<path id="Layer" class="s1" d="m73.5 39.1c-0.7 0-1.3-0.6-1.3-1.4 0-0.7 0.6-1.3 1.3-1.3 0.8 0 1.4 0.6 1.4 1.3 0 0.8-0.6 1.4-1.4 1.4z"/>
	<path id="Layer" class="s1" d="m59.9 37.1c-0.7 0-1.3-0.6-1.3-1.3 0-0.8 0.6-1.4 1.3-1.4 0.8 0 1.4 0.6 1.4 1.4 0 0.7-0.6 1.3-1.4 1.3z"/>
	<path id="Layer" class="s1" d="m58.1 58.6c-0.8 0-1.4-0.7-1.4-1.5 0-0.8 0.6-1.5 1.4-1.5 0.9 0 1.5 0.7 1.5 1.5 0 0.8-0.6 1.5-1.5 1.5z"/>
	<path id="Layer" class="s1" d="m38.1 94.2c-0.9 0-1.5-0.6-1.5-1.4 0-0.9 0.6-1.5 1.5-1.5 0.8 0 1.4 0.6 1.4 1.5 0 0.8-0.6 1.4-1.4 1.4z"/>
	<path id="Layer" class="s1" d="m42.2 69c-0.7 0-1.2-0.5-1.2-1.1 0-0.7 0.5-1.2 1.2-1.2 0.6 0 1.1 0.5 1.1 1.2 0 0.6-0.5 1.1-1.1 1.1z"/>
	<path id="Layer" class="s1" d="m52.1 102.1c0 0.7-0.6 1.2-1.2 1.2-0.6 0-1.1-0.5-1.1-1.2 0-0.6 0.5-1.1 1.1-1.1 0.6 0 1.2 0.5 1.2 1.1z"/>
	<path id="Layer" class="s1" d="m49.1 124.4c-0.6 0-1.1-0.5-1.1-1.1 0-0.6 0.5-1.1 1.1-1.1 0.6 0 1.2 0.5 1.2 1.1 0 0.6-0.6 1.1-1.2 1.1z"/>
	<path id="Layer" class="s1" d="m84.2 155.7c-0.6 0-1.1-0.5-1.1-1.1 0-0.7 0.5-1.2 1.1-1.2 0.7 0 1.2 0.5 1.2 1.2 0 0.6-0.5 1.1-1.2 1.1z"/>
	<path id="Layer" class="s1" d="m69.7 134.1c0 0.6-0.5 1.1-1.2 1.1-0.6 0-1.1-0.5-1.1-1.1 0-0.6 0.5-1.1 1.1-1.1 0.7 0 1.2 0.5 1.2 1.1z"/>
	<path id="Layer" fill-rule="evenodd" class="s0" d="m50.2 59q-0.1 0-0.2 0c-0.2-0.1-0.2-0.4-0.1-0.6l1.7-2.9q0-0.1 0.1-0.1c0.1-0.1 2.5-1.7 10-6.8 7.5-5.2 10.8-5.5 15.9-6l0.6-0.1c5.3-0.6 8.7-1.8 8.7-1.8 0.2-0.1 0.4 0 0.5 0.2 0.1 0.2 0 0.4-0.1 0.5-2.4 1.5-3.9 3.2-5.4 4.8-1.8 2-3.5 3.9-6.4 5.2-4.2 1.9-8.6 1.4-12.1 1-1-0.1-1.9-0.2-2.7-0.3q-0.1 0-0.2 0c-3.4 0-7.8 3.5-10 6.8q-0.1 0.1-0.3 0.1zm10.3-7.6q0.1 0 0.2 0c0.9 0 1.8 0.1 2.8 0.2 3.4 0.4 7.6 0.9 11.7-0.9 2.8-1.3 4.4-3.1 6.1-5 1.1-1.2 2.2-2.4 3.6-3.6-1.6 0.4-3.8 0.9-6.7 1.2h-0.6c-5.1 0.6-8.2 0.9-15.4 5.9q-2 1.4-3.5 2.4 0.9-0.2 1.8-0.2z"/>
	<path id="Layer" fill-rule="evenodd" class="s0" d="m49.9 59.5q-0.1 0-0.1 0c-0.2-0.1-0.3-0.2-0.3-0.4 0.5-4.4-2.2-8.2-5.1-12.1l-0.5-0.7c-2.3-3.2-2.8-7.8-3.1-11.2-0.1-1.2-0.2-2.3-0.4-3-0.6-3-1.4-4.5-3.4-7.4-0.1-0.1-0.1-0.3 0-0.4 0.2-0.2 0.3-0.2 0.5-0.2 6 2.8 9.9 10.4 10 10.7q0.1 0.1 0.1 0.2c0 0 0 2.7 0.6 6.5 0.7 3.8 2.9 8 2.9 8q0.1 0.1 0.1 0.3c0 0-0.4 1.9-0.5 4.1-0.1 2.2 0.2 4.1 0.2 4.1q0.1 0.1 0 0.3l-0.7 1q-0.1 0.2-0.3 0.2zm-11.4-33.9c1.4 2.2 2.1 3.7 2.7 6.3 0.1 0.8 0.3 1.9 0.4 3.2 0.3 3.2 0.7 7.7 2.9 10.8l0.5 0.6c2.1 2.8 4 5.5 4.9 8.4q0-0.5 0-1c0.1-2 0.4-3.7 0.5-4.1-0.4-0.8-2.3-4.6-2.9-8.2-0.6-3.4-0.7-6-0.7-6.5-0.4-0.7-3.6-6.6-8.3-9.5z"/>
	<path id="Layer" fill-rule="evenodd" class="s0" d="m50.8 50.1q-0.2 0-0.4-0.2c-3.3-6.4-3.6-11.2-3.5-14.7 0-2.9 1.2-6.1 2.2-8.9 0.4-1.1 0.8-2.1 1.1-3.1 0.7-2.4 2-7.8 2-7.8 0.1-0.2 0.2-0.3 0.4-0.3 0.2 0 0.3 0.1 0.4 0.3 0 0 1.1 3.8 1.7 8.1l0.2 1.5c0.7 4.2 1.6 9.9 1 14.1-0.7 4.1-2.2 6.4-3.4 8.3-0.5 0.9-1.1 1.6-1.3 2.4-0.1 0.2-0.2 0.3-0.4 0.3q0 0 0 0zm1.8-33c-0.4 1.8-1.2 4.7-1.7 6.4q-0.4 1.4-1 3c-1 2.8-2.2 5.9-2.2 8.7-0.1 3.3 0.2 7.7 3.1 13.6 0.3-0.6 0.6-1.2 1.1-1.9 1.1-1.7 2.6-4 3.2-7.9 0.6-4.1-0.3-9.7-0.9-13.9l-0.3-1.4c-0.4-2.7-0.9-5.1-1.3-6.6z"/>
	<path id="Layer" fill-rule="evenodd" class="s0" d="m50.5 49.2q0 0 0 0-0.1 0-0.1-0.1c-0.1-0.9-0.2-1.7-0.4-2.6-0.4-3-0.8-6.2-0.5-11.3 0.2-3.5 1-7.6 1.7-11.1 0.6-3.3 1.2-6 1.1-7.5 0-0.2 0.1-0.2 0.2-0.3q0 0 0 0c0.1 0 0.2 0.1 0.2 0.2 0 0.1 0.8 9.1 0.8 12.8q0 0.9 0 1.9c0.1 5.4 0.2 13.7-2.8 18q-0.1 0-0.2 0zm2-30.3c-0.2 1.5-0.5 3.3-0.9 5.2-0.7 3.6-1.5 7.7-1.7 11.1-0.3 5.1 0.1 8.2 0.5 11.3q0.2 1 0.3 2c2.6-4.3 2.5-12.1 2.5-17.3q-0.1-1-0.1-1.9c0-2.5-0.3-7.5-0.6-10.4z"/>
	<path id="Layer" fill-rule="evenodd" class="s0" d="m45 75.3q-0.1 0-0.2 0c-0.1-0.1-0.3-0.3-0.2-0.5l0.3-1.6q0-0.1 0.1-0.2c1.1-1.7 4.5-4 6-4.6 0.3-0.2 0.7-0.4 1.1-0.8 1.6-1 3.9-2.6 8.4-3 4.6-0.4 6.7 0.1 9.2 0.7 0.7 0.2 1.5 0.4 2.4 0.6 3.7 0.7 6.8 0.6 6.8 0.6q0 0 0 0c0.2 0 0.4 0.1 0.4 0.3 0.1 0.2-0.1 0.4-0.2 0.4-1.6 0.5-3 1.4-4.4 2.3-2.4 1.4-5 3.1-9.2 3.4-4.3 0.3-7.8-1-10.3-2-1.4-0.5-2.5-0.9-3.4-0.9-2.3-0.2-5.2 2.6-6.5 5.1 0 0.1-0.2 0.2-0.3 0.2zm6.8-6.1q0 0 0.1 0c0.9 0 2.1 0.4 3.5 1 2.5 0.9 5.9 2.2 10.1 1.9 3.9-0.3 6.4-1.8 8.8-3.3 0.9-0.6 1.7-1.1 2.6-1.6-1.2 0-3-0.2-4.9-0.5-0.9-0.2-1.7-0.4-2.5-0.6-2.4-0.6-4.5-1.1-8.9-0.7-4.4 0.3-6.6 1.9-8 2.9-0.5 0.3-0.9 0.6-1.3 0.8q-0.2 0.1-0.3 0.1 0.4 0 0.8 0z"/>
	<path id="Layer" fill-rule="evenodd" class="s0" d="m43.4 90.2c-0.1 0-0.3-0.1-0.4-0.2q0-0.1-0.2-0.7c-1.8-3.9-4.4-6.2-6.9-8.5-2-1.7-3.8-3.4-5.2-5.7-2.2-3.7-3.3-8.9-4.2-13.5-0.4-2.3-0.8-4.4-1.4-6.1 0-0.2 0.1-0.4 0.3-0.5 0.2-0.1 0.4 0 0.5 0.2 1 1.9 3.3 3.9 5.7 6 2.4 2 4.8 4.1 6.2 6.3 3 4.5 3.3 9.6 3.4 12.7l0.1 0.2c0.2 3.3 1.6 7.2 2.2 8.7q0.2 0.3 0.3 0.6c0.1 0.2 0 0.4-0.2 0.5q-0.1 0-0.2 0zm-16.9-32.7c0.3 1.2 0.5 2.5 0.8 3.9 0.9 4.6 1.9 9.7 4.1 13.3 1.3 2.2 3.1 3.8 5 5.5 1.7 1.6 3.5 3.1 5 5.2-0.4-1.5-0.8-3.3-0.9-4.9v-0.2c-0.2-3-0.5-8-3.3-12.3-1.4-2.2-3.8-4.2-6.1-6.2-1.7-1.5-3.4-2.9-4.6-4.3z"/>
	<path id="Layer" fill-rule="evenodd" class="s0" d="m42.2 87.8q-0.2 0-0.3-0.1c-1-1.2-3.8-2.9-8-4.9-2.9-1.3-5.3-4.6-7-9.3-1.5-4-3-6.2-3-6.3-0.1-0.1-0.1-0.3 0-0.5 0.1-0.1 0.3-0.1 0.5 0 2.9 1.6 4.9 3.7 5 3.8q0.1 0.1 0.1 0.2c0 0 1 2.8 2.5 4.9 1 1.6 2.5 2.9 4.9 5.1l0.9 0.9c3.1 2.8 4.7 5.5 4.7 5.7 0.1 0.1 0.1 0.4-0.1 0.5q-0.1 0-0.2 0zm-16.8-19.6c0.6 1.1 1.4 2.8 2.2 5 1.2 3.2 3.3 7.3 6.6 8.9 2 0.9 4.3 2.1 6.1 3.3-0.8-1-1.7-2.1-3-3.2l-0.9-0.9c-2.5-2.3-4-3.6-5.1-5.3-1.3-2-2.3-4.5-2.5-5-0.3-0.3-1.6-1.6-3.4-2.8z"/>
	<path id="Layer" fill-rule="evenodd" class="s0" d="m45.2 102.8c-0.2 0-0.4-0.1-0.4-0.4-0.2-4.4 1.5-7.4 2.8-9.9l0.2-0.4c0.4-0.7 0.7-1.7 1.1-2.9 0.8-2.6 1.8-5.9 4.6-7.9 2.2-1.7 4.8-2.3 7.4-3 1.8-0.4 3.4-0.8 4.8-1.6 0.2-0.1 0.4 0 0.5 0.1 0.1 0.2 0.1 0.4 0 0.6-0.1 0-2.2 2-3.6 5q-0.4 0.8-0.7 1.5c-1.2 2.7-2.3 5.2-5.3 6.4-1.5 0.7-2.7 1.1-3.7 1.4-1.5 0.5-2.7 0.9-4 1.7-2.9 1.8-3.3 9-3.3 9 0 0.3-0.2 0.4-0.4 0.4zm19.1-24.6c-1 0.3-2.1 0.6-3.2 0.9-2.5 0.6-5 1.3-7.2 2.8-2.5 1.9-3.5 5.1-4.3 7.6-0.3 1.2-0.6 2.2-1.1 3l-0.1 0.3q0 0 0-0.1c1.4-0.8 2.7-1.3 4.2-1.7 1.1-0.4 2.2-0.8 3.7-1.4 2.7-1.1 3.7-3.5 4.8-6q0.4-0.8 0.7-1.5c0.8-1.7 1.8-3 2.5-3.9z"/>
	<path id="Layer" fill-rule="evenodd" class="s0" d="m49.7 118.6q-0.1 0-0.2-0.1c-1.1-0.8-2.5-1.1-4.5-1.5-2-0.4-4.6-0.9-7.9-2.3-4.4-1.7-6.8-6.6-9.1-11.3-1.3-2.6-2.5-5.1-4-6.9-0.1-0.2-0.1-0.4 0-0.5 0.1-0.2 0.3-0.2 0.5-0.1 2.3 1.5 4.7 2.5 7.2 3.6 2.2 0.9 4.5 1.9 6.9 3.3 4 2.3 5.3 4.8 6.8 7.6 0.4 0.9 0.8 1.7 1.4 2.6 2.3 3.9 3.2 5 3.2 5 0.2 0.1 0.2 0.3 0 0.5q-0.1 0.1-0.3 0.1zm-24-21c1.1 1.6 2 3.5 3 5.4 2.3 4.6 4.6 9.4 8.7 11 3.3 1.3 5.8 1.8 7.8 2.2 1.3 0.3 2.3 0.5 3.2 0.9-0.5-0.8-1.3-2-2.3-3.7-0.5-0.9-1-1.8-1.4-2.6-1.5-2.7-2.7-5.1-6.5-7.3-2.3-1.4-4.6-2.4-6.8-3.3-2-0.8-3.8-1.6-5.7-2.6z"/>
	<path id="Layer" fill-rule="evenodd" class="s0" d="m53.3 124.5c-0.1 0-0.3-0.1-0.3-0.3-0.1-0.1-1-3-0.9-5.8-0.3-4.2 0.4-8.3 3.7-11.9 2.3-2.4 4.8-3.5 7.2-4.6 2.9-1.2 5.5-2.4 7.6-5.6 0.1-0.1 0.2-0.2 0.4-0.1 0.2 0 0.3 0.2 0.3 0.3 0 0.1 0.2 9.9-7.2 13.5-2.4 1.1-4.3 1.9-5.8 2.6-3.1 1.3-4.5 1.8-5 3.3-0.3 0.8-0.4 1.7-0.4 2.6 0.1 1.8 0.4 3.7 0.8 5.5 0.1 0.3-0.1 0.5-0.3 0.5q0 0-0.1 0zm17.1-26.6c-2 2.5-4.4 3.6-7 4.8-2.4 1-4.8 2.1-7 4.4-2.3 2.4-3.2 5.1-3.5 7.9 0.8-1.3 2.3-2 5.1-3.2 1.5-0.6 3.4-1.4 5.8-2.6 5.3-2.6 6.4-8.7 6.6-11.3z"/>
	<path id="Layer" fill-rule="evenodd" class="s0" d="m64 137q0 0-0.1 0c-0.1 0-2.6-0.7-3.3-7.1-0.5-5.1 1.3-8.1 2.5-10q0.4-0.7 0.7-1.3c0.3-0.7 0.5-1.5 0.6-2.2 0.3-1.3 0.5-2.7 1.7-3.7 0.1-0.2 0.3-0.2 0.4-0.1 0.2 0.1 0.2 0.3 0.2 0.4-0.3 1.5-0.1 3.8 0.1 6.1 0.2 2 0.4 3.9 0.2 5.3-0.3 2.5-1.5 4-2.5 5.2-0.6 0.8-1.2 1.6-1.4 2.4-0.4 2.1 1.3 4.4 1.3 4.4 0.1 0.1 0.1 0.3 0 0.5q-0.2 0.1-0.4 0.1zm1.8-22.6c-0.3 0.6-0.5 1.3-0.6 2.1-0.1 0.8-0.3 1.7-0.7 2.5q-0.3 0.6-0.8 1.3c-1.2 2-2.8 4.6-2.3 9.5 0.2 2 0.7 3.5 1.1 4.4-0.2-0.7-0.3-1.5-0.1-2.3 0.2-1.1 0.8-1.9 1.5-2.8 1-1.2 2-2.6 2.3-4.8 0.2-1.3 0-3.2-0.2-5.2-0.1-1.6-0.3-3.3-0.2-4.7z"/>
	<path id="Layer" fill-rule="evenodd" class="s0" d="m52.6 144.9c-1.6 0-3-0.2-4.3-0.4-2.3-0.3-4.4-0.6-6.9 0-0.2 0.1-0.4 0-0.4-0.2-0.1-0.2 0-0.4 0.1-0.5 0.1 0 1.6-0.8 5.4-1.8 1.4-0.3 2.7-1.1 4-2 2.1-1.3 4.4-2.8 7.9-3.1 5.8-0.4 9.8 3.4 10 3.6 0.1 0.1 0.1 0.3 0.1 0.5-0.1 0.1-0.3 0.2-0.5 0.1 0 0-2.8-0.6-5.7 0.4-1 0.4-1.8 0.8-2.6 1.3-1.4 0.9-2.8 1.8-5.8 2q-0.7 0.1-1.3 0.1zm-8-1.5c1.3 0 2.5 0.1 3.8 0.3 1.7 0.3 3.5 0.5 5.4 0.4 2.8-0.3 4.1-1.1 5.5-1.9 0.8-0.5 1.6-1 2.8-1.4 1.8-0.7 3.5-0.7 4.6-0.6-1.5-1.1-4.4-2.7-8.2-2.5-3.3 0.2-5.5 1.6-7.5 3-1.4 0.9-2.8 1.7-4.3 2.1q-1.2 0.3-2.1 0.6z"/>
	<path id="Layer" fill-rule="evenodd" class="s0" d="m77.1 146.8c-0.2 0-0.3-0.1-0.4-0.3q0 0 0-0.1c-0.2-0.7-0.6-1.4-1.1-2.3-1-2.1-2.3-4.6-2.3-8.2 0-2.4 0.7-4.2 1.2-6 0.5-1.5 1-2.9 1-4.4 0-0.2 0.2-0.3 0.4-0.3 0.2 0 0.4 0.1 0.4 0.4 0 0 0.1 2.9 1 5.5 1 2.9 1.3 6.5 0.7 8.7l-0.2 1.1c-0.3 1.2-0.4 1.4-0.6 2.8-0.2 0.8 0.2 2.2 0.3 2.5q0 0.1 0 0.1c0 0.2-0.1 0.4-0.3 0.5q-0.1 0-0.1 0zm-1.3-18.4q-0.2 0.9-0.5 1.7c-0.6 1.8-1.2 3.5-1.2 5.8 0 3.5 1.2 5.9 2.2 7.8q0 0 0.1 0.1 0-0.1 0-0.2c0.3-1.5 0.3-1.7 0.6-2.9l0.3-1.1c0.5-2.1 0.2-5.5-0.8-8.2-0.3-1-0.5-2.1-0.7-3z"/>
	<path id="Layer" fill-rule="evenodd" class="s0" d="m64.7 155.7c-0.1 0-0.3 0-0.3-0.2-0.1-0.1-0.1-0.3 0.1-0.5 0 0 1.2-0.9 2.6-2.5l0.1-0.2c1.2-1.4 2-2.4 3.6-3.2 1.3-0.7 4-1.5 7.3-1.2 3.1 0.2 4.5 1 4.6 1 0.2 0.1 0.2 0.3 0.2 0.5-0.1 0.1-0.2 0.3-0.4 0.3q0 0 0 0c0-0.1-1.2-0.1-2.8 0.8-0.6 0.3-0.9 0.7-1.4 1.2-0.6 0.7-1.5 1.7-3.6 2.7-2.2 1-4.5 1-6.6 1-1.2 0.1-2.4 0.1-3.3 0.3q0 0-0.1 0zm12-7.1c-2.5 0-4.5 0.6-5.5 1.1-1.5 0.8-2.3 1.8-3.4 3.1l-0.1 0.2c-0.7 0.7-1.2 1.3-1.7 1.7q1 0 2.1-0.1c2 0 4.3 0 6.2-1 2-0.9 2.8-1.7 3.5-2.5 0.4-0.5 0.9-0.9 1.6-1.3q0.8-0.5 1.5-0.7c-0.7-0.2-1.6-0.3-2.9-0.4q-0.6-0.1-1.3-0.1z"/>
	<path id="Layer" fill-rule="evenodd" class="s0" d="m92.8 153.9q-0.2 0-0.3-0.2c0 0-0.2-0.1-0.3-0.4-0.5-0.8-1.3-1.4-2.1-2.2-1.2-1.1-2.6-2.3-3.6-4.2-1.6-3.4-1.4-7.5-1.1-11.5 0.1-0.2 0.2-0.4 0.4-0.4q0.3 0 0.4 0.3c0 0 0.8 2.7 2.1 4.6q0.4 0.6 0.8 1.1c1 1.4 2.1 2.7 2.5 6.1v0.5c0.2 1.2 0.4 2.7 0.6 3.6 0.2 0.7 0.5 1.3 0.7 1.7q0.1 0.2 0.2 0.4c0.1 0.2 0.1 0.4-0.1 0.5q-0.1 0.1-0.2 0.1zm-6.7-16.6c-0.3 3.3-0.2 6.6 1.1 9.3 0.9 1.7 2.2 2.9 3.4 4q0.4 0.3 0.8 0.6c-0.2-0.9-0.4-2.4-0.5-3.5l-0.1-0.5c-0.4-3.2-1.3-4.4-2.3-5.8q-0.4-0.5-0.8-1c-0.7-1-1.3-2.2-1.6-3.1z"/>
	<path id="Layer" fill-rule="evenodd" class="s0" d="m107.1 158q-0.1 0-0.2-0.1c-0.1 0-3.9-1.2-5-4.9-0.7-2.3-0.8-4-0.9-5.9 0-1 0-2-0.2-3.2 0-0.2 0.1-0.4 0.3-0.4 0.2-0.1 0.4 0 0.5 0.2 0.4 1.8 1.6 3.2 2.7 4.5 1 1.2 2 2.4 2.5 3.8 1.2 3.1 0.7 5.5 0.6 5.7q0 0.1-0.1 0.2-0.1 0.1-0.2 0.1zm-5.3-11.8q0 0.5 0 0.9c0.1 1.8 0.2 3.5 0.8 5.7 0.9 2.5 3.2 3.8 4.2 4.2 0-0.8 0.1-2.6-0.7-4.7-0.5-1.3-1.4-2.4-2.4-3.6-0.7-0.8-1.3-1.6-1.9-2.5z"/>
	<path id="Layer" fill-rule="evenodd" class="s0" d="m85.6 162.6c-0.1 0-0.3-0.1-0.3-0.2-0.1-0.2 0-0.4 0.1-0.5 0.8-0.6 1.3-1.3 1.9-2.1 1-1.2 2-2.6 4.2-3.6 2.2-1 3.5-1 4.8-1 0.7 0 1.5 0 2.4-0.2q0.2-0.1 0.4 0.1c0.1 0.1 0.1 0.3 0 0.4 0 0.1-1.1 2.3-4.4 4.7-3.4 2.3-8.8 2.4-9 2.4q-0.1 0-0.1 0zm10.3-6.6c-1.1 0-2.3 0.1-4 0.9-2 1-3 2.2-3.9 3.4-0.4 0.5-0.8 1-1.3 1.5 1.8-0.2 5.2-0.7 7.5-2.3 2.1-1.4 3.2-2.8 3.8-3.6-0.6 0.1-1.2 0.1-1.7 0.1q-0.2 0-0.4 0z"/>
	<path id="Layer" class="s1" d="m71.9 32.9c0 0-0.6 0.5-1.7 1.4-1 0.9-2.6 2.3-4.5 4.2-3.8 3.7-9 9.3-13.4 17.3-2.2 4-4.1 8.6-5.5 13.6-1.5 5-2.1 10.5-2.4 16.2-0.1 5.6 0.3 11.5 1.5 17.4l0.9 4.4c0.4 1.4 0.9 2.8 1.4 4.3 0.8 2.9 2.3 5.5 3.5 8.3 2.9 5.3 6.3 10.3 10.6 14.5 4.2 4.2 8.9 7.8 13.8 10.7 9.9 5.7 20.1 9 28.9 11.2 4.5 1.1 8.6 2 12.2 3.1 3.6 1 6.7 2 9.2 3 2.5 0.9 4.5 1.9 5.7 2.6 1.3 0.7 1.9 1.2 2 1.3 0.2 0.2 0.2 0.6 0 0.8-0.2 0.2-0.6 0.3-0.8 0 0 0.1-0.5-0.4-1.7-1.1-1.3-0.7-3.1-1.6-5.6-2.5-2.5-1-5.6-2-9.1-3-3.6-1-7.7-1.9-12.2-3-8.9-2.2-19.2-5.6-29.2-11.4-5-2.9-9.7-6.6-14.1-10.8-4.3-4.3-7.9-9.4-10.8-14.8-1.3-2.8-2.8-5.6-3.6-8.6-0.5-1.4-1-2.9-1.4-4.4l-0.9-4.4c-1.3-5.9-1.6-11.9-1.6-17.7 0.4-5.7 1-11.3 2.6-16.4 1.5-5.1 3.4-9.7 5.7-13.8 4.5-8.1 9.8-13.8 13.6-17.5 2-1.9 3.6-3.2 4.7-4.2 1.1-0.9 1.7-1.4 1.7-1.4 0.1-0.1 0.4-0.1 0.6 0.1 0.1 0.2 0.1 0.4-0.1 0.6z"/>
	<path id="Layer" fill-rule="evenodd" class="s0" d="m155.6 155.2c-4.9-0.4-6.8-1.7-8.8-3-0.6-0.4-1.3-0.9-2-1.3-3.1-1.7-5.1-1.6-5.1-1.6-0.1 0-0.2 0-0.2-0.1q0-0.2 0.1-0.2c0.1-0.1 2.9-1.3 6.5 0 2.2 0.8 3.5 1.8 4.7 2.7q0.4 0.3 0.8 0.6c2.9 2.1 4.1 2.6 4.1 2.6 0.1 0 0.1 0.1 0.1 0.2q0 0.1-0.2 0.1 0 0 0 0zm-14.9-6.2c1 0.2 2.4 0.6 4.3 1.6 0.7 0.4 1.4 0.8 2 1.3 1.8 1.2 3.5 2.3 7.6 2.8-0.6-0.3-1.7-1-3.2-2.1q-0.4-0.3-0.8-0.6c-1.2-0.9-2.5-1.8-4.6-2.6-1.2-0.5-2.3-0.6-3.3-0.6-0.8 0-1.5 0.1-2 0.2z"/>
	<path id="Layer" fill-rule="evenodd" class="s0" d="m169.9 143.8c-2.2-0.1-3.7-0.8-5.5-1.7q-1-0.5-2.4-1.1c-3.1-1.4-8.3-0.5-8.4-0.5-0.1 0-0.2-0.1-0.2-0.2 0-0.1 0-0.2 0.1-0.2 0.2-0.1 4.8-1.9 8.4-1.4 2.1 0.3 3.3 1 4.6 1.7 0.9 0.5 1.9 1 3.3 1.5 1.8 0.5 3.3 0.7 4.6 0.8 1.3 0.2 2.4 0.3 3.3 0.7 0.1 0.1 0.2 0.2 0.2 0.3-0.1 0-0.2 0.1-0.3 0.1-1.2-0.2-2.2-0.2-3.4-0.1-0.8 0.1-1.7 0.1-2.9 0.1q-0.6 0-1.4 0zm4.5-0.7c-1.4-0.1-2.9-0.3-4.7-0.9-1.4-0.4-2.4-1-3.4-1.5-1.3-0.7-2.4-1.3-4.5-1.6-2.1-0.3-4.6 0.3-6.3 0.8 1.8-0.2 4.6-0.2 6.7 0.7q1.3 0.6 2.3 1.1c1.9 0.9 3.3 1.6 5.4 1.7 1.9 0.1 3.2 0 4.2-0.1q0.7 0 1.3-0.1-0.5 0-1-0.1z"/>
	<path id="Layer" fill-rule="evenodd" class="s0" d="m170.2 140.8c-5.1-3.7-8.8-3.2-8.8-3.2-0.2 0.1-0.4 0-0.5-0.2 0-0.2 0-0.4 0.2-0.5 2.6-1.6 7.5-1.7 10.9-1.4 3.8 0.4 6.8 0.4 6.8 0.4 0.2 0 0.4 0.1 0.4 0.3 0.1 0.2 0 0.4-0.2 0.4 0 0-2.3 1.1-4.2 2.4-2 1.6-4.2 1.9-4.3 1.9q-0.1 0-0.1 0-0.1 0-0.2-0.1zm1.8-4.5c-2.7-0.3-6.3-0.2-8.9 0.6 1.6 0.2 4.3 0.9 7.4 3.2 0.5-0.1 2.3-0.5 3.9-1.7 0.9-0.7 2-1.3 2.8-1.8-1.2 0-3.1-0.1-5.2-0.3z"/>
	<path id="Layer" fill-rule="evenodd" class="s0" d="m181.1 121.1c-2.3-0.1-4.1-0.7-5.6-1.3-1.6-0.6-3-1.1-4.8-0.9-0.2 0-0.4 0-0.4-0.2-0.1-0.1-0.1-0.3 0.1-0.4 0-0.1 1.6-1.6 8.5-2.8 5-0.8 7.7-3.7 7.8-3.7q0-0.1 0.1-0.1c0.2-0.1 4-1.3 9.8-1.3 0.3 0 0.4 0.1 0.4 0.3 0.1 0.2-0.1 0.4-0.3 0.4 0 0-3.2 0.5-6.1 3.1-0.9 0.8-1.6 1.7-2.3 2.6-1.8 2.1-3.6 4.3-6.9 4.3q-0.1 0-0.3 0zm6.1-8.7c-0.5 0.5-3.3 3.1-8.2 3.9-3.6 0.6-5.7 1.3-6.8 1.8 1.2 0.1 2.4 0.6 3.6 1 1.5 0.5 3.1 1.1 5.4 1.2q0.1 0 0.2 0c3 0 4.5-1.9 6.3-4 0.7-0.9 1.5-1.8 2.4-2.6 1.3-1.2 2.6-1.9 3.7-2.4-3.7 0.2-6.1 1-6.6 1.1z"/>
	<path id="Layer" fill-rule="evenodd" class="s0" d="m172.2 117.4c-0.1-0.1-0.1-0.2 0-0.3 1.3-1.5 2.7-2.9 4.2-4.6 1-1 2.1-2.2 3.3-3.4 3.3-3.6 5.3-5.5 9.4-8 4.1-2.5 6.6-4.3 6.6-4.3 0.1-0.1 0.2 0 0.3 0 0 0.1 0 0.2 0 0.3-1.2 1.1-2.3 2.7-3.7 4.6-2.2 3.1-4.6 6.5-8 9.1-3.4 2.7-5.9 3.8-8.1 4.7-1.3 0.6-2.5 1.1-3.7 1.9q-0.1 0-0.1 0-0.1 0-0.2 0zm17.1-15.9c-4.1 2.4-6.1 4.3-9.3 7.8-1.2 1.3-2.3 2.4-3.3 3.5-1.2 1.3-2.3 2.5-3.4 3.6 0.9-0.4 1.8-0.8 2.7-1.2 2.2-1 4.7-2.1 8.1-4.7 3.3-2.6 5.7-6 7.9-9 0.9-1.3 1.7-2.4 2.5-3.4-1.1 0.8-2.9 2-5.2 3.4z"/>
	<path id="Layer" fill-rule="evenodd" class="s0" d="m168 115.2c-2.9-3.4-4.4-4.2-9.2-6.8l-1.4-0.8c-5.9-3.2-7.2-9.7-7.2-9.8 0-0.1 0-0.2 0.1-0.2 0.1 0 0.2 0 0.2 0.1 2.1 4 5.9 6 9 7.7l0.6 0.3c3 1.6 7.6 5.8 8.3 9.4q0 0.1-0.1 0.2-0.1 0-0.1 0-0.1 0-0.2-0.1zm-10.4-7.9l1.4 0.7c4.4 2.4 6.1 3.4 8.7 6.3-1-3-4.7-6.6-7.8-8.2l-0.6-0.4c-2.8-1.4-6.1-3.2-8.3-6.5 0.7 2.1 2.6 5.9 6.6 8.1z"/>
	<path id="Layer" fill-rule="evenodd" class="s0" d="m168 115.9q0 0 0-0.1c0-0.7-0.2-5.2-3.2-8.5-1.7-1.7-5.4-3.7-5.4-3.8q-0.2 0-0.2-0.2c-0.5-1.3-0.8-8.6-0.8-9.4 0-0.2 0.1-0.4 0.3-0.4 0.2-0.1 0.4 0 0.5 0.2 1.1 2.2 2.4 3.6 3.8 5.2 0.8 0.9 1.6 1.8 2.4 2.9 3.4 4.4 3.4 8.6 3.4 12.6q0 0.6 0 1.3 0 0.2 0 0.2c0 0.2-0.2 0.4-0.4 0.4-0.2 0-0.4-0.2-0.4-0.4zm-8.1-13c0.7 0.4 3.9 2.2 5.4 3.9 1.3 1.4 2.1 3 2.6 4.4-0.1-2.9-0.8-5.8-3.1-8.9-0.8-1.1-1.6-2-2.4-2.9-1.1-1.2-2.2-2.4-3.1-4 0.1 2.6 0.3 6.5 0.6 7.5z"/>
	<path id="Layer" fill-rule="evenodd" class="s0" d="m172.8 93.2c-5.2-1.9-7.6-4.9-9.9-7.9q-0.6-0.8-1.3-1.6c-2.7-3.3-5.3-5.5-5.3-5.5-0.1-0.1-0.1-0.2 0-0.3 0-0.1 0.1-0.1 0.2-0.1 1.6 0.9 2.9 1.6 4.1 2.2 2.7 1.2 4.7 2.2 6.9 4.6 1.8 2 2.7 3.6 3.5 5.1 0.6 1.1 1.1 2.1 2 3.2q0.1 0.1 0 0.2-0.1 0.1-0.2 0.1 0 0 0 0zm-10.9-9.7q0.7 0.8 1.3 1.6c2.2 2.8 4.5 5.6 9.1 7.5-0.7-0.9-1.1-1.8-1.6-2.7-0.8-1.5-1.7-3-3.5-5-2.1-2.4-4.1-3.3-6.7-4.6q-1.3-0.6-2.8-1.4c1 1 2.6 2.6 4.2 4.6z"/>
	<path id="Layer" fill-rule="evenodd" class="s0" d="m179.4 85.6c-0.1 0-0.2-0.2-0.1-0.2 0.6-1.5 1.2-3.5 1.8-5.7 0.8-2.9 1.6-5.8 2.7-8 3.2-6.6 10.5-14.3 10.5-14.4 0.1-0.1 0.2-0.1 0.3 0 0.1 0 0.1 0.1 0 0.2-0.8 1.5-1.7 3.8-2.8 6.4-1.3 3.3-2.8 7-4.4 9.6-2.8 5-4.9 7.9-7.8 12.1q-0.1 0-0.1 0-0.1 0-0.1 0zm4.7-13.7c-1 2.1-1.8 5-2.6 7.9-0.5 1.5-0.9 3-1.3 4.3 2.5-3.5 4.3-6.4 6.9-10.8 1.5-2.6 3-6.3 4.4-9.6 0.7-1.8 1.5-3.6 2.1-5-2.1 2.3-7 8.1-9.5 13.2z"/>
	<path id="Layer" fill-rule="evenodd" class="s0" d="m179.6 79.1c0-0.2-0.3-3.9 0.9-8.8 1.3-5.5 4.1-8.8 5.9-10.9l0.4-0.6c1.8-2.1 2.2-3.4 2.2-3.4 0.1-0.2 0.3-0.3 0.5-0.3 0.1 0 0.3 0.2 0.3 0.4 0.6 3.7-0.3 6.3-0.3 6.4q0 0.2-0.2 0.2c0 0.1-3.3 2.4-5.8 6.1-2.6 3.8-3.1 10.8-3.1 10.9 0 0.2-0.2 0.3-0.4 0.3-0.2 0-0.4-0.1-0.4-0.3zm9.6-22.2c-0.4 0.6-0.9 1.5-1.8 2.4l-0.4 0.6c-1.9 2.2-4.5 5.3-5.8 10.6q-0.1 0.7-0.2 1.4c0.4-1.5 1-2.9 1.8-4.1 2.4-3.5 5.4-5.8 6-6.2 0.1-0.5 0.5-2.2 0.4-4.7z"/>
	<path id="Layer" fill-rule="evenodd" class="s0" d="m162.3 51.7c-0.1 0-9.1-0.4-14.7-2.4-5.7-2.1-12.6-7.4-12.7-7.4q-0.1-0.1-0.1-0.3c0.1 0 0.2-0.1 0.3 0 0.1 0 10.3 3.3 14.6 4.8 2.1 0.7 4.2 1.6 6.2 2.4 2.3 0.9 4.5 1.8 6.5 2.5 0.1 0 0.2 0.1 0.1 0.2 0 0.1-0.1 0.2-0.2 0.2q0 0 0 0zm-14.6-2.8c4.3 1.6 10.5 2.1 13.3 2.3-1.7-0.6-3.4-1.3-5.3-2-2-0.8-4.1-1.7-6.1-2.4-3.5-1.3-10.7-3.6-13.5-4.5 2.1 1.5 7.2 5 11.6 6.6z"/>
	<path id="Layer" fill-rule="evenodd" class="s0" d="m156.4 70.2c-7.6-0.4-13.7-3-13.7-3-0.1 0-0.2-0.2-0.2-0.3 0.1 0 0.2-0.1 0.3-0.1 2.7 0.7 6.1 0.5 9.7 0.2 1.7-0.1 3.4-0.2 5.2-0.3q0.1 0 0.2 0c5.3 0 12.1 2.4 12.1 2.4 0.1 0.1 0.2 0.2 0.2 0.3q-0.1 0.1-0.2 0.1c-2.5-0.3-4-0.1-5.7 0.2-1.4 0.3-3 0.5-5.6 0.5q-1 0-2.3 0zm11.9-1.2c-2.4-0.7-6.7-1.9-10.4-1.9q-0.1 0-0.2 0c-1.8 0.1-3.5 0.2-5.2 0.3-2.7 0.2-5.3 0.4-7.6 0.2 2.4 0.8 6.6 1.9 11.5 2.2 4 0.2 6.1-0.2 7.9-0.5 1.1-0.2 2.1-0.3 3.5-0.3q0.2 0 0.5 0z"/>
	<path id="Layer" fill-rule="evenodd" class="s0" d="m169.5 69c-0.1 0-3.7-3.1-9.5-3.6-3.6-0.4-7.2 0.3-7.3 0.4q-0.1 0-0.2-0.1c-4.9-1.7-5.9-4.6-6-4.7 0-0.2 0-0.3 0.1-0.4 0.2-0.1 0.3-0.2 0.4-0.1 3 1 5.7 1 8.2 1 2.4 0 4.8 0 7.4 0.9 5.5 1.7 7.4 6 7.5 6.2 0.1 0.1 0 0.3-0.1 0.5q-0.1 0-0.3 0-0.1 0-0.2-0.1zm-14.3-6.7c-2.3 0-4.8 0-7.5-0.8 0.7 0.9 2.1 2.4 5 3.5 0.6-0.2 4-0.8 7.4-0.4 3.7 0.3 6.6 1.7 8.3 2.7-1.1-1.3-3-3.2-6-4.2-2.4-0.7-4.6-0.8-6.9-0.8q-0.1 0-0.3 0z"/>
	<path id="Layer" fill-rule="evenodd" class="s0" d="m129.3 151.7c-0.1-0.1-0.2-0.2-0.1-0.3 0.6-3.8 2-6.2 3-8.2q0.3-0.5 0.5-0.9c1.1-2.1 2-5.7 2-5.7q0-0.2 0.2-0.2c0.1 0.1 0.2 0.1 0.2 0.2 0.1 3.6-1.1 7.5-2.3 9.9-0.7 1.3-1.2 2-1.8 2.7-0.5 0.6-1 1.2-1.5 2.4q0 0.1-0.1 0.1-0.1 0-0.1 0zm3.7-9.2q-0.2 0.4-0.4 0.9c-1 1.8-2.1 3.8-2.8 6.8 0.3-0.5 0.6-0.9 0.9-1.3 0.6-0.6 1.1-1.3 1.7-2.6 1.1-1.9 2.1-5.1 2.3-8.1-0.4 1.2-1 3-1.7 4.3z"/>
	<path id="Layer" fill-rule="evenodd" class="s0" d="m128 153.9c-0.2 0-0.3-0.2-0.3-0.3-0.1-0.4-0.2-0.7-0.4-1.1-0.3-0.8-0.7-1.8-0.8-3.7 0-1.6 0.3-3.3 0.6-4.8q0.1-0.9 0.3-1.7c0.5-3.5 0.2-4.7 0.2-4.7 0-0.2 0.1-0.4 0.3-0.5 0.1 0 0.3 0 0.4 0.2 2.4 4 2.1 7.4 2.1 7.5q0 0.1 0 0.1c-0.3 1.5-0.4 3-0.6 4.2-0.1 0.9-0.2 1.7-0.4 2.3-0.3 1.3-0.7 1.9-0.7 2l-0.3 0.4q-0.2 0.1-0.3 0.1-0.1 0-0.1 0zm0.5-14.7c-0.1 0.8-0.1 1.8-0.4 3.2q-0.1 0.8-0.3 1.7c-0.2 1.5-0.6 3.1-0.5 4.7 0 1.7 0.4 2.6 0.7 3.4q0.1 0.2 0.2 0.4c0.1-0.3 0.3-0.7 0.5-1.4 0.1-0.5 0.2-1.3 0.3-2.2 0.2-1.2 0.4-2.7 0.8-4.2 0-0.3 0-2.7-1.3-5.6z"/>
	<path id="Layer" fill-rule="evenodd" class="s0" d="m149.2 33.1q-0.1-0.1-0.2-0.2c-0.6-0.8-3.4-4.1-5.1-5.9-1.9-2-5.6-5-5.6-5q-0.1-0.1-0.1-0.1c-1.7-2.9-2.7-8.5-2.7-8.8 0-0.1 0.1-0.3 0.2-0.4 0.2-0.1 0.4 0 0.5 0.1 0.8 0.9 2.1 1.8 3.5 2.7 2.2 1.4 4.7 3.1 6 5.6 1 1.9 1.6 4.3 2.2 6.4 0.5 2 1.1 4 1.8 4.9q0.1 0.1 0.1 0.1c0.1 0.2 0.1 0.4 0 0.6q-0.2 0.1-0.3 0.1-0.2 0-0.3-0.1zm-10.4-11.7c0.5 0.4 3.8 3.2 5.7 5.1 0.9 1 2.3 2.5 3.4 3.8q-0.4-1.2-0.8-2.6c-0.5-2.1-1.1-4.4-2.1-6.3-1.2-2.3-3.6-3.9-5.8-5.3-1-0.6-1.9-1.2-2.7-1.9 0.4 1.8 1.2 5.2 2.3 7.2z"/>
	<path id="Layer" fill-rule="evenodd" class="s0" d="m149.2 33.2c-0.7-0.5-2.5-1-4.6-1.5-3.3-0.9-7.5-1.9-10.6-3.9-2.5-1.6-5.2-4.1-7.5-6.3-2.3-2.2-4.5-4.3-5.9-4.7-0.2-0.1-0.3-0.3-0.2-0.5 0-0.2 0.2-0.3 0.4-0.3 0.5 0 12.8 1 18.8 6.1 6.9 5.7 10.1 10.5 10.1 10.5 0.1 0.2 0.1 0.4 0 0.5q-0.2 0.1-0.3 0.1-0.1 0-0.2 0zm-22.2-12.3c2.3 2.2 5 4.7 7.4 6.2 3 1.9 7.1 3 10.4 3.8 1.3 0.3 2.5 0.6 3.4 0.9-1.4-1.7-4.4-5.2-9.1-9.1-4.4-3.8-12.8-5.2-16.5-5.7 1.2 0.9 2.8 2.3 4.4 3.9z"/>
	<path id="Layer" fill-rule="evenodd" class="s0" d="m148.8 32.4c-0.1 0-7.8-3.1-13.5-6.8-2-1.3-3.7-2.4-5.3-3.5-2.9-1.9-5.4-3.6-8.5-5.4-0.1 0-0.1-0.1-0.1-0.2 0.1-0.1 0.2-0.2 0.3-0.1 0.1 0 9.8 3.2 13.4 5.4 1.8 1.1 4.2 3 6.7 5 2.5 2 5.1 4 7.2 5.3 0.1 0 0.1 0.2 0 0.2q0 0.2-0.1 0.2-0.1 0-0.1-0.1zm-18.6-10.6c1.6 1.1 3.3 2.2 5.3 3.5 3.9 2.5 8.8 4.8 11.5 5.9-1.7-1.1-3.6-2.6-5.4-4.1-2.5-2-4.9-3.9-6.7-4.9-2.6-1.6-8.5-3.8-11.5-4.8 2.4 1.4 4.5 2.8 6.8 4.4z"/>
	<path id="Layer" class="s0" d="m156.5 38.9q0 0 0.1-0.1c0.1 0 0.1-0.2 0.1-0.2-2.1-3.2-3.7-6.6-5-10.1 0-0.1-0.1-0.2-0.2-0.2-0.1 0.1-0.2 0.2-0.1 0.3 1.2 3.6 2.9 7 4.9 10.2q0.1 0.1 0.2 0.1z"/>
	<path id="Layer" class="s0" d="m160.6 43.8q0.1 0 0.2 0c0-0.1 0-0.3-0.1-0.3-3.6-2.6-7.6-4.5-11.8-5.7-0.1-0.1-0.2 0-0.3 0.1 0 0.1 0.1 0.2 0.2 0.2 4.2 1.3 8.1 3.2 11.7 5.7q0.1 0 0.1 0z"/>
	<path id="Layer" class="s0" d="m163.1 47.1q0.1 0 0.1 0c0.1-0.1 0.2-0.2 0.1-0.3-1.2-3.1-1.9-6.4-2.1-9.8q0-0.2-0.2-0.2c-0.1 0-0.2 0.1-0.2 0.2 0.2 3.4 0.9 6.8 2.2 9.9q0 0.2 0.1 0.2z"/>
	<path id="Layer" class="s0" d="m173.2 64.8c0.1 0 0.2-0.1 0.2-0.2 0.1-3.5 0.6-7.1 1.5-10.5 0-0.1-0.1-0.2-0.2-0.2-0.1-0.1-0.2 0-0.2 0.1-0.9 3.5-1.4 7-1.5 10.6 0 0.1 0.1 0.2 0.2 0.2q0 0 0 0z"/>
	<path id="Layer" class="s0" d="m172.5 63.8q0.1 0 0.2 0c0-0.1 0-0.2 0-0.3-2.6-2.4-5.4-4.4-8.6-6-0.1 0-0.2 0-0.2 0.1-0.1 0.1 0 0.3 0.1 0.3 3 1.5 5.9 3.5 8.4 5.9q0.1 0 0.1 0z"/>
	<path id="Layer" class="s0" d="m176.7 79.5c0.1 0 0.2-0.1 0.2-0.2-0.1-3.5 0.5-7 1.5-10.4 0.1-0.1 0-0.2-0.1-0.2-0.1-0.1-0.2 0-0.2 0.1-1.1 3.4-1.7 7-1.6 10.5 0 0.2 0.1 0.2 0.2 0.2z"/>
	<path id="Layer" class="s0" d="m176.8 93q0 0 0 0c0.2 0 0.2-0.1 0.2-0.2-0.3-3.6-1.4-7.1-3.3-10.2 0-0.1-0.1-0.1-0.2 0-0.1 0-0.1 0.2-0.1 0.2 1.8 3.1 2.9 6.5 3.2 10 0 0.1 0.1 0.2 0.2 0.2z"/>
	<path id="Layer" class="s0" d="m176.1 101.4q0.1 0 0.2-0.1c1.3-2.8 3.2-5.4 5.5-7.4 0.1-0.1 0.1-0.2 0-0.3 0-0.1-0.1-0.1-0.2 0-2.4 2-4.4 4.7-5.7 7.6 0 0.1 0 0.2 0.1 0.2q0.1 0 0.1 0z"/>
	<path id="Layer" class="s0" d="m175 106.8q0.1 0 0.2-0.1 0.9-1.6 2.4-2.8c0.1-0.1 0.1-0.2 0-0.3 0-0.1-0.2-0.1-0.2 0q-1.6 1.2-2.6 2.9c0 0.1 0 0.2 0.1 0.3q0.1 0 0.1 0z"/>
	<path id="Layer" class="s0" d="m170.8 118.1c0.1 0 0.2-0.1 0.2-0.2 0.7-4.9 0.5-9.9-0.6-14.7-0.1-0.1-0.2-0.2-0.3-0.2-0.1 0.1-0.1 0.2-0.1 0.3 1.1 4.8 1.3 9.7 0.6 14.6 0 0.1 0.1 0.2 0.2 0.2q0 0 0 0z"/>
	<path id="Layer" class="s0" d="m166.5 126.2q0.1 0 0.1 0c1.1-1.2 2.5-2.1 4.1-2.4 0.1-0.1 0.2-0.2 0.1-0.3 0-0.1-0.1-0.2-0.2-0.1-1.6 0.3-3.2 1.2-4.3 2.5-0.1 0.1 0 0.2 0 0.3q0.1 0 0.2 0z"/>
	<path id="Layer" class="s0" d="m163.2 130.6q0.1 0 0.2-0.2c1-4.6 1.1-8 0.5-11.3 0-0.1-0.1-0.1-0.2-0.1-0.1 0-0.2 0.1-0.2 0.2 0.6 3.3 0.5 6.6-0.5 11.1 0 0.1 0 0.2 0.1 0.3q0.1 0 0.1 0z"/>
	<path id="Layer" class="s0" d="m161 133.3q0 0 0.1 0c2.4-1.2 5.2-1.9 7.9-2 0.1 0 0.2-0.1 0.2-0.2 0-0.1-0.1-0.2-0.2-0.2q0 0 0 0c-2.8 0.1-5.6 0.8-8.1 2-0.1 0.1-0.1 0.2-0.1 0.3q0.1 0.1 0.2 0.1z"/>
	<path id="Layer" class="s0" d="m148.3 143.9q0.1 0 0.1-0.1c2-2.5 3.4-5.4 4-8.6 0-0.1-0.1-0.2-0.2-0.2q-0.2 0-0.2 0.2c-0.6 3-1.9 5.9-3.9 8.4 0 0 0 0.2 0.1 0.2q0 0.1 0.1 0.1z"/>
	<path id="Layer" class="s0" d="m154.7 145.5c0.1 0 0.2 0 0.2-0.1 0-0.1-0.1-0.2-0.2-0.3-3.1-0.5-6.3-0.5-9.4-0.1-0.1 0-0.2 0.1-0.2 0.2q0 0.2 0.2 0.2c3.1-0.4 6.3-0.4 9.4 0.1q0 0 0 0z"/>
	<path id="Layer" class="s0" d="m133.3 151.7q0.1 0 0.2-0.1c2.1-1.8 3.8-4 5-6.5 0.1-0.1 0-0.2 0-0.2-0.2-0.1-0.3 0-0.3 0.1-1.2 2.4-2.9 4.6-5 6.3-0.1 0.1-0.1 0.2 0 0.3q0.1 0.1 0.1 0.1z"/>
	<path id="Layer" class="s0" d="m135.5 154.5q0.1 0 0.2-0.1c0-0.1 0-0.2 0-0.3 0 0-0.5-0.2-0.5-0.2-2.1-0.7-4.3-1-6.4-0.7-0.1 0-0.2 0.1-0.2 0.2 0 0.1 0.1 0.2 0.2 0.1 2.3-0.2 4.5 0.1 6.6 0.9q0.1 0.1 0.1 0.1z"/>
	<path id="Layer" class="s1" d="m151.3 28.6c-0.8 0-1.4-0.7-1.4-1.4 0-0.8 0.6-1.4 1.4-1.4 0.7 0 1.3 0.6 1.3 1.4 0 0.7-0.6 1.4-1.3 1.4z"/>
	<path id="Layer" class="s1" d="m175.1 54.2c-0.7 0-1.3-0.7-1.3-1.4 0-0.7 0.6-1.4 1.3-1.4 0.8 0 1.4 0.7 1.4 1.4 0 0.7-0.6 1.4-1.4 1.4z"/>
	<path id="Layer" class="s1" d="m170.4 132.4c-0.8 0-1.4-0.6-1.4-1.3 0-0.8 0.6-1.4 1.4-1.4 0.7 0 1.3 0.6 1.3 1.4 0 0.7-0.6 1.3-1.3 1.3z"/>
	<path id="Layer" class="s1" d="m171.9 81.8c0 0.6 0.5 1.1 1.1 1.1 0.6 0 1-0.5 1-1.1 0-0.6-0.4-1-1-1-0.6 0-1.1 0.4-1.1 1z"/>
	<path id="Layer" class="s1" d="m178.3 104.3c-0.5 0-1-0.5-1-1 0-0.6 0.5-1.1 1-1.1 0.6 0 1.1 0.5 1.1 1.1 0 0.5-0.5 1-1.1 1z"/>
	<path id="Layer" class="s1" d="m162.5 118.2c0 0.5 0.5 1 1 1 0.6 0 1.1-0.5 1.1-1 0-0.6-0.5-1.1-1.1-1.1-0.5 0-1 0.5-1 1.1z"/>
	<path id="Layer" class="s1" d="m155.7 146.6c-0.6 0-1.1-0.5-1.1-1.1 0-0.6 0.5-1 1.1-1 0.6 0 1 0.4 1 1 0 0.6-0.4 1.1-1 1.1z"/>
	<path id="Layer" class="s1" d="m138.8 145.1c-0.5 0-1-0.4-1-1 0-0.6 0.5-1.1 1-1.1 0.6 0 1.1 0.5 1.1 1.1 0 0.6-0.5 1-1.1 1z"/>
	<path id="Layer" class="s1" d="m147.3 39.1c-0.7 0-1.3-0.6-1.3-1.4 0-0.7 0.6-1.3 1.3-1.3 0.8 0 1.4 0.6 1.4 1.3 0 0.8-0.6 1.4-1.4 1.4z"/>
	<path id="Layer" class="s1" d="m160.9 37.1c-0.7 0-1.3-0.6-1.3-1.3 0-0.8 0.6-1.4 1.3-1.4 0.8 0 1.4 0.6 1.4 1.4 0 0.7-0.6 1.3-1.4 1.3z"/>
	<path id="Layer" class="s1" d="m162.7 58.6c-0.8 0-1.5-0.7-1.5-1.5 0-0.8 0.7-1.5 1.5-1.5 0.8 0 1.5 0.7 1.5 1.5 0 0.8-0.7 1.5-1.5 1.5z"/>
	<path id="Layer" class="s1" d="m182.8 94.2c-0.8 0-1.5-0.6-1.5-1.4 0-0.9 0.7-1.5 1.5-1.5 0.8 0 1.5 0.6 1.5 1.5 0 0.8-0.7 1.4-1.5 1.4z"/>
	<path id="Layer" class="s1" d="m178.7 69c-0.6 0-1.1-0.5-1.1-1.1 0-0.7 0.5-1.2 1.1-1.2 0.6 0 1.1 0.5 1.1 1.2 0 0.6-0.5 1.1-1.1 1.1z"/>
	<path id="Layer" class="s1" d="m168.8 102.1c0 0.7 0.5 1.2 1.1 1.2 0.7 0 1.2-0.5 1.2-1.2 0-0.6-0.5-1.1-1.2-1.1-0.6 0-1.1 0.5-1.1 1.1z"/>
	<path id="Layer" class="s1" d="m171.7 124.4c-0.6 0-1.1-0.5-1.1-1.1 0-0.6 0.5-1.1 1.1-1.1 0.7 0 1.2 0.5 1.2 1.1 0 0.6-0.5 1.1-1.2 1.1z"/>
	<path id="Layer" class="s1" d="m136.6 155.7c-0.6 0-1.1-0.5-1.1-1.1 0-0.7 0.5-1.2 1.1-1.2 0.6 0 1.1 0.5 1.1 1.2 0 0.6-0.5 1.1-1.1 1.1z"/>
	<path id="Layer" class="s1" d="m151.2 134.1c0 0.6 0.5 1.1 1.1 1.1 0.6 0 1.2-0.5 1.2-1.1 0-0.6-0.6-1.1-1.2-1.1-0.6 0-1.1 0.5-1.1 1.1z"/>
	<path id="Layer" fill-rule="evenodd" class="s0" d="m170.3 58.9c-2.2-3.3-6.5-6.8-9.9-6.8q-0.1 0-0.3 0c-0.8 0.1-1.7 0.2-2.7 0.3-3.5 0.4-7.8 0.9-12-1-3-1.3-4.7-3.2-6.4-5.2-1.5-1.6-3-3.3-5.4-4.8-0.2-0.1-0.3-0.3-0.2-0.5 0.1-0.2 0.3-0.3 0.5-0.2 0.1 0 3.5 1.2 8.8 1.8l0.6 0.1c5 0.5 8.4 0.8 15.8 6 7.6 5.1 10 6.7 10 6.8q0.1 0 0.1 0.1l1.8 2.9c0.1 0.2 0 0.5-0.2 0.6q-0.1 0-0.2 0-0.2 0-0.3-0.1zm-8.1-7.3q-1.6-1-3.5-2.4c-7.3-5-10.4-5.3-15.5-5.9h-0.6c-2.8-0.3-5.1-0.8-6.7-1.2 1.5 1.2 2.6 2.4 3.7 3.6 1.7 1.9 3.3 3.7 6.1 5 4 1.8 8.3 1.3 11.7 0.9 0.9-0.1 1.9-0.2 2.7-0.2q0.1 0 0.3 0 0.8 0 1.8 0.2z"/>
	<path id="Layer" fill-rule="evenodd" class="s0" d="m170.6 59.3l-0.6-1q-0.1-0.2-0.1-0.3c0 0 0.3-1.9 0.3-4.1-0.1-2.2-0.5-4.1-0.5-4.1q-0.1-0.2 0-0.3c0 0 2.3-4.2 2.9-8 0.7-3.8 0.7-6.5 0.7-6.5q0-0.1 0-0.2c0.2-0.3 4.1-7.9 10.1-10.7 0.1 0 0.3 0 0.4 0.2 0.1 0.1 0.1 0.3 0 0.4-1.9 2.9-2.7 4.4-3.3 7.4-0.2 0.7-0.3 1.8-0.4 3-0.4 3.4-0.8 8-3.2 11.2l-0.5 0.7c-2.8 3.9-5.6 7.7-5.1 12.1 0.1 0.2 0 0.3-0.2 0.4q-0.1 0-0.1 0-0.3 0-0.4-0.2zm3.5-24.2c0 0.5-0.1 3.1-0.7 6.5-0.6 3.6-2.5 7.4-2.9 8.2 0.1 0.4 0.4 2.1 0.4 4.1q0.1 0.5 0.1 1c0.8-2.9 2.8-5.6 4.8-8.4l0.5-0.6c2.2-3.1 2.7-7.6 3-10.8 0.1-1.3 0.2-2.4 0.4-3.2 0.5-2.6 1.2-4.1 2.6-6.3-4.7 2.9-7.8 8.8-8.2 9.5z"/>
	<path id="Layer" fill-rule="evenodd" class="s0" d="m170 50.1c-0.1 0-0.3-0.1-0.3-0.3-0.3-0.8-0.8-1.5-1.4-2.4-1.2-1.9-2.7-4.2-3.3-8.3-0.6-4.2 0.3-9.9 0.9-14.1l0.2-1.5c0.7-4.3 1.8-8.1 1.8-8.1 0-0.2 0.2-0.3 0.4-0.3q0 0 0 0c0.1 0 0.3 0.1 0.3 0.3 0 0 1.3 5.4 2.1 7.8q0.4 1.4 1 3.1c1.1 2.8 2.2 6 2.3 8.9 0.1 3.5-0.3 8.3-3.6 14.7q-0.1 0.2-0.3 0.2-0.1 0-0.1 0zm-3.1-26.4l-0.2 1.4c-0.7 4.2-1.5 9.8-0.9 13.9 0.6 3.9 2 6.2 3.2 7.9 0.4 0.7 0.8 1.3 1.1 1.9 2.9-5.9 3.2-10.3 3.1-13.6-0.1-2.8-1.2-5.9-2.2-8.7q-0.6-1.6-1.1-3c-0.5-1.7-1.2-4.6-1.7-6.4-0.3 1.5-0.9 3.9-1.3 6.6z"/>
	<path id="Layer" fill-rule="evenodd" class="s0" d="m170.1 49.2c-2.9-4.3-2.8-12.6-2.8-18q0-1 0-1.9c0-3.7 0.8-12.7 0.8-12.8 0-0.1 0.1-0.1 0.2-0.1q0 0 0 0c0.2 0 0.2 0 0.2 0.2 0 1.5 0.5 4.2 1.1 7.5 0.7 3.5 1.5 7.6 1.7 11.1 0.3 5.1-0.1 8.3-0.5 11.3-0.1 0.9-0.2 1.7-0.3 2.6q0 0.1-0.1 0.1-0.1 0-0.1 0-0.1 0-0.2 0zm-2.4-19.9q0 0.9 0 1.9c-0.1 5.2-0.1 13 2.5 17.3q0.1-1 0.2-2c0.4-3.1 0.8-6.2 0.5-11.3-0.2-3.4-1-7.5-1.6-11.1-0.4-1.9-0.8-3.7-1-5.2-0.2 2.9-0.6 7.9-0.6 10.4z"/>
	<path id="Layer" fill-rule="evenodd" class="s0" d="m175.5 75.1c-1.2-2.5-4.2-5.3-6.5-5.1-0.8 0-2 0.4-3.3 0.9-2.5 1-6 2.3-10.4 2-4.1-0.3-6.8-2-9.1-3.4-1.5-0.9-2.8-1.8-4.4-2.3-0.2 0-0.3-0.2-0.3-0.4 0.1-0.2 0.2-0.3 0.4-0.3q0 0 0 0c0.1 0 3.1 0.1 6.8-0.6 0.9-0.2 1.7-0.4 2.5-0.6 2.4-0.6 4.6-1.1 9.1-0.7 4.6 0.4 6.9 2 8.4 3 0.5 0.4 0.9 0.6 1.2 0.8 1.5 0.6 4.9 2.9 6 4.6q0 0.1 0 0.2l0.4 1.6c0 0.2-0.1 0.4-0.3 0.5q-0.1 0-0.1 0c-0.2 0-0.3-0.1-0.4-0.2zm-5.6-5.9q-0.2 0-0.3-0.1c-0.4-0.2-0.8-0.5-1.3-0.8-1.5-1-3.7-2.6-8-2.9-4.5-0.4-6.5 0.1-8.9 0.7-0.8 0.2-1.6 0.4-2.5 0.6-2 0.3-3.7 0.5-5 0.5 0.9 0.5 1.8 1 2.7 1.6 2.4 1.5 4.8 3 8.8 3.3 4.2 0.3 7.5-1 10-1.9 1.5-0.6 2.6-1 3.6-1q0 0 0.1 0 0.4 0 0.8 0z"/>
	<path id="Layer" fill-rule="evenodd" class="s0" d="m177.3 90.2c-0.2-0.1-0.3-0.3-0.2-0.5q0.1-0.3 0.2-0.6c0.6-1.5 2.1-5.4 2.3-8.7v-0.2c0.2-3.1 0.5-8.2 3.4-12.7 1.5-2.2 3.9-4.3 6.2-6.3 2.5-2.1 4.8-4.1 5.8-6 0.1-0.2 0.3-0.3 0.5-0.2 0.2 0.1 0.3 0.3 0.2 0.5-0.5 1.7-0.9 3.8-1.4 6.1-0.9 4.6-1.9 9.8-4.1 13.5-1.4 2.3-3.3 4-5.2 5.7-2.6 2.3-5.2 4.6-6.9 8.5q-0.3 0.6-0.3 0.7c-0.1 0.1-0.2 0.2-0.4 0.2q0 0-0.1 0zm12.4-28.4c-2.3 2-4.6 4-6 6.2-2.8 4.3-3.1 9.3-3.3 12.3v0.2c-0.1 1.6-0.5 3.4-1 4.9 1.6-2.1 3.3-3.6 5-5.2 1.9-1.7 3.8-3.3 5.1-5.5 2.2-3.6 3.2-8.7 4.1-13.3 0.2-1.4 0.5-2.7 0.8-3.9-1.2 1.4-2.9 2.8-4.7 4.3z"/>
	<path id="Layer" fill-rule="evenodd" class="s0" d="m178.5 87.8c-0.2-0.1-0.3-0.4-0.2-0.5 0.1-0.2 1.7-2.9 4.7-5.7l0.9-0.9c2.5-2.2 3.9-3.5 5-5.1 1.4-2.1 2.4-4.9 2.5-4.9q0-0.1 0-0.2c0.1-0.1 2.2-2.2 5-3.8 0.2-0.1 0.4-0.1 0.5 0 0.2 0.2 0.2 0.4 0.1 0.5 0 0.1-1.6 2.3-3 6.3-1.8 4.7-4.2 8-7 9.3-4.2 2-7 3.7-8 4.9q-0.1 0.1-0.3 0.1-0.1 0-0.2 0zm13.6-16.8c-0.2 0.5-1.2 3-2.6 5-1.1 1.7-2.6 3-5 5.3l-1 0.9c-1.2 1.1-2.2 2.2-2.9 3.2 1.7-1.2 4.1-2.4 6-3.3 3.4-1.6 5.5-5.7 6.6-8.9 0.9-2.2 1.7-3.9 2.3-5-1.9 1.2-3.2 2.5-3.4 2.8z"/>
	<path id="Layer" fill-rule="evenodd" class="s0" d="m175.2 102.4c0 0-0.4-7.2-3.2-9-1.3-0.8-2.5-1.2-4-1.7-1.1-0.3-2.3-0.7-3.7-1.3-3-1.3-4.1-3.8-5.3-6.5q-0.3-0.7-0.7-1.5c-1.4-3-3.6-5-3.6-5-0.2-0.2-0.2-0.4-0.1-0.6 0.2-0.1 0.4-0.2 0.5-0.1 1.4 0.8 3.1 1.2 4.9 1.6 2.5 0.7 5.1 1.3 7.4 3 2.7 2 3.7 5.3 4.6 7.9 0.3 1.2 0.6 2.2 1 2.9l0.2 0.4c1.4 2.5 3.1 5.5 2.8 9.9 0 0.3-0.2 0.4-0.4 0.4-0.2 0-0.3-0.1-0.4-0.4zm-16.2-20.3q0.4 0.7 0.7 1.5c1.1 2.5 2.2 4.9 4.9 6 1.4 0.6 2.6 1 3.6 1.4 1.5 0.4 2.8 0.9 4.2 1.7q0 0.1 0.1 0.1l-0.2-0.3c-0.4-0.8-0.7-1.8-1.1-3-0.8-2.5-1.8-5.7-4.3-7.6-2.1-1.5-4.7-2.2-7.1-2.8-1.2-0.3-2.3-0.6-3.3-0.9 0.8 0.9 1.7 2.2 2.5 3.9z"/>
	<path id="Layer" fill-rule="evenodd" class="s0" d="m170.8 118.5c-0.1-0.2-0.1-0.4 0-0.5 0 0 0.9-1.1 3.3-5 0.5-0.9 1-1.7 1.4-2.6 1.5-2.8 2.8-5.3 6.7-7.6 2.4-1.4 4.7-2.4 7-3.3 2.5-1.1 4.8-2.1 7.1-3.6 0.2-0.1 0.4-0.1 0.6 0.1 0.1 0.1 0.1 0.3 0 0.5-1.5 1.8-2.7 4.3-4 6.9-2.4 4.7-4.8 9.6-9.2 11.3-3.3 1.4-5.8 1.9-7.9 2.3-1.9 0.4-3.3 0.7-4.4 1.5q-0.2 0.1-0.3 0.1-0.1 0-0.3-0.1zm18.7-18.3c-2.2 0.9-4.5 1.9-6.9 3.3-3.7 2.2-5 4.6-6.4 7.3-0.4 0.8-0.9 1.7-1.5 2.6-1 1.7-1.8 2.9-2.3 3.7 0.9-0.4 2-0.6 3.3-0.9 2-0.4 4.5-0.9 7.8-2.2 4-1.6 6.4-6.4 8.7-11 0.9-1.9 1.9-3.8 2.9-5.4-1.8 1-3.7 1.8-5.6 2.6z"/>
	<path id="Layer" fill-rule="evenodd" class="s0" d="m167.4 124.5c-0.2 0-0.3-0.2-0.3-0.5 0.4-1.8 0.7-3.7 0.9-5.5 0-0.9-0.2-1.8-0.4-2.6-0.6-1.5-2-2-5-3.3-1.6-0.7-3.5-1.5-5.8-2.6-7.4-3.6-7.2-13.4-7.2-13.5 0-0.1 0.1-0.3 0.2-0.3 0.2-0.1 0.4 0 0.5 0.1 2 3.2 4.7 4.4 7.5 5.6 2.4 1.1 4.9 2.2 7.2 4.6 3.4 3.6 4 7.7 3.8 11.9 0.1 2.8-0.9 5.7-0.9 5.8-0.1 0.2-0.2 0.3-0.4 0.3q0 0-0.1 0zm-10.3-15.3c2.4 1.2 4.3 2 5.8 2.6 2.7 1.2 4.3 1.9 5.1 3.2-0.3-2.8-1.3-5.5-3.6-7.9-2.1-2.3-4.6-3.4-6.9-4.4-2.6-1.2-5.1-2.3-7.1-4.8 0.2 2.6 1.4 8.7 6.7 11.3z"/>
	<path id="Layer" fill-rule="evenodd" class="s0" d="m156.5 136.9c-0.1-0.2-0.1-0.4 0-0.5 0 0 1.6-2.3 1.2-4.4-0.2-0.8-0.7-1.6-1.4-2.4-0.9-1.2-2.1-2.7-2.5-5.2-0.2-1.4 0-3.3 0.2-5.3 0.2-2.3 0.5-4.6 0.1-6.1 0-0.1 0.1-0.3 0.2-0.4 0.2-0.1 0.4-0.1 0.5 0.1 1.1 1 1.4 2.4 1.6 3.7 0.2 0.7 0.3 1.5 0.6 2.2q0.3 0.6 0.8 1.3c1.2 1.9 3 4.9 2.4 10-0.7 6.4-3.2 7.1-3.3 7.1q0 0-0.1 0-0.2 0-0.3-0.1zm-1.7-17.8c-0.2 2-0.4 3.9-0.2 5.2 0.3 2.2 1.4 3.6 2.3 4.8 0.7 0.9 1.4 1.7 1.6 2.8 0.1 0.8 0 1.6-0.1 2.3 0.4-0.9 0.8-2.4 1-4.4 0.6-4.9-1.1-7.5-2.3-9.5q-0.5-0.7-0.8-1.3c-0.4-0.8-0.5-1.7-0.6-2.5-0.2-0.8-0.3-1.5-0.6-2.1 0 1.4-0.1 3.1-0.3 4.7z"/>
	<path id="Layer" fill-rule="evenodd" class="s0" d="m167 144.8c-3-0.2-4.5-1.1-5.9-2-0.8-0.5-1.5-0.9-2.6-1.3-2.8-1-5.6-0.4-5.7-0.4-0.1 0.1-0.3 0-0.4-0.1-0.1-0.2-0.1-0.4 0.1-0.5 0.1-0.2 4.1-4 9.9-3.6 3.6 0.3 5.9 1.8 7.9 3.1 1.4 0.9 2.6 1.7 4.1 2 3.7 1 5.2 1.8 5.3 1.8 0.2 0.1 0.3 0.3 0.2 0.5-0.1 0.2-0.3 0.3-0.5 0.2-2.4-0.6-4.5-0.3-6.8 0-1.4 0.2-2.8 0.4-4.3 0.4q-0.6 0-1.3-0.1zm7.2-2c-1.6-0.4-2.9-1.2-4.3-2.2-2.1-1.3-4.2-2.7-7.5-2.9-3.8-0.2-6.8 1.4-8.3 2.5 1.2-0.1 2.9-0.1 4.7 0.6 1.1 0.4 2 0.9 2.8 1.4 1.3 0.8 2.6 1.6 5.5 1.9 1.9 0.1 3.7-0.1 5.4-0.4 1.2-0.2 2.5-0.3 3.7-0.3q-0.8-0.3-2-0.6z"/>
	<path id="Layer" fill-rule="evenodd" class="s0" d="m143.7 146.8c-0.3-0.1-0.4-0.3-0.3-0.5q0 0 0-0.1c0.1-0.3 0.4-1.7 0.3-2.5-0.3-1.4-0.3-1.6-0.6-2.8l-0.3-1.1c-0.5-2.2-0.2-5.8 0.8-8.7 0.9-2.6 0.9-5.5 0.9-5.5 0-0.3 0.2-0.4 0.4-0.4 0.2 0 0.4 0.1 0.4 0.3 0.1 1.5 0.5 2.9 1 4.4 0.6 1.8 1.2 3.6 1.2 6 0.1 3.6-1.2 6.1-2.3 8.2-0.4 0.9-0.8 1.6-1 2.3q-0.1 0.1-0.1 0.1c0 0.2-0.2 0.3-0.3 0.3q-0.1 0-0.1 0zm0.6-15.4c-0.9 2.7-1.2 6.1-0.7 8.2l0.2 1.1c0.4 1.2 0.4 1.4 0.7 2.9q0 0.1 0 0.2 0-0.1 0-0.1c1-1.9 2.3-4.4 2.2-7.8 0-2.3-0.6-4.1-1.1-5.8q-0.3-0.8-0.6-1.7c-0.1 0.9-0.3 2-0.7 3z"/>
	<path id="Layer" fill-rule="evenodd" class="s0" d="m156 155.7c-0.9-0.2-2-0.2-3.3-0.3-2.1 0-4.4 0-6.5-1-2.1-1.1-3-2-3.7-2.7-0.4-0.5-0.8-0.9-1.4-1.2-1.5-0.9-2.7-0.9-2.7-0.8q0 0-0.1 0c-0.1 0-0.3-0.2-0.3-0.3-0.1-0.2 0-0.4 0.2-0.5 0 0 1.5-0.8 4.5-1 3.4-0.3 6.1 0.4 7.4 1.1 1.5 0.9 2.4 1.9 3.6 3.3l0.1 0.2c1.4 1.6 2.6 2.5 2.6 2.5 0.1 0.2 0.2 0.4 0.1 0.5-0.1 0.2-0.2 0.2-0.4 0.2q0 0-0.1 0zm-13.2-7c-1.2 0.1-2.2 0.2-2.9 0.4q0.7 0.2 1.6 0.7c0.7 0.4 1.1 0.8 1.6 1.3 0.7 0.8 1.4 1.6 3.4 2.5 2 1 4.2 1 6.2 1q1.1 0.1 2.1 0.1c-0.4-0.4-1-1-1.6-1.7l-0.1-0.2c-1.2-1.3-2-2.3-3.4-3.1-1-0.5-3-1.1-5.6-1.1q-0.6 0-1.3 0.1z"/>
	<path id="Layer" fill-rule="evenodd" class="s0" d="m127.9 153.8c-0.2-0.1-0.3-0.3-0.2-0.5q0.1-0.2 0.3-0.4c0.2-0.4 0.5-1 0.7-1.7 0.2-0.9 0.4-2.4 0.5-3.6l0.1-0.5c0.4-3.4 1.4-4.7 2.5-6.1q0.4-0.5 0.7-1.1c1.3-1.9 2.1-4.6 2.1-4.6q0.1-0.3 0.5-0.3c0.1 0 0.3 0.2 0.3 0.4 0.4 4 0.6 8.1-1.1 11.5-0.9 1.9-2.3 3.1-3.5 4.2-0.8 0.8-1.6 1.4-2.1 2.2q-0.3 0.4-0.3 0.4-0.1 0.2-0.3 0.2-0.1 0-0.2-0.1zm5.3-13.4q-0.4 0.5-0.8 1c-1 1.4-1.9 2.6-2.3 5.8l-0.1 0.5c-0.1 1.1-0.3 2.6-0.5 3.5q0.3-0.3 0.7-0.6c1.3-1.1 2.6-2.3 3.4-4 1.3-2.7 1.4-6 1.2-9.3-0.4 0.9-0.9 2.1-1.6 3.1z"/>
	<path id="Layer" fill-rule="evenodd" class="s0" d="m113.6 157.9q-0.2-0.1-0.2-0.2c0-0.1-0.6-2.6 0.6-5.7 0.6-1.4 1.6-2.6 2.5-3.8 1.2-1.3 2.3-2.7 2.8-4.5 0-0.2 0.2-0.3 0.4-0.2 0.2 0 0.4 0.2 0.3 0.4-0.1 1.2-0.2 2.2-0.2 3.2-0.1 1.9-0.1 3.6-0.8 5.9-1.2 3.7-4.9 4.9-5.1 4.9q-0.1 0.1-0.1 0.1-0.1 0-0.2-0.1zm3.6-9.2c-1 1.2-1.9 2.3-2.4 3.6-0.8 2.1-0.8 3.9-0.7 4.7 1-0.4 3.3-1.7 4.1-4.2 0.7-2.2 0.8-3.9 0.8-5.7q0-0.4 0-0.9c-0.5 0.9-1.2 1.7-1.8 2.5z"/>
	<path id="Layer" fill-rule="evenodd" class="s0" d="m135.2 162.6c-0.2 0-5.6-0.1-9-2.4-3.4-2.4-4.4-4.6-4.5-4.7-0.1-0.1 0-0.3 0.1-0.4q0.1-0.2 0.4-0.1c0.9 0.2 1.6 0.2 2.4 0.2 1.2 0 2.6 0 4.7 1 2.2 1 3.2 2.4 4.2 3.6 0.6 0.8 1.2 1.5 1.9 2.1 0.2 0.1 0.2 0.3 0.2 0.5-0.1 0.1-0.2 0.2-0.4 0.2q0 0 0 0zm-10.6-6.6c-0.6 0-1.1 0-1.7-0.1 0.5 0.8 1.7 2.2 3.7 3.6 2.3 1.6 5.8 2.1 7.5 2.3-0.4-0.5-0.8-1-1.2-1.5-0.9-1.2-1.9-2.4-3.9-3.4-1.8-0.8-2.9-0.9-4-0.9q-0.2 0-0.4 0z"/>
	<path id="Layer" class="s1" d="m148.9 32.9c0 0 0.6 0.5 1.7 1.4 1.1 0.9 2.7 2.3 4.6 4.2 3.8 3.7 9 9.3 13.3 17.3 2.2 4 4.1 8.6 5.5 13.6 1.6 5 2.2 10.5 2.5 16.2 0 5.6-0.3 11.5-1.5 17.4l-1 4.4c-0.4 1.4-0.9 2.8-1.3 4.3-0.8 2.9-2.3 5.5-3.5 8.3-2.9 5.3-6.4 10.3-10.6 14.5-4.3 4.2-9 7.8-13.9 10.7-9.8 5.7-20 9-28.9 11.2-4.4 1.1-8.5 2-12.1 3.1-3.6 1-6.8 2-9.3 3-2.5 0.9-4.4 1.9-5.7 2.6-1.3 0.7-1.9 1.2-1.9 1.3-0.3 0.2-0.3 0.6-0.1 0.8 0.3 0.2 0.6 0.3 0.9 0-0.1 0.1 0.5-0.4 1.7-1.1 1.2-0.7 3.1-1.6 5.6-2.5 2.4-1 5.5-2 9.1-3 3.5-1 7.6-1.9 12.1-3 8.9-2.2 19.3-5.6 29.2-11.4 5-2.9 9.8-6.6 14.1-10.8 4.4-4.3 7.9-9.4 10.9-14.8 1.2-2.8 2.7-5.6 3.5-8.6 0.5-1.4 1-2.9 1.4-4.4l1-4.4c1.2-5.9 1.6-11.9 1.5-17.7-0.4-5.7-1-11.3-2.6-16.4-1.4-5.1-3.4-9.7-5.7-13.8-4.4-8.1-9.7-13.8-13.6-17.5-1.9-1.9-3.5-3.2-4.6-4.2-1.1-0.9-1.7-1.4-1.7-1.4-0.2-0.1-0.5-0.1-0.6 0.1-0.2 0.2-0.1 0.4 0 0.6z"/>
	<path id="Layer" class="s0" d="m111.2 127.3l3.1 0.1-2.5 1.8 0.9 2.9-2.5-1.7-2.5 1.7 0.9-2.9-2.4-1.9h3l1.1-2.9z"/>
	<path id="Layer" class="s1" d="m123.8 125.3l2.5 0.1-2 1.5 0.7 2.4-2.1-1.4-2 1.4 0.7-2.4-2-1.5 2.5-0.1 0.9-2.3z"/>
	<path id="Layer" class="s0" d="m134.2 120.2l2.2 0.1-1.8 1.3 0.7 2.2-1.9-1.3-1.8 1.2 0.6-2.1-1.7-1.4h2.2l0.8-2.1z"/>
	<path id="Layer" class="s1" d="m142.1 112.3l2.2 0.1-1.8 1.3 0.6 2.2-1.8-1.3-1.8 1.2 0.6-2.1-1.7-1.4h2.2l0.7-2.1z"/>
	<path id="Layer" class="s1" d="m97.1 125.3l-2.5 0.1 2 1.5-0.7 2.4 2-1.4 2.1 1.4-0.8-2.4 2-1.5-2.5-0.1-0.8-2.3z"/>
	<path id="Layer" class="s0" d="m86.7 120.2l-2.3 0.1 1.8 1.3-0.6 2.2 1.8-1.3 1.9 1.2-0.7-2.1 1.8-1.4h-2.3l-0.7-2.1z"/>
	<path id="Layer" class="s1" d="m78.8 112.3l-2.2 0.1 1.7 1.3-0.6 2.2 1.8-1.3 1.9 1.2-0.7-2.1 1.8-1.4h-2.2l-0.8-2.1z"/>
	<path id="Layer" class="s0" d="m113.6 77.8c0-6.1-0.1-12 0.1-18 0.1-3.8 4-6.6 7.8-6q0.9 0.1 1.9 0.1c1.9-0.1 3.4 0.9 3.8 2.6 0.4 1.7-0.5 3.5-2.1 4.1-1.7 0.7-3.4 0-4.4-1.6q-0.2-0.3-0.3-0.6c-1.5 0.2-2.3 0.9-2.3 2.2q0.1 6.1 0.1 12.1c0 0.1 0.1 0.3 0.2 0.6q4-0.1 8 0c1.4 0 2.8 0.1 4.2 0 0.7-0.1 1.5-0.5 2-1 0.6-0.5 0.7-1.1-0.2-1.7-1.7-0.9-2.2-2.7-1.5-4.3 0.6-1.6 2.3-2.4 4.1-2 1.6 0.4 2.6 1.9 2.5 3.8 0 1.4 0.2 2.8 0 4.1-0.4 3-2.8 5.5-5.8 5.6-5.9 0.1-11.9 0-18.1 0z"/>
	<path id="Layer" class="s1" d="m87.8 71.1c0.2 1.3 0.8 2.1 2.1 2.2 4.2 0 8.4 0 12.8 0 0-1.6 0-3 0-4.4q0-4 0-8c0-1.5-0.6-2.2-2.1-2.5-1.5 2.2-2.9 2.9-4.8 2.2-1.4-0.5-2.3-1.9-2.2-3.4 0.1-1.5 1.1-3 2.6-3.2 1.9-0.2 3.8-0.3 5.6-0.1 3 0.4 5.4 3.1 5.4 6.2 0.1 5.7 0 11.4 0 17.2 0 0.1 0 0.2-0.1 0.5-0.3 0-0.7 0.1-1 0.1q-8 0-15.9-0.1c-4.6 0-7.7-3.8-6.9-8.3 0.1-0.4 0.1-0.9 0.1-1.4-0.2-1.9 0.9-3.5 2.6-3.8 1.7-0.4 3.4 0.4 4 2 0.7 1.7 0.1 3.4-1.7 4.5q-0.2 0.2-0.5 0.3z"/>
	<path id="Layer" class="s0" d="m100.6 103.7c1.3-0.3 2.1-1 2.1-2.2 0.1-4.2 0-8.3 0-12.6-0.5-0.1-0.9-0.1-1.3-0.1q-5.5-0.1-11.1-0.1c-1.5 0-2.1 0.6-2.5 2.2 0.3 0.2 0.7 0.4 1 0.6 1.4 1 1.9 2.8 1.2 4.4-0.7 1.4-2.4 2.2-4 1.8-1.6-0.3-2.7-1.7-2.7-3.4q0.1-1.2-0.1-2.4c-0.5-3.8 2.4-7.6 6.2-7.7 5.9-0.1 11.8 0 17.8 0 0.1 0.5 0.1 0.9 0.1 1.4q0 7.6 0 15.2c0 5.1-3.5 8-8.6 7.3-0.4-0.1-0.8 0-1.2 0-2 0.1-3.4-0.9-3.8-2.7-0.4-1.7 0.5-3.4 2.1-4 1.7-0.7 3.4 0 4.4 1.6 0.1 0.2 0.2 0.4 0.4 0.7z"/>
	<path id="Layer" class="s1" d="m113.6 84.2c3.3 0 6.5 0 9.7 0q3.7 0 7.4 0c4.5 0 7.6 3.7 6.9 8.1q-0.1 0.8-0.1 1.6c0.1 2-0.9 3.5-2.7 3.8-1.6 0.4-3.3-0.5-3.9-2-0.7-1.7-0.1-3.4 1.6-4.4q0.2-0.2 0.6-0.4c-0.1-1.3-0.8-2.1-2.1-2.1-4.1-0.1-8.3 0-12.4 0-0.1 0-0.2 0.1-0.4 0.2 0 2.5 0 5 0 7.6 0 1.5-0.1 3 0 4.5 0 0.7 0.4 1.5 0.8 2 0.6 0.7 1.2 0.9 1.8-0.2 0.9-1.6 2.7-2.2 4.3-1.5 1.6 0.6 2.4 2.4 2.1 4-0.4 1.7-1.9 2.8-3.7 2.7q-1 0-2 0.1c-4 0.6-7.8-2.4-7.9-6.4-0.1-5.8 0-11.6 0-17.6z"/>
	<path id="Layer" class="s0" d="m29.5 183.1v26.9q0 1.9 0.2 2.5 0.3 0.7 0.9 1 0.6 0.3 2.1 0.3v0.8h-9.9v-0.8q1.4 0 1.9-0.3 0.5-0.3 0.8-0.9 0.3-0.7 0.3-2.6v-18.4q0-3.4-0.2-4.2-0.1-0.8-0.5-1.1-0.3-0.3-0.8-0.3-0.6 0-1.5 0.4l-0.4-0.8 6.1-2.5z"/>
	<path id="Layer" fill-rule="evenodd" class="s0" d="m38.5 202q0 4.5 2.2 7 2.2 2.6 5.2 2.6 2 0 3.4-1.1 1.5-1.1 2.5-3.7l0.7 0.4q-0.5 3-2.7 5.5-2.2 2.5-5.6 2.5-3.7 0-6.3-2.8-2.6-2.9-2.6-7.7 0-5.2 2.7-8.1 2.7-2.9 6.7-2.9 3.4 0 5.6 2.3 2.2 2.2 2.2 6c0 0-14 0-14 0zm0-1.3h9.4q-0.1-2-0.5-2.8-0.5-1.2-1.6-1.9-1.1-0.7-2.3-0.7-1.9 0-3.3 1.4-1.5 1.4-1.7 4z"/>
	<path id="Layer" fill-rule="evenodd" class="s0" d="m60.6 207.2q-1.8-0.9-2.8-2.5-1-1.6-1-3.6 0-3 2.2-5.2 2.3-2.2 5.9-2.2 2.9 0 5 1.4h4.3q0.9 0 1.1 0.1 0.1 0.1 0.2 0.2 0.1 0.2 0.1 0.7 0 0.6-0.1 0.8 0 0.1-0.2 0.2-0.2 0-1.1 0h-2.7q1.3 1.6 1.3 4.1 0 2.8-2.2 4.9-2.2 2-5.8 2-1.5 0-3.1-0.5-1 0.9-1.3 1.5-0.4 0.6-0.4 1.1 0 0.4 0.4 0.7 0.4 0.4 1.4 0.5 0.7 0.1 3.1 0.2 4.6 0.1 5.9 0.3 2.1 0.3 3.3 1.5 1.3 1.2 1.3 3.1 0 2.5-2.4 4.7-3.4 3.2-9 3.2-4.3 0-7.2-1.9-1.7-1.1-1.7-2.3 0-0.6 0.3-1.1 0.4-0.8 1.5-2.3 0.2-0.2 2.3-2.4-1.2-0.7-1.6-1.2-0.5-0.5-0.5-1.2 0-0.8 0.6-1.8 0.6-1.1 2.9-3zm-0.2 7.4q-1 1.1-1.6 2.1-0.5 1-0.5 1.8 0 1.1 1.3 1.9 2.2 1.3 6.4 1.3 4 0 5.9-1.4 1.8-1.4 1.8-3 0-1.1-1.1-1.6-1.1-0.5-4.5-0.6-5-0.1-7.7-0.5zm4.1-19.8q-1.7 0-2.8 1.3-1.1 1.3-1.1 4 0 3.5 1.5 5.4 1.2 1.5 3 1.5 1.6 0 2.7-1.3 1.1-1.2 1.1-3.9 0-3.6-1.5-5.5-1.2-1.5-2.9-1.5z"/>
	<path id="Layer" fill-rule="evenodd" class="s0" d="m81.3 202q0 4.5 2.2 7 2.2 2.6 5.2 2.6 2 0 3.4-1.1 1.5-1.1 2.5-3.7l0.7 0.4q-0.5 3-2.7 5.5-2.3 2.5-5.6 2.5-3.7 0-6.3-2.8-2.6-2.9-2.6-7.7 0-5.2 2.7-8.1 2.7-2.9 6.7-2.9 3.4 0 5.6 2.3 2.2 2.2 2.2 6c0 0-14 0-14 0zm0-1.3h9.4q-0.2-2-0.5-2.8-0.6-1.2-1.7-1.9-1.1-0.7-2.2-0.7-1.9 0-3.3 1.4-1.5 1.4-1.7 4z"/>
	<path id="Layer" class="s0" d="m103.9 198q3.6-4.3 6.8-4.3 1.7 0 2.8 0.9 1.2 0.8 1.9 2.7 0.5 1.3 0.5 4.1v8.6q0 1.9 0.3 2.6 0.3 0.6 0.8 0.9 0.6 0.3 2 0.3v0.8h-10v-0.8h0.4q1.4 0 2-0.4 0.6-0.5 0.8-1.3 0.1-0.3 0.1-2.1v-8.3q0-2.7-0.7-4-0.8-1.2-2.5-1.2-2.6 0-5.2 2.8v10.7q0 2.1 0.2 2.6 0.3 0.6 0.9 0.9 0.5 0.3 2.2 0.3v0.8h-10v-0.8h0.4q1.6 0 2.1-0.8 0.5-0.8 0.5-3v-7.5q0-3.7-0.1-4.5-0.2-0.8-0.5-1-0.4-0.3-0.9-0.3-0.7 0-1.5 0.3l-0.4-0.8 6.1-2.5h1c0 0 0 4.3 0 4.3z"/>
	<path id="Layer" fill-rule="evenodd" class="s0" d="m135 212.3q-1.5 1.6-2.9 2.2-1.4 0.7-3.1 0.7-3.3 0-5.8-2.8-2.5-2.7-2.5-7.1 0-4.4 2.8-8 2.7-3.6 7-3.6 2.7 0 4.5 1.7v-3.7q0-3.5-0.2-4.3-0.2-0.8-0.5-1.1-0.4-0.3-0.9-0.3-0.6 0-1.5 0.4l-0.3-0.8 6-2.5h1v23.5q0 3.5 0.2 4.3 0.2 0.8 0.5 1.1 0.4 0.3 0.9 0.3 0.6 0 1.6-0.4l0.2 0.8-6 2.5h-1c0 0 0-2.9 0-2.9zm0-1.5v-10.5q-0.2-1.5-0.8-2.7-0.7-1.3-1.8-1.9-1.1-0.6-2.1-0.6-2 0-3.5 1.7-2 2.3-2 6.8 0 4.4 1.9 6.8 2 2.4 4.4 2.4 2 0 3.9-2z"/>
	<path id="Layer" fill-rule="evenodd" class="s0" d="m154.8 211.7q-3.1 2.4-3.9 2.8-1.2 0.5-2.6 0.5-2.1 0-3.4-1.4-1.4-1.5-1.4-3.8 0-1.5 0.7-2.6 0.9-1.5 3.1-2.8 2.3-1.3 7.5-3.2v-0.8q0-3.1-1-4.2-0.9-1.1-2.8-1.1-1.4 0-2.2 0.7-0.8 0.8-0.8 1.8v1.2q0 1.1-0.5 1.6-0.5 0.6-1.4 0.6-0.8 0-1.3-0.6-0.5-0.6-0.5-1.6 0-1.9 1.9-3.5 2-1.6 5.5-1.6 2.7 0 4.4 0.9 1.3 0.7 2 2.2 0.4 0.9 0.4 3.9v6.9q0 2.9 0.1 3.5 0.1 0.7 0.3 0.9 0.3 0.2 0.6 0.2 0.4 0 0.6-0.1 0.5-0.3 1.8-1.7v1.3q-2.5 3.3-4.7 3.3-1.1 0-1.7-0.8-0.7-0.7-0.7-2.5zm0-1.5v-7.7q-3.3 1.3-4.3 1.9-1.8 1-2.5 2-0.8 1.1-0.8 2.4 0 1.6 1 2.6 0.9 1.1 2.2 1.1 1.7 0 4.4-2.3z"/>
	<path id="Layer" class="s0" d="m169.4 193.7v4.6q2.5-4.6 5.2-4.6 1.2 0 2 0.8 0.8 0.7 0.8 1.7 0 0.9-0.6 1.4-0.6 0.6-1.3 0.6-0.8 0-1.8-0.7-0.9-0.8-1.4-0.8-0.4 0-0.9 0.5-1 0.9-2 2.9v9.8q0 1.6 0.4 2.5 0.3 0.6 1 1 0.7 0.4 2.1 0.4v0.8h-10.4v-0.8q1.6 0 2.3-0.5 0.6-0.3 0.8-1.1 0.1-0.4 0.1-2.2v-7.8q0-3.6-0.1-4.2-0.2-0.7-0.6-1-0.3-0.3-0.9-0.3-0.7 0-1.6 0.3l-0.2-0.8 6.1-2.5c0 0 1 0 1 0z"/>
	<path id="Layer" class="s0" d="m177.4 194.3h9.4v0.8h-0.4q-1 0-1.5 0.5-0.5 0.4-0.5 1.1 0 0.8 0.7 2.3l4.9 10.3 4.6-11.2q0.4-0.9 0.4-1.8 0-0.4-0.2-0.6-0.2-0.3-0.6-0.4-0.3-0.2-1.3-0.2v-0.8h6.6v0.8q-0.8 0.1-1.2 0.4-0.5 0.3-1 1-0.2 0.3-0.8 1.7l-8.2 20.2q-1.2 3-3.2 4.5-1.9 1.5-3.7 1.5-1.3 0-2.1-0.8-0.9-0.7-0.9-1.7 0-0.9 0.6-1.5 0.6-0.6 1.7-0.5 0.7-0.1 2 0.4 0.9 0.4 1.1 0.4 0.7 0 1.5-0.7 0.7-0.7 1.5-2.7l1.5-3.5-7.3-15.3q-0.3-0.7-1.1-1.7-0.5-0.8-0.9-1-0.5-0.4-1.6-0.7c0 0 0-0.8 0-0.8z"/>
	<path id="Layer" class="s1" d="m101.8 268.2v0.8h-12.9v-0.8h1.1q1.8 0 2.7-1.1 0.5-0.7 0.5-3.4v-19.4q0-2.3-0.3-3-0.2-0.6-0.9-1-1-0.5-2-0.5h-1.1v-0.8h12.9v0.8h-1.1q-1.9 0-2.7 1.1-0.5 0.7-0.5 3.4v19.4q0 2.3 0.2 3 0.3 0.6 1 0.9 0.9 0.6 2 0.6z"/>
	<path id="Layer" class="s1" d="m116.9 268.2v0.8h-12.9v-0.8h1.1q1.8 0 2.7-1.1 0.5-0.7 0.5-3.4v-19.4q0-2.3-0.3-3-0.2-0.6-0.9-1-1-0.5-2-0.5h-1.1v-0.8h12.9v0.8h-1.1q-1.9 0-2.7 1.1-0.5 0.7-0.5 3.4v19.4q0 2.3 0.2 3 0.3 0.6 1 0.9 0.9 0.6 2 0.6z"/>
	<path id="Layer" class="s1" d="m132 268.2v0.8h-12.9v-0.8h1.1q1.8 0 2.7-1.1 0.5-0.7 0.5-3.4v-19.4q0-2.3-0.3-3-0.2-0.6-0.9-1-1-0.5-2-0.5h-1.1v-0.8h12.9v0.8h-1.1q-1.9 0-2.7 1.1-0.6 0.7-0.6 3.4v19.4q0 2.3 0.3 3 0.3 0.6 1 0.9 0.9 0.6 2 0.6z"/>
</svg>