<svg version="1.2" xmlns="http://www.w3.org/2000/svg" viewBox="0 0 223 283" width="223" height="283">
	<title>New Project</title>
	<style>
		.s0 { fill: #ce0019 } 
		.s1 { fill: #f9ff00 } 
	</style>
	<path id="Layer" fill-rule="evenodd" class="s0" d="m66.2 155.3q-0.1 0-0.1-0.1c-0.1-0.1 0-0.2 0.1-0.3 0 0 1.1-0.4 4-2.5q0.4-0.3 0.9-0.6c1.2-0.9 2.4-1.9 4.6-2.7 3.6-1.3 6.3-0.1 6.5 0q0.1 0 0.1 0.2c-0.1 0.1-0.1 0.1-0.2 0.1 0 0-2-0.1-5.1 1.6-0.7 0.4-1.4 0.9-2 1.3-2 1.3-3.8 2.6-8.7 3q0 0-0.1 0zm12.9-6.4c-1 0-2.1 0.2-3.2 0.6-2.2 0.8-3.4 1.7-4.6 2.6q-0.4 0.3-0.8 0.6c-1.6 1.1-2.6 1.7-3.3 2.1 4.1-0.5 5.8-1.6 7.6-2.8 0.6-0.5 1.3-0.9 2.1-1.3 1.8-1 3.2-1.4 4.1-1.6-0.5-0.1-1.1-0.2-1.9-0.2z"/>
	<path id="Layer" fill-rule="evenodd" class="s0" d="m50.6 144c-1.1 0-2-0.1-2.8-0.2-1.2 0-2.1-0.1-3.4 0.1-0.1 0-0.2 0-0.2-0.1-0.1-0.1 0-0.2 0.1-0.2 1-0.5 2-0.6 3.3-0.7 1.3-0.2 2.8-0.3 4.5-0.9 1.4-0.4 2.4-1 3.4-1.5 1.2-0.7 2.5-1.3 4.5-1.6 3.6-0.5 8.1 1.3 8.3 1.4 0.1 0 0.2 0.1 0.2 0.2-0.1 0.1-0.2 0.1-0.3 0.1 0 0-5.2-0.8-8.3 0.5q-1.3 0.6-2.3 1.1c-1.9 0.9-3.3 1.6-5.5 1.7q-0.8 0.1-1.5 0.1zm-4-0.6q0.6 0 1.3 0.1c1 0 2.3 0.1 4.2 0 2.1 0 3.4-0.7 5.3-1.6q1-0.5 2.3-1.1c2.1-0.9 4.9-0.9 6.7-0.8-1.7-0.5-4.2-1-6.3-0.7-2 0.3-3.1 0.9-4.5 1.6-0.9 0.5-1.9 1-3.4 1.5-1.7 0.6-3.2 0.7-4.6 0.9q-0.5 0-1 0.1z"/>
	<path id="Layer" fill-rule="evenodd" class="s0" d="m51.6 141.1q-0.1 0-0.1-0.1c-0.1 0-2.3-0.3-4.3-1.8-1.9-1.3-4.1-2.4-4.2-2.4-0.1-0.1-0.2-0.2-0.2-0.4 0.1-0.2 0.2-0.3 0.4-0.3 0 0 3 0 6.7-0.4 3.4-0.3 8.3-0.2 10.9 1.4 0.2 0.1 0.3 0.3 0.2 0.5-0.1 0.2-0.3 0.3-0.4 0.2-0.1 0-3.8-0.5-8.8 3.2q-0.1 0-0.2 0.1zm-6.8-4.3c0.8 0.5 1.9 1.1 2.8 1.8 1.6 1.1 3.4 1.5 3.9 1.6 3.1-2.2 5.7-2.9 7.3-3.1-2.5-0.8-6.1-0.9-8.8-0.6-2.1 0.2-4 0.3-5.2 0.3z"/>
	<path id="Layer" fill-rule="evenodd" class="s0" d="m40.7 121.4c-3.4 0-5.1-2.2-6.9-4.3-0.7-0.9-1.4-1.8-2.3-2.5-2.9-2.6-6-3.1-6.1-3.1-0.2 0-0.3-0.2-0.3-0.4 0-0.2 0.2-0.4 0.4-0.4 5.8 0 9.6 1.3 9.8 1.3q0 0.1 0.1 0.1c0 0.1 2.8 2.9 7.8 3.8 6.7 1.1 8.4 2.6 8.4 2.7 0.1 0.1 0.2 0.3 0.1 0.4-0.1 0.2-0.2 0.3-0.4 0.2-1.8-0.2-3.2 0.3-4.8 0.9-1.5 0.6-3.3 1.2-5.6 1.3q-0.1 0-0.2 0zm-12.4-9.8c1.2 0.5 2.5 1.3 3.7 2.4 0.9 0.8 1.7 1.7 2.4 2.6 1.8 2.1 3.3 4 6.2 4q0.2 0 0.3 0c2.2-0.1 3.8-0.7 5.4-1.2 1.1-0.4 2.3-0.8 3.5-1-1.1-0.5-3.2-1.2-6.8-1.8-4.8-0.8-7.6-3.4-8.1-3.8-0.5-0.2-2.9-0.9-6.6-1.2z"/>
	<path id="Layer" fill-rule="evenodd" class="s0" d="m49.6 117.7q0 0-0.1 0c-1.2-0.8-2.4-1.3-3.7-1.8-2.1-1-4.6-2.1-8-4.7-3.4-2.6-5.8-6-8-9.1-1.3-1.8-2.5-3.4-3.6-4.5-0.1-0.1-0.1-0.2 0-0.3 0-0.1 0.2-0.1 0.2 0 0.1 0 2.5 1.8 6.6 4.3 4.1 2.4 6.1 4.3 9.4 7.8 1.1 1.3 2.2 2.4 3.2 3.5 1.5 1.6 2.9 3.1 4.2 4.5 0 0.1 0 0.2 0 0.3q-0.1 0-0.2 0zm-22-19.1c0.8 0.9 1.6 2.1 2.5 3.3 2.2 3 4.6 6.4 7.9 9 3.4 2.6 5.8 3.7 8 4.6 0.9 0.4 1.8 0.8 2.7 1.3-1.1-1.2-2.2-2.4-3.4-3.7-1-1-2-2.1-3.2-3.4-3.3-3.5-5.3-5.4-9.3-7.8-2.3-1.4-4-2.6-5.2-3.3z"/>
	<path id="Layer" fill-rule="evenodd" class="s0" d="m53.8 115.6q0 0-0.1 0-0.1-0.1-0.1-0.2c0.7-3.6 5.2-7.7 8.2-9.3l0.6-0.3c3.1-1.7 6.9-3.7 8.9-7.7 0.1 0 0.2-0.1 0.2-0.1 0.1 0.1 0.2 0.2 0.2 0.3 0 0-1.3 6.5-7.2 9.7l-1.4 0.8c-4.8 2.6-6.3 3.3-9.2 6.8q0 0-0.1 0zm17.1-15.9c-2.2 3.2-5.5 5-8.3 6.4l-0.6 0.4c-3.1 1.6-6.7 5.1-7.8 8.1 2.6-2.9 4.3-3.8 8.7-6.2l1.4-0.7c4-2.2 5.8-6 6.6-8z"/>
	<path id="Layer" fill-rule="evenodd" class="s0" d="m53.5 116.6c-0.2 0-0.4-0.2-0.4-0.4q0 0 0-0.2 0.1-0.6 0.1-1.3c0-4 0-8.1 3.3-12.5 0.8-1.1 1.7-2 2.4-2.9 1.4-1.5 2.7-3 3.8-5.2 0.1-0.1 0.3-0.2 0.5-0.2 0.2 0.1 0.3 0.2 0.3 0.4 0 0.9-0.3 8.1-0.8 9.4q0 0.2-0.2 0.3c0 0-3.7 2-5.3 3.7-3 3.2-3.3 7.7-3.3 8.4q0 0.1 0 0.1c0 0.2-0.2 0.4-0.4 0.4zm9.1-20.7c-0.9 1.5-2 2.7-3.1 3.9-0.7 0.9-1.6 1.8-2.4 2.9-2.3 3.1-2.9 5.9-3.1 8.9 0.5-1.5 1.3-3 2.6-4.4 1.6-1.7 4.7-3.5 5.4-3.9 0.3-1 0.5-4.8 0.6-7.4z"/>
	<path id="Layer" fill-rule="evenodd" class="s0" d="m49.1 93.7q0 0-0.1-0.1-0.1-0.1 0-0.2c0.9-1.2 1.4-2.1 2-3.2 0.8-1.5 1.6-3 3.5-5.1 2.1-2.3 4.2-3.3 6.8-4.6 1.2-0.6 2.5-1.2 4.1-2.1 0 0 0.2 0 0.2 0.1 0.1 0.1 0.1 0.2 0 0.2 0 0.1-2.6 2.3-5.3 5.5q-0.6 0.8-1.3 1.7c-2.3 2.9-4.6 5.9-9.8 7.8q0 0-0.1 0zm15.1-14.2q-1.5 0.8-2.8 1.4c-2.5 1.2-4.5 2.2-6.6 4.5-1.9 2-2.7 3.5-3.5 5-0.5 0.9-0.9 1.7-1.6 2.7 4.6-1.9 6.8-4.7 9-7.5q0.7-0.8 1.3-1.6c1.6-2 3.2-3.5 4.2-4.5z"/>
	<path id="Layer" fill-rule="evenodd" class="s0" d="m42.6 86.2q-0.1 0-0.2-0.1c-2.9-4.1-4.9-7.1-7.7-12-1.6-2.6-3.1-6.3-4.4-9.6-1-2.5-2-4.9-2.8-6.3-0.1-0.1 0-0.2 0-0.2 0.1-0.1 0.2-0.1 0.3 0 0.1 0.1 7.3 7.8 10.5 14.4 1 2.1 1.9 5 2.7 7.8 0.6 2.2 1.1 4.3 1.8 5.7 0 0.1 0 0.2-0.1 0.2q-0.1 0.1-0.1 0.1zm-14.1-26.8c0.7 1.4 1.4 3.1 2.1 5 1.4 3.2 2.9 6.9 4.4 9.5 2.5 4.4 4.4 7.2 6.9 10.7-0.5-1.2-0.9-2.7-1.3-4.3-0.8-2.8-1.6-5.7-2.7-7.8-2.4-5-7.3-10.8-9.4-13.1z"/>
	<path id="Layer" fill-rule="evenodd" class="s0" d="m42 80c-0.2 0-0.3-0.2-0.4-0.4 0 0-0.5-7-3-10.7-2.6-3.8-5.8-6.1-5.8-6.1q-0.2-0.1-0.2-0.2c0-0.1-0.9-2.7-0.3-6.4 0-0.2 0.2-0.3 0.3-0.3 0.2-0.1 0.4 0 0.5 0.2 0 0 0.4 1.3 2.1 3.4l0.5 0.5c1.8 2.2 4.5 5.5 5.9 10.9 1.1 4.9 0.8 8.6 0.8 8.7 0 0.2-0.2 0.4-0.4 0.4zm-8.7-17.8c0.6 0.5 3.5 2.7 5.9 6.2 0.8 1.2 1.4 2.6 1.9 4.1q-0.1-0.7-0.3-1.4c-1.3-5.3-3.8-8.3-5.7-10.5l-0.5-0.6c-0.8-0.9-1.3-1.8-1.7-2.4-0.1 2.4 0.3 4.2 0.4 4.6z"/>
	<path id="Layer" fill-rule="evenodd" class="s0" d="m59.6 52.4c-0.1 0-0.2 0-0.2-0.1 0-0.1 0-0.2 0.1-0.2 2-0.7 4.2-1.6 6.5-2.5 2-0.8 4.1-1.7 6.1-2.4 4.3-1.6 14.5-4.8 14.6-4.8 0.1-0.1 0.2 0 0.2 0.1q0.1 0.1-0.1 0.2c0 0.1-6.9 5.3-12.6 7.4-5.5 2-14.5 2.3-14.6 2.3q0 0 0 0zm26.1-9.3c-2.8 0.9-10 3.2-13.4 4.4-2.1 0.8-4.1 1.6-6.2 2.4-1.8 0.8-3.5 1.5-5.2 2.1 2.8-0.2 9-0.8 13.2-2.3 4.4-1.6 9.5-5.1 11.6-6.6z"/>
	<path id="Layer" fill-rule="evenodd" class="s0" d="m63.2 70.9c-2.6 0-4.2-0.3-5.6-0.6-1.7-0.2-3.1-0.5-5.6-0.2q-0.1 0-0.2-0.1c0-0.1 0-0.2 0.1-0.2 0.1-0.1 6.8-2.4 12.1-2.4q0.1 0 0.2 0c1.8 0 3.5 0.1 5.2 0.3 3.6 0.2 6.9 0.5 9.6-0.2 0.1-0.1 0.2 0 0.3 0.1 0 0.1-0.1 0.2-0.2 0.2 0 0.1-6 2.6-13.6 3q-1.3 0.1-2.3 0.1zm-9-1.3c1.3 0 2.3 0.2 3.5 0.4 1.8 0.3 3.8 0.6 7.7 0.4 4.9-0.3 9.1-1.4 11.5-2.2-2.2 0.2-4.8 0.1-7.5-0.1-1.7-0.2-3.5-0.3-5.2-0.3q-0.1 0-0.2 0c-3.6 0-8 1.1-10.3 1.8q0.3 0 0.5 0z"/>
	<path id="Layer" fill-rule="evenodd" class="s0" d="m52.2 69.8q-0.1 0-0.2-0.1c-0.1-0.1-0.2-0.3-0.1-0.5 0.1-0.2 2-4.4 7.4-6.2 2.6-0.8 5-0.8 7.4-0.8 2.5 0 5.1 0 8.1-1 0.1-0.1 0.3 0 0.4 0.1 0.1 0.1 0.1 0.2 0.1 0.4-0.1 0.1-1 2.9-6 4.7q-0.1 0-0.2 0c0 0-3.6-0.7-7.2-0.4-5.7 0.6-9.4 3.6-9.4 3.7q-0.1 0.1-0.3 0.1zm14.1-6.8c-2.2 0-4.4 0-6.8 0.8-3 1-4.9 2.8-5.9 4.1 1.7-1 4.5-2.3 8.2-2.7 3.4-0.3 6.7 0.3 7.4 0.4 2.9-1 4.3-2.5 4.9-3.4-2.7 0.8-5.1 0.8-7.4 0.8q-0.2 0-0.4 0z"/>
	<path id="Layer" fill-rule="evenodd" class="s0" d="m92.4 151.8q-0.2 0-0.2-0.2c-0.5-1.1-1-1.7-1.5-2.3-0.5-0.7-1.1-1.4-1.8-2.7-1.2-2.3-2.4-6.3-2.2-9.8 0-0.1 0-0.2 0.1-0.2q0.2 0 0.2 0.2c0 0 0.9 3.5 2 5.7q0.3 0.4 0.5 0.8c1.1 2 2.4 4.5 3 8.2 0.1 0.1 0 0.2-0.1 0.2q0 0.1 0 0.1zm-5.3-13.4c0.2 3 1.2 6.1 2.2 8.1 0.6 1.2 1.2 1.9 1.7 2.5 0.3 0.4 0.6 0.8 0.9 1.3-0.7-3-1.8-5-2.7-6.8q-0.3-0.4-0.5-0.8c-0.7-1.3-1.3-3.1-1.6-4.3z"/>
	<path id="Layer" fill-rule="evenodd" class="s0" d="m93.6 154q-0.1 0-0.3-0.2l-0.3-0.3c0-0.1-0.4-0.8-0.7-2-0.2-0.6-0.3-1.4-0.4-2.3-0.2-1.2-0.3-2.7-0.6-4.2q0 0 0 0c0-0.2-0.3-3.5 2.1-7.5 0.1-0.2 0.3-0.2 0.4-0.2 0.2 0.1 0.3 0.3 0.3 0.5 0 0-0.3 1.2 0.2 4.7q0.2 0.7 0.3 1.6c0.3 1.5 0.6 3.2 0.6 4.8-0.1 1.9-0.5 2.9-0.8 3.7-0.2 0.4-0.3 0.7-0.4 1.1q0 0.2-0.3 0.3 0 0-0.1 0zm-1.7-9.1c0.4 1.5 0.6 3 0.8 4.2 0.1 0.9 0.2 1.7 0.3 2.2 0.2 0.6 0.4 1.1 0.5 1.4q0.1-0.2 0.2-0.4c0.3-0.8 0.7-1.7 0.7-3.4 0.1-1.6-0.3-3.2-0.5-4.6q-0.2-0.9-0.3-1.7c-0.2-1.4-0.3-2.4-0.4-3.2-1.3 2.9-1.3 5.2-1.3 5.5z"/>
	<path id="Layer" fill-rule="evenodd" class="s0" d="m72.3 34.1q-0.1 0-0.2-0.1c-0.2-0.2-0.2-0.4-0.1-0.6q0 0 0.2-0.2c0.7-0.9 1.2-2.8 1.7-4.8 0.6-2.1 1.2-4.5 2.2-6.4 1.3-2.5 3.8-4.1 6-5.6 1.4-0.8 2.7-1.7 3.5-2.6 0.1-0.1 0.3-0.2 0.4-0.1 0.2 0.1 0.3 0.3 0.3 0.4-0.1 0.3-1.1 5.9-2.7 8.7q0 0.1-0.1 0.1c0 0-3.7 3.1-5.6 5-1.6 1.7-4.4 5-5.1 5.8q-0.1 0.1-0.2 0.2-0.1 0.2-0.3 0.2zm12.9-18.9c-0.7 0.6-1.7 1.3-2.7 1.9-2.1 1.4-4.5 3-5.7 5.3-0.9 1.8-1.6 4.1-2.1 6.2q-0.4 1.4-0.7 2.6c1.1-1.3 2.4-2.8 3.4-3.8 1.8-1.9 5.1-4.6 5.6-5.1 1-1.9 1.9-5.3 2.2-7.1z"/>
	<path id="Layer" fill-rule="evenodd" class="s0" d="m72.4 34.1q-0.1 0-0.2-0.1c-0.2-0.1-0.2-0.3-0.1-0.5 0.1-0.1 3.2-4.8 10-10.5 6-5 18.3-6 18.8-6 0.2-0.1 0.4 0.1 0.4 0.3 0 0.2-0.1 0.4-0.3 0.4-1.3 0.5-3.5 2.6-5.8 4.7-2.3 2.2-5 4.7-7.5 6.3-3 2-7.2 3-10.5 3.8-2.1 0.6-3.9 1-4.5 1.5q-0.1 0.1-0.3 0.1zm26.7-16.2c-3.7 0.5-12 2-16.5 5.7-4.6 3.9-7.6 7.4-8.9 9.1 0.9-0.3 2-0.6 3.3-0.9 3.3-0.8 7.3-1.9 10.3-3.8 2.5-1.5 5.1-4 7.4-6.1 1.6-1.6 3.1-3 4.4-4z"/>
	<path id="Layer" fill-rule="evenodd" class="s0" d="m73 33.3q-0.1 0-0.2-0.1c0-0.1 0-0.2 0.1-0.2 2-1.3 4.6-3.3 7.1-5.3 2.5-2 4.8-3.9 6.6-4.9 3.7-2.2 13.3-5.4 13.4-5.4 0.1-0.1 0.2 0 0.2 0.1 0.1 0.1 0 0.2 0 0.2-3.1 1.7-5.6 3.4-8.5 5.3-1.6 1.1-3.3 2.3-5.3 3.5-5.6 3.7-13.3 6.8-13.4 6.8q0 0 0 0zm25.3-14.9c-3 1-8.8 3.1-11.5 4.7-1.8 1.1-4.1 2.9-6.6 4.9-1.8 1.4-3.7 2.9-5.3 4.1 2.6-1.1 7.5-3.4 11.3-5.9 2-1.3 3.7-2.4 5.3-3.5 2.3-1.6 4.4-2.9 6.8-4.3z"/>
	<path id="Layer" class="s0" d="m65.4 39.7q-0.1 0-0.1 0c-0.1-0.1-0.1-0.2-0.1-0.3 2-3.1 3.7-6.5 4.9-10 0.1-0.1 0.2-0.2 0.3-0.2 0.1 0.1 0.1 0.2 0.1 0.3-1.2 3.5-2.9 6.9-4.9 10.1q-0.1 0.1-0.2 0.1z"/>
	<path id="Layer" class="s0" d="m61.3 44.6q-0.1 0-0.2 0c0-0.1 0-0.3 0.1-0.3 3.6-2.6 7.6-4.5 11.8-5.7 0.1 0 0.2 0 0.2 0.1 0 0.1 0 0.2-0.1 0.3-4.2 1.2-8.1 3.1-11.7 5.6q0 0-0.1 0z"/>
	<path id="Layer" class="s0" d="m58.8 47.8q-0.1 0-0.1 0c-0.1 0-0.1-0.1-0.1-0.2 1.2-3.1 1.9-6.4 2.1-9.8q0-0.1 0.2-0.2c0.1 0 0.2 0.1 0.2 0.3-0.2 3.3-0.9 6.7-2.1 9.8q-0.1 0.1-0.2 0.1z"/>
	<path id="Layer" class="s0" d="m48.8 65.5c-0.1 0-0.2-0.1-0.2-0.2-0.1-3.5-0.6-7.1-1.5-10.5 0-0.1 0.1-0.2 0.2-0.2 0.1 0 0.2 0 0.2 0.1 0.9 3.5 1.4 7 1.5 10.6 0 0.1-0.1 0.2-0.2 0.2q0 0 0 0z"/>
	<path id="Layer" class="s0" d="m49.5 64.5q-0.1 0-0.2-0.1c0-0.1 0-0.2 0-0.3 2.6-2.3 5.4-4.3 8.5-5.8 0.1-0.1 0.2 0 0.3 0 0 0.1 0 0.3-0.1 0.3-3.1 1.5-5.9 3.5-8.4 5.8q-0.1 0.1-0.1 0.1z"/>
	<path id="Layer" class="s0" d="m45.3 80.1q0 0 0 0c-0.1 0-0.2-0.1-0.2-0.2 0.1-3.5-0.4-7-1.5-10.3 0-0.1 0-0.2 0.1-0.3 0.1 0 0.2 0 0.3 0.1 1.1 3.4 1.6 6.9 1.5 10.5 0 0.1-0.1 0.2-0.2 0.2z"/>
	<path id="Layer" class="s0" d="m45.2 93.5q0 0 0 0c-0.1 0-0.2-0.1-0.2-0.2 0.3-3.6 1.4-7.1 3.3-10.1 0-0.1 0.1-0.1 0.2-0.1 0.1 0.1 0.1 0.2 0.1 0.3-1.8 3-2.9 6.4-3.2 9.9 0 0.1-0.1 0.2-0.2 0.2z"/>
	<path id="Layer" class="s0" d="m45.9 101.9q-0.1 0-0.2-0.2c-1.2-2.8-3.1-5.3-5.5-7.4-0.1 0-0.1-0.2 0-0.2 0.1-0.1 0.2-0.1 0.3-0.1 2.4 2.1 4.3 4.7 5.6 7.6 0 0.1 0 0.2-0.1 0.2q0 0.1-0.1 0.1z"/>
	<path id="Layer" class="s0" d="m47 107.2q-0.1 0-0.2-0.1-0.9-1.6-2.4-2.8c-0.1-0.1-0.1-0.2 0-0.3 0.1-0.1 0.2-0.1 0.3 0q1.5 1.2 2.5 2.9c0 0.1 0 0.2-0.1 0.3q-0.1 0-0.1 0z"/>
	<path id="Layer" class="s0" d="m51.2 118.4c-0.1 0-0.2-0.1-0.2-0.2-0.7-4.9-0.5-9.8 0.6-14.6 0-0.1 0.1-0.2 0.2-0.2 0.2 0.1 0.2 0.2 0.2 0.3-1.1 4.8-1.3 9.6-0.6 14.5 0 0.1-0.1 0.2-0.2 0.2q0 0 0 0z"/>
	<path id="Layer" class="s0" d="m55.5 126.5q-0.1 0-0.2-0.1c-1-1.2-2.4-2-4-2.4-0.1 0-0.2-0.1-0.2-0.2 0.1-0.1 0.2-0.2 0.3-0.1 1.6 0.3 3.1 1.2 4.2 2.5 0.1 0.1 0.1 0.2 0 0.3q0 0-0.1 0z"/>
	<path id="Layer" class="s0" d="m58.8 130.8q-0.2 0-0.2-0.2c-1-4.5-1.2-7.9-0.6-11.2 0-0.1 0.1-0.1 0.2-0.1 0.1 0 0.2 0.1 0.2 0.2-0.6 3.2-0.4 6.5 0.5 11.1 0.1 0.1 0 0.2-0.1 0.2q0 0 0 0z"/>
	<path id="Layer" class="s0" d="m60.9 133.5q0 0 0 0c-2.5-1.2-5.2-1.9-7.9-1.9-0.1 0-0.2-0.1-0.2-0.2 0-0.1 0.1-0.2 0.2-0.2 2.8 0 5.5 0.7 8 1.9 0.1 0.1 0.2 0.2 0.1 0.3q0 0.1-0.2 0.1z"/>
	<path id="Layer" class="s0" d="m73.5 144q0 0-0.1-0.1c-2-2.4-3.3-5.3-3.9-8.5 0-0.1 0-0.2 0.1-0.2q0.2 0 0.3 0.2c0.5 3 1.8 5.9 3.8 8.3 0.1 0.1 0.1 0.2 0 0.3q-0.1 0-0.2 0z"/>
	<path id="Layer" class="s0" d="m67.2 145.7c-0.1 0-0.2-0.1-0.2-0.2 0-0.1 0-0.2 0.1-0.2 3.2-0.5 6.3-0.6 9.4-0.2 0.2 0 0.2 0.1 0.2 0.2q0 0.2-0.2 0.2c-3.1-0.4-6.2-0.3-9.3 0.2q0 0 0 0z"/>
	<path id="Layer" class="s0" d="m88.4 151.7q-0.1 0-0.1 0c-2.1-1.8-3.8-4-5.1-6.4 0-0.1 0-0.2 0.1-0.3 0.1 0 0.2 0 0.3 0.1 1.2 2.4 2.9 4.6 4.9 6.3 0.1 0.1 0.1 0.2 0 0.3q0 0-0.1 0z"/>
	<path id="Layer" class="s0" d="m86.2 154.5q-0.1 0-0.1-0.1c-0.1 0-0.1-0.1 0-0.2 0 0 0.5-0.2 0.5-0.2 2-0.7 4.2-1 6.3-0.8 0.1 0 0.2 0.1 0.2 0.2 0 0.2-0.1 0.2-0.2 0.2-2.2-0.2-4.5 0.1-6.6 0.9q0 0-0.1 0z"/>
	<path id="Layer" class="s1" d="m70.6 29.4c-0.8 0-1.4-0.6-1.4-1.3 0-0.7 0.6-1.3 1.4-1.3 0.7 0 1.3 0.6 1.3 1.3 0 0.7-0.6 1.3-1.3 1.3z"/>
	<path id="Layer" class="s1" d="m46.9 54.9c-0.8 0-1.4-0.6-1.4-1.4 0-0.7 0.6-1.3 1.4-1.3 0.7 0 1.3 0.6 1.3 1.3 0 0.8-0.6 1.4-1.3 1.4z"/>
	<path id="Layer" class="s1" d="m51.6 132.7c-0.8 0-1.4-0.6-1.4-1.4 0-0.7 0.6-1.3 1.4-1.3 0.7 0 1.3 0.6 1.3 1.3 0 0.8-0.6 1.4-1.3 1.4z"/>
	<path id="Layer" class="s1" d="m50.1 82.4c0 0.5-0.5 1-1.1 1-0.6 0-1-0.5-1-1 0-0.6 0.4-1.1 1-1.1 0.6 0 1.1 0.5 1.1 1.1z"/>
	<path id="Layer" class="s1" d="m44.7 103.7c0 0.5-0.4 1-1 1-0.6 0-1.1-0.5-1.1-1 0-0.6 0.5-1.1 1.1-1.1 0.6 0 1 0.5 1 1.1z"/>
	<path id="Layer" class="s1" d="m59.4 118.5c0 0.5-0.4 1-1 1-0.6 0-1-0.4-1-1 0-0.6 0.4-1.1 1-1.1 0.6 0 1 0.5 1 1.1z"/>
	<path id="Layer" class="s1" d="m66.2 146.7c-0.6 0-1.1-0.5-1.1-1 0-0.6 0.5-1.1 1.1-1.1 0.6 0 1 0.5 1 1.1 0 0.5-0.4 1-1 1z"/>
	<path id="Layer" class="s1" d="m84 144.2c0 0.6-0.5 1.1-1.1 1.1-0.5 0-1-0.5-1-1.1 0-0.5 0.5-1 1-1 0.6 0 1.1 0.5 1.1 1z"/>
	<path id="Layer" class="s1" d="m74.5 39.9c-0.7 0-1.3-0.6-1.3-1.3 0-0.8 0.6-1.4 1.3-1.4 0.7 0 1.3 0.6 1.3 1.4 0 0.7-0.6 1.3-1.3 1.3z"/>
	<path id="Layer" class="s1" d="m61 38c-0.8 0-1.4-0.6-1.4-1.4 0-0.7 0.6-1.3 1.4-1.3 0.7 0 1.3 0.6 1.3 1.3 0 0.8-0.6 1.4-1.3 1.4z"/>
	<path id="Layer" class="s1" d="m59.2 59.3c-0.8 0-1.5-0.7-1.5-1.5 0-0.8 0.7-1.4 1.5-1.4 0.8 0 1.5 0.6 1.5 1.4 0 0.8-0.7 1.5-1.5 1.5z"/>
	<path id="Layer" class="s1" d="m39.3 94.7c-0.8 0-1.5-0.7-1.5-1.5 0-0.8 0.7-1.4 1.5-1.4 0.8 0 1.4 0.6 1.4 1.4 0 0.8-0.6 1.5-1.4 1.5z"/>
	<path id="Layer" class="s1" d="m43.3 69.6c-0.6 0-1.1-0.5-1.1-1.1 0-0.6 0.5-1.1 1.1-1.1 0.7 0 1.2 0.5 1.2 1.1 0 0.6-0.5 1.1-1.2 1.1z"/>
	<path id="Layer" class="s1" d="m53.2 102.5c0 0.7-0.5 1.2-1.2 1.2-0.6 0-1.1-0.5-1.1-1.2 0-0.6 0.5-1.1 1.1-1.1 0.7 0 1.2 0.5 1.2 1.1z"/>
	<path id="Layer" class="s1" d="m50.3 124.7c-0.7 0-1.2-0.5-1.2-1.1 0-0.6 0.5-1.1 1.2-1.1 0.6 0 1.1 0.5 1.1 1.1 0 0.6-0.5 1.1-1.1 1.1z"/>
	<path id="Layer" class="s1" d="m85.1 155.8c-0.6 0-1.1-0.5-1.1-1.2 0-0.6 0.5-1.1 1.1-1.1 0.7 0 1.2 0.5 1.2 1.1 0 0.7-0.5 1.2-1.2 1.2z"/>
	<path id="Layer" class="s1" d="m70.7 134.3c0 0.6-0.5 1.1-1.2 1.1-0.6 0-1.1-0.5-1.1-1.1 0-0.6 0.5-1.1 1.1-1.1 0.7 0 1.2 0.5 1.2 1.1z"/>
	<path id="Layer" fill-rule="evenodd" class="s0" d="m51.3 59.7q-0.1 0-0.2 0c-0.1-0.1-0.2-0.4-0.1-0.6l1.7-2.9q0.1-0.1 0.1-0.1c0.1 0 2.5-1.6 10-6.8 7.4-5.1 10.7-5.4 15.7-5.9l0.6-0.1c5.3-0.6 8.7-1.8 8.7-1.8 0.2 0 0.4 0 0.5 0.2 0.1 0.2 0 0.4-0.1 0.5-2.4 1.5-3.9 3.2-5.4 4.8-1.8 2-3.4 3.8-6.3 5.1-4.3 1.9-8.6 1.4-12 1-1-0.1-1.9-0.2-2.7-0.2q-0.1 0-0.3 0c-3.3 0-7.7 3.4-9.8 6.7q-0.1 0.1-0.4 0.1zm10.3-7.6q0.1 0 0.2 0c0.8 0 1.8 0.1 2.7 0.3 3.4 0.3 7.6 0.8 11.6-1 2.8-1.2 4.4-3 6.1-4.9 1.1-1.2 2.2-2.4 3.6-3.6-1.5 0.4-3.8 0.9-6.6 1.2h-0.6c-5.1 0.6-8.2 0.9-15.4 5.9q-1.9 1.3-3.4 2.3 0.9-0.2 1.8-0.2z"/>
	<path id="Layer" fill-rule="evenodd" class="s0" d="m51 60.2q0 0-0.1 0c-0.2-0.1-0.3-0.2-0.3-0.4 0.6-4.4-2.2-8.1-5-12l-0.5-0.7c-2.4-3.2-2.8-7.8-3.1-11.1-0.1-1.2-0.2-2.3-0.4-3.1-0.6-2.9-1.4-4.4-3.4-7.2-0.1-0.2-0.1-0.4 0-0.5 0.2-0.2 0.4-0.2 0.5-0.1 5.9 2.7 9.8 10.3 10 10.6q0 0.1 0 0.2c0 0 0 2.7 0.7 6.4 0.6 3.7 2.8 7.9 2.9 8q0 0.1 0 0.2c0 0.1-0.4 1.9-0.5 4.1-0.1 2.2 0.3 4.1 0.3 4.1q0 0.2-0.1 0.3l-0.6 1q-0.2 0.2-0.4 0.2zm-11.2-33.7c1.3 2.2 2 3.7 2.6 6.3 0.1 0.8 0.2 1.9 0.4 3.1 0.3 3.3 0.7 7.7 2.9 10.7l0.5 0.7c2 2.8 4 5.4 4.8 8.3q0-0.5 0-1c0.1-2 0.4-3.6 0.5-4.1-0.4-0.7-2.3-4.5-2.9-8-0.6-3.5-0.7-6-0.7-6.5-0.4-0.8-3.5-6.6-8.1-9.5z"/>
	<path id="Layer" fill-rule="evenodd" class="s0" d="m51.9 50.8q-0.2 0-0.3-0.2c-3.3-6.3-3.7-11.1-3.6-14.6 0.1-2.8 1.2-6 2.3-8.8 0.4-1.1 0.7-2.1 1-3 0.8-2.5 2-7.8 2-7.8 0.1-0.2 0.2-0.3 0.4-0.3 0.2 0 0.3 0.1 0.4 0.3 0 0 1.1 3.8 1.7 8.1l0.2 1.4c0.7 4.2 1.6 9.9 1 14-0.7 4.1-2.2 6.4-3.4 8.2-0.5 0.9-1 1.7-1.3 2.5-0.1 0.1-0.2 0.2-0.4 0.2q0 0 0 0zm1.8-32.7c-0.4 1.7-1.1 4.6-1.7 6.3q-0.4 1.4-1 3c-1 2.8-2.1 5.9-2.2 8.6-0.1 3.3 0.2 7.7 3.1 13.5 0.3-0.6 0.7-1.1 1.1-1.8 1.2-1.8 2.6-4 3.2-7.9 0.6-4-0.3-9.6-0.9-13.7l-0.3-1.5c-0.4-2.6-0.9-5-1.3-6.5z"/>
	<path id="Layer" fill-rule="evenodd" class="s0" d="m51.7 50q0 0-0.1 0-0.1 0-0.1-0.2c-0.1-0.8-0.2-1.6-0.3-2.5-0.4-3-0.9-6.2-0.5-11.3 0.2-3.4 1-7.5 1.6-11 0.6-3.2 1.2-6 1.1-7.5 0-0.1 0.1-0.2 0.2-0.2q0 0 0 0c0.1 0 0.2 0.1 0.2 0.2 0 0.1 0.8 9 0.8 12.7q0 0.9 0.1 1.8c0 5.5 0.1 13.6-2.9 17.9q0 0.1-0.1 0.1zm1.9-30.1c-0.2 1.4-0.5 3.2-0.9 5.2-0.7 3.5-1.4 7.5-1.6 10.9-0.4 5.1 0.1 8.2 0.5 11.3q0.1 1 0.2 1.9c2.6-4.2 2.5-12 2.5-17.2q0-0.9 0-1.8c0-2.5-0.4-7.4-0.7-10.3z"/>
	<path id="Layer" fill-rule="evenodd" class="s0" d="m46.1 75.9q0 0-0.1 0c-0.2-0.1-0.3-0.3-0.3-0.5l0.4-1.6q0-0.1 0-0.2c1.2-1.7 4.5-3.9 6-4.6 0.3-0.1 0.7-0.4 1.1-0.7 1.6-1.1 3.8-2.7 8.4-3.1 4.5-0.3 6.6 0.2 9.1 0.8 0.7 0.2 1.5 0.4 2.4 0.5 3.7 0.8 6.7 0.6 6.8 0.6q0 0 0 0c0.2 0 0.3 0.1 0.4 0.3 0 0.2-0.1 0.4-0.3 0.5-1.6 0.4-2.9 1.3-4.3 2.2-2.4 1.4-5 3.1-9.2 3.4-4.3 0.3-7.7-1-10.3-2-1.3-0.5-2.4-0.9-3.2-0.9-2.3-0.1-5.3 2.6-6.5 5.1-0.1 0.1-0.2 0.2-0.4 0.2zm6.8-6.1q0 0 0.1 0c0.9 0 2.1 0.5 3.5 1 2.5 0.9 5.8 2.2 10 1.9 3.9-0.3 6.4-1.8 8.7-3.3 0.9-0.5 1.8-1.1 2.7-1.5-1.3-0.1-3-0.2-4.9-0.6-1-0.2-1.7-0.4-2.5-0.6-2.4-0.5-4.4-1.1-8.8-0.7-4.4 0.4-6.6 1.9-8 2.9-0.5 0.4-0.9 0.7-1.3 0.8q-0.1 0.1-0.3 0.2 0.4-0.1 0.8-0.1z"/>
	<path id="Layer" fill-rule="evenodd" class="s0" d="m44.6 90.7c-0.2 0-0.3-0.1-0.4-0.2q0-0.1-0.2-0.7c-1.8-3.9-4.4-6.2-6.9-8.4-1.9-1.8-3.8-3.4-5.2-5.7-2.2-3.7-3.2-8.9-4.1-13.5-0.4-2.2-0.9-4.3-1.4-6 0-0.2 0.1-0.4 0.3-0.5 0.2-0.1 0.4 0 0.5 0.2 0.9 2 3.2 3.9 5.7 6 2.3 2 4.7 4.1 6.1 6.3 3 4.4 3.3 9.5 3.4 12.6v0.2c0.2 3.2 1.7 7.2 2.3 8.6q0.1 0.3 0.2 0.6c0.1 0.2 0 0.4-0.2 0.5q0 0-0.1 0zm-16.8-32.5c0.2 1.2 0.5 2.5 0.8 3.9 0.9 4.5 1.9 9.6 4 13.2 1.3 2.2 3.1 3.8 5 5.5 1.7 1.5 3.5 3.1 5 5.1-0.5-1.5-0.8-3.2-0.9-4.8v-0.3c-0.2-3-0.5-7.9-3.3-12.2-1.4-2.1-3.8-4.1-6-6.1-1.8-1.5-3.4-2.9-4.6-4.3z"/>
	<path id="Layer" fill-rule="evenodd" class="s0" d="m43.4 88.3q-0.2 0-0.3-0.1c-1.1-1.2-3.8-2.9-8-4.9-2.8-1.3-5.2-4.5-6.9-9.2-1.5-3.9-3-6.2-3-6.2-0.1-0.2-0.1-0.4 0-0.5 0.1-0.1 0.3-0.2 0.5-0.1 2.9 1.7 4.9 3.7 5 3.8q0 0.1 0.1 0.2c0 0 1 2.8 2.4 4.9 1.1 1.5 2.5 2.9 4.9 5.1l1 0.8c3 2.8 4.5 5.5 4.6 5.7 0.1 0.1 0 0.4-0.1 0.5q-0.1 0-0.2 0zm-16.7-19.5c0.6 1.1 1.4 2.8 2.2 5 1.2 3.2 3.2 7.3 6.6 8.8 1.9 1 4.2 2.1 6 3.3-0.8-0.9-1.7-2.1-3-3.2l-0.9-0.9c-2.5-2.2-3.9-3.6-5-5.2-1.4-2-2.4-4.5-2.5-5-0.3-0.3-1.6-1.5-3.4-2.8z"/>
	<path id="Layer" fill-rule="evenodd" class="s0" d="m46.4 103.2c-0.2 0-0.4-0.1-0.4-0.3-0.3-4.5 1.4-7.5 2.8-9.9l0.2-0.4c0.4-0.7 0.7-1.7 1-2.9 0.8-2.6 1.9-5.8 4.6-7.8 2.2-1.7 4.8-2.4 7.3-3 1.8-0.4 3.5-0.8 4.8-1.6 0.2-0.1 0.4 0 0.5 0.1 0.2 0.2 0.1 0.4 0 0.5 0 0-2.2 2.1-3.6 5q-0.4 0.8-0.7 1.6c-1.1 2.6-2.2 5.1-5.2 6.3-1.5 0.7-2.7 1-3.7 1.4-1.5 0.5-2.7 0.8-4 1.7-2.8 1.8-3.2 8.9-3.2 9 0 0.2-0.2 0.3-0.4 0.3zm19-24.5c-1 0.4-2.1 0.7-3.3 1-2.4 0.6-4.9 1.2-7.1 2.8-2.5 1.8-3.4 5-4.2 7.5-0.4 1.2-0.7 2.2-1.1 3l-0.2 0.3q0-0.1 0.1-0.1c1.4-0.9 2.7-1.3 4.1-1.8 1.1-0.3 2.2-0.7 3.6-1.3 2.8-1.1 3.8-3.5 4.9-6q0.3-0.7 0.7-1.5c0.8-1.6 1.7-2.9 2.5-3.9z"/>
	<path id="Layer" fill-rule="evenodd" class="s0" d="m50.9 118.9q-0.2 0-0.3-0.1c-1.1-0.8-2.5-1.1-4.4-1.5-2.1-0.4-4.6-0.9-7.9-2.2-4.3-1.8-6.7-6.6-9-11.3-1.3-2.6-2.5-5-4-6.9-0.1-0.1-0.1-0.3 0-0.5 0.1-0.1 0.3-0.2 0.5 0 2.3 1.5 4.7 2.4 7.1 3.5 2.2 0.9 4.5 1.9 6.9 3.3 3.9 2.3 5.2 4.8 6.7 7.6 0.5 0.8 0.9 1.7 1.4 2.6 2.3 3.8 3.3 4.9 3.3 4.9 0.1 0.1 0.1 0.3-0.1 0.5q-0.1 0.1-0.2 0.1zm-23.9-20.9c1.1 1.6 2 3.5 3 5.5 2.2 4.5 4.6 9.2 8.6 10.8 3.3 1.3 5.7 1.8 7.7 2.3 1.3 0.2 2.4 0.5 3.3 0.8-0.5-0.8-1.3-1.9-2.3-3.6-0.6-1-1-1.8-1.5-2.6-1.4-2.8-2.7-5.1-6.4-7.3-2.3-1.4-4.6-2.4-6.8-3.3-1.9-0.8-3.8-1.6-5.6-2.6z"/>
	<path id="Layer" fill-rule="evenodd" class="s0" d="m54.4 124.8c-0.1 0-0.3-0.1-0.3-0.3-0.1-0.1-1-3-0.9-5.8-0.3-4.1 0.4-8.3 3.7-11.8 2.3-2.4 4.8-3.5 7.2-4.5 2.8-1.3 5.4-2.5 7.5-5.6 0.1-0.2 0.2-0.2 0.4-0.2 0.2 0.1 0.3 0.2 0.3 0.4 0 0.1 0.1 9.7-7.2 13.3-2.3 1.2-4.2 2-5.7 2.6-3.1 1.3-4.5 1.9-5 3.3-0.3 0.8-0.4 1.7-0.4 2.6 0.1 1.8 0.5 3.7 0.8 5.5 0.1 0.2-0.1 0.4-0.3 0.5q0 0-0.1 0zm17-26.5c-2 2.5-4.4 3.6-7 4.8-2.3 1-4.7 2.1-6.9 4.4-2.3 2.3-3.2 5-3.5 7.8 0.8-1.3 2.3-2 5.1-3.1 1.5-0.6 3.3-1.4 5.7-2.6 5.3-2.6 6.4-8.6 6.6-11.3z"/>
	<path id="Layer" fill-rule="evenodd" class="s0" d="m65.1 137.2q-0.1 0-0.1 0c-0.1 0-2.6-0.7-3.3-7.1-0.5-5.1 1.2-8 2.4-9.9q0.5-0.7 0.8-1.3c0.3-0.7 0.4-1.5 0.6-2.2 0.2-1.3 0.4-2.6 1.6-3.7 0.1-0.1 0.3-0.1 0.4-0.1 0.2 0.1 0.3 0.3 0.2 0.5-0.3 1.4-0.1 3.7 0.2 6 0.1 2 0.3 3.9 0.1 5.3-0.3 2.4-1.5 3.9-2.4 5.1-0.7 0.9-1.2 1.6-1.4 2.5-0.4 2 1.2 4.3 1.2 4.3 0.1 0.1 0.1 0.3 0 0.4q-0.1 0.2-0.3 0.2zm1.7-22.5c-0.3 0.7-0.4 1.4-0.6 2.1-0.1 0.8-0.3 1.7-0.6 2.5q-0.3 0.6-0.8 1.3c-1.2 2-2.8 4.6-2.3 9.4 0.2 2.1 0.6 3.5 1.1 4.4-0.2-0.7-0.3-1.5-0.2-2.3 0.2-1 0.9-1.9 1.6-2.8 0.9-1.2 2-2.5 2.3-4.8 0.1-1.2 0-3.1-0.2-5.1-0.2-1.6-0.3-3.3-0.3-4.7z"/>
	<path id="Layer" fill-rule="evenodd" class="s0" d="m53.7 145c-1.5 0-2.9-0.2-4.3-0.4-2.2-0.3-4.4-0.6-6.8 0.1-0.2 0-0.4-0.1-0.4-0.3-0.1-0.2 0-0.4 0.1-0.5 0.1 0 1.6-0.8 5.3-1.7 1.5-0.4 2.7-1.2 4.1-2 2-1.4 4.3-2.9 7.8-3.1 5.8-0.4 9.7 3.4 9.9 3.5 0.1 0.2 0.2 0.4 0.1 0.5-0.1 0.2-0.3 0.3-0.5 0.2 0 0-2.8-0.6-5.6 0.4-1.1 0.3-1.8 0.8-2.6 1.3-1.4 0.9-2.8 1.7-5.8 2q-0.7 0-1.3 0zm-7.9-1.5c1.2 0 2.5 0.2 3.7 0.4 1.7 0.2 3.5 0.4 5.4 0.3 2.8-0.2 4.1-1 5.5-1.9 0.8-0.5 1.6-1 2.7-1.4 1.8-0.6 3.5-0.6 4.7-0.6-1.5-1-4.5-2.6-8.3-2.4-3.2 0.2-5.4 1.6-7.4 2.9-1.4 0.9-2.7 1.8-4.3 2.2q-1.1 0.2-2 0.5z"/>
	<path id="Layer" fill-rule="evenodd" class="s0" d="m78 146.9c-0.1 0-0.3-0.1-0.3-0.2q0-0.1-0.1-0.1c-0.2-0.7-0.6-1.5-1-2.4-1.1-2-2.3-4.5-2.3-8.1 0-2.4 0.6-4.2 1.2-6 0.5-1.4 0.9-2.8 1-4.3 0-0.2 0.2-0.4 0.4-0.4 0.2 0 0.4 0.2 0.4 0.4 0 0 0 2.9 0.9 5.5 1 2.9 1.3 6.5 0.8 8.7l-0.3 1c-0.3 1.2-0.3 1.4-0.6 2.9-0.1 0.8 0.2 2.1 0.3 2.5q0 0 0 0c0.1 0.3 0 0.5-0.3 0.5q0 0-0.1 0zm-1.2-18.2q-0.3 0.8-0.5 1.7c-0.6 1.7-1.2 3.4-1.2 5.7-0.1 3.4 1.2 5.8 2.2 7.7q0 0.1 0 0.1 0-0.1 0.1-0.2c0.2-1.4 0.3-1.6 0.6-2.9l0.2-1c0.5-2.1 0.2-5.5-0.7-8.2-0.3-1-0.6-2-0.7-2.9z"/>
	<path id="Layer" fill-rule="evenodd" class="s0" d="m65.8 155.8q-0.3 0-0.4-0.2c-0.1-0.2 0-0.4 0.1-0.5 0 0 1.2-0.9 2.6-2.6l0.1-0.1c1.2-1.4 2-2.4 3.6-3.2 1.3-0.7 3.9-1.5 7.3-1.2 3 0.2 4.5 1 4.5 1 0.2 0.1 0.3 0.3 0.2 0.5 0 0.1-0.2 0.3-0.4 0.3q0 0 0 0c0 0-1.2-0.1-2.7 0.8-0.6 0.3-1 0.7-1.4 1.2-0.7 0.7-1.5 1.6-3.7 2.6-2.1 1-4.4 1.1-6.4 1.1-1.3 0-2.5 0-3.3 0.3q-0.1 0-0.1 0zm11.9-7.1c-2.5 0-4.5 0.6-5.5 1.1-1.5 0.8-2.3 1.8-3.4 3.1l-0.1 0.1c-0.6 0.8-1.2 1.4-1.7 1.8q1-0.1 2.1-0.1c2 0 4.2-0.1 6.2-1 2-0.9 2.7-1.7 3.4-2.5 0.5-0.5 0.9-0.9 1.6-1.3q0.9-0.5 1.5-0.7c-0.7-0.2-1.6-0.3-2.8-0.4q-0.7-0.1-1.3-0.1z"/>
	<path id="Layer" fill-rule="evenodd" class="s0" d="m93.6 154q-0.2 0-0.3-0.2c0 0-0.1-0.2-0.2-0.4-0.6-0.8-1.3-1.5-2.1-2.2-1.3-1.1-2.7-2.3-3.6-4.2-1.6-3.3-1.4-7.5-1.1-11.4 0.1-0.2 0.2-0.4 0.4-0.4q0.3 0 0.4 0.3c0 0 0.8 2.7 2.1 4.6q0.4 0.5 0.8 1c1 1.4 2 2.7 2.4 6.1l0.1 0.5c0.1 1.2 0.3 2.7 0.5 3.6 0.2 0.7 0.5 1.3 0.7 1.7q0.2 0.2 0.3 0.4c0.1 0.2 0 0.4-0.2 0.5q0 0.1-0.2 0.1zm-6.6-16.5c-0.3 3.2-0.2 6.5 1.1 9.2 0.9 1.7 2.1 2.9 3.4 3.9q0.4 0.4 0.7 0.7c-0.2-0.9-0.3-2.4-0.5-3.5v-0.5c-0.4-3.2-1.3-4.3-2.4-5.7q-0.4-0.5-0.8-1.1c-0.6-0.9-1.2-2.1-1.5-3z"/>
	<path id="Layer" fill-rule="evenodd" class="s0" d="m107.8 158q0 0-0.1 0c-0.2-0.1-3.9-1.3-5-4.9-0.7-2.3-0.8-4-0.9-5.8 0-1 0-2.1-0.2-3.3 0-0.2 0.1-0.4 0.3-0.4 0.2-0.1 0.4 0.1 0.5 0.3 0.4 1.7 1.6 3.1 2.7 4.4 0.9 1.2 1.9 2.4 2.5 3.8 1.2 3.1 0.6 5.5 0.6 5.6q0 0.2-0.2 0.3-0.1 0-0.2 0zm-5.2-11.7q0 0.5 0 0.9c0.1 1.8 0.1 3.5 0.8 5.7 0.8 2.5 3.1 3.8 4.1 4.2 0.1-0.8 0.2-2.6-0.7-4.7-0.5-1.3-1.4-2.4-2.3-3.6-0.7-0.8-1.4-1.6-1.9-2.5z"/>
	<path id="Layer" fill-rule="evenodd" class="s0" d="m86.5 162.7c-0.1 0-0.3-0.2-0.3-0.3-0.1-0.2 0-0.3 0.1-0.4 0.8-0.7 1.3-1.4 1.9-2.1 1-1.3 2-2.6 4.2-3.6 2.1-1.1 3.4-1 4.7-1 0.8 0 1.5 0 2.4-0.2q0.3-0.1 0.4 0.1c0.1 0.1 0.1 0.3 0 0.4 0 0.1-1 2.2-4.4 4.6-3.4 2.4-8.7 2.4-9 2.5q0 0 0 0zm10.2-6.6c-1.1 0-2.2 0-4 0.9-2 0.9-2.9 2.2-3.9 3.3-0.3 0.5-0.7 1-1.2 1.5 1.7-0.1 5.2-0.6 7.5-2.2 2-1.5 3.1-2.8 3.7-3.6-0.6 0.1-1.2 0.1-1.7 0.1q-0.2 0-0.4 0z"/>
	<path id="Layer" class="s1" d="m72.9 33.7c0 0-0.6 0.5-1.7 1.5-1 0.9-2.6 2.2-4.5 4.1-3.8 3.7-9 9.3-13.3 17.3-2.2 3.9-4 8.4-5.4 13.4-1.6 5-2.1 10.5-2.5 16.1 0 5.6 0.3 11.5 1.5 17.3l1 4.4c0.4 1.4 0.9 2.8 1.3 4.2 0.8 2.9 2.3 5.6 3.5 8.3 2.9 5.3 6.3 10.3 10.5 14.4 4.3 4.1 8.9 7.7 13.8 10.6 9.8 5.7 19.9 9 28.7 11.2 4.4 1.1 8.5 2 12.1 3 3.6 1 6.6 2 9.1 3 2.5 0.9 4.5 1.9 5.7 2.6 1.3 0.7 1.9 1.2 2 1.3 0.2 0.2 0.2 0.5 0 0.8-0.2 0.2-0.6 0.2-0.8 0 0 0.1-0.5-0.4-1.8-1.1-1.2-0.7-3-1.6-5.5-2.5-2.4-1-5.5-2-9-3-3.6-1-7.6-1.9-12.1-2.9-8.8-2.3-19.1-5.6-29-11.4-5-2.9-9.7-6.5-14-10.7-4.4-4.3-7.9-9.4-10.8-14.7-1.2-2.8-2.7-5.5-3.5-8.5-0.5-1.5-1-2.9-1.4-4.4l-1-4.4c-1.2-5.9-1.6-11.8-1.5-17.6 0.4-5.7 1-11.2 2.6-16.3 1.4-5 3.4-9.6 5.6-13.6 4.5-8.1 9.7-13.8 13.6-17.5 1.9-1.8 3.5-3.2 4.6-4.1 1.1-0.9 1.7-1.4 1.7-1.4 0.1-0.2 0.4-0.1 0.6 0 0.1 0.2 0.1 0.5-0.1 0.6z"/>
	<path id="Layer" fill-rule="evenodd" class="s0" d="m156.1 155.3c-4.9-0.4-6.8-1.7-8.8-3-0.6-0.4-1.3-0.9-2-1.3-3-1.7-5-1.6-5-1.6-0.1 0-0.2 0-0.3-0.1 0-0.1 0.1-0.2 0.2-0.2 0.1-0.1 2.8-1.3 6.4 0 2.2 0.8 3.4 1.8 4.7 2.7q0.4 0.3 0.8 0.6c2.9 2.1 4 2.5 4 2.5 0.1 0.1 0.2 0.2 0.2 0.3q-0.1 0.1-0.2 0.1 0 0 0 0zm-14.8-6.2c0.9 0.2 2.3 0.6 4.2 1.6 0.7 0.4 1.4 0.8 2 1.3 1.8 1.2 3.5 2.3 7.6 2.8-0.7-0.4-1.7-1-3.2-2.1q-0.5-0.3-0.9-0.6c-1.2-0.9-2.4-1.8-4.5-2.6-1.2-0.4-2.3-0.6-3.3-0.6-0.7 0-1.4 0.1-1.9 0.2z"/>
	<path id="Layer" fill-rule="evenodd" class="s0" d="m170.3 143.9c-2.3-0.1-3.7-0.8-5.5-1.7q-1.1-0.5-2.4-1.1c-3.1-1.3-8.3-0.5-8.3-0.5-0.1 0-0.2 0-0.2-0.1-0.1-0.1 0-0.2 0.1-0.2 0.2-0.1 4.7-1.9 8.3-1.4 2.1 0.3 3.3 0.9 4.6 1.6 0.9 0.5 1.9 1.1 3.3 1.5 1.7 0.6 3.2 0.7 4.5 0.9 1.3 0.1 2.4 0.2 3.3 0.7 0.1 0 0.2 0.1 0.1 0.2 0 0.1-0.1 0.1-0.2 0.1-1.2-0.2-2.2-0.1-3.4-0.1-0.8 0.1-1.7 0.2-2.8 0.2q-0.7 0-1.4-0.1zm4.4-0.6c-1.3-0.2-2.8-0.3-4.6-0.9-1.5-0.5-2.5-1-3.4-1.5-1.3-0.7-2.5-1.3-4.5-1.6-2.1-0.3-4.6 0.2-6.3 0.7 1.9-0.1 4.6-0.1 6.7 0.8q1.3 0.6 2.3 1.1c1.9 0.9 3.2 1.6 5.4 1.6 1.8 0.1 3.1 0 4.2 0q0.6-0.1 1.2-0.1-0.5-0.1-1-0.1z"/>
	<path id="Layer" fill-rule="evenodd" class="s0" d="m170.5 141c-5-3.7-8.7-3.2-8.7-3.2-0.2 0.1-0.4-0.1-0.5-0.2 0-0.2 0-0.4 0.2-0.5 2.6-1.6 7.5-1.7 10.9-1.4 3.7 0.4 6.7 0.4 6.7 0.4 0.2 0 0.4 0.1 0.4 0.3 0 0.2 0 0.3-0.2 0.4 0 0-2.3 1.1-4.2 2.4-2 1.5-4.2 1.8-4.3 1.8q0 0.1-0.1 0.1-0.1-0.1-0.2-0.1zm1.8-4.5c-2.7-0.3-6.3-0.2-8.8 0.6 1.6 0.2 4.2 0.9 7.3 3.1 0.6-0.1 2.3-0.5 3.9-1.6 0.9-0.7 2-1.3 2.8-1.8-1.2 0-3.1-0.1-5.2-0.3z"/>
	<path id="Layer" fill-rule="evenodd" class="s0" d="m181.4 121.4c-2.3-0.1-4.1-0.7-5.6-1.3-1.6-0.6-3-1.1-4.8-0.9-0.2 0.1-0.3 0-0.4-0.2-0.1-0.1 0-0.3 0.1-0.4 0.1-0.1 1.7-1.6 8.4-2.7 5.1-0.9 7.8-3.7 7.8-3.8q0.1 0 0.2-0.1c0.1 0 3.9-1.3 9.7-1.3 0.2 0 0.4 0.2 0.4 0.4 0 0.2-0.1 0.4-0.3 0.4-0.1 0-3.2 0.5-6.1 3.1-0.9 0.7-1.6 1.6-2.3 2.5-1.7 2.1-3.5 4.3-6.8 4.3q-0.2 0-0.3 0zm6-8.6c-0.5 0.4-3.2 3-8.1 3.8-3.6 0.6-5.7 1.3-6.8 1.8 1.2 0.2 2.4 0.6 3.6 1 1.5 0.5 3.1 1.1 5.3 1.2q0.1 0 0.3 0c2.9 0 4.4-1.9 6.2-4 0.7-0.9 1.5-1.8 2.4-2.6 1.3-1.1 2.6-1.9 3.7-2.4-3.7 0.3-6.1 1-6.6 1.2z"/>
	<path id="Layer" fill-rule="evenodd" class="s0" d="m172.5 117.7c0-0.1 0-0.2 0-0.3 1.3-1.4 2.7-2.9 4.2-4.5 1-1.1 2.1-2.2 3.3-3.5 3.2-3.5 5.2-5.4 9.3-7.8 4.1-2.5 6.6-4.3 6.6-4.3 0.1-0.1 0.2-0.1 0.2 0 0.1 0.1 0.1 0.2 0 0.3-1.1 1.1-2.3 2.7-3.6 4.5-2.2 3.1-4.6 6.5-8 9.1-3.4 2.6-5.8 3.7-8 4.7-1.3 0.5-2.5 1-3.7 1.8q-0.1 0-0.1 0-0.1 0-0.2 0zm17-15.8c-4 2.4-6 4.3-9.3 7.8-1.1 1.3-2.2 2.4-3.2 3.4-1.2 1.3-2.3 2.5-3.3 3.7 0.8-0.5 1.7-0.9 2.6-1.3 2.2-0.9 4.6-2 8-4.6 3.3-2.6 5.7-6 7.9-9 0.9-1.2 1.7-2.4 2.5-3.3-1.2 0.7-2.9 1.9-5.2 3.3z"/>
	<path id="Layer" fill-rule="evenodd" class="s0" d="m168.4 115.6c-2.9-3.5-4.4-4.2-9.2-6.8l-1.4-0.8c-5.8-3.2-7.1-9.7-7.2-9.7 0-0.1 0.1-0.2 0.2-0.3 0.1 0 0.2 0.1 0.2 0.1 2 4 5.8 6 8.9 7.7l0.6 0.3c3 1.6 7.5 5.7 8.2 9.3q0 0.1-0.1 0.2 0 0-0.1 0-0.1 0-0.1 0zm-10.4-7.9l1.4 0.7c4.4 2.4 6.1 3.3 8.7 6.2-1.1-3-4.7-6.5-7.7-8.1l-0.7-0.4c-2.7-1.4-6.1-3.2-8.2-6.4 0.7 2 2.5 5.8 6.5 8z"/>
	<path id="Layer" fill-rule="evenodd" class="s0" d="m168.4 116.2q0 0 0-0.1c0-0.7-0.3-5.2-3.3-8.4-1.6-1.7-5.3-3.7-5.3-3.7q-0.1-0.1-0.2-0.3c-0.5-1.3-0.7-8.6-0.8-9.4 0-0.2 0.2-0.3 0.3-0.4 0.2 0 0.4 0.1 0.5 0.2 1.1 2.2 2.4 3.7 3.8 5.2 0.8 0.9 1.6 1.8 2.4 2.9 3.3 4.4 3.3 8.5 3.4 12.5q0 0.7 0 1.3 0 0.2 0 0.2c0 0.2-0.2 0.4-0.4 0.4-0.2 0-0.4-0.2-0.4-0.4zm-8.1-12.9c0.7 0.4 3.9 2.2 5.4 3.9 1.3 1.3 2.1 2.9 2.6 4.4-0.2-3-0.8-5.8-3.1-8.9-0.8-1.1-1.6-2-2.4-2.9-1.1-1.2-2.2-2.4-3.1-3.9 0.1 2.6 0.3 6.4 0.6 7.4z"/>
	<path id="Layer" fill-rule="evenodd" class="s0" d="m173.1 93.7c-5.1-1.9-7.5-4.9-9.8-7.8q-0.6-0.9-1.3-1.7c-2.7-3.2-5.2-5.4-5.3-5.5 0 0 0-0.1 0-0.2 0.1-0.1 0.2-0.1 0.3-0.1 1.5 0.9 2.9 1.5 4 2.1 2.7 1.3 4.7 2.3 6.9 4.6 1.8 2.1 2.6 3.6 3.4 5.1 0.6 1.1 1.2 2 2 3.2q0.1 0.1 0 0.2 0 0.1-0.1 0.1-0.1 0-0.1 0zm-10.8-9.7q0.7 0.8 1.3 1.6c2.2 2.8 4.4 5.6 9 7.5-0.6-1-1.1-1.8-1.6-2.7-0.8-1.5-1.6-3-3.4-5-2.1-2.3-4.2-3.3-6.7-4.5q-1.3-0.6-2.8-1.4c1 1 2.6 2.5 4.2 4.5z"/>
	<path id="Layer" fill-rule="evenodd" class="s0" d="m179.6 86.1c0 0-0.1-0.1 0-0.2 0.6-1.4 1.1-3.5 1.8-5.7 0.8-2.8 1.6-5.7 2.6-7.8 3.2-6.6 10.4-14.3 10.5-14.4 0.1-0.1 0.2-0.1 0.3 0 0 0 0.1 0.1 0 0.2-0.8 1.4-1.7 3.8-2.8 6.3-1.3 3.3-2.8 7-4.3 9.6-2.9 4.9-4.9 7.9-7.8 12q-0.1 0.1-0.2 0.1 0 0-0.1-0.1zm4.8-13.6c-1.1 2.1-1.9 5-2.7 7.8-0.4 1.6-0.8 3-1.2 4.3 2.4-3.5 4.3-6.3 6.8-10.7 1.6-2.6 3.1-6.3 4.4-9.5 0.7-1.9 1.5-3.6 2.1-5-2.1 2.3-7 8.1-9.4 13.1z"/>
	<path id="Layer" fill-rule="evenodd" class="s0" d="m179.9 79.6c0-0.1-0.3-3.8 0.9-8.7 1.3-5.4 4-8.7 5.9-10.9l0.4-0.5c1.7-2.1 2.2-3.4 2.2-3.4 0-0.1 0.2-0.3 0.4-0.2 0.2 0 0.3 0.1 0.3 0.3 0.6 3.7-0.3 6.3-0.3 6.4q0 0.1-0.1 0.2c-0.1 0-3.3 2.3-5.9 6.1-2.5 3.7-3 10.7-3 10.7 0 0.2-0.2 0.4-0.4 0.4-0.2 0-0.4-0.2-0.4-0.4zm9.5-22c-0.4 0.6-0.9 1.5-1.7 2.4l-0.5 0.6c-1.8 2.2-4.4 5.2-5.7 10.5q-0.1 0.7-0.3 1.4c0.5-1.5 1.1-2.9 1.9-4.1 2.4-3.5 5.3-5.7 5.9-6.2 0.1-0.4 0.6-2.2 0.4-4.6z"/>
	<path id="Layer" fill-rule="evenodd" class="s0" d="m162.7 52.4c-0.1 0-9-0.3-14.6-2.3-5.7-2.1-12.6-7.3-12.6-7.4q-0.1-0.1-0.1-0.2c0.1-0.1 0.2-0.2 0.3-0.1 0.1 0 10.2 3.2 14.5 4.8 2 0.7 4.1 1.6 6.1 2.4 2.3 0.9 4.5 1.8 6.5 2.5 0.1 0 0.1 0.1 0.1 0.2 0 0.1-0.1 0.1-0.2 0.1q0 0 0 0zm-14.5-2.7c4.2 1.5 10.5 2.1 13.2 2.3-1.7-0.6-3.4-1.3-5.2-2.1-2-0.8-4.1-1.6-6.2-2.4-3.4-1.2-10.6-3.5-13.3-4.4 2 1.5 7.1 5 11.5 6.6z"/>
	<path id="Layer" fill-rule="evenodd" class="s0" d="m156.9 70.8c-7.7-0.4-13.7-2.9-13.7-3-0.1 0-0.2-0.1-0.1-0.2 0-0.1 0.1-0.2 0.2-0.1 2.7 0.7 6 0.4 9.6 0.2 1.7-0.2 3.5-0.3 5.2-0.3q0.1 0 0.3 0c5.2 0 11.9 2.3 12 2.4 0.1 0 0.1 0.1 0.1 0.2q0 0.1-0.2 0.1c-2.5-0.3-3.9 0-5.6 0.2-1.4 0.3-3 0.6-5.5 0.6q-1.1 0-2.3-0.1zm11.7-1.2c-2.3-0.7-6.6-1.8-10.2-1.8q-0.2 0-0.3 0c-1.7 0-3.5 0.1-5.2 0.3-2.7 0.2-5.2 0.3-7.5 0.1 2.4 0.8 6.6 1.9 11.5 2.2 3.9 0.2 5.9-0.1 7.8-0.4 1.1-0.2 2.1-0.4 3.4-0.4q0.3 0 0.5 0z"/>
	<path id="Layer" fill-rule="evenodd" class="s0" d="m169.8 69.7c0-0.1-3.6-3.1-9.4-3.7-3.5-0.3-7.2 0.4-7.2 0.4q-0.1 0-0.2 0c-4.9-1.8-5.9-4.6-6-4.7 0-0.2 0-0.3 0.1-0.4 0.1-0.1 0.3-0.2 0.4-0.1 3 1 5.6 1 8.2 1 2.3 0 4.7 0 7.3 0.8 5.4 1.8 7.4 6 7.4 6.2 0.1 0.2 0.1 0.4-0.1 0.5q-0.1 0.1-0.2 0.1-0.2 0-0.3-0.1zm-14.1-6.7c-2.4 0-4.8 0-7.5-0.8 0.6 0.9 2 2.4 4.9 3.4 0.7-0.1 4-0.7 7.4-0.4 3.7 0.4 6.6 1.7 8.2 2.7-1-1.3-2.9-3.1-5.9-4.1-2.4-0.8-4.6-0.8-6.8-0.8q-0.2 0-0.3 0z"/>
	<path id="Layer" fill-rule="evenodd" class="s0" d="m129.9 151.7c-0.1 0-0.1-0.1-0.1-0.2 0.6-3.7 2-6.2 3-8.2q0.3-0.4 0.5-0.8c1.1-2.2 2-5.7 2-5.7q0-0.2 0.2-0.2c0.1 0 0.2 0.1 0.2 0.2 0.1 3.5-1.1 7.5-2.3 9.8-0.7 1.3-1.3 2-1.8 2.7-0.5 0.6-1 1.2-1.5 2.3q0 0.2-0.1 0.2-0.1 0-0.1-0.1zm3.7-9q-0.2 0.4-0.4 0.8c-1 1.8-2.1 3.8-2.8 6.8 0.3-0.5 0.6-0.9 0.9-1.3 0.6-0.6 1.1-1.3 1.7-2.5 1.1-2 2.1-5.1 2.3-8.1-0.4 1.2-1 3-1.7 4.3z"/>
	<path id="Layer" fill-rule="evenodd" class="s0" d="m128.6 154q-0.2-0.1-0.3-0.3c-0.1-0.4-0.2-0.7-0.4-1.1-0.3-0.8-0.7-1.8-0.8-3.7 0-1.6 0.3-3.3 0.6-4.8q0.2-0.9 0.3-1.6c0.5-3.5 0.2-4.7 0.2-4.7 0-0.2 0.1-0.4 0.3-0.5 0.2 0 0.4 0 0.5 0.2 2.3 4 2 7.3 2 7.5q0 0 0 0c-0.3 1.5-0.4 3-0.6 4.2-0.1 0.9-0.2 1.7-0.4 2.3-0.3 1.2-0.7 1.9-0.7 2l-0.3 0.3q-0.1 0.2-0.3 0.2-0.1 0-0.1 0zm0.5-14.6c0 0.8-0.1 1.8-0.3 3.2q-0.2 0.8-0.3 1.7c-0.3 1.4-0.6 3-0.6 4.6 0.1 1.7 0.4 2.6 0.8 3.4q0 0.2 0.1 0.4c0.1-0.3 0.3-0.8 0.5-1.4 0.1-0.5 0.2-1.3 0.4-2.2 0.1-1.2 0.3-2.7 0.7-4.2 0-0.3 0-2.6-1.3-5.5z"/>
	<path id="Layer" fill-rule="evenodd" class="s0" d="m149.7 33.9q-0.1-0.1-0.2-0.2c-0.6-0.8-3.4-4.1-5.1-5.8-1.9-1.9-5.6-5-5.6-5q-0.1 0-0.1-0.1c-1.6-2.8-2.6-8.4-2.6-8.7-0.1-0.1 0-0.3 0.2-0.4 0.1-0.1 0.3 0 0.4 0.1 0.8 0.9 2.1 1.8 3.5 2.6 2.2 1.5 4.7 3.1 6 5.6 1 1.9 1.6 4.3 2.2 6.4 0.5 2 1 3.9 1.7 4.8q0.2 0.2 0.2 0.2c0.1 0.2 0.1 0.4-0.1 0.6q-0.1 0.1-0.2 0.1-0.2 0-0.3-0.2zm-10.3-11.6c0.5 0.5 3.8 3.2 5.6 5.1 0.9 1 2.3 2.5 3.4 3.8q-0.4-1.2-0.8-2.6c-0.5-2.1-1.1-4.4-2.1-6.2-1.2-2.3-3.6-3.9-5.7-5.3-1-0.6-2-1.3-2.7-1.9 0.4 1.8 1.2 5.2 2.3 7.1z"/>
	<path id="Layer" fill-rule="evenodd" class="s0" d="m149.6 34c-0.6-0.5-2.4-0.9-4.5-1.5-3.3-0.8-7.4-1.8-10.5-3.8-2.5-1.6-5.2-4.1-7.5-6.3-2.3-2.1-4.5-4.2-5.8-4.7-0.2 0-0.3-0.2-0.3-0.4 0.1-0.2 0.2-0.4 0.4-0.3 0.6 0 12.8 1 18.8 6 6.8 5.7 10 10.4 10 10.5 0.1 0.2 0.1 0.4-0.1 0.5q-0.1 0.1-0.2 0.1-0.2 0-0.3-0.1zm-21.9-12.1c2.3 2.1 4.9 4.6 7.3 6.1 3 1.9 7 3 10.3 3.8 1.3 0.3 2.5 0.6 3.4 0.9-1.4-1.7-4.3-5.2-9-9.1-4.5-3.7-12.8-5.2-16.5-5.7 1.3 1 2.8 2.4 4.5 4z"/>
	<path id="Layer" fill-rule="evenodd" class="s0" d="m149.3 33.3c-0.1 0-7.8-3.1-13.4-6.8-2-1.3-3.7-2.4-5.3-3.5-2.9-1.9-5.4-3.6-8.4-5.3-0.1 0-0.2-0.1-0.1-0.2 0-0.1 0.1-0.2 0.2-0.1 0.1 0 9.7 3.2 13.4 5.4 1.8 1 4.2 2.9 6.6 4.9 2.5 2 5.1 4 7.1 5.3 0.1 0 0.2 0.1 0.1 0.2q0 0.1-0.2 0.1 0 0 0 0zm-18.5-10.6c1.6 1.1 3.3 2.2 5.3 3.5 3.9 2.5 8.7 4.8 11.4 5.9-1.7-1.2-3.6-2.7-5.4-4.1-2.5-2-4.8-3.8-6.6-4.9-2.6-1.6-8.4-3.7-11.4-4.7 2.3 1.4 4.4 2.7 6.7 4.3z"/>
	<path id="Layer" class="s0" d="m156.9 39.7q0.1 0 0.1 0c0.1-0.1 0.1-0.2 0.1-0.3-2-3.1-3.7-6.5-4.9-10 0-0.1-0.1-0.2-0.2-0.2-0.1 0.1-0.2 0.2-0.2 0.3 1.3 3.5 2.9 6.9 5 10.1q0 0.1 0.1 0.1z"/>
	<path id="Layer" class="s0" d="m161 44.6q0.1 0 0.2 0c0.1-0.1 0-0.3-0.1-0.3-3.6-2.6-7.5-4.5-11.8-5.7-0.1 0-0.2 0-0.2 0.1 0 0.1 0 0.2 0.1 0.3 4.2 1.2 8.1 3.1 11.7 5.6q0.1 0 0.1 0z"/>
	<path id="Layer" class="s0" d="m163.5 47.8q0.1 0 0.1 0c0.1 0 0.2-0.1 0.1-0.2-1.2-3.1-1.9-6.4-2.1-9.8q0-0.1-0.2-0.2c-0.1 0-0.2 0.1-0.2 0.3 0.2 3.3 0.9 6.7 2.2 9.8q0 0.1 0.1 0.1z"/>
	<path id="Layer" class="s0" d="m173.5 65.5c0.1 0 0.2-0.1 0.2-0.2 0.1-3.5 0.6-7.1 1.5-10.5 0-0.1 0-0.2-0.2-0.2 0 0-0.2 0-0.2 0.1-0.9 3.5-1.4 7-1.5 10.6 0 0.1 0.1 0.2 0.2 0.2q0 0 0 0z"/>
	<path id="Layer" class="s0" d="m172.9 64.5q0 0 0.1-0.1c0.1-0.1 0.1-0.2 0-0.3-2.5-2.3-5.4-4.3-8.5-5.8-0.1-0.1-0.2 0-0.3 0 0 0.1 0 0.3 0.1 0.3 3.1 1.5 5.9 3.5 8.4 5.8q0.1 0.1 0.2 0.1z"/>
	<path id="Layer" class="s0" d="m177 80.1c0.1 0 0.2-0.1 0.2-0.2-0.1-3.5 0.4-7 1.5-10.3 0.1-0.1 0-0.2-0.1-0.3-0.1 0-0.2 0-0.2 0.1-1.1 3.4-1.7 6.9-1.6 10.5 0 0.1 0.1 0.2 0.2 0.2z"/>
	<path id="Layer" class="s0" d="m177.1 93.5q0 0 0 0c0.2 0 0.2-0.1 0.2-0.2-0.3-3.6-1.4-7.1-3.2-10.1-0.1-0.1-0.2-0.1-0.3-0.1-0.1 0.1-0.1 0.2-0.1 0.3 1.8 3 2.9 6.4 3.2 9.9 0 0.1 0.1 0.2 0.2 0.2z"/>
	<path id="Layer" class="s0" d="m176.4 101.9q0.1 0 0.2-0.2c1.2-2.8 3.1-5.3 5.5-7.4 0.1 0 0.1-0.2 0-0.2-0.1-0.1-0.2-0.1-0.3-0.1-2.3 2.1-4.3 4.7-5.6 7.6 0 0.1 0 0.2 0.1 0.2q0.1 0.1 0.1 0.1z"/>
	<path id="Layer" class="s0" d="m175.3 107.2q0.1 0 0.2-0.1 0.9-1.6 2.4-2.8c0.1-0.1 0.1-0.2 0-0.3 0-0.1-0.2-0.1-0.2 0q-1.6 1.2-2.5 2.9c-0.1 0.1-0.1 0.2 0 0.3q0.1 0 0.1 0z"/>
	<path id="Layer" class="s0" d="m171.1 118.4c0.1 0 0.2-0.1 0.2-0.2 0.7-4.9 0.5-9.8-0.6-14.6 0-0.1-0.1-0.2-0.2-0.2-0.1 0.1-0.2 0.2-0.2 0.3 1.1 4.8 1.3 9.6 0.7 14.5-0.1 0.1 0 0.2 0.1 0.2q0 0 0 0z"/>
	<path id="Layer" class="s0" d="m166.8 126.5q0.1 0 0.2-0.1c1-1.2 2.5-2 4-2.4 0.1 0 0.2-0.1 0.2-0.2 0-0.1-0.1-0.2-0.3-0.1-1.6 0.3-3.1 1.2-4.2 2.5-0.1 0.1-0.1 0.2 0 0.3q0.1 0 0.1 0z"/>
	<path id="Layer" class="s0" d="m163.6 130.8q0.1 0 0.2-0.2c0.9-4.5 1.1-7.9 0.5-11.2 0-0.1-0.1-0.1-0.2-0.1-0.1 0-0.2 0.1-0.2 0.2 0.6 3.2 0.4 6.5-0.5 11.1 0 0.1 0 0.2 0.1 0.2q0 0 0.1 0z"/>
	<path id="Layer" class="s0" d="m161.4 133.5q0 0 0.1 0c2.4-1.2 5.1-1.9 7.8-1.9 0.2 0 0.2-0.1 0.2-0.2 0-0.1-0.1-0.2-0.2-0.2q0 0 0 0c-2.7 0-5.5 0.7-8 1.9-0.1 0.1-0.1 0.2-0.1 0.3q0.1 0.1 0.2 0.1z"/>
	<path id="Layer" class="s0" d="m148.8 144q0.1 0 0.1-0.1c2-2.4 3.4-5.3 3.9-8.5 0.1-0.1 0-0.2-0.1-0.2q-0.2 0-0.3 0.2c-0.5 3-1.8 5.9-3.8 8.3 0 0.1 0 0.2 0.1 0.3q0 0 0.1 0z"/>
	<path id="Layer" class="s0" d="m155.2 145.7c0 0 0.1-0.1 0.1-0.2 0.1-0.1 0-0.2-0.1-0.2-3.1-0.5-6.3-0.6-9.4-0.2-0.1 0-0.2 0.1-0.2 0.2q0 0.2 0.2 0.2c3.1-0.4 6.2-0.3 9.3 0.2q0 0 0.1 0z"/>
	<path id="Layer" class="s0" d="m133.9 151.7q0.1 0 0.1 0c2.1-1.8 3.9-4 5.1-6.4 0-0.1 0-0.2-0.1-0.3-0.1 0-0.2 0-0.3 0.1-1.2 2.4-2.9 4.6-4.9 6.3-0.1 0.1-0.1 0.2 0 0.3q0 0 0.1 0z"/>
	<path id="Layer" class="s0" d="m136.1 154.5q0.1 0 0.1-0.1c0.1 0 0.1-0.1 0-0.2 0 0-0.4-0.2-0.5-0.2-2-0.7-4.2-1-6.3-0.8-0.1 0-0.2 0.1-0.2 0.2 0 0.2 0.1 0.2 0.2 0.2 2.3-0.2 4.5 0.1 6.6 0.9q0 0 0.1 0z"/>
	<path id="Layer" class="s1" d="m151.7 29.4c-0.7 0-1.3-0.6-1.3-1.3 0-0.7 0.6-1.3 1.3-1.3 0.8 0 1.4 0.6 1.4 1.3 0 0.7-0.6 1.3-1.4 1.3z"/>
	<path id="Layer" class="s1" d="m175.5 54.9c-0.8 0-1.4-0.6-1.4-1.4 0-0.7 0.6-1.3 1.4-1.3 0.7 0 1.3 0.6 1.3 1.3 0 0.8-0.6 1.4-1.3 1.4z"/>
	<path id="Layer" class="s1" d="m170.7 132.7c-0.7 0-1.3-0.6-1.3-1.4 0-0.7 0.6-1.3 1.3-1.3 0.8 0 1.4 0.6 1.4 1.3 0 0.8-0.6 1.4-1.4 1.4z"/>
	<path id="Layer" class="s1" d="m172.3 82.4c0 0.5 0.4 1 1 1 0.6 0 1-0.5 1-1 0-0.6-0.4-1.1-1-1.1-0.6 0-1 0.5-1 1.1z"/>
	<path id="Layer" class="s1" d="m178.6 104.7c-0.5 0-1-0.5-1-1 0-0.6 0.5-1.1 1-1.1 0.6 0 1.1 0.5 1.1 1.1 0 0.5-0.5 1-1.1 1z"/>
	<path id="Layer" class="s1" d="m162.9 118.5c0 0.5 0.4 1 1 1 0.6 0 1.1-0.4 1.1-1 0-0.6-0.5-1.1-1.1-1.1-0.6 0-1 0.5-1 1.1z"/>
	<path id="Layer" class="s1" d="m156.1 146.7c-0.5 0-1-0.5-1-1 0-0.6 0.5-1.1 1-1.1 0.6 0 1.1 0.5 1.1 1.1 0 0.5-0.5 1-1.1 1z"/>
	<path id="Layer" class="s1" d="m139.4 145.3c-0.6 0-1.1-0.5-1.1-1.1 0-0.5 0.5-1 1.1-1 0.6 0 1 0.5 1 1 0 0.6-0.4 1.1-1 1.1z"/>
	<path id="Layer" class="s1" d="m147.8 39.9c-0.7 0-1.3-0.6-1.3-1.3 0-0.8 0.6-1.4 1.3-1.4 0.8 0 1.4 0.6 1.4 1.4 0 0.7-0.6 1.3-1.4 1.3z"/>
	<path id="Layer" class="s1" d="m161.3 38c-0.7 0-1.3-0.6-1.3-1.4 0-0.7 0.6-1.3 1.3-1.3 0.8 0 1.4 0.6 1.4 1.3 0 0.8-0.6 1.4-1.4 1.4z"/>
	<path id="Layer" class="s1" d="m163.1 59.3c-0.8 0-1.5-0.7-1.5-1.5 0-0.8 0.7-1.4 1.5-1.4 0.8 0 1.5 0.6 1.5 1.4 0 0.8-0.7 1.5-1.5 1.5z"/>
	<path id="Layer" class="s1" d="m183.1 94.7c-0.9 0-1.5-0.7-1.5-1.5 0-0.8 0.6-1.4 1.5-1.4 0.8 0 1.4 0.6 1.4 1.4 0 0.8-0.6 1.5-1.4 1.5z"/>
	<path id="Layer" class="s1" d="m179 69.6c-0.6 0-1.1-0.5-1.1-1.1 0-0.6 0.5-1.1 1.1-1.1 0.6 0 1.1 0.5 1.1 1.1 0 0.6-0.5 1.1-1.1 1.1z"/>
	<path id="Layer" class="s1" d="m169.1 102.5c0 0.7 0.6 1.2 1.2 1.2 0.6 0 1.1-0.5 1.1-1.2 0-0.6-0.5-1.1-1.1-1.1-0.6 0-1.2 0.5-1.2 1.1z"/>
	<path id="Layer" class="s1" d="m172.1 124.7c-0.7 0-1.2-0.5-1.2-1.1 0-0.6 0.5-1.1 1.2-1.1 0.6 0 1.1 0.5 1.1 1.1 0 0.6-0.5 1.1-1.1 1.1z"/>
	<path id="Layer" class="s1" d="m137.2 155.8c-0.6 0-1.1-0.5-1.1-1.2 0-0.6 0.5-1.1 1.1-1.1 0.6 0 1.1 0.5 1.1 1.1 0 0.7-0.5 1.2-1.1 1.2z"/>
	<path id="Layer" class="s1" d="m151.7 134.3c0 0.6 0.5 1.1 1.1 1.1 0.6 0 1.1-0.5 1.1-1.1 0-0.6-0.5-1.1-1.1-1.1-0.6 0-1.1 0.5-1.1 1.1z"/>
	<path id="Layer" fill-rule="evenodd" class="s0" d="m170.6 59.6c-2.1-3.3-6.4-6.7-9.8-6.7q-0.1 0-0.2 0c-0.9 0-1.8 0.1-2.7 0.2-3.5 0.4-7.8 0.9-12-1-3-1.3-4.6-3.1-6.4-5.1-1.4-1.6-3-3.3-5.3-4.8-0.2-0.1-0.3-0.3-0.2-0.5 0.1-0.2 0.3-0.2 0.5-0.2 0 0 3.4 1.2 8.7 1.8l0.6 0.1c5 0.5 8.4 0.8 15.7 5.9 7.5 5.2 9.9 6.8 10 6.8q0 0 0.1 0.1l1.7 2.9c0.1 0.2 0.1 0.5-0.1 0.6q-0.1 0-0.2 0-0.2 0-0.4-0.1zm-8-7.3q-1.6-1-3.5-2.3c-7.2-5-10.3-5.3-15.4-5.9h-0.6c-2.8-0.3-5-0.8-6.6-1.2 1.4 1.2 2.5 2.4 3.6 3.6 1.7 1.9 3.3 3.7 6.1 4.9 4 1.8 8.2 1.3 11.6 1 1-0.2 1.9-0.3 2.7-0.3q0.1 0 0.3 0 0.8 0 1.8 0.2z"/>
	<path id="Layer" fill-rule="evenodd" class="s0" d="m171 60l-0.7-1q-0.1-0.1 0-0.3c0 0 0.3-1.9 0.2-4.1-0.1-2.2-0.5-4-0.5-4.1q0-0.1 0.1-0.2c0-0.1 2.2-4.3 2.8-8 0.7-3.7 0.7-6.4 0.7-6.4q0-0.1 0-0.2c0.2-0.3 4.1-7.9 10-10.6 0.2-0.1 0.4-0.1 0.5 0.1 0.1 0.1 0.1 0.3 0 0.5-1.9 2.8-2.7 4.3-3.4 7.2-0.1 0.8-0.2 1.9-0.4 3.1-0.3 3.3-0.7 7.9-3.1 11.1l-0.5 0.7c-2.8 3.9-5.5 7.6-5 12 0 0.2-0.1 0.3-0.3 0.4q0 0-0.1 0-0.2 0-0.3-0.2zm3.4-24c0 0.5-0.1 3-0.7 6.5-0.6 3.5-2.5 7.3-2.9 8 0.1 0.5 0.4 2.1 0.5 4.1q0 0.5 0 1c0.8-2.9 2.8-5.5 4.8-8.3l0.5-0.7c2.2-3 2.6-7.4 3-10.7 0.1-1.2 0.2-2.3 0.4-3.1 0.5-2.6 1.2-4.1 2.6-6.3-4.7 2.9-7.8 8.7-8.2 9.5z"/>
	<path id="Layer" fill-rule="evenodd" class="s0" d="m170.4 50.8c-0.2 0-0.3-0.1-0.4-0.2-0.3-0.8-0.7-1.6-1.3-2.5-1.2-1.8-2.7-4.1-3.3-8.2-0.6-4.1 0.2-9.8 0.9-14l0.2-1.4c0.7-4.3 1.7-8.1 1.7-8.1 0.1-0.2 0.2-0.3 0.4-0.3q0 0 0 0c0.2 0 0.3 0.1 0.4 0.3 0 0 1.3 5.3 2 7.8q0.5 1.4 1.1 3c1 2.8 2.1 6 2.2 8.8 0.1 3.5-0.3 8.3-3.6 14.6q-0.1 0.2-0.3 0.2 0 0 0 0zm-3.1-26.2l-0.2 1.5c-0.7 4.1-1.6 9.7-1 13.7 0.6 3.9 2.1 6.1 3.2 7.9 0.5 0.7 0.8 1.2 1.1 1.8 2.9-5.8 3.2-10.2 3.1-13.5 0-2.7-1.2-5.8-2.2-8.6q-0.6-1.6-1-3c-0.5-1.7-1.3-4.6-1.7-6.3-0.4 1.5-0.9 3.9-1.3 6.5z"/>
	<path id="Layer" fill-rule="evenodd" class="s0" d="m170.5 49.9c-3-4.3-2.9-12.4-2.8-17.9q0-0.9 0-1.8c0-3.7 0.8-12.6 0.8-12.7 0-0.1 0.1-0.2 0.2-0.2q0 0 0 0c0.1 0 0.2 0.1 0.2 0.2-0.1 1.5 0.5 4.3 1.1 7.5 0.7 3.5 1.4 7.6 1.7 11 0.3 5.1-0.1 8.3-0.5 11.3-0.2 0.9-0.3 1.7-0.4 2.5q0 0.2-0.1 0.2 0 0-0.1 0-0.1 0-0.1-0.1zm-2.4-19.7q0 0.9 0 1.8c-0.1 5.2-0.2 13 2.4 17.2q0.1-0.9 0.3-1.9c0.4-3.1 0.8-6.2 0.5-11.3-0.2-3.4-1-7.4-1.7-10.9-0.4-2-0.7-3.8-0.9-5.2-0.3 2.9-0.6 7.8-0.6 10.3z"/>
	<path id="Layer" fill-rule="evenodd" class="s0" d="m175.8 75.7c-1.2-2.5-4.2-5.2-6.4-5.1-0.9 0-2 0.4-3.3 0.9-2.5 1-6 2.3-10.3 2-4.2-0.3-6.8-2-9.1-3.4-1.5-0.9-2.8-1.8-4.4-2.2-0.2-0.1-0.3-0.3-0.2-0.5 0-0.2 0.1-0.3 0.3-0.3q0 0 0.1 0c0 0 3.1 0.2 6.7-0.6 0.9-0.1 1.7-0.3 2.4-0.5 2.5-0.6 4.6-1.1 9.1-0.8 4.6 0.4 6.9 2 8.4 3.1 0.4 0.3 0.8 0.6 1.1 0.7 1.5 0.7 4.9 2.9 6 4.6q0 0.1 0 0.2l0.4 1.6c0 0.2-0.1 0.4-0.3 0.5q0 0-0.1 0c-0.2 0-0.3-0.1-0.4-0.2zm-5.6-5.8q-0.2-0.1-0.3-0.2c-0.4-0.1-0.8-0.4-1.3-0.8-1.4-1-3.6-2.5-7.9-2.9-4.4-0.4-6.5 0.2-8.9 0.7-0.7 0.2-1.5 0.4-2.4 0.6-2 0.4-3.7 0.5-5 0.6 0.9 0.4 1.8 1 2.7 1.5 2.3 1.5 4.8 3 8.7 3.3 4.2 0.3 7.5-1 10-1.9 1.4-0.5 2.6-1 3.5-1q0.1 0 0.1 0 0.4 0 0.8 0.1z"/>
	<path id="Layer" fill-rule="evenodd" class="s0" d="m177.6 90.7c-0.2-0.1-0.3-0.3-0.2-0.5q0.1-0.3 0.2-0.6c0.6-1.4 2.1-5.4 2.3-8.6v-0.2c0.2-3.1 0.5-8.2 3.4-12.6 1.4-2.2 3.8-4.3 6.1-6.3 2.5-2.1 4.8-4 5.8-6 0.1-0.2 0.3-0.3 0.5-0.2 0.1 0.1 0.2 0.3 0.2 0.5-0.5 1.7-0.9 3.8-1.4 6-0.9 4.6-1.9 9.8-4.1 13.5-1.4 2.3-3.3 3.9-5.2 5.7-2.5 2.2-5.1 4.5-6.8 8.4q-0.3 0.6-0.3 0.7c-0.1 0.1-0.2 0.2-0.4 0.2q0 0-0.1 0zm12.4-28.2c-2.3 2-4.7 4-6.1 6.1-2.8 4.3-3.1 9.2-3.2 12.2v0.3c-0.1 1.6-0.5 3.3-1 4.8 1.5-2 3.3-3.6 5-5.1 1.9-1.7 3.7-3.3 5-5.5 2.2-3.6 3.2-8.7 4.1-13.2 0.2-1.4 0.5-2.7 0.8-3.9-1.2 1.4-2.9 2.8-4.6 4.3z"/>
	<path id="Layer" fill-rule="evenodd" class="s0" d="m178.7 88.3c-0.1-0.1-0.2-0.4-0.1-0.5 0.1-0.2 1.6-2.9 4.7-5.7l0.9-0.8c2.4-2.2 3.9-3.6 4.9-5.1 1.4-2.1 2.4-4.9 2.5-4.9q0-0.1 0-0.2c0.1 0 2.1-2.1 5-3.8 0.2-0.1 0.4 0 0.5 0.1 0.1 0.1 0.1 0.3 0 0.5 0 0-1.5 2.3-2.9 6.2-1.8 4.7-4.2 7.9-7 9.2-4.2 2-6.9 3.7-7.9 4.9q-0.2 0.1-0.3 0.1-0.2 0-0.3 0zm13.6-16.7c-0.2 0.5-1.2 3-2.5 5-1.1 1.6-2.6 3-5.1 5.2l-0.9 0.9c-1.2 1.1-2.2 2.3-3 3.2 1.8-1.2 4.1-2.3 6.1-3.3 3.3-1.5 5.4-5.6 6.5-8.8 0.8-2.2 1.7-3.9 2.3-5-1.9 1.3-3.2 2.5-3.4 2.8z"/>
	<path id="Layer" fill-rule="evenodd" class="s0" d="m175.6 102.9c-0.1-0.1-0.5-7.2-3.3-9-1.3-0.9-2.5-1.2-4-1.7-1-0.4-2.2-0.7-3.6-1.4-3-1.2-4.1-3.7-5.3-6.3q-0.3-0.8-0.7-1.5c-1.4-3-3.5-5.1-3.6-5.1-0.1-0.1-0.1-0.3 0-0.5 0.1-0.1 0.3-0.2 0.5-0.1 1.3 0.8 3 1.2 4.8 1.6 2.5 0.6 5.1 1.3 7.3 3 2.8 2 3.8 5.2 4.6 7.8 0.3 1.2 0.7 2.2 1.1 2.9l0.2 0.4c1.3 2.4 3 5.4 2.7 9.9 0 0.2-0.1 0.3-0.4 0.3-0.2 0-0.3-0.1-0.3-0.3zm-16.2-20.3q0.4 0.8 0.7 1.6c1.1 2.4 2.2 4.8 4.9 5.9 1.4 0.6 2.5 1 3.6 1.3 1.5 0.5 2.7 0.9 4.1 1.8q0.1 0 0.1 0.1l-0.1-0.3c-0.5-0.8-0.8-1.8-1.2-3-0.7-2.5-1.7-5.7-4.2-7.5-2.1-1.6-4.7-2.2-7.1-2.8-1.1-0.3-2.2-0.6-3.3-1 0.8 1 1.8 2.3 2.5 3.9z"/>
	<path id="Layer" fill-rule="evenodd" class="s0" d="m171.2 118.8c-0.2-0.2-0.2-0.4 0-0.5 0 0 0.9-1.1 3.2-4.9 0.5-0.9 1-1.8 1.4-2.6 1.5-2.8 2.8-5.3 6.7-7.6 2.4-1.4 4.7-2.4 6.9-3.3 2.5-1.1 4.8-2 7.1-3.5 0.2-0.2 0.4-0.1 0.5 0 0.2 0.2 0.2 0.4 0 0.5-1.4 1.9-2.7 4.3-3.9 6.9-2.4 4.7-4.8 9.5-9.1 11.3-3.3 1.3-5.8 1.8-7.8 2.2-2 0.4-3.4 0.7-4.5 1.5q-0.1 0.1-0.2 0.1-0.2 0-0.3-0.1zm18.5-18.2c-2.2 0.9-4.5 1.9-6.8 3.3-3.7 2.2-5 4.5-6.4 7.3-0.4 0.8-0.9 1.6-1.4 2.6-1.1 1.7-1.8 2.8-2.4 3.6 1-0.3 2-0.6 3.3-0.8 2-0.5 4.5-1 7.7-2.3 4.1-1.6 6.4-6.3 8.7-10.8 0.9-2 1.9-3.9 2.9-5.5-1.8 1-3.7 1.8-5.6 2.6z"/>
	<path id="Layer" fill-rule="evenodd" class="s0" d="m167.8 124.8c-0.2-0.1-0.4-0.3-0.3-0.5 0.4-1.8 0.7-3.7 0.8-5.5 0-0.9-0.1-1.8-0.4-2.6-0.5-1.4-1.9-2-4.9-3.3-1.6-0.6-3.4-1.4-5.8-2.6-7.3-3.6-7.2-13.2-7.2-13.3 0-0.2 0.2-0.3 0.3-0.4 0.2 0 0.4 0 0.5 0.2 2 3.1 4.6 4.3 7.4 5.6 2.4 1 4.9 2.1 7.2 4.5 3.3 3.5 4 7.7 3.7 11.8 0.1 2.8-0.8 5.7-0.9 5.8 0 0.2-0.2 0.3-0.3 0.3q-0.1 0-0.1 0zm-10.3-15.2c2.4 1.2 4.3 2 5.8 2.6 2.7 1.1 4.2 1.8 5 3.1-0.2-2.8-1.2-5.5-3.5-7.8-2.2-2.3-4.6-3.4-6.9-4.4-2.6-1.2-5-2.3-7-4.8 0.2 2.7 1.3 8.7 6.6 11.3z"/>
	<path id="Layer" fill-rule="evenodd" class="s0" d="m156.9 137c-0.1-0.1-0.1-0.3 0-0.4 0 0 1.6-2.3 1.2-4.3-0.1-0.9-0.7-1.6-1.4-2.5-0.9-1.2-2.1-2.7-2.4-5.1-0.2-1.4 0-3.3 0.2-5.3 0.2-2.3 0.4-4.6 0.1-6 0-0.2 0-0.4 0.2-0.5 0.1 0 0.3 0 0.4 0.1 1.2 1.1 1.4 2.4 1.7 3.7 0.1 0.7 0.2 1.5 0.6 2.2q0.2 0.6 0.7 1.3c1.2 1.9 3 4.8 2.4 9.9-0.7 6.4-3.2 7.1-3.3 7.1q0 0-0.1 0-0.2 0-0.3-0.2zm-1.7-17.6c-0.1 2-0.3 3.9-0.1 5.1 0.3 2.3 1.3 3.6 2.3 4.8 0.7 0.9 1.3 1.8 1.5 2.8 0.2 0.8 0.1 1.6-0.1 2.3 0.4-0.9 0.8-2.3 1-4.4 0.6-4.8-1.1-7.4-2.3-9.4q-0.4-0.7-0.7-1.3c-0.4-0.8-0.6-1.7-0.7-2.5-0.1-0.7-0.3-1.4-0.6-2.1 0.1 1.4-0.1 3.1-0.3 4.7z"/>
	<path id="Layer" fill-rule="evenodd" class="s0" d="m167.4 145c-3.1-0.3-4.5-1.2-5.9-2-0.8-0.5-1.5-1-2.6-1.3-2.8-1-5.6-0.4-5.6-0.4-0.2 0.1-0.4 0-0.4-0.2-0.1-0.1-0.1-0.3 0-0.5 0.2-0.1 4.2-3.9 9.9-3.5 3.5 0.2 5.8 1.7 7.9 3.1 1.3 0.8 2.6 1.6 4 2 3.7 0.9 5.2 1.7 5.3 1.7 0.2 0.1 0.2 0.3 0.2 0.5-0.1 0.2-0.3 0.3-0.5 0.3-2.4-0.7-4.5-0.4-6.8-0.1-1.4 0.2-2.7 0.4-4.3 0.4q-0.6 0-1.2 0zm7.1-2c-1.6-0.4-2.9-1.3-4.3-2.2-2-1.3-4.1-2.7-7.4-2.9-3.8-0.2-6.7 1.4-8.2 2.4 1.1 0 2.8 0 4.6 0.6 1.1 0.4 2 0.9 2.8 1.4 1.3 0.9 2.6 1.7 5.4 1.9 1.9 0.1 3.7-0.1 5.4-0.3 1.3-0.2 2.5-0.4 3.7-0.4q-0.8-0.3-2-0.5z"/>
	<path id="Layer" fill-rule="evenodd" class="s0" d="m144.2 146.9c-0.2 0-0.4-0.2-0.3-0.5q0 0 0 0c0.1-0.4 0.4-1.7 0.3-2.5-0.3-1.5-0.3-1.7-0.6-2.9l-0.3-1c-0.5-2.3-0.2-5.8 0.8-8.7 0.9-2.6 0.9-5.5 0.9-5.5 0-0.2 0.2-0.4 0.4-0.4 0.2 0 0.4 0.2 0.4 0.4 0.1 1.5 0.5 2.9 1 4.3 0.6 1.8 1.2 3.6 1.2 6 0.1 3.6-1.2 6.1-2.3 8.1-0.4 0.9-0.8 1.7-1 2.4q0 0-0.1 0.1c0 0.1-0.2 0.2-0.3 0.2q-0.1 0-0.1 0zm0.6-15.3c-0.9 2.7-1.2 6.1-0.7 8.2l0.3 1c0.3 1.3 0.3 1.5 0.6 2.9q0 0.1 0 0.2 0 0 0-0.1c1-1.9 2.3-4.3 2.2-7.7 0-2.3-0.6-4-1.1-5.8q-0.3-0.8-0.6-1.6c-0.1 0.9-0.3 1.9-0.7 2.9z"/>
	<path id="Layer" fill-rule="evenodd" class="s0" d="m156.5 155.8c-0.9-0.3-2.1-0.3-3.3-0.3-2.1 0-4.4-0.1-6.5-1.1-2.1-1-3-1.9-3.7-2.6-0.4-0.5-0.8-0.9-1.4-1.2-1.5-0.9-2.7-0.9-2.7-0.8q0 0 0 0c-0.2 0-0.3-0.2-0.4-0.3 0-0.2 0-0.4 0.2-0.5 0.1 0 1.5-0.8 4.6-1 3.3-0.3 5.9 0.5 7.2 1.2 1.6 0.8 2.4 1.8 3.6 3.2l0.1 0.1c1.4 1.7 2.6 2.6 2.6 2.6 0.1 0.1 0.2 0.3 0.1 0.5q-0.1 0.2-0.3 0.2-0.1 0-0.1 0zm-13.2-7c-1.2 0.1-2.1 0.2-2.8 0.4q0.7 0.2 1.5 0.7c0.7 0.4 1.2 0.8 1.6 1.3 0.7 0.8 1.4 1.6 3.4 2.5 2 0.9 4.2 1 6.2 1q1.1 0 2.1 0.1c-0.5-0.4-1-1-1.7-1.8l-0.1-0.1c-1.1-1.3-1.9-2.3-3.3-3.1-1.1-0.5-3.1-1.1-5.6-1.1q-0.6 0-1.3 0.1z"/>
	<path id="Layer" fill-rule="evenodd" class="s0" d="m128.5 153.9c-0.2-0.1-0.3-0.3-0.2-0.5q0.2-0.2 0.3-0.4c0.2-0.4 0.5-1 0.7-1.7 0.2-0.9 0.4-2.4 0.5-3.6l0.1-0.5c0.4-3.4 1.4-4.7 2.5-6.1q0.3-0.5 0.7-1c1.3-1.9 2.1-4.6 2.1-4.6q0.1-0.3 0.4-0.3c0.2 0 0.4 0.2 0.4 0.4 0.3 3.9 0.6 8.1-1.1 11.4-0.9 1.9-2.3 3.1-3.5 4.2-0.8 0.7-1.6 1.4-2.1 2.2q-0.3 0.4-0.3 0.4-0.1 0.2-0.3 0.2-0.1 0-0.2-0.1zm5.3-13.4q-0.4 0.6-0.8 1.1c-1 1.4-1.9 2.5-2.3 5.7l-0.1 0.5c-0.1 1.1-0.3 2.6-0.5 3.5q0.3-0.3 0.7-0.7c1.3-1 2.5-2.2 3.4-3.9 1.3-2.7 1.4-6 1.1-9.2-0.3 0.9-0.9 2.1-1.5 3z"/>
	<path id="Layer" fill-rule="evenodd" class="s0" d="m114.3 158q-0.1-0.1-0.2-0.3c0-0.1-0.5-2.5 0.6-5.6 0.6-1.4 1.6-2.6 2.5-3.8 1.1-1.3 2.3-2.7 2.7-4.4 0.1-0.2 0.3-0.3 0.5-0.3 0.2 0 0.3 0.2 0.3 0.4-0.2 1.2-0.2 2.3-0.2 3.3-0.1 1.8-0.1 3.5-0.9 5.8-1.1 3.6-4.8 4.8-5 4.9q0 0-0.1 0-0.1 0-0.2 0zm3.5-9.2c-0.9 1.2-1.8 2.3-2.3 3.6-0.8 2.1-0.8 3.9-0.7 4.7 1-0.5 3.3-1.7 4.1-4.3 0.7-2.1 0.7-3.8 0.8-5.6q0-0.4 0-0.9c-0.5 0.9-1.2 1.7-1.9 2.5z"/>
	<path id="Layer" fill-rule="evenodd" class="s0" d="m135.8 162.7c-0.3-0.1-5.6-0.1-9-2.5-3.3-2.4-4.4-4.5-4.4-4.6-0.1-0.1-0.1-0.3 0-0.4q0.2-0.2 0.4-0.1c0.9 0.2 1.7 0.2 2.4 0.2 1.3 0 2.6 0 4.7 1 2.2 1 3.2 2.3 4.2 3.6 0.6 0.7 1.1 1.4 1.9 2.1 0.1 0.1 0.2 0.2 0.1 0.4 0 0.1-0.2 0.3-0.3 0.3q0 0 0 0zm-10.6-6.6c-0.5 0-1.1 0-1.7-0.1 0.6 0.8 1.7 2.1 3.8 3.6 2.3 1.6 5.7 2.1 7.4 2.2-0.5-0.5-0.8-1-1.2-1.5-0.9-1.2-1.9-2.4-3.9-3.3-1.8-0.9-2.9-1-4-1q-0.2 0.1-0.4 0.1z"/>
	<path id="Layer" class="s1" d="m149.4 33.7c0 0 0.6 0.5 1.7 1.5 1.1 0.9 2.6 2.2 4.5 4.1 3.8 3.7 9 9.3 13.3 17.3 2.2 3.9 4.1 8.4 5.4 13.4 1.6 5 2.2 10.5 2.5 16.1 0 5.6-0.3 11.5-1.5 17.3l-1 4.4c-0.3 1.4-0.9 2.8-1.3 4.2-0.8 2.9-2.3 5.6-3.5 8.3-2.8 5.3-6.3 10.3-10.5 14.4-4.2 4.1-8.9 7.7-13.8 10.6-9.7 5.7-19.9 9-28.7 11.2-4.4 1.1-8.5 2-12.1 3-3.5 1-6.6 2-9.1 3-2.5 0.9-4.4 1.9-5.7 2.6-1.3 0.7-1.9 1.2-1.9 1.3-0.3 0.2-0.3 0.5-0.1 0.8 0.3 0.2 0.6 0.2 0.9 0-0.1 0.1 0.5-0.4 1.7-1.1 1.2-0.7 3-1.6 5.5-2.5 2.5-1 5.5-2 9.1-3 3.5-1 7.5-1.9 12-2.9 8.8-2.3 19.1-5.6 29-11.4 5-2.9 9.7-6.5 14-10.7 4.4-4.3 7.9-9.4 10.8-14.7 1.3-2.8 2.7-5.5 3.6-8.5 0.4-1.5 1-2.9 1.4-4.4l0.9-4.4c1.2-5.9 1.6-11.8 1.5-17.6-0.4-5.7-1-11.2-2.6-16.3-1.4-5-3.4-9.6-5.6-13.6-4.4-8.1-9.7-13.8-13.6-17.5-1.9-1.8-3.5-3.2-4.6-4.1-1-0.9-1.6-1.4-1.6-1.4-0.2-0.2-0.5-0.1-0.6 0-0.2 0.2-0.2 0.5 0 0.6z"/>
	<path id="Layer" class="s0" d="m112 127.5l3 0.1-2.4 1.8 0.8 2.9-2.5-1.7-2.4 1.7 0.9-2.9-2.4-1.8 3-0.1 1-2.8z"/>
	<path id="Layer" class="s1" d="m124.4 125.6l2.5 0.1-2 1.5 0.7 2.3-2-1.4-2.1 1.4 0.8-2.4-2-1.5h2.5l0.8-2.3z"/>
	<path id="Layer" class="s0" d="m134.8 120.5l2.2 0.1-1.8 1.3 0.6 2.1-1.8-1.3-1.8 1.3 0.6-2.1-1.7-1.4h2.2l0.8-2.1z"/>
	<path id="Layer" class="s1" d="m142.6 112.7h2.2l-1.8 1.4 0.7 2.1-1.9-1.3-1.8 1.3 0.7-2.2-1.8-1.3h2.2l0.8-2.1z"/>
	<path id="Layer" class="s1" d="m97.9 125.6l-2.5 0.1 2 1.5-0.7 2.3 2-1.4 2.1 1.4-0.8-2.4 2-1.5h-2.5l-0.8-2.3z"/>
	<path id="Layer" class="s0" d="m87.6 120.5l-2.3 0.1 1.8 1.3-0.6 2.1 1.8-1.3 1.8 1.3-0.6-2.1 1.7-1.4h-2.2l-0.7-2.1z"/>
	<path id="Layer" class="s1" d="m79.7 112.7h-2.2l1.8 1.4-0.6 2.1 1.8-1.3 1.8 1.3-0.6-2.2 1.7-1.3h-2.2l-0.8-2.1z"/>
	<path id="Layer" class="s0" d="m114.3 78.4c0-6.1-0.1-12 0.1-17.9 0.1-3.7 4-6.5 7.7-6q1 0.2 1.9 0.1c1.9 0 3.4 1 3.8 2.6 0.4 1.7-0.5 3.5-2.1 4.1-1.6 0.7-3.3 0-4.3-1.6q-0.2-0.3-0.4-0.6c-1.4 0.2-2.2 0.9-2.2 2.2q0.1 6 0.1 12c0 0.2 0.1 0.3 0.2 0.6q3.9 0 7.9 0c1.4 0 2.8 0.1 4.2 0 0.7-0.1 1.5-0.5 2-0.9 0.6-0.6 0.7-1.2-0.3-1.7-1.6-1-2.1-2.7-1.4-4.3 0.6-1.6 2.3-2.5 4-2.1 1.7 0.4 2.7 1.9 2.6 3.8-0.1 1.4 0.2 2.8 0 4.1-0.4 3-2.8 5.4-5.8 5.5-5.9 0.2-11.8 0.1-18 0.1z"/>
	<path id="Layer" class="s1" d="m88.6 71.8c0.2 1.2 0.9 2 2.1 2.1 4.2 0 8.4 0 12.8 0 0-1.6 0-3 0-4.4q0-4 0-7.9c0-1.5-0.6-2.2-2.1-2.5-1.5 2.2-2.9 2.9-4.8 2.2-1.3-0.5-2.2-1.9-2.2-3.4 0.1-1.5 1.2-3 2.7-3.1 1.8-0.2 3.7-0.4 5.5-0.1 3 0.4 5.3 3.1 5.4 6.1 0.1 5.7 0 11.4 0 17 0 0.2-0.1 0.3-0.1 0.5-0.3 0.1-0.7 0.1-1.1 0.1q-7.8 0-15.7 0c-4.6 0-7.7-3.8-6.9-8.3 0.1-0.4 0.1-0.9 0.1-1.3-0.1-2 0.9-3.5 2.6-3.9 1.7-0.3 3.3 0.5 4 2 0.7 1.7 0.1 3.5-1.7 4.5q-0.2 0.2-0.6 0.4z"/>
	<path id="Layer" class="s0" d="m101.4 104.1c1.3-0.3 2.1-1 2.1-2.2 0-4.1 0-8.3 0-12.5-0.5-0.1-0.9-0.1-1.3-0.1q-5.5-0.1-11.1-0.1c-1.4 0-2.1 0.6-2.4 2.2 0.3 0.2 0.7 0.4 1 0.6 1.4 1 1.9 2.8 1.1 4.3-0.7 1.5-2.3 2.3-3.9 1.9-1.6-0.4-2.6-1.8-2.6-3.5q0-1.1-0.2-2.3c-0.4-3.8 2.4-7.5 6.1-7.6 5.9-0.2 11.8-0.1 17.8-0.1 0 0.5 0.1 1 0.1 1.4q0 7.5 0 15.1c-0.1 5.1-3.5 8-8.5 7.3-0.4-0.1-0.9-0.1-1.3 0-1.9 0.1-3.4-1-3.8-2.7-0.3-1.7 0.6-3.4 2.1-4 1.7-0.6 3.4 0 4.4 1.7 0.1 0.1 0.2 0.3 0.4 0.6z"/>
	<path id="Layer" class="s1" d="m114.3 84.7c3.3 0 6.5 0 9.7 0q3.7 0 7.3 0c4.5 0.1 7.5 3.7 6.9 8q-0.2 0.8-0.1 1.7c0.1 1.9-0.9 3.4-2.7 3.8-1.7 0.3-3.3-0.5-3.9-2.1-0.7-1.6-0.1-3.3 1.5-4.3 0.2-0.2 0.4-0.3 0.7-0.4-0.1-1.3-0.9-2.1-2.1-2.1-4.1-0.1-8.2 0-12.3 0-0.1 0-0.2 0.1-0.4 0.2 0 2.4 0 5 0 7.5 0 1.5-0.1 3.1 0 4.6 0 0.6 0.3 1.4 0.8 1.9 0.5 0.7 1.2 0.9 1.8-0.2 0.9-1.6 2.7-2.1 4.3-1.5 1.5 0.7 2.4 2.4 2 4-0.3 1.7-1.8 2.7-3.7 2.7q-1-0.1-1.9 0.1c-4 0.5-7.8-2.4-7.9-6.4-0.1-5.7 0-11.5 0-17.5z"/>
	<path id="Layer" class="s0" d="m30.6 183v26.7q0 1.9 0.3 2.5 0.2 0.6 0.8 1 0.6 0.3 2.1 0.3v0.8h-9.8v-0.8q1.4 0 1.9-0.3 0.5-0.3 0.8-0.9 0.2-0.7 0.2-2.6v-18.3q0-3.4-0.1-4.2-0.2-0.7-0.5-1-0.3-0.3-0.9-0.3-0.5 0-1.4 0.3l-0.4-0.7 6-2.5z"/>
	<path id="Layer" fill-rule="evenodd" class="s0" d="m39.6 201.7q-0.1 4.5 2.1 7.1 2.2 2.5 5.2 2.5 2 0 3.4-1.1 1.5-1.1 2.5-3.7l0.7 0.4q-0.5 3-2.7 5.5-2.2 2.5-5.6 2.5-3.6 0-6.2-2.8-2.6-2.9-2.6-7.6 0-5.2 2.7-8.1 2.6-2.9 6.6-2.9 3.4 0 5.6 2.3 2.2 2.2 2.2 5.9c0 0-13.9 0-13.9 0zm0-1.3h9.3q-0.1-1.9-0.5-2.7-0.5-1.2-1.6-1.9-1.1-0.7-2.3-0.7-1.8 0-3.3 1.4-1.4 1.4-1.6 3.9z"/>
	<path id="Layer" fill-rule="evenodd" class="s0" d="m61.6 206.9q-1.9-0.9-2.9-2.5-1-1.6-1-3.6 0-2.9 2.3-5.1 2.2-2.2 5.8-2.2 2.8 0 4.9 1.5h4.3q1 0 1.1 0 0.2 0.1 0.2 0.2 0.2 0.2 0.2 0.7 0 0.6-0.2 0.8 0 0.1-0.2 0.2-0.1 0-1.1 0h-2.6q1.2 1.6 1.2 4.1 0 2.8-2.1 4.8-2.2 2-5.8 2-1.5 0-3.1-0.4-0.9 0.8-1.3 1.4-0.3 0.6-0.3 1.1 0 0.4 0.3 0.7 0.4 0.4 1.5 0.5 0.6 0.1 3 0.2 4.6 0.1 5.9 0.3 2.1 0.3 3.3 1.5 1.2 1.2 1.2 3 0 2.5-2.3 4.7-3.5 3.2-9 3.2-4.2 0-7.2-1.9-1.6-1.1-1.6-2.3 0-0.5 0.2-1.1 0.4-0.8 1.6-2.2 0.1-0.2 2.2-2.4-1.1-0.7-1.6-1.2-0.5-0.6-0.5-1.2 0-0.8 0.7-1.8 0.6-1.1 2.9-3zm-0.3 7.4q-1 1.1-1.5 2.1-0.6 0.9-0.6 1.7 0 1.1 1.3 1.9 2.2 1.4 6.4 1.4 3.9 0 5.8-1.4 1.9-1.4 1.9-3 0-1.2-1.1-1.6-1.2-0.5-4.6-0.6-4.9-0.1-7.6-0.5zm4.1-19.7q-1.6 0-2.7 1.3-1.2 1.3-1.1 4 0 3.5 1.4 5.4 1.2 1.4 2.9 1.4 1.7 0 2.8-1.2 1.1-1.3 1.1-4 0-3.5-1.5-5.4-1.2-1.5-2.9-1.5z"/>
	<path id="Layer" fill-rule="evenodd" class="s0" d="m82.1 201.7q-0.1 4.5 2.1 7.1 2.2 2.5 5.2 2.5 2 0 3.5-1.1 1.4-1.1 2.4-3.7l0.7 0.4q-0.5 3-2.7 5.5-2.2 2.5-5.6 2.5-3.6 0-6.2-2.8-2.6-2.9-2.6-7.6 0-5.2 2.7-8.1 2.6-2.9 6.6-2.9 3.4 0 5.6 2.3 2.2 2.2 2.2 5.9c0 0-13.9 0-13.9 0zm0-1.3h9.3q-0.1-1.9-0.5-2.7-0.5-1.2-1.6-1.9-1.1-0.7-2.3-0.7-1.8 0-3.3 1.4-1.4 1.4-1.6 3.9z"/>
	<path id="Layer" class="s0" d="m104.5 197.8q3.6-4.3 6.8-4.3 1.6 0 2.8 0.9 1.2 0.8 1.9 2.7 0.5 1.3 0.5 4v8.6q0 1.9 0.3 2.6 0.3 0.6 0.8 0.9 0.5 0.3 2 0.3v0.8h-10v-0.8h0.4q1.4 0 2-0.4 0.6-0.5 0.8-1.3 0.1-0.3 0.1-2.1v-8.2q0-2.8-0.7-4-0.8-1.3-2.4-1.3-2.7 0-5.3 2.9v10.6q0 2.1 0.3 2.6 0.3 0.6 0.8 0.9 0.6 0.3 2.2 0.3v0.8h-9.9v-0.8h0.4q1.5 0 2.1-0.8 0.5-0.8 0.5-3v-7.5q0-3.6-0.2-4.4-0.1-0.8-0.5-1-0.3-0.3-0.9-0.3-0.6 0-1.4 0.3l-0.4-0.8 6.1-2.5h0.9c0 0 0 4.3 0 4.3z"/>
	<path id="Layer" fill-rule="evenodd" class="s0" d="m135.4 212q-1.5 1.6-2.9 2.2-1.4 0.7-3 0.7-3.3 0-5.8-2.8-2.4-2.7-2.4-7.1 0-4.3 2.7-7.9 2.7-3.6 7-3.6 2.7 0 4.4 1.7v-3.7q0-3.5-0.2-4.2-0.1-0.8-0.5-1.1-0.3-0.3-0.9-0.3-0.5 0-1.5 0.3l-0.3-0.7 6.1-2.5h0.9v23.3q0 3.5 0.2 4.3 0.2 0.8 0.5 1.1 0.4 0.3 0.9 0.3 0.6 0 1.6-0.4l0.2 0.8-6 2.5h-1c0 0 0-2.9 0-2.9zm0-1.5v-10.4q-0.1-1.5-0.8-2.7-0.6-1.3-1.7-1.9-1.1-0.6-2.2-0.6-1.9 0-3.4 1.7-2 2.3-2 6.7 0 4.4 1.9 6.8 2 2.4 4.3 2.4 2 0 3.9-2z"/>
	<path id="Layer" fill-rule="evenodd" class="s0" d="m155.1 211.4q-3.1 2.4-3.9 2.7-1.2 0.6-2.5 0.6-2.1 0-3.5-1.4-1.3-1.5-1.3-3.8 0-1.5 0.7-2.5 0.9-1.5 3.1-2.9 2.2-1.3 7.4-3.2v-0.8q0-3-0.9-4.1-1-1.1-2.8-1.1-1.4 0-2.2 0.7-0.9 0.8-0.9 1.7l0.1 1.3q0 1-0.5 1.6-0.5 0.5-1.4 0.5-0.8 0-1.3-0.5-0.5-0.6-0.5-1.6 0-1.9 1.9-3.5 1.9-1.6 5.4-1.6 2.7 0 4.4 0.9 1.3 0.7 1.9 2.2 0.4 0.9 0.4 3.8v6.9q0 2.9 0.1 3.5 0.2 0.7 0.4 0.9 0.3 0.2 0.6 0.2 0.3 0 0.6-0.1 0.5-0.3 1.8-1.7v1.3q-2.5 3.3-4.7 3.3-1.1 0-1.7-0.8-0.7-0.7-0.7-2.5zm0-1.5v-7.6q-3.3 1.3-4.3 1.8-1.7 1-2.5 2.1-0.7 1-0.7 2.3 0 1.6 0.9 2.6 1 1 2.2 1 1.7 0 4.4-2.2z"/>
	<path id="Layer" class="s0" d="m169.6 193.5v4.6q2.5-4.6 5.2-4.6 1.2 0 2 0.8 0.8 0.7 0.8 1.7 0 0.8-0.6 1.4-0.6 0.6-1.4 0.6-0.7 0-1.7-0.7-1-0.8-1.4-0.8-0.4 0-0.9 0.5-1 0.9-2 2.9v9.7q0 1.6 0.4 2.5 0.3 0.6 1 1 0.7 0.4 2.1 0.4v0.8h-10.3v-0.8q1.5 0 2.3-0.5 0.5-0.3 0.7-1.1 0.2-0.4 0.2-2.2v-7.8q0-3.5-0.2-4.1-0.1-0.7-0.5-1-0.4-0.3-1-0.3-0.7 0-1.5 0.3l-0.2-0.8 6.1-2.5c0 0 0.9 0 0.9 0z"/>
	<path id="Layer" class="s0" d="m177.5 194.1h9.4v0.9h-0.4q-1 0-1.5 0.4-0.5 0.4-0.5 1 0 0.9 0.7 2.4l4.9 10.2 4.5-11.1q0.4-0.9 0.4-1.8 0-0.4-0.2-0.6-0.1-0.3-0.5-0.4-0.4-0.1-1.3-0.1v-0.9h6.5v0.9q-0.8 0-1.2 0.3-0.5 0.3-1 1-0.2 0.3-0.7 1.7l-8.2 20.1q-1.2 2.9-3.1 4.4-2 1.5-3.8 1.5-1.3 0-2.1-0.7-0.8-0.8-0.8-1.8 0-0.9 0.6-1.4 0.6-0.6 1.6-0.6 0.8 0 2 0.5 0.9 0.3 1.1 0.3 0.7 0 1.5-0.7 0.7-0.7 1.5-2.6l1.5-3.5-7.3-15.2q-0.3-0.7-1-1.7-0.6-0.8-0.9-1-0.5-0.4-1.7-0.6c0 0 0-0.9 0-0.9z"/>
	<path id="Layer" class="s1" d="m101.2 267.5v0.8h-12.8v-0.8h1q1.9 0 2.7-1.1 0.6-0.7 0.6-3.4v-19.2q0-2.3-0.3-3-0.3-0.6-0.9-1-1-0.5-2.1-0.5h-1v-0.8h12.8v0.8h-1.1q-1.8 0-2.7 1.1-0.5 0.7-0.5 3.4v19.2q0 2.3 0.3 3 0.2 0.6 0.9 1 0.9 0.5 2 0.5z"/>
	<path id="Layer" class="s1" d="m134.2 238.5v0.8q-1.5 0.3-2.4 1-1.1 1.1-2 3.3l-10.4 25.4h-0.8l-11.2-25.7q-0.9-2-1.2-2.4-0.6-0.7-1.4-1.1-0.8-0.4-2.1-0.5v-0.8h12.1v0.8q-2 0.2-2.6 0.7-0.7 0.5-0.7 1.3 0 1.1 1.1 3.4l7.5 17.5 7.1-17.2q1-2.6 1-3.6 0-0.6-0.6-1.2-0.7-0.6-2.2-0.8-0.1 0-0.4-0.1v-0.8z"/>
</svg>