<svg version="1.2" xmlns="http://www.w3.org/2000/svg" viewBox="0 0 223 283" width="223" height="283">
	<title>New Project</title>
	<style>
		.s0 { fill: #ce0019 } 
		.s1 { fill: #f9ff00 } 
	</style>
	<path id="Layer" fill-rule="evenodd" class="s0" d="m64.8 155.6q-0.2 0-0.2-0.1c0-0.1 0-0.2 0.1-0.3 0 0 1.2-0.4 4.2-2.6q0.4-0.3 0.8-0.6c1.2-0.9 2.5-1.9 4.8-2.7 3.6-1.3 6.4-0.1 6.6-0.1q0.1 0.1 0.1 0.3c0 0.1-0.1 0.1-0.2 0.1 0 0-2.1-0.1-5.2 1.6-0.7 0.5-1.4 0.9-2.1 1.3-2 1.4-3.9 2.7-8.9 3.1q0 0 0 0zm13.1-6.5c-0.9 0-2.1 0.1-3.3 0.6-2.2 0.8-3.4 1.7-4.7 2.6q-0.4 0.4-0.8 0.7c-1.6 1.1-2.6 1.7-3.3 2.1 4.2-0.5 5.9-1.7 7.7-2.9 0.7-0.4 1.3-0.9 2.1-1.3 1.9-1.1 3.4-1.4 4.3-1.6-0.5-0.1-1.2-0.2-2-0.2z"/>
	<path id="Layer" fill-rule="evenodd" class="s0" d="m48.8 144c-1.2 0-2.1 0-2.9-0.1-1.2-0.1-2.2-0.1-3.5 0.1-0.1 0-0.2-0.1-0.2-0.1 0-0.1 0-0.3 0.1-0.3 1-0.4 2.1-0.5 3.4-0.7 1.3-0.1 2.8-0.3 4.6-0.9 1.5-0.4 2.5-1 3.4-1.5 1.4-0.7 2.6-1.4 4.7-1.7 3.7-0.5 8.3 1.3 8.5 1.4 0.1 0.1 0.2 0.2 0.1 0.3 0 0.1-0.1 0.1-0.2 0.1 0 0-5.3-0.9-8.5 0.5q-1.4 0.6-2.4 1.1c-1.9 1-3.4 1.7-5.6 1.8q-0.8 0-1.5 0zm-4.1-0.6q0.6 0.1 1.3 0.1c1 0.1 2.3 0.2 4.3 0.1 2.1-0.1 3.5-0.8 5.4-1.7q1.1-0.5 2.4-1.1c2.1-1 4.9-1 6.8-0.8-1.7-0.5-4.3-1.1-6.4-0.8-2.1 0.3-3.2 0.9-4.6 1.7-0.9 0.5-2 1-3.5 1.5-1.8 0.6-3.3 0.8-4.7 0.9q-0.5 0.1-1 0.1z"/>
	<path id="Layer" fill-rule="evenodd" class="s0" d="m49.8 141q-0.1 0-0.1 0c-0.1 0-2.4-0.3-4.4-1.8-1.9-1.4-4.3-2.5-4.3-2.5-0.1-0.1-0.2-0.3-0.2-0.4 0-0.2 0.2-0.4 0.4-0.4 0 0 3.1 0 6.9-0.3 3.5-0.4 8.5-0.2 11.1 1.4 0.2 0.1 0.3 0.3 0.2 0.5-0.1 0.2-0.2 0.3-0.4 0.2-0.1 0-3.8-0.5-9 3.3q-0.1 0-0.2 0zm-7-4.3c0.9 0.5 2 1.1 2.9 1.8 1.6 1.2 3.4 1.6 4 1.7 3.2-2.3 5.8-3 7.5-3.2-2.6-0.8-6.3-0.9-9-0.6-2.2 0.2-4.1 0.3-5.4 0.3z"/>
	<path id="Layer" fill-rule="evenodd" class="s0" d="m38.6 120.9c-3.4 0-5.2-2.2-7-4.4-0.7-0.9-1.5-1.8-2.4-2.5-2.9-2.7-6.1-3.2-6.2-3.2-0.2 0-0.3-0.2-0.3-0.4 0-0.2 0.2-0.4 0.4-0.4 5.9 0 9.8 1.3 10 1.4q0 0 0.1 0.1c0 0 2.8 2.9 8 3.8 6.9 1.2 8.5 2.7 8.6 2.7 0.1 0.2 0.2 0.3 0.1 0.5-0.1 0.2-0.2 0.2-0.4 0.2-1.8-0.2-3.3 0.3-4.9 0.9-1.6 0.6-3.4 1.2-5.7 1.3q-0.2 0-0.3 0zm-12.6-10c1.1 0.5 2.5 1.3 3.8 2.5 0.9 0.8 1.7 1.7 2.4 2.6 1.8 2.2 3.4 4.1 6.4 4.1q0.1 0 0.2 0c2.3-0.1 3.9-0.7 5.5-1.2 1.2-0.5 2.4-0.9 3.7-1-1.2-0.5-3.3-1.2-7-1.9-5-0.8-7.8-3.4-8.3-3.9-0.5-0.2-3-0.9-6.7-1.2z"/>
	<path id="Layer" fill-rule="evenodd" class="s0" d="m47.8 117.2q-0.1 0-0.1 0c-1.3-0.8-2.5-1.4-3.8-1.9-2.2-1-4.8-2.1-8.3-4.8-3.4-2.7-5.9-6.2-8.1-9.3-1.4-1.9-2.6-3.5-3.7-4.7-0.1 0-0.1-0.2 0-0.2 0-0.1 0.2-0.1 0.2-0.1 0.1 0 2.6 1.9 6.8 4.4 4.1 2.6 6.2 4.5 9.5 8.1 1.2 1.3 2.3 2.4 3.3 3.5 1.6 1.7 3 3.2 4.3 4.7 0.1 0 0.1 0.1 0 0.2q0 0.1-0.1 0.1zm-22.5-19.6c0.8 0.9 1.6 2.1 2.5 3.4 2.2 3.1 4.7 6.5 8.1 9.2 3.4 2.6 5.9 3.7 8.1 4.7 1 0.4 1.9 0.8 2.8 1.3-1.1-1.2-2.2-2.4-3.5-3.7-1-1.1-2-2.2-3.3-3.6-3.3-3.5-5.3-5.4-9.4-7.9-2.4-1.4-4.2-2.6-5.3-3.4z"/>
	<path id="Layer" fill-rule="evenodd" class="s0" d="m52 115q0 0-0.1 0-0.1-0.1-0.1-0.2c0.7-3.7 5.4-7.9 8.4-9.5l0.7-0.4c3.1-1.6 7-3.7 9.1-7.8 0-0.1 0.1-0.1 0.2-0.1 0.1 0.1 0.2 0.2 0.1 0.3 0 0-1.3 6.7-7.3 9.9l-1.4 0.8c-5 2.7-6.5 3.5-9.4 6.9q-0.1 0.1-0.2 0.1zm17.5-16.3c-2.2 3.3-5.6 5.1-8.4 6.6l-0.7 0.3c-3.1 1.7-6.8 5.3-7.9 8.4 2.6-3 4.4-3.9 8.9-6.4l1.4-0.7c4.1-2.2 6-6.1 6.7-8.2z"/>
	<path id="Layer" fill-rule="evenodd" class="s0" d="m51.8 116c-0.3 0-0.4-0.1-0.4-0.4q0 0 0-0.2 0-0.6 0-1.3c0-4.1 0-8.3 3.4-12.8 0.9-1.1 1.7-2.1 2.5-3 1.4-1.5 2.7-3 3.9-5.3 0.1-0.1 0.3-0.2 0.4-0.2 0.2 0.1 0.4 0.2 0.3 0.4 0 0.9-0.2 8.3-0.7 9.7q-0.1 0.1-0.2 0.2c-0.1 0-3.8 2-5.5 3.8-3.1 3.3-3.3 7.9-3.3 8.6q0 0.1 0 0.1c0 0.3-0.2 0.4-0.4 0.4zm9.3-21.2c-1 1.6-2.1 2.8-3.2 4.1-0.8 0.9-1.6 1.8-2.5 2.9-2.3 3.1-3 6.1-3.1 9.1 0.5-1.5 1.3-3.1 2.6-4.5 1.6-1.7 4.8-3.6 5.6-4 0.3-1 0.5-4.9 0.6-7.6z"/>
	<path id="Layer" fill-rule="evenodd" class="s0" d="m47.3 92.6q-0.1 0-0.2-0.1-0.1-0.1 0-0.2c0.9-1.2 1.5-2.2 2-3.3 0.9-1.5 1.7-3.1 3.6-5.2 2.2-2.4 4.3-3.4 7-4.7 1.2-0.6 2.6-1.3 4.2-2.2 0.1 0 0.2 0 0.2 0.1 0.1 0.1 0.1 0.2 0 0.3 0 0-2.6 2.2-5.4 5.6q-0.7 0.8-1.3 1.7c-2.4 2.9-4.8 6-10.1 8q0 0 0 0zm15.4-14.6q-1.6 0.8-2.8 1.4c-2.7 1.3-4.7 2.3-6.9 4.7-1.8 2-2.7 3.6-3.5 5.1-0.5 0.9-1 1.8-1.7 2.7 4.8-1.8 7.1-4.8 9.3-7.6q0.6-0.8 1.3-1.6c1.6-2 3.2-3.7 4.3-4.7z"/>
	<path id="Layer" fill-rule="evenodd" class="s0" d="m40.6 84.9q-0.1 0-0.2-0.1c-3-4.2-5-7.2-8-12.2-1.5-2.8-3.1-6.5-4.4-9.9-1.1-2.5-2.1-5-2.9-6.4 0-0.1 0-0.2 0.1-0.3 0.1 0 0.2 0 0.2 0 0.1 0.1 7.5 8 10.8 14.7 1 2.2 1.9 5.2 2.7 8.1 0.6 2.2 1.2 4.3 1.8 5.8 0.1 0.1 0.1 0.2 0 0.2q-0.1 0.1-0.1 0.1zm-14.4-27.5c0.6 1.5 1.4 3.3 2.1 5.2 1.4 3.3 2.9 7.1 4.5 9.8 2.6 4.4 4.5 7.3 7 10.9-0.4-1.3-0.8-2.8-1.3-4.4-0.8-2.9-1.6-5.8-2.7-8-2.5-5.1-7.5-11-9.6-13.5z"/>
	<path id="Layer" fill-rule="evenodd" class="s0" d="m40 78.5c-0.2 0-0.4-0.1-0.4-0.3 0-0.1-0.5-7.2-3.1-11-2.6-3.9-6-6.2-6-6.2q-0.1-0.1-0.1-0.2c-0.1-0.2-0.9-2.8-0.4-6.6 0.1-0.2 0.2-0.3 0.4-0.4 0.2 0 0.3 0.1 0.4 0.3 0 0 0.5 1.4 2.2 3.5l0.5 0.5c1.8 2.2 4.7 5.6 6 11.2 1.2 4.9 0.9 8.7 0.9 8.9 0 0.2-0.2 0.3-0.4 0.3zm-8.9-18.1c0.6 0.4 3.6 2.7 6 6.3 0.9 1.2 1.5 2.7 1.9 4.2q-0.1-0.7-0.3-1.4c-1.3-5.4-3.9-8.6-5.8-10.8l-0.5-0.6c-0.8-1-1.4-1.8-1.7-2.4-0.2 2.4 0.2 4.2 0.4 4.7z"/>
	<path id="Layer" fill-rule="evenodd" class="s0" d="m58 50.4c-0.1 0-0.2-0.1-0.2-0.2-0.1-0.1 0-0.2 0.1-0.2 2.1-0.7 4.3-1.6 6.6-2.6 2.1-0.8 4.2-1.7 6.3-2.4 4.4-1.6 14.8-4.9 14.9-5 0.1 0 0.2 0 0.2 0.1 0.1 0.1 0 0.2 0 0.3-0.1 0-7.1 5.4-12.9 7.5-5.8 2.1-14.9 2.5-15 2.5q0 0 0 0zm26.6-9.6c-2.8 0.9-10.1 3.3-13.6 4.5-2.1 0.8-4.3 1.7-6.3 2.5-1.9 0.7-3.7 1.5-5.4 2.1 2.8-0.2 9.2-0.8 13.5-2.4 4.5-1.6 9.7-5.2 11.8-6.7z"/>
	<path id="Layer" fill-rule="evenodd" class="s0" d="m61.6 69.2c-2.6 0-4.2-0.3-5.7-0.5-1.7-0.3-3.2-0.6-5.7-0.2q-0.2-0.1-0.2-0.2c0-0.1 0-0.2 0.1-0.2 0.1-0.1 7-2.5 12.3-2.5q0.2 0 0.3 0c1.8 0.1 3.6 0.2 5.3 0.3 3.7 0.3 7.1 0.6 9.8-0.2 0.1 0 0.3 0.1 0.3 0.2 0 0.1 0 0.2-0.1 0.2-0.1 0-6.2 2.6-14 3q-1.3 0.1-2.4 0.1zm-9.1-1.3c1.3 0 2.3 0.2 3.5 0.4 1.8 0.3 4 0.6 8 0.4 5-0.2 9.3-1.4 11.7-2.2-2.3 0.2-5 0-7.7-0.2-1.7-0.1-3.5-0.2-5.3-0.3q-0.1 0-0.3 0c-3.7 0-8.1 1.2-10.5 1.9q0.3 0 0.6 0z"/>
	<path id="Layer" fill-rule="evenodd" class="s0" d="m50.4 68.1q-0.1 0-0.2-0.1c-0.1-0.1-0.2-0.3-0.1-0.5 0.1-0.2 2-4.5 7.6-6.3 2.6-0.9 5.1-0.8 7.5-0.8 2.6 0 5.3 0 8.3-1.1 0.1-0.1 0.3 0 0.4 0.1 0.1 0.1 0.2 0.2 0.1 0.4 0 0.1-1 3-6.1 4.8q-0.1 0.1-0.2 0c0 0-3.7-0.7-7.4-0.4-5.8 0.6-9.6 3.7-9.6 3.8q-0.1 0.1-0.3 0.1zm14.5-6.9c-2.3 0-4.6 0-7 0.8-3.1 1-5 2.8-6.1 4.2 1.7-1 4.6-2.4 8.5-2.8 3.4-0.3 6.8 0.3 7.5 0.4 3-1 4.4-2.5 5-3.4-2.7 0.8-5.2 0.8-7.6 0.8q-0.2 0-0.3 0z"/>
	<path id="Layer" fill-rule="evenodd" class="s0" d="m91.5 152q-0.1 0-0.2-0.1c-0.5-1.2-1-1.8-1.5-2.5-0.5-0.6-1.1-1.3-1.8-2.6-1.3-2.4-2.5-6.5-2.3-10.1 0-0.1 0.1-0.2 0.1-0.2q0.2 0 0.3 0.2c0 0 0.8 3.6 2 5.8q0.2 0.4 0.5 0.9c1.1 2 2.4 4.5 3.1 8.4 0 0.1 0 0.2-0.1 0.2q-0.1 0-0.1 0zm-5.4-13.7c0.2 3.1 1.2 6.3 2.3 8.3 0.6 1.2 1.2 1.9 1.7 2.6 0.3 0.4 0.6 0.8 0.9 1.3-0.7-3-1.8-5.1-2.8-6.9q-0.2-0.5-0.4-0.9c-0.7-1.3-1.3-3.1-1.7-4.4z"/>
	<path id="Layer" fill-rule="evenodd" class="s0" d="m92.8 154.3q-0.2 0-0.3-0.2l-0.3-0.4c-0.1 0-0.5-0.7-0.8-2-0.1-0.6-0.2-1.4-0.4-2.3-0.1-1.3-0.2-2.8-0.6-4.3q0 0 0 0c0-0.2-0.3-3.6 2.1-7.7 0.1-0.2 0.3-0.2 0.5-0.2 0.2 0.1 0.3 0.3 0.3 0.5 0 0-0.3 1.2 0.2 4.8q0.1 0.8 0.3 1.7c0.3 1.5 0.7 3.2 0.6 4.9-0.1 1.9-0.5 2.9-0.8 3.8-0.2 0.4-0.3 0.7-0.4 1.1 0 0.1-0.1 0.2-0.3 0.3q0 0-0.1 0zm-1.7-9.3c0.3 1.5 0.5 3 0.7 4.3 0.2 0.9 0.3 1.7 0.4 2.2 0.2 0.7 0.4 1.2 0.5 1.5q0.1-0.2 0.1-0.4c0.4-0.8 0.8-1.7 0.8-3.5 0-1.6-0.3-3.3-0.6-4.8q-0.1-0.9-0.3-1.7c-0.2-1.4-0.3-2.5-0.3-3.2-1.3 2.9-1.3 5.3-1.3 5.6z"/>
	<path id="Layer" fill-rule="evenodd" class="s0" d="m71 31.5q-0.1 0-0.2-0.1c-0.2-0.1-0.2-0.4-0.1-0.5q0 0 0.2-0.2c0.7-0.9 1.2-2.9 1.7-5 0.6-2.1 1.3-4.5 2.3-6.5 1.3-2.5 3.9-4.2 6.1-5.7 1.4-0.9 2.8-1.8 3.6-2.7 0.1-0.1 0.3-0.2 0.4-0.1 0.2 0.1 0.3 0.3 0.3 0.4-0.1 0.3-1.1 6-2.8 8.9q0 0.1 0 0.1c-0.1 0-3.9 3.2-5.8 5.2-1.7 1.7-4.5 5.1-5.2 5.9q-0.1 0.1-0.2 0.2-0.1 0.1-0.3 0.1zm13.2-19.3c-0.8 0.7-1.7 1.3-2.7 2-2.2 1.4-4.7 3-5.9 5.4-1 1.9-1.6 4.3-2.2 6.4q-0.4 1.4-0.7 2.6c1.1-1.3 2.5-2.9 3.4-3.9 1.9-1.9 5.3-4.7 5.8-5.2 1.1-2 1.9-5.4 2.3-7.3z"/>
	<path id="Layer" fill-rule="evenodd" class="s0" d="m71.1 31.6q-0.1 0-0.2-0.1c-0.2-0.2-0.2-0.4-0.1-0.5 0-0.1 3.3-4.9 10.2-10.8 6.2-5.1 18.7-6.1 19.2-6.2 0.2 0 0.4 0.2 0.5 0.4 0 0.2-0.1 0.4-0.3 0.4-1.4 0.5-3.6 2.6-6 4.8-2.4 2.3-5.1 4.8-7.6 6.4-3.2 2.1-7.4 3.1-10.8 4-2.1 0.5-4 1-4.6 1.5q-0.1 0.1-0.3 0.1zm27.3-16.6c-3.8 0.5-12.3 2-16.8 5.8-4.8 4-7.8 7.6-9.2 9.4 0.9-0.3 2.1-0.6 3.4-1 3.3-0.8 7.5-1.9 10.5-3.8 2.6-1.6 5.2-4.1 7.6-6.3 1.7-1.6 3.2-3.1 4.5-4.1z"/>
	<path id="Layer" fill-rule="evenodd" class="s0" d="m71.7 30.8q-0.2 0-0.2-0.1c-0.1-0.1 0-0.2 0.1-0.3 2-1.2 4.7-3.3 7.2-5.4 2.6-2 5-3.9 6.8-5 3.8-2.3 13.6-5.5 13.7-5.6 0.1 0 0.2 0.1 0.3 0.2 0 0 0 0.2-0.1 0.2-3.2 1.8-5.7 3.5-8.6 5.5-1.7 1.1-3.4 2.2-5.5 3.6-5.7 3.7-13.6 6.8-13.7 6.9q0 0 0 0zm25.8-15.3c-3 1-9 3.2-11.7 4.8-1.8 1.1-4.2 3-6.7 5-1.9 1.5-3.8 3-5.5 4.3 2.7-1.2 7.7-3.5 11.6-6.1 2.1-1.3 3.8-2.5 5.5-3.6 2.3-1.6 4.4-3 6.8-4.4z"/>
	<path id="Layer" class="s0" d="m63.9 37.3q0 0-0.1 0c-0.1-0.1-0.1-0.2-0.1-0.3 2.1-3.2 3.8-6.7 5-10.3 0.1-0.1 0.2-0.1 0.3-0.1 0.1 0 0.2 0.2 0.1 0.3-1.2 3.6-2.9 7.1-5 10.3q-0.1 0.1-0.2 0.1z"/>
	<path id="Layer" class="s0" d="m59.7 42.4q-0.1 0-0.2-0.1c0-0.1 0-0.2 0.1-0.3 3.7-2.6 7.7-4.5 12.1-5.8 0.1 0 0.2 0 0.2 0.1 0 0.1 0 0.2-0.1 0.3-4.3 1.2-8.3 3.2-12 5.7q0 0.1-0.1 0.1z"/>
	<path id="Layer" class="s0" d="m57.1 45.6q0 0 0 0c-0.1 0-0.2-0.1-0.1-0.2 1.2-3.2 1.9-6.6 2.1-10q0-0.2 0.2-0.2c0.1 0 0.2 0.1 0.2 0.2-0.2 3.5-0.9 6.9-2.2 10.1q0 0.1-0.2 0.1z"/>
	<path id="Layer" class="s0" d="m46.9 63.7c-0.1 0-0.2-0.1-0.2-0.2 0-3.6-0.6-7.2-1.5-10.7 0-0.1 0.1-0.2 0.2-0.2 0.1-0.1 0.2 0 0.2 0.1 0.9 3.5 1.4 7.2 1.5 10.8 0 0.1-0.1 0.2-0.2 0.2q0 0 0 0z"/>
	<path id="Layer" class="s0" d="m47.6 62.7q-0.1 0-0.1-0.1c-0.1-0.1-0.1-0.2 0-0.3 2.5-2.4 5.5-4.4 8.6-6 0.1 0 0.3 0 0.3 0.1 0.1 0.1 0 0.2-0.1 0.3-3.1 1.5-6 3.5-8.6 5.9q0 0.1-0.1 0.1z"/>
	<path id="Layer" class="s0" d="m43.4 78.7q-0.1 0 0 0c-0.2 0-0.3-0.1-0.2-0.2 0-3.6-0.5-7.2-1.6-10.6 0-0.1 0-0.2 0.1-0.3 0.1 0 0.2 0 0.3 0.2 1.1 3.4 1.6 7 1.6 10.7-0.1 0.1-0.1 0.2-0.2 0.2z"/>
	<path id="Layer" class="s0" d="m43.2 92.4q0 0 0 0c-0.1 0-0.2-0.1-0.2-0.3 0.3-3.6 1.5-7.2 3.4-10.3 0-0.1 0.1-0.1 0.2-0.1 0.1 0.1 0.2 0.2 0.1 0.3-1.8 3.1-3 6.6-3.3 10.2 0 0.1-0.1 0.2-0.2 0.2z"/>
	<path id="Layer" class="s0" d="m44 100.9q-0.2 0-0.2-0.1c-1.3-2.9-3.3-5.5-5.7-7.6 0 0 0-0.2 0-0.3 0.1 0 0.2 0 0.3 0 2.5 2.1 4.4 4.8 5.7 7.7 0.1 0.1 0 0.3-0.1 0.3q0 0 0 0z"/>
	<path id="Layer" class="s0" d="m45.1 106.4q-0.1 0-0.2-0.1-1-1.7-2.5-2.9c0-0.1-0.1-0.2 0-0.3 0.1-0.1 0.2-0.1 0.3 0q1.5 1.2 2.6 3c0 0.1 0 0.2-0.1 0.3q-0.1 0-0.1 0z"/>
	<path id="Layer" class="s0" d="m49.4 117.9c-0.1 0-0.2-0.1-0.2-0.2-0.7-5-0.5-10.1 0.6-15 0-0.1 0.1-0.2 0.2-0.1 0.1 0 0.2 0.1 0.2 0.2-1.1 4.9-1.3 9.9-0.6 14.8 0 0.1-0.1 0.2-0.2 0.3q0 0 0 0z"/>
	<path id="Layer" class="s0" d="m53.8 126.2q-0.1 0-0.2-0.1c-1.1-1.2-2.5-2.1-4.1-2.5-0.1 0-0.2-0.1-0.2-0.2 0-0.1 0.1-0.2 0.3-0.2 1.6 0.4 3.2 1.3 4.3 2.6 0.1 0.1 0.1 0.2 0 0.3q-0.1 0.1-0.1 0.1z"/>
	<path id="Layer" class="s0" d="m57.1 130.5c-0.1 0-0.2 0-0.2-0.1-1-4.7-1.2-8.1-0.6-11.5 0.1-0.1 0.2-0.2 0.3-0.1 0.1 0 0.2 0.1 0.1 0.2-0.6 3.3-0.4 6.7 0.6 11.3 0 0.1 0 0.2-0.1 0.2q-0.1 0-0.1 0z"/>
	<path id="Layer" class="s0" d="m59.3 133.3q0 0 0 0c-2.5-1.2-5.3-1.9-8.1-2-0.1 0-0.2-0.1-0.2-0.2 0-0.1 0.1-0.2 0.2-0.2 2.8 0.1 5.7 0.8 8.2 2 0.1 0.1 0.2 0.2 0.1 0.3q0 0.1-0.2 0.1z"/>
	<path id="Layer" class="s0" d="m72.3 144.1q-0.1 0-0.2-0.1c-2-2.5-3.4-5.5-4-8.7 0-0.1 0.1-0.2 0.2-0.2q0.2 0 0.2 0.1c0.6 3.1 1.9 6.1 3.9 8.6 0.1 0 0.1 0.2 0 0.2q-0.1 0.1-0.1 0.1z"/>
	<path id="Layer" class="s0" d="m65.7 145.8c-0.1 0-0.2-0.1-0.2-0.2 0-0.1 0.1-0.2 0.2-0.2 3.2-0.5 6.4-0.6 9.6-0.2 0.1 0 0.2 0.1 0.2 0.2q0 0.2-0.2 0.2c-3.2-0.4-6.4-0.3-9.5 0.2q-0.1 0-0.1 0z"/>
	<path id="Layer" class="s0" d="m87.5 152q-0.1 0-0.2-0.1c-2.1-1.8-3.9-4-5.1-6.5-0.1-0.1 0-0.3 0.1-0.3 0.1-0.1 0.2 0 0.2 0.1 1.2 2.4 3 4.7 5.1 6.4 0.1 0.1 0.1 0.2 0 0.3q-0.1 0.1-0.1 0.1z"/>
	<path id="Layer" class="s0" d="m85.2 154.8q-0.1 0-0.1 0c-0.1-0.1-0.1-0.2 0-0.3 0 0 0.5-0.2 0.5-0.2 2.1-0.8 4.3-1 6.5-0.8 0.1 0 0.2 0.1 0.2 0.2 0 0.1-0.1 0.2-0.3 0.2-2.2-0.2-4.6 0.1-6.7 0.9q0 0-0.1 0z"/>
	<path id="Layer" class="s1" d="m69.2 26.8c-0.7 0-1.4-0.6-1.4-1.4 0-0.7 0.7-1.3 1.4-1.3 0.8 0 1.4 0.6 1.4 1.3 0 0.8-0.6 1.4-1.4 1.4z"/>
	<path id="Layer" class="s1" d="m44.9 52.9c-0.7 0-1.3-0.7-1.3-1.4 0-0.8 0.6-1.4 1.3-1.4 0.8 0 1.4 0.6 1.4 1.4 0 0.7-0.6 1.4-1.4 1.4z"/>
	<path id="Layer" class="s1" d="m49.8 132.4c-0.8 0-1.4-0.6-1.4-1.3 0-0.8 0.6-1.4 1.4-1.4 0.7 0 1.4 0.6 1.4 1.4 0 0.7-0.7 1.3-1.4 1.3z"/>
	<path id="Layer" class="s1" d="m48.2 81c0 0.6-0.5 1-1 1-0.6 0-1.1-0.4-1.1-1 0-0.6 0.5-1.1 1.1-1.1 0.5 0 1 0.5 1 1.1z"/>
	<path id="Layer" class="s1" d="m42.8 102.8c0 0.6-0.5 1.1-1.1 1.1-0.6 0-1.1-0.5-1.1-1.1 0-0.6 0.5-1.1 1.1-1.1 0.6 0 1.1 0.5 1.1 1.1z"/>
	<path id="Layer" class="s1" d="m57.8 117.9c0 0.6-0.5 1.1-1.1 1.1-0.5 0-1-0.5-1-1.1 0-0.6 0.5-1 1-1 0.6 0 1.1 0.4 1.1 1z"/>
	<path id="Layer" class="s1" d="m64.7 146.8c-0.6 0-1.1-0.5-1.1-1 0-0.6 0.5-1.1 1.1-1.1 0.6 0 1.1 0.5 1.1 1.1 0 0.5-0.5 1-1.1 1z"/>
	<path id="Layer" class="s1" d="m82.9 144.3c0 0.6-0.4 1.1-1 1.1-0.6 0-1.1-0.5-1.1-1.1 0-0.6 0.5-1.1 1.1-1.1 0.6 0 1 0.5 1 1.1z"/>
	<path id="Layer" class="s1" d="m73.2 37.5c-0.7 0-1.3-0.6-1.3-1.4 0-0.7 0.6-1.3 1.3-1.3 0.8 0 1.4 0.6 1.4 1.3 0 0.8-0.6 1.4-1.4 1.4z"/>
	<path id="Layer" class="s1" d="m59.4 35.5c-0.8 0-1.4-0.6-1.4-1.3 0-0.8 0.6-1.4 1.4-1.4 0.8 0 1.4 0.6 1.4 1.4 0 0.7-0.6 1.3-1.4 1.3z"/>
	<path id="Layer" class="s1" d="m57.6 57.4c-0.8 0-1.5-0.7-1.5-1.5 0-0.9 0.7-1.5 1.5-1.5 0.8 0 1.5 0.6 1.5 1.5 0 0.8-0.7 1.5-1.5 1.5z"/>
	<path id="Layer" class="s1" d="m37.2 93.6c-0.9 0-1.5-0.7-1.5-1.5 0-0.8 0.6-1.5 1.5-1.5 0.8 0 1.5 0.7 1.5 1.5 0 0.8-0.7 1.5-1.5 1.5z"/>
	<path id="Layer" class="s1" d="m41.3 67.9c-0.6 0-1.1-0.5-1.1-1.1 0-0.6 0.5-1.2 1.1-1.2 0.7 0 1.2 0.6 1.2 1.2 0 0.6-0.5 1.1-1.2 1.1z"/>
	<path id="Layer" class="s1" d="m51.4 101.6c0 0.7-0.5 1.2-1.2 1.2-0.6 0-1.1-0.5-1.1-1.2 0-0.6 0.5-1.1 1.1-1.1 0.7 0 1.2 0.5 1.2 1.1z"/>
	<path id="Layer" class="s1" d="m48.4 124.3c-0.6 0-1.1-0.5-1.1-1.1 0-0.7 0.5-1.2 1.1-1.2 0.6 0 1.2 0.5 1.2 1.2 0 0.6-0.6 1.1-1.2 1.1z"/>
	<path id="Layer" class="s1" d="m84.1 156.1c-0.6 0-1.1-0.5-1.1-1.1 0-0.7 0.5-1.2 1.1-1.2 0.7 0 1.2 0.5 1.2 1.2 0 0.6-0.5 1.1-1.2 1.1z"/>
	<path id="Layer" class="s1" d="m69.3 134.1c0 0.7-0.5 1.2-1.2 1.2-0.6 0-1.1-0.5-1.1-1.2 0-0.6 0.5-1.1 1.1-1.1 0.7 0 1.2 0.5 1.2 1.1z"/>
	<path id="Layer" fill-rule="evenodd" class="s0" d="m49.5 57.8q-0.1 0-0.2 0c-0.2-0.2-0.2-0.4-0.1-0.6l1.7-3q0.1-0.1 0.2-0.1c0 0 2.5-1.7 10.1-6.9 7.6-5.2 11-5.6 16.1-6.1l0.6-0.1c5.4-0.6 8.9-1.8 9-1.8 0.2-0.1 0.4 0 0.5 0.2 0 0.2 0 0.4-0.2 0.5-2.4 1.5-4 3.2-5.5 4.9-1.8 2-3.5 3.9-6.5 5.2-4.3 1.9-8.7 1.5-12.3 1.1-0.9-0.2-1.9-0.3-2.7-0.3q-0.1 0-0.2 0c-3.5 0-7.9 3.5-10.1 6.8q-0.2 0.2-0.4 0.2zm10.5-7.8q0.1 0 0.2 0c0.9 0 1.8 0.1 2.8 0.3 3.5 0.3 7.8 0.8 11.9-1 2.8-1.3 4.5-3.1 6.2-5.1 1.1-1.2 2.2-2.4 3.7-3.6-1.6 0.4-3.9 0.9-6.8 1.2l-0.6 0.1c-5.2 0.5-8.3 0.8-15.7 5.9q-2 1.4-3.6 2.5 1-0.3 1.9-0.3z"/>
	<path id="Layer" fill-rule="evenodd" class="s0" d="m49.2 58.3q-0.1 0-0.1 0c-0.2-0.1-0.3-0.2-0.3-0.4 0.5-4.5-2.2-8.3-5.2-12.3l-0.5-0.7c-2.4-3.3-2.8-8-3.2-11.4-0.1-1.2-0.2-2.3-0.4-3.1-0.6-3-1.4-4.6-3.4-7.5-0.1-0.1-0.1-0.3 0-0.5 0.1-0.1 0.3-0.1 0.5-0.1 6.1 2.8 10 10.6 10.2 10.9q0 0.1 0 0.2c0 0 0.1 2.8 0.7 6.6 0.7 3.8 2.9 8.1 3 8.1q0 0.2 0 0.3c0 0-0.4 1.9-0.5 4.2-0.1 2.3 0.3 4.1 0.3 4.2q0 0.1-0.1 0.2l-0.7 1.1q-0.1 0.2-0.3 0.2zm-11.5-34.5c1.4 2.2 2.1 3.8 2.6 6.4 0.2 0.9 0.3 2 0.4 3.2 0.4 3.4 0.8 7.9 3.1 11l0.5 0.7c2 2.8 4 5.5 4.9 8.5q0-0.5 0-1c0.1-2 0.4-3.7 0.5-4.2-0.4-0.8-2.4-4.7-3-8.3-0.6-3.5-0.6-6.1-0.7-6.6-0.4-0.8-3.6-6.7-8.3-9.7z"/>
	<path id="Layer" fill-rule="evenodd" class="s0" d="m50.1 48.7q-0.2 0-0.3-0.2c-3.4-6.5-3.7-11.4-3.7-15 0.1-2.9 1.3-6.1 2.3-9 0.4-1.1 0.8-2.1 1.1-3.1 0.8-2.5 2-7.9 2.1-8 0-0.1 0.2-0.3 0.3-0.3h0.1c0.1 0 0.3 0.1 0.3 0.3 0 0.1 1.1 3.9 1.8 8.3l0.2 1.5c0.7 4.3 1.6 10.1 1 14.3-0.7 4.2-2.2 6.6-3.4 8.5-0.6 0.9-1.1 1.6-1.4 2.5-0.1 0.1-0.2 0.2-0.4 0.2q0 0 0 0zm1.9-33.5c-0.5 1.8-1.2 4.8-1.8 6.5q-0.4 1.4-1 3.1c-1 2.8-2.2 6-2.3 8.8 0 3.3 0.3 7.8 3.2 13.8 0.3-0.6 0.7-1.2 1.1-1.9 1.2-1.8 2.7-4.1 3.3-8.1 0.6-4.1-0.3-9.8-1-14l-0.2-1.6c-0.4-2.6-1-5.1-1.3-6.6z"/>
	<path id="Layer" fill-rule="evenodd" class="s0" d="m49.9 47.9q-0.1 0-0.1-0.1-0.1 0-0.1-0.1c-0.1-0.9-0.2-1.7-0.4-2.6-0.4-3.1-0.8-6.3-0.5-11.6 0.3-3.5 1-7.6 1.7-11.3 0.7-3.2 1.2-6.1 1.2-7.6 0-0.1 0-0.2 0.2-0.2q0 0 0 0c0.1 0 0.2 0.1 0.2 0.2 0 0.1 0.8 9.2 0.8 13q0 0.9 0 1.9c0.1 5.5 0.1 13.9-2.9 18.3q0 0.1-0.1 0.1zm2-30.9c-0.2 1.5-0.6 3.3-1 5.3-0.7 3.7-1.5 7.8-1.7 11.3-0.3 5.1 0.1 8.4 0.5 11.5q0.2 1 0.3 2c2.6-4.4 2.6-12.3 2.5-17.6q0-1 0-1.9c0-2.5-0.4-7.6-0.6-10.6z"/>
	<path id="Layer" fill-rule="evenodd" class="s0" d="m44.2 74.3q-0.1 0-0.1 0c-0.2-0.1-0.3-0.2-0.3-0.4l0.3-1.7q0-0.1 0.1-0.2c1.1-1.7 4.6-4 6.1-4.7 0.3-0.1 0.7-0.4 1.2-0.7 1.5-1.1 3.9-2.8 8.5-3.2 4.6-0.3 6.8 0.2 9.3 0.8 0.8 0.2 1.6 0.4 2.5 0.6 3.7 0.7 6.9 0.6 6.9 0.6q0 0 0 0c0.2 0 0.4 0.1 0.4 0.3 0.1 0.2-0.1 0.4-0.2 0.4-1.6 0.5-3 1.4-4.5 2.3-2.4 1.5-5.1 3.2-9.3 3.5-4.4 0.4-8-1-10.6-2-1.3-0.5-2.5-1-3.3-1-2.4-0.1-5.4 2.7-6.6 5.2-0.1 0.2-0.3 0.2-0.4 0.2zm6.9-6.2q0.1 0 0.1 0c1 0 2.2 0.5 3.6 1.1 2.5 0.9 6 2.2 10.2 1.9 4.1-0.3 6.6-1.9 9-3.4 0.9-0.5 1.8-1.1 2.7-1.5-1.3-0.1-3.1-0.2-5.1-0.6-0.9-0.2-1.7-0.4-2.5-0.6-2.4-0.6-4.5-1.1-9-0.8-4.5 0.4-6.7 2-8.2 3-0.5 0.4-0.9 0.7-1.3 0.8q-0.1 0.1-0.3 0.2 0.4-0.1 0.8-0.1z"/>
	<path id="Layer" fill-rule="evenodd" class="s0" d="m42.6 89.5c-0.1 0-0.3-0.1-0.4-0.2q0-0.1-0.2-0.7c-1.8-4-4.5-6.3-7-8.6-2-1.8-3.9-3.5-5.3-5.9-2.3-3.7-3.3-9-4.3-13.7-0.4-2.3-0.8-4.5-1.4-6.2 0-0.2 0.1-0.4 0.3-0.5 0.2-0.1 0.4 0 0.5 0.2 1 2 3.3 4 5.8 6.2 2.4 2 4.9 4.1 6.3 6.4 3 4.5 3.3 9.7 3.5 12.8v0.3c0.2 3.3 1.7 7.3 2.3 8.8q0.2 0.3 0.3 0.6c0.1 0.2 0 0.4-0.2 0.5q-0.1 0-0.2 0zm-17.2-33.3c0.3 1.3 0.5 2.6 0.8 4 0.9 4.7 2 9.9 4.2 13.5 1.3 2.3 3.2 3.9 5.1 5.7 1.7 1.5 3.5 3.1 5.1 5.2-0.5-1.5-0.9-3.3-1-5v-0.2c-0.2-3-0.5-8.1-3.3-12.5-1.5-2.2-3.9-4.2-6.2-6.2-1.8-1.6-3.5-3-4.7-4.5z"/>
	<path id="Layer" fill-rule="evenodd" class="s0" d="m41.4 87.1q-0.2 0-0.4-0.1c-1-1.3-3.8-3-8.1-5-2.9-1.4-5.3-4.7-7.1-9.5-1.5-4-3-6.3-3.1-6.3-0.1-0.2 0-0.4 0.1-0.5 0.1-0.2 0.3-0.2 0.5-0.1 2.9 1.7 5 3.8 5.1 3.9q0 0 0.1 0.1c0 0.1 1 2.9 2.5 5.1 1 1.5 2.5 2.9 5 5.2l1 0.8c3.1 2.9 4.6 5.7 4.7 5.8 0.1 0.2 0.1 0.4-0.1 0.5q-0.1 0.1-0.2 0.1zm-17.1-20c0.6 1.1 1.4 2.9 2.2 5.1 1.2 3.2 3.4 7.4 6.8 9.1 2 0.9 4.3 2.1 6.1 3.3-0.7-1-1.7-2.1-3-3.3l-0.9-0.9c-2.6-2.2-4.1-3.6-5.2-5.3-1.4-2-2.4-4.6-2.6-5.1-0.2-0.3-1.6-1.6-3.4-2.9z"/>
	<path id="Layer" fill-rule="evenodd" class="s0" d="m44.4 102.3c-0.2 0-0.3-0.1-0.4-0.4-0.2-4.5 1.5-7.6 2.9-10.1l0.2-0.3c0.4-0.8 0.7-1.8 1.1-3 0.8-2.7 1.9-6 4.6-8 2.3-1.8 5-2.4 7.6-3.1 1.8-0.4 3.5-0.8 4.9-1.6 0.2-0.1 0.4-0.1 0.5 0.1 0.1 0.2 0.1 0.4-0.1 0.5 0 0.1-2.2 2.2-3.6 5.2q-0.4 0.8-0.7 1.5c-1.2 2.7-2.3 5.2-5.4 6.6-1.5 0.6-2.7 1-3.8 1.3-1.5 0.5-2.7 0.9-4 1.8-2.9 1.8-3.4 9.1-3.4 9.1 0 0.3-0.1 0.4-0.4 0.4zm19.5-25c-1 0.4-2.2 0.6-3.3 0.9-2.5 0.6-5.1 1.3-7.3 2.9-2.6 1.9-3.6 5.1-4.3 7.7-0.4 1.2-0.8 2.2-1.2 3.1l-0.2 0.2q0.1 0 0.1 0c1.4-0.9 2.8-1.3 4.3-1.8 1-0.4 2.2-0.8 3.7-1.4 2.8-1.2 3.8-3.6 4.9-6.1q0.4-0.8 0.8-1.6c0.7-1.6 1.7-3 2.5-3.9z"/>
	<path id="Layer" fill-rule="evenodd" class="s0" d="m49 118.4q-0.1 0-0.2-0.1c-1.1-0.8-2.6-1.1-4.6-1.5-2-0.5-4.6-1-8-2.4-4.4-1.7-6.9-6.7-9.3-11.5-1.3-2.6-2.5-5.1-4-7-0.2-0.2-0.2-0.4 0-0.5 0.1-0.2 0.3-0.2 0.5-0.1 2.3 1.5 4.7 2.5 7.3 3.6 2.2 1 4.6 2 7 3.4 4 2.4 5.4 4.9 6.9 7.8 0.4 0.8 0.9 1.7 1.4 2.6 2.4 3.9 3.3 5 3.3 5 0.2 0.2 0.2 0.4 0 0.6q-0.1 0.1-0.3 0.1zm-24.4-21.4c1.1 1.6 2.1 3.6 3 5.6 2.4 4.6 4.7 9.4 8.9 11.1 3.3 1.3 5.9 1.9 7.9 2.3 1.3 0.3 2.4 0.5 3.3 0.8-0.5-0.8-1.3-1.9-2.3-3.7-0.6-0.9-1.1-1.8-1.5-2.7-1.5-2.7-2.8-5.2-6.6-7.4-2.4-1.4-4.7-2.4-6.9-3.3-2-0.9-3.9-1.7-5.8-2.7z"/>
	<path id="Layer" fill-rule="evenodd" class="s0" d="m52.7 124.4c-0.2 0-0.3-0.1-0.4-0.3 0-0.1-1-3-0.9-6-0.3-4.2 0.4-8.4 3.8-12 2.4-2.4 4.9-3.6 7.4-4.7 2.8-1.2 5.5-2.4 7.6-5.7 0.1-0.1 0.3-0.2 0.5-0.1 0.1 0 0.3 0.2 0.3 0.4 0 0.1 0.1 9.9-7.4 13.6-2.4 1.2-4.3 2-5.9 2.6-3.1 1.4-4.5 2-5 3.4-0.3 0.8-0.5 1.8-0.5 2.7 0.2 1.9 0.5 3.7 0.9 5.6 0 0.2-0.1 0.4-0.3 0.5q0 0-0.1 0zm17.4-27.1c-2.1 2.6-4.6 3.7-7.2 4.9-2.4 1-4.8 2.1-7.1 4.5-2.3 2.4-3.3 5.1-3.6 8 0.8-1.3 2.4-2 5.2-3.2 1.6-0.6 3.5-1.5 5.9-2.6 5.4-2.7 6.6-8.9 6.8-11.6z"/>
	<path id="Layer" fill-rule="evenodd" class="s0" d="m63.6 137.1q-0.1 0-0.1 0c-0.1 0-2.7-0.8-3.4-7.3-0.5-5.2 1.3-8.1 2.5-10.1q0.5-0.7 0.8-1.3c0.3-0.7 0.4-1.5 0.6-2.3 0.2-1.3 0.5-2.7 1.6-3.8 0.2-0.1 0.4-0.1 0.5 0 0.2 0.1 0.2 0.2 0.2 0.4-0.3 1.5-0.1 3.9 0.1 6.1 0.2 2.1 0.4 4.1 0.2 5.5-0.3 2.5-1.5 4-2.5 5.3-0.7 0.8-1.3 1.6-1.4 2.4-0.4 2.2 1.2 4.5 1.2 4.5 0.1 0.1 0.1 0.3 0 0.4q-0.1 0.2-0.3 0.2zm1.7-23c-0.3 0.6-0.4 1.4-0.5 2.1-0.2 0.9-0.3 1.7-0.7 2.5q-0.3 0.7-0.8 1.4c-1.2 2-2.9 4.7-2.4 9.6 0.3 2.1 0.7 3.6 1.1 4.6-0.2-0.8-0.3-1.6-0.1-2.4 0.2-1.1 0.9-1.9 1.6-2.8 0.9-1.3 2-2.7 2.3-4.9 0.2-1.4 0-3.3-0.2-5.3-0.1-1.7-0.3-3.4-0.3-4.8z"/>
	<path id="Layer" fill-rule="evenodd" class="s0" d="m51.9 145.1c-1.5 0-3-0.2-4.3-0.4-2.4-0.3-4.5-0.6-7 0-0.2 0.1-0.4 0-0.5-0.2 0-0.2 0-0.4 0.2-0.5 0.1 0 1.6-0.8 5.4-1.8 1.5-0.3 2.8-1.2 4.1-2.1 2.1-1.3 4.5-2.9 8.1-3.1 5.9-0.4 9.9 3.5 10.1 3.6 0.1 0.2 0.2 0.3 0.1 0.5-0.1 0.2-0.3 0.3-0.5 0.2 0 0-2.8-0.6-5.8 0.4-1 0.3-1.8 0.8-2.6 1.3-1.4 0.9-2.9 1.8-6 2.1q-0.6 0-1.3 0zm-8.1-1.5c1.3 0 2.6 0.1 3.9 0.3 1.7 0.3 3.5 0.5 5.5 0.4 2.9-0.3 4.2-1.1 5.6-2 0.8-0.5 1.6-1 2.8-1.4 1.8-0.6 3.5-0.7 4.7-0.6-1.5-1.1-4.5-2.7-8.4-2.5-3.4 0.2-5.5 1.6-7.6 3-1.4 0.9-2.8 1.8-4.4 2.2q-1.2 0.3-2.1 0.6z"/>
	<path id="Layer" fill-rule="evenodd" class="s0" d="m76.9 147.1c-0.2 0-0.4-0.1-0.4-0.3q0 0-0.1-0.1c-0.2-0.7-0.6-1.5-1-2.4-1.1-2.1-2.4-4.6-2.4-8.3 0-2.5 0.7-4.3 1.3-6.2 0.5-1.4 0.9-2.8 1-4.4 0-0.2 0.2-0.3 0.4-0.3 0.2 0 0.4 0.1 0.4 0.3 0 0.1 0 3 0.9 5.7 1 2.9 1.4 6.6 0.8 8.8l-0.3 1.1c-0.3 1.3-0.3 1.5-0.6 2.9-0.1 0.8 0.2 2.2 0.3 2.6q0 0 0 0.1c0.1 0.2 0 0.4-0.2 0.5q-0.1 0-0.1 0zm-1.3-18.7q-0.3 0.8-0.6 1.7c-0.6 1.8-1.2 3.6-1.2 5.9 0 3.5 1.3 5.9 2.3 7.9q0 0 0 0.1 0-0.1 0.1-0.2c0.2-1.5 0.3-1.7 0.6-3l0.2-1c0.6-2.2 0.2-5.6-0.7-8.5-0.4-1-0.6-2-0.7-2.9z"/>
	<path id="Layer" fill-rule="evenodd" class="s0" d="m64.3 156.1c-0.2 0-0.3 0-0.4-0.2-0.1-0.1 0-0.4 0.1-0.5 0 0 1.2-0.9 2.7-2.6l0.1-0.2c1.2-1.4 2-2.4 3.6-3.3 1.4-0.7 4.1-1.4 7.5-1.1 3.1 0.2 4.6 1 4.7 1 0.1 0.1 0.2 0.3 0.1 0.5 0 0.1-0.2 0.3-0.3 0.3q0 0-0.1 0c0-0.1-1.2-0.1-2.7 0.8-0.7 0.3-1 0.7-1.5 1.2-0.7 0.8-1.5 1.7-3.7 2.7-2.2 1.1-4.5 1.1-6.6 1.1-1.3 0.1-2.5 0.1-3.4 0.3q-0.1 0-0.1 0zm12.2-7.2c-2.6 0-4.6 0.6-5.7 1.1-1.5 0.8-2.3 1.8-3.4 3.2l-0.1 0.1c-0.7 0.8-1.2 1.4-1.7 1.8q1-0.1 2.1-0.1c2.1 0 4.3 0 6.4-1 2-0.9 2.8-1.8 3.4-2.5 0.5-0.5 0.9-1 1.7-1.4q0.8-0.5 1.5-0.7c-0.7-0.2-1.6-0.4-2.9-0.5q-0.7 0-1.3 0z"/>
	<path id="Layer" fill-rule="evenodd" class="s0" d="m92.8 154.3q-0.2 0-0.3-0.2c0 0-0.1-0.2-0.3-0.4-0.5-0.8-1.3-1.5-2.1-2.2-1.3-1.1-2.7-2.4-3.7-4.3-1.6-3.5-1.4-7.7-1.1-11.8 0.1-0.2 0.2-0.3 0.4-0.3q0.3 0 0.4 0.3c0 0 0.8 2.7 2.2 4.7q0.4 0.5 0.7 1c1.1 1.4 2.2 2.8 2.6 6.3v0.5c0.2 1.1 0.4 2.7 0.6 3.6 0.2 0.8 0.5 1.4 0.7 1.7q0.1 0.3 0.3 0.5c0.1 0.2 0 0.4-0.2 0.5q-0.1 0.1-0.2 0.1zm-6.8-16.9c-0.2 3.3-0.2 6.7 1.2 9.4 0.8 1.8 2.1 3 3.4 4.1q0.4 0.3 0.8 0.7c-0.2-1-0.4-2.5-0.6-3.6v-0.5c-0.4-3.3-1.3-4.5-2.4-5.9q-0.4-0.5-0.8-1.1c-0.7-1-1.2-2.2-1.6-3.1z"/>
	<path id="Layer" fill-rule="evenodd" class="s0" d="m107.3 158.4q0 0-0.1 0c-0.2-0.1-4-1.3-5.1-5-0.8-2.4-0.8-4.1-0.9-6 0-1-0.1-2.1-0.2-3.3 0-0.2 0.1-0.4 0.3-0.5 0.2 0 0.4 0.1 0.5 0.3 0.4 1.8 1.6 3.2 2.7 4.6 1 1.2 2 2.4 2.6 3.8 1.2 3.2 0.6 5.7 0.6 5.8q0 0.2-0.2 0.2-0.1 0.1-0.2 0.1zm-5.3-12q0 0.5 0 1c0.1 1.8 0.1 3.5 0.8 5.7 0.9 2.6 3.2 3.9 4.2 4.3 0.1-0.8 0.2-2.6-0.7-4.8-0.5-1.3-1.4-2.4-2.4-3.6-0.7-0.8-1.4-1.7-1.9-2.6z"/>
	<path id="Layer" fill-rule="evenodd" class="s0" d="m85.6 163.2c-0.2 0-0.4-0.2-0.4-0.3-0.1-0.2 0-0.4 0.1-0.5 0.8-0.6 1.4-1.3 2-2.1 1-1.3 2-2.6 4.2-3.7 2.2-1 3.6-1 4.9-1 0.7 0 1.5 0 2.4-0.2q0.3-0.1 0.4 0.1c0.1 0.1 0.1 0.3 0.1 0.4-0.1 0.1-1.1 2.3-4.6 4.7-3.4 2.5-8.9 2.5-9.1 2.6q0 0 0 0zm10.3-6.8c-1.1 0-2.2 0.1-4 0.9-2.1 1-3 2.3-4 3.5-0.4 0.5-0.8 1-1.2 1.5 1.7-0.2 5.2-0.7 7.6-2.3 2.1-1.5 3.2-2.9 3.8-3.7-0.6 0.1-1.2 0.1-1.8 0.1q-0.2 0-0.4 0z"/>
	<path id="Layer" class="s1" d="m71.6 31.2c0 0-0.6 0.5-1.7 1.5-1.1 0.9-2.7 2.3-4.7 4.2-3.8 3.7-9.1 9.5-13.5 17.7-2.3 4-4.2 8.7-5.6 13.8-1.6 5-2.2 10.6-2.5 16.4 0 5.7 0.3 11.8 1.5 17.7l1 4.5c0.4 1.5 0.9 2.9 1.4 4.3 0.8 3 2.3 5.7 3.5 8.5 3 5.4 6.5 10.5 10.8 14.8 4.3 4.2 9.1 7.9 14.1 10.8 10 5.8 20.4 9.2 29.4 11.5 4.5 1 8.7 2 12.3 3 3.7 1 6.9 2.1 9.4 3.1 2.6 1 4.5 1.9 5.8 2.6 1.3 0.8 2 1.3 2 1.3 0.2 0.3 0.3 0.7 0 0.9-0.2 0.2-0.6 0.2-0.8 0 0 0.1-0.5-0.4-1.8-1.1-1.2-0.7-3.1-1.6-5.6-2.6-2.5-1-5.7-2-9.3-3-3.6-1-7.8-2-12.3-3.1-9.1-2.2-19.6-5.6-29.8-11.6-5-2.9-9.9-6.6-14.3-11-4.4-4.3-8-9.5-11-15-1.3-2.9-2.8-5.6-3.6-8.7-0.5-1.5-1.1-3-1.5-4.5l-0.9-4.5c-1.3-6-1.6-12.1-1.6-18 0.4-5.8 1.1-11.5 2.7-16.7 1.4-5.1 3.4-9.9 5.8-13.9 4.5-8.3 9.9-14.1 13.8-17.9 2-1.9 3.6-3.3 4.7-4.2 1.1-0.9 1.7-1.4 1.7-1.4 0.2-0.2 0.5-0.2 0.6 0 0.2 0.2 0.2 0.5 0 0.6z"/>
	<path id="Layer" fill-rule="evenodd" class="s0" d="m156.7 155.6c-5-0.4-6.9-1.7-9-3.1-0.6-0.4-1.3-0.8-2-1.3-3.1-1.7-5.2-1.6-5.2-1.6-0.1 0-0.2 0-0.2-0.1 0-0.1 0-0.2 0.1-0.3 0.1 0 3-1.2 6.6 0.1 2.3 0.8 3.5 1.8 4.8 2.7q0.4 0.3 0.8 0.6c3 2.2 4.2 2.6 4.2 2.6 0.1 0.1 0.1 0.2 0.1 0.3q0 0.1-0.2 0.1 0 0 0 0zm-15.1-6.3c0.9 0.2 2.4 0.6 4.3 1.6 0.8 0.4 1.4 0.9 2.1 1.3 1.8 1.2 3.5 2.4 7.7 2.9-0.7-0.4-1.7-1-3.3-2.1q-0.4-0.3-0.8-0.7c-1.3-0.9-2.5-1.8-4.7-2.6-1.2-0.5-2.4-0.6-3.3-0.6-0.8 0-1.5 0.1-2 0.2z"/>
	<path id="Layer" fill-rule="evenodd" class="s0" d="m171.2 144c-2.2-0.1-3.7-0.8-5.6-1.8q-1-0.5-2.4-1.1c-3.2-1.4-8.5-0.5-8.5-0.5-0.1 0-0.2 0-0.2-0.1-0.1-0.1 0-0.2 0.1-0.3 0.2-0.1 4.8-1.9 8.5-1.4 2.1 0.3 3.3 1 4.7 1.7 0.9 0.5 1.9 1.1 3.4 1.5 1.8 0.6 3.3 0.8 4.6 0.9 1.3 0.2 2.4 0.3 3.4 0.7 0.1 0 0.1 0.2 0.1 0.3 0 0-0.1 0.1-0.2 0.1-1.3-0.2-2.3-0.2-3.5-0.1-0.8 0.1-1.7 0.1-2.9 0.1q-0.7 0-1.5 0zm4.6-0.7c-1.4-0.1-2.9-0.3-4.8-0.9-1.4-0.5-2.5-1-3.4-1.5-1.4-0.8-2.5-1.4-4.6-1.7-2.1-0.3-4.7 0.3-6.4 0.8 1.9-0.2 4.7-0.2 6.8 0.8q1.3 0.6 2.4 1.1c1.9 0.9 3.3 1.6 5.4 1.7 2 0.1 3.3 0 4.3-0.1q0.7 0 1.3-0.1-0.5 0-1-0.1z"/>
	<path id="Layer" fill-rule="evenodd" class="s0" d="m171.5 141c-5.2-3.8-8.9-3.3-9-3.3-0.2 0.1-0.3 0-0.4-0.2-0.1-0.2 0-0.4 0.2-0.5 2.6-1.6 7.6-1.8 11.1-1.4 3.8 0.3 6.9 0.3 6.9 0.3 0.2 0 0.4 0.2 0.4 0.4 0 0.1-0.1 0.3-0.2 0.4-0.1 0-2.4 1.1-4.3 2.5-2 1.5-4.3 1.8-4.4 1.8q0 0-0.1 0-0.1 0-0.2 0zm1.8-4.6c-2.7-0.3-6.4-0.2-9 0.6 1.7 0.2 4.3 0.9 7.5 3.2 0.6-0.1 2.4-0.5 4-1.7 0.9-0.7 2-1.3 2.9-1.8-1.3 0-3.2-0.1-5.4-0.3z"/>
	<path id="Layer" fill-rule="evenodd" class="s0" d="m182.6 120.9c-2.3-0.1-4.1-0.7-5.7-1.3-1.7-0.6-3.1-1.1-4.9-0.9-0.2 0-0.3-0.1-0.4-0.2-0.1-0.2 0-0.3 0.1-0.5 0.1 0 1.7-1.6 8.6-2.7 5.2-0.9 8-3.8 8-3.8q0-0.1 0.1-0.1c0.2-0.1 4.1-1.4 10-1.4 0.2 0 0.4 0.2 0.4 0.4 0 0.2-0.1 0.4-0.3 0.4-0.1 0-3.3 0.5-6.2 3.1-0.9 0.8-1.7 1.7-2.4 2.6-1.8 2.2-3.6 4.4-7 4.4q-0.1 0-0.3 0zm6.2-8.8c-0.5 0.5-3.3 3.1-8.3 3.9-3.7 0.7-5.8 1.4-7 1.9 1.3 0.1 2.5 0.5 3.7 1 1.6 0.5 3.2 1.1 5.5 1.2q0.1 0 0.2 0c3 0 4.6-1.9 6.4-4.1 0.7-0.9 1.5-1.8 2.4-2.6 1.3-1.2 2.7-2 3.8-2.5-3.7 0.3-6.2 1-6.7 1.2z"/>
	<path id="Layer" fill-rule="evenodd" class="s0" d="m173.6 117.1c-0.1-0.1-0.1-0.2 0-0.2 1.3-1.5 2.7-3 4.3-4.7 1-1.1 2-2.2 3.3-3.5 3.3-3.6 5.4-5.6 9.5-8.1 4.2-2.5 6.7-4.4 6.8-4.4 0 0 0.2 0 0.2 0.1 0.1 0 0.1 0.1 0 0.2-1.1 1.2-2.3 2.8-3.7 4.7-2.2 3.1-4.7 6.6-8.1 9.3-3.5 2.7-6.1 3.8-8.3 4.8-1.3 0.5-2.5 1.1-3.8 1.9q0 0-0.1 0-0.1 0-0.1-0.1zm17.3-16.1c-4.1 2.5-6.1 4.4-9.4 7.9-1.3 1.4-2.3 2.5-3.3 3.6-1.3 1.3-2.4 2.5-3.5 3.7 0.9-0.5 1.8-0.9 2.8-1.3 2.2-1 4.7-2.1 8.1-4.7 3.4-2.7 5.9-6.1 8.1-9.2 0.9-1.3 1.7-2.5 2.5-3.4-1.1 0.8-2.9 2-5.3 3.4z"/>
	<path id="Layer" fill-rule="evenodd" class="s0" d="m169.3 114.9c-3-3.4-4.4-4.2-9.4-6.9l-1.4-0.8c-6-3.2-7.3-9.9-7.3-9.9-0.1-0.1 0-0.2 0.1-0.3 0.1 0 0.2 0 0.2 0.1 2.1 4.1 6 6.2 9.1 7.8l0.7 0.4c3 1.6 7.6 5.8 8.4 9.5q0 0.1-0.2 0.2 0 0 0 0-0.1 0-0.2-0.1zm-10.6-8l1.4 0.7c4.5 2.5 6.3 3.4 8.9 6.4-1.1-3.1-4.8-6.7-7.9-8.4l-0.7-0.3c-2.8-1.5-6.2-3.3-8.4-6.6 0.7 2.1 2.6 6 6.7 8.2z"/>
	<path id="Layer" fill-rule="evenodd" class="s0" d="m169.3 115.6q0 0 0-0.1c0-0.7-0.3-5.3-3.3-8.6-1.7-1.8-5.5-3.8-5.5-3.8q-0.1-0.1-0.2-0.2c-0.5-1.4-0.7-8.8-0.8-9.7 0-0.2 0.2-0.3 0.4-0.4 0.1 0 0.3 0.1 0.4 0.2 1.2 2.3 2.5 3.8 3.9 5.3 0.8 0.9 1.6 1.9 2.5 3 3.4 4.5 3.4 8.7 3.4 12.8q0 0.7 0 1.3 0 0.2 0 0.2c0 0.3-0.1 0.4-0.4 0.4-0.2 0-0.4-0.1-0.4-0.4zm-8.3-13.2c0.8 0.4 4 2.3 5.6 4 1.3 1.4 2.1 3 2.6 4.5-0.1-3-0.8-6-3.1-9.1-0.9-1.1-1.7-2-2.5-2.9-1.1-1.3-2.2-2.5-3.2-4.1 0.1 2.7 0.3 6.6 0.6 7.6z"/>
	<path id="Layer" fill-rule="evenodd" class="s0" d="m174.1 92.6c-5.2-2-7.6-5.1-10-8q-0.6-0.9-1.3-1.7c-2.8-3.4-5.4-5.6-5.4-5.6-0.1-0.1-0.1-0.2 0-0.3 0-0.1 0.1-0.1 0.2-0.1 1.6 0.9 3 1.6 4.2 2.2 2.7 1.3 4.8 2.3 7 4.7 1.9 2.1 2.7 3.7 3.5 5.2 0.6 1.1 1.2 2.1 2.1 3.3q0.1 0.1 0 0.2-0.1 0.1-0.2 0.1 0 0-0.1 0zm-11-9.9q0.7 0.8 1.3 1.6c2.2 2.8 4.5 5.8 9.3 7.6-0.7-0.9-1.2-1.8-1.7-2.7-0.8-1.5-1.7-3.1-3.5-5.1-2.2-2.4-4.2-3.4-6.9-4.7q-1.2-0.6-2.8-1.4c1.1 1 2.6 2.7 4.3 4.7z"/>
	<path id="Layer" fill-rule="evenodd" class="s0" d="m180.8 84.8c-0.1 0-0.1-0.1 0-0.2 0.6-1.5 1.2-3.6 1.8-5.8 0.8-2.9 1.7-5.9 2.7-8.1 3.3-6.7 10.7-14.6 10.8-14.7 0 0 0.1 0 0.2 0 0.1 0.1 0.1 0.2 0.1 0.3-0.8 1.4-1.8 3.9-2.9 6.4-1.3 3.4-2.9 7.1-4.4 9.9-3 5-5 8-8 12.2q-0.1 0.1-0.2 0.1 0 0-0.1-0.1zm4.9-13.9c-1.1 2.2-1.9 5.1-2.7 8-0.5 1.6-0.9 3.1-1.3 4.4 2.5-3.6 4.4-6.5 7-10.9 1.6-2.7 3.1-6.5 4.5-9.8 0.7-1.9 1.5-3.7 2.1-5.2-2.1 2.5-7.1 8.4-9.6 13.5z"/>
	<path id="Layer" fill-rule="evenodd" class="s0" d="m181.1 78.2c0-0.2-0.3-4 0.9-8.9 1.3-5.6 4.1-9 6-11.2l0.4-0.5c1.8-2.1 2.3-3.5 2.3-3.5 0-0.2 0.2-0.3 0.4-0.3 0.2 0.1 0.3 0.2 0.4 0.4 0.5 3.8-0.3 6.4-0.4 6.6q0 0.1-0.1 0.2c0 0-3.4 2.3-6 6.2-2.6 3.8-3.1 10.9-3.1 11 0 0.2-0.2 0.3-0.4 0.4-0.2-0.1-0.4-0.2-0.4-0.4zm9.7-22.5c-0.3 0.6-0.9 1.4-1.7 2.4l-0.5 0.6c-1.9 2.2-4.5 5.4-5.8 10.8q-0.2 0.7-0.3 1.4c0.4-1.5 1-3 1.9-4.2 2.4-3.6 5.4-5.9 6-6.3 0.2-0.5 0.6-2.3 0.4-4.7z"/>
	<path id="Layer" fill-rule="evenodd" class="s0" d="m163.5 50.4c-0.1 0-9.2-0.4-15-2.5-5.8-2.1-12.8-7.5-12.9-7.5 0-0.1-0.1-0.2 0-0.3 0-0.1 0.1-0.1 0.2-0.1 0.1 0.1 10.5 3.4 14.9 5 2.1 0.7 4.2 1.6 6.3 2.4 2.3 1 4.5 1.9 6.6 2.6 0.1 0 0.2 0.1 0.1 0.2 0 0.1-0.1 0.2-0.2 0.2q0 0 0 0zm-14.8-2.9c4.3 1.6 10.7 2.2 13.5 2.4-1.7-0.6-3.5-1.4-5.4-2.1-2-0.8-4.2-1.7-6.3-2.5-3.5-1.2-10.8-3.6-13.6-4.5 2.1 1.5 7.3 5.1 11.8 6.7z"/>
	<path id="Layer" fill-rule="evenodd" class="s0" d="m157.5 69.1c-7.8-0.4-13.9-3-14-3-0.1 0-0.1-0.1-0.1-0.2 0-0.1 0.2-0.2 0.2-0.2 2.8 0.8 6.2 0.5 9.9 0.2 1.7-0.1 3.5-0.2 5.3-0.3q0.1 0 0.2 0c5.4 0 12.3 2.4 12.4 2.5 0.1 0 0.1 0.1 0.1 0.2q-0.1 0.1-0.2 0.2c-2.5-0.4-4-0.1-5.7 0.2-1.5 0.2-3.1 0.5-5.7 0.5q-1.1 0-2.4-0.1zm12.1-1.2c-2.4-0.7-6.9-1.9-10.6-1.9q-0.1 0-0.2 0c-1.8 0.1-3.6 0.2-5.3 0.3-2.7 0.2-5.4 0.4-7.7 0.2 2.4 0.8 6.7 2 11.7 2.2 4 0.2 6.1-0.1 8-0.4 1.2-0.2 2.2-0.4 3.5-0.4q0.3 0 0.6 0z"/>
	<path id="Layer" fill-rule="evenodd" class="s0" d="m170.8 68c-0.1-0.1-3.8-3.2-9.6-3.8-3.7-0.3-7.4 0.4-7.4 0.4q-0.1 0.1-0.2 0c-5.1-1.8-6.1-4.7-6.1-4.8-0.1-0.2 0-0.3 0.1-0.4 0.1-0.1 0.2-0.2 0.4-0.1 3 1.1 5.7 1.1 8.3 1.1 2.4 0 4.9 0 7.5 0.8 5.6 1.8 7.5 6.1 7.6 6.3 0.1 0.2 0 0.4-0.1 0.5q-0.1 0.1-0.3 0.1-0.1 0-0.2-0.1zm-14.5-6.8c-2.4 0-4.9 0-7.6-0.8 0.6 0.9 2 2.4 5 3.4 0.7-0.1 4.1-0.7 7.5-0.4 3.9 0.4 6.8 1.8 8.4 2.8-1-1.4-2.9-3.2-6-4.2-2.4-0.8-4.7-0.8-7-0.8q-0.1 0-0.3 0z"/>
	<path id="Layer" fill-rule="evenodd" class="s0" d="m129.9 152c-0.1 0-0.1-0.1-0.1-0.2 0.7-3.9 2-6.4 3.1-8.4q0.3-0.5 0.5-0.9c1.1-2.2 2-5.8 2-5.8q0.1-0.2 0.2-0.2c0.1 0 0.2 0.1 0.2 0.2 0.2 3.6-1 7.7-2.3 10.1-0.7 1.3-1.3 2-1.8 2.6-0.5 0.7-1 1.4-1.5 2.5q-0.1 0.1-0.2 0.1 0 0-0.1 0zm3.8-9.3q-0.2 0.4-0.4 0.9c-1 1.8-2.1 3.9-2.8 6.9 0.3-0.5 0.6-0.9 0.9-1.3 0.5-0.7 1.1-1.4 1.7-2.6 1.1-2 2.1-5.2 2.3-8.3-0.4 1.3-1 3.1-1.7 4.4z"/>
	<path id="Layer" fill-rule="evenodd" class="s0" d="m128.6 154.3c-0.2-0.1-0.3-0.2-0.3-0.3-0.1-0.4-0.2-0.7-0.4-1.1-0.3-0.9-0.8-1.9-0.8-3.8-0.1-1.7 0.3-3.4 0.6-4.9q0.1-0.9 0.3-1.7c0.5-3.6 0.2-4.8 0.2-4.8 0-0.2 0.1-0.4 0.3-0.5 0.2 0 0.4 0 0.5 0.2 2.4 4.1 2.1 7.5 2.1 7.7q0 0 0 0c-0.4 1.5-0.5 3-0.6 4.3-0.2 0.9-0.3 1.7-0.4 2.3-0.4 1.3-0.7 2-0.8 2l-0.3 0.4q-0.1 0.2-0.3 0.2-0.1 0-0.1 0zm0.5-14.9c0 0.7-0.1 1.8-0.3 3.2q-0.2 0.8-0.3 1.7c-0.3 1.5-0.7 3.2-0.6 4.8 0 1.8 0.4 2.7 0.8 3.5q0 0.2 0.1 0.4c0.1-0.3 0.3-0.8 0.5-1.5 0.1-0.5 0.2-1.3 0.4-2.2 0.2-1.3 0.4-2.8 0.7-4.3 0-0.3 0-2.7-1.3-5.6z"/>
	<path id="Layer" fill-rule="evenodd" class="s0" d="m150.2 31.4q-0.1-0.1-0.2-0.2c-0.7-0.8-3.5-4.2-5.2-5.9-2-2-5.7-5.2-5.8-5.2q0 0 0-0.1c-1.7-2.9-2.7-8.6-2.8-8.9 0-0.1 0.1-0.3 0.3-0.4 0.1-0.1 0.3 0 0.4 0.1 0.8 0.9 2.2 1.8 3.6 2.7 2.2 1.5 4.8 3.2 6.1 5.7 1 2 1.7 4.4 2.3 6.5 0.5 2.1 1 4.1 1.7 5q0.2 0.2 0.2 0.2c0.1 0.1 0.1 0.4-0.1 0.5q-0.1 0.1-0.2 0.1-0.2 0-0.3-0.1zm-10.6-11.9c0.5 0.5 3.9 3.3 5.7 5.2 1 1 2.4 2.6 3.5 3.9q-0.3-1.2-0.7-2.6c-0.6-2.2-1.2-4.5-2.2-6.4-1.2-2.4-3.7-4-5.9-5.4-1-0.7-1.9-1.3-2.7-2 0.4 1.9 1.2 5.3 2.3 7.3z"/>
	<path id="Layer" fill-rule="evenodd" class="s0" d="m150.1 31.5c-0.6-0.5-2.5-1-4.6-1.5-3.4-0.9-7.6-1.9-10.8-4-2.6-1.6-5.2-4.1-7.6-6.4-2.4-2.2-4.6-4.3-6-4.8-0.2 0-0.3-0.2-0.3-0.4 0.1-0.2 0.3-0.4 0.5-0.4 0.5 0.1 13 1.1 19.2 6.2 6.9 5.9 10.2 10.7 10.2 10.8 0.1 0.1 0.1 0.3-0.1 0.5q-0.1 0.1-0.2 0.1-0.2 0-0.3-0.1zm-22.5-12.4c2.4 2.2 5 4.7 7.6 6.3 3 1.9 7.2 3 10.5 3.8 1.3 0.3 2.5 0.6 3.4 1-1.4-1.8-4.4-5.4-9.2-9.4-4.5-3.8-13-5.3-16.8-5.8 1.3 1 2.8 2.5 4.5 4.1z"/>
	<path id="Layer" fill-rule="evenodd" class="s0" d="m149.8 30.8c-0.1-0.1-8-3.2-13.7-6.9-2.1-1.4-3.8-2.5-5.5-3.6-2.9-2-5.4-3.7-8.6-5.5-0.1 0-0.1-0.2-0.1-0.2 0.1-0.1 0.2-0.2 0.3-0.2 0.1 0.1 9.9 3.3 13.7 5.6 1.8 1.1 4.2 3 6.8 5 2.5 2.1 5.2 4.2 7.2 5.4 0.1 0.1 0.2 0.2 0.1 0.3q0 0.1-0.2 0.1 0 0 0 0zm-19-10.9c1.7 1.1 3.4 2.3 5.5 3.6 3.9 2.6 8.9 4.9 11.6 6.1-1.7-1.3-3.6-2.8-5.5-4.3-2.5-2-4.9-3.9-6.7-5-2.7-1.6-8.7-3.8-11.7-4.8 2.4 1.4 4.5 2.8 6.8 4.4z"/>
	<path id="Layer" class="s0" d="m157.6 37.3q0 0 0.1 0c0.1-0.1 0.1-0.2 0.1-0.3-2.1-3.2-3.8-6.7-5-10.3-0.1-0.1-0.2-0.1-0.3-0.1-0.1 0-0.2 0.2-0.1 0.3 1.2 3.6 2.9 7.1 5 10.3q0.1 0.1 0.2 0.1z"/>
	<path id="Layer" class="s0" d="m161.8 42.4q0.1 0 0.2-0.1c0-0.1 0-0.2-0.1-0.3-3.7-2.6-7.7-4.5-12.1-5.8-0.1 0-0.2 0-0.2 0.1 0 0.1 0 0.2 0.1 0.3 4.3 1.2 8.3 3.2 12 5.7q0 0.1 0.1 0.1z"/>
	<path id="Layer" class="s0" d="m164.4 45.6q0 0 0 0c0.1 0 0.2-0.1 0.1-0.2-1.2-3.2-1.9-6.6-2.1-10q0-0.2-0.2-0.2c-0.1 0-0.2 0.1-0.2 0.2 0.2 3.5 0.9 6.9 2.2 10.1q0 0.1 0.2 0.1z"/>
	<path id="Layer" class="s0" d="m174.6 63.7c0.1 0 0.2-0.1 0.2-0.2 0-3.6 0.5-7.2 1.5-10.7 0-0.1-0.1-0.2-0.2-0.2-0.1-0.1-0.2 0-0.2 0.1-0.9 3.5-1.5 7.2-1.5 10.8 0 0.1 0.1 0.2 0.2 0.2q0 0 0 0z"/>
	<path id="Layer" class="s0" d="m173.9 62.7q0.1 0 0.1-0.1c0.1-0.1 0.1-0.2 0-0.3-2.6-2.4-5.5-4.4-8.6-6-0.1 0-0.3 0-0.3 0.1-0.1 0.1 0 0.2 0.1 0.3 3.1 1.5 6 3.5 8.6 5.9q0 0.1 0.1 0.1z"/>
	<path id="Layer" class="s0" d="m178.1 78.7c0.2 0 0.2-0.1 0.2-0.2 0-3.6 0.5-7.2 1.6-10.6 0-0.1 0-0.2-0.1-0.3-0.1 0-0.2 0-0.3 0.2-1.1 3.4-1.6 7-1.6 10.7 0 0.1 0.1 0.2 0.2 0.2z"/>
	<path id="Layer" class="s0" d="m178.3 92.4q0 0 0 0c0.1 0 0.2-0.1 0.2-0.3-0.3-3.6-1.5-7.2-3.4-10.3 0-0.1-0.1-0.1-0.2-0.1-0.1 0.1-0.2 0.2-0.1 0.3 1.8 3.1 3 6.6 3.3 10.2 0 0.1 0.1 0.2 0.2 0.2z"/>
	<path id="Layer" class="s0" d="m177.5 100.9q0.2 0 0.2-0.1c1.3-2.9 3.3-5.5 5.6-7.6 0.1 0 0.1-0.2 0.1-0.3-0.1 0-0.2 0-0.3 0-2.5 2.1-4.4 4.8-5.8 7.7 0 0.1 0.1 0.3 0.2 0.3q0 0 0 0z"/>
	<path id="Layer" class="s0" d="m176.4 106.4q0.1 0 0.2-0.1 1-1.7 2.5-2.9c0-0.1 0.1-0.2 0-0.3-0.1-0.1-0.2-0.1-0.3 0q-1.5 1.2-2.6 3c0 0.1 0 0.2 0.1 0.3q0.1 0 0.1 0z"/>
	<path id="Layer" class="s0" d="m172.1 117.9c0.1 0 0.2-0.1 0.2-0.2 0.7-5 0.5-10.1-0.6-15 0-0.1-0.1-0.2-0.2-0.1-0.2 0-0.2 0.1-0.2 0.2 1.1 4.9 1.3 9.9 0.6 14.8 0 0.1 0.1 0.2 0.2 0.3q0 0 0 0z"/>
	<path id="Layer" class="s0" d="m167.7 126.2q0.1 0 0.2-0.1c1.1-1.2 2.5-2.1 4.1-2.5 0.1 0 0.2-0.1 0.2-0.2 0-0.1-0.1-0.2-0.3-0.2-1.6 0.4-3.2 1.3-4.3 2.6-0.1 0.1-0.1 0.2 0 0.3q0.1 0.1 0.1 0.1z"/>
	<path id="Layer" class="s0" d="m164.4 130.5q0.1 0 0.2-0.1c1-4.7 1.2-8.1 0.6-11.5-0.1-0.1-0.2-0.2-0.3-0.1-0.1 0-0.2 0.1-0.1 0.2 0.6 3.3 0.4 6.7-0.6 11.3 0 0.1 0 0.2 0.1 0.2q0.1 0 0.1 0z"/>
	<path id="Layer" class="s0" d="m162.1 133.3q0.1 0 0.1 0c2.5-1.2 5.3-1.9 8.1-2 0.1 0 0.2-0.1 0.2-0.2 0-0.1-0.1-0.2-0.2-0.2q0 0 0 0c-2.9 0.1-5.7 0.8-8.2 2-0.1 0.1-0.2 0.2-0.1 0.3q0 0.1 0.1 0.1z"/>
	<path id="Layer" class="s0" d="m149.2 144.1q0.1 0 0.2-0.1c2-2.5 3.4-5.5 4-8.7 0-0.1-0.1-0.2-0.2-0.2q-0.2 0-0.2 0.1c-0.6 3.1-1.9 6.1-3.9 8.6-0.1 0-0.1 0.2 0 0.2q0.1 0.1 0.1 0.1z"/>
	<path id="Layer" class="s0" d="m155.8 145.8c0.1 0 0.2-0.1 0.2-0.2 0-0.1-0.1-0.2-0.2-0.2-3.2-0.5-6.4-0.6-9.6-0.2-0.1 0-0.2 0.1-0.2 0.2q0 0.2 0.2 0.2c3.2-0.4 6.4-0.3 9.5 0.2q0.1 0 0.1 0z"/>
	<path id="Layer" class="s0" d="m134 152q0.1 0 0.2-0.1c2.1-1.8 3.9-4 5.1-6.5 0.1-0.1 0-0.3-0.1-0.3-0.1-0.1-0.2 0-0.2 0.1-1.2 2.4-3 4.7-5.1 6.4-0.1 0.1-0.1 0.2 0 0.3q0.1 0.1 0.1 0.1z"/>
	<path id="Layer" class="s0" d="m136.3 154.8q0.1 0 0.1 0c0.1-0.1 0.1-0.2 0-0.3 0 0-0.5-0.2-0.5-0.2-2.1-0.8-4.3-1-6.5-0.8-0.1 0-0.2 0.1-0.2 0.2 0 0.1 0.1 0.2 0.2 0.2 2.3-0.2 4.6 0.1 6.8 0.9q0 0 0.1 0z"/>
	<path id="Layer" class="s1" d="m152.3 26.8c-0.8 0-1.4-0.6-1.4-1.4 0-0.7 0.6-1.3 1.4-1.3 0.7 0 1.4 0.6 1.4 1.3 0 0.8-0.7 1.4-1.4 1.4z"/>
	<path id="Layer" class="s1" d="m176.6 52.9c-0.8 0-1.4-0.7-1.4-1.4 0-0.8 0.6-1.4 1.4-1.4 0.7 0 1.3 0.6 1.3 1.4 0 0.7-0.6 1.4-1.3 1.4z"/>
	<path id="Layer" class="s1" d="m171.7 132.4c-0.7 0-1.4-0.6-1.4-1.3 0-0.8 0.7-1.4 1.4-1.4 0.8 0 1.4 0.6 1.4 1.4 0 0.7-0.6 1.3-1.4 1.3z"/>
	<path id="Layer" class="s1" d="m173.3 81c0 0.6 0.5 1 1 1 0.6 0 1.1-0.4 1.1-1 0-0.6-0.5-1.1-1.1-1.1-0.5 0-1 0.5-1 1.1z"/>
	<path id="Layer" class="s1" d="m179.8 103.9c-0.6 0-1.1-0.5-1.1-1.1 0-0.6 0.5-1.1 1.1-1.1 0.6 0 1.1 0.5 1.1 1.1 0 0.6-0.5 1.1-1.1 1.1z"/>
	<path id="Layer" class="s1" d="m163.7 117.9c0 0.6 0.5 1.1 1.1 1.1 0.5 0 1-0.5 1-1.1 0-0.6-0.5-1-1-1-0.6 0-1.1 0.4-1.1 1z"/>
	<path id="Layer" class="s1" d="m156.8 146.8c-0.6 0-1.1-0.5-1.1-1 0-0.6 0.5-1.1 1.1-1.1 0.6 0 1 0.5 1 1.1 0 0.5-0.4 1-1 1z"/>
	<path id="Layer" class="s1" d="m139.6 145.4c-0.6 0-1-0.5-1-1.1 0-0.6 0.4-1.1 1-1.1 0.6 0 1.1 0.5 1.1 1.1 0 0.6-0.5 1.1-1.1 1.1z"/>
	<path id="Layer" class="s1" d="m148.3 37.5c-0.8 0-1.4-0.6-1.4-1.4 0-0.7 0.6-1.3 1.4-1.3 0.7 0 1.3 0.6 1.3 1.3 0 0.8-0.6 1.4-1.3 1.4z"/>
	<path id="Layer" class="s1" d="m162.1 35.5c-0.8 0-1.4-0.6-1.4-1.3 0-0.8 0.6-1.4 1.4-1.4 0.8 0 1.4 0.6 1.4 1.4 0 0.7-0.6 1.3-1.4 1.3z"/>
	<path id="Layer" class="s1" d="m163.9 57.4c-0.8 0-1.5-0.7-1.5-1.5 0-0.9 0.7-1.5 1.5-1.5 0.8 0 1.5 0.6 1.5 1.5 0 0.8-0.7 1.5-1.5 1.5z"/>
	<path id="Layer" class="s1" d="m184.3 93.6c-0.8 0-1.5-0.7-1.5-1.5 0-0.8 0.7-1.5 1.5-1.5 0.9 0 1.5 0.7 1.5 1.5 0 0.8-0.6 1.5-1.5 1.5z"/>
	<path id="Layer" class="s1" d="m180.2 67.9c-0.7 0-1.2-0.5-1.2-1.1 0-0.6 0.5-1.2 1.2-1.2 0.6 0 1.1 0.6 1.1 1.2 0 0.6-0.5 1.1-1.1 1.1z"/>
	<path id="Layer" class="s1" d="m170.1 101.6c0 0.7 0.5 1.2 1.2 1.2 0.6 0 1.1-0.5 1.1-1.2 0-0.6-0.5-1.1-1.1-1.1-0.7 0-1.2 0.5-1.2 1.1z"/>
	<path id="Layer" class="s1" d="m173.1 124.3c-0.7 0-1.2-0.5-1.2-1.1 0-0.7 0.5-1.2 1.2-1.2 0.6 0 1.1 0.5 1.1 1.2 0 0.6-0.5 1.1-1.1 1.1z"/>
	<path id="Layer" class="s1" d="m137.4 156.1c-0.7 0-1.2-0.5-1.2-1.1 0-0.7 0.5-1.2 1.2-1.2 0.6 0 1.1 0.5 1.1 1.2 0 0.6-0.5 1.1-1.1 1.1z"/>
	<path id="Layer" class="s1" d="m152.2 134.1c0 0.7 0.5 1.2 1.1 1.2 0.7 0 1.2-0.5 1.2-1.2 0-0.6-0.5-1.1-1.2-1.1-0.6 0-1.1 0.5-1.1 1.1z"/>
	<path id="Layer" fill-rule="evenodd" class="s0" d="m171.6 57.6c-2.2-3.3-6.6-6.8-10.1-6.8q-0.1 0-0.2 0c-0.8 0-1.8 0.1-2.7 0.3-3.6 0.4-8 0.8-12.3-1.1-3-1.3-4.7-3.2-6.5-5.2-1.5-1.7-3.1-3.4-5.5-4.9-0.2-0.1-0.2-0.3-0.2-0.5 0.1-0.2 0.3-0.3 0.5-0.2 0.1 0 3.6 1.2 9 1.8l0.6 0.1c5.1 0.5 8.5 0.9 16.1 6.1 7.6 5.2 10.1 6.9 10.1 6.9q0.1 0 0.2 0.1l1.7 3c0.1 0.2 0.1 0.4-0.1 0.6q-0.1 0-0.2 0-0.2 0-0.4-0.2zm-8.2-7.3q-1.6-1.1-3.6-2.5c-7.4-5.1-10.5-5.4-15.7-5.9l-0.6-0.1c-2.9-0.3-5.2-0.8-6.8-1.2 1.5 1.2 2.6 2.4 3.7 3.7 1.7 1.9 3.4 3.7 6.2 5 4.1 1.8 8.4 1.3 11.9 1 1-0.1 1.9-0.3 2.8-0.3q0.1 0 0.2 0 0.9 0 1.9 0.3z"/>
	<path id="Layer" fill-rule="evenodd" class="s0" d="m172 58.1l-0.7-1.1q-0.1-0.1-0.1-0.2c0-0.1 0.4-1.9 0.3-4.2-0.1-2.3-0.5-4.2-0.5-4.2q0-0.1 0-0.3c0 0 2.3-4.3 3-8.1 0.6-3.8 0.6-6.6 0.6-6.6q0-0.1 0.1-0.2c0.2-0.3 4.1-8.1 10.2-10.9 0.2 0 0.4 0 0.5 0.1 0.1 0.2 0.1 0.4 0 0.5-2 2.9-2.8 4.5-3.5 7.5-0.1 0.8-0.2 1.9-0.3 3.1-0.4 3.4-0.8 8.1-3.2 11.4l-0.5 0.7c-3 4-5.7 7.8-5.2 12.3 0 0.2-0.1 0.3-0.3 0.4q0 0-0.1 0-0.2 0-0.3-0.2zm3.5-24.6c-0.1 0.5-0.1 3.1-0.7 6.6-0.6 3.6-2.6 7.5-3 8.3 0.1 0.5 0.4 2.2 0.5 4.2q0 0.5 0 1c0.9-3 2.9-5.7 4.9-8.5l0.5-0.7c2.3-3.1 2.7-7.6 3.1-11 0.1-1.2 0.2-2.3 0.4-3.2 0.5-2.6 1.2-4.2 2.6-6.4-4.7 3-7.9 8.9-8.3 9.7z"/>
	<path id="Layer" fill-rule="evenodd" class="s0" d="m171.4 48.7c-0.2 0-0.3-0.1-0.4-0.2-0.3-0.9-0.8-1.6-1.4-2.5-1.2-1.9-2.7-4.3-3.4-8.5-0.6-4.2 0.3-10 1-14.3l0.2-1.5c0.7-4.4 1.7-8.2 1.8-8.3 0-0.2 0.2-0.3 0.3-0.3q0 0 0.1 0c0.1 0 0.3 0.2 0.3 0.3 0 0.1 1.3 5.5 2.1 8q0.5 1.4 1.1 3.1c1 2.9 2.2 6.1 2.3 9 0 3.6-0.3 8.5-3.7 15q-0.1 0.2-0.3 0.2 0 0 0 0zm-3.2-26.9l-0.2 1.6c-0.7 4.2-1.6 9.9-1 14 0.6 4 2.1 6.3 3.3 8.1 0.4 0.7 0.8 1.3 1.1 1.9 2.9-6 3.2-10.5 3.2-13.8-0.1-2.8-1.3-6-2.3-8.8q-0.6-1.7-1.1-3.1c-0.5-1.7-1.2-4.7-1.7-6.5-0.3 1.5-0.9 4-1.3 6.6z"/>
	<path id="Layer" fill-rule="evenodd" class="s0" d="m171.5 47.8c-3-4.4-3-12.8-2.9-18.3q0-1 0-1.9c0-3.8 0.8-12.9 0.8-13 0-0.1 0.1-0.2 0.2-0.2q0 0 0 0c0.1 0 0.2 0.1 0.2 0.2 0 1.5 0.5 4.4 1.2 7.6 0.7 3.7 1.4 7.8 1.7 11.3 0.3 5.3-0.1 8.5-0.6 11.6-0.1 0.9-0.2 1.7-0.3 2.6q0 0.1-0.1 0.1 0 0.1-0.1 0.1-0.1-0.1-0.1-0.1zm-2.5-20.2q0 0.9 0 1.9c-0.1 5.3-0.1 13.2 2.5 17.6q0.1-1 0.3-2c0.4-3.1 0.8-6.4 0.5-11.5-0.3-3.5-1-7.6-1.7-11.3-0.4-2-0.8-3.8-1-5.3-0.2 3-0.6 8.1-0.6 10.6z"/>
	<path id="Layer" fill-rule="evenodd" class="s0" d="m176.9 74.1c-1.2-2.5-4.3-5.3-6.6-5.2-0.8 0-2 0.5-3.3 1-2.6 1-6.2 2.4-10.6 2-4.2-0.3-6.9-2-9.3-3.5-1.5-0.9-2.9-1.8-4.5-2.3-0.1 0-0.3-0.2-0.2-0.4 0-0.2 0.2-0.3 0.4-0.3q0 0 0 0c0 0 3.2 0.1 6.9-0.6 0.9-0.2 1.7-0.4 2.5-0.6 2.5-0.6 4.6-1.1 9.3-0.8 4.6 0.4 7 2.1 8.5 3.2 0.5 0.3 0.9 0.6 1.2 0.7 1.5 0.7 5 3 6.1 4.7q0 0.1 0.1 0.2l0.3 1.7c0 0.2-0.1 0.3-0.3 0.4q0 0-0.1 0c-0.1 0-0.3 0-0.4-0.2zm-5.7-5.9q-0.2-0.1-0.3-0.2c-0.4-0.1-0.8-0.4-1.3-0.8-1.5-1-3.8-2.6-8.2-3-4.5-0.3-6.6 0.2-9 0.8-0.8 0.2-1.6 0.4-2.6 0.6-1.9 0.4-3.7 0.5-5 0.6 0.9 0.4 1.8 1 2.7 1.5 2.4 1.5 4.9 3.1 9 3.4 4.2 0.3 7.7-1 10.2-1.9 1.4-0.6 2.6-1.1 3.6-1.1q0 0 0.1 0 0.4 0 0.8 0.1z"/>
	<path id="Layer" fill-rule="evenodd" class="s0" d="m178.7 89.5c-0.2-0.1-0.3-0.3-0.2-0.5q0.1-0.3 0.3-0.6c0.6-1.5 2.1-5.5 2.3-8.8v-0.3c0.2-3.1 0.5-8.3 3.5-12.8 1.4-2.3 3.9-4.4 6.3-6.4 2.5-2.2 4.8-4.2 5.8-6.2 0.1-0.2 0.3-0.3 0.5-0.2 0.2 0.1 0.3 0.3 0.3 0.5-0.6 1.7-1 3.9-1.4 6.2-1 4.7-2 10-4.3 13.7-1.4 2.4-3.3 4.1-5.3 5.9-2.5 2.3-5.2 4.6-7 8.6q-0.2 0.6-0.2 0.7c-0.1 0.1-0.3 0.2-0.4 0.2q-0.1 0-0.2 0zm12.7-28.8c-2.3 2-4.7 4-6.2 6.2-2.8 4.4-3.1 9.5-3.3 12.5v0.2c-0.1 1.7-0.5 3.4-1 5 1.6-2.1 3.4-3.7 5.1-5.2 1.9-1.8 3.8-3.4 5.1-5.7 2.2-3.6 3.3-8.8 4.2-13.5 0.3-1.4 0.5-2.7 0.8-4-1.2 1.5-2.9 2.9-4.7 4.5z"/>
	<path id="Layer" fill-rule="evenodd" class="s0" d="m179.9 87c-0.2-0.1-0.2-0.3-0.1-0.5 0.1-0.1 1.6-2.9 4.7-5.8l1-0.8c2.5-2.3 3.9-3.7 5-5.2 1.5-2.2 2.5-5 2.5-5.1q0.1-0.1 0.1-0.1c0.1-0.1 2.2-2.2 5.1-3.9 0.2-0.1 0.4-0.1 0.5 0.1 0.1 0.1 0.2 0.3 0 0.5 0 0-1.5 2.3-3 6.3-1.8 4.8-4.2 8.1-7.1 9.5-4.3 2-7.1 3.7-8.1 5q-0.2 0.1-0.4 0.1-0.1 0-0.2-0.1zm13.9-17c-0.2 0.5-1.2 3.1-2.6 5.1-1.1 1.7-2.7 3.1-5.2 5.3l-0.9 0.9c-1.3 1.2-2.3 2.3-3 3.3 1.8-1.2 4.1-2.4 6.1-3.3 3.4-1.7 5.6-5.9 6.8-9.1 0.8-2.2 1.6-4 2.2-5.1-1.8 1.3-3.2 2.6-3.4 2.9z"/>
	<path id="Layer" fill-rule="evenodd" class="s0" d="m176.7 101.9c-0.1 0-0.5-7.3-3.4-9.1-1.3-0.9-2.5-1.3-4-1.8-1.1-0.3-2.3-0.7-3.8-1.3-3.1-1.4-4.2-3.9-5.4-6.6q-0.3-0.7-0.7-1.5c-1.4-3-3.6-5.1-3.6-5.2-0.2-0.1-0.2-0.3-0.1-0.5 0.1-0.1 0.3-0.2 0.5-0.1 1.4 0.8 3.1 1.2 4.9 1.6 2.6 0.7 5.3 1.4 7.6 3.1 2.7 2 3.8 5.4 4.6 8 0.4 1.2 0.7 2.2 1.1 3l0.2 0.4c1.4 2.4 3.1 5.5 2.9 10.1-0.1 0.2-0.2 0.3-0.4 0.3-0.3 0-0.4-0.1-0.4-0.4zm-16.6-20.7q0.4 0.8 0.8 1.6c1.1 2.5 2.1 4.9 4.9 6.1 1.5 0.6 2.7 1 3.7 1.4 1.5 0.5 2.8 0.9 4.3 1.8q0 0 0.1 0l-0.2-0.2c-0.4-0.8-0.8-1.9-1.2-3.1-0.8-2.6-1.7-5.8-4.3-7.7-2.2-1.6-4.8-2.3-7.3-2.9-1.1-0.3-2.3-0.5-3.3-0.9 0.8 0.9 1.8 2.3 2.5 3.9z"/>
	<path id="Layer" fill-rule="evenodd" class="s0" d="m172.2 118.3c-0.2-0.2-0.2-0.4 0-0.6 0 0 0.9-1.1 3.3-5 0.5-0.9 1-1.8 1.4-2.6 1.5-2.9 2.9-5.4 6.9-7.8 2.4-1.4 4.8-2.4 7-3.4 2.6-1.1 4.9-2.1 7.3-3.6 0.2-0.1 0.4-0.1 0.5 0.1 0.2 0.1 0.2 0.3 0 0.5-1.5 1.9-2.7 4.4-4 7-2.4 4.8-4.9 9.8-9.3 11.5-3.4 1.4-6 1.9-8 2.4-2 0.4-3.5 0.7-4.6 1.5q-0.1 0.1-0.2 0.1-0.2 0-0.3-0.1zm18.9-18.6c-2.2 0.9-4.5 1.9-6.9 3.3-3.8 2.2-5.1 4.7-6.6 7.4-0.4 0.9-0.9 1.8-1.5 2.7-1 1.8-1.8 2.9-2.3 3.7 0.9-0.3 2-0.5 3.3-0.8 2-0.4 4.6-1 7.9-2.3 4.2-1.7 6.5-6.5 8.9-11.1 0.9-2 1.9-4 3-5.6-1.9 1-3.8 1.8-5.8 2.7z"/>
	<path id="Layer" fill-rule="evenodd" class="s0" d="m168.7 124.4c-0.2-0.1-0.3-0.3-0.3-0.5 0.4-1.9 0.7-3.7 0.9-5.6 0-0.9-0.2-1.9-0.5-2.7-0.5-1.4-1.9-2-5-3.4-1.6-0.6-3.5-1.4-5.9-2.6-7.5-3.7-7.4-13.5-7.4-13.6 0-0.2 0.2-0.4 0.3-0.4 0.2-0.1 0.4 0 0.5 0.1 2 3.3 4.8 4.5 7.6 5.7 2.5 1.1 5 2.3 7.3 4.7 3.5 3.6 4.2 7.8 3.9 12 0.1 3-0.9 5.9-0.9 6-0.1 0.2-0.2 0.3-0.4 0.3q-0.1 0-0.1 0zm-10.5-15.5c2.4 1.1 4.3 2 5.9 2.6 2.8 1.2 4.4 1.9 5.2 3.2-0.3-2.9-1.3-5.6-3.6-8-2.3-2.4-4.7-3.5-7.1-4.5-2.6-1.2-5.1-2.3-7.2-4.9 0.2 2.7 1.4 8.9 6.8 11.6z"/>
	<path id="Layer" fill-rule="evenodd" class="s0" d="m157.6 136.9c-0.1-0.1-0.1-0.3 0-0.4 0 0 1.6-2.3 1.2-4.5-0.1-0.8-0.7-1.6-1.4-2.4-1-1.3-2.2-2.8-2.5-5.3-0.2-1.4 0-3.4 0.2-5.5 0.2-2.2 0.4-4.6 0.1-6.1 0-0.2 0-0.3 0.2-0.4 0.1-0.1 0.3-0.1 0.5 0 1.1 1.1 1.4 2.5 1.6 3.8 0.2 0.8 0.3 1.6 0.6 2.3q0.3 0.6 0.8 1.3c1.2 2 3 4.9 2.5 10.1-0.7 6.5-3.3 7.3-3.4 7.3q0 0-0.1 0-0.2 0-0.3-0.2zm-1.7-18c-0.2 2-0.4 3.9-0.2 5.3 0.3 2.2 1.4 3.6 2.3 4.9 0.7 0.9 1.4 1.7 1.6 2.8 0.2 0.8 0.1 1.6-0.1 2.4 0.4-1 0.8-2.5 1.1-4.6 0.5-4.9-1.2-7.6-2.4-9.6q-0.5-0.7-0.8-1.4c-0.4-0.8-0.5-1.6-0.7-2.5-0.1-0.7-0.2-1.5-0.5-2.1 0 1.4-0.2 3.1-0.3 4.8z"/>
	<path id="Layer" fill-rule="evenodd" class="s0" d="m168.3 145.1c-3.1-0.3-4.6-1.2-6-2.1-0.8-0.5-1.6-1-2.6-1.3-3-1-5.8-0.4-5.8-0.4-0.2 0.1-0.4 0-0.5-0.2-0.1-0.2 0-0.3 0.1-0.5 0.2-0.1 4.2-4 10.1-3.6 3.6 0.2 6 1.8 8 3.1 1.4 0.9 2.7 1.8 4.2 2.1 3.8 1 5.3 1.8 5.4 1.8 0.2 0.1 0.2 0.3 0.2 0.5-0.1 0.2-0.3 0.3-0.5 0.2-2.5-0.6-4.6-0.3-7 0-1.3 0.2-2.8 0.4-4.3 0.4q-0.7 0-1.3 0zm7.3-2.1c-1.6-0.4-3-1.3-4.4-2.2-2.1-1.4-4.3-2.8-7.6-3-3.9-0.2-6.9 1.4-8.4 2.5 1.1-0.1 2.9 0 4.7 0.6 1.2 0.4 2 0.9 2.8 1.4 1.4 0.9 2.7 1.7 5.6 2 2 0.1 3.8-0.1 5.5-0.4 1.3-0.2 2.6-0.3 3.9-0.3q-0.9-0.3-2.1-0.6z"/>
	<path id="Layer" fill-rule="evenodd" class="s0" d="m144.5 147.1c-0.2-0.1-0.3-0.3-0.2-0.5q0-0.1 0-0.1c0.1-0.4 0.4-1.8 0.3-2.6-0.3-1.4-0.3-1.6-0.7-2.9l-0.2-1.1c-0.6-2.2-0.3-5.9 0.7-8.8 1-2.7 1-5.6 1-5.7 0-0.2 0.2-0.3 0.4-0.3 0.2 0 0.4 0.1 0.4 0.3 0.1 1.6 0.5 3 1 4.4 0.6 1.9 1.3 3.7 1.3 6.2 0 3.7-1.3 6.2-2.4 8.3-0.4 0.9-0.8 1.7-1 2.4q-0.1 0.1-0.1 0.1c0 0.2-0.2 0.3-0.4 0.3q0 0-0.1 0zm0.7-15.8c-1 2.9-1.3 6.3-0.7 8.5l0.2 1c0.3 1.3 0.4 1.5 0.6 3q0.1 0.1 0.1 0.2 0-0.1 0-0.1c1-2 2.3-4.4 2.3-7.9 0-2.3-0.6-4.1-1.2-5.9q-0.3-0.9-0.6-1.7c-0.1 0.9-0.3 1.9-0.7 2.9z"/>
	<path id="Layer" fill-rule="evenodd" class="s0" d="m157.1 156.1c-0.9-0.2-2.1-0.2-3.4-0.3-2.1 0-4.4 0-6.6-1.1-2.2-1-3-1.9-3.7-2.7-0.5-0.5-0.8-0.9-1.5-1.2-1.5-0.9-2.8-0.9-2.7-0.9q-0.1 0-0.1 0c-0.1 0-0.3-0.1-0.4-0.2 0-0.2 0.1-0.4 0.2-0.5 0.1 0 1.6-0.8 4.7-1.1 3.4-0.2 6.1 0.5 7.5 1.2 1.6 0.9 2.4 1.9 3.6 3.3l0.1 0.2c1.5 1.7 2.7 2.6 2.7 2.6 0.1 0.1 0.2 0.4 0.1 0.5-0.1 0.2-0.2 0.2-0.4 0.2q0 0-0.1 0zm-13.4-7.2c-1.3 0.1-2.2 0.3-2.9 0.5q0.7 0.2 1.5 0.7c0.8 0.4 1.2 0.9 1.7 1.4 0.6 0.7 1.4 1.6 3.4 2.5 2.1 1 4.3 1 6.3 1q1.2 0 2.2 0.1c-0.5-0.4-1-1-1.7-1.8l-0.1-0.1c-1.1-1.4-2-2.4-3.4-3.2-1.1-0.5-3.1-1.1-5.7-1.1q-0.6 0-1.3 0z"/>
	<path id="Layer" fill-rule="evenodd" class="s0" d="m128.5 154.2c-0.2-0.1-0.3-0.3-0.2-0.5q0.2-0.2 0.3-0.5c0.2-0.3 0.5-0.9 0.7-1.7 0.2-0.9 0.4-2.5 0.5-3.6l0.1-0.5c0.4-3.5 1.5-4.9 2.6-6.3q0.3-0.5 0.7-1c1.4-2 2.2-4.7 2.2-4.7q0.1-0.3 0.4-0.3c0.2 0 0.3 0.1 0.4 0.3 0.3 4.1 0.5 8.3-1.2 11.8-0.9 1.9-2.3 3.2-3.6 4.3-0.8 0.7-1.6 1.4-2.1 2.2-0.2 0.2-0.3 0.4-0.3 0.4q-0.1 0.2-0.3 0.2-0.1 0-0.2-0.1zm5.4-13.7q-0.4 0.6-0.8 1.1c-1.1 1.4-2 2.6-2.4 5.9l-0.1 0.5c-0.1 1.1-0.3 2.6-0.5 3.6q0.4-0.4 0.8-0.7c1.3-1.1 2.6-2.3 3.4-4.1 1.4-2.7 1.4-6.1 1.2-9.4-0.4 0.9-0.9 2.1-1.6 3.1z"/>
	<path id="Layer" fill-rule="evenodd" class="s0" d="m114 158.3q-0.2 0-0.2-0.2c-0.1-0.1-0.6-2.6 0.6-5.8 0.6-1.4 1.6-2.6 2.6-3.8 1.1-1.4 2.3-2.8 2.7-4.6 0.1-0.2 0.3-0.3 0.5-0.3 0.2 0.1 0.3 0.3 0.3 0.5-0.2 1.2-0.2 2.3-0.2 3.3-0.1 1.9-0.1 3.6-0.9 6-1.2 3.7-5 4.9-5.1 5q-0.1 0-0.1 0-0.1 0-0.2-0.1zm3.6-9.3c-1 1.2-1.9 2.3-2.4 3.6-0.9 2.2-0.8 4-0.7 4.8 1-0.4 3.3-1.7 4.2-4.3 0.7-2.2 0.7-3.9 0.8-5.7q0-0.5 0-1c-0.5 0.9-1.2 1.8-1.9 2.6z"/>
	<path id="Layer" fill-rule="evenodd" class="s0" d="m135.9 163.2c-0.2-0.1-5.7-0.1-9.1-2.6-3.5-2.4-4.5-4.6-4.6-4.7 0-0.1 0-0.3 0.1-0.4q0.1-0.2 0.4-0.1c0.9 0.2 1.7 0.2 2.4 0.2 1.3 0 2.7 0 4.9 1 2.2 1.1 3.2 2.4 4.2 3.7 0.6 0.8 1.2 1.5 2 2.1 0.1 0.1 0.2 0.3 0.1 0.5 0 0.1-0.2 0.3-0.4 0.3q0 0 0 0zm-10.7-6.8c-0.6 0-1.2 0-1.8-0.1 0.6 0.8 1.7 2.2 3.8 3.7 2.4 1.6 5.9 2.1 7.6 2.3-0.4-0.5-0.8-1-1.2-1.5-1-1.2-1.9-2.5-4-3.5-1.8-0.8-2.9-0.9-4-0.9q-0.2 0-0.4 0z"/>
	<path id="Layer" class="s1" d="m149.9 31.2c0 0 0.6 0.5 1.7 1.5 1.1 0.9 2.7 2.3 4.7 4.2 3.8 3.7 9.1 9.5 13.5 17.7 2.3 4 4.2 8.7 5.6 13.8 1.6 5 2.2 10.6 2.5 16.4 0 5.7-0.3 11.8-1.5 17.7l-1 4.5c-0.4 1.5-0.9 2.9-1.4 4.3-0.8 3-2.3 5.7-3.5 8.5-3 5.4-6.5 10.5-10.8 14.8-4.3 4.2-9.1 7.9-14.1 10.8-10 5.8-20.4 9.2-29.4 11.5-4.5 1-8.7 2-12.3 3-3.7 1-6.9 2.1-9.4 3.1-2.6 1-4.5 1.9-5.8 2.6-1.3 0.8-2 1.3-2 1.3-0.2 0.3-0.3 0.7 0 0.9 0.2 0.2 0.6 0.2 0.8 0 0 0.1 0.5-0.4 1.8-1.1 1.2-0.7 3.1-1.6 5.6-2.6 2.5-1 5.7-2 9.3-3 3.6-1 7.8-2 12.3-3.1 9.1-2.2 19.6-5.6 29.7-11.6 5.1-2.9 10-6.6 14.4-11 4.4-4.3 8-9.5 11-15 1.3-2.9 2.8-5.6 3.6-8.7 0.5-1.5 1.1-3 1.5-4.5l0.9-4.5c1.3-6 1.6-12.1 1.6-18-0.4-5.8-1.1-11.5-2.7-16.7-1.4-5.1-3.4-9.9-5.8-13.9-4.5-8.3-9.9-14.1-13.8-17.9-2-1.9-3.6-3.3-4.7-4.2-1.1-0.9-1.7-1.4-1.7-1.4-0.2-0.2-0.5-0.2-0.6 0-0.2 0.2-0.2 0.5 0 0.6z"/>
	<path id="Layer" class="s0" d="m111.6 127.2l3 0.1-2.4 1.9 0.8 2.9-2.5-1.8-2.5 1.8 0.9-3-2.4-1.9h3l1.1-2.9z"/>
	<path id="Layer" class="s1" d="m124.3 125.2l2.6 0.1-2.1 1.5 0.7 2.5-2-1.5-2.1 1.4 0.7-2.4-2-1.6h2.6l0.8-2.4z"/>
	<path id="Layer" class="s0" d="m134.9 120l2.3 0.1-1.8 1.3 0.6 2.2-1.9-1.3-1.8 1.3 0.6-2.2-1.8-1.4h2.3l0.8-2.2z"/>
	<path id="Layer" class="s1" d="m142.9 112l2.3 0.1-1.8 1.3 0.6 2.2-1.9-1.3-1.8 1.3 0.6-2.2-1.8-1.4h2.3l0.8-2.2z"/>
	<path id="Layer" class="s1" d="m97.2 125.2l-2.6 0.1 2.1 1.5-0.7 2.5 2-1.5 2.1 1.4-0.7-2.4 2-1.6h-2.6l-0.8-2.4z"/>
	<path id="Layer" class="s0" d="m86.6 120l-2.3 0.1 1.8 1.3-0.6 2.2 1.9-1.3 1.8 1.3-0.6-2.2 1.8-1.4h-2.3l-0.8-2.2z"/>
	<path id="Layer" class="s1" d="m78.6 112l-2.3 0.1 1.8 1.3-0.6 2.2 1.8-1.3 1.9 1.3-0.7-2.2 1.8-1.4h-2.2l-0.8-2.2z"/>
	<path id="Layer" class="s0" d="m114 76.9c0-6.2-0.1-12.2 0.1-18.3 0.1-3.8 4-6.7 7.9-6.1q0.9 0.1 1.9 0.1c2-0.1 3.5 0.9 3.9 2.6 0.4 1.8-0.5 3.6-2.1 4.2-1.7 0.7-3.5 0-4.5-1.6q-0.2-0.3-0.3-0.6c-1.5 0.2-2.3 0.9-2.3 2.2q0 6.2 0.1 12.3c0 0.2 0.1 0.3 0.1 0.6q4.1 0 8.2 0c1.4 0 2.8 0.1 4.2 0 0.8-0.1 1.6-0.5 2.1-1 0.7-0.5 0.8-1.1-0.3-1.7-1.6-0.9-2.2-2.7-1.5-4.4 0.7-1.6 2.4-2.5 4.2-2.1 1.7 0.5 2.7 2 2.6 3.9 0 1.4 0.2 2.8 0 4.2-0.4 3-2.9 5.6-5.9 5.6-6.1 0.2-12.1 0.1-18.4 0.1z"/>
	<path id="Layer" class="s1" d="m87.7 70.1c0.2 1.3 0.9 2.1 2.1 2.2 4.3 0 8.6 0 13.1 0 0-1.6 0-3.1 0-4.5q0-4 0-8.1c0-1.5-0.6-2.3-2.2-2.5-1.4 2.3-2.9 2.9-4.8 2.2-1.4-0.5-2.3-2-2.3-3.4 0.1-1.6 1.2-3.1 2.7-3.3 1.9-0.2 3.8-0.3 5.6-0.1 3.1 0.4 5.5 3.2 5.6 6.3 0.1 5.8 0 11.6 0 17.4 0 0.2 0 0.3-0.1 0.6-0.3 0-0.7 0-1.1 0q-8 0.1-16.1 0c-4.7 0-7.8-3.9-7-8.4 0.1-0.5 0.1-1 0-1.4-0.1-2 0.9-3.6 2.7-4 1.7-0.4 3.4 0.5 4.1 2.1 0.7 1.7 0.1 3.5-1.7 4.6q-0.3 0.1-0.6 0.3z"/>
	<path id="Layer" class="s0" d="m100.7 103.2c1.4-0.2 2.2-1 2.2-2.2 0-4.2 0-8.5 0-12.9-0.5 0-0.9-0.1-1.3-0.1q-5.7 0-11.3 0c-1.5 0-2.2 0.6-2.5 2.2 0.3 0.2 0.7 0.4 1 0.6 1.4 1.1 1.9 2.9 1.1 4.5-0.7 1.5-2.3 2.3-4 1.9-1.6-0.4-2.7-1.8-2.7-3.6q0-1.1-0.1-2.3c-0.5-3.9 2.4-7.8 6.2-7.9 6-0.1 12 0 18.2 0 0 0.5 0.1 1 0.1 1.4q0 7.7 0 15.5c0 5.1-3.6 8.2-8.7 7.4-0.4-0.1-0.9 0-1.3 0-2 0.1-3.5-1-3.9-2.8-0.3-1.7 0.6-3.4 2.2-4 1.7-0.7 3.4 0 4.4 1.7 0.2 0.2 0.3 0.4 0.4 0.6z"/>
	<path id="Layer" class="s1" d="m114 83.4c3.4 0 6.6 0 9.9 0q3.7 0 7.5 0c4.5 0 7.7 3.7 7 8.2q-0.1 0.8-0.1 1.7c0.1 2-0.9 3.5-2.7 3.9-1.7 0.3-3.4-0.5-4.1-2.1-0.7-1.7 0-3.5 1.7-4.5 0.1-0.1 0.4-0.2 0.6-0.4-0.1-1.3-0.9-2.2-2.1-2.2-4.2 0-8.4 0.1-12.6 0.1-0.1 0-0.2 0.1-0.4 0.2 0 2.5 0 5.1 0 7.7-0.1 1.5-0.2 3.1-0.1 4.6 0.1 0.7 0.4 1.5 0.9 2 0.5 0.7 1.2 0.9 1.8-0.2 0.9-1.6 2.8-2.2 4.4-1.5 1.6 0.6 2.5 2.4 2.1 4.1-0.4 1.7-1.9 2.8-3.8 2.7q-1 0-2 0.1c-4 0.6-7.9-2.4-8-6.5-0.1-5.9 0-11.8 0-17.9z"/>
	<path id="Layer" class="s0" d="m28.3 184v27.3q0 2 0.3 2.6 0.2 0.6 0.8 1 0.6 0.3 2.2 0.3v0.8h-10.1v-0.8q1.4 0 1.9-0.3 0.6-0.3 0.9-1 0.3-0.7 0.3-2.6v-18.7q-0.1-3.5-0.2-4.3-0.2-0.8-0.5-1.1-0.4-0.3-0.9-0.3-0.6 0-1.5 0.4l-0.4-0.8 6.2-2.5z"/>
	<path id="Layer" fill-rule="evenodd" class="s0" d="m37.5 203.1q-0.1 4.6 2.2 7.2 2.2 2.7 5.3 2.7 2 0 3.5-1.2 1.5-1.1 2.5-3.8l0.7 0.5q-0.5 3.1-2.7 5.6-2.3 2.5-5.7 2.5-3.7 0-6.4-2.9-2.6-2.9-2.6-7.7 0-5.3 2.7-8.3 2.7-3 6.8-3 3.5 0 5.7 2.3 2.2 2.3 2.2 6.1c0 0-14.2 0-14.2 0zm0-1.3h9.5q-0.1-1.9-0.5-2.8-0.5-1.2-1.6-1.9-1.2-0.8-2.4-0.8-1.8 0-3.3 1.5-1.5 1.5-1.7 4z"/>
	<path id="Layer" fill-rule="evenodd" class="s0" d="m60 208.5q-1.9-0.9-2.9-2.6-1-1.7-1-3.7 0-3 2.3-5.2 2.3-2.2 5.9-2.2 2.9 0 5.1 1.4h4.3q1 0 1.2 0.1 0.1 0 0.2 0.2 0.1 0.2 0.1 0.7 0 0.6-0.1 0.8 0 0.1-0.2 0.2-0.2 0-1.2 0h-2.6q1.2 1.7 1.2 4.2 0 2.9-2.2 4.9-2.2 2.1-5.9 2.1-1.5 0-3.1-0.5-1 0.9-1.4 1.5-0.3 0.6-0.3 1.1 0 0.4 0.4 0.7 0.3 0.4 1.4 0.6 0.6 0 3.2 0.1 4.6 0.1 6 0.3 2.1 0.3 3.3 1.6 1.3 1.2 1.3 3.1 0 2.5-2.4 4.8-3.5 3.2-9.2 3.2-4.3 0-7.3-1.9-1.7-1.1-1.7-2.4 0-0.5 0.2-1 0.4-0.9 1.6-2.4 0.2-0.2 2.3-2.4-1.2-0.7-1.6-1.2-0.5-0.6-0.5-1.3 0-0.8 0.6-1.8 0.7-1.1 3-3zm-0.3 7.5q-1 1.1-1.6 2.1-0.5 1-0.5 1.9 0 1 1.3 1.8 2.3 1.4 6.5 1.4 4.1 0 6-1.4 1.9-1.4 1.9-3 0-1.2-1.1-1.7-1.2-0.5-4.7-0.6-5-0.1-7.8-0.5zm4.2-20.1q-1.7 0-2.8 1.3-1.1 1.3-1.1 4.1 0 3.5 1.5 5.5 1.2 1.5 3 1.5 1.7 0 2.8-1.3 1.1-1.3 1.1-4.1 0-3.5-1.6-5.6-1.1-1.4-2.9-1.4z"/>
	<path id="Layer" fill-rule="evenodd" class="s0" d="m81 203.1q-0.1 4.6 2.2 7.2 2.2 2.7 5.3 2.7 2 0 3.5-1.2 1.5-1.1 2.5-3.8l0.7 0.5q-0.5 3.1-2.7 5.6-2.3 2.5-5.7 2.5-3.7 0-6.4-2.9-2.6-2.9-2.6-7.7 0-5.3 2.7-8.3 2.7-3 6.8-3 3.5 0 5.7 2.3 2.2 2.3 2.2 6.1c0 0-14.2 0-14.2 0zm0-1.3h9.5q-0.1-1.9-0.5-2.8-0.5-1.2-1.6-1.9-1.2-0.8-2.4-0.8-1.8 0-3.3 1.5-1.5 1.5-1.7 4z"/>
	<path id="Layer" class="s0" d="m104 199.1q3.6-4.3 6.9-4.3 1.7 0 2.9 0.8 1.2 0.9 1.9 2.8 0.5 1.3 0.5 4.1v8.8q0 2 0.3 2.7 0.3 0.6 0.8 0.9 0.6 0.3 2.1 0.3v0.8h-10.2v-0.8h0.4q1.4 0 2-0.5 0.6-0.4 0.8-1.3 0.1-0.3 0.1-2.1v-8.4q0-2.8-0.7-4.1-0.8-1.3-2.5-1.3-2.7 0-5.3 3v10.8q0 2.1 0.2 2.6 0.3 0.7 0.9 1 0.5 0.3 2.2 0.3v0.8h-10.2v-0.8h0.5q1.6 0 2.1-0.8 0.6-0.8 0.6-3.1v-7.6q0-3.7-0.2-4.5-0.2-0.9-0.5-1.1-0.4-0.3-1-0.3-0.6 0-1.5 0.3l-0.3-0.8 6.2-2.5h1c0 0 0 4.3 0 4.3z"/>
	<path id="Layer" fill-rule="evenodd" class="s0" d="m135.6 213.7q-1.5 1.6-3 2.2-1.4 0.7-3.1 0.7-3.4 0-5.9-2.8-2.5-2.8-2.5-7.3 0-4.4 2.8-8.1 2.8-3.7 7.2-3.7 2.7 0 4.5 1.8v-3.8q0-3.6-0.2-4.4-0.2-0.8-0.5-1.1-0.4-0.3-0.9-0.3-0.6 0-1.6 0.4l-0.3-0.8 6.2-2.5h1v23.8q0 3.6 0.2 4.4 0.1 0.8 0.5 1.2 0.4 0.3 0.9 0.3 0.6 0 1.6-0.4l0.2 0.8-6.1 2.5h-1c0 0 0-2.9 0-2.9zm0-1.6v-10.6q-0.2-1.6-0.8-2.8-0.7-1.3-1.8-1.9-1.1-0.7-2.2-0.7-2 0-3.5 1.8-2.1 2.4-2.1 6.9 0 4.5 2 6.9 2 2.4 4.4 2.4 2.1 0 4-2z"/>
	<path id="Layer" fill-rule="evenodd" class="s0" d="m155.7 213q-3.1 2.5-4 2.9-1.2 0.5-2.5 0.5-2.2 0-3.6-1.4-1.3-1.5-1.3-3.9 0-1.5 0.6-2.6 1-1.5 3.2-2.9 2.3-1.3 7.6-3.3v-0.8q0-3.1-0.9-4.2-1-1.2-2.9-1.2-1.4 0-2.2 0.8-0.9 0.8-0.9 1.8v1.3q0 1-0.5 1.6-0.5 0.5-1.4 0.5-0.8 0-1.3-0.6-0.6-0.5-0.6-1.6 0-1.9 2-3.5 2-1.6 5.6-1.6 2.7 0 4.5 0.9 1.3 0.7 1.9 2.2 0.4 0.9 0.4 3.9v7q0 3 0.2 3.6 0.1 0.7 0.3 0.9 0.3 0.3 0.6 0.3 0.4 0 0.7-0.2 0.4-0.3 1.8-1.6v1.2q-2.5 3.4-4.8 3.4-1.1 0-1.8-0.8-0.6-0.7-0.7-2.6zm0-1.4v-7.9q-3.4 1.4-4.4 1.9-1.7 1-2.5 2.1-0.8 1.1-0.8 2.4 0 1.6 1 2.6 1 1.1 2.2 1.1 1.7 0 4.5-2.2z"/>
	<path id="Layer" class="s0" d="m170.5 194.8v4.6q2.6-4.6 5.4-4.6 1.2 0 2 0.7 0.8 0.8 0.8 1.8 0 0.8-0.6 1.5-0.6 0.6-1.4 0.6-0.8 0-1.7-0.8-1-0.8-1.5-0.8-0.4 0-0.9 0.5-1 0.9-2.1 3v9.9q0 1.7 0.5 2.6 0.3 0.6 1 1 0.7 0.4 2.1 0.4v0.8h-10.5v-0.8q1.6 0 2.3-0.5 0.6-0.4 0.8-1.2 0.1-0.3 0.1-2.1v-8q0-3.6-0.1-4.3-0.2-0.7-0.6-1-0.4-0.3-0.9-0.3-0.7 0-1.6 0.3l-0.2-0.8 6.2-2.5c0 0 0.9 0 0.9 0z"/>
	<path id="Layer" class="s0" d="m178.7 195.4h9.6v0.8h-0.5q-1 0-1.5 0.4-0.5 0.5-0.5 1.1 0 0.9 0.7 2.5l5.1 10.4 4.6-11.4q0.4-0.9 0.4-1.8 0-0.4-0.2-0.6-0.2-0.3-0.6-0.4-0.3-0.2-1.3-0.2v-0.8h6.7v0.8q-0.8 0.1-1.3 0.4-0.4 0.2-1 1-0.2 0.3-0.7 1.7l-8.4 20.6q-1.3 3-3.2 4.5-2 1.5-3.8 1.5-1.3 0-2.2-0.7-0.9-0.8-0.9-1.8 0-0.9 0.7-1.5 0.6-0.6 1.7-0.6 0.7 0 2 0.5 0.9 0.4 1.1 0.4 0.7 0 1.5-0.7 0.8-0.7 1.6-2.7l1.5-3.6-7.4-15.6q-0.4-0.7-1.1-1.7-0.6-0.8-0.9-1.1-0.6-0.3-1.7-0.6c0 0 0-0.8 0-0.8z"/>
	<path id="Layer" class="s1" d="m126.7 240.8v0.8q-1.6 0.3-2.5 1.1-1.2 1.1-2.1 3.3l-10.6 26h-0.9l-11.4-26.3q-0.9-2-1.2-2.5-0.6-0.7-1.4-1.1-0.8-0.4-2.2-0.5v-0.8h12.4v0.8q-2.1 0.2-2.7 0.7-0.6 0.6-0.6 1.4 0 1.1 1 3.5l7.8 17.9 7.2-17.7q1-2.6 1-3.6 0-0.7-0.6-1.3-0.7-0.6-2.2-0.8-0.2 0-0.4-0.1v-0.8z"/>
</svg>