<svg version="1.2" xmlns="http://www.w3.org/2000/svg" viewBox="0 0 223 283" width="223" height="283">
	<title>New Project</title>
	<style>
		.s0 { fill: #d8d8d8 } 
	</style>
	<path id="Layer" fill-rule="evenodd" class="s0" d="m195 111.5c0 0.2-0.1 0.4-0.3 0.4-0.1 0-3.1 0.5-5.9 3-0.9 0.8-1.6 1.6-2.3 2.5-1.6 2-3.4 4.1-6.6 4.1q-0.1 0-0.2 0c-2.3-0.1-4-0.7-5.5-1.2-1.4-0.5-2.7-0.9-4.3-0.8q-0.3 0.7-0.7 1.5-1 2-2.2 3.8c0.8-0.5 1.6-0.9 2.5-1.1q0 0 0 0 0 0 0 0c0-0.6 0.5-1.1 1.1-1.1 0.6 0 1.1 0.5 1.1 1.1 0 0.6-0.5 1.1-1.1 1.1-0.4 0-0.8-0.3-1-0.7q0 0 0 0c-1.2 0.3-2.2 0.8-3.1 1.6-1.6 2.3-3.2 4.6-5 6.7 2-0.9 4.2-1.3 6.5-1.4q0 0 0 0 0 0 0 0.1c0.1-0.7 0.6-1.2 1.3-1.2 0.7 0 1.3 0.5 1.3 1.3 0 0.7-0.6 1.3-1.3 1.3-0.6 0-1.2-0.5-1.3-1.1q0 0 0 0c-2.5 0.1-4.9 0.6-7.1 1.6q-1 1.2-2.2 2.3-1.2 1.2-2.5 2.4c1.2-0.5 2.6-0.9 4.2-0.9 2.5-1.5 7.2-1.7 10.5-1.4 3.6 0.4 6.5 0.4 6.6 0.4 0.1 0 0.3 0.1 0.3 0.3 0.1 0.2 0 0.3-0.2 0.4 0 0-2.2 1-4 2.3-1.2 0.9-2.5 1.4-3.3 1.6 0.9 0.6 1.8 1.1 2.9 1.3 3.6 0.9 5 1.7 5.1 1.7 0.2 0.1 0.2 0.3 0.2 0.5-0.1 0.2-0.3 0.3-0.5 0.2-2.3-0.6-4.4-0.3-6.6 0-1.3 0.2-2.7 0.4-4.1 0.4q-0.6 0-1.3-0.1c-2.9-0.2-4.3-1.1-5.6-1.9-0.8-0.5-1.5-0.9-2.5-1.3-2.8-0.9-5.5-0.3-5.5-0.3q0 0 0 0-2.5 1.8-5 3.5 3.4-0.2 6.8 0.3c0.2-0.4 0.5-0.6 0.9-0.6 0.6 0 1.1 0.4 1.1 1 0 0.6-0.5 1-1.1 1-0.5 0-1-0.4-1-1q0 0 0 0c-2.4-0.4-4.9-0.5-7.4-0.3q-0.8 0.5-1.5 0.9-1.5 0.9-3.1 1.7 0.3 0 0.6 0c3.2-0.3 5.8 0.4 7 1.1 1.5 0.8 2.4 1.8 3.5 3.1l0.1 0.2c1.3 1.6 2.5 2.5 2.5 2.5 0.1 0.1 0.2 0.3 0.1 0.4q-0.1 0.2-0.3 0.2-0.1 0-0.1 0c-0.9-0.2-2-0.2-3.2-0.3-2 0-4.3 0-6.3-1-2.1-1-2.9-1.9-3.6-2.6-0.4-0.4-0.7-0.8-1.3-1.2-1-0.5-1.8-0.7-2.3-0.7q-3.9 1.8-7.7 3.3c1.4 0 2.9 0.3 4.3 0.8 0 0 0.2 0.1 0.4 0.2 0.1-0.4 0.5-0.7 0.9-0.7 0.6 0 1.1 0.5 1.1 1.1 0 0.6-0.5 1.1-1.1 1.1-0.6 0-1-0.5-1-1.1q0 0 0-0.1-0.1 0-0.1 0c-1.8-0.7-3.7-1-5.6-0.9q-2.4 0.9-4.8 1.6c1.2 0 2.4 0 4.5 1 2.1 1 3.1 2.2 4.1 3.5 0.5 0.7 1.1 1.4 1.8 2 0.1 0.1 0.2 0.3 0.1 0.4 0 0.2-0.2 0.3-0.3 0.3-0.2 0-5.5-0.1-8.7-2.4-2.4-1.7-3.6-3.3-4.1-4q-2.9 0.9-5.6 1.5-1.6 0.4-3 0.7 2.1 0.6 4 1.1c3.5 1 6.5 2 8.9 2.9 2.4 0.9 4.3 1.8 5.5 2.5 1.3 0.7 1.9 1.2 1.9 1.3 0.2 0.2 0.2 0.6 0 0.8-0.2 0.2-0.5 0.2-0.8 0 0 0-0.5-0.4-1.6-1.1-1.2-0.6-3-1.5-5.4-2.4-2.4-0.9-5.3-1.9-8.8-2.9q-2.9-0.8-6.2-1.6-3.3 0.8-6.2 1.6c-3.5 1-6.4 2-8.8 2.9-2.4 0.9-4.2 1.8-5.4 2.4-1.1 0.7-1.7 1.1-1.6 1.1-0.3 0.2-0.6 0.2-0.8 0-0.2-0.2-0.2-0.6 0-0.8 0-0.1 0.6-0.6 1.9-1.3 1.2-0.7 3.1-1.6 5.5-2.5 2.4-0.9 5.4-1.9 8.9-2.9q1.9-0.5 4-1.1-1.4-0.3-3-0.7-2.7-0.6-5.6-1.5c-0.5 0.7-1.7 2.3-4.1 4-3.2 2.3-8.5 2.4-8.7 2.4-0.1 0-0.3-0.1-0.3-0.3-0.1-0.1 0-0.3 0.1-0.4 0.7-0.6 1.3-1.3 1.8-2 1-1.3 2-2.5 4.1-3.5 2.1-1 3.3-1 4.5-1q-2.4-0.7-4.8-1.6c-1.9-0.1-3.8 0.2-5.6 0.9q0 0-0.1 0 0 0.1 0 0.1c0 0.6-0.4 1.1-1 1.1-0.6 0-1.1-0.5-1.1-1.1 0-0.6 0.5-1.1 1.1-1.1 0.4 0 0.8 0.3 0.9 0.7 0.2-0.1 0.4-0.2 0.4-0.2 1.4-0.5 2.9-0.8 4.3-0.8q-3.8-1.5-7.7-3.3c-0.5 0-1.3 0.2-2.3 0.7-0.6 0.4-0.9 0.8-1.3 1.2-0.7 0.7-1.5 1.6-3.6 2.6-2 1-4.3 1-6.3 1-1.2 0.1-2.3 0.1-3.2 0.3q0 0-0.1 0-0.2 0-0.3-0.2c-0.1-0.1 0-0.3 0.1-0.4 0 0 1.2-0.9 2.5-2.5l0.1-0.2c1.2-1.3 2-2.3 3.5-3.1 1.2-0.7 3.8-1.4 7-1.1q0.3 0 0.6 0-1.6-0.8-3.1-1.7-0.7-0.4-1.5-0.9c-2.5-0.2-5-0.1-7.4 0.3q0 0 0 0c0 0.6-0.5 1-1 1-0.6 0-1.1-0.4-1.1-1 0-0.6 0.5-1 1.1-1 0.4 0 0.7 0.2 0.9 0.6q3.4-0.5 6.8-0.3-2.5-1.7-5-3.5 0 0 0 0c0 0-2.7-0.6-5.5 0.3-1 0.4-1.7 0.8-2.5 1.3-1.3 0.8-2.7 1.7-5.6 1.9q-0.7 0.1-1.3 0.1c-1.4 0-2.8-0.2-4.1-0.4-2.2-0.3-4.3-0.6-6.6 0-0.2 0.1-0.4 0-0.5-0.2 0-0.2 0-0.4 0.2-0.5 0.1 0 1.5-0.8 5.1-1.7 1.1-0.2 2-0.7 2.9-1.3-0.8-0.2-2.1-0.7-3.3-1.6-1.8-1.3-4-2.3-4-2.3-0.2-0.1-0.3-0.2-0.2-0.4 0-0.2 0.2-0.3 0.3-0.3 0.1 0 3 0 6.6-0.4 3.3-0.3 8-0.1 10.5 1.4 1.6 0 3 0.4 4.2 0.9q-1.3-1.2-2.5-2.4-1.2-1.1-2.2-2.3c-2.2-1-4.6-1.5-7.1-1.6q0 0 0 0c-0.1 0.6-0.7 1.1-1.3 1.1-0.7 0-1.3-0.6-1.3-1.3 0-0.8 0.6-1.3 1.3-1.3 0.7 0 1.2 0.5 1.3 1.2q0-0.1 0-0.1c2.3 0.1 4.5 0.5 6.5 1.4-1.8-2.1-3.4-4.4-5-6.7-0.9-0.8-1.9-1.3-3.1-1.6q0 0 0 0c-0.2 0.4-0.6 0.7-1 0.7-0.6 0-1.1-0.5-1.1-1.1 0-0.6 0.5-1.1 1.1-1.1 0.6 0 1.1 0.5 1.1 1.1q0 0 0 0 0 0 0 0c0.9 0.2 1.7 0.6 2.5 1.1q-1.2-1.8-2.2-3.8-0.4-0.8-0.7-1.6c-1.6 0-2.9 0.4-4.3 0.9-1.5 0.5-3.2 1.1-5.5 1.2q-0.1 0-0.2 0c-3.2 0-5-2.1-6.6-4.1-0.7-0.9-1.4-1.7-2.3-2.5-2.8-2.5-5.8-3-5.9-3-0.2 0-0.3-0.2-0.3-0.4 0-0.2 0.2-0.3 0.4-0.3 3.7 0 6.6 0.5 8.1 0.9-1.7-2.1-3.1-4.9-4.5-7.6-1.2-2.5-2.4-4.9-3.8-6.7-0.2-0.1-0.1-0.4 0-0.5 0.1-0.1 0.3-0.2 0.5-0.1 2.2 1.5 4.5 2.5 6.9 3.5 2.1 0.9 4.4 1.8 6.7 3.2 3.8 2.2 5 4.6 6.5 7.4 0.4 0.8 0.8 1.6 1.3 2.4q0.8 1.3 1.3 2.1c-0.4-0.9-0.7-1.9-1-3-0.5-1.4-1-2.8-1.4-4.2l-0.3-1.5q-0.8-1.2-1.9-2.1c-0.2 0.2-0.5 0.4-0.8 0.4-0.5 0-1-0.5-1-1 0-0.6 0.5-1.1 1-1.1 0.6 0 1 0.5 1 1.1q0 0.1 0 0.2 0.8 0.7 1.5 1.6l-0.4-1.9q-0.3-1.3-0.5-2.6c-1.2-2.4-2.9-4.6-4.9-6.4q0 0 0 0c-0.3 0.2-0.6 0.3-1 0.3-0.8 0-1.4-0.6-1.4-1.4 0-0.8 0.6-1.4 1.4-1.4 0.8 0 1.5 0.6 1.5 1.4 0 0.3-0.2 0.6-0.3 0.8q0 0 0 0c1.8 1.6 3.4 3.4 4.5 5.5-0.4-2.9-0.6-5.9-0.7-8.8q-0.1-0.1-0.2-0.2 0 0-0.2-0.6-0.4-0.8-0.8-1.5 0 0-0.1-0.1c-1-1.1-3.6-2.8-7.7-4.7-2.7-1.3-5.1-4.4-6.7-9-1.4-3.8-2.9-6-2.9-6-0.1-0.1-0.1-0.3 0-0.5 0.1-0.1 0.3-0.1 0.5 0 1.6 0.9 2.9 2 3.8 2.7-0.8-2.5-1.3-5.2-1.8-7.7-0.4-2.1-0.8-4.2-1.3-5.8-0.1-0.2 0-0.4 0.2-0.5 0.2-0.1 0.4 0 0.5 0.2 0.9 1.7 2.8 3.5 5 5.4-0.2-1.1-0.4-2.9 0-5.1 0-0.2 0.1-0.3 0.3-0.4 0.2 0 0.3 0.1 0.4 0.3 0 0 0.4 1.3 2.1 3.3l0.4 0.5c1.8 2.1 4.5 5.3 5.8 10.6 1.1 4.7 0.8 8.3 0.8 8.4q0 0.1-0.1 0.1 0.1 0.6 0.1 1v0.3c0.2 2.5 1.2 5.5 1.8 7.3q0-1.2 0-2.5c0.2-2.6 0.4-5.1 0.8-7.6-0.1-2.9-0.6-5.6-1.5-8.3q-0.1 0-0.2 0c-0.6 0-1.1-0.5-1.1-1.1 0-0.6 0.5-1.1 1.1-1.1 0.6 0 1.1 0.5 1.1 1.1 0 0.4-0.2 0.7-0.5 0.9q0 0 0 0 1 3.3 1.3 6.7c0.4-2.2 0.9-4.3 1.5-6.4q0.8-2.5 1.7-4.9c-0.1-3.2-0.6-6.4-1.4-9.5q0 0 0-0.1-0.2 0.1-0.3 0.1c-0.7 0-1.3-0.6-1.3-1.3 0-0.7 0.6-1.3 1.3-1.3 0.7 0 1.3 0.6 1.3 1.3 0 0.5-0.3 0.9-0.7 1.1q0 0 0 0.1c0.8 2.8 1.2 5.8 1.4 8.7q0.8-2 1.7-3.9c0.5-4.2-2.2-7.8-4.9-11.6l-0.5-0.7c-2.3-3-2.7-7.5-3-10.7-0.1-1.2-0.2-2.2-0.4-3-0.6-2.9-1.4-4.3-3.3-7.1-0.1-0.1-0.1-0.3 0-0.4 0.2-0.2 0.3-0.2 0.5-0.1 4.6 2.1 7.9 7.2 9.1 9.3 0.3-2.4 1.3-5 2.1-7.3q0.6-1.5 1-2.9c0.8-2.4 2-7.5 2-7.6 0-0.1 0.2-0.3 0.3-0.3h0.1c0.1 0 0.3 0.2 0.3 0.3 0 0.1 1.1 3.7 1.7 7.9l0.2 1.4c0.6 4 1.5 9.6 0.9 13.6-0.6 4-2 6.2-3.2 8-0.6 0.8-1.1 1.6-1.3 2.3-0.1 0.2-0.4 1.9-0.5 4 0 0.9 0 1.8 0.1 2.5q0.3-0.6 0.6-1.2c2-3.6 4.2-6.7 6.3-9.4 0.9-2.6 1.5-5.4 1.6-8.2-0.6-0.1-1-0.6-1-1.2 0-0.7 0.6-1.3 1.3-1.3 0.7 0 1.3 0.6 1.3 1.3 0 0.7-0.5 1.2-1.2 1.3q-0.2 3.7-1.3 7.2c1.9-2.3 3.7-4.2 5.3-5.8q0 0 0 0c2-3.1 3.6-6.3 4.8-9.8q0 0 0 0c-0.5-0.2-0.9-0.6-0.9-1.2 0-0.7 0.6-1.3 1.3-1.3 0.7 0 1.3 0.6 1.3 1.3 0 0.7-0.6 1.3-1.3 1.3q0 0-0.1 0 0 0 0 0.1c-1 3-2.4 5.9-4.1 8.7 1.8-1.7 3.3-3 4.3-3.9q1.2-0.9 1.5-1.2c0.7-0.9 1.1-2.7 1.7-4.7 0.5-2 1.1-4.3 2.1-6.2 1.2-2.4 3.7-4 5.8-5.4 1.4-0.9 2.6-1.7 3.4-2.6 0.1-0.1 0.3-0.1 0.4-0.1 0.2 0.1 0.3 0.3 0.2 0.4 0 0.2-0.7 4.4-2 7.3 6.2-3.7 15.8-4.5 16.2-4.5 0.2 0 0.4 0.1 0.4 0.3 0.1 0.2 0 0.4-0.2 0.4-1.3 0.5-3.5 2.5-5.7 4.6-2.2 2.1-4.8 4.5-7.2 6.1-3 1.9-7 2.9-10.2 3.7-2.1 0.5-3.8 1-4.4 1.5q-0.1 0-0.2 0-0.4 0.4-1.2 1.1c-1.1 0.9-2.6 2.2-4.4 4-1.1 1-2.3 2.3-3.6 3.6 3-1.8 6.2-3.3 9.6-4.3 0.1 0 0.2 0 0.2 0.1q0-0.1 0-0.1c0-0.8 0.6-1.4 1.3-1.4 0.7 0 1.3 0.6 1.3 1.4 0 0.7-0.6 1.3-1.3 1.3-0.6 0-1.1-0.5-1.2-1.1q0 0.1-0.2 0.2c-3.8 1.1-7.4 2.8-10.7 5-2.4 2.9-5.1 6.4-7.5 10.6 1.4-0.9 3.9-2.6 8.3-5.6 7.1-4.9 10.3-5.3 15.2-5.8h0.6c5.1-0.6 8.4-1.8 8.5-1.8 0.1 0 0.3 0.1 0.4 0.2 0.1 0.2 0 0.4-0.1 0.5-2.3 1.4-3.8 3.1-5.2 4.7-1.7 1.9-3.3 3.6-6.2 4.9-4.1 1.8-8.3 1.4-11.6 1-1-0.1-1.9-0.2-2.6-0.2q-0.1 0-0.2 0c-3 0-6.7 2.6-8.9 5.4q-1.1 2.3-2.1 4.7c2.2-1.9 4.7-3.6 7.3-4.9q0 0 0 0 0-0.2 0-0.4c0-0.8 0.6-1.5 1.4-1.5 0.8 0 1.4 0.7 1.4 1.5 0 0.7-0.6 1.4-1.4 1.4-0.5 0-0.9-0.3-1.2-0.7q0 0 0 0c-2.9 1.4-5.5 3.2-7.8 5.4q-1.1 2.7-1.9 5.7-0.3 1.1-0.6 2.1c1.4-1.2 3.4-2.5 4.4-3 0.4-0.7 2.4-4.3 7.2-5.9 2.5-0.8 4.8-0.8 7.1-0.8 2.5 0 5 0 7.9-1 0.1-0.1 0.3 0 0.4 0.1q0.1 0.2 0.1 0.4c-0.1 0.1-0.9 2.4-4.7 4.1q0.1 0 0.2 0.1c0.7 0.2 1.5 0.3 2.4 0.5 3.5 0.7 6.5 0.6 6.5 0.6q0 0 0 0c0.2 0 0.4 0.1 0.4 0.3 0.1 0.2-0.1 0.3-0.2 0.4-1.6 0.5-2.9 1.3-4.3 2.1-2.2 1.5-4.8 3.1-8.8 3.4-4.2 0.3-7.5-1-10-1.9-1.3-0.5-2.4-0.9-3.2-1-2.1-0.1-4.7 2.3-6 4.5-0.6 3.4-1 7-1.2 10.6q0 1.7 0.1 3.5c0.5-2.2 1.4-4.4 2.5-6.3q0.1-0.1 0.1-0.1c-0.2-0.2-0.3-0.4-0.3-0.7 0-0.6 0.4-1.1 1-1.1 0.6 0 1 0.5 1 1.1 0 0.5-0.4 1-1 1q-0.2 0-0.4-0.1 0 0 0 0.1c-1.5 2.3-2.4 5-2.9 7.7 0.1 2.5 0.3 5 0.6 7.4 0.5-2.3 1.6-4.2 2.4-5.8l0.2-0.4c0.4-0.7 0.7-1.7 1.1-2.8 0.8-2.5 1.7-5.7 4.4-7.6 2.2-1.6 4.7-2.3 7.1-2.9 1.7-0.4 3.4-0.8 4.7-1.5 0.1-0.1 0.4-0.1 0.5 0.1 0.1 0.1 0.1 0.3-0.1 0.5 0 0-2.1 2-3.5 4.8q-0.3 0.8-0.6 1.5c-1.2 2.5-2.2 4.9-5.1 6.2-1.4 0.6-2.6 1-3.6 1.3-1.4 0.5-2.6 0.8-3.8 1.6-2.3 1.5-3 6.4-3.1 8.1q0.1 0.6 0.2 1.1l0.9 4.3c0.4 1.4 0.9 2.8 1.3 4.1 0.3 1.3 0.8 2.5 1.4 3.7-0.3-3.9-0.1-7.9 0.8-11.8q0 0 0 0c-0.4-0.2-0.7-0.6-0.7-1 0-0.6 0.5-1.1 1.1-1.1 0.6 0 1.1 0.5 1.1 1.1 0 0.6-0.5 1-1.1 1q0 0 0 0 0 0 0 0.1c-1 4.2-1.2 8.5-0.8 12.8q0.8 1.6 1.5 3.3 0.3 0.5 0.6 1c-0.1-0.8-0.2-1.7-0.2-2.6q0-1.2 0-2.3 0 0 0-0.1 0 0 0-0.2 0-0.6 0-1.2c0-3.9 0.1-7.9 3.2-12.2 0.9-1 1.7-1.9 2.4-2.8 1.4-1.5 2.6-2.9 3.7-5 0.1-0.2 0.3-0.2 0.4-0.2 0.2 0 0.3 0.2 0.3 0.4 0 0.7-0.2 6-0.5 8.3q0.5-0.3 1.1-0.5c2.7-1.2 5.3-2.4 7.3-5.4 0.1-0.2 0.2-0.2 0.4-0.2 0.2 0.1 0.3 0.2 0.3 0.4 0 0.1 0.1 9.4-7 12.9-2.3 1.1-4.1 1.9-5.6 2.5-2.9 1.3-4.3 1.8-4.8 3.2-0.3 0.8-0.4 1.7-0.4 2.5 0.1 1.6 0.4 3.1 0.7 4.7q1.6 2.6 3.4 5c-0.6-3.5-0.7-6.3-0.2-9.1-0.4-0.1-0.6-0.5-0.6-0.9 0-0.5 0.4-1 1-1 0.6 0 1 0.5 1 1 0 0.6-0.4 1-1 1q0 0 0 0c-0.5 2.9-0.4 5.9 0.3 9.7q1.7 2.2 3.6 4.2c-0.3-0.9-0.5-2.1-0.7-3.6-0.5-4.9 1.2-7.7 2.3-9.6q0.5-0.7 0.8-1.2c0.3-0.7 0.4-1.5 0.6-2.2 0.2-1.3 0.4-2.6 1.5-3.6 0.1-0.1 0.3-0.1 0.5-0.1 0.1 0.1 0.2 0.3 0.1 0.5-0.3 1.4 0 3.6 0.2 5.8 0.2 1.9 0.3 3.8 0.2 5.1-0.4 2.4-1.5 3.9-2.4 5-0.7 0.8-1.2 1.6-1.4 2.4-0.4 2 1.2 4.2 1.2 4.2q0 0 0 0 3.1 2.8 6.4 5.2c-1.2-2-2-4.1-2.4-6.3q0 0 0-0.1c-0.6 0-1.1-0.5-1.1-1 0-0.6 0.5-1.1 1.1-1.1 0.6 0 1.1 0.5 1.1 1.1 0 0.5-0.3 0.9-0.8 1q0 0 0 0c0.5 2.5 1.5 4.9 2.9 7q2 1.4 4.1 2.6 0.1 0 0.1 0.1-0.3-0.5-0.6-1.1c-1-2-2.2-4.4-2.2-7.9 0-2.3 0.6-4.1 1.2-5.8 0.5-1.4 0.9-2.7 1-4.2 0-0.2 0.1-0.3 0.3-0.3 0.2 0 0.4 0.1 0.4 0.3 0 0.1 0.1 2.9 0.9 5.4 1 2.8 1.3 6.2 0.8 8.4l-0.3 1c-0.3 1.2-0.3 1.4-0.6 2.7-0.1 0.6 0.1 1.5 0.2 2.1q4 2.2 8.1 4c-1.3-1.4-2.5-3-3.3-4.7q0 0 0 0-0.1 0-0.3 0c-0.6 0-1-0.4-1-1 0-0.6 0.4-1 1-1 0.6 0 1 0.4 1 1 0 0.3-0.2 0.6-0.4 0.8q0 0 0 0c1 2 2.3 3.8 3.9 5.3q2.2 1 4.4 1.8-0.5-0.6-1.1-1.1c-1.2-1.1-2.5-2.3-3.4-4.1-1.6-3.2-1.4-7.3-1.1-11.1 0-0.2 0.2-0.3 0.4-0.3q0.3 0 0.4 0.2c0 0.1 0.7 2.7 2 4.5q0.4 0.5 0.7 1c0.5 0.6 1 1.3 1.4 2.1 0.1-1.4 0.6-3.4 1.9-5.6 0.1-0.2 0.3-0.3 0.5-0.2 0.2 0.1 0.3 0.3 0.2 0.4 0 0.1-0.2 1.2 0.3 4.6q0.1 0.7 0.3 1.6c0.2 1.4 0.5 3.1 0.5 4.7-0.1 1.8-0.5 2.7-0.8 3.5q-0.1 0.3-0.2 0.5c3.6 1.2 7 2.2 10.3 3-0.8-0.7-1.6-1.7-2-3-0.7-2.2-0.8-3.9-0.8-5.7-0.1-0.9-0.1-1.9-0.3-3.1 0-0.2 0.2-0.4 0.3-0.4 0.2-0.1 0.4 0.1 0.5 0.3 0.4 1.6 1.5 3 2.6 4.3 0.9 1.1 1.9 2.2 2.4 3.6 0.9 2.2 0.8 4 0.7 4.9q1.4 0.3 2.8 0.6 1.4-0.3 2.8-0.6c-0.1-0.9-0.2-2.7 0.7-4.9 0.5-1.4 1.5-2.5 2.4-3.6 1.1-1.3 2.2-2.7 2.6-4.3 0.1-0.2 0.3-0.4 0.4-0.3 0.2 0 0.4 0.2 0.3 0.4-0.1 1.2-0.1 2.2-0.2 3.1 0 1.8-0.1 3.5-0.8 5.7-0.4 1.3-1.2 2.3-2 3 3.3-0.8 6.7-1.8 10.2-3q0-0.2-0.1-0.5c-0.4-0.7-0.8-1.7-0.8-3.5-0.1-1.6 0.3-3.3 0.5-4.7q0.2-0.9 0.3-1.6c0.5-3.4 0.3-4.5 0.3-4.6-0.1-0.1 0-0.3 0.2-0.4 0.2-0.1 0.4 0 0.5 0.2 1.3 2.2 1.8 4.2 1.9 5.6 0.4-0.8 0.9-1.5 1.4-2.1q0.3-0.5 0.7-1c1.3-1.8 2-4.4 2-4.5q0.1-0.2 0.4-0.2c0.2 0 0.4 0.1 0.4 0.3 0.3 3.8 0.5 7.9-1.1 11.1-0.9 1.8-2.2 3-3.4 4.1q-0.6 0.5-1.2 1.1 2.2-0.8 4.5-1.8c1.5-1.5 2.9-3.3 3.9-5.3q0 0 0 0c-0.3-0.2-0.4-0.5-0.4-0.8 0-0.6 0.4-1 1-1 0.5 0 1 0.4 1 1 0 0.6-0.5 1-1 1q-0.2 0-0.3 0 0 0 0 0c-0.8 1.7-2 3.3-3.3 4.7q4.1-1.8 8.1-4c0.1-0.6 0.3-1.5 0.2-2.1-0.3-1.3-0.3-1.5-0.6-2.7l-0.3-1c-0.5-2.2-0.2-5.6 0.7-8.4 0.9-2.5 1-5.3 1-5.4 0-0.2 0.2-0.3 0.4-0.3 0.2 0 0.3 0.1 0.3 0.3 0.1 1.5 0.5 2.8 1 4.2 0.6 1.7 1.1 3.5 1.2 5.8 0 3.5-1.2 5.9-2.3 7.9q-0.3 0.6-0.5 1.1 0-0.1 0.1-0.1 2.1-1.2 4.1-2.6c1.4-2.1 2.4-4.5 2.9-7q0 0 0 0c-0.5-0.1-0.8-0.5-0.8-1 0-0.6 0.5-1.1 1.1-1.1 0.6 0 1.1 0.5 1.1 1.1 0 0.5-0.5 1-1.1 1q0 0.1 0 0.1c-0.4 2.2-1.2 4.3-2.4 6.3q3.3-2.4 6.4-5.2 0 0 0 0c0 0 1.6-2.2 1.2-4.2-0.2-0.8-0.7-1.6-1.4-2.4-0.9-1.1-2-2.6-2.4-5-0.1-1.3 0-3.2 0.2-5.1 0.2-2.2 0.4-4.4 0.1-5.8 0-0.2 0.1-0.4 0.2-0.5 0.2 0 0.4 0 0.5 0.1 1.1 1 1.3 2.3 1.5 3.6 0.2 0.7 0.3 1.5 0.6 2.2q0.3 0.5 0.7 1.2c1.2 1.9 2.9 4.7 2.4 9.6-0.2 1.5-0.4 2.7-0.8 3.6q2-2 3.7-4.2c0.7-3.8 0.8-6.8 0.3-9.7q0 0 0 0c-0.6 0-1-0.4-1-1 0-0.6 0.4-1 1-1 0.6 0 1 0.4 1 1 0 0.4-0.2 0.8-0.6 0.9 0.5 2.8 0.4 5.6-0.2 9.1q1.8-2.4 3.4-5c0.3-1.6 0.6-3.1 0.7-4.7 0-0.8-0.1-1.7-0.4-2.5-0.5-1.4-1.9-1.9-4.8-3.2-1.5-0.6-3.3-1.4-5.6-2.5-7.1-3.5-7-12.8-7-12.9 0-0.2 0.1-0.3 0.3-0.4 0.2 0 0.3 0 0.4 0.2 2 3 4.6 4.2 7.3 5.4q0.5 0.2 1.1 0.5c-0.3-2.3-0.5-7.6-0.5-8.3 0-0.2 0.1-0.4 0.3-0.4 0.1 0 0.3 0 0.4 0.2 1.1 2.1 2.3 3.5 3.7 5 0.7 0.9 1.5 1.8 2.3 2.8 3.2 4.3 3.3 8.3 3.3 12.2q0 0.6 0 1.2 0 0.2 0 0.2 0 0.1 0 0.1 0 1.1-0.1 2.3c0.1 0.9 0 1.8-0.1 2.6q0.3-0.5 0.5-1 0.8-1.7 1.6-3.3c0.4-4.3 0.2-8.6-0.8-12.8q0-0.1 0-0.1 0 0 0 0c-0.6 0-1.1-0.4-1.1-1 0-0.7 0.5-1.1 1.1-1.1 0.6 0 1.1 0.4 1.1 1.1 0 0.4-0.3 0.8-0.7 1q0 0 0 0c0.9 3.9 1.1 7.9 0.8 11.8 0.6-1.2 1-2.4 1.4-3.7 0.4-1.3 0.9-2.7 1.3-4.1l0.9-4.3q0.1-0.5 0.2-1.1c-0.1-1.7-0.8-6.6-3.1-8.1-1.2-0.8-2.4-1.1-3.8-1.6-1-0.3-2.2-0.7-3.6-1.3-2.9-1.3-4-3.7-5.1-6.2q-0.3-0.7-0.7-1.5c-1.3-2.8-3.4-4.8-3.4-4.8-0.2-0.2-0.2-0.4-0.1-0.5 0.1-0.2 0.3-0.2 0.5-0.1 1.3 0.7 3 1.1 4.7 1.5 2.4 0.6 4.9 1.3 7.1 2.9 2.6 1.9 3.6 5.1 4.4 7.6 0.4 1.1 0.7 2.1 1.1 2.8l0.2 0.4c0.8 1.6 1.9 3.5 2.4 5.8 0.3-2.4 0.5-4.9 0.6-7.4-0.5-2.7-1.4-5.4-2.9-7.7q0-0.1 0-0.1-0.2 0.1-0.4 0.1c-0.6 0-1-0.5-1-1 0-0.6 0.4-1.1 1-1.1 0.6 0 1 0.5 1 1.1 0 0.3-0.1 0.5-0.3 0.7q0 0 0 0.1c1.2 1.9 2.1 4.1 2.6 6.3q0.1-1.8 0.1-3.5c-0.2-3.6-0.6-7.2-1.2-10.6-1.3-2.2-3.9-4.6-6-4.5-0.8 0.1-1.9 0.5-3.2 1-2.5 0.9-5.8 2.2-10 1.9-4-0.3-6.6-1.9-8.9-3.3-1.3-0.9-2.6-1.7-4.2-2.2-0.1-0.1-0.3-0.2-0.2-0.4 0-0.2 0.2-0.3 0.4-0.3q0 0 0 0c0 0 3 0.1 6.5-0.6 0.9-0.2 1.7-0.3 2.4-0.5q0.1-0.1 0.2-0.1c-3.8-1.7-4.6-4-4.7-4.1 0-0.2 0-0.3 0.1-0.4 0.1-0.1 0.3-0.1 0.4-0.1 2.9 1 5.4 1 7.9 1 2.3 0 4.6 0 7.1 0.8 4.8 1.6 6.8 5.2 7.2 5.9 1 0.5 3 1.8 4.4 3q-0.3-1-0.6-2.1-0.8-3-1.9-5.7c-2.3-2.2-4.9-4-7.8-5.4q0 0 0 0c-0.3 0.4-0.7 0.7-1.2 0.7-0.8 0-1.4-0.7-1.4-1.4 0-0.8 0.6-1.5 1.4-1.5 0.8 0 1.4 0.7 1.4 1.5q0 0.2-0.1 0.4 0.1 0 0.1 0c2.6 1.3 5.1 3 7.3 4.9q-1-2.4-2.1-4.7c-2.2-2.8-5.9-5.4-8.9-5.4q-0.1 0-0.2 0c-0.8 0-1.6 0.1-2.6 0.2-3.3 0.4-7.5 0.8-11.6-1-2.9-1.2-4.5-3-6.2-4.9-1.4-1.6-2.9-3.3-5.2-4.7-0.1-0.1-0.2-0.3-0.1-0.5 0.1-0.1 0.3-0.2 0.4-0.2 0.1 0.1 3.4 1.2 8.5 1.8h0.6c4.9 0.5 8.1 0.9 15.2 5.8 4.3 3 6.9 4.7 8.3 5.6-2.4-4.2-5.1-7.7-7.5-10.6-3.3-2.2-6.9-3.9-10.8-5q-0.1-0.1-0.1-0.2c-0.1 0.6-0.6 1.1-1.2 1.1-0.8 0-1.3-0.6-1.3-1.3 0-0.8 0.5-1.4 1.3-1.4 0.7 0 1.3 0.6 1.3 1.4q0 0-0.1 0.1c0.1-0.1 0.2-0.1 0.3-0.1 3.4 1 6.6 2.5 9.6 4.3-1.3-1.3-2.5-2.6-3.6-3.6-1.8-1.8-3.3-3.1-4.4-4q-0.8-0.7-1.2-1.1-0.1 0-0.2 0c-0.6-0.5-2.3-1-4.4-1.5-3.2-0.8-7.2-1.8-10.2-3.7-2.4-1.6-5-4-7.2-6.1-2.2-2.1-4.4-4.1-5.7-4.6-0.2 0-0.3-0.2-0.2-0.4 0-0.2 0.2-0.3 0.4-0.3 0.4 0 10 0.8 16.2 4.5-1.3-2.9-2-7.1-2-7.3-0.1-0.1 0-0.3 0.2-0.4 0.1 0 0.3 0 0.4 0.1 0.8 0.9 2 1.7 3.4 2.6 2.1 1.4 4.6 3 5.8 5.4 1 1.9 1.6 4.2 2.1 6.2 0.5 2 1 3.8 1.7 4.7q0.3 0.3 1.5 1.2c1 0.9 2.5 2.2 4.3 3.9-1.7-2.8-3.1-5.7-4.1-8.7q0-0.1 0-0.1-0.1 0-0.1 0c-0.8 0-1.3-0.6-1.3-1.3 0-0.7 0.5-1.3 1.3-1.3 0.7 0 1.3 0.6 1.3 1.3 0 0.6-0.4 1-0.9 1.2q0 0 0 0c1.2 3.5 2.8 6.7 4.8 9.8q0 0 0 0c1.6 1.6 3.4 3.5 5.3 5.8q-1.1-3.5-1.3-7.2c-0.7-0.1-1.2-0.6-1.2-1.3 0-0.7 0.6-1.3 1.3-1.3 0.7 0 1.3 0.6 1.3 1.3 0 0.6-0.4 1.1-1 1.2 0.1 2.8 0.7 5.6 1.6 8.2 2.1 2.7 4.3 5.8 6.3 9.4q0.3 0.6 0.6 1.2c0.1-0.7 0.1-1.6 0.1-2.5-0.1-2.1-0.4-3.8-0.5-4-0.3-0.7-0.7-1.5-1.3-2.3-1.2-1.8-2.6-4-3.2-8-0.6-4 0.3-9.6 0.9-13.6l0.2-1.4c0.6-4.2 1.7-7.8 1.7-7.9 0-0.2 0.2-0.3 0.3-0.3q0 0 0.1 0c0.1 0 0.3 0.2 0.3 0.3 0 0.1 1.2 5.2 2 7.6q0.4 1.4 1 2.9c0.8 2.3 1.8 4.9 2.1 7.3 1.2-2.1 4.5-7.2 9.1-9.3 0.2-0.1 0.3-0.1 0.4 0.1 0.2 0.1 0.2 0.3 0.1 0.4-1.9 2.8-2.7 4.2-3.3 7.1-0.2 0.8-0.3 1.8-0.4 3-0.3 3.2-0.7 7.7-3 10.7l-0.5 0.7c-2.7 3.8-5.4 7.4-4.9 11.6q0.9 1.9 1.7 3.9c0.2-2.9 0.6-5.9 1.4-8.7q0-0.1 0-0.1c-0.4-0.2-0.7-0.6-0.7-1.1 0-0.7 0.6-1.3 1.3-1.3 0.7 0 1.3 0.6 1.3 1.3 0 0.7-0.6 1.3-1.3 1.3q-0.1 0-0.3-0.1 0 0.1 0 0.1c-0.8 3.1-1.3 6.3-1.4 9.5q0.9 2.4 1.7 4.9c0.6 2.1 1.1 4.2 1.5 6.4q0.3-3.4 1.3-6.7 0 0 0 0c-0.3-0.2-0.5-0.5-0.5-0.9 0-0.6 0.5-1.1 1.1-1.1 0.6 0 1.1 0.5 1.1 1.1 0 0.6-0.5 1.1-1.1 1.1q-0.1 0-0.2 0c-0.9 2.7-1.4 5.4-1.5 8.3 0.4 2.5 0.6 5 0.8 7.6q0 1.3 0 2.5c0.6-1.8 1.6-4.8 1.8-7.4v-0.2q0-0.4 0.1-1-0.1 0-0.1-0.1c0-0.1-0.3-3.7 0.8-8.4 1.3-5.3 4-8.5 5.8-10.6l0.4-0.5c1.7-2 2.1-3.3 2.1-3.3 0-0.2 0.2-0.3 0.4-0.3 0.2 0.1 0.3 0.2 0.3 0.4 0.4 2.2 0.2 4 0 5.1 2.2-1.9 4.1-3.7 5-5.4 0.1-0.2 0.3-0.3 0.5-0.2 0.2 0.1 0.3 0.3 0.2 0.5-0.5 1.6-0.9 3.7-1.3 5.8-0.5 2.5-1 5.2-1.8 7.7 0.9-0.7 2.2-1.8 3.8-2.7 0.2-0.1 0.4-0.1 0.5 0 0.1 0.2 0.1 0.4 0 0.5 0 0-1.5 2.2-2.9 6-1.6 4.6-4 7.7-6.7 9-4.1 1.9-6.7 3.6-7.7 4.7q-0.1 0.1-0.1 0.1-0.4 0.7-0.8 1.5-0.2 0.6-0.3 0.6 0 0.1-0.1 0.2c-0.1 2.9-0.3 5.9-0.7 8.8 1.1-2.1 2.7-3.9 4.5-5.5q0 0 0 0c-0.2-0.2-0.3-0.5-0.3-0.8 0-0.8 0.7-1.4 1.5-1.4 0.8 0 1.4 0.6 1.4 1.4 0 0.8-0.6 1.4-1.4 1.4-0.4 0-0.7-0.1-1-0.3q0 0 0 0c-2 1.8-3.7 4-4.9 6.4q-0.2 1.3-0.5 2.6l-0.4 1.9q0.7-0.9 1.5-1.6 0-0.1 0-0.3c0-0.5 0.4-1 1-1 0.5 0 1 0.5 1 1 0 0.6-0.5 1.1-1 1.1-0.3 0-0.6-0.2-0.8-0.4q-1.1 0.9-1.9 2.1l-0.3 1.5c-0.4 1.4-0.9 2.8-1.4 4.2-0.3 1-0.6 2-1.1 3q0.6-0.8 1.4-2.1c0.5-0.8 0.9-1.6 1.3-2.4 1.5-2.8 2.7-5.2 6.5-7.4 2.3-1.4 4.6-2.3 6.7-3.2 2.4-1 4.7-2 6.9-3.5 0.2-0.1 0.4 0 0.5 0.1 0.1 0.1 0.1 0.4 0 0.5-1.4 1.8-2.6 4.2-3.8 6.7-1.4 2.7-2.8 5.5-4.5 7.6 1.5-0.4 4.4-0.9 8.1-0.9 0.2 0 0.4 0.1 0.4 0.3zm-61.5 54.5q0 0 0 0 0 0 0 0zm44.9-80.5c0.4-1.1 0.8-2.5 1.2-3.9 0.8-2.7 1.6-5.6 2.6-7.6 2.1-4.3 5.9-9.1 8.2-11.8q-1.1 1.1-2.4 2.2c-2 1.7-3.9 3.3-5.3 5.1q0 0.1-0.1 0.1-0.2 0.4-0.5 0.7c-0.9 1.4-1.5 2.9-2 4.4-0.3 1.1-0.5 2.1-0.7 3q0 0.3-0.1 0.5 0 0 0 0.1c-0.2 1.4-0.3 2.8-0.4 3.9v0.2c0 1-0.2 2.1-0.5 3.1zm4.1-11.4c-1 2.1-1.7 4.9-2.5 7.6-0.4 1.5-0.8 2.9-1.3 4.1 2.4-3.3 4.2-6.1 6.7-10.3 1.5-2.6 2.9-6.1 4.2-9.3 0.8-1.8 1.5-3.5 2.1-4.8-2 2.2-6.8 7.8-9.2 12.7zm7.3 0.1q-0.6 1.6-1.4 3-0.2 0.2-0.4 0.5-0.1 0.2-0.2 0.4c-1.1 1.6-2.5 2.9-4.9 5.1l-0.9 0.8c-1.2 1.1-2.2 2.2-2.9 3.1 1.7-1.1 4-2.3 5.9-3.2 3.2-1.5 5.2-5.5 6.3-8.5 0.8-2.2 1.6-3.8 2.2-4.9-1.8 1.2-3 2.5-3.3 2.7-0.1 0.2-0.2 0.5-0.4 1zm1.8-10.2q0.3-1.5 0.6-2.9c-0.6 1.4-1.4 3.3-2.2 5.3-1.3 3.1-2.8 6.7-4.3 9.3-2.2 3.9-3.9 6.5-6 9.5 1-1.1 2.1-2.1 3.1-3.1 1-0.8 1.9-1.6 2.7-2.4q0-0.1 0-0.1 1-1 1.9-2.3c0.7-1.2 1.4-2.5 1.7-3.4 1.2-3.1 1.9-6.6 2.5-9.9zm-12.1 10.1c0.4-1.4 1-2.8 1.8-3.9q0.3-0.5 0.6-0.9 0.1-0.1 0.2-0.3c2.1-2.7 4.4-4.5 4.9-4.9 0.2-0.4 0.6-2.1 0.4-4.4-0.3 0.6-0.9 1.4-1.6 2.3l-0.5 0.5c-1.8 2.2-4.3 5.1-5.5 10.3q-0.2 0.6-0.3 1.3zm-12.8-41q0 0.8 0 1.7c0 5.1-0.1 12.6 2.4 16.7q0.1-0.9 0.2-1.9c0.4-2.9 0.8-6 0.5-10.9-0.2-3.3-0.9-7.2-1.6-10.6-0.4-1.9-0.7-3.7-0.9-5.1-0.2 2.9-0.6 7.6-0.6 10.1zm6.1 5.5c0 0.3 0 1-0.1 2.1 0 1.3-0.2 2.9-0.6 4.6-0.3 1.9-1.1 3.8-1.7 5.3q0 0-0.1 0.1c-0.4 1-0.8 1.8-0.9 2.1 0.1 0.4 0.4 2 0.4 3.9q0.1 0.5 0.1 1c0.8-2.8 2.7-5.4 4.6-8.1l0.5-0.6c2.1-2.9 2.6-7.2 2.9-10.4 0.1-1.2 0.2-2.3 0.4-3.1 0.5-2.5 1.2-3.9 2.5-6-4.5 2.8-7.6 8.4-8 9.1zm-3.9-11.2c-0.4-1-0.8-2.6-1.1-4 0.2 1.3 0.5 2.9 0.8 4.6 0.6 3.4 1.4 7.4 1.6 10.7 0.3 4.9-0.1 8-0.5 11q0 0.4-0.1 0.8 0.1-0.3 0.3-0.6 0-0.1 0.1-0.3c0.7-1.6 1.1-3.1 1.4-4.5q0-0.1 0.1-0.3c0.3-1.7 0.4-3.2 0.5-4.3q0-0.9 0-1.8c-0.1-2.6-1.2-5.7-2.1-8.3q-0.6-1.6-1-3zm-1 22.6q0.1 0.1 0.1 0.1c-1.8-4.3-1.7-10.8-1.7-15.3q0-0.9 0-1.7c0-2.7 0.5-8.2 0.7-10.9-0.3 1.4-0.7 3.4-1 5.4l-0.3 1.4c-0.6 4-1.4 9.5-0.8 13.4 0.5 3.8 1.9 5.9 3 7.6zm-43.3-28.6c3 1 8.2 2.9 10.7 4.4 1.8 1.1 4 2.9 6.5 4.8 1.9 1.5 3.9 3.1 5.6 4.3-1.1-1.2-2.4-2.8-3.4-3.8q-0.8-0.8-1.6-1.6c-1.4-1.3-3.1-2.7-3.8-3.3-3.9-2.9-10.2-4.3-14-4.8zm-0.6 0.2c2.3 1.3 4.3 2.7 6.6 4.2 1.5 1 3.1 2.1 5.1 3.4 3.8 2.4 8.5 4.6 11 5.7-1.6-1.1-3.4-2.6-5.2-4-2.4-1.9-4.7-3.7-6.4-4.8-2.5-1.5-8.2-3.5-11.1-4.5zm15.2 4.1q0.2 0.2 0.5 0.4 1.7 1.4 3.1 2.7 0 0 0 0.1 0.1 0.1 0.3 0.2 0.7 0.6 1.2 1.2 0.1 0.1 0.2 0.2c1.3 1.3 2.3 2.5 3.1 3.4q-0.4-1.1-0.7-2.4c-0.5-2-1.1-4.3-2.1-6-1.1-2.3-3.5-3.8-5.5-5.2-1-0.6-1.9-1.2-2.7-1.8 0.4 1.7 1.2 5 2.3 6.9q0.1 0.1 0.3 0.3zm5.4 8.9q0.6 0.1 1 0.2c-2.7-1.2-6.7-3.1-10.1-5.3-2-1.3-3.6-2.3-5.2-3.4-1.9-1.3-3.6-2.4-5.4-3.6q1.2 1.1 2.6 2.5c2.2 2.1 4.8 4.4 7.1 5.9 2.9 1.9 6.9 2.9 10 3.7zm2.9 17.4c4.1 1.5 10.1 2 12.7 2.2q-2.4-0.9-5-2c-2-0.8-4-1.6-6-2.3-3.3-1.2-10.1-3.4-12.9-4.3q0.1 0.1 0.2 0.2c2.2 1.5 6.9 4.7 11 6.2zm-5-5.5q-2.1-0.2-3.8-0.5c3.3 1 8.1 2.6 10.7 3.5 1.9 0.7 4 1.6 5.9 2.3q2.6 1.1 5 2-1.1-0.7-2.3-1.6c-7-4.8-10-5.1-14.9-5.6zm15.6 7.9c-3-0.3-7.5-0.9-10.8-2.1-3.1-1.1-6.6-3.2-9-4.9q0.6 0.7 1.3 1.4c1.6 1.8 3.2 3.6 5.9 4.8 3.9 1.7 7.9 1.3 11.2 0.9q0.7-0.1 1.4-0.1zm-5.7 13c1.8-0.4 3.8-0.7 7.2-0.4 3.3 0.3 5.4 1.2 6.8 2.1q0.5 0.3 0.9 0.5c-1-1.3-2.8-3-5.7-4-2.3-0.7-4.4-0.8-6.6-0.8q-0.2 0-0.3 0c-2.3 0-4.6 0-7.3-0.7 0.6 0.8 2 2.3 4.8 3.3q0.1 0 0.2 0zm-7.7 2.1c2.2 0.2 4.7 0.1 7.3-0.1 1.6-0.2 3.3-0.3 5-0.3q0.1 0 0.3 0c3.9 0 8.7 1.3 10.7 2q-0.4-0.2-0.8-0.5-0.4-0.4-1.1-0.8c-1.6-0.8-3.9-1.8-6.8-2-3-0.3-6 0.2-6.8 0.3q-0.8 0.2-1.6 0.4c-0.7 0.2-1.5 0.3-2.4 0.5-1.4 0.3-2.7 0.4-3.8 0.5zm12.6 0q-0.2 0-0.3 0c-1.6 0-3.3 0.1-5 0.2-2.6 0.2-5.1 0.4-7.3 0.2 2.3 0.8 6.4 1.9 11.1 2.1 3.8 0.2 5.8-0.1 7.6-0.4 1.1-0.2 2.1-0.4 3.3-0.4q0.3 0 0.5 0c-2.2-0.6-6.4-1.7-9.9-1.7zm9.5 2.1c-1.3 0-2.3 0.2-3.3 0.4-1.4 0.2-3 0.5-5.5 0.5q-1 0-2.2-0.1c-4.2-0.2-7.9-1.1-10.3-1.9q0.4 0.3 0.8 0.6c2.3 1.4 4.7 2.9 8.5 3.2 4 0.3 7.3-1 9.7-1.9 0.9-0.3 1.6-0.6 2.3-0.8zm3.7 22.2q0.3 0.1 0.6 0.2c-0.6-0.9-1.1-1.7-1.6-2.6-0.7-1.4-1.5-2.9-3.3-4.8-2-2.3-4-3.2-6.5-4.4q-1.2-0.6-2.6-1.3c0.9 0.9 2.4 2.4 4 4.3q0.6 0.8 1.3 1.6c1.8 2.3 3.6 4.6 6.9 6.4q0.6 0.2 1.2 0.6zm-11.4-12.8q-0.9-0.2-1.7-0.4 1.3 0.7 2.5 1.2c2.5 1.3 4.5 2.2 6.6 4.5 1.8 2 2.6 3.5 3.4 4.9q0.3 0.6 0.6 1.1-0.2-0.6-0.4-1.3c-0.8-2.4-1.7-5.4-4.2-7.3-2-1.5-4.5-2.1-6.8-2.7zm8.1 11.4q0.2 0.1 0.4 0.2c-2.4-1.7-4-3.7-5.5-5.6q-0.6-0.8-1.3-1.5c-1.8-2.3-3.6-4-4.5-4.8 0.7 0.8 1.4 1.9 2 3.2q0.4 0.7 0.7 1.5c1.1 2.4 2.1 4.6 4.7 5.8 1.4 0.5 2.5 0.9 3.5 1.2zm-0.5 22.6c-1-3-4.5-6.4-7.5-8l-0.6-0.3c-2.7-1.4-5.9-3.2-8-6.3 0.7 2 2.4 5.7 6.3 7.8l1.4 0.7c4.3 2.3 5.9 3.2 8.4 6.1zm-7.6-11c1.5 0.7 2.9 1.5 4.2 2.7q0.6 0.5 1.1 1c1.3 1.3 2 2.9 2.5 4.3-0.1-2.9-0.7-5.7-3-8.6-0.8-1.1-1.6-2-2.3-2.8-1.1-1.2-2.1-2.3-3-3.8 0.1 2.4 0.3 6.1 0.5 7.2zm-8.4-4.1c2.1 3.2 5.4 5 8.1 6.4l0.6 0.4c2.4 1.3 5.8 4.2 7.3 7.2q-0.2-0.7-0.4-1.5c-0.6-1.5-1.4-3-2.8-4.4q-0.3-0.4-0.7-0.8c-1.8-1.4-4.1-2.6-4.1-2.6q-0.1 0-0.1 0-0.9-0.5-1.8-0.9c-2.2-1-4.3-1.9-6.1-3.8zm11.3 12.7c1.6 0.6 2.7 1.1 3.6 1.6-2-2-3.7-2.9-7.5-5l-1.3-0.7c-4.1-2.2-5.9-6-6.6-8.1 0.4 2.9 1.9 7.5 6.3 9.7 2.2 1.1 4.1 1.9 5.5 2.5zm-18.3 27.8c0.3 1.2 0.3 1.4 0.6 2.8q0 0.1 0 0.2 0-0.1 0-0.1c1-1.9 2.2-4.2 2.2-7.5 0-2.2-0.6-3.9-1.2-5.6q-0.2-0.8-0.5-1.6c-0.1 0.8-0.3 1.8-0.7 2.8-0.9 2.6-1.2 5.9-0.7 8zm-65 2.9q0 0 0 0.1 0-0.1 0-0.2c0.3-1.4 0.3-1.6 0.6-2.8l0.3-1.1c0.5-2 0.2-5.3-0.7-7.9-0.4-1-0.6-2-0.7-2.8q-0.3 0.8-0.5 1.6c-0.6 1.6-1.2 3.4-1.2 5.6 0 3.3 1.2 5.6 2.2 7.5zm-14-34.4l1.3-0.7c3.9-2.1 5.7-5.8 6.4-7.8-2.1 3.1-5.3 4.8-8 6.3l-0.6 0.3c-3 1.6-6.5 5-7.5 7.9 2.5-2.8 4.1-3.7 8.4-6zm8.1-8.5c-0.7 2-2.5 5.9-6.6 8.1l-1.3 0.7c-3.8 2.1-5.5 3-7.5 5 0.9-0.5 2-1 3.6-1.6 1.4-0.7 3.3-1.4 5.5-2.5 4.4-2.2 5.9-6.8 6.3-9.7zm-8.4 4.1q0 0-0.1 0.1c0 0-2.3 1.2-4.1 2.6q-0.4 0.4-0.7 0.8c-1.4 1.4-2.2 2.8-2.8 4.4q-0.2 0.8-0.4 1.5c1.5-3 4.9-5.9 7.3-7.2l0.6-0.4c2.7-1.4 6-3.2 8.1-6.4-1.8 1.9-3.9 2.8-6.1 3.8q-0.9 0.4-1.8 0.8zm-8.3 7.4c0.5-1.4 1.2-2.9 2.5-4.2q0.5-0.5 1.1-1c1.3-1.2 2.7-2.1 4.2-2.8 0.2-1 0.4-4.7 0.5-7.2-0.9 1.5-1.9 2.7-3 3.9-0.7 0.8-1.5 1.7-2.3 2.7-2.3 3-2.9 5.8-3 8.6zm-2.4-18.7c3.3-1.8 5.1-4.1 6.9-6.4q0.6-0.8 1.3-1.6c1.6-1.9 3.1-3.4 4-4.4q-1.4 0.8-2.6 1.4c-2.5 1.2-4.5 2.1-6.5 4.4-1.8 1.9-2.6 3.4-3.3 4.8-0.5 0.9-1 1.7-1.6 2.6q0.3-0.1 0.6-0.3 0.6-0.3 1.2-0.5zm13-12.6c-0.9 0.9-2.7 2.6-4.5 4.8q-0.7 0.8-1.3 1.6c-1.5 1.9-3.1 3.9-5.5 5.5q0.2 0 0.4-0.1c1-0.3 2.1-0.7 3.5-1.3 2.6-1.1 3.6-3.4 4.7-5.8q0.3-0.7 0.7-1.4c0.6-1.3 1.3-2.4 2-3.3zm-13.8 10.4q-0.2 0.7-0.4 1.3 0.3-0.5 0.6-1.1c0.8-1.4 1.6-2.9 3.4-4.9 2.1-2.3 4.1-3.3 6.6-4.5q1.2-0.5 2.5-1.2-0.8 0.2-1.7 0.4c-2.3 0.6-4.8 1.2-6.8 2.7-2.5 1.8-3.4 4.9-4.2 7.3zm24.6-20.5c-2.4 0.8-6.1 1.7-10.3 1.9q-1.2 0-2.2 0c-2.5 0-4.1-0.2-5.5-0.5-1-0.1-2-0.3-3.3-0.3 0.7 0.2 1.4 0.5 2.3 0.8 2.4 0.9 5.7 2.2 9.7 1.9 3.8-0.3 6.2-1.8 8.5-3.2q0.4-0.3 0.8-0.6zm-21.2 0.7c1.2 0 2.2 0.2 3.3 0.4 1.8 0.3 3.8 0.6 7.6 0.4 4.7-0.3 8.8-1.4 11.1-2.1-2.2 0.2-4.7 0-7.3-0.2-1.7-0.1-3.4-0.2-5-0.2q-0.1 0-0.3 0c-3.5 0-7.7 1.1-9.9 1.7q0.2 0 0.5 0zm15.8-2.7q-0.8-0.2-1.6-0.4c-0.8-0.2-3.8-0.6-6.8-0.4-2.9 0.3-5.2 1.3-6.8 2.1q-0.7 0.4-1.1 0.8-0.4 0.2-0.8 0.5c2-0.7 6.8-2 10.7-2q0.2 0 0.3 0c1.7 0 3.4 0.1 5 0.2 2.6 0.2 5.1 0.4 7.3 0.2-1.1-0.1-2.4-0.2-3.8-0.5-0.9-0.2-1.7-0.4-2.4-0.5zm-16.4 1.1q0.4-0.2 0.9-0.5c1.4-0.9 3.5-1.8 6.8-2.1 3.4-0.3 5.4-0.1 7.2 0.3q0.1 0.1 0.2 0.1c2.8-1.1 4.2-2.5 4.8-3.3-2.7 0.7-5 0.7-7.3 0.7q-0.1 0-0.3 0c-2.2 0-4.3 0-6.6 0.8-2.9 0.9-4.7 2.7-5.7 4zm23.4-38.6c-1.1 1.1-2.4 2.6-3.5 3.9 1.8-1.2 3.7-2.8 5.7-4.3 2.4-2 4.7-3.8 6.4-4.8 2.5-1.5 7.7-3.4 10.7-4.5-3.8 0.6-10.1 1.9-14 4.9-0.7 0.5-2.3 1.9-3.8 3.3q-0.8 0.8-1.5 1.5zm8.8-4.9c-1.7 1-4 2.8-6.4 4.8-1.8 1.4-3.6 2.8-5.2 4 2.6-1.2 7.3-3.3 11-5.8 2-1.2 3.6-2.3 5.2-3.4 2.2-1.5 4.2-2.8 6.5-4.2-2.9 1-8.5 3.1-11.1 4.6zm10.2-3.6c-1.8 1.1-3.5 2.3-5.4 3.5-1.6 1.1-3.2 2.2-5.2 3.4-3.3 2.2-7.4 4.2-10.1 5.4q0.5-0.1 1-0.3c3.2-0.8 7.1-1.8 10-3.6 2.4-1.5 4.9-3.9 7.1-6q1.4-1.3 2.6-2.4zm-22 8.9q-0.3 1.3-0.6 2.4c0.7-0.9 1.8-2.1 3.1-3.4q0-0.1 0.1-0.1 0.6-0.6 1.3-1.2 0.1-0.2 0.2-0.3 0 0 0.1 0 1.4-1.4 3.1-2.8 0.2-0.2 0.4-0.4 0.3-0.2 0.4-0.2c1-1.9 1.8-5.2 2.2-7-0.8 0.7-1.7 1.3-2.6 1.9-2.1 1.3-4.5 2.9-5.6 5.1-0.9 1.8-1.5 4-2.1 6zm-20.4-8.4c-0.2 1.4-0.5 3.1-0.9 5-0.6 3.4-1.4 7.4-1.6 10.7-0.3 4.9 0.1 7.9 0.5 10.9q0.1 0.9 0.2 1.9c2.5-4.2 2.5-11.7 2.4-16.7q0-1 0-1.8c0-2.4-0.4-7.2-0.6-10zm0.3-0.8c0.2 2.6 0.7 8.1 0.7 10.8q0 0.8 0 1.8c0 4.5 0.1 10.9-1.7 15.3q0-0.1 0.1-0.1c1.1-1.7 2.5-3.9 3.1-7.7 0.5-3.9-0.3-9.3-0.9-13.3l-0.2-1.4c-0.3-2.1-0.7-4-1.1-5.4zm-5 18.3c0.1 1.1 0.3 2.5 0.6 4.3q0 0.1 0 0.3c0.3 1.4 0.8 2.8 1.4 4.4q0.1 0.2 0.2 0.4 0.1 0.3 0.2 0.6 0-0.5-0.1-0.9c-0.4-3-0.8-6-0.5-11 0.2-3.3 1-7.2 1.6-10.7 0.4-1.7 0.7-3.2 0.9-4.6-0.4 1.5-0.8 3-1.1 4.1q-0.5 1.3-1.1 2.9c-0.9 2.7-2 5.7-2.1 8.4q0 0.8 0 1.8zm2.2 17.2q0-0.5 0-1c0-1.9 0.3-3.5 0.4-4-0.1-0.3-0.5-1-0.9-2q-0.1-0.1-0.1-0.2c-0.6-1.4-1.3-3.4-1.7-5.2-0.4-1.8-0.6-3.3-0.6-4.7-0.1-1.1-0.1-1.8-0.1-2-0.4-0.7-3.5-6.4-8-9.2 1.4 2.1 2 3.6 2.6 6.1 0.1 0.8 0.2 1.8 0.3 3 0.4 3.2 0.8 7.5 2.9 10.4l0.5 0.7c2 2.7 3.8 5.2 4.7 8.1zm33.5-12.2c-2.8 0.9-9.6 3.1-12.9 4.3-2 0.7-4 1.6-6 2.3-1.7 0.8-3.4 1.4-5 2 2.6-0.1 8.7-0.7 12.8-2.2 4-1.4 8.7-4.6 10.9-6.2q0.1-0.1 0.2-0.2zm-2 1.9c-2.4 1.6-5.9 3.8-9 4.9-3.3 1.2-7.8 1.8-10.8 2q0.7 0.1 1.4 0.2c3.3 0.4 7.3 0.8 11.2-0.9 2.7-1.2 4.3-3 5.9-4.8q0.7-0.7 1.3-1.4zm-22 6.3q2.4-0.8 5-1.9c2-0.8 4-1.6 6-2.3 2.6-1 7.4-2.5 10.6-3.6q-1.6 0.3-3.8 0.6h-0.6c-4.9 0.5-7.9 0.9-14.9 5.7q-1.2 0.8-2.3 1.5zm-27.6 10.7q-1.3-1.2-2.5-2.2c2.3 2.7 6.1 7.4 8.2 11.7 1 2.1 1.8 4.9 2.6 7.6 0.4 1.5 0.8 2.8 1.2 4-0.3-1.1-0.5-2.1-0.5-3.2v-0.2c-0.1-1.1-0.2-2.4-0.4-3.9q0 0 0-0.1 0-0.2-0.1-0.4c-0.1-1-0.4-2-0.7-3-0.4-1.5-1.1-3-2-4.4q-0.2-0.4-0.5-0.8 0 0-0.1 0c-1.3-1.8-3.3-3.5-5.2-5.1zm-3.8-3.1c0.7 1.3 1.4 3.1 2.1 4.9 1.3 3.1 2.7 6.7 4.2 9.2 2.5 4.3 4.3 7 6.7 10.4-0.4-1.2-0.8-2.7-1.3-4.2-0.7-2.7-1.5-5.5-2.5-7.5-2.4-4.9-7.1-10.5-9.2-12.8zm4.7 2.8c0.5 0.4 2.8 2.1 4.9 4.9q0.1 0.1 0.2 0.3 0.3 0.4 0.6 0.8c0.8 1.1 1.4 2.5 1.8 3.9q-0.1-0.6-0.3-1.3c-1.2-5.1-3.7-8.1-5.5-10.3l-0.4-0.4c-0.8-1-1.4-1.8-1.7-2.4-0.2 2.4 0.3 4 0.4 4.5zm-4.6-0.2c0.6 3.3 1.3 6.9 2.5 9.9 0.4 0.9 1 2.3 1.8 3.4q0.8 1.3 1.8 2.4 0 0 0 0c0.9 0.9 1.8 1.7 2.7 2.5 1 0.9 2.1 1.9 3.1 3-2-3-3.8-5.6-6-9.5-1.5-2.5-3-6.1-4.3-9.3-0.8-2-1.5-3.8-2.2-5.2q0.3 1.3 0.6 2.8zm12.5 23.1c-0.7-0.9-1.7-2-2.9-3.1l-0.9-0.8c-2.3-2.2-3.8-3.5-4.8-5.1q-0.2-0.2-0.3-0.4-0.2-0.2-0.4-0.5-0.8-1.3-1.4-2.9c-0.2-0.5-0.3-0.9-0.4-1-0.2-0.3-1.5-1.5-3.3-2.7 0.6 1 1.4 2.7 2.2 4.8 1.1 3.1 3.1 7 6.4 8.6 1.8 0.9 4.1 2 5.8 3.1zm-8.6 14.3q-1.8-0.7-3.5-1.5 1.5 1 3.9 2.4c3.9 2.4 5.9 4.2 9.1 7.7 1.1 1.2 2.1 2.3 3.1 3.3 1.2 1.3 2.3 2.5 3.3 3.6-0.4-0.7-1-1.6-1.7-2.7-0.5-0.9-1-1.7-1.4-2.5-1.4-2.7-2.6-5-6.2-7.1-2.3-1.4-4.5-2.3-6.6-3.2zm12.3 12.2c-0.9-1-2-2.1-3.1-3.4-3.2-3.4-5.1-5.2-9-7.5-2.2-1.4-3.9-2.5-5-3.3 0.7 1 1.5 2.1 2.4 3.3 2.1 2.9 4.4 6.2 7.6 8.7 3.3 2.5 5.7 3.5 7.8 4.5 0.9 0.4 1.7 0.7 2.6 1.2-1-1.1-2.1-2.3-3.3-3.5zm-14.9-9.4c1.6 3.1 3.1 6.2 5.3 8.4q0 0 0 0c0 0 1 1 2.9 2q0.1 0.1 0.2 0.1c1.8 0.7 3.3 1.2 4.7 1.6 1.7 0.3 3.1 0.6 4.2 0.9q0.2 0.1 0.5 0.1c-0.8-0.4-1.6-0.7-2.4-1.1-2.1-0.9-4.5-2-7.8-4.5-3.2-2.5-5.6-5.9-7.7-8.8q-0.9-1.3-1.8-2.4 1 1.7 1.9 3.7zm19.3 14.5q-0.8-0.3-2.2-0.8-0.7-0.1-1.3-0.2-1.3-0.3-2.9-0.7-0.1 0-0.2 0c-2-0.4-3.7-1.1-4.9-1.7q-1.7-0.8-3-2.1c-0.5-0.1-2.8-0.8-6.3-1.1 1 0.5 2.3 1.2 3.6 2.3 0.8 0.8 1.6 1.7 2.3 2.5 1.7 2.1 3.1 3.9 6 3.9q0.1 0 0.2 0c2.2-0.1 3.7-0.6 5.2-1.2 1.2-0.4 2.3-0.8 3.5-0.9zm12.3 11.2c0.2 2 0.6 3.4 1 4.3-0.2-0.7-0.3-1.4-0.1-2.2 0.2-1 0.8-1.8 1.5-2.7 0.9-1.2 1.9-2.5 2.2-4.7 0.2-1.2 0-3-0.2-4.9-0.1-1.6-0.3-3.2-0.2-4.6-0.3 0.6-0.4 1.3-0.6 2-0.1 0.8-0.3 1.6-0.6 2.4q-0.3 0.6-0.8 1.3c-1.1 1.9-2.7 4.5-2.2 9.1zm-13.8 12.5c1.1-0.2 2.3-0.3 3.7-0.8 1.4-0.4 2.4-0.9 3.3-1.4 1.2-0.7 2.4-1.3 4.4-1.6 2.3-0.3 4.9 0.3 6.6 0.8-1.6-1-4.1-2-7.1-1.8-3.2 0.2-5.2 1.5-7.2 2.8-1.2 0.8-2.4 1.5-3.7 2zm3.7 0.7c2-0.1 3.3-0.7 5.1-1.6q1-0.5 2.3-1.1c2-0.9 4.7-0.9 6.5-0.7-1.6-0.5-4.1-1-6.1-0.8-2 0.3-3.1 0.9-4.3 1.6-1 0.5-1.9 1-3.3 1.5-1.8 0.5-3.2 0.7-4.5 0.8q-0.6 0.1-1 0.1 0.6 0.1 1.2 0.1c1 0.1 2.3 0.2 4.1 0.1zm-4.3-4.8c1.5 1.1 3.2 1.5 3.7 1.6 3-2.2 5.6-2.9 7.1-3.1-2.4-0.8-5.9-0.8-8.5-0.6-2 0.2-3.9 0.3-5.1 0.4 0.8 0.4 1.9 1 2.8 1.7zm17.4 1.7c-1.7-0.1-3.9 0-5.5 0.7q-1.3 0.6-2.3 1.1c-1.8 0.9-3.2 1.6-5.3 1.7q-0.8 0-1.4 0-0.2 0-0.5 0c1.5 0.2 3 0.3 4.6 0.2 2.8-0.2 4-1 5.3-1.8 0.8-0.5 1.6-1 2.7-1.4 0.9-0.3 1.7-0.4 2.4-0.5zm32.2 15.2c-0.6 0-1.1 0-1.6 0q-0.2 0-0.4 0c-1.1 0-2.1 0.1-3.9 0.9-1.9 0.9-2.8 2.1-3.7 3.3-0.4 0.5-0.8 0.9-1.2 1.4 1.7-0.1 5-0.6 7.2-2.2 2-1.4 3.1-2.7 3.6-3.4zm7.9 0.7q0.3 0.1 0.6 0.2c0.1-0.9 0.1-2.5-0.7-4.4-0.5-1.3-1.3-2.4-2.3-3.5-0.6-0.8-1.3-1.6-1.8-2.5q0 0.5 0 1c0.1 1.7 0.2 3.3 0.8 5.4 0.7 2 2.3 3.2 3.4 3.8zm-14.5-11.6c0.2 0.7 0.3 1.4 0.5 2.4v0.4q0.1 0.6 0.2 1.3 0 0 0 0 0.1 1 0.2 1.6 0.1 0.3 0.1 0.6c0.2 0.5 0.4 1 0.5 1.3q0.1-0.2 0.2-0.3c0.3-0.8 0.6-1.6 0.7-3.3 0-1.5-0.3-3.1-0.6-4.5q-0.1-0.9-0.3-1.7c-0.2-1.3-0.2-2.3-0.3-3-1.2 2.6-1.2 4.7-1.2 5.2zm-2.7-1.2q-0.3-0.5-0.5-0.9c-0.6-1.2-1.2-2.9-1.6-4.1 0.2 2.9 1.2 5.9 2.2 7.8 0.6 1.2 1.1 1.9 1.6 2.5 0.3 0.4 0.6 0.7 0.9 1.2-0.6-2.9-1.7-4.8-2.6-6.5zm-0.6-2.9q-0.5-0.7-0.8-1.4c0.3 1 0.7 2.3 1.3 3.3q0.2 0.4 0.4 0.8c0.7 1.3 1.6 2.9 2.2 5q0-0.4 0-0.7l-0.1-0.4c-0.4-3.2-1.3-4.3-2.3-5.6q-0.3-0.5-0.7-1zm2.8 9.8q0.2 0.1 0.4 0.3c-0.4-0.7-0.7-1.2-1.2-1.7-0.4-0.6-1-1.3-1.6-2.5-0.9-1.6-1.7-4-2-6.4 0 2.3 0.2 4.5 1.2 6.4 0.8 1.7 2 2.8 3.2 3.9zm-16.2 1.2c0.6-0.4 1.3-0.8 2-1.2 1.8-1 3.2-1.4 4.1-1.5-0.5-0.1-1.1-0.2-1.9-0.2-0.9 0-2 0.1-3.1 0.5-2.1 0.8-3.3 1.7-4.5 2.6q-0.4 0.3-0.8 0.6c-1.4 1-2.4 1.6-3.1 2q0.1 0 0.2 0c3.8-0.5 5.4-1.6 7.1-2.8zm-6.7 2c0.6-0.3 1.3-0.8 2.3-1.5q0.4-0.3 0.8-0.6c1.2-0.9 2.4-1.8 4.5-2.6q0.7-0.2 1.3-0.4c-2.1 0.1-3.8 0.6-4.7 1.1-1.4 0.7-2.2 1.7-3.3 3l-0.1 0.1q-0.4 0.5-0.8 0.9zm12.7-4.3c-0.8 0.2-2.1 0.5-3.8 1.4-0.7 0.4-1.3 0.8-2 1.3-1.3 0.9-2.6 1.7-4.8 2.3 1.7 0 3.5-0.2 5.1-0.9 1.9-0.9 2.7-1.8 3.3-2.5 0.5-0.4 0.9-0.9 1.6-1.3q0.3-0.2 0.6-0.3zm43.4 6.3q-0.2 0-0.4 0c-0.5 0-1.1 0-1.7 0 0.6 0.7 1.7 2 3.6 3.4 2.3 1.6 5.6 2.1 7.3 2.2-0.5-0.5-0.8-0.9-1.2-1.4-0.9-1.2-1.8-2.4-3.8-3.3-1.7-0.8-2.8-0.9-3.8-0.9zm9.5-15.5c-0.4 2.4-1.2 4.8-2 6.4-0.7 1.2-1.2 1.9-1.7 2.5-0.4 0.5-0.8 1-1.1 1.7q0.1-0.2 0.3-0.3c1.2-1.1 2.5-2.2 3.3-3.9 0.9-1.9 1.2-4.1 1.2-6.4zm-4 8.7c0.5-0.6 1-1.3 1.7-2.5 1-1.9 1.9-4.9 2.1-7.8-0.3 1.2-0.9 2.9-1.6 4.1q-0.2 0.4-0.4 0.9c-1 1.7-2 3.6-2.7 6.5 0.3-0.5 0.6-0.8 0.9-1.2zm-0.7-1.6v0.4q0 0.3-0.1 0.7c0.7-2.1 1.5-3.7 2.2-5q0.3-0.4 0.5-0.8c0.5-1 1-2.3 1.3-3.3q-0.4 0.7-0.8 1.4-0.4 0.5-0.8 1c-1 1.3-1.9 2.4-2.3 5.6zm-1.9 4.8q0.1 0.1 0.1 0.3c0.2-0.3 0.4-0.8 0.5-1.3q0.1-0.3 0.1-0.6 0.1-0.6 0.3-1.6 0.1-0.6 0.1-1.3l0.1-0.4c0.1-1 0.3-1.7 0.5-2.4 0-0.5-0.1-2.6-1.3-5.2 0 0.7-0.1 1.7-0.3 3q-0.1 0.8-0.3 1.7c-0.3 1.4-0.6 3-0.5 4.5 0 1.7 0.4 2.5 0.7 3.3zm-13.4 4.5q0.3-0.1 0.6-0.2c1.1-0.6 2.7-1.8 3.3-3.8 0.7-2.1 0.7-3.7 0.8-5.4q0-0.5 0-1c-0.5 0.9-1.1 1.7-1.8 2.5-0.9 1.1-1.8 2.2-2.3 3.5-0.7 1.9-0.7 3.5-0.6 4.4zm39-2.1c-0.6-0.4-1.6-1-3.1-2q-0.4-0.3-0.8-0.6c-1.1-0.9-2.3-1.8-4.4-2.6-1.2-0.4-2.2-0.5-3.1-0.5-0.8 0-1.5 0.1-1.9 0.2 0.8 0.1 2.2 0.5 4 1.5 0.8 0.4 1.4 0.8 2 1.2 1.7 1.2 3.4 2.3 7.2 2.8q0 0 0.1 0zm-7.8-1c1.7 0.7 3.5 0.9 5.2 0.9-2.3-0.6-3.6-1.4-4.9-2.3-0.6-0.5-1.2-0.9-2-1.3-1.6-0.9-2.9-1.3-3.8-1.4q0.3 0.1 0.7 0.3c0.7 0.4 1.1 0.9 1.5 1.3 0.7 0.7 1.4 1.6 3.3 2.5zm3.1-3.8c-0.9-0.5-2.6-1-4.7-1.1q0.6 0.2 1.2 0.4c2.1 0.8 3.4 1.7 4.5 2.6q0.4 0.3 0.8 0.6c1 0.7 1.8 1.2 2.4 1.5q-0.4-0.4-0.9-0.9l-0.1-0.1c-1-1.3-1.8-2.3-3.2-3zm8.5-17.2c0.1 0.8 0 1.5-0.2 2.2 0.4-0.9 0.8-2.3 1.1-4.3 0.5-4.6-1.1-7.2-2.3-9.1q-0.4-0.7-0.7-1.3c-0.4-0.8-0.5-1.6-0.7-2.4-0.1-0.7-0.2-1.4-0.5-2 0 1.4-0.1 3-0.3 4.6-0.2 1.9-0.3 3.7-0.2 4.9 0.3 2.2 1.3 3.5 2.3 4.7 0.6 0.9 1.3 1.7 1.5 2.7zm-3.3 7.4c1.6-0.5 4.3-1.1 6.5-0.8 2.1 0.3 3.2 0.9 4.5 1.6 0.9 0.5 1.8 1 3.2 1.4 1.4 0.5 2.6 0.6 3.7 0.8-1.3-0.4-2.4-1.2-3.6-2-2-1.3-4.1-2.6-7.3-2.8-3-0.2-5.4 0.8-7 1.8zm18.4 3.6q0.6 0 1.2-0.1-0.5 0-1-0.1c-1.3-0.1-2.8-0.3-4.5-0.8-1.4-0.5-2.4-1-3.3-1.5-1.3-0.7-2.4-1.3-4.3-1.6-2.1-0.2-4.5 0.3-6.1 0.8 1.8-0.2 4.4-0.2 6.4 0.7q1.3 0.6 2.3 1.1c1.8 0.9 3.1 1.5 5.2 1.6 1.8 0.1 3 0 4.1-0.1zm-2.3 0.5q-0.2 0-0.4 0-0.7 0-1.4 0c-2.2-0.1-3.6-0.8-5.4-1.7q-0.9-0.5-2.2-1.1c-1.7-0.7-3.9-0.8-5.6-0.7 0.8 0.1 1.6 0.2 2.4 0.5 1.1 0.4 1.9 0.9 2.7 1.4 1.3 0.8 2.6 1.6 5.3 1.8 1.7 0.1 3.2 0 4.6-0.2zm-8.4-6.7c1.6 0.2 4.1 0.9 7.1 3.1 0.5-0.1 2.2-0.5 3.8-1.6 0.9-0.7 1.9-1.3 2.7-1.7-1.2-0.1-3-0.2-5-0.4-2.6-0.2-6.1-0.2-8.6 0.6zm29.9-36.3q-0.8 1.1-1.7 2.4c-2.1 2.9-4.5 6.3-7.8 8.8-3.3 2.5-5.7 3.6-7.8 4.5-0.8 0.4-1.6 0.7-2.4 1.1q0.3 0 0.6-0.1c1.1-0.3 2.4-0.6 4.2-0.9 1.3-0.4 2.9-0.9 4.6-1.6q0.1 0 0.3-0.1c1.8-1 2.8-2 2.8-2q0 0 0 0c2.2-2.2 3.8-5.3 5.3-8.4q1-2 1.9-3.7zm-17.4 15.4c2.1-1 4.4-2 7.7-4.5 3.2-2.5 5.6-5.8 7.7-8.7 0.8-1.2 1.6-2.3 2.4-3.3-1.1 0.8-2.8 1.9-5.1 3.3-3.8 2.3-5.8 4.1-8.9 7.5-1.2 1.3-2.2 2.4-3.2 3.4-1.1 1.2-2.2 2.4-3.2 3.5 0.8-0.5 1.7-0.8 2.6-1.2zm-3 1c1.1-1.1 2.1-2.3 3.4-3.6 0.9-1 1.9-2.1 3.1-3.3 3.2-3.4 5.1-5.3 9-7.7q2.4-1.4 4-2.4-1.8 0.8-3.6 1.5c-2.1 0.9-4.3 1.8-6.6 3.2-3.6 2.1-4.8 4.4-6.2 7.1-0.4 0.8-0.8 1.6-1.4 2.5-0.7 1.1-1.2 2-1.7 2.7zm20.1-4.8c-3.5 0.3-5.9 0.9-6.4 1.1q-1.3 1.3-2.9 2.1c-1.3 0.6-2.9 1.3-5 1.7q-0.1 0-0.2 0-1.5 0.4-2.8 0.6-0.7 0.2-1.3 0.3-1.5 0.5-2.3 0.8c1.3 0.1 2.4 0.5 3.5 0.9 1.5 0.6 3.1 1.1 5.2 1.2q0.1 0 0.3 0c2.8 0 4.3-1.8 6-3.9 0.7-0.8 1.4-1.7 2.3-2.5 1.2-1.1 2.5-1.8 3.6-2.3z"/>
	<path id="Layer" class="s0" d="m109.8 129.3l-0.9 2.8 2.4-1.6 2.4 1.6-0.8-2.8 2.3-1.7-2.9-0.1-1-2.8-0.9 2.8h-3z"/>
	<path id="Layer" class="s0" d="m124.4 125.6l-0.8-2.2-0.8 2.2h-2.4l1.9 1.5-0.7 2.3 2-1.3 1.9 1.3-0.7-2.3 2-1.4z"/>
	<path id="Layer" class="s0" d="m134.4 120.7l-0.7-2.1-0.7 2.1h-2.2l1.7 1.3-0.6 2.1 1.8-1.3 1.7 1.3-0.6-2.1 1.8-1.3z"/>
	<path id="Layer" class="s0" d="m142 113.1l-0.7-2.1-0.7 2.1h-2.2l1.7 1.3-0.6 2.1 1.8-1.3 1.7 1.3-0.6-2.1 1.8-1.3z"/>
	<path id="Layer" class="s0" d="m100.2 125.6l-0.8-2.2-0.8 2.2-2.4 0.1 2 1.4-0.7 2.3 1.9-1.3 2 1.3-0.7-2.3 1.9-1.5z"/>
	<path id="Layer" class="s0" d="m90 120.7l-0.7-2.1-0.7 2.1h-2.2l1.8 1.3-0.6 2.1 1.7-1.3 1.8 1.3-0.6-2.1 1.7-1.3z"/>
	<path id="Layer" class="s0" d="m82.4 113.1l-0.7-2.1-0.7 2.1h-2.2l1.8 1.3-0.6 2.1 1.7-1.3 1.8 1.3-0.6-2.1 1.7-1.3z"/>
	<path id="Layer" class="s0" d="m132 79.8c2.9-0.1 5.2-2.5 5.6-5.4 0.2-1.3 0-2.6 0-4 0.1-1.8-0.8-3.2-2.4-3.6-1.7-0.5-3.3 0.4-4 1.9-0.7 1.6-0.1 3.3 1.4 4.2 1 0.5 0.9 1.1 0.3 1.6-0.5 0.5-1.3 0.9-2 0.9-1.3 0.1-2.6 0-4 0q-3.9 0-7.7 0c-0.1-0.3-0.2-0.4-0.2-0.5q0-5.8-0.1-11.7c0-1.2 0.8-1.9 2.2-2.1q0.1 0.3 0.3 0.5c1 1.7 2.6 2.3 4.2 1.6 1.6-0.6 2.4-2.3 2-3.9-0.3-1.6-1.8-2.6-3.6-2.5q-0.9 0-1.9-0.1c-3.6-0.6-7.3 2.1-7.5 5.8-0.1 5.7 0 11.4 0 17.3 5.9 0 11.7 0.1 17.4 0z"/>
	<path id="Layer" class="s0" d="m97.8 56.9c-1.4 0.1-2.4 1.5-2.5 3-0.1 1.5 0.8 2.8 2.1 3.3 1.8 0.7 3.2 0.1 4.6-2.1 1.5 0.2 2.1 0.9 2.1 2.4q0 3.8-0.1 7.7c0 1.3 0 2.7 0 4.2-4.2 0-8.3 0.1-12.3 0-1.2 0-1.9-0.8-2.1-2q0.3-0.2 0.6-0.4c1.7-1 2.3-2.7 1.6-4.3-0.6-1.5-2.2-2.3-3.8-2-1.7 0.4-2.7 1.9-2.6 3.8 0 0.4 0 0.9 0 1.3-0.8 4.3 2.2 8 6.6 8q7.7 0.1 15.3 0c0.4 0 0.7 0 1 0 0.1-0.3 0.1-0.4 0.1-0.5 0-5.5 0.1-11 0-16.6 0-2.9-2.3-5.5-5.3-5.9-1.7-0.2-3.5-0.1-5.3 0.1z"/>
	<path id="Layer" class="s0" d="m91.2 86c-3.7 0.1-6.4 3.7-5.9 7.4q0.1 1.1 0.1 2.3c0 1.6 1 3 2.6 3.3 1.5 0.4 3.1-0.4 3.8-1.8 0.7-1.5 0.2-3.2-1.1-4.2-0.3-0.2-0.7-0.4-1-0.6 0.3-1.5 1-2.1 2.4-2.1q5.4 0 10.7 0.1c0.4 0 0.8 0 1.3 0.1 0 4.1 0 8.1 0 12.2-0.1 1.1-0.8 1.8-2.1 2.1-0.2-0.3-0.3-0.5-0.4-0.7-1-1.6-2.6-2.2-4.2-1.6-1.5 0.6-2.4 2.2-2 3.9 0.3 1.7 1.7 2.7 3.6 2.6 0.4 0 0.8-0.1 1.2 0 4.9 0.7 8.3-2.1 8.3-7.1q0-7.3 0-14.6c0-0.4-0.1-0.9-0.1-1.3-5.8 0-11.5-0.1-17.2 0z"/>
	<path id="Layer" class="s0" d="m122.2 109.1q0.9-0.1 1.9-0.1c1.8 0.1 3.2-0.9 3.6-2.6 0.3-1.6-0.6-3.2-2-3.8-1.6-0.7-3.3-0.2-4.2 1.4-0.6 1-1.2 0.8-1.7 0.2-0.5-0.5-0.8-1.2-0.8-1.9-0.1-1.5 0-2.9 0-4.4 0-2.5 0-4.9 0-7.3 0.2-0.1 0.3-0.2 0.4-0.2 4 0 7.9-0.1 11.9 0 1.2 0 1.9 0.8 2.1 2q-0.4 0.2-0.7 0.4c-1.6 1-2.2 2.6-1.5 4.2 0.6 1.5 2.2 2.4 3.8 2 1.7-0.3 2.7-1.8 2.6-3.7q0-0.8 0.1-1.6c0.6-4.2-2.3-7.7-6.6-7.7q-3.6-0.1-7.1 0c-3.1 0-6.2 0-9.4 0 0 5.8-0.1 11.4 0 17 0.1 3.8 3.7 6.7 7.6 6.1z"/>
	<path id="Layer" fill-rule="evenodd" class="s0" d="m53.8 186.2q1.6 1.9 1.6 4.5 0 3.6-2.4 5.8-2.3 2.2-6.6 2.2-1 0-2.2-0.1-1.3-0.2-2.6-0.5v8.5q0 2.7 0.5 3.4 0.9 0.9 2.5 0.9h1.1v0.8h-12.4v-0.8h1.1q1.8 0 2.6-1.2 0.5-0.7 0.5-3.1v-18.7q0-2.8-0.6-3.4-0.9-1-2.5-1h-1.1v-0.8h10.6q3.9 0 6.1 0.8 2.3 0.8 3.8 2.7zm-3.3 5q0-1.9-0.8-3.5-0.7-1.6-2.2-2.4-1.4-0.8-3.2-0.8-1 0-2.7 0.4v12q1.1 0.2 2 0.3 0.8 0.1 1.4 0.1 2.3 0 3.9-1.7 1.6-1.7 1.6-4.4z"/>
	<path id="Layer" class="s0" d="m65.2 209.7q-0.2-0.6-0.2-2.4v-26h-1l-5.8 2.4 0.4 0.8q0.8-0.4 1.4-0.4 0.5 0 0.8 0.3 0.3 0.3 0.5 1 0.1 0.8 0.1 4.1v17.8q0 1.8-0.2 2.4-0.3 0.7-0.8 0.9-0.5 0.3-1.8 0.3v0.8h9.5v-0.8q-1.5 0-2-0.3-0.6-0.3-0.9-0.9z"/>
	<path id="Layer" fill-rule="evenodd" class="s0" d="m86.6 209.2q0.5-0.2 1.7-1.5v1.2q-2.3 3.2-4.5 3.2-1.1 0-1.7-0.8-0.6-0.7-0.6-2.4-3 2.3-3.8 2.7-1.2 0.5-2.5 0.5-2 0-3.3-1.4-1.3-1.4-1.3-3.6 0-1.5 0.6-2.5 0.9-1.5 3.1-2.8 2.1-1.2 7.2-3.1v-0.7q0-3-1-4.1-0.9-1-2.7-1-1.3 0-2.1 0.7-0.8 0.7-0.8 1.7v1.2q0 1-0.5 1.5-0.5 0.5-1.3 0.5-0.8 0-1.3-0.5-0.5-0.6-0.5-1.5 0-1.9 1.9-3.4 1.9-1.5 5.3-1.5 2.6 0 4.3 0.8 1.2 0.7 1.8 2.1 0.4 0.9 0.4 3.8v6.6q0 2.8 0.1 3.4 0.1 0.6 0.4 0.9 0.2 0.2 0.5 0.2 0.4 0 0.6-0.2zm-5.1-9.2q-3.2 1.3-4.2 1.8-1.7 1-2.4 2-0.7 1-0.7 2.2 0 1.6 0.9 2.6 0.9 1 2.1 1 1.6 0 4.3-2.1z"/>
	<path id="Layer" class="s0" d="m94.8 185.7q-0.9 2.2-1.4 3-0.9 1.5-2.1 2.6-1.3 1.2-2.4 1.6v0.7h3v13.2q0 2.1 0.5 3.1 0.4 1 1.4 1.6 0.9 0.5 1.9 0.5 1.5 0 2.8-1.1 1.4-1 2.1-3.1h-0.8q-0.4 0.9-1 1.3-0.7 0.4-1.4 0.4-0.8 0-1.4-0.6-0.5-0.7-0.5-2.6v-12.7h4.5v-1.5h-4.5v-6.4z"/>
	<path id="Layer" class="s0" d="m104.8 209.7q-0.2 0.7-0.7 0.9-0.5 0.3-1.9 0.3v0.8h9.4v-0.8q-1.3 0-1.9-0.3-0.5-0.3-0.8-0.9-0.2-0.6-0.2-2.4v-15.7h-1l-5.8 2.3 0.3 0.8q0.8-0.3 1.4-0.3 0.6 0 0.9 0.3 0.3 0.2 0.4 0.9 0.2 1 0.2 4.1v7.6q0 1.8-0.3 2.4z"/>
	<path id="Layer" class="s0" d="m108.4 185q0.7-0.6 0.7-1.5 0-0.9-0.7-1.5-0.6-0.7-1.5-0.7-0.9 0-1.5 0.7-0.7 0.6-0.7 1.5 0 0.9 0.7 1.5 0.6 0.7 1.5 0.7 0.9 0 1.5-0.7z"/>
	<path id="Layer" class="s0" d="m131.7 209.8q-0.3-0.7-0.3-2.5v-8.4q0-2.6-0.5-3.9-0.7-1.8-1.8-2.6-1.2-0.8-2.8-0.8-3.1 0-6.5 4.1v-4.1h-0.9l-5.9 2.3 0.3 0.8q0.8-0.3 1.4-0.3 0.6 0 0.9 0.3 0.3 0.3 0.5 1 0.2 0.8 0.2 4.3v7.3q0 2.1-0.6 2.9-0.5 0.7-2 0.7h-0.4v0.8h9.7v-0.8q-1.6 0-2.2-0.3-0.5-0.3-0.8-0.9-0.2-0.5-0.2-2.4v-10.3q2.5-2.8 5-2.8 1.7 0 2.4 1.2 0.7 1.2 0.7 3.9v8q0 1.7-0.1 2-0.2 0.8-0.8 1.2-0.5 0.4-1.9 0.4h-0.4v0.8h9.7v-0.8q-1.4 0-2-0.3-0.5-0.3-0.7-0.8z"/>
	<path id="Layer" class="s0" d="m154.6 209.5q-0.5 0-0.9-0.3-0.3-0.3-0.5-1.1-0.1-0.7-0.1-4.1v-11.9h-6.7v0.8q1.9 0.1 2.5 0.7 0.6 0.5 0.6 2.2v11.1q-1.6 1.6-2.7 2.2-1.2 0.6-2.1 0.6-1.3 0-2.3-0.9-0.9-0.9-0.9-3.6v-13.1h-6.9v0.8q1.5 0 2.1 0.3 0.6 0.3 0.9 0.8 0.3 0.5 0.3 1.9v8.8q0 2.7 0.5 4.2 0.4 1.5 1.7 2.4 1.2 1 2.8 1 1.5 0 2.8-0.7 1.3-0.7 3.8-3.5v4.2h1l5.8-2.4-0.3-0.8q-0.8 0.4-1.4 0.4z"/>
	<path id="Layer" class="s0" d="m187.5 209.8q-0.2-0.7-0.2-2.5v-8.4q0-2.7-0.5-3.9-0.7-1.8-1.9-2.6-1.2-0.8-2.8-0.8-1.6 0-3.1 0.8-1.5 0.8-3.7 3.3-0.5-2-1.8-3.1-1.3-1-3.1-1-1.1 0-2.2 0.4-1.1 0.5-2.1 1.3-0.4 0.3-2.5 2.4v-4.1h-0.9l-5.9 2.3 0.3 0.8q0.8-0.3 1.4-0.3 0.6 0 0.9 0.3 0.3 0.2 0.5 0.9 0.2 1 0.2 4.2v7.5q0 1.8-0.3 2.4-0.3 0.6-0.8 0.9-0.6 0.3-1.9 0.3v0.8h9.7v-0.8q-1.6 0-2.2-0.3-0.5-0.3-0.8-0.8-0.2-0.6-0.2-2.5v-10.5q0.9-1.2 2.7-2.1 1.1-0.6 2.3-0.6 1.7 0 2.6 1.3 0.7 1.1 0.7 3.5v8.4q0 1.7-0.1 2.1-0.2 0.7-0.8 1.1-0.6 0.4-2.3 0.4v0.8h9.9v-0.8q-1.5 0-2.1-0.3-0.6-0.3-0.8-0.8-0.3-0.5-0.3-2.5v-9.4-0.9-0.2q1.7-1.5 2.8-2.1 1.1-0.6 2.3-0.6 1.8 0 2.6 1.4 0.6 1 0.6 3.4v8.4q0 1.7-0.1 2-0.2 0.8-0.7 1.1-0.7 0.5-1.9 0.5h-0.4v0.8h9.6v-0.8q-1.3 0-1.9-0.3-0.5-0.3-0.8-0.8z"/>
	<path id="Layer" class="s0" d="m89.5 236h1.1q1 0 1.9 0.5 0.7 0.4 0.9 0.9 0.3 0.7 0.3 2.9v18.7q0 2.6-0.5 3.3-0.9 1-2.6 1h-1.1v0.8h12.4v-0.8h-1q-1 0-2-0.5-0.6-0.4-0.9-0.9-0.2-0.7-0.2-2.9v-18.7q0-2.6 0.5-3.3 0.8-1 2.6-1h1v-0.8h-12.4c0 0 0 0.8 0 0.8z"/>
	<path id="Layer" class="s0" d="m125.1 236q0.3 0 0.4 0 1.4 0.3 2.1 0.8 0.6 0.6 0.6 1.2 0 1-1 3.5l-6.9 16.7-7.3-17q-1-2.2-1-3.3 0-0.7 0.6-1.2 0.6-0.5 2.6-0.7v-0.8h-11.8v0.8q1.3 0.1 2.1 0.5 0.8 0.3 1.3 1 0.3 0.4 1.2 2.3l10.8 25h0.8l10.1-24.6q0.9-2.2 2-3.2 0.8-0.7 2.3-1v-0.8h-8.9c0 0 0 0.8 0 0.8z"/>
</svg>