<svg version="1.2" xmlns="http://www.w3.org/2000/svg" viewBox="0 0 223 283" width="223" height="283">
	<title>New Project</title>
	<style>
		.s0 { fill: #d8d8d8 } 
	</style>
	<path id="Layer" fill-rule="evenodd" class="s0" d="m195.6 111c0 0.2-0.1 0.4-0.3 0.4 0 0-3.1 0.5-6 3.1-0.8 0.7-1.6 1.6-2.3 2.5-1.7 2-3.4 4.2-6.7 4.2q-0.1 0-0.3 0c-2.2-0.1-4-0.7-5.5-1.3-1.5-0.5-2.8-0.9-4.3-0.8q-0.4 0.8-0.8 1.6-1 1.9-2.2 3.8c0.8-0.5 1.6-0.9 2.5-1.1q0 0 0 0 0 0 0-0.1c0-0.6 0.5-1.1 1.1-1.1 0.7 0 1.1 0.5 1.1 1.1 0 0.7-0.4 1.2-1.1 1.2-0.4 0-0.8-0.3-1-0.7q0 0 0 0c-1.2 0.3-2.3 0.8-3.2 1.6-1.5 2.4-3.2 4.6-5 6.8 2.1-0.9 4.3-1.3 6.6-1.4q0 0 0 0 0 0 0 0c0.1-0.6 0.6-1.2 1.3-1.2 0.8 0 1.3 0.6 1.3 1.4 0 0.7-0.5 1.3-1.3 1.3-0.6 0-1.2-0.5-1.3-1.1q0 0 0 0c-2.5 0.1-5 0.6-7.2 1.7q-1.1 1.2-2.2 2.3-1.3 1.2-2.6 2.4c1.2-0.5 2.6-0.9 4.2-0.9 2.6-1.6 7.4-1.7 10.7-1.4 3.7 0.3 6.7 0.4 6.7 0.4 0.2 0 0.3 0.1 0.4 0.3 0 0.1-0.1 0.3-0.2 0.4-0.1 0-2.3 1-4.1 2.4-1.2 0.9-2.5 1.3-3.4 1.6 1 0.5 1.9 1 2.9 1.3 3.7 0.9 5.2 1.7 5.2 1.7 0.2 0.1 0.3 0.3 0.2 0.5-0.1 0.2-0.2 0.3-0.4 0.2-2.4-0.6-4.5-0.3-6.7 0-1.4 0.2-2.7 0.4-4.2 0.4q-0.7 0-1.3-0.1c-3-0.2-4.4-1.1-5.7-1.9-0.8-0.5-1.6-1-2.6-1.3-2.8-1-5.5-0.4-5.6-0.4q0 0 0 0-2.4 1.9-5 3.6 3.5-0.2 6.9 0.3c0.1-0.4 0.5-0.6 0.9-0.6 0.6 0 1.1 0.4 1.1 1 0 0.6-0.5 1-1.1 1-0.5 0-1-0.4-1-1q0 0 0 0c-2.5-0.4-5-0.5-7.5-0.3q-0.8 0.5-1.6 1-1.5 0.9-3.1 1.7 0.3-0.1 0.6-0.1c3.2-0.2 5.8 0.5 7.1 1.2 1.6 0.8 2.4 1.8 3.5 3.1l0.2 0.2c1.3 1.6 2.5 2.5 2.5 2.5 0.1 0.1 0.2 0.3 0.1 0.5q-0.1 0.2-0.3 0.2-0.1 0-0.1 0c-0.9-0.3-2.1-0.3-3.3-0.3-2 0-4.3-0.1-6.4-1.1-2.1-0.9-2.9-1.9-3.6-2.6-0.4-0.4-0.8-0.8-1.3-1.2-1-0.5-1.9-0.7-2.4-0.7q-3.9 1.8-7.8 3.3c1.5 0.1 3 0.3 4.3 0.8 0.1 0 0.3 0.1 0.4 0.2 0.2-0.4 0.6-0.7 1.1-0.7 0.6 0 1.1 0.5 1.1 1.2 0 0.6-0.5 1.1-1.1 1.1-0.7 0-1.2-0.5-1.2-1.1q0.1-0.1 0.1-0.2-0.1 0-0.1 0c-1.8-0.7-3.7-1-5.7-0.9q-2.5 0.9-4.9 1.7c1.2 0 2.5 0 4.6 1 2.1 1 3.2 2.3 4.1 3.5 0.6 0.7 1.1 1.5 1.9 2.1 0.1 0.1 0.2 0.2 0.1 0.4 0 0.2-0.2 0.3-0.3 0.3-0.3 0-5.6-0.1-8.9-2.5-2.4-1.7-3.6-3.3-4.1-4q-2.9 0.8-5.7 1.5-1.6 0.4-3.1 0.8 2.2 0.5 4.1 1c3.6 1 6.6 2 9.1 3 2.4 0.9 4.3 1.8 5.6 2.5 1.2 0.7 1.8 1.3 1.9 1.3 0.2 0.2 0.2 0.6 0 0.8-0.2 0.3-0.6 0.3-0.8 0.1 0-0.1-0.5-0.5-1.7-1.2-1.2-0.6-3-1.5-5.4-2.4-2.5-1-5.5-2-9-2.9q-2.9-0.9-6.3-1.7-3.4 0.8-6.3 1.7c-3.5 0.9-6.5 1.9-8.9 2.9-2.5 0.9-4.3 1.8-5.5 2.4-1.2 0.7-1.7 1.2-1.7 1.2-0.2 0.2-0.6 0.2-0.8-0.1-0.2-0.2-0.2-0.6 0.1-0.8 0 0 0.6-0.6 1.9-1.3 1.2-0.7 3.1-1.6 5.6-2.5 2.4-1 5.5-2 9-3q1.9-0.5 4.1-1-1.5-0.4-3-0.8-2.8-0.7-5.8-1.5c-0.5 0.7-1.7 2.3-4.1 4-3.3 2.4-8.6 2.5-8.8 2.5-0.2 0-0.4-0.1-0.4-0.3-0.1-0.2 0-0.3 0.1-0.4 0.8-0.6 1.3-1.4 1.9-2.1 1-1.2 2-2.5 4.1-3.5 2.1-1 3.4-1 4.6-1q-2.4-0.8-4.9-1.7c-1.9-0.1-3.9 0.2-5.7 0.9q0 0 0 0 0 0.1 0 0.2c0 0.6-0.5 1.1-1.1 1.1-0.6 0-1.1-0.5-1.1-1.1 0-0.7 0.5-1.2 1.1-1.2 0.4 0 0.8 0.3 1 0.7 0.1-0.1 0.4-0.2 0.4-0.2 1.4-0.5 2.8-0.7 4.3-0.8q-3.9-1.5-7.8-3.3c-0.5 0-1.3 0.2-2.3 0.7-0.6 0.4-1 0.8-1.4 1.2-0.7 0.7-1.5 1.7-3.6 2.6-2.1 1-4.4 1.1-6.4 1.1-1.2 0-2.4 0-3.2 0.3q-0.1 0-0.1 0-0.3 0-0.4-0.2c-0.1-0.2 0-0.4 0.1-0.5 0 0 1.2-0.9 2.6-2.5l0.1-0.2c1.1-1.3 2-2.3 3.5-3.1 1.3-0.7 3.9-1.4 7.2-1.2q0.2 0 0.5 0.1-1.5-0.8-3.1-1.7-0.8-0.5-1.6-1c-2.5-0.2-5-0.1-7.5 0.3q0 0 0 0c0 0.6-0.4 1-1 1-0.6 0-1-0.4-1-1 0-0.6 0.4-1 1-1 0.4 0 0.8 0.2 0.9 0.6q3.5-0.5 6.9-0.3-2.5-1.7-5-3.6 0 0 0 0c0 0-2.8-0.6-5.6 0.4-1 0.3-1.8 0.8-2.5 1.3-1.4 0.8-2.8 1.7-5.8 1.9q-0.6 0.1-1.2 0.1c-1.5 0-2.9-0.2-4.2-0.4-2.3-0.3-4.4-0.6-6.7 0-0.2 0.1-0.4 0-0.5-0.2-0.1-0.2 0-0.4 0.2-0.5 0 0 1.5-0.8 5.2-1.7 1-0.3 2-0.8 2.9-1.3-0.8-0.3-2.1-0.7-3.3-1.6-1.9-1.4-4.1-2.4-4.1-2.4-0.2-0.1-0.3-0.3-0.3-0.4 0.1-0.2 0.2-0.3 0.4-0.3 0.1 0 3-0.1 6.7-0.4 3.3-0.3 8.1-0.2 10.7 1.4 1.6 0 3 0.4 4.2 0.9q-1.3-1.2-2.6-2.4-1.1-1.1-2.2-2.3c-2.2-1.1-4.7-1.6-7.1-1.7q-0.1 0-0.1 0c-0.1 0.6-0.6 1.1-1.3 1.1-0.7 0-1.3-0.6-1.3-1.3 0-0.8 0.6-1.4 1.3-1.4 0.7 0 1.2 0.6 1.3 1.2q0 0 0.1 0c2.2 0.1 4.4 0.5 6.5 1.4-1.8-2.2-3.5-4.4-5-6.8-0.9-0.8-2-1.3-3.2-1.6q0 0 0 0c-0.2 0.4-0.6 0.7-1 0.7-0.6 0-1.1-0.5-1.1-1.2 0-0.6 0.5-1.1 1.1-1.1 0.6 0 1.1 0.5 1.1 1.1q0 0.1 0 0.1 0 0 0 0c0.9 0.2 1.7 0.6 2.5 1.1q-1.1-1.9-2.2-3.8-0.4-0.8-0.7-1.6c-1.6-0.1-2.9 0.3-4.4 0.8-1.5 0.6-3.2 1.2-5.5 1.3q-0.1 0-0.3 0c-3.2 0-5-2.2-6.7-4.2-0.7-0.9-1.4-1.8-2.3-2.5-2.8-2.6-5.9-3.1-6-3.1-0.2 0-0.3-0.2-0.3-0.4 0-0.2 0.2-0.3 0.4-0.3 3.8 0 6.7 0.5 8.3 0.9-1.8-2.2-3.2-5-4.6-7.8-1.3-2.5-2.5-4.9-3.9-6.7-0.2-0.2-0.1-0.4 0-0.5 0.1-0.2 0.3-0.2 0.5-0.1 2.3 1.5 4.6 2.5 7 3.5 2.2 0.9 4.4 1.9 6.8 3.2 3.9 2.3 5.1 4.7 6.6 7.5 0.4 0.8 0.9 1.7 1.4 2.6q0.8 1.2 1.3 2.1c-0.4-1-0.8-2-1.1-3.1-0.4-1.4-1-2.8-1.4-4.3l-0.3-1.4c-0.5-0.9-1.1-1.6-1.9-2.2-0.2 0.2-0.5 0.4-0.8 0.4-0.6 0-1-0.5-1-1.1 0-0.5 0.4-1 1-1 0.6 0 1 0.5 1 1q0 0.2 0 0.3 0.8 0.7 1.5 1.6l-0.4-1.9q-0.3-1.3-0.5-2.6c-1.2-2.5-2.9-4.8-5-6.6q0 0 0 0c-0.3 0.2-0.6 0.4-1 0.4-0.7 0-1.4-0.7-1.4-1.5 0-0.8 0.7-1.4 1.4-1.4 0.8 0 1.5 0.6 1.5 1.4 0 0.3-0.1 0.6-0.3 0.8q0 0 0 0c1.9 1.6 3.4 3.5 4.6 5.6-0.4-3-0.6-6-0.7-8.9q-0.1-0.1-0.2-0.2 0-0.1-0.2-0.6-0.4-0.8-0.8-1.5-0.1-0.1-0.1-0.1c-1-1.2-3.7-2.9-7.8-4.8-2.8-1.3-5.2-4.5-6.9-9.2-1.4-3.8-2.9-6-2.9-6.1-0.1-0.1-0.1-0.3 0-0.4 0.1-0.2 0.3-0.2 0.5-0.1 1.6 0.9 3 2 3.8 2.8-0.7-2.6-1.3-5.3-1.8-7.8-0.4-2.2-0.8-4.3-1.3-6-0.1-0.2 0-0.4 0.2-0.4 0.2-0.1 0.4 0 0.5 0.1 0.9 1.8 2.9 3.6 5.1 5.5-0.2-1.1-0.4-2.9 0-5.2 0-0.2 0.1-0.3 0.3-0.3 0.2 0 0.4 0.1 0.4 0.3 0 0 0.5 1.3 2.2 3.3l0.4 0.5c1.8 2.1 4.5 5.4 5.8 10.8 1.2 4.7 0.9 8.4 0.9 8.5q-0.1 0.1-0.1 0.1 0 0.6 0.1 1v0.3c0.1 2.6 1.1 5.7 1.8 7.5q0-1.3 0-2.6c0.2-2.6 0.4-5.2 0.8-7.7-0.1-2.9-0.6-5.8-1.5-8.5q-0.1 0.1-0.2 0.1c-0.7 0-1.2-0.5-1.2-1.1 0-0.7 0.5-1.2 1.2-1.2 0.6 0 1.1 0.5 1.1 1.2 0 0.3-0.2 0.7-0.5 0.9q0 0 0 0 1 3.3 1.3 6.8c0.4-2.3 0.9-4.4 1.6-6.5q0.7-2.6 1.6-5c-0.1-3.3-0.6-6.5-1.4-9.7q0 0 0 0-0.1 0-0.3 0c-0.7 0-1.3-0.6-1.3-1.3 0-0.7 0.6-1.3 1.3-1.3 0.8 0 1.4 0.6 1.4 1.3 0 0.5-0.3 0.9-0.7 1.2q0 0 0 0c0.8 2.9 1.2 5.9 1.4 8.9q0.8-2 1.7-4c0.5-4.3-2.2-7.9-5-11.8l-0.5-0.6c-2.3-3.2-2.8-7.7-3.1-11-0.1-1.2-0.2-2.2-0.4-3-0.6-2.9-1.4-4.4-3.3-7.2-0.1-0.1-0.1-0.3 0-0.4 0.2-0.2 0.3-0.2 0.5-0.2 4.7 2.2 8 7.4 9.3 9.5 0.3-2.4 1.2-5 2.1-7.4q0.6-1.6 1-2.9c0.8-2.5 2-7.7 2-7.7 0.1-0.2 0.2-0.3 0.4-0.3 0.2 0 0.3 0.1 0.4 0.3 0 0 1 3.7 1.7 8l0.2 1.4c0.6 4.1 1.5 9.7 0.9 13.8-0.6 4-2.1 6.3-3.3 8.1-0.5 0.9-1 1.6-1.3 2.4 0 0.2-0.4 1.9-0.5 4 0 1 0 1.9 0.1 2.6q0.3-0.6 0.6-1.2c2.1-3.7 4.3-6.9 6.4-9.6 1-2.7 1.5-5.5 1.7-8.3-0.6-0.2-1.1-0.7-1.1-1.3 0-0.7 0.6-1.3 1.4-1.3 0.7 0 1.3 0.6 1.3 1.3 0 0.7-0.6 1.3-1.3 1.3q-0.1 3.8-1.3 7.4c2-2.3 3.8-4.2 5.4-5.9q0 0 0 0c2-3.1 3.6-6.5 4.9-9.9q0 0 0 0c-0.5-0.2-0.9-0.7-0.9-1.3 0-0.7 0.6-1.3 1.3-1.3 0.8 0 1.3 0.6 1.3 1.3 0 0.8-0.5 1.4-1.3 1.4q0-0.1-0.1-0.1 0 0.1 0 0.1c-1.1 3.1-2.5 6.1-4.2 8.9 1.9-1.8 3.4-3.1 4.4-4q1.2-0.9 1.5-1.2c0.7-0.9 1.2-2.8 1.7-4.8 0.6-2 1.2-4.4 2.2-6.3 1.2-2.4 3.7-4 5.9-5.5 1.3-0.8 2.6-1.7 3.4-2.6 0.1-0.1 0.3-0.1 0.5-0.1 0.1 0.1 0.2 0.3 0.2 0.5-0.1 0.2-0.8 4.4-2.1 7.3 6.3-3.7 16-4.5 16.5-4.5 0.2-0.1 0.3 0.1 0.4 0.3 0 0.2-0.1 0.3-0.3 0.4-1.3 0.5-3.5 2.5-5.7 4.6-2.3 2.2-4.9 4.6-7.4 6.2-3 2-7.1 3-10.3 3.8-2.1 0.5-3.9 1-4.5 1.5q-0.1 0-0.2 0-0.4 0.4-1.2 1.1c-1.1 0.9-2.6 2.2-4.5 4.1-1.1 1-2.3 2.3-3.6 3.7 3-1.9 6.3-3.4 9.8-4.4 0.1-0.1 0.1 0 0.2 0.1q0-0.1 0-0.2c0-0.7 0.5-1.3 1.3-1.3 0.7 0 1.3 0.6 1.3 1.3 0 0.8-0.6 1.4-1.3 1.4-0.7 0-1.2-0.5-1.3-1.1q0 0.1-0.1 0.1c-3.9 1.2-7.5 2.9-10.9 5.2-2.5 2.9-5.2 6.5-7.7 10.8 1.4-1 4.1-2.7 8.4-5.8 7.3-5 10.6-5.3 15.5-5.8l0.6-0.1c5.2-0.5 8.6-1.7 8.6-1.7 0.2-0.1 0.4 0 0.5 0.2 0.1 0.1 0 0.4-0.2 0.5-2.3 1.4-3.8 3-5.2 4.7-1.8 1.9-3.4 3.7-6.3 5-4.1 1.8-8.4 1.4-11.8 1-1-0.1-1.9-0.2-2.7-0.2q-0.1 0-0.2 0c-3 0-6.7 2.7-9 5.5q-1.1 2.3-2.1 4.8c2.2-2 4.7-3.7 7.4-5.1q0 0 0 0 0-0.1 0-0.4c0-0.8 0.6-1.4 1.4-1.4 0.8 0 1.5 0.6 1.5 1.4 0 0.8-0.7 1.5-1.5 1.5-0.5 0-0.9-0.3-1.2-0.7q0 0 0 0c-2.9 1.4-5.6 3.3-7.9 5.4q-1.1 2.8-2 5.9-0.3 1-0.6 2.1c1.4-1.3 3.4-2.6 4.5-3.1 0.4-0.7 2.4-4.3 7.3-5.9 2.5-0.9 4.9-0.8 7.2-0.9 2.5 0.1 5.1 0.1 8-1 0.2 0 0.3 0 0.4 0.1q0.2 0.2 0.1 0.4c0 0.1-0.8 2.5-4.7 4.2q0.1 0 0.2 0.1c0.8 0.1 1.5 0.3 2.4 0.5 3.6 0.7 6.6 0.6 6.7 0.6q0 0 0 0c0.2 0 0.3 0.1 0.4 0.3 0 0.2-0.1 0.4-0.3 0.4-1.5 0.5-2.9 1.3-4.3 2.2-2.3 1.4-4.9 3.1-9 3.4-4.2 0.3-7.6-1-10.1-2-1.3-0.5-2.4-0.9-3.3-0.9-2.1-0.1-4.8 2.3-6.1 4.6-0.6 3.4-1 7-1.2 10.7q0 1.8 0.1 3.6c0.5-2.3 1.4-4.5 2.6-6.5q0 0 0.1 0c-0.2-0.2-0.4-0.5-0.4-0.8 0-0.6 0.5-1 1.1-1 0.5 0 1 0.4 1 1 0 0.6-0.5 1-1 1q-0.3 0-0.5-0.1 0 0.1 0 0.1c-1.4 2.4-2.4 5.1-2.9 7.9 0.1 2.5 0.3 5 0.7 7.5 0.5-2.4 1.5-4.3 2.4-5.9l0.2-0.4c0.4-0.7 0.7-1.7 1.1-2.8 0.8-2.6 1.8-5.8 4.4-7.8 2.3-1.6 4.8-2.3 7.3-2.9 1.7-0.4 3.4-0.8 4.7-1.6 0.2-0.1 0.4 0 0.5 0.1 0.1 0.2 0.1 0.4 0 0.5-0.1 0.1-2.2 2.1-3.6 5q-0.3 0.7-0.7 1.5c-1.1 2.6-2.2 5-5.1 6.3-1.4 0.6-2.6 1-3.7 1.3-1.4 0.5-2.6 0.8-3.9 1.7-2.2 1.4-2.9 6.4-3.1 8.2q0.1 0.5 0.2 1.1l0.9 4.4c0.4 1.4 0.9 2.7 1.4 4.1 0.3 1.3 0.8 2.6 1.3 3.8-0.3-4.1 0-8.1 0.9-12.1q0 0 0 0c-0.4-0.1-0.7-0.5-0.7-1 0-0.6 0.5-1.1 1.1-1.1 0.7 0 1.2 0.5 1.2 1.1 0 0.6-0.5 1.1-1.2 1.1q0 0 0 0 0 0 0 0c-1 4.3-1.2 8.7-0.8 13.1q0.8 1.6 1.6 3.3 0.3 0.5 0.5 1c-0.1-0.8-0.2-1.7-0.1-2.6q-0.1-1.2 0-2.3-0.1-0.1-0.1-0.1 0 0 0-0.2 0-0.7 0-1.3c0.1-3.9 0.1-8 3.3-12.3 0.9-1.1 1.7-2 2.4-2.9 1.4-1.5 2.7-2.9 3.8-5.1 0.1-0.1 0.3-0.2 0.4-0.2 0.2 0.1 0.3 0.2 0.3 0.4 0 0.7-0.2 6.1-0.6 8.5q0.6-0.3 1.2-0.6c2.8-1.2 5.4-2.4 7.4-5.5 0.1-0.1 0.2-0.2 0.4-0.1 0.2 0 0.3 0.2 0.3 0.3 0 0.1 0.2 9.6-7.1 13.2-2.3 1.1-4.2 1.9-5.7 2.5-2.9 1.3-4.3 1.9-4.8 3.3-0.3 0.8-0.4 1.6-0.5 2.5 0.2 1.6 0.4 3.2 0.7 4.7q1.7 2.7 3.5 5.2c-0.6-3.6-0.7-6.5-0.2-9.2-0.4-0.2-0.6-0.6-0.6-1 0-0.6 0.4-1 1-1 0.6 0 1 0.4 1 1 0 0.6-0.4 1-1 1q0 0 0 0c-0.5 3-0.4 6 0.3 9.9q1.8 2.2 3.7 4.2c-0.3-0.9-0.6-2.1-0.7-3.7-0.6-4.9 1.2-7.8 2.3-9.7q0.5-0.7 0.8-1.2c0.3-0.7 0.4-1.5 0.6-2.3 0.2-1.2 0.4-2.5 1.6-3.6 0.1-0.1 0.3-0.1 0.4 0 0.2 0 0.2 0.2 0.2 0.4-0.3 1.4-0.1 3.7 0.1 5.9 0.2 2 0.4 3.9 0.2 5.2-0.3 2.4-1.5 3.9-2.4 5.1-0.7 0.8-1.2 1.5-1.4 2.4-0.4 2 1.2 4.2 1.2 4.3q0 0 0 0 3.1 2.8 6.5 5.2c-1.2-1.9-2.1-4.1-2.5-6.4q0 0 0 0c-0.6 0-1-0.5-1-1.1 0-0.6 0.5-1.1 1.1-1.1 0.6 0 1.1 0.5 1.1 1.1 0 0.5-0.3 0.9-0.8 1q0 0.1 0 0.1c0.5 2.5 1.5 4.9 2.9 7q2.1 1.5 4.2 2.7 0.1 0.1 0.1 0.1-0.3-0.6-0.6-1.1c-1-2-2.3-4.5-2.2-8 0-2.4 0.6-4.2 1.2-5.9 0.4-1.5 0.9-2.8 0.9-4.3 0-0.2 0.2-0.3 0.4-0.3 0.2 0 0.4 0.1 0.4 0.3 0 0.1 0.1 2.9 1 5.5 0.9 2.8 1.2 6.3 0.7 8.5l-0.3 1c-0.3 1.2-0.3 1.4-0.6 2.8-0.1 0.6 0.1 1.5 0.2 2.1q4.1 2.3 8.2 4.1c-1.3-1.5-2.5-3.1-3.3-4.8q0 0 0 0-0.2 0-0.3 0c-0.6 0-1-0.4-1-1 0-0.6 0.4-1 1-1 0.6 0 1 0.4 1 1 0 0.3-0.2 0.6-0.4 0.8q0 0 0 0c1 2 2.4 3.8 4 5.4q2.2 1 4.5 1.8-0.6-0.6-1.2-1.1c-1.2-1.1-2.6-2.3-3.5-4.2-1.6-3.3-1.4-7.3-1.1-11.2 0.1-0.2 0.2-0.4 0.4-0.4q0.3 0 0.4 0.3c0 0 0.8 2.7 2.1 4.5q0.3 0.6 0.7 1c0.5 0.7 1 1.3 1.4 2.2 0.1-1.4 0.6-3.5 2-5.8 0.1-0.1 0.3-0.2 0.4-0.1 0.2 0.1 0.3 0.2 0.3 0.4 0 0-0.3 1.2 0.2 4.6q0.1 0.8 0.3 1.7c0.3 1.4 0.6 3.1 0.6 4.7-0.1 1.9-0.5 2.9-0.8 3.6q-0.1 0.3-0.2 0.5c3.6 1.2 7.1 2.3 10.4 3.1-0.8-0.7-1.6-1.7-2.1-3.1-0.7-2.2-0.7-3.9-0.8-5.7 0-1 0-2-0.2-3.2 0-0.2 0.1-0.4 0.3-0.4 0.2-0.1 0.4 0 0.5 0.2 0.4 1.7 1.5 3.1 2.6 4.4 1 1.2 1.9 2.3 2.5 3.7 0.8 2.2 0.8 4.1 0.7 5q1.4 0.3 2.8 0.6 1.4-0.3 2.8-0.6c-0.1-0.9-0.1-2.8 0.7-5 0.6-1.4 1.6-2.5 2.5-3.7 1.1-1.3 2.2-2.7 2.6-4.4 0.1-0.2 0.3-0.3 0.5-0.2 0.2 0 0.3 0.2 0.3 0.4-0.1 1.2-0.2 2.2-0.2 3.2-0.1 1.8-0.1 3.5-0.8 5.7-0.5 1.4-1.2 2.4-2.1 3.1 3.3-0.8 6.8-1.9 10.4-3.1q-0.1-0.2-0.2-0.5c-0.3-0.7-0.7-1.7-0.8-3.6 0-1.6 0.3-3.3 0.6-4.7q0.2-0.9 0.3-1.7c0.5-3.4 0.2-4.6 0.2-4.6 0-0.2 0.1-0.3 0.3-0.4 0.2-0.1 0.4 0 0.4 0.1 1.4 2.3 1.9 4.4 2 5.8 0.4-0.9 0.9-1.5 1.4-2.2q0.4-0.4 0.8-1c1.2-1.8 2-4.5 2-4.5q0.1-0.3 0.4-0.3c0.2 0 0.4 0.2 0.4 0.4 0.3 3.9 0.5 7.9-1.1 11.2-0.9 1.9-2.3 3.1-3.5 4.2q-0.6 0.5-1.2 1.1 2.3-0.8 4.5-1.8c1.6-1.6 3-3.4 4-5.4q0 0 0 0c-0.2-0.2-0.4-0.5-0.4-0.8 0-0.6 0.5-1 1-1 0.6 0 1.1 0.4 1.1 1 0 0.6-0.5 1-1.1 1q-0.1 0-0.3 0 0 0 0 0c-0.8 1.7-2 3.3-3.3 4.8q4.1-1.8 8.2-4.1c0.1-0.6 0.3-1.5 0.2-2.1-0.3-1.4-0.3-1.6-0.6-2.8l-0.3-1c-0.5-2.2-0.2-5.7 0.8-8.5 0.8-2.6 0.9-5.4 0.9-5.5 0-0.2 0.2-0.3 0.4-0.3 0.2 0 0.4 0.1 0.4 0.3 0 1.5 0.5 2.8 0.9 4.3 0.6 1.7 1.2 3.5 1.2 5.9 0.1 3.5-1.2 6-2.2 8q-0.3 0.5-0.6 1.1 0.1 0 0.1-0.1 2.1-1.2 4.2-2.7c1.4-2.1 2.4-4.5 2.9-7q0 0 0-0.1c-0.4-0.1-0.8-0.5-0.8-1 0-0.6 0.5-1.1 1.1-1.1 0.6 0 1.1 0.5 1.1 1.1 0 0.6-0.4 1.1-1 1.1q0 0 0 0c-0.4 2.3-1.3 4.5-2.5 6.4q3.4-2.4 6.5-5.2 0 0 0 0c0-0.1 1.6-2.3 1.2-4.3-0.2-0.9-0.7-1.6-1.4-2.4-0.9-1.2-2.1-2.7-2.4-5.1-0.2-1.3 0-3.2 0.2-5.2 0.2-2.2 0.4-4.5 0.1-5.9 0-0.2 0.1-0.4 0.2-0.4 0.1-0.1 0.3-0.1 0.5 0 1.1 1.1 1.3 2.4 1.5 3.6 0.2 0.8 0.3 1.6 0.6 2.3q0.3 0.5 0.8 1.2c1.1 1.9 2.9 4.8 2.4 9.7-0.2 1.6-0.5 2.8-0.8 3.7q1.9-2 3.7-4.2c0.7-3.9 0.8-6.9 0.3-9.9q0 0 0 0c-0.6 0-1-0.4-1-1 0-0.6 0.4-1 1-1 0.6 0 1 0.4 1 1 0 0.4-0.2 0.8-0.6 1 0.5 2.7 0.4 5.6-0.2 9.2q1.9-2.5 3.5-5.2c0.3-1.5 0.5-3.1 0.7-4.7-0.1-0.9-0.2-1.7-0.5-2.5-0.5-1.4-1.8-2-4.8-3.3-1.5-0.6-3.4-1.4-5.7-2.5-7.2-3.6-7.1-13.1-7.1-13.2 0-0.1 0.1-0.3 0.3-0.3 0.2-0.1 0.3 0 0.4 0.1 2 3.1 4.6 4.3 7.4 5.5q0.6 0.3 1.2 0.5c-0.4-2.3-0.6-7.7-0.6-8.4 0-0.2 0.1-0.3 0.3-0.4 0.2 0 0.3 0.1 0.4 0.2 1.1 2.2 2.4 3.6 3.8 5.1 0.7 0.9 1.6 1.8 2.4 2.9 3.2 4.3 3.3 8.4 3.3 12.3q0 0.6 0 1.3 0 0.2 0 0.2 0 0 0 0.1 0 1.1-0.1 2.3c0.1 0.9 0 1.8-0.1 2.6q0.3-0.5 0.5-1 0.8-1.7 1.6-3.3c0.4-4.4 0.2-8.8-0.8-13.1q0 0 0 0 0 0 0 0c-0.6 0-1.1-0.5-1.1-1.1 0-0.6 0.5-1.1 1.1-1.1 0.6 0 1.1 0.5 1.1 1.1 0 0.5-0.3 0.9-0.7 1q0 0 0 0c0.9 4 1.2 8 0.9 12.1 0.5-1.2 1-2.5 1.3-3.8 0.5-1.4 1-2.7 1.4-4.1l0.9-4.4q0.1-0.6 0.2-1.1c-0.2-1.8-0.8-6.8-3.1-8.2-1.3-0.9-2.5-1.2-3.9-1.7-1.1-0.3-2.2-0.7-3.7-1.3-2.9-1.3-4-3.7-5.1-6.3q-0.4-0.8-0.7-1.5c-1.4-2.9-3.5-4.9-3.6-5-0.1-0.1-0.1-0.3 0-0.5 0.1-0.1 0.3-0.2 0.5-0.1 1.3 0.8 3 1.2 4.7 1.6 2.5 0.6 5.1 1.3 7.3 2.9 2.7 2 3.7 5.2 4.5 7.8 0.3 1.1 0.6 2.1 1 2.8l0.2 0.4c0.9 1.6 1.9 3.5 2.5 5.9 0.3-2.5 0.5-5 0.6-7.5-0.5-2.8-1.5-5.5-2.9-7.9q0 0 0-0.1-0.2 0.1-0.4 0.1c-0.6 0-1.1-0.4-1.1-1 0-0.6 0.5-1 1.1-1 0.5 0 1 0.4 1 1 0 0.3-0.2 0.6-0.4 0.8q0.1 0 0.1 0c1.2 2 2.1 4.2 2.7 6.5q0-1.8 0-3.6c-0.2-3.7-0.6-7.3-1.2-10.7-1.3-2.3-4-4.7-6.1-4.6-0.8 0-2 0.5-3.3 0.9-2.5 1-5.9 2.3-10.1 2-4.1-0.3-6.7-2-9-3.4-1.4-0.9-2.7-1.7-4.3-2.2-0.2 0-0.3-0.2-0.2-0.4 0-0.2 0.2-0.3 0.3-0.3q0 0 0.1 0c0 0 3 0.1 6.6-0.6 0.9-0.2 1.7-0.3 2.4-0.5q0.1-0.1 0.2-0.1c-3.9-1.7-4.7-4.1-4.7-4.2-0.1-0.1 0-0.3 0.1-0.4 0.1-0.1 0.2-0.1 0.4-0.1 2.9 1.1 5.5 1.1 8 1.1 2.3 0 4.7-0.1 7.2 0.8 4.9 1.6 6.9 5.2 7.3 5.9 1.1 0.5 3.1 1.8 4.5 3.1q-0.3-1.1-0.6-2.1-0.9-3.1-2-5.9c-2.3-2.1-5-4-7.9-5.4q0 0 0 0c-0.2 0.4-0.7 0.7-1.2 0.7-0.8 0-1.4-0.7-1.4-1.5 0-0.8 0.6-1.4 1.4-1.4 0.8 0 1.5 0.6 1.5 1.4q-0.1 0.3-0.1 0.5 0-0.1 0 0c2.7 1.3 5.2 3 7.5 5q-1-2.5-2.2-4.8c-2.3-2.8-6-5.5-9-5.5q-0.1 0-0.2 0c-0.8 0-1.7 0.1-2.7 0.2-3.4 0.4-7.6 0.9-11.8-1-2.9-1.3-4.5-3.1-6.2-5-1.5-1.7-3-3.3-5.3-4.7-0.2-0.1-0.3-0.4-0.2-0.5 0.1-0.2 0.3-0.3 0.5-0.2 0 0 3.4 1.2 8.6 1.7l0.6 0.1c4.9 0.5 8.2 0.8 15.5 5.8 4.4 3.1 7 4.8 8.4 5.8-2.5-4.3-5.2-7.9-7.7-10.8-3.3-2.3-7-4-10.9-5.1q-0.1-0.1-0.1-0.2c-0.1 0.6-0.6 1.1-1.3 1.1-0.7 0-1.3-0.6-1.3-1.4 0-0.7 0.6-1.3 1.3-1.3 0.8 0 1.4 0.6 1.4 1.3q0 0.1-0.1 0.2c0.1-0.1 0.2-0.2 0.2-0.1 3.5 1 6.8 2.5 9.8 4.4-1.2-1.4-2.5-2.7-3.6-3.7-1.8-1.9-3.4-3.2-4.4-4.1q-0.9-0.7-1.3-1.1-0.1 0-0.2 0c-0.6-0.5-2.4-1-4.4-1.5-3.3-0.8-7.4-1.8-10.4-3.8-2.5-1.6-5.1-4-7.4-6.2-2.2-2.1-4.4-4.1-5.7-4.6-0.2-0.1-0.3-0.2-0.3-0.4 0.1-0.2 0.2-0.4 0.4-0.3 0.5 0 10.2 0.8 16.5 4.5-1.3-2.9-2-7.1-2.1-7.3 0-0.2 0.1-0.4 0.3-0.5 0.1 0 0.3 0 0.4 0.1 0.8 0.9 2.1 1.8 3.4 2.6 2.2 1.5 4.7 3.1 6 5.5 0.9 1.9 1.6 4.3 2.1 6.3 0.5 2 1 3.9 1.7 4.8q0.4 0.3 1.5 1.2c1 0.9 2.6 2.2 4.4 4-1.7-2.8-3.1-5.8-4.2-8.9q0 0 0-0.1-0.1 0-0.1 0.1c-0.7 0-1.3-0.6-1.3-1.4 0-0.7 0.6-1.3 1.3-1.3 0.7 0 1.3 0.6 1.3 1.3 0 0.6-0.3 1.1-0.9 1.3q0.1 0 0.1 0c1.2 3.4 2.8 6.8 4.8 9.9q0 0 0 0c1.6 1.7 3.5 3.6 5.4 5.9q-1.1-3.6-1.3-7.4c-0.7 0-1.3-0.6-1.3-1.3 0-0.7 0.6-1.3 1.4-1.3 0.7 0 1.3 0.6 1.3 1.3 0 0.6-0.5 1.1-1 1.3 0.1 2.8 0.7 5.6 1.6 8.3 2.2 2.7 4.4 5.9 6.4 9.6q0.3 0.6 0.6 1.2c0.1-0.7 0.1-1.6 0.1-2.6-0.1-2.1-0.4-3.8-0.5-4-0.3-0.8-0.7-1.5-1.3-2.4-1.2-1.8-2.7-4.1-3.3-8.1-0.6-4.1 0.3-9.7 0.9-13.8l0.3-1.4c0.6-4.3 1.6-8 1.7-8 0-0.2 0.2-0.3 0.3-0.3q0 0 0 0c0.2 0 0.4 0.1 0.4 0.3 0 0 1.3 5.2 2 7.7q0.4 1.3 1 2.9c0.9 2.4 1.8 5 2.1 7.4 1.3-2.2 4.7-7.3 9.3-9.5 0.2 0 0.4 0 0.5 0.2 0.1 0.1 0.1 0.3 0 0.4-1.9 2.8-2.7 4.3-3.3 7.2-0.2 0.8-0.3 1.8-0.4 3-0.3 3.3-0.8 7.8-3.1 11l-0.4 0.6c-2.9 3.9-5.5 7.5-5 11.8q0.9 2 1.7 4c0.1-3 0.6-6 1.3-8.9q0.1 0 0.1 0c-0.5-0.3-0.7-0.7-0.7-1.2 0-0.7 0.5-1.3 1.3-1.3 0.7 0 1.3 0.6 1.3 1.3 0 0.7-0.6 1.3-1.3 1.3q-0.2 0-0.3 0 0 0 0 0c-0.8 3.2-1.3 6.4-1.4 9.7q0.9 2.4 1.6 5c0.7 2 1.2 4.2 1.6 6.5q0.3-3.5 1.3-6.8 0.1 0 0.1 0c-0.3-0.2-0.6-0.6-0.6-0.9 0-0.7 0.5-1.2 1.2-1.2 0.6 0 1.1 0.5 1.1 1.2 0 0.6-0.5 1.1-1.1 1.1q-0.2 0-0.3-0.1c-0.9 2.7-1.4 5.6-1.5 8.5 0.4 2.5 0.6 5.1 0.8 7.7q0 1.3 0 2.6c0.7-1.8 1.7-4.9 1.8-7.5v-0.3q0.1-0.4 0.1-1 0 0 0-0.1c-0.1-0.1-0.3-3.8 0.8-8.5 1.3-5.4 4-8.7 5.8-10.8l0.4-0.5c1.8-2.1 2.2-3.3 2.2-3.3 0-0.2 0.2-0.3 0.4-0.3 0.2 0 0.3 0.1 0.3 0.3 0.4 2.3 0.2 4.1 0 5.2 2.2-1.9 4.2-3.7 5.1-5.5 0.1-0.1 0.3-0.2 0.5-0.1 0.2 0 0.3 0.2 0.2 0.4-0.5 1.7-0.9 3.8-1.3 6-0.5 2.5-1.1 5.2-1.8 7.8 0.8-0.8 2.2-1.9 3.8-2.8 0.2-0.1 0.4-0.1 0.5 0.1 0.1 0.1 0.1 0.3 0 0.4 0 0.1-1.5 2.3-2.9 6.1-1.7 4.7-4.1 7.9-6.8 9.2-4.2 1.9-6.9 3.6-7.9 4.8q0 0-0.1 0.1-0.4 0.7-0.8 1.5-0.2 0.5-0.2 0.6-0.1 0.1-0.1 0.2-0.2 4.4-0.8 8.9c1.2-2.1 2.7-4 4.6-5.6q0 0 0 0c-0.2-0.2-0.3-0.5-0.3-0.8 0-0.8 0.7-1.4 1.5-1.4 0.8 0 1.4 0.6 1.4 1.4 0 0.8-0.6 1.5-1.4 1.5-0.4 0-0.7-0.2-1-0.4q0 0 0 0c-2.1 1.8-3.8 4.1-5 6.5q-0.2 1.4-0.5 2.7l-0.4 1.9q0.7-0.9 1.5-1.6 0-0.1 0-0.3c0-0.6 0.4-1 1-1 0.6 0 1 0.4 1 1 0 0.6-0.4 1-1 1-0.3 0-0.6-0.1-0.8-0.3q-1.1 0.9-1.9 2.2l-0.3 1.4c-0.4 1.4-0.9 2.9-1.4 4.3-0.3 1.1-0.7 2.1-1.1 3.1q0.6-0.9 1.3-2.1c0.6-0.9 1-1.8 1.4-2.6 1.5-2.8 2.8-5.2 6.6-7.5 2.4-1.3 4.6-2.3 6.8-3.2 2.5-1 4.8-2 7-3.5 0.2-0.1 0.4-0.1 0.5 0.1 0.2 0.1 0.2 0.3 0 0.5-1.4 1.8-2.6 4.2-3.9 6.7-1.3 2.8-2.7 5.6-4.6 7.8 1.6-0.4 4.5-0.9 8.3-0.9 0.2 0 0.4 0.1 0.4 0.3zm-62.4 55.4q0 0 0 0 0 0 0 0zm45.6-81.8c0.4-1.2 0.8-2.6 1.2-4 0.8-2.8 1.6-5.6 2.6-7.7 2.1-4.4 6-9.2 8.4-12q-1.2 1.1-2.5 2.3c-2 1.6-4 3.3-5.4 5.1q0 0.1 0 0.1-0.3 0.4-0.6 0.8c-0.9 1.4-1.5 2.9-2 4.4-0.3 1.1-0.6 2.1-0.7 3.1q-0.1 0.2-0.1 0.4 0 0.1 0 0.1c-0.2 1.5-0.3 2.9-0.4 4v0.2c-0.1 1.1-0.2 2.1-0.5 3.2zm4.2-11.6c-1 2.1-1.8 5-2.6 7.7-0.5 1.5-0.9 3-1.3 4.2 2.4-3.4 4.3-6.2 6.8-10.5 1.5-2.6 3-6.2 4.3-9.4 0.7-1.8 1.4-3.6 2.1-4.9-2.1 2.3-6.9 8-9.3 12.9zm7.4 0.1q-0.7 1.6-1.5 3-0.2 0.3-0.3 0.5-0.2 0.2-0.3 0.5c-1.1 1.6-2.6 2.9-5 5.1l-0.9 0.8c-1.2 1.2-2.2 2.3-2.9 3.2 1.7-1.1 4-2.3 5.9-3.2 3.3-1.6 5.4-5.6 6.5-8.7 0.8-2.2 1.6-3.8 2.2-4.9-1.8 1.2-3.1 2.5-3.4 2.7 0 0.2-0.2 0.5-0.3 1zm1.8-10.4q0.3-1.5 0.6-2.9c-0.7 1.4-1.5 3.3-2.3 5.4-1.3 3.2-2.8 6.8-4.3 9.4-2.3 3.9-4 6.6-6.1 9.6 1-1.1 2.1-2.1 3.2-3 0.9-0.9 1.8-1.7 2.7-2.6q0 0 0 0 1-1.1 1.9-2.4c0.7-1.2 1.4-2.5 1.8-3.4 1.1-3.1 1.9-6.8 2.5-10.1zm-12.3 10.3c0.4-1.4 1-2.9 1.8-4q0.3-0.4 0.6-0.8 0.1-0.2 0.2-0.3c2.2-2.8 4.5-4.6 5-5 0.2-0.5 0.6-2.2 0.4-4.6-0.3 0.6-0.9 1.4-1.7 2.4l-0.4 0.5c-1.8 2.2-4.4 5.2-5.6 10.4q-0.2 0.7-0.3 1.4zm-13-41.7q0 0.9 0 1.8c-0.1 5.1-0.1 12.7 2.4 17q0.1-1 0.3-2c0.4-3 0.8-6.1 0.4-11-0.2-3.4-0.9-7.4-1.6-10.9-0.4-1.9-0.7-3.7-0.9-5.1-0.2 2.9-0.6 7.8-0.6 10.2zm6.2 5.7c0 0.2 0 1-0.1 2 0 1.4-0.2 3-0.6 4.8-0.4 1.9-1.1 3.8-1.7 5.3q-0.1 0.1-0.1 0.2c-0.5 1-0.8 1.7-1 2 0.1 0.5 0.4 2.1 0.5 4.1q0 0.5 0 0.9c0.8-2.8 2.7-5.4 4.7-8.1l0.5-0.7c2.2-3 2.6-7.4 2.9-10.6 0.1-1.2 0.2-2.3 0.4-3.1 0.6-2.5 1.2-4 2.6-6.1-4.6 2.8-7.7 8.5-8.1 9.3zm-4-11.4c-0.4-1.1-0.8-2.7-1.1-4.1 0.2 1.3 0.5 2.9 0.8 4.7 0.7 3.5 1.4 7.4 1.6 10.8 0.3 5.1-0.1 8.2-0.5 11.2q0 0.4-0.1 0.8 0.2-0.3 0.3-0.6 0.1-0.1 0.1-0.3c0.7-1.6 1.1-3.1 1.4-4.5q0.1-0.2 0.1-0.4c0.3-1.7 0.5-3.2 0.5-4.3q0.1-1 0.1-1.8c-0.1-2.7-1.2-5.8-2.2-8.5q-0.6-1.6-1-3zm-1 23q0.1 0 0.1 0.1c-1.8-4.5-1.7-11-1.7-15.6q0-0.9 0-1.8c0-2.7 0.5-8.3 0.7-11-0.4 1.4-0.8 3.4-1.1 5.5l-0.2 1.4c-0.6 4.1-1.5 9.6-0.9 13.6 0.6 3.8 2 6 3.1 7.8zm-44-29.2c3.1 1.1 8.4 3.1 10.9 4.6 1.8 1 4.1 2.9 6.5 4.8 2 1.6 4 3.2 5.8 4.4-1.1-1.2-2.5-2.8-3.5-3.9q-0.8-0.8-1.6-1.6c-1.5-1.4-3.2-2.8-3.8-3.3-4-3-10.4-4.4-14.3-5zm-0.6 0.2c2.3 1.4 4.4 2.8 6.7 4.3 1.6 1.1 3.2 2.2 5.2 3.5 3.8 2.4 8.6 4.7 11.2 5.8-1.7-1.2-3.5-2.6-5.3-4.1-2.4-1.9-4.7-3.7-6.5-4.8-2.6-1.6-8.3-3.6-11.3-4.7zm15.4 4.2q0.3 0.2 0.5 0.4 1.8 1.5 3.2 2.8 0 0 0 0 0.1 0.2 0.3 0.3 0.7 0.6 1.2 1.2 0.1 0.1 0.2 0.2c1.3 1.3 2.4 2.5 3.1 3.5q-0.3-1.2-0.6-2.5c-0.6-2-1.2-4.3-2.1-6.1-1.2-2.3-3.6-3.8-5.7-5.2-1-0.6-1.9-1.2-2.7-1.9 0.4 1.8 1.2 5.1 2.3 7.1q0.1 0 0.3 0.2zm5.6 9.1q0.5 0.1 1 0.2c-2.7-1.2-6.9-3.2-10.3-5.4-2-1.3-3.7-2.4-5.3-3.5-1.9-1.3-3.6-2.4-5.5-3.6q1.2 1.1 2.7 2.5c2.2 2.1 4.8 4.5 7.2 6.1 2.9 1.8 6.9 2.8 10.2 3.7zm2.8 17.6c4.2 1.5 10.3 2.1 13 2.3-1.6-0.6-3.3-1.3-5.1-2-2-0.9-4.1-1.7-6.1-2.4-3.3-1.2-10.3-3.5-13.1-4.4q0.1 0.1 0.3 0.2c2.2 1.6 6.9 4.8 11 6.3zm-5-5.5q-2.2-0.3-3.9-0.6c3.4 1.1 8.2 2.7 10.9 3.6 2 0.8 4 1.6 6 2.4q2.7 1.1 5.1 2-1.1-0.8-2.3-1.6c-7.2-4.9-10.2-5.2-15.2-5.8zm15.9 8c-3.1-0.2-7.7-0.8-11-2.1-3.2-1.1-6.7-3.2-9.2-4.9q0.7 0.7 1.3 1.4c1.7 1.9 3.3 3.6 6 4.9 4 1.7 8.1 1.3 11.4 0.9q0.8-0.1 1.5-0.2zm-5.9 13.2c1.9-0.4 3.9-0.6 7.4-0.3 3.3 0.3 5.4 1.2 6.9 2.1q0.5 0.3 0.9 0.6c-1-1.4-2.9-3.2-5.8-4.1-2.4-0.8-4.5-0.8-6.7-0.8q-0.2 0-0.3 0c-2.4 0-4.7 0-7.4-0.8 0.6 0.9 2 2.3 4.9 3.4q0 0 0.1-0.1zm-7.8 2.2c2.2 0.3 4.8 0.1 7.4-0.1 1.7-0.1 3.4-0.3 5.1-0.3q0.2 0 0.3 0c4 0 8.8 1.4 10.9 2q-0.4-0.2-0.8-0.5-0.5-0.3-1.1-0.7c-1.6-0.9-4-1.9-7-2.1-3-0.3-6 0.2-6.8 0.3q-0.8 0.2-1.6 0.4c-0.8 0.2-1.6 0.4-2.5 0.5-1.4 0.3-2.8 0.5-3.9 0.5zm12.8 0q-0.1 0-0.2 0c-1.7 0-3.5 0.1-5.1 0.3-2.7 0.2-5.2 0.4-7.5 0.1 2.4 0.8 6.5 1.9 11.4 2.2 3.8 0.2 5.8-0.2 7.6-0.5 1.1-0.1 2.1-0.3 3.4-0.3q0.3 0 0.5 0c-2.2-0.7-6.5-1.8-10.1-1.8zm9.7 2.2c-1.3 0-2.3 0.1-3.4 0.3-1.4 0.3-3 0.5-5.5 0.5q-1 0-2.3 0c-4.2-0.3-8-1.2-10.5-1.9q0.5 0.3 0.9 0.5c2.3 1.5 4.7 3 8.6 3.3 4.1 0.3 7.4-1 9.8-1.9 0.9-0.4 1.7-0.6 2.4-0.8zm3.8 22.5q0.3 0.1 0.6 0.2c-0.7-0.9-1.1-1.7-1.6-2.6-0.8-1.5-1.6-3-3.4-4.9-2.1-2.3-4.1-3.3-6.6-4.5q-1.2-0.6-2.7-1.3c1 0.9 2.5 2.5 4.1 4.4q0.7 0.8 1.3 1.6c1.8 2.3 3.7 4.7 7 6.5q0.7 0.2 1.3 0.6zm-11.7-13q-0.8-0.2-1.7-0.4 1.4 0.7 2.6 1.2c2.5 1.3 4.6 2.3 6.7 4.6 1.8 2 2.6 3.5 3.4 5q0.3 0.6 0.6 1.1-0.2-0.6-0.4-1.3c-0.8-2.5-1.7-5.6-4.2-7.4-2.1-1.6-4.6-2.2-7-2.8zm8.3 11.6q0.2 0.1 0.4 0.1c-2.5-1.6-4.1-3.6-5.6-5.6q-0.6-0.8-1.3-1.6c-1.9-2.3-3.7-4-4.6-4.8 0.7 0.8 1.4 1.9 2.1 3.2q0.3 0.8 0.7 1.5c1 2.5 2.1 4.8 4.7 5.9 1.4 0.6 2.6 1 3.6 1.3zm-0.5 22.9c-1-3-4.6-6.4-7.6-8.1l-0.7-0.3c-2.7-1.5-5.9-3.2-8.1-6.4 0.7 2.1 2.5 5.8 6.5 7.9l1.3 0.7c4.4 2.4 6.1 3.3 8.6 6.2zm-7.7-11.2c1.4 0.7 2.9 1.6 4.2 2.8q0.7 0.5 1.2 1c1.2 1.4 2 2.9 2.5 4.4-0.2-2.9-0.8-5.8-3-8.8-0.9-1.1-1.7-1.9-2.4-2.8-1.1-1.2-2.1-2.4-3.1-3.9 0.1 2.5 0.3 6.3 0.6 7.3zm-8.5-4.1c2 3.3 5.4 5.1 8.1 6.5l0.7 0.4c2.4 1.3 5.8 4.3 7.4 7.3q-0.2-0.7-0.5-1.5c-0.5-1.6-1.4-3.1-2.7-4.5q-0.4-0.4-0.8-0.8c-1.8-1.4-4.2-2.6-4.2-2.6q0-0.1 0-0.1-0.9-0.4-1.8-0.8c-2.3-1-4.4-2-6.2-3.9zm11.5 12.9c1.5 0.6 2.7 1.1 3.5 1.7-2-2.1-3.7-3-7.6-5.1l-1.3-0.7c-4.2-2.3-6-6.2-6.7-8.3 0.5 3 1.9 7.6 6.4 9.8 2.3 1.2 4.2 1.9 5.7 2.6zm-18.7 28.2c0.3 1.2 0.4 1.4 0.6 2.9q0 0.1 0 0.2 0.1-0.1 0.1-0.1c1-1.9 2.2-4.3 2.2-7.7-0.1-2.2-0.6-3.9-1.2-5.6q-0.3-0.9-0.5-1.7c-0.2 0.9-0.4 1.9-0.7 2.9-0.9 2.7-1.2 6-0.7 8.1zm-66.1 2.9q0 0.1 0 0.1 0-0.1 0-0.2c0.3-1.4 0.3-1.6 0.6-2.8l0.3-1.1c0.5-2 0.2-5.3-0.7-8.1-0.4-0.9-0.6-1.9-0.7-2.8q-0.3 0.8-0.6 1.6c-0.5 1.7-1.1 3.5-1.1 5.7-0.1 3.4 1.2 5.7 2.2 7.6zm-14.2-34.9l1.4-0.7c3.9-2.2 5.7-5.9 6.4-7.9-2.1 3.2-5.4 4.9-8.1 6.4l-0.6 0.3c-3.1 1.6-6.6 5.1-7.7 8.1 2.6-2.9 4.2-3.8 8.6-6.2zm8.2-8.6c-0.7 2.1-2.5 6-6.7 8.2l-1.3 0.8c-3.9 2-5.6 2.9-7.6 5 0.9-0.5 2-1 3.6-1.7 1.5-0.6 3.3-1.4 5.6-2.5 4.5-2.2 6-6.9 6.4-9.8zm-8.6 4.2q0 0 0 0c0 0-2.4 1.3-4.1 2.7q-0.5 0.4-0.8 0.8c-1.4 1.4-2.3 2.9-2.8 4.5q-0.3 0.8-0.4 1.5c1.5-3 4.9-6 7.4-7.3l0.6-0.4c2.7-1.4 6.1-3.2 8.2-6.5-1.9 1.9-4 2.9-6.2 3.9q-0.9 0.4-1.9 0.8zm-8.4 7.5c0.5-1.4 1.3-2.9 2.6-4.3q0.5-0.5 1.1-1c1.4-1.3 2.8-2.1 4.2-2.8 0.3-1.1 0.5-4.8 0.6-7.3-0.9 1.5-2 2.7-3 3.9-0.8 0.8-1.6 1.7-2.4 2.8-2.3 3-2.9 5.8-3.1 8.7zm-2.4-19.1c3.3-1.7 5.2-4.1 7-6.5q0.7-0.8 1.3-1.5c1.6-2 3.1-3.5 4.1-4.5q-1.4 0.8-2.7 1.4c-2.5 1.2-4.5 2.2-6.6 4.4-1.7 2-2.6 3.5-3.3 5-0.5 0.8-1 1.7-1.6 2.6q0.3-0.1 0.6-0.3 0.6-0.3 1.2-0.6zm13.2-12.7c-0.9 0.9-2.7 2.6-4.6 4.9q-0.6 0.8-1.2 1.6c-1.6 1.9-3.2 3.9-5.6 5.6q0.2 0 0.3-0.1c1.1-0.3 2.2-0.7 3.6-1.3 2.7-1.2 3.7-3.5 4.8-5.9q0.3-0.8 0.7-1.5c0.6-1.3 1.3-2.4 2-3.3zm-14 10.5q-0.2 0.8-0.4 1.4 0.3-0.6 0.6-1.1c0.8-1.5 1.7-3 3.5-5 2.1-2.4 4.1-3.3 6.7-4.6q1.1-0.5 2.5-1.3-0.8 0.3-1.7 0.5c-2.4 0.6-4.9 1.2-7 2.8-2.4 1.8-3.4 4.9-4.2 7.3zm25-20.7c-2.5 0.7-6.2 1.6-10.5 1.8q-1.2 0.1-2.3 0.1c-2.5 0-4-0.3-5.5-0.5-1.1-0.2-2.1-0.4-3.4-0.4 0.7 0.2 1.5 0.5 2.4 0.9 2.4 0.9 5.7 2.1 9.8 1.8 3.9-0.2 6.3-1.8 8.6-3.2q0.5-0.3 0.9-0.5zm-21.6 0.7c1.3 0 2.3 0.1 3.4 0.3 1.8 0.3 3.8 0.7 7.7 0.4 4.8-0.2 8.9-1.3 11.3-2.1-2.2 0.2-4.8 0-7.4-0.2-1.7-0.1-3.4-0.2-5.1-0.2q-0.1 0-0.3 0c-3.5 0-7.8 1.1-10.1 1.8q0.3 0 0.5 0zm16.1-2.9q-0.8-0.2-1.6-0.3c-0.9-0.2-3.9-0.7-6.9-0.4-3 0.3-5.4 1.3-7 2.1q-0.6 0.4-1.1 0.8-0.4 0.3-0.7 0.5c2-0.7 6.8-2 10.8-2q0.2 0 0.3 0c1.7 0 3.4 0.1 5.1 0.3 2.7 0.1 5.2 0.3 7.4 0.1-1.1-0.1-2.4-0.2-3.9-0.5-0.9-0.2-1.7-0.4-2.4-0.6zm-16.7 1.2q0.4-0.2 0.9-0.5c1.5-0.9 3.6-1.9 7-2.1 3.4-0.3 5.5-0.1 7.3 0.3q0.1 0 0.2 0c2.8-1 4.2-2.4 4.8-3.3-2.6 0.8-5 0.8-7.3 0.8q-0.2 0-0.3 0c-2.3 0-4.4 0-6.7 0.7-3 1-4.9 2.8-5.9 4.1zm23.8-39.2c-1.1 1.1-2.5 2.7-3.5 3.9 1.7-1.2 3.8-2.8 5.7-4.3 2.5-2 4.8-3.8 6.6-4.9 2.5-1.5 7.8-3.5 10.9-4.5-3.9 0.5-10.4 1.9-14.3 4.9-0.7 0.5-2.4 2-3.8 3.3q-0.9 0.9-1.6 1.6zm9-5c-1.8 1.1-4.1 2.9-6.5 4.9-1.8 1.4-3.7 2.9-5.3 4 2.6-1.1 7.3-3.3 11.2-5.8 1.9-1.3 3.6-2.4 5.2-3.5 2.3-1.5 4.3-2.9 6.6-4.2-2.9 1-8.7 3.1-11.2 4.6zm10.4-3.7c-1.9 1.2-3.7 2.4-5.6 3.7-1.6 1-3.2 2.1-5.2 3.4-3.4 2.2-7.6 4.2-10.3 5.5q0.5-0.2 1-0.3c3.2-0.8 7.2-1.8 10.1-3.7 2.5-1.6 5-4 7.3-6.1q1.4-1.3 2.7-2.5zm-22.4 9.2q-0.4 1.3-0.7 2.4c0.8-1 1.8-2.1 3.2-3.5q0-0.1 0.1-0.2 0.6-0.5 1.3-1.2 0.1-0.1 0.2-0.2 0.1 0 0.1-0.1 1.4-1.3 3.1-2.8 0.3-0.2 0.5-0.3 0.2-0.2 0.3-0.3c1.1-1.9 1.9-5.3 2.3-7.1-0.8 0.7-1.7 1.3-2.7 1.9-2.1 1.4-4.5 2.9-5.6 5.2-1 1.8-1.6 4.1-2.1 6.2zm-20.8-8.7c-0.2 1.5-0.5 3.2-0.9 5.2-0.6 3.5-1.4 7.4-1.6 10.8-0.3 5 0.1 8.1 0.5 11q0.1 1 0.2 2c2.6-4.2 2.5-11.9 2.5-17q0-0.9 0-1.7c0-2.5-0.4-7.4-0.7-10.3zm0.4-0.8c0.2 2.7 0.6 8.3 0.6 11.1q0 0.8 0 1.7c0.1 4.6 0.1 11.1-1.6 15.6q0-0.1 0-0.1c1.1-1.7 2.6-3.9 3.1-7.8 0.6-4-0.2-9.5-0.9-13.5l-0.2-1.5c-0.3-2.1-0.7-4-1-5.5zm-5.1 18.6c0.1 1.1 0.2 2.6 0.5 4.4q0.1 0.1 0.1 0.3c0.3 1.4 0.8 2.9 1.4 4.5q0.1 0.2 0.2 0.4 0.1 0.3 0.2 0.6 0-0.5-0.1-0.9c-0.4-3-0.8-6.1-0.5-11.1 0.2-3.4 1-7.4 1.7-10.9 0.3-1.7 0.6-3.3 0.8-4.7-0.4 1.5-0.8 3.1-1.1 4.1q-0.5 1.4-1.1 3c-0.9 2.7-2.1 5.8-2.1 8.5q0 0.8 0 1.8zm2.2 17.5q0-0.5 0-1c0-2 0.3-3.6 0.4-4-0.1-0.3-0.5-1.1-0.9-2.1q-0.1-0.1-0.1-0.2c-0.6-1.4-1.4-3.4-1.7-5.3-0.4-1.8-0.6-3.3-0.7-4.7-0.1-1.1-0.1-1.8-0.1-2.1-0.4-0.7-3.5-6.5-8-9.3 1.3 2.1 2 3.6 2.5 6.2 0.2 0.8 0.3 1.8 0.4 3.1 0.3 3.2 0.8 7.6 2.9 10.5l0.5 0.7c2 2.7 3.9 5.3 4.8 8.2zm34-12.3c-2.8 0.9-9.7 3.1-13.1 4.3-2 0.7-4 1.6-6 2.4-1.8 0.7-3.5 1.4-5.2 2 2.7-0.2 8.8-0.7 13-2.2 4.1-1.5 8.9-4.8 11.1-6.3q0.1-0.1 0.2-0.2zm-2 1.9c-2.5 1.6-6 3.8-9.1 4.9-3.4 1.2-7.9 1.8-11 2.1q0.6 0.1 1.4 0.2c3.3 0.3 7.5 0.8 11.4-1 2.7-1.2 4.3-3 6-4.8q0.6-0.7 1.3-1.4zm-22.3 6.4q2.4-0.9 5-2c2-0.8 4.1-1.6 6.1-2.3 2.6-1 7.5-2.6 10.8-3.7q-1.7 0.4-3.9 0.6l-0.6 0.1c-5 0.5-8 0.8-15.1 5.7q-1.3 0.9-2.3 1.6zm-28.1 10.8q-1.3-1.1-2.5-2.2c2.3 2.7 6.2 7.6 8.3 11.9 1.1 2.1 1.9 5 2.6 7.7 0.4 1.5 0.8 2.8 1.2 4-0.2-1-0.4-2.1-0.5-3.2v-0.2c0-1.1-0.1-2.4-0.3-4q0 0 0 0-0.1-0.3-0.1-0.5c-0.2-0.9-0.4-2-0.7-3.1-0.5-1.5-1.1-3-2.1-4.4q-0.2-0.4-0.5-0.8 0 0-0.1 0c-1.4-1.8-3.4-3.6-5.3-5.2zm-3.8-3.1c0.6 1.3 1.3 3.1 2.1 4.9 1.3 3.2 2.8 6.8 4.3 9.4 2.5 4.3 4.3 7.1 6.7 10.5-0.4-1.2-0.8-2.6-1.2-4.2-0.8-2.7-1.6-5.6-2.6-7.6-2.5-5-7.3-10.7-9.3-13zm4.7 2.8c0.6 0.4 2.9 2.2 5 5q0.1 0.1 0.3 0.3 0.3 0.4 0.6 0.8c0.7 1.2 1.3 2.6 1.8 4q-0.1-0.6-0.3-1.3c-1.3-5.3-3.8-8.3-5.7-10.5l-0.4-0.5c-0.8-0.9-1.3-1.7-1.7-2.3-0.1 2.3 0.3 4.1 0.4 4.5zm-4.7-0.2c0.7 3.4 1.4 7 2.6 10.1 0.4 0.9 1 2.3 1.8 3.5q0.8 1.3 1.9 2.4 0 0 0 0c0.8 0.8 1.7 1.7 2.7 2.5 1.1 1 2.2 2 3.2 3.1-2.1-3.1-3.9-5.7-6.2-9.7-1.5-2.6-3-6.2-4.3-9.4-0.8-2-1.6-3.9-2.3-5.3q0.3 1.3 0.6 2.8zm12.8 23.5c-0.8-0.9-1.7-2-2.9-3.1l-1-0.9c-2.4-2.2-3.8-3.5-4.9-5.1q-0.2-0.2-0.3-0.5-0.2-0.2-0.3-0.4-0.9-1.4-1.5-3.1c-0.2-0.4-0.3-0.8-0.4-0.9-0.3-0.3-1.5-1.6-3.3-2.8 0.5 1.1 1.4 2.7 2.2 4.9 1.1 3.1 3.1 7.2 6.4 8.7 1.9 0.9 4.2 2.1 6 3.2zm-8.8 14.5q-1.8-0.7-3.5-1.5 1.5 1 3.9 2.5c4 2.4 6 4.2 9.2 7.7 1.2 1.3 2.2 2.4 3.2 3.4 1.2 1.3 2.3 2.5 3.4 3.7-0.5-0.7-1-1.6-1.7-2.8-0.6-0.9-1-1.8-1.5-2.6-1.4-2.7-2.6-5-6.3-7.2-2.3-1.3-4.5-2.3-6.7-3.2zm12.5 12.4c-0.9-1.1-2-2.2-3.2-3.4-3.2-3.5-5.1-5.3-9.1-7.7-2.2-1.4-4-2.5-5.1-3.3 0.8 1 1.6 2.1 2.5 3.3 2.1 3 4.5 6.3 7.7 8.8 3.4 2.6 5.8 3.7 7.9 4.6 0.9 0.4 1.8 0.8 2.6 1.2-1-1.1-2.1-2.2-3.3-3.5zm-15.1-9.6c1.6 3.2 3.2 6.4 5.4 8.6q0 0 0 0c0 0 1 1 2.9 2q0.1 0.1 0.2 0.2c1.8 0.7 3.4 1.1 4.8 1.5 1.7 0.3 3.1 0.6 4.2 1q0.3 0 0.6 0.1c-0.8-0.4-1.6-0.8-2.5-1.1-2.1-1-4.5-2.1-7.9-4.7-3.3-2.5-5.7-5.9-7.8-8.9q-1-1.3-1.8-2.4 1 1.8 1.9 3.7zm19.6 14.8q-0.8-0.4-2.3-0.8-0.6-0.1-1.3-0.3-1.3-0.2-2.9-0.6-0.1-0.1-0.2-0.1c-2.1-0.3-3.7-1-5-1.7q-1.7-0.8-3-2.1c-0.5-0.2-2.9-0.9-6.5-1.1 1.1 0.5 2.4 1.2 3.7 2.3 0.8 0.8 1.6 1.7 2.3 2.6 1.7 2.1 3.2 3.9 6.1 3.9q0.2 0 0.3 0c2.2-0.1 3.7-0.6 5.3-1.2 1.1-0.4 2.3-0.8 3.5-0.9zm12.5 11.4c0.2 2 0.6 3.4 1 4.4-0.2-0.7-0.3-1.5-0.1-2.3 0.2-1.1 0.8-1.9 1.5-2.8 0.9-1.1 2-2.5 2.3-4.7 0.1-1.2 0-3.1-0.2-5-0.2-1.6-0.3-3.3-0.3-4.7-0.3 0.7-0.4 1.4-0.5 2.1-0.2 0.8-0.3 1.6-0.7 2.4q-0.3 0.6-0.8 1.3c-1.1 2-2.8 4.6-2.2 9.3zm-14 12.6c1.1-0.1 2.3-0.3 3.8-0.8 1.4-0.4 2.3-0.9 3.2-1.4 1.3-0.7 2.5-1.4 4.6-1.6 2.3-0.4 4.9 0.3 6.6 0.8-1.6-1-4.1-2-7.1-1.8-3.3 0.2-5.4 1.5-7.4 2.9-1.2 0.8-2.4 1.5-3.7 1.9zm3.7 0.7c2.1 0 3.4-0.7 5.2-1.6q1-0.5 2.4-1.1c2-0.9 4.7-0.9 6.5-0.7-1.6-0.5-4.1-1-6.2-0.8-2 0.3-3.1 0.9-4.4 1.6-0.9 0.5-1.9 1.1-3.3 1.5-1.8 0.6-3.3 0.7-4.6 0.9q-0.5 0-1 0.1 0.6 0 1.2 0.1c1.1 0 2.3 0.1 4.2 0zm-4.4-4.8c1.6 1.1 3.3 1.5 3.8 1.6 3.1-2.2 5.6-2.9 7.3-3.1-2.6-0.8-6.1-0.9-8.7-0.6-2.1 0.2-3.9 0.3-5.2 0.3 0.8 0.5 1.9 1.1 2.8 1.8zm17.8 1.7c-1.8-0.1-4 0-5.7 0.8q-1.3 0.5-2.3 1c-1.8 0.9-3.2 1.6-5.4 1.7q-0.8 0.1-1.4 0.1-0.3 0-0.5 0c1.5 0.2 3 0.3 4.7 0.2 2.8-0.2 4-1 5.4-1.9 0.8-0.4 1.6-1 2.7-1.3 0.8-0.3 1.7-0.5 2.5-0.6zm32.7 15.4c-0.7 0.1-1.2 0.1-1.7 0.1q-0.2 0-0.4 0c-1.1 0-2.2 0.1-3.9 0.9-2 0.9-2.9 2.1-3.9 3.3-0.3 0.5-0.7 1-1.2 1.4 1.7-0.1 5.1-0.6 7.4-2.2 2-1.4 3.1-2.7 3.7-3.5zm7.9 0.8q0.3 0 0.7 0.1c0-0.8 0-2.5-0.7-4.4-0.5-1.3-1.4-2.4-2.4-3.6-0.6-0.8-1.3-1.6-1.8-2.4q0 0.4 0 0.9c0.1 1.7 0.1 3.4 0.8 5.5 0.7 2.1 2.3 3.3 3.4 3.9zm-14.7-11.8c0.2 0.7 0.4 1.4 0.5 2.4v0.5q0.1 0.6 0.2 1.3 0 0 0 0 0.1 0.9 0.3 1.6 0 0.3 0.1 0.6c0.1 0.5 0.3 1 0.5 1.3q0-0.2 0.1-0.3c0.3-0.8 0.7-1.7 0.7-3.4 0.1-1.5-0.2-3.1-0.5-4.5q-0.2-0.9-0.3-1.7c-0.2-1.4-0.3-2.4-0.3-3.1-1.2 2.6-1.3 4.8-1.3 5.3zm-2.8-1.3q-0.2-0.4-0.4-0.8c-0.7-1.3-1.2-3-1.6-4.3 0.2 3 1.2 6.1 2.2 8 0.6 1.2 1.1 1.9 1.7 2.5 0.3 0.4 0.6 0.8 0.9 1.3-0.7-2.9-1.8-4.9-2.8-6.7zm-0.6-2.9q-0.4-0.7-0.8-1.5c0.4 1.1 0.8 2.4 1.3 3.4q0.3 0.4 0.5 0.8c0.7 1.4 1.6 3 2.3 5.1q-0.1-0.3-0.1-0.6l-0.1-0.5c-0.4-3.2-1.3-4.3-2.3-5.7q-0.4-0.5-0.8-1zm2.9 9.9q0.2 0.2 0.4 0.4c-0.4-0.7-0.7-1.2-1.2-1.7-0.4-0.6-1-1.4-1.7-2.6-0.8-1.6-1.6-4-2-6.5 0 2.4 0.3 4.6 1.2 6.5 0.9 1.8 2.1 2.9 3.3 3.9zm-16.4 1.3c0.6-0.4 1.3-0.8 2-1.2 1.8-1 3.3-1.4 4.1-1.6-0.4-0.1-1.1-0.2-1.9-0.2-0.9 0-2 0.2-3.2 0.6-2.1 0.8-3.3 1.7-4.5 2.6q-0.4 0.3-0.8 0.6c-1.5 1-2.5 1.7-3.1 2q0.1 0 0.1 0c3.9-0.5 5.6-1.6 7.3-2.8zm-6.9 2c0.6-0.3 1.4-0.8 2.4-1.5q0.4-0.3 0.8-0.6c1.2-0.9 2.5-1.9 4.6-2.7q0.7-0.2 1.3-0.3c-2.2 0.1-3.9 0.6-4.8 1.1-1.4 0.7-2.2 1.7-3.3 3l-0.1 0.1q-0.5 0.5-0.9 0.9zm13-4.3c-0.9 0.1-2.2 0.5-3.9 1.4-0.7 0.4-1.4 0.8-2 1.3-1.3 0.9-2.6 1.7-4.9 2.3 1.7 0 3.5-0.1 5.2-0.9 1.9-0.9 2.7-1.8 3.4-2.5 0.4-0.5 0.8-0.9 1.5-1.3q0.4-0.2 0.7-0.3zm44 6.4q-0.2 0-0.4 0c-0.5 0-1.1 0-1.7-0.1 0.6 0.8 1.7 2.1 3.7 3.5 2.3 1.6 5.6 2.1 7.3 2.2-0.4-0.4-0.8-0.9-1.2-1.4-0.9-1.2-1.8-2.4-3.8-3.3-1.7-0.8-2.8-0.9-3.9-0.9zm9.7-15.8c-0.4 2.5-1.2 4.9-2.1 6.5-0.6 1.2-1.2 2-1.7 2.6-0.4 0.5-0.8 1-1.1 1.7q0.2-0.2 0.3-0.4c1.3-1 2.5-2.1 3.3-3.9 1-1.9 1.3-4.1 1.3-6.5zm-4.1 8.8c0.5-0.6 1.1-1.3 1.7-2.5 1-1.9 2-5 2.2-8-0.4 1.3-0.9 3-1.6 4.3q-0.2 0.4-0.5 0.8c-0.9 1.8-2 3.8-2.7 6.7 0.3-0.5 0.6-0.9 0.9-1.3zm-0.6-1.6l-0.1 0.5q0 0.3-0.1 0.6c0.7-2.1 1.6-3.7 2.3-5.1q0.2-0.4 0.4-0.8c0.6-1 1-2.3 1.4-3.4q-0.4 0.8-0.9 1.5-0.4 0.5-0.7 1c-1.1 1.4-1.9 2.5-2.3 5.7zm-2 4.9q0 0.1 0.1 0.3c0.2-0.3 0.4-0.8 0.5-1.3q0.1-0.3 0.1-0.6 0.1-0.7 0.3-1.6 0.1-0.7 0.1-1.3l0.1-0.5c0.1-1 0.3-1.7 0.5-2.4 0-0.5-0.1-2.7-1.3-5.3 0 0.7-0.1 1.7-0.3 3.1q-0.1 0.8-0.3 1.7c-0.3 1.4-0.6 3-0.5 4.5 0 1.7 0.4 2.6 0.7 3.4zm-13.7 4.5q0.3-0.1 0.7-0.1c1.1-0.6 2.7-1.8 3.4-3.9 0.6-2.1 0.7-3.8 0.7-5.5q0.1-0.5 0.1-0.9c-0.6 0.8-1.2 1.6-1.9 2.4-0.9 1.2-1.8 2.3-2.3 3.6-0.8 1.9-0.8 3.6-0.7 4.4zm39.7-2.1c-0.7-0.3-1.7-1-3.1-2q-0.5-0.3-0.9-0.6c-1.1-0.9-2.4-1.8-4.5-2.6-1.1-0.4-2.2-0.6-3.1-0.6-0.8 0-1.5 0.1-2 0.2 0.9 0.2 2.4 0.6 4.2 1.6 0.7 0.4 1.4 0.8 2 1.2 1.7 1.2 3.4 2.3 7.2 2.8q0.1 0 0.2 0zm-7.9-1c1.6 0.8 3.5 0.9 5.2 0.9-2.3-0.6-3.6-1.4-4.9-2.3-0.6-0.5-1.3-0.9-2-1.3-1.7-0.9-3.1-1.3-3.9-1.4q0.3 0.1 0.7 0.3c0.7 0.4 1.1 0.8 1.5 1.3 0.7 0.7 1.4 1.6 3.4 2.5zm3.1-3.8c-0.9-0.5-2.6-1-4.8-1.1q0.6 0.1 1.3 0.3c2.1 0.8 3.4 1.8 4.6 2.7q0.4 0.3 0.8 0.6c1 0.7 1.7 1.2 2.3 1.5q-0.4-0.4-0.8-0.9l-0.1-0.1c-1.1-1.3-1.9-2.3-3.3-3zm8.6-17.5c0.1 0.8 0.1 1.6-0.1 2.3 0.4-1 0.8-2.4 1-4.4 0.5-4.7-1.1-7.3-2.3-9.3q-0.4-0.7-0.7-1.3c-0.4-0.8-0.5-1.6-0.7-2.4-0.1-0.7-0.2-1.4-0.5-2.1 0 1.4-0.1 3.1-0.3 4.7-0.2 1.9-0.4 3.8-0.2 5 0.3 2.2 1.4 3.6 2.3 4.7 0.7 0.9 1.3 1.7 1.5 2.8zm-3.3 7.5c1.6-0.5 4.3-1.2 6.6-0.8 2.1 0.3 3.3 0.9 4.5 1.6 1 0.5 1.9 1 3.3 1.4 1.5 0.5 2.7 0.7 3.8 0.8-1.3-0.4-2.5-1.1-3.7-1.9-2.1-1.4-4.1-2.7-7.4-2.9-3-0.2-5.5 0.8-7.1 1.8zm18.6 3.7q0.7-0.1 1.3-0.1-0.5-0.1-1-0.1c-1.3-0.2-2.8-0.3-4.6-0.9-1.4-0.4-2.4-1-3.3-1.5-1.3-0.7-2.4-1.3-4.4-1.6-2.1-0.2-4.6 0.3-6.2 0.8 1.8-0.2 4.5-0.2 6.5 0.7q1.3 0.6 2.3 1.1c1.9 0.9 3.2 1.6 5.3 1.6 1.8 0.1 3.1 0 4.1 0zm-2.2 0.4q-0.3 0.1-0.5 0.1-0.7 0-1.4-0.1c-2.2-0.1-3.6-0.8-5.4-1.7q-1-0.5-2.3-1c-1.7-0.8-4-0.9-5.7-0.8 0.8 0.1 1.6 0.3 2.5 0.6 1.1 0.3 1.9 0.9 2.7 1.3 1.3 0.9 2.6 1.7 5.4 1.9 1.7 0.1 3.2 0 4.7-0.3zm-8.6-6.7c1.6 0.2 4.2 0.9 7.3 3.1 0.5-0.1 2.2-0.5 3.7-1.6 1-0.7 2-1.3 2.9-1.8-1.3 0-3.1-0.1-5.2-0.3-2.6-0.3-6.2-0.2-8.7 0.6zm30.4-36.9q-0.8 1.1-1.8 2.4c-2.1 3-4.5 6.4-7.8 8.9-3.4 2.6-5.8 3.7-8 4.7-0.8 0.3-1.6 0.7-2.4 1.1q0.3-0.1 0.6-0.1c1.1-0.4 2.5-0.7 4.2-1 1.4-0.4 2.9-0.8 4.7-1.5q0.2-0.1 0.3-0.2c1.9-1 2.9-2 2.9-2q0 0 0 0c2.2-2.2 3.8-5.4 5.4-8.6q0.9-1.9 1.9-3.7zm-17.7 15.6c2.1-0.9 4.5-2 7.8-4.6 3.3-2.5 5.7-5.8 7.8-8.8 0.9-1.2 1.7-2.3 2.5-3.3-1.2 0.8-2.9 1.9-5.1 3.3-4 2.4-6 4.2-9.2 7.7-1.1 1.2-2.2 2.4-3.1 3.4-1.2 1.3-2.3 2.4-3.4 3.5 0.9-0.4 1.8-0.8 2.7-1.2zm-3 1.1c1-1.2 2.1-2.4 3.4-3.7 0.9-1 2-2.1 3.1-3.4 3.3-3.5 5.3-5.3 9.3-7.7q2.3-1.5 3.9-2.5-1.7 0.8-3.5 1.5c-2.2 0.9-4.4 1.9-6.7 3.2-3.7 2.2-4.9 4.5-6.4 7.2-0.4 0.8-0.8 1.7-1.4 2.6-0.7 1.2-1.3 2.1-1.7 2.8zm20.4-4.9c-3.6 0.2-6 0.9-6.5 1.1q-1.3 1.3-3 2.1c-1.3 0.7-2.9 1.4-5 1.7q-0.1 0-0.2 0.1-1.6 0.4-2.9 0.6-0.7 0.2-1.3 0.3-1.5 0.4-2.3 0.8c1.2 0.1 2.4 0.5 3.5 0.9 1.5 0.6 3.1 1.1 5.3 1.2q0.1 0 0.2 0c2.9 0 4.4-1.8 6.2-3.9 0.7-0.9 1.4-1.8 2.3-2.6 1.3-1.1 2.6-1.8 3.7-2.3z"/>
	<path id="Layer" class="s0" d="m109 129.1l-0.9 2.8 2.5-1.7 2.4 1.8-0.8-2.9 2.4-1.8h-3l-0.9-2.9-1 2.8-3 0.1z"/>
	<path id="Layer" class="s0" d="m123.9 125.3l-0.8-2.3-0.8 2.3h-2.5l2 1.5-0.8 2.4 2.1-1.4 1.9 1.4-0.6-2.3 1.9-1.5z"/>
	<path id="Layer" class="s0" d="m134.1 120.3l-0.7-2.1-0.8 2.1h-2.2l1.8 1.3-0.7 2.1 1.8-1.2 1.8 1.3-0.6-2.1 1.8-1.3z"/>
	<path id="Layer" class="s0" d="m141.8 112.6l-0.7-2.1-0.8 2.1h-2.1l1.7 1.3-0.7 2.1 1.8-1.2 1.8 1.3-0.6-2.1 1.8-1.4z"/>
	<path id="Layer" class="s0" d="m99.3 125.3l-0.8-2.3-0.8 2.3-2.4 0.1 2 1.5-0.7 2.3 2-1.4 2 1.4-0.7-2.4 1.9-1.5z"/>
	<path id="Layer" class="s0" d="m89 120.3l-0.8-2.1-0.7 2.1-2.1 0.1 1.7 1.3-0.6 2.1 1.8-1.3 1.8 1.2-0.7-2.1 1.8-1.3z"/>
	<path id="Layer" class="s0" d="m81.3 112.6l-0.8-2.1-0.7 2.1h-2.2l1.8 1.4-0.6 2.1 1.8-1.3 1.8 1.2-0.7-2.1 1.8-1.3z"/>
	<path id="Layer" class="s0" d="m131.7 78.7c2.9-0.1 5.2-2.5 5.7-5.4 0.1-1.3-0.1-2.7 0-4 0-1.9-0.9-3.4-2.6-3.8-1.7-0.4-3.3 0.4-4 2-0.6 1.6-0.1 3.4 1.5 4.3 1 0.5 0.9 1.1 0.3 1.6-0.6 0.5-1.4 0.9-2.1 0.9-1.3 0.2-2.7 0-4 0q-4 0-7.9 0c-0.1-0.2-0.1-0.4-0.1-0.5q-0.1-5.9-0.1-11.9c0-1.2 0.7-1.9 2.2-2.1q0.1 0.3 0.3 0.5c1 1.7 2.6 2.3 4.3 1.6 1.6-0.6 2.4-2.3 2-4-0.4-1.6-1.8-2.6-3.7-2.5q-1 0-1.9-0.1c-3.7-0.6-7.5 2.2-7.6 5.9-0.2 5.8-0.1 11.6-0.1 17.6 6.1 0 11.9 0.1 17.8-0.1z"/>
	<path id="Layer" class="s0" d="m96.9 55.5c-1.4 0.2-2.5 1.6-2.6 3.1 0 1.5 0.8 2.8 2.2 3.3 1.8 0.7 3.2 0.1 4.7-2.1 1.5 0.2 2.1 0.9 2.1 2.4q-0.1 3.9-0.1 7.8c0 1.4 0 2.8 0 4.4-4.3 0-8.4 0-12.5-0.1-1.2 0-1.9-0.8-2.1-2q0.3-0.2 0.6-0.4c1.7-1 2.3-2.7 1.6-4.4-0.6-1.5-2.3-2.3-3.9-2-1.7 0.4-2.7 1.9-2.6 3.8 0 0.5 0 0.9 0 1.4-0.8 4.4 2.2 8.1 6.7 8.1q7.8 0.1 15.6 0c0.3 0 0.7 0 1-0.1 0-0.2 0.1-0.3 0.1-0.4 0-5.6 0.1-11.2 0-16.8-0.1-3-2.4-5.7-5.4-6.1-1.7-0.2-3.6-0.1-5.4 0.1z"/>
	<path id="Layer" class="s0" d="m90.2 85.1c-3.7 0.1-6.5 3.8-6 7.5q0.1 1.2 0.1 2.3c0 1.7 1 3 2.6 3.4 1.6 0.4 3.2-0.4 3.9-1.8 0.7-1.5 0.2-3.3-1.1-4.3-0.4-0.2-0.7-0.4-1-0.6 0.3-1.6 0.9-2.1 2.4-2.1q5.4 0 10.9 0c0.4 0 0.8 0.1 1.3 0.1 0 4.2 0 8.3-0.1 12.4 0 1.2-0.7 1.9-2 2.1-0.2-0.2-0.3-0.4-0.4-0.6-1-1.7-2.7-2.3-4.3-1.6-1.6 0.6-2.4 2.2-2.1 3.9 0.4 1.7 1.8 2.7 3.8 2.6 0.4 0 0.8 0 1.2 0 4.9 0.8 8.3-2.1 8.3-7.1q0.1-7.5 0-14.9c0-0.4 0-0.9 0-1.3-6 0-11.7-0.2-17.5 0z"/>
	<path id="Layer" class="s0" d="m121.7 108.5q0.9-0.1 1.9-0.1c1.8 0.1 3.3-0.9 3.6-2.6 0.4-1.6-0.5-3.3-2-3.9-1.6-0.6-3.3-0.1-4.2 1.5-0.6 1-1.3 0.8-1.8 0.2-0.4-0.5-0.7-1.3-0.8-2-0.1-1.4 0-3 0-4.5 0-2.4 0-4.9 0-7.3 0.3-0.2 0.3-0.2 0.4-0.2 4.1-0.1 8.1-0.1 12.2-0.1 1.2 0 1.9 0.8 2 2.1q-0.3 0.2-0.6 0.4c-1.6 1-2.3 2.7-1.6 4.3 0.6 1.5 2.3 2.4 3.9 2 1.7-0.4 2.8-1.8 2.7-3.7q-0.1-0.9 0-1.7c0.7-4.2-2.4-7.8-6.7-7.9q-3.6 0-7.2 0c-3.2 0-6.3 0-9.6 0 0 5.9-0.1 11.6 0 17.3 0.1 3.9 3.9 6.8 7.8 6.2z"/>
	<path id="Layer" fill-rule="evenodd" class="s0" d="m52.2 186.9q1.6 1.9 1.6 4.6 0 3.6-2.4 5.8-2.4 2.3-6.7 2.3-1.1 0-2.3-0.2-1.2-0.1-2.6-0.4v8.5q0 2.8 0.6 3.5 0.8 0.9 2.5 0.9h1.1v0.8h-12.6v-0.8h1.1q1.9 0 2.7-1.2 0.4-0.7 0.4-3.2v-19q0-2.7-0.6-3.4-0.8-1-2.5-1h-1.1v-0.8h10.8q3.9 0 6.2 0.9 2.3 0.8 3.8 2.7zm-3.4 5q0-1.9-0.7-3.5-0.8-1.7-2.2-2.5-1.5-0.8-3.3-0.8-1.1 0-2.8 0.4v12.2q1.1 0.3 2 0.4 0.9 0.1 1.5 0.1 2.3 0 3.9-1.8 1.6-1.7 1.6-4.5z"/>
	<path id="Layer" class="s0" d="m63.8 210.7q-0.2-0.6-0.2-2.4v-26.4h-1l-5.9 2.4 0.3 0.8q0.9-0.3 1.5-0.3 0.5 0 0.8 0.2 0.4 0.3 0.5 1.1 0.2 0.8 0.2 4.1v18.1q0 1.8-0.3 2.4-0.3 0.7-0.8 1-0.5 0.3-1.9 0.3v0.7h9.8v-0.7q-1.6 0-2.1-0.4-0.6-0.3-0.9-0.9z"/>
	<path id="Layer" fill-rule="evenodd" class="s0" d="m85.5 210.2q0.5-0.2 1.8-1.5v1.2q-2.4 3.2-4.6 3.2-1.1 0-1.7-0.7-0.7-0.7-0.7-2.5-3 2.3-3.8 2.7-1.2 0.5-2.5 0.5-2.1 0-3.4-1.4-1.3-1.4-1.3-3.7 0-1.4 0.6-2.5 0.9-1.5 3.1-2.8 2.2-1.3 7.3-3.1v-0.8q0-3-0.9-4.1-1-1.1-2.8-1.1-1.3 0-2.1 0.8-0.9 0.7-0.9 1.6l0.1 1.3q0 1-0.5 1.5-0.5 0.6-1.4 0.6-0.8 0-1.3-0.6-0.5-0.5-0.5-1.5 0-1.9 1.9-3.4 1.9-1.6 5.4-1.6 2.6 0 4.3 0.9 1.3 0.7 1.9 2.1 0.4 0.9 0.4 3.8v6.7q0 2.9 0.1 3.5 0.1 0.7 0.4 0.9 0.2 0.2 0.5 0.2 0.4 0 0.6-0.2zm-5.2-9.3q-3.3 1.3-4.2 1.8-1.7 1-2.5 2-0.7 1.1-0.7 2.3 0 1.6 0.9 2.6 1 1 2.2 1 1.6 0 4.3-2.1z"/>
	<path id="Layer" class="s0" d="m93.9 186.4q-0.9 2.1-1.4 3-1 1.5-2.3 2.7-1.2 1.1-2.4 1.6v0.7h3.2v13.4q0 2.1 0.4 3.1 0.5 1.1 1.4 1.6 1 0.6 2 0.6 1.4 0 2.8-1.1 1.4-1.1 2.2-3.2h-0.9q-0.3 0.9-1 1.3-0.7 0.4-1.4 0.4-0.9 0-1.4-0.6-0.6-0.7-0.6-2.6v-12.9h4.7v-1.5h-4.7v-6.5z"/>
	<path id="Layer" class="s0" d="m101.3 195.5q0.9-0.3 1.5-0.3 0.6 0 0.9 0.3 0.3 0.2 0.5 0.9 0.1 1 0.1 4.2v7.6q0 1.9-0.2 2.5-0.3 0.7-0.8 1-0.5 0.3-2 0.3v0.7h9.7v-0.7q-1.4 0-2-0.3-0.5-0.4-0.8-1-0.3-0.6-0.3-2.5v-15.9h-0.9l-6 2.4z"/>
	<path id="Layer" class="s0" d="m107.7 185.7q0.6-0.7 0.6-1.6 0-0.9-0.6-1.5-0.6-0.7-1.6-0.7-0.9 0-1.5 0.7-0.7 0.6-0.7 1.5 0 0.9 0.7 1.6 0.6 0.6 1.5 0.6 1 0 1.6-0.6z"/>
	<path id="Layer" class="s0" d="m131.3 210.8q-0.3-0.7-0.3-2.6v-8.4q0-2.7-0.5-4-0.7-1.9-1.8-2.7-1.2-0.8-2.8-0.8-3.2 0-6.7 4.2v-4.2h-0.9l-6 2.4 0.3 0.8q0.9-0.3 1.5-0.3 0.5 0 0.9 0.3 0.3 0.2 0.5 1 0.1 0.8 0.1 4.4v7.3q0 2.2-0.5 3-0.5 0.8-2 0.8h-0.5v0.7h9.8v-0.7q-1.6 0-2.1-0.3-0.5-0.3-0.8-1-0.3-0.4-0.3-2.5v-10.4q2.6-2.8 5.2-2.8 1.6 0 2.3 1.2 0.7 1.2 0.7 3.9v8.2q0 1.7-0.1 2-0.2 0.8-0.7 1.2-0.6 0.5-2 0.5h-0.4v0.7h9.8v-0.7q-1.4 0-1.9-0.3-0.6-0.4-0.8-0.9z"/>
	<path id="Layer" class="s0" d="m154.5 210.5q-0.4 0-0.8-0.3-0.3-0.3-0.5-1.1-0.2-0.7-0.2-4.2v-12h-6.7v0.8q1.9 0 2.5 0.6 0.6 0.6 0.6 2.3v11.3q-1.6 1.6-2.8 2.2-1.1 0.6-2.1 0.6-1.3 0-2.3-0.9-1-0.9-1-3.6v-13.3h-6.9v0.8q1.5 0 2.1 0.3 0.6 0.2 0.9 0.8 0.3 0.5 0.3 1.9v8.9q0 2.8 0.5 4.3 0.5 1.5 1.7 2.5 1.2 0.9 2.9 0.9 1.5 0 2.8-0.7 1.4-0.7 3.9-3.5v4.2h1l6-2.4-0.3-0.8q-0.9 0.4-1.6 0.4z"/>
	<path id="Layer" class="s0" d="m188.1 210.8q-0.3-0.7-0.3-2.6v-8.5q0-2.7-0.5-3.9-0.7-1.9-1.9-2.7-1.3-0.8-2.9-0.8-1.6 0-3.1 0.8-1.6 0.8-3.8 3.4-0.4-2-1.8-3.1-1.3-1.1-3.2-1.1-1.1 0-2.2 0.5-1.2 0.4-2.1 1.2-0.4 0.4-2.6 2.5v-4.2h-0.9l-6 2.4 0.3 0.8q0.9-0.3 1.5-0.3 0.5 0 0.9 0.3 0.3 0.2 0.4 0.9 0.2 1 0.2 4.3v7.6q0 1.8-0.2 2.4-0.3 0.7-0.9 1-0.5 0.3-1.9 0.3v0.7h9.8v-0.7q-1.6 0-2.1-0.3-0.5-0.3-0.8-0.9-0.3-0.6-0.3-2.5v-10.7q1-1.2 2.8-2.1 1.1-0.7 2.3-0.7 1.7 0 2.7 1.4 0.7 1.1 0.7 3.5v8.5q0 1.8-0.1 2.2-0.3 0.8-0.9 1.2-0.6 0.4-2.2 0.4v0.7h10v-0.7q-1.5 0-2.2-0.4-0.6-0.3-0.8-0.8-0.2-0.5-0.2-2.6v-9.4l-0.1-1 0.1-0.2q1.6-1.6 2.8-2.1 1.1-0.6 2.3-0.6 1.8 0 2.7 1.4 0.6 1 0.6 3.4v8.5q0 1.8-0.1 2.2-0.2 0.7-0.7 1.1-0.8 0.5-2 0.5h-0.4v0.7h9.8v-0.7q-1.4 0-2-0.4-0.5-0.3-0.7-0.8z"/>
	<path id="Layer" class="s0" d="m89.7 237.4h1.1q1 0 2 0.5 0.6 0.4 0.9 1 0.2 0.7 0.2 2.9v19q0 2.6-0.5 3.3-0.8 1.1-2.6 1.1h-1.1v0.8h12.6v-0.8h-1q-1.1 0-2-0.5-0.7-0.4-0.9-1-0.3-0.7-0.3-2.9v-19q0-2.6 0.5-3.3 0.9-1.1 2.7-1.1h1v-0.8h-12.6c0 0 0 0.8 0 0.8z"/>
	<path id="Layer" class="s0" d="m104.5 237.4h1.1q1 0 2 0.5 0.6 0.4 0.8 1 0.3 0.7 0.3 2.9v19q0 2.6-0.5 3.3-0.8 1.1-2.6 1.1h-1.1v0.8h12.6v-0.8h-1q-1.1 0-2-0.5-0.7-0.4-0.9-1-0.3-0.7-0.3-2.9v-19q0-2.6 0.5-3.3 0.9-1.1 2.7-1.1h1v-0.8h-12.6c0 0 0 0.8 0 0.8z"/>
	<path id="Layer" class="s0" d="m119.3 237.4h1q1.1 0 2 0.5 0.7 0.4 0.9 1 0.3 0.7 0.3 2.9v19q0 2.6-0.5 3.3-0.8 1.1-2.7 1.1h-1v0.8h12.6v-0.8h-1.1q-1 0-1.9-0.5-0.7-0.4-1-1-0.2-0.7-0.2-2.9v-19q0-2.6 0.5-3.3 0.8-1.1 2.6-1.1h1.1v-0.8h-12.6c0 0 0 0.8 0 0.8z"/>
</svg>