<svg version="1.2" xmlns="http://www.w3.org/2000/svg" viewBox="0 0 223 283" width="223" height="283">
	<title>New Project</title>
	<style>
		.s0 { fill: #939393 } 
	</style>
	<path id="Layer" fill-rule="evenodd" class="s0" d="m200.4 110c0 0.2-0.1 0.4-0.3 0.4-0.1 0-3.3 0.5-6.3 3.2-0.9 0.8-1.7 1.7-2.4 2.6-1.8 2.2-3.7 4.5-7.1 4.5q-0.2 0-0.3 0c-2.4-0.1-4.2-0.8-5.8-1.3-1.5-0.6-2.9-1.1-4.6-1q-0.4 0.9-0.7 1.7-1.2 2.1-2.4 4.1c0.8-0.6 1.7-1 2.7-1.2q0 0 0 0 0 0 0 0c0-0.7 0.5-1.2 1.1-1.2 0.7 0 1.2 0.5 1.2 1.2 0 0.6-0.5 1.1-1.2 1.1-0.4 0-0.8-0.3-1-0.7q0 0 0 0c-1.3 0.3-2.4 0.9-3.4 1.7-1.6 2.5-3.4 4.9-5.3 7.1 2.2-0.8 4.6-1.3 6.9-1.4q0 0 0 0 0.1 0 0.1 0c0-0.7 0.6-1.2 1.4-1.2 0.7 0 1.3 0.6 1.3 1.4 0 0.7-0.6 1.4-1.3 1.4-0.7 0-1.3-0.6-1.4-1.2q0 0-0.1 0c-2.6 0.1-5.2 0.7-7.5 1.8q-1.1 1.2-2.3 2.4-1.4 1.3-2.7 2.5c1.2-0.5 2.7-0.9 4.4-0.9 2.7-1.6 7.7-1.8 11.3-1.5 3.8 0.4 6.9 0.4 7 0.4 0.2 0 0.3 0.1 0.4 0.3 0 0.2-0.1 0.4-0.3 0.5 0 0-2.4 1.1-4.3 2.5-1.3 0.9-2.6 1.4-3.5 1.6 1 0.7 2 1.2 3.1 1.4 3.8 1 5.4 1.8 5.4 1.9 0.2 0.1 0.3 0.3 0.2 0.5 0 0.2-0.2 0.3-0.5 0.2-2.4-0.7-4.6-0.3-7 0-1.4 0.2-2.8 0.4-4.4 0.4q-0.7 0-1.3-0.1c-3.2-0.2-4.6-1.1-6.1-2-0.8-0.5-1.6-1-2.7-1.4-2.9-1-5.8-0.4-5.8-0.4q0 0 0 0-2.6 2-5.3 3.8 3.6-0.2 7.2 0.3c0.2-0.4 0.6-0.6 1-0.6 0.6 0 1.1 0.4 1.1 1 0 0.6-0.5 1.1-1.1 1.1-0.6 0-1.1-0.5-1.1-1.1q0 0 0 0c-2.6-0.4-5.2-0.5-7.9-0.3q-0.8 0.5-1.6 1-1.6 1-3.3 1.8 0.3 0 0.6 0c3.4-0.3 6.2 0.4 7.5 1.2 1.7 0.8 2.5 1.9 3.7 3.3l0.2 0.2c1.4 1.7 2.6 2.6 2.6 2.6 0.2 0.2 0.2 0.4 0.1 0.5 0 0.2-0.2 0.3-0.3 0.3q-0.1 0-0.1-0.1c-1-0.2-2.2-0.2-3.5-0.3-2.1 0-4.5 0-6.7-1.1-2.2-1-3-2-3.8-2.7-0.4-0.5-0.8-0.9-1.4-1.3-1-0.6-1.9-0.7-2.4-0.8q-4.2 2-8.3 3.5c1.6 0.1 3.1 0.4 4.6 0.9 0 0 0.3 0.1 0.4 0.2 0.2-0.4 0.6-0.7 1.1-0.7 0.6 0 1.1 0.5 1.1 1.2 0 0.6-0.5 1.1-1.1 1.1-0.7 0-1.2-0.5-1.2-1.1q0-0.1 0-0.2 0 0 0 0c-1.9-0.7-4-1-6-0.9q-2.6 0.9-5.2 1.7c1.3 0 2.6 0 4.9 1 2.2 1.1 3.3 2.5 4.3 3.8 0.6 0.8 1.2 1.5 2 2.1 0.1 0.1 0.2 0.3 0.1 0.5-0.1 0.2-0.2 0.3-0.4 0.3-0.2 0-5.8-0.1-9.3-2.6-2.5-1.8-3.8-3.5-4.3-4.3q-3.1 0.9-6.1 1.7-1.6 0.4-3.2 0.7 2.3 0.6 4.4 1.2c3.7 1 6.9 2.1 9.5 3.1 2.6 1 4.5 1.9 5.9 2.7 1.3 0.7 1.9 1.3 2 1.3 0.2 0.2 0.2 0.6 0 0.9-0.2 0.2-0.6 0.2-0.9 0 0 0-0.5-0.5-1.7-1.2-1.3-0.7-3.2-1.6-5.8-2.6-2.5-1-5.7-2-9.4-3-2-0.6-4.2-1.2-6.6-1.7-2.4 0.5-4.6 1.1-6.6 1.7-3.7 1-6.9 2-9.4 3-2.6 1-4.5 1.9-5.8 2.6-1.2 0.7-1.8 1.2-1.7 1.2-0.3 0.2-0.7 0.2-0.9 0-0.2-0.3-0.2-0.7 0-0.9 0.1 0 0.7-0.6 2-1.3 1.4-0.8 3.3-1.7 5.9-2.7 2.6-1 5.8-2.1 9.5-3.1q2.1-0.6 4.4-1.2-1.6-0.3-3.2-0.7-3-0.8-6.1-1.7c-0.5 0.8-1.8 2.5-4.3 4.3-3.5 2.5-9.1 2.6-9.3 2.6-0.2 0-0.3-0.1-0.4-0.3-0.1-0.2 0-0.4 0.1-0.5 0.8-0.6 1.4-1.3 2-2.1 1-1.3 2.1-2.7 4.3-3.8 2.3-1 3.6-1 4.9-1q-2.6-0.8-5.2-1.7c-2-0.1-4.1 0.2-6 0.9q0 0 0 0 0 0.1 0 0.2c0 0.6-0.5 1.1-1.2 1.1-0.6 0-1.1-0.5-1.1-1.1 0-0.7 0.5-1.2 1.1-1.2 0.5 0 0.9 0.3 1.1 0.7 0.1-0.1 0.4-0.2 0.4-0.2 1.5-0.5 3-0.8 4.6-0.9q-4.1-1.5-8.3-3.5c-0.5 0.1-1.4 0.2-2.4 0.8-0.6 0.4-1 0.8-1.4 1.3-0.7 0.7-1.6 1.7-3.8 2.7-2.2 1.1-4.6 1.1-6.7 1.1-1.3 0.1-2.5 0.1-3.5 0.3q0 0.1-0.1 0.1c-0.1 0-0.3-0.1-0.3-0.3-0.1-0.1-0.1-0.3 0.1-0.5 0 0 1.2-0.9 2.6-2.6l0.2-0.2c1.2-1.4 2.1-2.5 3.7-3.3 1.3-0.8 4.1-1.5 7.5-1.2q0.3 0 0.6 0-1.6-0.8-3.3-1.8-0.8-0.5-1.6-1c-2.7-0.2-5.3-0.1-7.9 0.3q0 0 0 0c0 0.6-0.5 1.1-1.1 1.1-0.6 0-1.1-0.5-1.1-1.1 0-0.6 0.5-1 1.1-1 0.4 0 0.8 0.2 1 0.6q3.6-0.5 7.2-0.3-2.7-1.8-5.3-3.8 0 0 0 0c0 0-2.9-0.6-5.8 0.4-1.1 0.4-1.9 0.9-2.7 1.4-1.5 0.9-2.9 1.8-6.1 2q-0.6 0.1-1.3 0.1c-1.6 0-3-0.2-4.4-0.4-2.4-0.3-4.6-0.7-7 0-0.3 0.1-0.5 0-0.5-0.2-0.1-0.2 0-0.4 0.2-0.5 0-0.1 1.6-0.9 5.4-1.9 1.1-0.2 2.1-0.7 3.1-1.4-0.9-0.2-2.2-0.7-3.5-1.6-1.9-1.4-4.3-2.5-4.3-2.5-0.2-0.1-0.3-0.3-0.3-0.5 0.1-0.2 0.3-0.3 0.4-0.3 0.1 0 3.2 0 7-0.4 3.6-0.3 8.6-0.1 11.3 1.5 1.7 0 3.2 0.4 4.4 0.9q-1.3-1.2-2.7-2.5-1.2-1.2-2.3-2.4c-2.3-1.1-4.9-1.7-7.5-1.8q-0.1 0-0.1 0c-0.1 0.6-0.7 1.2-1.3 1.2-0.8 0-1.4-0.7-1.4-1.4 0-0.8 0.6-1.4 1.4-1.4 0.7 0 1.3 0.5 1.3 1.2q0.1 0 0.1 0c2.4 0.1 4.7 0.6 6.9 1.4-1.9-2.2-3.7-4.6-5.3-7.1-1-0.8-2.1-1.4-3.4-1.7q0 0 0 0c-0.2 0.4-0.6 0.7-1 0.7-0.7 0-1.2-0.5-1.2-1.1 0-0.7 0.5-1.2 1.2-1.2 0.6 0 1.1 0.5 1.1 1.2q0 0 0 0 0 0 0 0c1 0.2 1.9 0.6 2.7 1.2q-1.2-2-2.3-4.1-0.4-0.8-0.8-1.7c-1.7-0.1-3 0.4-4.6 1-1.6 0.5-3.4 1.2-5.8 1.3q-0.1 0-0.3 0c-3.4 0-5.3-2.3-7.1-4.5-0.7-0.9-1.5-1.8-2.4-2.6-3-2.7-6.2-3.2-6.3-3.2-0.2 0-0.3-0.2-0.3-0.4 0-0.2 0.2-0.4 0.4-0.4 4 0 7.1 0.6 8.7 1-1.9-2.3-3.4-5.2-4.8-8.1-1.3-2.7-2.6-5.3-4.1-7.2-0.1-0.1-0.1-0.4 0-0.5 0.1-0.2 0.4-0.2 0.5-0.1 2.4 1.6 4.8 2.6 7.4 3.7 2.3 1 4.7 2 7.1 3.4 4.1 2.4 5.4 5 7 7.9 0.4 0.8 0.9 1.7 1.5 2.6 0.5 0.9 1 1.7 1.3 2.3-0.4-1.1-0.8-2.1-1.1-3.2-0.5-1.6-1-3.1-1.5-4.6l-0.3-1.5c-0.6-0.9-1.2-1.6-2-2.3-0.2 0.2-0.5 0.4-0.8 0.4-0.6 0-1.1-0.5-1.1-1.1 0-0.6 0.5-1.1 1.1-1.1 0.6 0 1 0.5 1 1.1q0 0.2 0 0.3 0.9 0.8 1.6 1.7l-0.4-2q-0.3-1.4-0.5-2.8c-1.3-2.6-3.1-5-5.3-6.9q0 0 0 0c-0.3 0.3-0.6 0.4-1 0.4-0.9 0-1.6-0.7-1.6-1.5 0-0.8 0.7-1.5 1.6-1.5 0.8 0 1.5 0.7 1.5 1.5 0 0.3-0.1 0.6-0.3 0.8q0 0 0 0c2 1.7 3.6 3.7 4.9 5.9-0.5-3.1-0.8-6.3-0.9-9.4q0-0.1-0.1-0.2 0 0-0.3-0.6-0.3-0.9-0.8-1.6 0-0.1-0.1-0.1c-1.1-1.3-3.9-3-8.2-5.1-2.9-1.4-5.4-4.7-7.2-9.6-1.5-4-3.1-6.4-3.1-6.4-0.1-0.2-0.1-0.4 0-0.5 0.1-0.1 0.3-0.2 0.5-0.1 1.7 1 3.2 2.2 4.1 3-0.8-2.7-1.4-5.6-1.9-8.2-0.5-2.4-0.9-4.6-1.4-6.3-0.1-0.2 0-0.4 0.2-0.5 0.2-0.1 0.4 0 0.5 0.2 1 1.9 3.1 3.8 5.4 5.7-0.2-1.1-0.4-3-0.1-5.4 0.1-0.2 0.2-0.3 0.4-0.4 0.2 0 0.4 0.1 0.4 0.3 0 0 0.5 1.4 2.3 3.6l0.4 0.5c1.9 2.2 4.8 5.6 6.1 11.3 1.3 5 1 8.8 0.9 9q0 0.1 0 0.1 0 0.6 0.1 1.1v0.2c0.1 2.8 1.2 6 1.9 7.9q0-1.4 0-2.7c0.2-2.8 0.4-5.5 0.8-8.2-0.1-3-0.6-6-1.5-8.8q-0.2 0-0.3 0c-0.7 0-1.2-0.5-1.2-1.1 0-0.7 0.5-1.2 1.2-1.2 0.6 0 1.2 0.5 1.2 1.2 0 0.4-0.3 0.7-0.6 0.9q0 0 0 0 1.2 3.5 1.5 7.2c0.4-2.4 0.9-4.7 1.6-6.9q0.8-2.7 1.7-5.2c-0.1-3.4-0.6-6.9-1.5-10.2q0 0 0 0-0.1 0-0.3 0c-0.7 0-1.3-0.6-1.3-1.4 0-0.7 0.6-1.4 1.3-1.4 0.8 0 1.4 0.7 1.4 1.4 0 0.6-0.3 1-0.7 1.3q0 0 0 0c0.8 3 1.3 6.2 1.5 9.4q0.8-2.2 1.8-4.2c0.5-4.6-2.3-8.4-5.3-12.4l-0.5-0.7c-2.4-3.3-2.9-8.1-3.2-11.5-0.1-1.3-0.2-2.4-0.4-3.2-0.7-3.1-1.5-4.7-3.5-7.6-0.1-0.1-0.1-0.3 0-0.5 0.1-0.1 0.3-0.1 0.5-0.1 4.9 2.3 8.4 7.7 9.8 10 0.3-2.6 1.3-5.3 2.2-7.8q0.6-1.7 1-3.1c0.8-2.6 2.1-8 2.2-8.1 0-0.2 0.2-0.3 0.3-0.3 0.2 0 0.4 0.1 0.4 0.3 0 0 1.2 4 1.8 8.4l0.3 1.5c0.6 4.3 1.5 10.2 0.9 14.5-0.6 4.3-2.2 6.6-3.4 8.6-0.6 0.9-1.1 1.6-1.4 2.5-0.1 0.2-0.4 2-0.5 4.2-0.1 1 0 2 0.1 2.7 0.2-0.4 0.4-0.8 0.6-1.2 2.2-3.9 4.5-7.3 6.8-10.1 0.9-2.9 1.5-5.8 1.7-8.8-0.6-0.1-1.1-0.6-1.1-1.3 0-0.8 0.6-1.4 1.4-1.4 0.8 0 1.4 0.6 1.4 1.4 0 0.7-0.6 1.3-1.3 1.4q-0.2 3.9-1.4 7.7c2-2.4 4-4.4 5.7-6.1q0-0.1 0-0.1c2.1-3.3 3.8-6.8 5.1-10.4q0 0 0 0c-0.6-0.2-1-0.7-1-1.3 0-0.8 0.7-1.4 1.4-1.4 0.8 0 1.4 0.6 1.4 1.4 0 0.7-0.6 1.4-1.4 1.4q0 0-0.1-0.1 0 0.1 0 0.1c-1.1 3.3-2.6 6.4-4.4 9.3 1.9-1.8 3.5-3.2 4.6-4.1q1.2-1 1.6-1.3c0.7-1 1.2-2.9 1.8-5 0.6-2.2 1.2-4.7 2.3-6.7 1.3-2.5 3.9-4.2 6.2-5.7 1.4-0.9 2.8-1.8 3.6-2.8 0.1-0.1 0.3-0.1 0.5-0.1 0.1 0.1 0.2 0.3 0.2 0.5 0 0.2-0.8 4.6-2.1 7.7 6.5-3.9 16.8-4.7 17.3-4.8 0.1 0 0.3 0.1 0.4 0.3 0 0.2-0.1 0.4-0.3 0.5-1.4 0.5-3.7 2.6-6.1 4.9-2.4 2.3-5.1 4.8-7.7 6.5-3.2 2-7.5 3.1-10.9 4-2.1 0.5-4 1-4.7 1.5q-0.1 0.1-0.2 0.1-0.4 0.3-1.3 1.1c-1.1 0.9-2.7 2.3-4.7 4.3-1.1 1.1-2.4 2.4-3.8 3.9 3.2-2 6.7-3.6 10.3-4.6 0.1-0.1 0.2 0 0.2 0.1q0-0.1 0-0.2c0-0.8 0.6-1.4 1.4-1.4 0.8 0 1.4 0.6 1.4 1.4 0 0.8-0.6 1.4-1.4 1.4-0.7 0-1.2-0.5-1.3-1.1q-0.1 0.1-0.2 0.1c-4.1 1.2-7.9 3.1-11.4 5.4-2.7 3.1-5.5 6.9-8.1 11.4 1.5-1 4.3-2.9 8.9-6 7.6-5.3 11-5.7 16.3-6.2l0.6-0.1c5.4-0.6 9-1.8 9-1.8 0.2-0.1 0.4 0 0.5 0.2 0.1 0.2 0 0.4-0.1 0.5-2.5 1.5-4.1 3.3-5.6 5-1.8 2-3.5 3.9-6.6 5.3-4.3 1.9-8.8 1.4-12.4 1-1-0.1-2-0.2-2.8-0.2q-0.1 0-0.2 0c-3.2 0-7.1 2.8-9.5 5.8q-1.2 2.4-2.3 5c2.4-2.1 5-3.9 7.9-5.3q0 0 0 0-0.1-0.2-0.1-0.4c0-0.9 0.7-1.5 1.6-1.5 0.8 0 1.5 0.6 1.5 1.5 0 0.8-0.7 1.5-1.5 1.5-0.6 0-1.1-0.3-1.3-0.7q0 0 0 0c-3.1 1.5-5.9 3.4-8.4 5.7q-1.1 3-2 6.1-0.3 1.2-0.6 2.3c1.5-1.3 3.6-2.7 4.7-3.3 0.4-0.7 2.5-4.5 7.6-6.2 2.7-0.9 5.2-0.9 7.7-0.9 2.6 0 5.3 0 8.4-1 0.1-0.1 0.3-0.1 0.4 0 0.1 0.2 0.2 0.3 0.1 0.5 0 0.1-0.9 2.6-5 4.4q0.1 0 0.2 0c0.8 0.2 1.6 0.4 2.6 0.6 3.7 0.8 6.9 0.6 7 0.6q0 0 0 0c0.2 0 0.3 0.1 0.4 0.3 0 0.2-0.1 0.4-0.3 0.5-1.6 0.5-3 1.4-4.5 2.3-2.4 1.5-5.2 3.2-9.5 3.5-4.4 0.4-8-1-10.6-2-1.4-0.5-2.6-1-3.4-1-2.3-0.1-5.1 2.4-6.5 4.8-0.7 3.6-1 7.4-1.2 11.3q0 1.8 0 3.8c0.6-2.4 1.5-4.7 2.8-6.8q0-0.1 0.1-0.1c-0.3-0.2-0.4-0.5-0.4-0.8 0-0.6 0.5-1.1 1.1-1.1 0.6 0 1.1 0.5 1.1 1.1 0 0.6-0.5 1.1-1.1 1.1q-0.3 0-0.5-0.1 0 0 0 0.1c-1.5 2.5-2.5 5.4-3 8.3 0.1 2.6 0.3 5.2 0.6 7.9 0.6-2.5 1.7-4.6 2.6-6.3l0.2-0.4c0.4-0.7 0.8-1.7 1.1-2.9 0.9-2.7 1.9-6.1 4.7-8.2 2.4-1.7 5.1-2.4 7.7-3.1 1.8-0.4 3.5-0.8 4.9-1.6 0.2-0.1 0.4-0.1 0.6 0.1 0.1 0.2 0.1 0.4-0.1 0.5 0 0-2.2 2.2-3.7 5.2q-0.4 0.8-0.7 1.6c-1.2 2.7-2.4 5.3-5.5 6.6-1.5 0.6-2.7 1-3.8 1.4-1.5 0.5-2.7 0.9-4.1 1.7-2.4 1.6-3.1 6.8-3.3 8.7q0.1 0.6 0.2 1.2l1 4.6c0.4 1.4 0.9 2.9 1.4 4.4 0.4 1.3 0.9 2.6 1.5 3.9-0.4-4.3-0.1-8.5 0.9-12.7q0 0 0 0c-0.5-0.2-0.7-0.6-0.7-1.1 0-0.6 0.5-1.1 1.1-1.1 0.7 0 1.2 0.5 1.2 1.1 0 0.7-0.5 1.2-1.2 1.2q0 0 0 0 0 0 0 0c-1.1 4.5-1.3 9.1-0.8 13.7q0.8 1.8 1.6 3.6 0.3 0.5 0.6 1c-0.1-0.8-0.2-1.8-0.2-2.7q-0.1-1.3 0-2.5 0 0 0-0.1 0 0 0-0.2 0-0.7 0-1.3c0-4.2 0-8.5 3.4-13 0.9-1.1 1.8-2.1 2.6-3 1.4-1.6 2.7-3.1 3.9-5.4 0.1-0.1 0.3-0.2 0.5-0.2 0.1 0.1 0.3 0.2 0.3 0.4-0.1 0.8-0.2 6.5-0.6 8.9q0.6-0.3 1.2-0.5c2.9-1.3 5.7-2.6 7.8-5.8 0-0.2 0.2-0.2 0.4-0.2 0.2 0.1 0.3 0.2 0.3 0.4 0 0.1 0.2 10.1-7.4 13.8-2.5 1.2-4.4 2-6 2.7-3.2 1.3-4.6 1.9-5.1 3.4-0.3 0.8-0.5 1.8-0.5 2.7 0.1 1.7 0.4 3.3 0.8 5q1.7 2.7 3.6 5.4c-0.7-3.8-0.7-6.8-0.2-9.7-0.4-0.2-0.7-0.6-0.7-1 0-0.6 0.5-1.1 1.1-1.1 0.6 0 1.1 0.5 1.1 1.1 0 0.6-0.5 1-1.1 1q0 0 0 0c-0.6 3.1-0.4 6.3 0.4 10.4q1.8 2.3 3.8 4.5c-0.3-1-0.6-2.3-0.8-3.9-0.5-5.3 1.3-8.3 2.5-10.2q0.5-0.8 0.8-1.4c0.3-0.7 0.5-1.5 0.6-2.3 0.3-1.3 0.5-2.7 1.7-3.8 0.1-0.1 0.3-0.2 0.5-0.1 0.1 0.1 0.2 0.3 0.2 0.5-0.4 1.5-0.1 3.9 0.1 6.2 0.2 2.1 0.4 4.1 0.2 5.5-0.3 2.5-1.6 4.1-2.6 5.3-0.6 0.9-1.2 1.7-1.4 2.5-0.4 2.2 1.2 4.5 1.3 4.5q0 0.1 0 0.1 3.2 2.9 6.8 5.5c-1.3-2.1-2.2-4.4-2.6-6.8q0 0 0 0c-0.6 0-1.1-0.5-1.1-1.1 0-0.7 0.5-1.2 1.1-1.2 0.7 0 1.2 0.5 1.2 1.2 0 0.5-0.3 0.9-0.8 1.1q0 0 0 0c0.5 2.6 1.5 5.2 3.1 7.4q2.1 1.5 4.4 2.9 0 0 0 0-0.2-0.6-0.5-1.2c-1.1-2-2.5-4.6-2.4-8.4 0-2.4 0.6-4.3 1.2-6.2 0.5-1.5 1-2.9 1.1-4.4 0-0.3 0.1-0.4 0.4-0.4 0.2 0 0.4 0.1 0.4 0.4 0 0 0 3 1 5.7 1 3 1.3 6.6 0.7 8.9l-0.2 1.1c-0.3 1.3-0.4 1.5-0.6 3-0.2 0.6 0 1.6 0.1 2.2q4.3 2.4 8.6 4.2c-1.4-1.5-2.6-3.1-3.5-5q0 0 0 0-0.1 0-0.3 0c-0.6 0-1-0.4-1-1 0-0.6 0.4-1.1 1-1.1 0.6 0 1.1 0.5 1.1 1.1 0 0.3-0.2 0.6-0.4 0.8q0 0 0 0.1c1.1 2 2.5 4 4.2 5.6q2.3 1 4.7 1.9-0.6-0.6-1.2-1.2c-1.3-1.1-2.8-2.4-3.7-4.3-1.7-3.5-1.5-7.8-1.1-11.9 0-0.2 0.1-0.4 0.3-0.4q0.4 0 0.5 0.3c0 0 0.8 2.8 2.1 4.8q0.4 0.5 0.8 1c0.5 0.7 1 1.4 1.5 2.3 0.1-1.5 0.6-3.6 2.1-6 0.1-0.2 0.3-0.3 0.5-0.2 0.1 0.1 0.2 0.3 0.2 0.5 0 0-0.3 1.2 0.3 4.8q0.1 0.8 0.3 1.7c0.3 1.6 0.6 3.3 0.5 5 0 2-0.4 3-0.8 3.8q-0.1 0.3-0.2 0.5c3.8 1.3 7.5 2.4 10.9 3.3-0.8-0.8-1.6-1.8-2.1-3.3-0.7-2.3-0.8-4.1-0.9-6 0-1 0-2.1-0.2-3.3 0-0.3 0.1-0.5 0.3-0.5 0.2 0 0.5 0.1 0.5 0.3 0.5 1.8 1.7 3.2 2.8 4.6 1 1.2 2 2.4 2.6 3.9 0.9 2.3 0.8 4.2 0.7 5.2q1.5 0.3 3 0.7 1.5-0.4 3-0.7c-0.1-1-0.2-2.9 0.7-5.2 0.6-1.5 1.6-2.7 2.6-3.9 1.1-1.4 2.3-2.8 2.8-4.6 0-0.2 0.3-0.3 0.5-0.3 0.2 0 0.3 0.2 0.3 0.5-0.2 1.2-0.2 2.3-0.2 3.3-0.1 1.9-0.2 3.7-0.9 6-0.5 1.5-1.3 2.5-2.1 3.3 3.4-0.9 7.1-2 10.9-3.3q-0.1-0.2-0.2-0.5c-0.4-0.8-0.8-1.8-0.8-3.8-0.1-1.7 0.2-3.4 0.5-5q0.2-0.9 0.3-1.7c0.6-3.6 0.3-4.8 0.3-4.8 0-0.2 0.1-0.4 0.2-0.5 0.2-0.1 0.5 0 0.6 0.2 1.4 2.4 1.9 4.5 2 6 0.5-0.9 1-1.6 1.5-2.3q0.4-0.5 0.8-1c1.3-2 2.1-4.8 2.1-4.8q0.1-0.3 0.5-0.3c0.2 0 0.3 0.2 0.3 0.4 0.4 4.1 0.6 8.4-1.1 11.9-0.9 1.9-2.4 3.2-3.7 4.3q-0.6 0.6-1.2 1.2 2.4-0.9 4.7-1.9c1.7-1.6 3.2-3.6 4.2-5.6q0-0.1 0-0.1c-0.2-0.2-0.4-0.5-0.4-0.8 0-0.6 0.5-1.1 1.1-1.1 0.6 0 1 0.5 1 1.1 0 0.6-0.4 1-1 1q-0.2 0-0.3 0 0 0 0 0c-0.9 1.8-2.1 3.5-3.5 5q4.3-1.8 8.6-4.2c0.1-0.6 0.3-1.6 0.1-2.2-0.2-1.5-0.3-1.7-0.6-3l-0.2-1.1c-0.6-2.3-0.3-5.9 0.7-8.9 1-2.7 1-5.7 1-5.7 0-0.3 0.2-0.4 0.4-0.4 0.3 0 0.4 0.1 0.4 0.4 0.1 1.5 0.6 2.9 1.1 4.4 0.6 1.9 1.2 3.8 1.2 6.2 0.1 3.8-1.3 6.4-2.4 8.4q-0.3 0.6-0.5 1.2 0 0 0 0 2.3-1.4 4.4-2.9c1.6-2.2 2.6-4.8 3.1-7.4q0 0 0 0c-0.5-0.2-0.8-0.6-0.8-1.1 0-0.7 0.5-1.2 1.1-1.2 0.7 0 1.2 0.5 1.2 1.2 0 0.6-0.5 1.1-1.1 1.1q0 0 0 0c-0.4 2.4-1.3 4.7-2.6 6.8q3.6-2.6 6.8-5.5 0 0 0-0.1c0.1 0 1.7-2.3 1.3-4.5-0.2-0.8-0.8-1.6-1.4-2.5-1-1.2-2.3-2.8-2.6-5.3-0.2-1.5 0-3.4 0.2-5.5 0.2-2.3 0.5-4.7 0.1-6.2 0-0.2 0.1-0.4 0.2-0.5 0.2-0.1 0.4 0 0.5 0.1 1.2 1.1 1.4 2.5 1.7 3.8 0.1 0.8 0.3 1.6 0.6 2.3q0.3 0.6 0.8 1.4c1.2 1.9 3 4.9 2.5 10.2-0.2 1.6-0.5 2.9-0.8 3.9q2-2.2 3.8-4.5c0.8-4.1 1-7.3 0.4-10.4q0 0 0 0c-0.6 0-1.1-0.4-1.1-1 0-0.6 0.5-1.1 1.1-1.1 0.6 0 1.1 0.5 1.1 1.1 0 0.4-0.3 0.8-0.7 1 0.5 2.9 0.5 5.9-0.2 9.7q1.9-2.7 3.6-5.4c0.4-1.7 0.7-3.4 0.8-5 0-0.9-0.2-1.9-0.5-2.7-0.5-1.5-1.9-2.1-5.1-3.4-1.6-0.7-3.5-1.5-6-2.7-7.6-3.7-7.4-13.7-7.4-13.8 0-0.2 0.1-0.3 0.3-0.4 0.2 0 0.4 0 0.4 0.2 2.1 3.2 4.9 4.5 7.8 5.7q0.6 0.3 1.2 0.6c-0.4-2.4-0.5-8.1-0.6-8.9 0-0.2 0.2-0.3 0.3-0.4 0.2 0 0.4 0.1 0.5 0.2 1.2 2.3 2.5 3.8 3.9 5.4 0.8 0.9 1.7 1.9 2.6 3 3.4 4.5 3.4 8.8 3.4 13q0 0.6 0 1.3 0 0.2 0 0.2 0 0.1 0 0.1 0.1 1.2 0 2.5c0 0.9-0.1 1.9-0.2 2.7q0.3-0.5 0.6-1 0.8-1.8 1.6-3.6c0.5-4.6 0.3-9.2-0.8-13.7q0 0 0 0 0 0 0 0c-0.7 0-1.2-0.5-1.2-1.2 0-0.6 0.5-1.1 1.2-1.1 0.6 0 1.2 0.5 1.2 1.1 0 0.5-0.3 0.9-0.8 1.1q0 0 0 0c1 4.2 1.3 8.5 0.9 12.7 0.6-1.3 1.1-2.6 1.5-3.9 0.5-1.5 1-3 1.4-4.4l1-4.6q0.1-0.6 0.2-1.2c-0.2-1.9-0.9-7.1-3.3-8.7-1.3-0.8-2.6-1.2-4.1-1.7-1.1-0.4-2.3-0.8-3.8-1.4-3.1-1.3-4.3-3.9-5.5-6.6q-0.3-0.8-0.7-1.6c-1.5-3-3.7-5.2-3.7-5.2-0.2-0.1-0.2-0.4-0.1-0.5 0.2-0.2 0.4-0.2 0.6-0.1 1.4 0.8 3.1 1.2 4.9 1.6 2.6 0.7 5.3 1.4 7.7 3.1 2.8 2.1 3.8 5.5 4.7 8.2 0.3 1.2 0.7 2.2 1.1 2.9l0.2 0.4c0.9 1.7 2 3.7 2.6 6.3 0.3-2.7 0.5-5.3 0.6-7.9-0.5-2.9-1.5-5.8-3-8.3q0-0.1 0-0.1-0.2 0.1-0.5 0.1c-0.6 0-1.1-0.5-1.1-1.1 0-0.6 0.5-1.1 1.1-1.1 0.6 0 1.1 0.5 1.1 1.1 0 0.3-0.1 0.6-0.4 0.8q0.1 0 0.1 0.1c1.3 2.1 2.2 4.4 2.8 6.8q0-2 0-3.8c-0.2-3.9-0.5-7.7-1.2-11.3-1.4-2.4-4.2-4.9-6.5-4.8-0.8 0-2 0.5-3.4 1-2.6 1-6.2 2.4-10.6 2-4.3-0.3-7.1-2-9.5-3.5-1.5-0.9-2.9-1.8-4.5-2.3-0.2-0.1-0.3-0.3-0.3-0.5 0.1-0.2 0.2-0.3 0.4-0.3q0 0 0.1 0c0 0 3.2 0.2 7-0.6 0.9-0.2 1.7-0.4 2.5-0.6q0.1 0 0.2 0c-4.1-1.8-5-4.3-5-4.4 0-0.2 0-0.3 0.1-0.5 0.1-0.1 0.3-0.1 0.4 0 3.1 1 5.8 1 8.4 1 2.5 0 5 0 7.7 0.9 5.1 1.7 7.2 5.5 7.6 6.2 1.1 0.6 3.2 2 4.7 3.3q-0.3-1.1-0.6-2.3-0.9-3.1-2-6.1c-2.5-2.3-5.3-4.2-8.4-5.7q0 0 0 0c-0.2 0.4-0.7 0.7-1.2 0.7-0.9 0-1.6-0.7-1.6-1.5 0-0.9 0.7-1.5 1.6-1.5 0.8 0 1.5 0.6 1.5 1.5q0 0.2-0.1 0.4 0 0 0 0c2.9 1.4 5.5 3.2 7.9 5.3q-1.1-2.6-2.3-5c-2.4-3-6.3-5.8-9.5-5.8q-0.1 0-0.2 0c-0.8 0-1.8 0.1-2.8 0.2-3.6 0.4-8.1 0.9-12.4-1-3-1.4-4.8-3.3-6.6-5.3-1.5-1.7-3.1-3.5-5.6-5-0.1-0.1-0.2-0.3-0.1-0.5 0.1-0.2 0.3-0.3 0.5-0.2 0 0 3.6 1.2 9 1.8l0.6 0.1c5.3 0.5 8.7 0.9 16.4 6.2 4.6 3.1 7.3 5 8.8 6-2.6-4.5-5.4-8.3-8.1-11.4-3.5-2.3-7.3-4.2-11.4-5.4q-0.1 0-0.2-0.1c-0.1 0.6-0.6 1.1-1.3 1.1-0.8 0-1.4-0.6-1.4-1.4 0-0.8 0.6-1.4 1.4-1.4 0.8 0 1.4 0.6 1.4 1.4q0 0.1 0 0.2c0-0.1 0.1-0.2 0.2-0.1 3.6 1 7.1 2.6 10.3 4.6-1.4-1.5-2.7-2.8-3.8-3.9-2-2-3.6-3.4-4.7-4.3q-0.9-0.8-1.3-1.1-0.1 0-0.2-0.1c-0.7-0.5-2.6-1-4.7-1.5-3.4-0.9-7.7-2-10.9-4-2.6-1.7-5.3-4.2-7.7-6.5-2.4-2.3-4.7-4.4-6.1-4.9-0.2-0.1-0.3-0.3-0.3-0.5 0.1-0.2 0.3-0.3 0.5-0.3 0.4 0.1 10.7 0.9 17.2 4.8-1.3-3.1-2-7.5-2.1-7.7 0-0.2 0.1-0.4 0.2-0.5 0.2 0 0.4 0 0.5 0.1 0.8 1 2.2 1.9 3.6 2.8 2.3 1.5 4.9 3.2 6.2 5.7 1.1 2 1.7 4.5 2.3 6.7 0.6 2.1 1.1 4 1.8 5q0.4 0.3 1.6 1.3c1.1 0.9 2.7 2.3 4.6 4.1-1.8-2.9-3.3-6-4.4-9.3q0 0 0-0.1-0.1 0.1-0.1 0.1c-0.8 0-1.4-0.7-1.4-1.4 0-0.8 0.6-1.4 1.4-1.4 0.7 0 1.4 0.6 1.4 1.4 0 0.6-0.4 1.1-1 1.3q0 0 0 0c1.3 3.6 3 7.1 5.1 10.4q0 0 0 0.1c1.7 1.7 3.7 3.7 5.7 6.1q-1.2-3.8-1.4-7.7c-0.7-0.1-1.3-0.7-1.3-1.4 0-0.8 0.6-1.4 1.4-1.4 0.8 0 1.4 0.6 1.4 1.4 0 0.7-0.5 1.2-1.1 1.3 0.2 3 0.8 5.9 1.7 8.8 2.3 2.8 4.6 6.2 6.8 10.1 0.2 0.4 0.4 0.8 0.6 1.2 0.1-0.7 0.2-1.7 0.1-2.7-0.1-2.2-0.4-4-0.5-4.2-0.3-0.9-0.8-1.6-1.4-2.6-1.2-1.9-2.8-4.2-3.4-8.5-0.6-4.3 0.3-10.2 0.9-14.5l0.3-1.5c0.7-4.4 1.8-8.4 1.8-8.4 0-0.2 0.2-0.3 0.4-0.3q0 0 0 0c0.2 0 0.3 0.1 0.4 0.3 0 0.1 1.3 5.5 2.1 8.1 0.3 1 0.6 2 1 3.1 0.9 2.5 1.9 5.2 2.2 7.8 1.4-2.3 4.9-7.7 9.8-10 0.2-0.1 0.4 0 0.5 0.1 0.1 0.2 0.1 0.4 0 0.5-2 2.9-2.8 4.5-3.5 7.6-0.2 0.8-0.3 1.9-0.4 3.1-0.3 3.5-0.8 8.3-3.2 11.6l-0.5 0.7c-3 4-5.8 7.8-5.3 12.4q1 2 1.8 4.2c0.2-3.2 0.7-6.4 1.5-9.4q0 0 0 0c-0.4-0.3-0.7-0.7-0.7-1.3 0-0.7 0.6-1.4 1.4-1.4 0.7 0 1.4 0.7 1.4 1.4 0 0.8-0.7 1.4-1.4 1.4q-0.2 0-0.3 0 0 0 0 0c-0.9 3.3-1.4 6.8-1.5 10.2 0.6 1.7 1.2 3.4 1.7 5.2 0.7 2.2 1.2 4.5 1.6 6.9q0.3-3.7 1.5-7.2 0 0 0 0c-0.3-0.2-0.6-0.5-0.6-0.9 0-0.7 0.6-1.2 1.2-1.2 0.7 0 1.2 0.5 1.2 1.2 0 0.6-0.5 1.1-1.2 1.1q-0.1 0-0.2 0c-1 2.8-1.5 5.8-1.6 8.8 0.4 2.7 0.6 5.4 0.8 8.2q0 1.3 0 2.7c0.7-1.9 1.8-5.1 1.9-7.9l0.1-0.2q0-0.5 0-1.1 0 0 0-0.1c-0.1-0.2-0.3-4 0.9-9 1.3-5.7 4.2-9.1 6.1-11.3l0.4-0.5c1.8-2.2 2.3-3.6 2.3-3.6 0-0.2 0.2-0.3 0.4-0.3 0.2 0.1 0.3 0.2 0.4 0.4 0.3 2.4 0.1 4.3-0.1 5.4 2.3-1.9 4.4-3.8 5.4-5.7 0.1-0.2 0.3-0.3 0.5-0.2 0.2 0.1 0.3 0.3 0.2 0.5-0.5 1.7-0.9 3.9-1.4 6.3-0.5 2.6-1.1 5.5-1.9 8.2 0.9-0.8 2.4-2 4.1-3 0.2-0.1 0.4 0 0.5 0.1 0.1 0.1 0.1 0.3 0 0.5 0 0-1.6 2.4-3 6.4-1.9 4.9-4.3 8.2-7.3 9.6-4.3 2.1-7.1 3.8-8.2 5.1q-0.1 0-0.1 0.1-0.4 0.7-0.8 1.6-0.3 0.6-0.3 0.6-0.1 0.1-0.1 0.2c-0.1 3.1-0.4 6.3-0.9 9.4 1.3-2.2 2.9-4.2 4.9-5.9q0 0 0 0c-0.2-0.2-0.3-0.5-0.3-0.8 0-0.8 0.7-1.5 1.5-1.5 0.9 0 1.6 0.7 1.6 1.5 0 0.8-0.7 1.5-1.6 1.5-0.3 0-0.7-0.1-1-0.4q0 0 0 0c-2.2 1.9-4 4.3-5.3 6.9q-0.2 1.4-0.5 2.8l-0.4 2q0.7-0.9 1.6-1.7 0-0.1 0-0.3c0-0.6 0.5-1.1 1.1-1.1 0.5 0 1 0.5 1 1.1 0 0.6-0.5 1.1-1 1.1-0.4 0-0.7-0.2-0.9-0.4-0.8 0.7-1.4 1.4-2 2.3l-0.3 1.5c-0.4 1.5-1 3-1.5 4.6-0.3 1.1-0.7 2.1-1.1 3.2 0.4-0.6 0.8-1.4 1.3-2.3 0.6-0.9 1.1-1.8 1.5-2.6 1.6-2.9 2.9-5.5 7-7.9 2.4-1.4 4.8-2.4 7.1-3.4 2.6-1.1 5-2.1 7.4-3.7 0.2-0.1 0.4-0.1 0.5 0.1 0.1 0.1 0.2 0.4 0 0.5-1.5 1.9-2.8 4.5-4.1 7.1-1.4 2.9-2.9 5.9-4.8 8.2 1.6-0.4 4.7-1 8.7-1 0.2 0 0.4 0.2 0.4 0.4zm-65.7 58.2q0 0 0 0 0 0 0 0zm48-86c0.4-1.2 0.9-2.7 1.3-4.2 0.8-2.9 1.7-5.9 2.7-8.1 2.3-4.6 6.3-9.7 8.8-12.6q-1.2 1.2-2.6 2.3c-2.1 1.8-4.2 3.6-5.6 5.5q-0.1 0-0.1 0.1-0.3 0.4-0.6 0.8c-0.9 1.5-1.6 3.1-2.1 4.7-0.3 1.1-0.6 2.2-0.8 3.2q0 0.2 0 0.4 0 0.1-0.1 0.1c-0.2 1.6-0.3 3.1-0.3 4.2l-0.1 0.3c0 1-0.2 2.2-0.5 3.3zm4.4-12.2c-1.1 2.2-1.9 5.2-2.7 8.1-0.5 1.6-0.9 3.1-1.4 4.4 2.6-3.6 4.5-6.5 7.2-11 1.6-2.7 3.1-6.5 4.5-9.9 0.8-1.9 1.5-3.8 2.2-5.2-2.2 2.4-7.2 8.4-9.8 13.6zm7.8 0.1q-0.7 1.7-1.6 3.2-0.1 0.3-0.3 0.5-0.2 0.2-0.3 0.5c-1.2 1.7-2.7 3.1-5.2 5.4l-1 0.9c-1.3 1.1-2.3 2.3-3.1 3.3 1.9-1.2 4.3-2.4 6.3-3.4 3.4-1.6 5.6-5.9 6.8-9.2 0.8-2.2 1.7-4 2.3-5.1-1.9 1.3-3.2 2.6-3.5 2.9-0.1 0.1-0.2 0.5-0.4 1zm1.9-10.9q0.3-1.6 0.6-3.1c-0.7 1.5-1.5 3.5-2.4 5.7-1.3 3.3-2.9 7.1-4.5 9.9-2.4 4.1-4.2 6.9-6.5 10.1 1.1-1.1 2.3-2.2 3.4-3.2 1-0.9 2-1.7 2.8-2.7q0 0 0.1 0 1.1-1.1 2-2.5c0.8-1.3 1.4-2.7 1.8-3.6 1.3-3.3 2-7.1 2.7-10.6zm-13 10.8c0.5-1.5 1.1-3 2-4.2q0.3-0.5 0.6-0.9 0.1-0.1 0.2-0.3c2.3-3 4.7-4.8 5.3-5.2 0.1-0.5 0.6-2.3 0.4-4.8-0.4 0.6-0.9 1.5-1.8 2.5l-0.4 0.5c-2 2.3-4.6 5.5-6 11q-0.1 0.7-0.3 1.4zm-13.6-43.8q0 0.8 0 1.9c-0.1 5.3-0.1 13.3 2.5 17.8q0.2-1 0.3-2.1c0.4-3.1 0.8-6.4 0.5-11.6-0.2-3.5-1-7.7-1.7-11.4-0.4-2-0.8-3.9-1-5.4-0.2 3.1-0.6 8.2-0.6 10.8zm6.5 5.9c0 0.3 0 1-0.1 2.2 0 1.4-0.2 3.1-0.6 5-0.4 2-1.2 4-1.8 5.5q-0.1 0.1-0.1 0.2c-0.5 1.1-0.9 1.9-1.1 2.2 0.1 0.5 0.5 2.2 0.5 4.2q0 0.6 0 1.1c0.9-3 2.9-5.8 5-8.6l0.6-0.7c2.2-3.1 2.7-7.8 3-11.1 0.1-1.3 0.2-2.4 0.4-3.3 0.6-2.7 1.3-4.3 2.7-6.5-4.8 3-8.1 9-8.5 9.8zm-4.2-12c-0.4-1.1-0.8-2.7-1.2-4.3 0.2 1.4 0.5 3.1 0.9 4.9 0.7 3.7 1.5 7.9 1.7 11.5 0.4 5.3-0.1 8.5-0.5 11.7q-0.1 0.4-0.1 0.9 0.1-0.3 0.3-0.6 0-0.2 0.1-0.4c0.7-1.7 1.2-3.3 1.5-4.7q0-0.2 0.1-0.4c0.3-1.8 0.4-3.4 0.5-4.6q0.1-1 0-1.9c0-2.8-1.2-6.1-2.2-8.9q-0.7-1.7-1.1-3.2zm-1 24.2q0 0.1 0.1 0.1c-1.9-4.7-1.9-11.6-1.8-16.3q0-1.1 0-1.9c0-2.9 0.5-8.8 0.7-11.6-0.4 1.5-0.8 3.5-1.1 5.7l-0.3 1.6c-0.6 4.2-1.5 10-0.9 14.2 0.6 4.1 2.1 6.4 3.3 8.2zm-46.3-30.6c3.2 1.1 8.8 3.1 11.4 4.7 1.9 1.2 4.3 3.1 6.9 5.1 2.1 1.7 4.2 3.4 6 4.6-1.1-1.3-2.5-2.9-3.6-4.1q-0.8-0.8-1.7-1.6c-1.5-1.5-3.3-3-4-3.6-4.2-3.1-11-4.5-15-5.1zm-0.6 0.2c2.4 1.4 4.6 2.9 7 4.5 1.6 1.1 3.4 2.3 5.5 3.6 4 2.6 9 4.9 11.7 6.1-1.7-1.2-3.6-2.7-5.5-4.2-2.6-2.1-5-4-6.9-5.1-2.7-1.7-8.7-3.8-11.8-4.9zm16.2 4.4q0.2 0.2 0.5 0.4 1.8 1.5 3.3 2.9 0 0 0.1 0.1 0.1 0.1 0.2 0.2 0.8 0.7 1.3 1.3 0.1 0.1 0.2 0.2c1.4 1.4 2.5 2.7 3.3 3.6q-0.3-1.1-0.7-2.5c-0.6-2.1-1.2-4.6-2.2-6.5-1.2-2.4-3.7-4-5.9-5.4-1.1-0.7-2-1.3-2.8-2 0.4 1.9 1.2 5.4 2.3 7.4q0.1 0.1 0.4 0.3zm5.8 9.5q0.6 0.1 1.1 0.3c-2.9-1.3-7.3-3.4-10.9-5.7-2.1-1.4-3.8-2.6-5.5-3.7-2-1.3-3.8-2.6-5.8-3.8q1.3 1.2 2.8 2.6c2.4 2.2 5.1 4.8 7.6 6.4 3.1 2 7.3 3 10.7 3.9zm3 18.6c4.4 1.6 10.8 2.1 13.7 2.3-1.7-0.6-3.5-1.3-5.4-2.1-2.1-0.8-4.3-1.7-6.4-2.5-3.5-1.2-10.8-3.6-13.8-4.6q0.1 0.1 0.3 0.2c2.3 1.7 7.3 5.1 11.6 6.7zm-5.3-5.9q-2.3-0.2-4-0.6c3.5 1.2 8.6 2.8 11.3 3.8 2.2 0.8 4.3 1.7 6.4 2.5q2.8 1.2 5.3 2.1c-0.7-0.5-1.5-1.1-2.4-1.7-7.5-5.1-10.7-5.5-15.9-6zm16.7 8.4c-3.3-0.3-8.1-0.9-11.6-2.2-3.3-1.2-7-3.4-9.6-5.2q0.7 0.7 1.3 1.5c1.8 1.9 3.5 3.8 6.3 5.1 4.2 1.8 8.5 1.4 12 1q0.8-0.1 1.6-0.2zm-6.2 13.9c1.9-0.4 4.1-0.7 7.7-0.4 3.5 0.3 5.8 1.3 7.3 2.3q0.5 0.3 1 0.5c-1.1-1.4-3-3.3-6.2-4.3-2.4-0.8-4.7-0.8-7-0.8q-0.2 0-0.3 0c-2.5 0-5 0-7.8-0.8 0.7 0.9 2.1 2.4 5.1 3.5q0.1 0 0.2 0zm-8.2 2.3c2.3 0.2 5 0.1 7.8-0.2 1.8-0.1 3.6-0.2 5.4-0.2q0.1-0.1 0.2 0c4.2 0 9.3 1.4 11.5 2.1q-0.4-0.3-0.8-0.6-0.5-0.3-1.2-0.8c-1.7-0.9-4.2-1.9-7.3-2.2-3.2-0.3-6.4 0.2-7.3 0.4q-0.8 0.2-1.6 0.4c-0.8 0.2-1.6 0.4-2.6 0.6-1.5 0.3-2.9 0.4-4.1 0.5zm13.4 0q-0.1 0-0.2 0c-1.8 0-3.6 0.1-5.4 0.2-2.8 0.3-5.4 0.5-7.8 0.2 2.5 0.8 6.9 2 11.9 2.3 4.1 0.2 6.2-0.2 8.1-0.5 1.1-0.2 2.2-0.4 3.6-0.4q0.2 0 0.5 0.1c-2.4-0.8-6.9-1.9-10.7-1.9zm10.2 2.3c-1.3 0-2.4 0.1-3.6 0.3-1.4 0.3-3.1 0.6-5.7 0.6q-1.1 0-2.4-0.1c-4.5-0.3-8.5-1.2-11.1-2q0.5 0.3 1 0.6c2.4 1.5 4.9 3.1 9 3.4 4.3 0.3 7.8-1 10.4-2 0.9-0.4 1.7-0.7 2.4-0.8zm4 23.6q0.3 0.2 0.6 0.3c-0.7-1-1.1-1.9-1.6-2.8-0.9-1.5-1.7-3.1-3.6-5.2-2.2-2.4-4.3-3.4-6.9-4.7q-1.3-0.6-2.9-1.4c1.1 1 2.7 2.7 4.4 4.7q0.6 0.8 1.3 1.7c1.9 2.4 3.9 4.9 7.4 6.8q0.7 0.3 1.3 0.6zm-12.2-13.6q-1-0.2-1.9-0.5 1.5 0.8 2.7 1.4c2.7 1.3 4.9 2.3 7.1 4.8 1.9 2.1 2.8 3.7 3.6 5.2q0.3 0.6 0.7 1.2-0.3-0.7-0.5-1.4c-0.8-2.6-1.8-5.9-4.4-7.8-2.2-1.6-4.8-2.3-7.3-2.9zm8.6 12.2q0.2 0.1 0.4 0.1c-2.5-1.7-4.2-3.8-5.8-5.9q-0.7-0.8-1.4-1.7c-2-2.4-3.8-4.2-4.8-5.1 0.7 0.9 1.5 2.1 2.2 3.4q0.3 0.8 0.7 1.6c1.1 2.6 2.2 5 5 6.2 1.5 0.7 2.7 1 3.7 1.4zm-0.4 24c-1.2-3.1-4.9-6.7-8.1-8.4l-0.7-0.4c-2.8-1.5-6.3-3.3-8.5-6.7 0.7 2.2 2.6 6.1 6.8 8.3l1.4 0.8c4.6 2.5 6.4 3.4 9.1 6.4zm-8.2-11.7c1.5 0.7 3.1 1.6 4.5 2.9q0.7 0.6 1.2 1.1c1.3 1.4 2.1 3.1 2.7 4.6-0.2-3.1-0.9-6.1-3.3-9.2-0.8-1.2-1.7-2.1-2.5-3-1.1-1.3-2.2-2.5-3.2-4.1 0.1 2.7 0.3 6.6 0.6 7.7zm-8.9-4.3c2.1 3.4 5.7 5.3 8.5 6.9l0.7 0.3c2.6 1.4 6.2 4.6 7.8 7.7q-0.2-0.8-0.5-1.6c-0.5-1.6-1.5-3.2-2.9-4.7q-0.4-0.4-0.8-0.8c-1.8-1.5-4.3-2.8-4.4-2.8q0 0 0-0.1-1-0.4-1.9-0.8c-2.4-1.1-4.6-2.1-6.5-4.1zm12 13.5c1.7 0.7 2.9 1.2 3.8 1.8-2.1-2.2-3.9-3.2-8-5.4l-1.4-0.7c-4.4-2.4-6.3-6.5-7-8.7 0.5 3.1 2 8 6.7 10.3 2.4 1.2 4.4 2 5.9 2.7zm-19.6 29.7c0.4 1.3 0.4 1.5 0.7 3q0 0.1 0 0.2 0 0 0-0.1c1.1-2 2.4-4.5 2.3-8 0-2.3-0.6-4.2-1.2-6q-0.3-0.8-0.5-1.7c-0.2 0.9-0.4 2-0.8 3-1 2.8-1.3 6.3-0.7 8.5zm-69.6 3.1q0.1 0.1 0.1 0.1 0-0.1 0-0.2c0.3-1.5 0.3-1.7 0.6-3l0.3-1.1c0.5-2.1 0.2-5.6-0.8-8.5-0.3-1-0.5-2.1-0.7-3q-0.2 0.9-0.5 1.7c-0.6 1.8-1.2 3.7-1.3 6 0 3.6 1.3 6 2.3 8zm-14.8-36.7l1.4-0.8c4.1-2.2 6-6.1 6.8-8.3-2.3 3.4-5.7 5.2-8.6 6.7l-0.6 0.4c-3.2 1.7-7 5.4-8.1 8.5 2.7-3.1 4.5-4 9.1-6.5zm8.6-9.1c-0.7 2.2-2.7 6.3-7 8.7l-1.4 0.8c-4.1 2.2-5.9 3.1-8 5.3 0.9-0.6 2.1-1.1 3.7-1.8 1.6-0.6 3.5-1.5 6-2.7 4.7-2.2 6.2-7.2 6.7-10.3zm-9 4.5q0 0-0.1 0c0 0-2.5 1.3-4.3 2.8q-0.5 0.4-0.9 0.8c-1.4 1.5-2.3 3.1-2.9 4.7q-0.3 0.9-0.4 1.6c1.6-3.1 5.2-6.3 7.8-7.7l0.6-0.3c2.9-1.6 6.4-3.5 8.6-6.9-1.9 2-4.2 3-6.5 4.1q-1 0.4-1.9 0.9zm-8.9 7.9c0.5-1.5 1.4-3.2 2.7-4.6q0.5-0.5 1.2-1.1c1.4-1.3 2.9-2.1 4.4-2.9 0.3-1.1 0.5-5 0.7-7.7-1 1.6-2.1 2.8-3.3 4.1-0.8 0.9-1.6 1.9-2.5 3-2.4 3.2-3 6.1-3.2 9.2zm-2.5-20.1c3.5-1.9 5.5-4.4 7.4-6.8q0.6-0.9 1.3-1.7c1.7-2 3.3-3.7 4.3-4.7q-1.5 0.8-2.8 1.4c-2.6 1.3-4.7 2.3-6.9 4.7-1.9 2.1-2.8 3.7-3.6 5.2-0.5 0.9-1 1.8-1.7 2.8q0.4-0.1 0.7-0.3 0.6-0.3 1.3-0.6zm13.8-13.4c-0.9 0.9-2.8 2.7-4.8 5.2q-0.6 0.8-1.3 1.6c-1.6 2.1-3.3 4.2-5.9 5.9q0.2 0 0.4-0.1c1.1-0.3 2.3-0.7 3.8-1.4 2.8-1.2 3.9-3.6 5-6.1q0.3-0.8 0.7-1.6c0.7-1.4 1.5-2.6 2.1-3.5zm-14.6 11.1q-0.3 0.7-0.5 1.4 0.3-0.6 0.7-1.2c0.8-1.5 1.7-3.1 3.6-5.2 2.2-2.5 4.3-3.5 7-4.8q1.3-0.6 2.7-1.4-0.9 0.3-1.8 0.5c-2.5 0.6-5.1 1.3-7.3 2.9-2.6 2-3.6 5.2-4.4 7.8zm26.2-21.9c-2.6 0.8-6.5 1.8-11 2q-1.3 0.1-2.4 0.1c-2.6 0-4.3-0.3-5.8-0.6-1.1-0.2-2.2-0.3-3.6-0.3 0.8 0.2 1.6 0.5 2.5 0.8 2.6 1 6.1 2.3 10.3 2 4.1-0.3 6.7-1.9 9.1-3.4q0.5-0.3 0.9-0.6zm-22.7 0.8c1.4 0 2.4 0.1 3.6 0.3 1.9 0.4 4 0.7 8.1 0.5 5-0.3 9.4-1.5 11.9-2.3-2.4 0.3-5.1 0.1-7.9-0.1-1.7-0.2-3.5-0.3-5.3-0.3q-0.1 0-0.3 0c-3.7 0-8.2 1.2-10.6 1.9q0.3 0 0.5 0zm16.9-3q-0.8-0.2-1.7-0.4c-0.8-0.1-4.1-0.7-7.2-0.4-3.1 0.3-5.6 1.4-7.3 2.3q-0.7 0.4-1.2 0.8-0.4 0.3-0.8 0.5c2.2-0.7 7.2-2.1 11.4-2.1q0.2 0 0.3 0c1.8 0 3.6 0.1 5.4 0.3 2.8 0.2 5.4 0.4 7.8 0.1-1.2-0.1-2.6-0.2-4.1-0.5-1-0.2-1.8-0.4-2.6-0.6zm-17.5 1.2q0.4-0.2 1-0.5c1.5-1 3.7-2 7.3-2.3 3.6-0.3 5.7 0 7.7 0.4q0.1 0 0.1 0c3-1.1 4.5-2.6 5.1-3.5-2.8 0.8-5.2 0.8-7.7 0.8q-0.1 0-0.3 0c-2.4 0-4.6 0-7.1 0.8-3.1 1.1-5 3-6.1 4.3zm25-41.2c-1.1 1.2-2.6 2.8-3.7 4.1 1.9-1.3 4-2.9 6-4.6 2.6-2 5-4 6.9-5.1 2.6-1.6 8.3-3.6 11.5-4.8-4.1 0.6-10.9 2.1-15 5.2-0.7 0.6-2.5 2.1-4.1 3.5q-0.9 0.9-1.6 1.7zm9.4-5.2c-1.8 1.1-4.3 3-6.8 5-1.9 1.5-3.8 3.1-5.6 4.3 2.8-1.2 7.8-3.5 11.8-6.1 2.1-1.3 3.8-2.5 5.5-3.6 2.4-1.7 4.5-3.1 7-4.5-3.1 1-9.1 3.2-11.9 4.9zm11-3.9c-2 1.2-3.9 2.4-5.9 3.8-1.7 1.1-3.4 2.3-5.5 3.6-3.6 2.3-7.9 4.5-10.8 5.7q0.5-0.1 1.1-0.2c3.3-0.9 7.5-2 10.6-3.9 2.6-1.6 5.3-4.2 7.6-6.4q1.5-1.4 2.9-2.6zm-23.6 9.6q-0.3 1.3-0.7 2.5c0.8-1 1.9-2.2 3.3-3.6q0.1-0.1 0.2-0.2 0.6-0.6 1.3-1.3 0.2-0.1 0.3-0.2 0-0.1 0-0.1 1.5-1.4 3.4-3 0.2-0.1 0.5-0.3 0.2-0.2 0.3-0.3c1.1-2.1 2-5.6 2.4-7.4-0.8 0.6-1.8 1.3-2.8 1.9-2.2 1.5-4.7 3.1-6 5.5-1 1.9-1.6 4.3-2.2 6.5zm-21.8-9.1c-0.2 1.5-0.5 3.4-0.9 5.4-0.7 3.7-1.5 7.8-1.8 11.4-0.3 5.2 0.1 8.5 0.6 11.6q0.1 1 0.2 2.1c2.7-4.5 2.6-12.5 2.6-17.9q0-1 0-1.8c0-2.6-0.4-7.8-0.7-10.8zm0.4-0.8c0.2 2.8 0.7 8.7 0.7 11.6q0 0.8 0 1.8c0 4.8 0.1 11.7-1.8 16.4q0-0.1 0-0.1c1.3-1.9 2.7-4.1 3.4-8.2 0.6-4.2-0.3-10-1-14.3l-0.2-1.5c-0.4-2.2-0.8-4.2-1.1-5.7zm-5.4 19.5c0.1 1.2 0.3 2.7 0.6 4.6q0 0.2 0.1 0.3c0.3 1.5 0.8 3.1 1.5 4.8q0 0.2 0.1 0.3 0.1 0.4 0.3 0.7-0.1-0.5-0.1-0.9c-0.5-3.2-0.9-6.5-0.6-11.7 0.3-3.6 1.1-7.8 1.8-11.5 0.3-1.8 0.6-3.5 0.8-4.9-0.3 1.5-0.8 3.2-1.1 4.3q-0.5 1.5-1.1 3.1c-1.1 2.9-2.2 6.1-2.3 9q0 0.9 0 1.9zm2.3 18.4q0-0.5 0-1.1c0.1-2 0.4-3.7 0.5-4.2-0.1-0.3-0.6-1.1-1-2.2q-0.1-0.1-0.1-0.2c-0.7-1.5-1.4-3.6-1.8-5.6-0.4-1.8-0.6-3.5-0.7-5-0.1-1.1-0.1-1.8-0.1-2.1-0.4-0.8-3.7-6.8-8.5-9.8 1.5 2.2 2.1 3.8 2.7 6.5 0.2 0.8 0.3 2 0.4 3.3 0.4 3.3 0.8 7.9 3.1 11.1l0.5 0.7c2.1 2.8 4.1 5.6 5 8.6zm35.8-13c-2.9 1-10.2 3.3-13.7 4.6-2.2 0.8-4.3 1.6-6.4 2.5-1.9 0.7-3.7 1.5-5.4 2.1 2.8-0.2 9.3-0.8 13.6-2.4 4.4-1.5 9.4-4.9 11.7-6.6q0.1-0.1 0.2-0.2zm-2.1 2c-2.6 1.8-6.3 4-9.6 5.2-3.5 1.3-8.3 1.9-11.6 2.2q0.7 0.1 1.5 0.2c3.5 0.4 7.9 0.9 12-1 2.9-1.3 4.6-3.1 6.3-5.1q0.7-0.7 1.4-1.5zm-23.5 6.8q2.5-1 5.3-2.1c2.1-0.8 4.3-1.7 6.4-2.5 2.8-1 7.9-2.7 11.4-3.8q-1.8 0.4-4.1 0.6l-0.6 0.1c-5.3 0.5-8.5 0.9-15.9 6-0.9 0.6-1.7 1.2-2.5 1.7zm-29.5 11.3q-1.4-1.2-2.7-2.3c2.5 2.9 6.6 8 8.8 12.5 1.1 2.2 2 5.3 2.8 8.2 0.4 1.5 0.8 2.9 1.2 4.2-0.2-1.1-0.4-2.3-0.5-3.4v-0.2c-0.1-1.2-0.2-2.6-0.4-4.2q0 0 0-0.1 0-0.2-0.1-0.4c-0.2-1-0.4-2.2-0.7-3.3-0.5-1.5-1.2-3.1-2.2-4.7q-0.2-0.4-0.5-0.7-0.1-0.1-0.1-0.1c-1.5-1.9-3.6-3.7-5.6-5.5zm-4-3.2c0.7 1.4 1.4 3.2 2.2 5.2 1.4 3.3 2.9 7.1 4.5 9.9 2.6 4.5 4.6 7.4 7.1 11-0.4-1.3-0.9-2.8-1.3-4.4-0.8-2.9-1.7-5.9-2.7-8.1-2.6-5.2-7.7-11.2-9.8-13.6zm4.9 2.9c0.6 0.5 3.1 2.3 5.3 5.3q0.2 0.1 0.3 0.3 0.3 0.4 0.6 0.9c0.8 1.2 1.4 2.7 1.9 4.2q-0.1-0.7-0.3-1.4c-1.3-5.5-4-8.7-5.9-11l-0.5-0.5c-0.8-1.1-1.4-1.9-1.8-2.5-0.1 2.5 0.3 4.3 0.4 4.7zm-4.9-0.1c0.7 3.5 1.5 7.3 2.7 10.5 0.4 1 1.1 2.4 1.9 3.7q0.9 1.3 2 2.5 0 0 0 0c0.9 0.9 1.9 1.8 2.8 2.7 1.2 1 2.3 2 3.4 3.2-2.2-3.2-4-6-6.5-10.1-1.6-2.8-3.1-6.6-4.5-10-0.8-2.1-1.7-4.1-2.4-5.6q0.3 1.5 0.6 3.1zm13.4 24.7c-0.7-1-1.8-2.2-3-3.4l-1-0.8c-2.5-2.4-4.1-3.8-5.2-5.5q-0.2-0.2-0.3-0.4-0.2-0.3-0.4-0.5-0.8-1.5-1.5-3.2c-0.2-0.5-0.4-0.9-0.4-1-0.3-0.3-1.7-1.6-3.5-2.9 0.6 1.1 1.4 2.8 2.3 5.1 1.2 3.3 3.3 7.5 6.8 9.2 2 0.9 4.4 2.2 6.2 3.4zm-9.2 15.2c-1.3-0.5-2.5-1.1-3.7-1.6q1.6 1.1 4.2 2.6c4.1 2.6 6.2 4.5 9.6 8.2 1.3 1.3 2.4 2.4 3.4 3.5 1.3 1.4 2.4 2.7 3.5 3.9-0.4-0.8-1-1.7-1.8-3-0.6-0.9-1-1.8-1.5-2.7-1.5-2.8-2.8-5.2-6.6-7.5-2.4-1.4-4.8-2.4-7.1-3.4zm13.2 13c-1-1.1-2.1-2.2-3.4-3.6-3.3-3.6-5.4-5.5-9.6-8.1-2.3-1.4-4.2-2.6-5.3-3.4 0.8 1 1.6 2.2 2.5 3.4 2.3 3.2 4.8 6.7 8.2 9.4 3.5 2.7 6.1 3.8 8.3 4.7 0.9 0.5 1.8 0.9 2.8 1.4-1.1-1.2-2.3-2.4-3.5-3.8zm-15.9-10c1.6 3.3 3.3 6.7 5.6 9q0 0 0 0c0 0 1.1 1.1 3.1 2.1q0.1 0.1 0.2 0.1c1.9 0.8 3.6 1.3 5 1.7 1.9 0.3 3.3 0.6 4.5 1q0.3 0 0.6 0.1c-0.9-0.4-1.7-0.8-2.6-1.2-2.2-1-4.8-2.1-8.3-4.8-3.5-2.7-6-6.3-8.3-9.4q-1-1.4-1.9-2.6 1.1 1.9 2.1 4zm20.6 15.5q-0.9-0.4-2.4-0.8-0.7-0.2-1.4-0.3-1.4-0.3-3.1-0.7-0.1-0.1-0.2-0.1c-2.2-0.4-3.9-1.1-5.3-1.8-1.1-0.5-2.2-1.3-3.1-2.2-0.5-0.2-3-0.9-6.8-1.2 1.1 0.5 2.5 1.3 3.8 2.5 1 0.8 1.8 1.8 2.5 2.7 1.8 2.2 3.4 4.1 6.5 4.1q0.1 0 0.2 0c2.3-0.1 4-0.7 5.6-1.2 1.2-0.5 2.4-0.9 3.7-1zm13.1 12c0.2 2.1 0.6 3.6 1.1 4.6-0.2-0.8-0.3-1.6-0.1-2.4 0.2-1.1 0.8-2 1.6-2.9 0.9-1.2 2-2.6 2.3-5 0.2-1.3 0-3.2-0.2-5.3-0.1-1.7-0.3-3.4-0.2-4.9-0.3 0.7-0.5 1.4-0.6 2.2-0.2 0.9-0.3 1.7-0.7 2.6q-0.3 0.6-0.8 1.4c-1.3 2-3 4.7-2.4 9.7zm-14.7 13.3c1.1-0.2 2.5-0.4 4-0.9 1.4-0.4 2.4-1 3.4-1.5 1.3-0.7 2.6-1.4 4.8-1.7 2.4-0.3 5.2 0.3 6.9 0.9-1.7-1-4.3-2.1-7.5-1.9-3.4 0.2-5.6 1.6-7.7 3-1.3 0.8-2.5 1.6-3.9 2.1zm3.9 0.7c2.2-0.1 3.6-0.8 5.5-1.7q1.1-0.5 2.4-1.2c2.2-0.9 5-0.9 6.9-0.7-1.7-0.5-4.3-1.1-6.5-0.8-2.1 0.3-3.2 0.9-4.6 1.7-1 0.5-2 1-3.5 1.5-1.9 0.6-3.4 0.8-4.8 0.9q-0.6 0.1-1.1 0.2 0.6 0 1.3 0c1.1 0.1 2.4 0.2 4.4 0.1zm-4.6-5.1c1.6 1.2 3.4 1.6 4 1.7 3.2-2.3 5.9-3.1 7.6-3.3-2.6-0.8-6.4-0.9-9.1-0.6-2.2 0.2-4.1 0.3-5.4 0.4 0.8 0.4 1.9 1 2.9 1.8zm18.6 1.8c-1.8 0-4.1 0.1-5.9 0.8q-1.4 0.6-2.4 1.2c-1.9 0.9-3.4 1.6-5.7 1.7q-0.8 0.1-1.5 0.1-0.2 0-0.5-0.1c1.6 0.3 3.2 0.4 4.9 0.3 3-0.2 4.3-1.1 5.7-1.9 0.8-0.6 1.7-1.1 2.9-1.5 0.9-0.3 1.7-0.5 2.5-0.6zm34.4 16.2c-0.6 0.1-1.2 0.1-1.7 0.1q-0.2 0-0.4 0c-1.2 0-2.3 0.1-4.2 0.9-2 1-3 2.3-4 3.5-0.4 0.5-0.8 1.1-1.3 1.6 1.8-0.2 5.4-0.7 7.8-2.4 2.1-1.5 3.3-2.9 3.8-3.7zm8.4 0.8q0.3 0.1 0.7 0.2c0.1-0.9 0.1-2.7-0.7-4.7-0.5-1.4-1.5-2.5-2.5-3.7-0.7-0.8-1.4-1.7-1.9-2.6q0 0.5 0 1c0.1 1.8 0.1 3.5 0.8 5.8 0.7 2.1 2.4 3.4 3.6 4zm-15.5-12.4c0.2 0.7 0.4 1.6 0.5 2.5l0.1 0.6q0.1 0.6 0.2 1.3 0 0 0 0.1 0.1 0.9 0.2 1.7 0.1 0.3 0.2 0.5c0.1 0.6 0.3 1.1 0.5 1.4q0-0.1 0.1-0.3c0.4-0.8 0.7-1.7 0.8-3.5 0-1.6-0.3-3.3-0.6-4.8q-0.2-1-0.3-1.8c-0.2-1.4-0.3-2.5-0.3-3.3-1.3 2.9-1.4 5.1-1.4 5.6zm-2.9-1.3q-0.2-0.5-0.4-0.9c-0.7-1.3-1.3-3.2-1.7-4.4 0.2 3.1 1.2 6.3 2.3 8.3 0.6 1.3 1.2 2 1.7 2.7 0.4 0.4 0.7 0.8 1 1.3-0.7-3.1-1.9-5.1-2.9-7zm-0.6-3.1q-0.5-0.7-0.9-1.5c0.4 1.1 0.9 2.5 1.4 3.5q0.2 0.5 0.5 0.9c0.8 1.4 1.7 3.1 2.4 5.3q-0.1-0.3-0.1-0.6l-0.1-0.6c-0.4-3.3-1.3-4.5-2.4-5.9q-0.4-0.5-0.8-1.1zm3 10.5q0.2 0.2 0.4 0.3c-0.4-0.7-0.7-1.2-1.2-1.7-0.5-0.7-1.1-1.5-1.8-2.8-0.9-1.7-1.7-4.2-2.1-6.8 0 2.5 0.3 4.8 1.3 6.9 0.9 1.8 2.2 3 3.4 4.1zm-17.3 1.3c0.7-0.4 1.4-0.9 2.2-1.3 1.9-1 3.4-1.4 4.3-1.6-0.5-0.1-1.2-0.2-2-0.2-1 0-2.1 0.1-3.4 0.6-2.2 0.8-3.4 1.7-4.7 2.7q-0.4 0.3-0.8 0.6c-1.6 1.1-2.7 1.8-3.3 2.2q0 0 0.1 0c4.1-0.5 5.8-1.7 7.6-3zm-7.2 2.2c0.7-0.4 1.5-1 2.5-1.7q0.4-0.3 0.9-0.6c1.2-1 2.5-2 4.8-2.8q0.7-0.2 1.4-0.4c-2.3 0.1-4.1 0.6-5.1 1.2-1.5 0.8-2.3 1.7-3.5 3.1l-0.1 0.2q-0.4 0.5-0.9 1zm13.7-4.7c-0.9 0.2-2.3 0.6-4.1 1.6-0.8 0.4-1.5 0.8-2.1 1.3-1.4 0.9-2.8 1.9-5.2 2.5 1.8-0.1 3.7-0.2 5.5-1 2-1 2.8-1.9 3.5-2.6 0.5-0.5 0.9-1 1.7-1.4q0.3-0.2 0.7-0.4zm46.2 6.8q-0.2 0-0.4 0c-0.5 0-1.1 0-1.7-0.1 0.6 0.8 1.7 2.2 3.8 3.7 2.4 1.7 6 2.2 7.8 2.4-0.5-0.5-0.9-1.1-1.3-1.6-1-1.2-2-2.5-4-3.5-1.9-0.8-3-0.9-4.2-0.9zm10.2-16.6c-0.4 2.6-1.2 5.1-2.1 6.8-0.7 1.3-1.3 2.1-1.8 2.8-0.4 0.5-0.8 1-1.2 1.7q0.2-0.1 0.4-0.3c1.2-1.1 2.5-2.3 3.4-4.1 1-2.1 1.3-4.4 1.3-6.9zm-4.2 9.3c0.5-0.7 1.1-1.4 1.7-2.7 1.1-2 2.1-5.2 2.3-8.3-0.3 1.2-0.9 3.1-1.7 4.4q-0.2 0.4-0.4 0.9c-1 1.9-2.2 3.9-2.9 7 0.3-0.5 0.6-0.9 1-1.3zm-0.7-1.8l-0.1 0.6q0 0.3-0.1 0.6c0.7-2.2 1.6-3.9 2.4-5.3q0.3-0.4 0.5-0.9c0.5-1 1-2.4 1.4-3.5q-0.4 0.8-0.9 1.5-0.4 0.6-0.8 1.1c-1.1 1.4-2 2.6-2.4 5.9zm-2.1 5.2q0.1 0.2 0.1 0.3c0.2-0.3 0.4-0.8 0.5-1.4q0.1-0.2 0.2-0.6 0.1-0.7 0.2-1.6 0 0 0-0.1 0.1-0.7 0.2-1.3l0.1-0.6c0.1-1 0.3-1.8 0.5-2.5 0-0.5-0.1-2.8-1.4-5.6 0 0.8-0.1 1.9-0.3 3.3q-0.1 0.8-0.3 1.8c-0.3 1.5-0.6 3.2-0.6 4.8 0.1 1.8 0.4 2.7 0.8 3.5zm-14.4 4.8q0.4-0.1 0.7-0.2c1.2-0.6 2.9-1.9 3.6-4 0.7-2.3 0.7-4 0.8-5.8q0-0.5 0-1c-0.5 0.9-1.2 1.8-1.9 2.6-1 1.2-2 2.3-2.5 3.7-0.8 2-0.8 3.8-0.7 4.7zm41.7-2.2c-0.6-0.4-1.7-1.1-3.2-2.2q-0.5-0.3-0.9-0.6c-1.3-1-2.5-1.9-4.7-2.7-1.3-0.5-2.4-0.6-3.4-0.6-0.8 0-1.5 0.1-2 0.2 0.9 0.2 2.4 0.6 4.3 1.6 0.8 0.4 1.5 0.9 2.2 1.3 1.8 1.3 3.5 2.5 7.6 3q0.1 0 0.1 0zm-8.3-1.1c1.8 0.8 3.7 0.9 5.5 1-2.4-0.6-3.7-1.6-5.2-2.5-0.6-0.5-1.3-0.9-2.1-1.3-1.7-1-3.2-1.4-4.1-1.6q0.4 0.2 0.7 0.4c0.8 0.4 1.2 0.9 1.7 1.4 0.7 0.7 1.5 1.6 3.5 2.6zm3.3-4c-1-0.6-2.8-1.1-5-1.2q0.6 0.2 1.3 0.4c2.3 0.8 3.6 1.8 4.8 2.8q0.5 0.3 0.9 0.6c1 0.7 1.8 1.3 2.5 1.7q-0.4-0.5-0.9-1l-0.1-0.2c-1.2-1.4-2-2.3-3.5-3.1zm9-18.4c0.2 0.8 0.1 1.6-0.1 2.4 0.5-1 0.9-2.5 1.1-4.6 0.6-5-1.1-7.7-2.4-9.7q-0.5-0.8-0.8-1.4c-0.4-0.9-0.5-1.7-0.7-2.6-0.1-0.8-0.2-1.5-0.6-2.2 0.1 1.5-0.1 3.2-0.2 4.9-0.2 2.1-0.4 4-0.2 5.3 0.3 2.4 1.4 3.8 2.3 5 0.8 0.9 1.4 1.8 1.6 2.9zm-3.4 7.9c1.7-0.6 4.5-1.2 6.9-0.9 2.2 0.3 3.5 1 4.8 1.7 1 0.5 2 1.1 3.5 1.5 1.5 0.5 2.8 0.7 3.9 0.9-1.4-0.5-2.6-1.3-3.9-2.1-2.1-1.4-4.3-2.8-7.7-3-3.2-0.2-5.8 0.9-7.5 1.9zm19.6 3.8q0.7 0 1.3 0-0.5-0.1-1.1-0.2c-1.4-0.1-2.9-0.3-4.8-0.9-1.5-0.5-2.5-1-3.5-1.5-1.4-0.8-2.5-1.4-4.6-1.7-2.2-0.3-4.8 0.3-6.5 0.8 1.9-0.2 4.7-0.2 6.9 0.7q1.3 0.7 2.4 1.2c1.9 0.9 3.3 1.6 5.5 1.7 2 0.1 3.3 0 4.4-0.1zm-2.4 0.6q-0.2 0-0.5 0-0.7 0-1.5-0.1c-2.3-0.1-3.8-0.8-5.7-1.7q-1-0.6-2.4-1.2c-1.8-0.7-4.1-0.8-5.9-0.8 0.8 0.1 1.7 0.3 2.6 0.6 1.1 0.4 2 0.9 2.8 1.5 1.4 0.8 2.8 1.7 5.7 1.9 1.7 0.1 3.3 0 4.9-0.2zm-9-7.2c1.7 0.2 4.4 1 7.6 3.3 0.6-0.1 2.4-0.5 4-1.7 1-0.8 2.1-1.4 3-1.8-1.3-0.1-3.3-0.2-5.5-0.4-2.7-0.3-6.5-0.2-9.1 0.6zm32-38.8q-0.9 1.2-1.9 2.6c-2.3 3.1-4.8 6.7-8.3 9.4-3.5 2.7-6.1 3.8-8.3 4.8-0.9 0.4-1.7 0.8-2.6 1.2q0.3-0.1 0.6-0.1c1.2-0.4 2.6-0.7 4.5-1 1.4-0.4 3.1-0.9 5-1.7q0.1 0 0.2-0.1c2-1 3.1-2.1 3.1-2.1q0 0 0 0c2.3-2.3 4-5.7 5.6-9q1-2.1 2.1-4zm-18.7 16.4c2.3-0.9 4.8-2 8.3-4.7 3.4-2.7 5.9-6.2 8.2-9.4 0.9-1.2 1.7-2.4 2.5-3.4-1.1 0.8-3 2-5.3 3.4-4.2 2.6-6.3 4.5-9.6 8.1-1.3 1.4-2.4 2.5-3.4 3.6-1.2 1.4-2.4 2.6-3.5 3.8 1-0.5 1.9-0.9 2.8-1.4zm-3.1 1.2c1.1-1.2 2.2-2.5 3.5-3.9 1-1.1 2.1-2.2 3.4-3.5 3.4-3.7 5.5-5.6 9.7-8.2q2.5-1.5 4.1-2.6c-1.2 0.5-2.4 1.1-3.7 1.6-2.3 1-4.6 2-7.1 3.4-3.8 2.3-5.1 4.7-6.6 7.5-0.5 0.9-0.9 1.8-1.5 2.7-0.8 1.3-1.4 2.2-1.8 3zm21.4-5.2c-3.8 0.3-6.3 1-6.8 1.2-0.9 0.9-2 1.7-3.1 2.2-1.4 0.7-3.1 1.4-5.3 1.8q-0.1 0-0.2 0.1-1.7 0.4-3.1 0.7-0.7 0.1-1.4 0.3-1.5 0.4-2.4 0.8c1.3 0.1 2.5 0.5 3.7 1 1.7 0.5 3.3 1.1 5.6 1.2q0.1 0 0.3 0c3 0 4.6-1.9 6.4-4.1 0.8-0.9 1.5-1.9 2.5-2.7 1.3-1.2 2.7-2 3.8-2.5z"/>
	<path id="Layer" class="s0" d="m109.3 129l-0.9 3 2.6-1.8 2.5 1.8-0.8-3 2.5-1.8-3.2-0.1-1-3-1 2.9-3.1 0.1z"/>
	<path id="Layer" class="s0" d="m124.9 125.1l-0.8-2.5-0.8 2.4-2.6 0.1 2 1.5-0.7 2.5 2.1-1.5 2.1 1.5-0.7-2.4 2-1.6z"/>
	<path id="Layer" class="s0" d="m135.7 119.8l-0.8-2.2-0.7 2.1-2.3 0.1 1.8 1.4-0.7 2.2 1.9-1.3 1.9 1.3-0.7-2.2 1.9-1.4z"/>
	<path id="Layer" class="s0" d="m143.8 111.6l-0.8-2.1-0.7 2.1h-2.3l1.8 1.5-0.7 2.2 1.9-1.3 1.9 1.3-0.7-2.2 1.9-1.4z"/>
	<path id="Layer" class="s0" d="m99.1 125l-0.8-2.4-0.8 2.5h-2.6l2 1.6-0.7 2.4 2.1-1.5 2.1 1.5-0.7-2.5 2-1.5z"/>
	<path id="Layer" class="s0" d="m88.2 119.7l-0.7-2.1-0.8 2.2h-2.3l1.9 1.4-0.7 2.2 1.9-1.3 1.9 1.3-0.7-2.2 1.9-1.4z"/>
	<path id="Layer" class="s0" d="m80.1 111.6l-0.7-2.1-0.8 2.1-2.3 0.1 1.9 1.4-0.7 2.2 1.9-1.3 1.9 1.3-0.7-2.2 1.8-1.5z"/>
	<path id="Layer" class="s0" d="m133.2 76c3-0.1 5.5-2.6 5.9-5.7 0.2-1.4 0-2.8 0-4.2 0.1-2-0.9-3.5-2.6-3.9-1.8-0.5-3.6 0.4-4.3 2.1-0.6 1.6-0.1 3.5 1.6 4.4 1 0.6 0.9 1.2 0.3 1.8-0.6 0.5-1.4 0.8-2.1 0.9-1.5 0.1-2.9 0-4.3 0q-4.2 0-8.3 0c-0.1-0.3-0.1-0.4-0.2-0.6q0-6.2 0-12.4c-0.1-1.3 0.8-2.1 2.3-2.3q0.1 0.3 0.3 0.6c1 1.7 2.8 2.4 4.5 1.7 1.7-0.7 2.6-2.5 2.2-4.3-0.5-1.7-2-2.7-3.9-2.6q-1 0-2-0.1c-3.9-0.6-7.9 2.3-8 6.2-0.2 6.1-0.1 12.2-0.1 18.5 6.3 0 12.5 0.1 18.7-0.1z"/>
	<path id="Layer" class="s0" d="m96.6 51.6c-1.5 0.2-2.6 1.7-2.7 3.3-0.1 1.5 0.8 2.9 2.2 3.5 1.9 0.7 3.5 0 5-2.3 1.5 0.3 2.2 1 2.2 2.6q-0.1 4.1-0.1 8.2c0 1.4 0 2.9 0 4.5-4.5 0-8.8 0.1-13.2 0-1.2 0-1.9-0.9-2.1-2.2q0.3-0.2 0.6-0.3c1.8-1.1 2.4-2.9 1.7-4.7-0.7-1.6-2.4-2.4-4.1-2.1-1.8 0.4-2.9 2-2.8 4 0.1 0.5 0.1 1 0 1.5-0.8 4.6 2.4 8.5 7.1 8.5q8.1 0.1 16.3 0c0.4 0 0.8 0 1.1-0.1 0.1-0.2 0.1-0.3 0.1-0.5 0-5.9 0.1-11.7 0-17.6 0-3.2-2.5-6-5.6-6.4-1.9-0.2-3.8-0.1-5.7 0.1z"/>
	<path id="Layer" class="s0" d="m89.5 82.7c-3.9 0.1-6.8 4-6.3 7.9q0.1 1.2 0.1 2.5c0 1.7 1.1 3.1 2.7 3.5 1.7 0.4 3.4-0.4 4.1-1.9 0.8-1.6 0.3-3.4-1.1-4.5-0.4-0.2-0.7-0.4-1.1-0.7 0.4-1.6 1-2.2 2.6-2.2q5.7 0 11.4 0.1c0.5 0 0.9 0 1.4 0.1 0 4.4 0 8.7-0.1 13 0 1.3-0.8 2-2.1 2.3-0.2-0.3-0.3-0.5-0.4-0.7-1.1-1.8-2.8-2.4-4.6-1.7-1.6 0.6-2.5 2.3-2.1 4.1 0.4 1.8 1.8 2.9 3.9 2.8 0.4-0.1 0.9-0.1 1.3 0 5.2 0.7 8.8-2.3 8.8-7.6q0-7.8 0-15.6c0-0.5-0.1-0.9-0.1-1.4-6.2 0-12.3-0.1-18.4 0z"/>
	<path id="Layer" class="s0" d="m122.6 107.4q1-0.2 2-0.1c2 0 3.5-1 3.9-2.8 0.3-1.7-0.6-3.5-2.1-4.1-1.7-0.7-3.6-0.1-4.5 1.5-0.6 1.2-1.3 0.9-1.9 0.3-0.4-0.6-0.8-1.4-0.8-2.1-0.1-1.5 0-3.1 0-4.7 0-2.6 0-5.2 0-7.8 0.3-0.1 0.3-0.2 0.4-0.2 4.3 0 8.5-0.1 12.8 0 1.3 0 2 0.8 2.2 2.2q-0.4 0.2-0.7 0.4c-1.7 1-2.4 2.8-1.7 4.5 0.7 1.6 2.4 2.5 4.1 2.1 1.9-0.4 2.9-1.9 2.8-3.9q0-0.9 0.1-1.7c0.7-4.5-2.5-8.3-7.1-8.3q-3.8 0-7.6 0c-3.3 0-6.6 0-10 0 0 6.2-0.1 12.2 0 18.1 0.1 4.1 4 7.2 8.1 6.6z"/>
	<path id="Layer" class="s0" d="m75.6 202.6q-1.6-1.2-5.9-3.5-5.3-2.9-6.7-4.6-1-1.2-1-2.6 0-1.8 1.5-3.3 1.6-1.4 4-1.4 2.1 0 4 1.1 2 1 3 2.9 1.1 1.8 1.5 4.9h0.8v-10.7h-0.8q-0.2 1-0.6 1.4-0.4 0.3-1 0.3-0.5 0-1.8-0.5-2.7-1.2-5.2-1.2-3.9 0-6.5 2.4-2.5 2.4-2.5 5.7 0 1.9 0.8 3.5 0.9 1.6 2.6 2.9 1.6 1.3 5.6 3.6 4 2.2 4.9 2.9 1.3 1 1.9 2.1 0.6 1.2 0.6 2.3 0 2.1-1.6 3.6-1.7 1.5-4.5 1.5-2.5 0-4.5-1.1-2.1-1.1-3.1-2.7-1-1.7-1.6-5h-0.8v10.6h0.8q0.2-1.1 0.5-1.4 0.3-0.4 0.9-0.4 0.6 0 2.8 0.7 2.2 0.8 2.9 0.9 1.2 0.2 2.6 0.2 4.2 0 7-2.6 2.7-2.5 2.7-6 0-1.9-0.9-3.5-0.8-1.7-2.4-3z"/>
	<path id="Layer" class="s0" d="m89.8 188.5q0.7-0.7 0.7-1.6 0-1-0.7-1.7-0.7-0.6-1.6-0.6-1 0-1.7 0.6-0.6 0.7-0.6 1.7 0 0.9 0.6 1.6 0.7 0.7 1.7 0.7 0.9 0 1.6-0.7z"/>
	<path id="Layer" class="s0" d="m86 214.9q-0.3 0.7-0.9 1-0.5 0.3-2 0.3v0.8h10.1v-0.8q-1.4 0-2-0.4-0.6-0.3-0.8-0.9-0.3-0.7-0.3-2.6v-16.8h-1l-6.3 2.5 0.3 0.9q0.9-0.4 1.5-0.4 0.6 0 1 0.3 0.3 0.3 0.5 1 0.2 1 0.2 4.4v8.1q0 1.9-0.3 2.6z"/>
	<path id="Layer" class="s0" d="m102 184.6l-6.2 2.5 0.4 0.8q0.9-0.4 1.5-0.4 0.5 0 0.9 0.3 0.3 0.3 0.5 1.1 0.1 0.9 0.1 4.4v19q0 1.9-0.3 2.6-0.3 0.7-0.8 1-0.5 0.3-1.9 0.3v0.8h10.2v-0.8q-1.6 0-2.2-0.4-0.6-0.3-0.9-0.9-0.3-0.7-0.3-2.6v-27.7z"/>
	<path id="Layer" class="s0" d="m128.6 197.4q0.5-0.4 1.7-0.5v-0.8h-6.9v0.8q1.2 0 1.6 0.2 0.4 0.1 0.7 0.4 0.1 0.2 0.1 0.6 0 0.6-0.5 1.9l-4.9 12-4.8-11.6q-0.5-1.1-0.5-1.9 0-0.7 0.5-1.1 0.4-0.5 1.3-0.5h0.7v-0.8h-9.9v0.8q1.2 0.2 1.6 0.4 0.7 0.4 1.1 0.9 0.5 0.6 1 1.8l7.4 17.6h1l7.4-17.9q0.6-1.6 1.4-2.3z"/>
	<path id="Layer" fill-rule="evenodd" class="s0" d="m150.1 204h-14.4q-0.1 4.6 2.2 7.3 2.3 2.6 5.4 2.6 2 0 3.5-1.1 1.6-1.2 2.6-3.9l0.7 0.5q-0.5 3.1-2.8 5.6-2.3 2.6-5.8 2.6-3.7 0-6.4-2.9-2.7-2.9-2.7-7.9 0-5.3 2.8-8.3 2.7-3 6.9-3 3.5 0 5.7 2.3 2.3 2.3 2.3 6.2zm-4.8-1.4q-0.1-2-0.5-2.8-0.5-1.3-1.7-2-1.1-0.7-2.3-0.7-1.9 0-3.4 1.4-1.5 1.5-1.7 4.1z"/>
	<path id="Layer" class="s0" d="m164.4 195.5q-2.8 0-5.4 4.7v-4.7h-1l-6.3 2.5 0.2 0.9q0.9-0.4 1.6-0.4 0.6 0 1 0.3 0.4 0.4 0.6 1 0.1 0.7 0.1 4.4v8.1q0 1.8-0.1 2.2-0.2 0.8-0.8 1.2-0.8 0.5-2.4 0.5v0.8h10.7v-0.8q-1.4 0-2.1-0.5-0.8-0.4-1.1-1-0.4-0.9-0.4-2.6v-10q1.1-2.1 2.1-3.1 0.5-0.4 0.9-0.4 0.5 0 1.5 0.7 0.9 0.8 1.7 0.8 0.9 0 1.5-0.6 0.6-0.6 0.6-1.5 0-1-0.9-1.8-0.8-0.7-2-0.7z"/>
	<path id="Layer" class="s0" d="m89 242.9h1.1q1.1 0 2.1 0.6 0.7 0.4 1 1 0.3 0.7 0.3 3.1v19.9q0 2.8-0.6 3.5-0.8 1.2-2.8 1.2h-1.1v0.8h13.3v-0.8h-1.1q-1.1 0-2.1-0.6-0.7-0.4-1-1-0.3-0.7-0.3-3.1v-19.9q0-2.8 0.6-3.6 0.9-1.1 2.8-1.1h1.1v-0.8h-13.3c0 0 0 0.8 0 0.8z"/>
	<path id="Layer" class="s0" d="m104.6 242.9h1.1q1.1 0 2.1 0.6 0.7 0.4 0.9 1 0.3 0.7 0.3 3.1v19.9q0 2.8-0.5 3.5-0.9 1.2-2.8 1.2h-1.1v0.8h13.2v-0.8h-1.1q-1.1 0-2.1-0.6-0.7-0.4-0.9-1-0.3-0.7-0.3-3.1v-19.9q0-2.8 0.6-3.6 0.8-1.1 2.7-1.1h1.1v-0.8h-13.2z"/>
	<path id="Layer" class="s0" d="m120.1 242.9h1.1q1.1 0 2.1 0.6 0.7 0.4 1 1 0.3 0.7 0.3 3.1v19.9q0 2.8-0.6 3.5-0.9 1.2-2.8 1.2h-1.1v0.8h13.3v-0.8h-1.1q-1.1 0-2.1-0.6-0.7-0.4-1-1-0.3-0.7-0.3-3.1v-19.9q0-2.8 0.6-3.6 0.9-1.1 2.8-1.1h1.1v-0.8h-13.3c0 0 0 0.8 0 0.8z"/>
</svg>