<svg version="1.2" xmlns="http://www.w3.org/2000/svg" viewBox="0 0 223 283" width="223" height="283">
	<title>New Project</title>
	<style>
		.s0 { fill: #939393 } 
	</style>
	<path id="Layer" fill-rule="evenodd" class="s0" d="m197.3 110.7c0 0.2-0.2 0.4-0.4 0.4 0 0-3.2 0.5-6.1 3.1-0.8 0.7-1.6 1.6-2.3 2.5-1.7 2.1-3.5 4.3-6.8 4.3q-0.1 0-0.3 0c-2.3-0.1-4-0.7-5.6-1.3-1.5-0.5-2.8-1-4.4-0.9q-0.4 0.9-0.8 1.7-1.1 2-2.2 3.9c0.8-0.5 1.6-0.9 2.5-1.1q0 0 0.1 0-0.1-0.1-0.1-0.1c0-0.6 0.5-1.1 1.2-1.1 0.6 0 1.1 0.5 1.1 1.1 0 0.6-0.5 1.1-1.1 1.1-0.5 0-0.9-0.3-1.1-0.6q0 0 0 0c-1.2 0.2-2.3 0.8-3.2 1.6-1.6 2.4-3.3 4.7-5.1 6.9 2.1-0.9 4.4-1.4 6.6-1.4q0 0 0 0 0.1 0 0.1 0c0.1-0.7 0.6-1.2 1.3-1.2 0.8 0 1.4 0.6 1.4 1.3 0 0.8-0.6 1.4-1.4 1.4-0.6 0-1.2-0.5-1.3-1.1q0 0-0.1 0c-2.5 0-5 0.6-7.3 1.7q-1 1.2-2.2 2.3-1.3 1.3-2.6 2.5c1.2-0.5 2.7-0.9 4.3-0.9 2.6-1.6 7.5-1.8 10.9-1.4 3.7 0.3 6.7 0.3 6.7 0.3 0.2 0 0.4 0.2 0.4 0.3 0.1 0.2 0 0.4-0.2 0.5 0 0-2.3 1-4.2 2.4-1.2 0.9-2.5 1.4-3.4 1.6 1 0.6 2 1.1 3 1.4 3.7 0.9 5.2 1.7 5.3 1.7 0.2 0.1 0.3 0.3 0.2 0.5-0.1 0.2-0.3 0.3-0.5 0.2-2.4-0.6-4.5-0.3-6.8 0-1.4 0.2-2.7 0.4-4.3 0.4q-0.6 0-1.3 0c-3-0.3-4.4-1.2-5.8-2-0.8-0.5-1.5-1-2.6-1.4-2.8-1-5.6-0.3-5.7-0.3q0 0 0 0-2.5 1.9-5.1 3.6 3.5-0.2 7 0.3c0.2-0.3 0.6-0.6 1-0.6 0.6 0 1 0.5 1 1 0 0.6-0.4 1.1-1 1.1-0.6 0-1.1-0.5-1.1-1.1q0.1 0 0.1 0c-2.6-0.4-5.1-0.5-7.7-0.3q-0.8 0.5-1.6 1-1.6 0.9-3.1 1.7 0.2 0 0.5 0c3.3-0.3 6 0.4 7.3 1.1 1.6 0.9 2.4 1.9 3.6 3.3l0.1 0.1c1.4 1.7 2.6 2.6 2.6 2.6 0.1 0.1 0.2 0.3 0.1 0.5q-0.1 0.2-0.4 0.2 0 0-0.1 0c-0.9-0.3-2-0.3-3.3-0.3-2 0-4.4-0.1-6.5-1.1-2.1-1-3-1.9-3.6-2.6-0.5-0.5-0.8-0.9-1.4-1.3-1-0.5-1.9-0.7-2.4-0.7q-4 1.9-8 3.4c1.5 0 3 0.3 4.5 0.8 0 0 0.2 0.1 0.4 0.2 0.1-0.4 0.5-0.7 1-0.7 0.6 0 1.1 0.5 1.1 1.1 0 0.7-0.5 1.2-1.1 1.2-0.6 0-1.1-0.5-1.1-1.2q0 0 0-0.1-0.1 0-0.1 0c-1.8-0.7-3.8-1-5.8-0.9q-2.5 0.9-5 1.7c1.3 0 2.6 0 4.7 1 2.2 1 3.2 2.3 4.2 3.6 0.6 0.7 1.1 1.4 1.9 2.1 0.2 0.1 0.2 0.3 0.2 0.4-0.1 0.2-0.3 0.3-0.4 0.3-0.2 0-5.6-0.1-9-2.5-2.5-1.7-3.7-3.4-4.2-4.1q-3 0.9-5.8 1.6-1.6 0.3-3.1 0.7 2.2 0.5 4.2 1.1c3.5 1 6.6 2 9.1 3 2.5 1 4.5 1.9 5.7 2.6 1.3 0.7 1.9 1.3 2 1.3 0.2 0.2 0.2 0.6 0 0.8-0.2 0.3-0.6 0.3-0.8 0.1 0-0.1-0.6-0.5-1.8-1.2-1.2-0.7-3-1.6-5.5-2.5-2.5-1-5.5-2-9.1-3q-3-0.8-6.4-1.6c-2.3 0.5-4.4 1.1-6.4 1.6-3.6 1-6.6 2-9.1 3-2.5 0.9-4.3 1.8-5.5 2.5-1.3 0.7-1.8 1.2-1.7 1.1-0.3 0.3-0.7 0.3-0.9 0-0.2-0.2-0.2-0.6 0.1-0.8 0 0 0.6-0.6 1.9-1.3 1.3-0.7 3.2-1.6 5.7-2.6 2.5-1 5.6-2 9.2-3q2-0.6 4.2-1.1-1.6-0.4-3.1-0.7-2.9-0.7-5.9-1.6c-0.5 0.7-1.7 2.4-4.2 4.1-3.4 2.4-8.7 2.5-9 2.5-0.1 0-0.3-0.1-0.3-0.3-0.1-0.1 0-0.3 0.1-0.4 0.8-0.7 1.3-1.4 1.9-2.1 1-1.3 2-2.6 4.2-3.6 2.1-1 3.4-1 4.7-1q-2.5-0.8-5-1.7c-2-0.1-4 0.2-5.8 0.9q0 0-0.1 0 0 0.1 0.1 0.1c0 0.7-0.6 1.2-1.2 1.2-0.6 0-1.1-0.5-1.1-1.2 0-0.6 0.5-1.1 1.1-1.1 0.5 0 0.9 0.3 1 0.7 0.2-0.1 0.4-0.2 0.5-0.2 1.4-0.5 2.9-0.8 4.4-0.8q-4-1.5-8-3.4c-0.5 0-1.3 0.2-2.3 0.7-0.6 0.4-1 0.8-1.4 1.3-0.7 0.7-1.6 1.6-3.7 2.6-2.1 1-4.5 1.1-6.5 1.1-1.2 0-2.4 0-3.3 0.3q-0.1 0-0.1 0-0.2 0-0.4-0.2c0-0.2 0-0.4 0.2-0.5 0 0 1.1-0.9 2.5-2.6l0.1-0.1c1.2-1.4 2.1-2.4 3.6-3.3 1.3-0.7 4-1.4 7.3-1.1q0.3 0 0.6 0-1.6-0.8-3.2-1.7-0.8-0.5-1.6-1c-2.5-0.2-5.1-0.1-7.6 0.3q0 0 0 0c0 0.6-0.5 1.1-1.1 1.1-0.6 0-1-0.5-1-1.1 0-0.5 0.4-1 1-1 0.5 0 0.8 0.3 1 0.6q3.5-0.5 7-0.3-2.6-1.7-5.1-3.6 0 0 0 0c-0.1 0-2.8-0.7-5.7 0.3-1.1 0.4-1.8 0.9-2.6 1.4-1.4 0.8-2.8 1.7-5.8 2q-0.7 0-1.3 0c-1.5 0-2.9-0.2-4.3-0.4-2.3-0.3-4.4-0.6-6.8 0-0.2 0.1-0.4 0-0.5-0.2 0-0.2 0-0.4 0.2-0.5 0.1 0 1.6-0.8 5.3-1.7 1.1-0.3 2-0.8 3-1.4-0.9-0.2-2.2-0.7-3.4-1.6-1.9-1.4-4.2-2.4-4.2-2.4-0.2-0.1-0.3-0.3-0.2-0.5 0-0.1 0.2-0.3 0.4-0.3 0 0 3 0 6.7-0.3 3.4-0.4 8.3-0.2 10.9 1.4 1.6 0 3.1 0.4 4.3 0.9q-1.3-1.2-2.6-2.5-1.2-1.1-2.2-2.3c-2.3-1.1-4.8-1.7-7.3-1.7q-0.1 0-0.1 0c-0.1 0.6-0.6 1.1-1.3 1.1-0.8 0-1.4-0.6-1.4-1.4 0-0.7 0.6-1.3 1.4-1.3 0.7 0 1.3 0.5 1.3 1.2q0 0 0.1 0c2.3 0 4.5 0.5 6.7 1.4-1.9-2.2-3.6-4.5-5.2-6.9-0.9-0.8-2-1.4-3.2-1.6q0 0 0 0c-0.2 0.4-0.6 0.6-1.1 0.6-0.6 0-1.1-0.5-1.1-1.1 0-0.6 0.5-1.1 1.1-1.1 0.7 0 1.2 0.5 1.2 1.1q0 0 0 0.1 0 0 0 0c0.9 0.2 1.8 0.6 2.6 1.1q-1.2-1.9-2.3-3.9-0.4-0.8-0.8-1.7c-1.6-0.1-2.9 0.4-4.4 0.9-1.5 0.6-3.3 1.2-5.6 1.3q-0.1 0-0.3 0c-3.3 0-5.1-2.2-6.8-4.3-0.7-0.9-1.5-1.8-2.3-2.5-2.9-2.6-6.1-3.1-6.1-3.1-0.2 0-0.4-0.2-0.4-0.4 0.1-0.2 0.2-0.4 0.4-0.4 3.9 0 6.9 0.6 8.5 1-1.9-2.3-3.3-5.1-4.7-7.9-1.3-2.6-2.5-5.1-4-6.9-0.1-0.2-0.1-0.4 0-0.5 0.2-0.2 0.4-0.2 0.5-0.1 2.4 1.5 4.7 2.5 7.2 3.5 2.2 1 4.5 2 6.9 3.4 3.9 2.3 5.2 4.7 6.7 7.6 0.4 0.8 0.9 1.7 1.4 2.5q0.8 1.3 1.4 2.2c-0.5-1-0.9-2-1.2-3.1-0.4-1.5-1-2.9-1.4-4.4l-0.3-1.5c-0.5-0.8-1.2-1.6-1.9-2.2-0.2 0.2-0.5 0.4-0.8 0.4-0.6 0-1.1-0.5-1.1-1.1 0-0.5 0.5-1 1.1-1 0.5 0 1 0.5 1 1q0 0.2-0.1 0.3 0.9 0.8 1.6 1.6l-0.4-1.9q-0.3-1.3-0.5-2.7c-1.2-2.5-3-4.8-5.1-6.6q0 0 0 0c-0.3 0.2-0.6 0.4-1 0.4-0.8 0-1.4-0.7-1.4-1.5 0-0.8 0.6-1.5 1.4-1.5 0.8 0 1.5 0.7 1.5 1.5 0 0.3-0.1 0.5-0.3 0.8q0 0 0 0c1.9 1.6 3.5 3.5 4.7 5.7-0.4-3.1-0.7-6.1-0.8-9.1q-0.1-0.1-0.1-0.2 0-0.1-0.3-0.6-0.3-0.8-0.8-1.6 0 0-0.1-0.1c-1-1.2-3.7-2.9-7.9-4.8-2.9-1.4-5.3-4.6-7-9.3-1.4-3.9-3-6.2-3-6.2-0.1-0.2-0.1-0.4 0-0.5 0.2-0.2 0.4-0.2 0.5-0.1 1.7 1 3.1 2.1 4 2.8-0.8-2.6-1.4-5.3-1.9-7.9-0.4-2.2-0.8-4.4-1.3-6.1-0.1-0.2 0-0.4 0.2-0.4 0.2-0.1 0.4 0 0.5 0.2 0.9 1.8 2.9 3.6 5.2 5.5-0.2-1.1-0.4-3-0.1-5.3 0.1-0.1 0.2-0.3 0.4-0.3 0.2 0 0.3 0.1 0.4 0.3 0 0 0.4 1.3 2.2 3.4l0.4 0.5c1.8 2.2 4.6 5.4 5.9 10.9 1.2 4.9 0.9 8.6 0.9 8.7q0 0.1-0.1 0.2 0.1 0.5 0.1 1v0.2c0.2 2.7 1.2 5.8 1.9 7.6q0-1.3 0-2.5c0.2-2.7 0.4-5.4 0.8-8-0.2-2.9-0.6-5.8-1.5-8.5q-0.2 0-0.3 0c-0.6 0-1.1-0.5-1.1-1.1 0-0.6 0.5-1.1 1.1-1.1 0.6 0 1.1 0.5 1.1 1.1 0 0.4-0.2 0.7-0.5 0.9q0 0 0 0 1.1 3.4 1.4 6.9c0.4-2.2 0.9-4.5 1.6-6.6q0.7-2.6 1.6-5c-0.1-3.4-0.5-6.7-1.4-9.9q0 0 0 0-0.1 0-0.3 0c-0.7 0-1.3-0.6-1.3-1.3 0-0.8 0.6-1.4 1.3-1.4 0.8 0 1.4 0.6 1.4 1.4 0 0.5-0.3 0.9-0.7 1.2q0 0 0 0c0.8 2.9 1.2 6 1.4 9.1q0.8-2.1 1.7-4.1c0.5-4.4-2.2-8.1-5.1-12l-0.4-0.7c-2.4-3.2-2.8-7.8-3.2-11.1-0.1-1.2-0.2-2.3-0.3-3.1-0.7-2.9-1.5-4.5-3.4-7.3-0.1-0.1-0.1-0.3 0-0.5 0.1-0.1 0.3-0.1 0.5-0.1 4.7 2.2 8.1 7.5 9.4 9.7 0.3-2.5 1.3-5.2 2.2-7.6q0.5-1.6 1-3c0.8-2.4 2-7.7 2-7.8 0.1-0.2 0.2-0.3 0.4-0.3 0.2 0 0.3 0.1 0.4 0.3 0 0 1.1 3.8 1.7 8.1l0.2 1.5c0.7 4.2 1.6 9.9 1 14-0.7 4.1-2.2 6.4-3.4 8.3-0.5 0.9-1 1.6-1.3 2.4-0.1 0.2-0.4 2-0.5 4.1 0 1 0 1.9 0.1 2.6q0.3-0.6 0.6-1.2c2.1-3.8 4.3-7 6.5-9.7 1-2.8 1.6-5.6 1.7-8.5-0.6-0.1-1-0.7-1-1.3 0-0.7 0.6-1.3 1.3-1.3 0.7 0 1.4 0.6 1.4 1.3 0 0.7-0.6 1.3-1.3 1.3q-0.2 3.9-1.3 7.5c1.9-2.3 3.8-4.3 5.4-5.9q0-0.1 0.1-0.1c2-3.2 3.6-6.5 4.9-10.1q0 0 0 0c-0.5-0.2-0.9-0.6-0.9-1.2 0-0.8 0.6-1.4 1.3-1.4 0.8 0 1.4 0.6 1.4 1.4 0 0.7-0.6 1.3-1.4 1.3q0 0-0.1 0 0 0 0 0.1c-1.1 3.1-2.5 6.1-4.2 9 1.8-1.8 3.4-3.1 4.4-4q1.2-1 1.5-1.3c0.7-0.9 1.2-2.8 1.8-4.8 0.5-2.1 1.2-4.5 2.2-6.4 1.3-2.5 3.8-4.2 6-5.6 1.4-0.9 2.7-1.8 3.5-2.7 0.1-0.1 0.3-0.1 0.4-0.1 0.2 0.1 0.3 0.3 0.2 0.5 0 0.2-0.8 4.4-2 7.4 6.3-3.8 16.2-4.6 16.7-4.6 0.2 0 0.4 0.1 0.4 0.3 0.1 0.2-0.1 0.4-0.2 0.5-1.4 0.4-3.6 2.5-5.9 4.7-2.3 2.2-5 4.7-7.5 6.3-3.1 1.9-7.2 3-10.5 3.8-2.1 0.6-3.9 1-4.6 1.5q-0.1 0.1-0.1 0.1-0.5 0.3-1.3 1c-1.1 1-2.7 2.3-4.6 4.2-1.1 1.1-2.3 2.4-3.6 3.8 3.1-1.9 6.4-3.5 9.9-4.5 0.1 0 0.2 0 0.2 0.1q0-0.1 0-0.1c0-0.8 0.6-1.4 1.4-1.4 0.7 0 1.3 0.6 1.3 1.4 0 0.7-0.6 1.3-1.3 1.3-0.7 0-1.2-0.5-1.3-1.1q-0.1 0.1-0.2 0.2c-3.9 1.1-7.6 2.9-11 5.2-2.6 2.9-5.3 6.6-7.8 11 1.4-1 4.1-2.8 8.5-5.9 7.4-5 10.7-5.4 15.8-5.9l0.6-0.1c5.2-0.5 8.7-1.8 8.7-1.8 0.2 0 0.4 0.1 0.5 0.2 0.1 0.2 0 0.4-0.2 0.5-2.3 1.5-3.9 3.2-5.3 4.8-1.8 2-3.5 3.8-6.4 5.2-4.2 1.8-8.5 1.4-12 1-1-0.1-1.9-0.2-2.7-0.3q-0.1 0-0.2 0c-3.1 0-6.9 2.8-9.2 5.7q-1.2 2.3-2.2 4.8c2.3-2 4.9-3.7 7.6-5.1q0 0 0 0 0-0.2 0-0.4c0-0.8 0.6-1.5 1.4-1.5 0.8 0 1.5 0.7 1.5 1.5 0 0.8-0.7 1.5-1.5 1.5-0.5 0-0.9-0.3-1.2-0.8q0 0 0 0.1c-3 1.4-5.7 3.3-8.1 5.5q-1.1 2.8-1.9 5.9-0.4 1.1-0.7 2.2c1.5-1.3 3.5-2.6 4.6-3.1 0.4-0.8 2.4-4.5 7.4-6.1 2.6-0.8 5-0.8 7.4-0.8 2.5 0 5.2 0 8.1-1.1 0.2 0 0.3 0 0.4 0.1 0.1 0.1 0.2 0.3 0.1 0.4 0 0.1-0.8 2.5-4.8 4.3q0.1 0 0.2 0.1c0.8 0.1 1.6 0.3 2.5 0.5 3.6 0.7 6.7 0.6 6.7 0.6q0 0 0 0c0.2 0 0.4 0.1 0.4 0.3 0.1 0.2-0.1 0.4-0.2 0.4-1.6 0.5-3 1.4-4.4 2.3-2.3 1.4-5 3.1-9.1 3.4-4.4 0.3-7.8-1-10.4-2-1.3-0.5-2.4-0.9-3.2-0.9-2.2-0.1-5 2.3-6.3 4.6-0.6 3.5-1 7.2-1.2 10.9q0 1.8 0 3.7c0.6-2.3 1.5-4.6 2.7-6.6q0.1 0 0.1-0.1c-0.2-0.2-0.3-0.4-0.3-0.7 0-0.6 0.4-1.1 1-1.1 0.6 0 1.1 0.5 1.1 1.1 0 0.5-0.5 1-1.1 1q-0.2 0-0.4-0.1 0 0.1 0 0.1c-1.5 2.5-2.5 5.2-3 8.1 0.1 2.5 0.3 5 0.7 7.6 0.5-2.5 1.5-4.4 2.4-6.1l0.2-0.3c0.4-0.8 0.8-1.8 1.1-2.9 0.8-2.6 1.8-5.9 4.6-7.9 2.2-1.7 4.8-2.4 7.3-3 1.8-0.4 3.5-0.8 4.9-1.6 0.1-0.1 0.3 0 0.5 0.1 0.1 0.2 0.1 0.4-0.1 0.5 0 0-2.2 2.1-3.6 5.1q-0.3 0.7-0.7 1.5c-1.1 2.6-2.2 5.1-5.2 6.4-1.5 0.6-2.7 1-3.7 1.3-1.5 0.5-2.7 0.9-4 1.7-2.3 1.5-3 6.6-3.2 8.4q0.1 0.6 0.2 1.1l1 4.4c0.3 1.5 0.9 2.9 1.3 4.3 0.4 1.3 0.9 2.6 1.4 3.8-0.3-4.1 0-8.2 0.9-12.2q0 0 0 0c-0.4-0.2-0.7-0.6-0.7-1.1 0-0.6 0.5-1.1 1.1-1.1 0.7 0 1.2 0.5 1.2 1.1 0 0.6-0.5 1.1-1.2 1.1q0 0 0 0 0 0 0 0.1c-1 4.3-1.3 8.8-0.8 13.2q0.8 1.7 1.6 3.4 0.3 0.5 0.6 1.1c-0.2-0.9-0.2-1.8-0.2-2.7q-0.1-1.2 0-2.4-0.1 0-0.1-0.1 0 0 0-0.2 0-0.6 0-1.3c0.1-4 0.1-8.1 3.4-12.5 0.8-1.1 1.7-2 2.5-2.9 1.3-1.6 2.6-3 3.8-5.2 0-0.2 0.2-0.3 0.4-0.2 0.2 0 0.3 0.2 0.3 0.4 0 0.7-0.2 6.2-0.6 8.6q0.6-0.3 1.2-0.6c2.8-1.2 5.5-2.4 7.5-5.6 0.1-0.1 0.3-0.2 0.4-0.1 0.2 0 0.3 0.2 0.3 0.3 0 0.1 0.2 9.8-7.1 13.4-2.4 1.2-4.3 2-5.8 2.6-3.1 1.3-4.5 1.9-5 3.3-0.3 0.8-0.4 1.7-0.4 2.6 0.1 1.6 0.4 3.2 0.7 4.8q1.6 2.7 3.5 5.2c-0.6-3.6-0.7-6.5-0.2-9.3-0.4-0.2-0.6-0.6-0.6-1 0-0.6 0.4-1.1 1-1.1 0.6 0 1 0.5 1 1.1 0 0.6-0.4 1-1 1q0 0 0 0c-0.5 3-0.4 6.1 0.3 10q1.8 2.3 3.8 4.4c-0.3-1-0.6-2.2-0.8-3.8-0.5-5 1.3-8 2.4-9.9q0.5-0.7 0.8-1.3c0.3-0.7 0.5-1.5 0.6-2.2 0.2-1.3 0.5-2.6 1.6-3.7 0.1-0.1 0.3-0.1 0.5-0.1 0.1 0.1 0.2 0.3 0.2 0.5-0.4 1.4-0.1 3.7 0.1 6 0.2 2 0.4 3.9 0.2 5.3-0.4 2.4-1.5 4-2.5 5.2-0.7 0.8-1.2 1.5-1.4 2.4-0.4 2.1 1.2 4.3 1.2 4.4q0 0 0 0 3.2 2.9 6.6 5.3c-1.2-2-2.1-4.2-2.5-6.5q0 0 0 0c-0.6-0.1-1.1-0.5-1.1-1.2 0-0.6 0.5-1.1 1.2-1.1 0.6 0 1.1 0.5 1.1 1.1 0 0.6-0.3 1-0.8 1.1q0 0 0 0c0.5 2.6 1.5 5.1 3 7.2q2.1 1.5 4.2 2.8 0.1 0 0.1 0-0.2-0.5-0.6-1.1c-1-2-2.3-4.5-2.3-8.2 0.1-2.3 0.7-4.2 1.3-6 0.4-1.4 0.9-2.8 0.9-4.3 0.1-0.2 0.2-0.3 0.4-0.3 0.3 0 0.4 0.1 0.4 0.3 0 0.1 0.1 3 1 5.6 1 2.8 1.3 6.4 0.7 8.6l-0.2 1.1c-0.3 1.2-0.4 1.4-0.6 2.8-0.1 0.7 0 1.6 0.2 2.1q4.1 2.4 8.3 4.2c-1.4-1.5-2.5-3.1-3.4-4.9q0 0 0 0-0.1 0-0.3 0.1c-0.6 0-1-0.5-1-1.1 0-0.6 0.4-1 1-1 0.6 0 1.1 0.4 1.1 1 0 0.4-0.2 0.6-0.5 0.8q0 0.1 0.1 0.1c1 2 2.3 3.8 4 5.4q2.3 1 4.5 1.8-0.5-0.5-1.2-1.1c-1.2-1.1-2.6-2.3-3.5-4.2-1.7-3.4-1.4-7.5-1.1-11.5 0-0.2 0.2-0.3 0.4-0.3q0.3 0 0.4 0.2c0 0.1 0.8 2.8 2.1 4.7q0.4 0.5 0.7 1c0.5 0.7 1 1.3 1.5 2.2 0.1-1.4 0.6-3.5 2-5.9 0.1-0.1 0.3-0.2 0.4-0.1 0.2 0.1 0.3 0.2 0.3 0.4 0 0-0.3 1.3 0.2 4.7q0.2 0.8 0.3 1.7c0.3 1.5 0.6 3.2 0.6 4.8-0.1 1.9-0.5 2.9-0.8 3.7q-0.1 0.2-0.2 0.5c3.6 1.2 7.2 2.3 10.6 3.1-0.9-0.7-1.7-1.8-2.1-3.1-0.7-2.3-0.8-4-0.8-5.9-0.1-1-0.1-2-0.3-3.2 0-0.2 0.2-0.4 0.4-0.4 0.2-0.1 0.4 0.1 0.4 0.3 0.5 1.7 1.6 3.1 2.7 4.4 1 1.2 2 2.4 2.5 3.8 0.9 2.2 0.8 4.1 0.7 5q1.5 0.3 2.9 0.7 1.4-0.4 2.9-0.7c-0.1-0.9-0.2-2.8 0.7-5 0.5-1.4 1.5-2.6 2.5-3.8 1.1-1.3 2.2-2.7 2.7-4.4 0-0.2 0.3-0.4 0.4-0.3 0.2 0 0.4 0.2 0.4 0.4-0.2 1.2-0.2 2.2-0.3 3.2 0 1.9-0.1 3.6-0.8 5.9-0.4 1.4-1.2 2.4-2.1 3.1 3.4-0.8 7-1.9 10.6-3.1q-0.1-0.3-0.2-0.5c-0.3-0.8-0.7-1.8-0.8-3.7 0-1.6 0.3-3.3 0.6-4.8q0.2-0.9 0.3-1.7c0.5-3.4 0.2-4.7 0.2-4.7 0-0.2 0.1-0.3 0.3-0.4 0.1-0.1 0.3 0 0.4 0.1 1.4 2.4 1.9 4.5 2.1 5.9 0.4-0.9 0.9-1.5 1.4-2.2q0.3-0.5 0.7-1c1.3-1.9 2.1-4.6 2.1-4.6q0.1-0.3 0.4-0.3c0.2 0 0.4 0.1 0.4 0.3 0.3 4 0.6 8.1-1.1 11.5-0.9 1.9-2.3 3.1-3.5 4.2q-0.7 0.6-1.2 1.1 2.2-0.8 4.5-1.8c1.7-1.6 3-3.4 4.1-5.4q0 0 0-0.1c-0.3-0.2-0.4-0.4-0.4-0.8 0-0.6 0.4-1 1-1 0.6 0 1 0.4 1 1 0 0.6-0.4 1.1-1 1.1q-0.2-0.1-0.3-0.1 0 0 0 0c-0.9 1.8-2 3.4-3.4 4.9q4.2-1.8 8.3-4.2c0.2-0.5 0.3-1.4 0.2-2.1-0.2-1.4-0.3-1.6-0.6-2.8l-0.2-1.1c-0.6-2.2-0.3-5.8 0.7-8.6 0.9-2.6 1-5.5 1-5.6 0-0.2 0.2-0.3 0.4-0.3 0.2 0 0.4 0.1 0.4 0.3 0 1.5 0.5 2.9 0.9 4.3 0.6 1.8 1.2 3.7 1.3 6 0 3.7-1.3 6.2-2.3 8.2q-0.3 0.6-0.6 1.1 0 0 0.1 0 2.1-1.3 4.2-2.8c1.5-2.1 2.5-4.6 3-7.2q0 0 0 0c-0.5-0.1-0.8-0.6-0.8-1.1 0-0.6 0.5-1.1 1.1-1.1 0.7 0 1.2 0.5 1.2 1.1 0 0.7-0.5 1.1-1.1 1.2q0 0 0 0c-0.4 2.3-1.3 4.5-2.5 6.5q3.4-2.5 6.6-5.3 0 0 0 0c0-0.1 1.6-2.3 1.2-4.4-0.2-0.9-0.7-1.6-1.4-2.4-0.9-1.3-2.1-2.8-2.5-5.2-0.2-1.4 0-3.3 0.2-5.3 0.2-2.3 0.5-4.6 0.1-6 0-0.2 0.1-0.4 0.2-0.5 0.2 0 0.4 0 0.5 0.1 1.1 1.1 1.4 2.4 1.6 3.7 0.2 0.7 0.3 1.5 0.6 2.2q0.3 0.6 0.8 1.3c1.1 1.9 2.9 4.8 2.4 9.9-0.2 1.6-0.5 2.8-0.8 3.8q2-2.1 3.8-4.4c0.7-3.9 0.8-7 0.3-10q0 0 0 0c-0.6 0-1-0.4-1-1 0-0.6 0.4-1.1 1-1.1 0.6 0 1 0.5 1 1.1 0 0.4-0.2 0.8-0.6 0.9 0.5 2.9 0.4 5.8-0.2 9.4q1.9-2.5 3.5-5.2c0.3-1.6 0.6-3.2 0.7-4.8 0-0.9-0.1-1.8-0.4-2.6-0.5-1.4-1.9-2-5-3.3-1.5-0.6-3.4-1.4-5.8-2.6-7.3-3.6-7.1-13.3-7.1-13.4 0-0.1 0.1-0.3 0.3-0.3 0.1-0.1 0.3 0 0.4 0.1 2 3.2 4.7 4.4 7.5 5.6q0.6 0.3 1.2 0.6c-0.4-2.4-0.6-7.9-0.6-8.6 0-0.2 0.1-0.4 0.3-0.4 0.2-0.1 0.4 0 0.4 0.2 1.2 2.2 2.5 3.6 3.8 5.2 0.8 0.9 1.7 1.8 2.5 2.9 3.3 4.4 3.3 8.5 3.4 12.5q0 0.7 0 1.3 0 0.2 0 0.2 0 0.1-0.1 0.1 0.1 1.2 0 2.4c0 0.9 0 1.8-0.2 2.7q0.3-0.6 0.6-1.1 0.8-1.7 1.6-3.4c0.5-4.4 0.2-8.9-0.8-13.2q0-0.1 0-0.1 0 0 0 0c-0.7 0-1.2-0.5-1.2-1.1 0-0.6 0.5-1.1 1.2-1.1 0.6 0 1.1 0.5 1.1 1.1 0 0.5-0.3 0.9-0.7 1.1q0 0 0 0c0.9 4 1.2 8.1 0.9 12.2 0.5-1.2 1-2.5 1.4-3.8 0.4-1.4 1-2.8 1.3-4.3l1-4.4q0.1-0.5 0.2-1.1c-0.2-1.8-0.9-6.9-3.2-8.4-1.3-0.8-2.5-1.2-4-1.7-1-0.3-2.2-0.7-3.7-1.3-3-1.3-4.1-3.8-5.2-6.4q-0.4-0.8-0.7-1.5c-1.4-3-3.6-5-3.6-5.1-0.2-0.1-0.2-0.3-0.1-0.5 0.2-0.1 0.4-0.2 0.6-0.1 1.3 0.8 3 1.2 4.8 1.6 2.5 0.6 5.1 1.3 7.3 3 2.8 2 3.8 5.3 4.6 7.9 0.3 1.1 0.7 2.1 1.1 2.9l0.2 0.3c0.9 1.7 1.9 3.6 2.4 6.1 0.4-2.6 0.6-5.1 0.7-7.6-0.5-2.9-1.5-5.6-3-8.1q0 0 0-0.1-0.2 0.1-0.4 0.1c-0.6 0-1-0.5-1-1 0-0.6 0.4-1.1 1-1.1 0.6 0 1 0.5 1 1.1 0 0.3-0.1 0.5-0.3 0.7q0 0.1 0.1 0.1c1.2 2 2.1 4.3 2.7 6.6q0-1.9 0-3.7c-0.2-3.7-0.6-7.4-1.2-10.9-1.3-2.3-4.1-4.7-6.3-4.6-0.8 0-1.9 0.4-3.2 0.9-2.6 1-6 2.3-10.4 2-4.1-0.3-6.8-2-9.1-3.4-1.4-0.9-2.8-1.8-4.4-2.3-0.1 0-0.3-0.2-0.2-0.4 0-0.2 0.2-0.3 0.4-0.3q0 0 0 0c0 0 3.1 0.1 6.8-0.6 0.9-0.2 1.6-0.4 2.4-0.5q0.1-0.1 0.2-0.1c-4-1.8-4.8-4.2-4.8-4.3-0.1-0.1 0-0.3 0.1-0.4 0.1-0.1 0.2-0.1 0.4-0.1 2.9 1.1 5.6 1.1 8.1 1.1 2.4 0 4.8 0 7.4 0.8 5 1.6 7 5.3 7.4 6.1 1.1 0.5 3.1 1.8 4.6 3.1q-0.3-1.1-0.7-2.2-0.8-3.1-1.9-5.9c-2.4-2.2-5.1-4.1-8.1-5.5q0 0 0-0.1c-0.3 0.5-0.7 0.8-1.2 0.8-0.8 0-1.5-0.7-1.5-1.5 0-0.8 0.7-1.5 1.5-1.5 0.8 0 1.5 0.7 1.5 1.5q-0.1 0.2-0.1 0.4 0 0 0 0c2.7 1.4 5.3 3.1 7.6 5.1q-1-2.5-2.2-4.8c-2.3-2.9-6.1-5.7-9.2-5.7q-0.1 0-0.2 0c-0.8 0.1-1.7 0.2-2.7 0.3-3.5 0.4-7.8 0.8-12-1-2.9-1.4-4.6-3.2-6.4-5.2-1.4-1.6-3-3.3-5.3-4.8-0.2-0.1-0.3-0.3-0.2-0.5 0.1-0.1 0.3-0.2 0.5-0.2 0 0.1 3.5 1.3 8.7 1.8l0.6 0.1c5.1 0.5 8.4 0.9 15.8 5.9 4.4 3.1 7.1 4.9 8.5 5.9-2.5-4.4-5.2-8.1-7.8-11-3.4-2.3-7.1-4.1-11-5.2q-0.1-0.1-0.1-0.2c-0.2 0.6-0.7 1.1-1.3 1.1-0.8 0-1.4-0.6-1.4-1.3 0-0.8 0.6-1.4 1.4-1.4 0.7 0 1.3 0.6 1.3 1.4q0 0 0 0.1c0-0.1 0.1-0.1 0.2-0.1 3.5 1 6.8 2.6 9.9 4.5-1.3-1.4-2.5-2.7-3.6-3.8-1.9-1.9-3.5-3.2-4.6-4.1q-0.8-0.8-1.2-1.1-0.1 0-0.2-0.1c-0.7-0.5-2.5-0.9-4.6-1.5-3.3-0.8-7.4-1.9-10.5-3.8-2.5-1.6-5.2-4.1-7.5-6.3-2.3-2.2-4.5-4.3-5.9-4.7-0.1-0.1-0.3-0.3-0.2-0.5 0-0.2 0.2-0.3 0.4-0.3 0.5 0 10.4 0.8 16.7 4.6-1.2-3-2-7.2-2-7.4-0.1-0.2 0-0.4 0.2-0.5 0.1 0 0.3 0 0.4 0.1 0.8 0.9 2.1 1.8 3.5 2.7 2.2 1.4 4.8 3.1 6 5.6 1 1.9 1.7 4.3 2.2 6.4 0.6 2 1.1 3.9 1.8 4.8q0.3 0.3 1.5 1.3c1 0.9 2.6 2.2 4.4 4-1.7-2.9-3.1-5.9-4.2-9q0-0.1 0-0.1-0.1 0-0.1 0c-0.8 0-1.4-0.6-1.4-1.3 0-0.8 0.6-1.4 1.4-1.4 0.7 0 1.3 0.6 1.3 1.4 0 0.6-0.3 1-0.9 1.2q0 0 0 0c1.3 3.6 2.9 7 4.9 10.1q0.1 0 0.1 0.1c1.6 1.6 3.5 3.6 5.4 5.9q-1.1-3.6-1.3-7.5c-0.7 0-1.2-0.6-1.2-1.3 0-0.7 0.6-1.3 1.3-1.3 0.7 0 1.3 0.6 1.3 1.3 0 0.7-0.4 1.2-1 1.3 0.2 2.9 0.7 5.7 1.7 8.5 2.2 2.7 4.4 5.9 6.5 9.7q0.3 0.6 0.6 1.2c0.1-0.7 0.1-1.6 0.1-2.6-0.1-2.1-0.4-3.9-0.5-4.1-0.3-0.8-0.8-1.5-1.3-2.4-1.2-1.9-2.7-4.2-3.4-8.3-0.6-4.1 0.3-9.8 1-14l0.2-1.5c0.6-4.3 1.7-8.1 1.7-8.1 0.1-0.2 0.2-0.3 0.4-0.3q0 0 0 0c0.2 0 0.3 0.1 0.4 0.3 0 0.1 1.2 5.4 2 7.8 0.3 1 0.7 2 1.1 3 0.8 2.4 1.8 5.1 2.1 7.6 1.3-2.2 4.7-7.5 9.4-9.7 0.2 0 0.4 0 0.5 0.1 0.1 0.2 0.1 0.4 0 0.5-1.9 2.8-2.7 4.4-3.4 7.3-0.1 0.8-0.2 1.9-0.3 3.1-0.4 3.3-0.8 7.9-3.2 11.1l-0.4 0.7c-2.9 3.9-5.6 7.6-5.1 12q0.9 2 1.7 4.1c0.2-3.1 0.6-6.2 1.4-9.1q0 0 0 0c-0.4-0.3-0.7-0.7-0.7-1.2 0-0.8 0.6-1.4 1.4-1.4 0.7 0 1.3 0.6 1.3 1.4 0 0.7-0.6 1.3-1.3 1.3q-0.2 0-0.3 0 0 0 0 0c-0.9 3.2-1.3 6.5-1.4 9.9q0.9 2.4 1.6 5c0.7 2.1 1.2 4.4 1.6 6.6q0.3-3.5 1.4-6.9 0 0 0 0c-0.3-0.2-0.5-0.5-0.5-0.9 0-0.6 0.5-1.1 1.1-1.1 0.6 0 1.1 0.5 1.1 1.1 0 0.6-0.5 1.1-1.1 1.1q-0.1 0-0.3 0c-0.9 2.7-1.3 5.6-1.4 8.5 0.3 2.6 0.5 5.3 0.7 8q0 1.2 0 2.5c0.7-1.8 1.7-4.9 1.9-7.6v-0.2q0-0.5 0.1-1-0.1-0.1-0.1-0.2c0-0.1-0.3-3.8 0.9-8.7 1.3-5.5 4.1-8.7 5.9-10.9l0.4-0.5c1.8-2.1 2.2-3.4 2.2-3.4 0.1-0.2 0.2-0.3 0.4-0.3 0.2 0 0.3 0.2 0.4 0.3 0.3 2.3 0.1 4.2-0.1 5.3 2.3-1.9 4.3-3.7 5.2-5.5 0.1-0.2 0.3-0.3 0.5-0.2 0.2 0 0.3 0.3 0.2 0.4-0.5 1.7-0.9 3.9-1.3 6.1-0.5 2.6-1.1 5.4-1.9 7.9 0.9-0.7 2.3-1.8 4-2.8 0.1-0.1 0.3-0.1 0.5 0.1 0.1 0.1 0.1 0.3 0 0.5 0 0-1.5 2.3-3 6.2-1.7 4.7-4.1 7.9-7 9.3-4.2 1.9-6.9 3.6-7.9 4.8q-0.1 0.1-0.1 0.1-0.5 0.8-0.8 1.6-0.3 0.5-0.3 0.6 0 0.1-0.1 0.2c-0.1 3-0.4 6-0.8 9.1 1.2-2.2 2.8-4.1 4.7-5.7q0 0 0 0c-0.2-0.3-0.3-0.5-0.3-0.8 0-0.8 0.7-1.5 1.5-1.5 0.8 0 1.5 0.7 1.5 1.5 0 0.8-0.7 1.5-1.5 1.5-0.4 0-0.7-0.2-1-0.4q0 0 0 0c-2.1 1.8-3.9 4.1-5.1 6.6q-0.2 1.4-0.5 2.7l-0.4 1.9q0.7-0.8 1.6-1.6-0.1-0.1-0.1-0.3c0-0.5 0.5-1 1-1 0.6 0 1.1 0.5 1.1 1 0 0.6-0.5 1.1-1.1 1.1-0.3 0-0.6-0.2-0.7-0.4q-1.2 1-2 2.2l-0.3 1.5c-0.4 1.5-1 2.9-1.4 4.4-0.3 1.1-0.7 2.1-1.2 3.1q0.6-0.9 1.4-2.2c0.5-0.8 1-1.7 1.4-2.5 1.5-2.9 2.8-5.3 6.7-7.6 2.4-1.4 4.7-2.4 6.9-3.3 2.5-1.1 4.9-2.1 7.2-3.6 0.1-0.1 0.3-0.1 0.5 0.1 0.1 0.1 0.1 0.3 0 0.5-1.5 1.8-2.7 4.3-4 6.9-1.4 2.8-2.8 5.6-4.7 7.9 1.7-0.4 4.6-1 8.5-1 0.2 0 0.3 0.2 0.4 0.4zm-63.5 56.2q0 0.1 0 0.1 0 0 0-0.1zm46.4-83.1c0.4-1.2 0.8-2.6 1.2-4.1 0.8-2.8 1.6-5.7 2.6-7.8 2.2-4.4 6.1-9.4 8.5-12.2q-1.2 1.1-2.5 2.3c-2 1.7-4 3.4-5.4 5.3q-0.1 0-0.1 0-0.3 0.4-0.5 0.8c-1 1.5-1.7 3-2.1 4.5-0.3 1.1-0.6 2.2-0.7 3.2q-0.1 0.2-0.1 0.4 0 0 0 0.1c-0.3 1.5-0.3 2.9-0.4 4v0.3c-0.1 1-0.3 2.1-0.5 3.2zm4.2-11.8c-1 2.1-1.8 5-2.6 7.8-0.5 1.6-0.9 3.1-1.3 4.3 2.4-3.5 4.3-6.3 6.9-10.7 1.5-2.6 3-6.3 4.3-9.5 0.8-1.9 1.5-3.7 2.2-5.1-2.1 2.4-7 8.2-9.5 13.2zm7.5 0.1q-0.6 1.7-1.5 3.1-0.1 0.2-0.3 0.5-0.2 0.2-0.3 0.4c-1.1 1.7-2.6 3-5 5.3l-1 0.8c-1.2 1.1-2.2 2.3-2.9 3.2 1.7-1.1 4-2.3 6-3.3 3.3-1.5 5.4-5.6 6.6-8.8 0.8-2.2 1.6-3.9 2.2-5-1.8 1.3-3.1 2.5-3.4 2.8 0 0.2-0.2 0.5-0.4 1zm1.9-10.6q0.3-1.5 0.6-2.9c-0.7 1.4-1.5 3.4-2.3 5.4-1.3 3.3-2.8 7-4.4 9.6-2.3 4-4.1 6.8-6.3 9.8 1.1-1.1 2.2-2.1 3.3-3.1 1-0.8 1.9-1.7 2.7-2.6q0 0 0 0 1.1-1.1 2-2.4c0.8-1.2 1.4-2.6 1.8-3.5 1.2-3.2 1.9-6.9 2.6-10.3zm-12.6 10.5c0.5-1.5 1.1-2.9 1.9-4.1q0.3-0.4 0.6-0.8 0.1-0.2 0.2-0.3c2.2-2.9 4.6-4.7 5.1-5.1 0.2-0.4 0.6-2.2 0.4-4.6-0.3 0.6-0.9 1.4-1.7 2.4l-0.4 0.5c-1.9 2.2-4.5 5.3-5.8 10.6q-0.1 0.7-0.3 1.4zm-13.1-42.4q0 0.9-0.1 1.8c0 5.2-0.1 13 2.5 17.3q0.1-1 0.3-2c0.4-3 0.8-6.2 0.5-11.3-0.3-3.4-1-7.4-1.7-11-0.4-1.9-0.7-3.7-0.9-5.2-0.3 3-0.6 7.9-0.6 10.4zm6.3 5.8c0 0.2 0 1-0.1 2-0.1 1.5-0.3 3.1-0.7 4.9-0.3 1.9-1.1 3.9-1.7 5.4q-0.1 0.1-0.1 0.2c-0.5 1-0.8 1.8-1 2.1 0.1 0.4 0.4 2.1 0.5 4q0 0.6 0 1.1c0.8-2.9 2.8-5.6 4.8-8.4l0.5-0.6c2.2-3.1 2.7-7.5 3-10.8 0.1-1.2 0.2-2.3 0.4-3.1 0.5-2.6 1.2-4.2 2.6-6.3-4.6 2.9-7.8 8.7-8.2 9.5zm-4.1-11.6c-0.4-1.1-0.8-2.7-1.2-4.2 0.2 1.4 0.5 3 0.9 4.8 0.7 3.5 1.4 7.6 1.6 11 0.4 5.1-0.1 8.3-0.5 11.3q0 0.5-0.1 0.9 0.2-0.3 0.3-0.6 0.1-0.1 0.1-0.3c0.7-1.7 1.2-3.2 1.5-4.6q0-0.2 0-0.4c0.4-1.7 0.5-3.3 0.6-4.4q0-1 0-1.9c0-2.7-1.2-5.8-2.2-8.6q-0.6-1.6-1-3zm-1 23.3q0 0.1 0.1 0.1c-1.8-4.5-1.8-11.1-1.7-15.8q0-0.9 0-1.8c0-2.8 0.4-8.5 0.6-11.2-0.3 1.5-0.7 3.4-1 5.6l-0.3 1.4c-0.6 4.2-1.5 9.8-0.9 13.8 0.6 4 2.1 6.2 3.2 7.9zm-44.8-29.6c3.1 1.1 8.6 3.1 11.1 4.6 1.8 1.1 4.2 3 6.7 5 1.9 1.6 4 3.2 5.8 4.4-1.1-1.2-2.5-2.9-3.6-4q-0.7-0.7-1.6-1.6c-1.5-1.4-3.2-2.8-3.9-3.4-4-3-10.6-4.4-14.5-5zm-0.6 0.2c2.4 1.4 4.5 2.8 6.8 4.4 1.6 1.1 3.3 2.2 5.3 3.5 3.9 2.5 8.7 4.8 11.4 5.9-1.7-1.2-3.6-2.7-5.4-4.1-2.5-2-4.8-3.9-6.6-4.9-2.6-1.6-8.5-3.7-11.5-4.8zm15.7 4.3q0.3 0.2 0.5 0.4 1.8 1.4 3.2 2.8 0 0 0 0.1 0.2 0.1 0.3 0.2 0.7 0.7 1.3 1.3 0.1 0 0.2 0.1c1.3 1.4 2.4 2.6 3.2 3.6q-0.4-1.2-0.7-2.5c-0.6-2.1-1.2-4.4-2.2-6.3-1.1-2.3-3.6-3.9-5.7-5.3-1-0.6-1.9-1.2-2.7-1.9 0.4 1.9 1.2 5.2 2.3 7.2q0.1 0.1 0.3 0.3zm5.6 9.2q0.6 0.1 1.1 0.2c-2.8-1.2-7-3.2-10.5-5.5-2-1.3-3.7-2.4-5.3-3.5-2-1.3-3.8-2.5-5.7-3.7q1.3 1.1 2.7 2.5c2.3 2.2 4.9 4.6 7.4 6.2 3 1.9 7.1 2.9 10.3 3.8zm2.9 17.9c4.3 1.6 10.5 2.1 13.3 2.3-1.7-0.6-3.4-1.3-5.3-2-2-0.8-4.1-1.7-6.1-2.4-3.4-1.2-10.5-3.5-13.3-4.5q0.1 0.1 0.2 0.2c2.2 1.6 7.1 4.9 11.2 6.4zm-5-5.6q-2.3-0.2-4-0.6c3.4 1.1 8.3 2.7 11 3.7 2.1 0.7 4.2 1.6 6.2 2.4q2.7 1.1 5.1 2-1.1-0.7-2.3-1.6c-7.3-5-10.4-5.3-15.5-5.8zm16.2 8.1c-3.2-0.3-7.8-0.9-11.2-2.1-3.2-1.2-6.8-3.4-9.3-5.1q0.7 0.8 1.3 1.5c1.7 1.9 3.3 3.7 6.1 4.9 4 1.8 8.2 1.3 11.6 1q0.8-0.1 1.5-0.2zm-6 13.4c1.9-0.4 4-0.6 7.5-0.3 3.4 0.3 5.6 1.2 7.1 2.2q0.5 0.2 0.9 0.5c-1-1.4-2.9-3.2-6-4.2-2.3-0.7-4.5-0.8-6.8-0.8q-0.1 0-0.3 0c-2.4 0-4.7 0-7.4-0.8 0.6 0.9 2 2.4 4.9 3.5q0.1-0.1 0.1-0.1zm-7.9 2.3c2.3 0.2 4.8 0 7.6-0.2 1.7-0.1 3.4-0.3 5.1-0.3q0.2 0 0.3 0c4.1 0 9 1.4 11.1 2.1q-0.4-0.3-0.8-0.5-0.5-0.4-1.1-0.8c-1.7-0.9-4.1-1.9-7.1-2.2-3.1-0.2-6.2 0.2-7 0.4q-0.8 0.2-1.6 0.4c-0.8 0.2-1.6 0.4-2.5 0.5-1.5 0.3-2.9 0.5-4 0.6zm13-0.1q-0.1 0-0.3 0c-1.7 0-3.4 0.2-5.1 0.3-2.7 0.2-5.3 0.4-7.6 0.2 2.4 0.7 6.6 1.9 11.5 2.1 4 0.3 6-0.1 7.8-0.4 1.2-0.2 2.2-0.4 3.5-0.4q0.2 0 0.5 0.1c-2.3-0.7-6.7-1.9-10.3-1.9zm9.9 2.2c-1.3 0-2.4 0.2-3.5 0.4-1.4 0.2-3 0.5-5.6 0.5q-1 0-2.3-0.1c-4.3-0.2-8.2-1.1-10.7-1.9q0.5 0.3 0.9 0.6c2.4 1.5 4.8 3 8.8 3.3 4.1 0.3 7.5-1 10-1.9 0.9-0.4 1.7-0.7 2.4-0.9zm3.8 22.9q0.3 0.2 0.6 0.3c-0.7-1-1.1-1.8-1.6-2.7-0.8-1.5-1.6-3-3.5-5-2.1-2.3-4.1-3.3-6.7-4.6q-1.2-0.6-2.7-1.3c1 0.9 2.6 2.5 4.2 4.5q0.6 0.8 1.3 1.6c1.8 2.4 3.8 4.8 7.2 6.6q0.6 0.3 1.2 0.6zm-11.8-13.2q-0.9-0.2-1.8-0.4 1.4 0.7 2.6 1.3c2.6 1.2 4.7 2.2 6.8 4.6 1.9 2.1 2.7 3.6 3.5 5.1q0.3 0.6 0.7 1.1-0.3-0.6-0.5-1.3c-0.8-2.5-1.7-5.7-4.2-7.5-2.2-1.6-4.7-2.2-7.1-2.9zm8.4 11.8q0.2 0.1 0.3 0.2c-2.4-1.7-4.1-3.8-5.6-5.8q-0.7-0.8-1.3-1.6c-1.9-2.3-3.8-4.1-4.7-4.9 0.7 0.9 1.5 2 2.1 3.3q0.3 0.8 0.7 1.5c1.1 2.5 2.1 4.9 4.8 6 1.5 0.6 2.6 1 3.7 1.3zm-0.5 23.3c-1.1-3-4.7-6.5-7.8-8.2l-0.6-0.3c-2.8-1.5-6.1-3.3-8.3-6.5 0.7 2.1 2.5 5.8 6.6 8l1.3 0.8c4.5 2.4 6.2 3.3 8.8 6.2zm-7.9-11.4c1.5 0.8 3 1.6 4.3 2.9q0.7 0.5 1.2 1c1.3 1.4 2.1 3 2.6 4.4-0.2-2.9-0.8-5.8-3.1-8.9-0.9-1.1-1.7-2-2.4-2.8-1.1-1.3-2.2-2.4-3.2-4 0.1 2.6 0.4 6.4 0.6 7.4zm-8.6-4.1c2.1 3.3 5.5 5.1 8.3 6.6l0.6 0.4c2.5 1.3 6 4.4 7.5 7.4q-0.1-0.7-0.4-1.5c-0.6-1.6-1.5-3.2-2.8-4.6q-0.4-0.4-0.8-0.8c-1.8-1.4-4.2-2.7-4.3-2.7q0 0 0 0-0.9-0.5-1.8-0.9c-2.3-1-4.5-2-6.3-3.9zm11.6 13c1.6 0.7 2.8 1.2 3.7 1.8-2.1-2.2-3.8-3.1-7.7-5.2l-1.4-0.7c-4.2-2.3-6.1-6.3-6.8-8.4 0.5 3 1.9 7.7 6.5 10 2.3 1.1 4.2 1.9 5.7 2.5zm-18.9 28.8c0.3 1.2 0.3 1.4 0.6 2.9q0 0.1 0 0.2 0-0.1 0.1-0.1c1-1.9 2.2-4.4 2.2-7.8-0.1-2.2-0.6-4-1.2-5.7q-0.3-0.9-0.5-1.7c-0.2 0.9-0.4 1.9-0.8 2.9-0.9 2.7-1.2 6.1-0.7 8.2zm-67.2 3q0 0.1 0 0.1 0-0.1 0-0.2c0.3-1.4 0.3-1.6 0.7-2.9l0.2-1c0.5-2.1 0.2-5.5-0.7-8.3-0.4-1-0.6-2-0.7-2.9q-0.3 0.9-0.6 1.7c-0.5 1.7-1.1 3.5-1.1 5.8-0.1 3.4 1.2 5.8 2.2 7.7zm-14.4-35.5l1.4-0.7c4-2.2 5.8-6 6.5-8.1-2.1 3.3-5.5 5-8.2 6.5l-0.7 0.4c-3.1 1.6-6.7 5.2-7.8 8.2 2.7-3 4.3-3.9 8.8-6.3zm8.4-8.8c-0.8 2.1-2.6 6.1-6.9 8.4l-1.3 0.8c-4 2.1-5.7 3-7.7 5.1 0.8-0.5 2-1 3.6-1.7 1.5-0.6 3.4-1.4 5.7-2.6 4.6-2.2 6.1-7 6.6-10zm-8.8 4.3q0 0 0 0c0 0.1-2.5 1.3-4.2 2.8q-0.5 0.3-0.9 0.8c-1.3 1.4-2.2 2.9-2.8 4.5q-0.2 0.8-0.4 1.5c1.5-3 5.1-6.1 7.5-7.4l0.7-0.3c2.8-1.5 6.2-3.4 8.3-6.7-1.9 2-4.1 2.9-6.3 4q-1 0.4-1.9 0.8zm-8.6 7.7c0.6-1.5 1.4-3.1 2.6-4.4q0.5-0.6 1.2-1.1c1.4-1.2 2.8-2.1 4.3-2.8 0.3-1.1 0.5-4.9 0.6-7.4-1 1.5-2 2.7-3.1 3.9-0.8 0.9-1.6 1.8-2.4 2.9-2.4 3.1-3 5.9-3.2 8.9zm-2.4-19.4c3.4-1.9 5.3-4.3 7.2-6.6q0.6-0.9 1.3-1.7c1.6-1.9 3.1-3.5 4.1-4.5q-1.5 0.8-2.7 1.4c-2.6 1.2-4.6 2.2-6.7 4.5-1.8 2-2.7 3.6-3.5 5-0.4 0.9-0.9 1.8-1.6 2.7q0.3-0.1 0.6-0.2 0.7-0.4 1.3-0.6zm13.4-13c-0.9 0.9-2.7 2.7-4.6 5q-0.7 0.8-1.3 1.6c-1.6 2-3.2 4-5.7 5.7q0.2 0 0.4-0.1c1-0.3 2.2-0.7 3.6-1.3 2.7-1.2 3.7-3.5 4.8-6q0.4-0.8 0.8-1.6c0.6-1.3 1.3-2.4 2-3.3zm-14.2 10.7q-0.2 0.7-0.4 1.4 0.3-0.6 0.6-1.1c0.8-1.5 1.7-3.1 3.5-5.1 2.1-2.4 4.2-3.4 6.8-4.7q1.2-0.5 2.6-1.3-0.8 0.3-1.7 0.5c-2.5 0.6-5 1.2-7.1 2.8-2.5 1.9-3.5 5-4.3 7.5zm25.4-21.1c-2.5 0.7-6.3 1.7-10.7 1.9q-1.2 0.1-2.3 0c-2.5 0-4.1-0.2-5.6-0.5-1.1-0.2-2.1-0.3-3.4-0.3 0.7 0.2 1.5 0.5 2.4 0.8 2.4 1 5.8 2.2 9.9 1.9 4-0.3 6.5-1.8 8.8-3.3q0.5-0.3 0.9-0.5zm-22 0.7c1.3 0 2.4 0.2 3.5 0.4 1.8 0.3 3.9 0.6 7.8 0.4 4.9-0.3 9.1-1.4 11.5-2.2-2.3 0.2-4.9 0-7.5-0.2-1.7-0.1-3.5-0.2-5.2-0.2q-0.1 0-0.3 0c-3.6 0-8 1.1-10.3 1.8q0.3 0 0.5 0zm16.4-2.9q-0.8-0.2-1.6-0.3c-0.9-0.2-4-0.7-7-0.4-3.1 0.3-5.5 1.3-7.1 2.1q-0.7 0.5-1.2 0.8-0.4 0.3-0.7 0.5c2.1-0.6 7-2 11-2q0.2 0 0.3 0c1.7 0 3.5 0.1 5.2 0.3 2.7 0.2 5.3 0.3 7.5 0.1-1.1-0.1-2.5-0.2-4-0.5-0.9-0.2-1.7-0.4-2.4-0.6zm-17 1.2q0.5-0.2 1-0.5c1.5-0.9 3.6-1.9 7-2.2 3.5-0.3 5.6 0 7.5 0.4q0.1 0 0.1 0c3-1.1 4.4-2.5 5-3.4-2.7 0.8-5.1 0.8-7.5 0.8q-0.1 0-0.3 0c-2.3 0-4.4 0-6.8 0.8-3 1-4.9 2.8-6 4.1zm24.2-39.9c-1.1 1.2-2.5 2.8-3.5 4 1.7-1.2 3.8-2.8 5.8-4.4 2.5-2 4.8-3.9 6.6-5 2.6-1.5 8-3.5 11.1-4.6-3.9 0.6-10.5 2-14.5 5-0.7 0.6-2.4 2.1-3.9 3.4q-0.9 0.9-1.6 1.6zm9.1-5c-1.8 1-4.1 2.9-6.6 4.9-1.8 1.4-3.7 2.9-5.4 4.1 2.7-1.1 7.6-3.4 11.4-5.9 2.1-1.3 3.7-2.4 5.4-3.5 2.3-1.6 4.3-3 6.7-4.4-3 1.1-8.8 3.2-11.5 4.8zm10.6-3.8c-1.9 1.2-3.7 2.4-5.6 3.7-1.7 1.1-3.3 2.2-5.3 3.5-3.5 2.3-7.8 4.3-10.5 5.5q0.5-0.1 1-0.2c3.3-0.8 7.4-1.9 10.3-3.8 2.5-1.5 5.1-4 7.4-6.2q1.4-1.3 2.7-2.5zm-22.7 9.3q-0.4 1.3-0.7 2.5c0.8-1 1.8-2.2 3.2-3.5q0.1-0.1 0.1-0.2 0.6-0.6 1.3-1.3 0.1-0.1 0.3-0.2 0 0 0-0.1 1.5-1.3 3.2-2.8 0.3-0.2 0.5-0.4 0.3-0.2 0.4-0.3c1.1-1.9 1.9-5.3 2.3-7.1-0.8 0.6-1.8 1.2-2.7 1.9-2.2 1.4-4.6 2.9-5.8 5.2-1 1.9-1.6 4.2-2.1 6.3zm-21.1-8.8c-0.2 1.5-0.6 3.3-1 5.2-0.6 3.6-1.4 7.6-1.6 11-0.3 5.1 0.1 8.3 0.5 11.3q0.1 1 0.2 2c2.6-4.3 2.5-12.1 2.5-17.3q0-0.9 0-1.8c0-2.5-0.4-7.4-0.6-10.4zm0.3-0.8c0.2 2.8 0.7 8.5 0.7 11.2q0 0.9 0 1.8c0 4.7 0.1 11.3-1.7 15.8q0 0 0 0c1.2-1.8 2.6-4 3.2-8 0.6-4-0.3-9.6-0.9-13.7l-0.2-1.5c-0.3-2.1-0.8-4.1-1.1-5.6zm-5.2 18.9c0.1 1.1 0.3 2.7 0.6 4.4q0 0.2 0.1 0.4c0.3 1.4 0.7 2.9 1.4 4.6q0.1 0.2 0.1 0.3 0.2 0.3 0.3 0.6 0-0.4-0.1-0.8c-0.4-3.1-0.8-6.3-0.5-11.4 0.2-3.4 1-7.5 1.7-11 0.3-1.8 0.6-3.4 0.8-4.8-0.4 1.5-0.8 3.1-1.1 4.2q-0.5 1.4-1.1 3c-1 2.8-2.1 5.9-2.2 8.6q0 0.9 0 1.9zm2.3 17.8q-0.1-0.5 0-1c0-2 0.3-3.7 0.4-4.1-0.1-0.3-0.5-1.1-1-2.1q0-0.1 0-0.2c-0.7-1.5-1.4-3.5-1.8-5.4-0.4-1.8-0.6-3.4-0.6-4.8-0.1-1.1-0.1-1.9-0.1-2.1-0.4-0.8-3.6-6.6-8.3-9.5 1.4 2.2 2.1 3.7 2.7 6.3 0.1 0.8 0.2 1.9 0.4 3.1 0.3 3.3 0.7 7.8 2.9 10.8l0.5 0.6c2 2.8 4 5.5 4.9 8.4zm34.6-12.5c-2.9 0.9-9.9 3.2-13.3 4.4-2.1 0.7-4.2 1.6-6.2 2.4-1.8 0.7-3.6 1.4-5.2 2 2.7-0.2 8.9-0.7 13.2-2.3 4.2-1.5 9-4.7 11.3-6.3q0.1-0.1 0.2-0.2zm-2.1 1.9c-2.5 1.7-6.1 3.9-9.3 5-3.4 1.2-8 1.9-11.2 2.2q0.7 0 1.5 0.1c3.4 0.4 7.6 0.8 11.6-0.9 2.8-1.3 4.4-3.1 6.1-5q0.7-0.7 1.3-1.4zm-22.7 6.5q2.5-0.9 5.2-2c2-0.8 4.1-1.7 6.1-2.4 2.7-0.9 7.7-2.6 11-3.7q-1.7 0.4-3.9 0.6l-0.6 0.1c-5.1 0.5-8.2 0.8-15.4 5.8q-1.3 0.9-2.4 1.6zm-28.6 11q-1.3-1.1-2.5-2.2c2.4 2.7 6.3 7.7 8.5 12.1 1 2.1 1.9 5 2.7 7.8 0.4 1.5 0.8 2.9 1.2 4.1-0.3-1.1-0.5-2.2-0.5-3.2l-0.1-0.3c0-1.1-0.1-2.5-0.3-4q0 0 0-0.1-0.1-0.2-0.1-0.4c-0.2-1-0.4-2.1-0.7-3.2-0.5-1.5-1.2-3-2.1-4.5q-0.3-0.4-0.6-0.8 0 0 0 0c-1.4-1.9-3.5-3.6-5.5-5.3zm-3.8-3.2c0.6 1.4 1.4 3.2 2.1 5.1 1.3 3.2 2.8 6.9 4.4 9.5 2.5 4.4 4.4 7.3 6.9 10.7-0.5-1.2-0.9-2.7-1.3-4.2-0.8-2.9-1.6-5.8-2.7-7.9-2.4-5-7.3-10.8-9.4-13.2zm4.8 2.9c0.5 0.4 2.9 2.2 5.1 5.1q0.1 0.1 0.2 0.3 0.3 0.4 0.6 0.8c0.8 1.2 1.4 2.6 1.9 4.1q-0.1-0.7-0.3-1.4c-1.3-5.3-3.9-8.3-5.7-10.6l-0.5-0.5c-0.8-1-1.3-1.8-1.7-2.4-0.2 2.4 0.3 4.2 0.4 4.6zm-4.8-0.1c0.7 3.3 1.4 7 2.6 10.2 0.4 0.9 1.1 2.3 1.8 3.5q0.9 1.3 2 2.4 0 0 0 0c0.9 0.9 1.8 1.8 2.7 2.6 1.1 1 2.2 2 3.3 3.1-2.2-3-3.9-5.8-6.3-9.8-1.5-2.6-3-6.3-4.3-9.6-0.9-2-1.7-4-2.4-5.4q0.3 1.4 0.6 3zm13 23.8c-0.8-0.9-1.7-2-3-3.2l-0.9-0.8c-2.5-2.3-4-3.6-5.1-5.3q-0.1-0.2-0.2-0.4-0.2-0.3-0.4-0.5-0.8-1.4-1.5-3.1c-0.2-0.5-0.3-0.8-0.4-1-0.3-0.3-1.5-1.5-3.4-2.8 0.6 1.1 1.4 2.8 2.3 5 1.1 3.2 3.2 7.3 6.5 8.9 2 0.9 4.3 2.1 6.1 3.2zm-8.9 14.8c-1.2-0.5-2.4-1-3.6-1.6q1.6 1.1 4 2.5c4.1 2.5 6.1 4.4 9.4 7.9 1.2 1.3 2.2 2.4 3.2 3.5 1.2 1.3 2.4 2.5 3.5 3.7-0.5-0.7-1.1-1.6-1.8-2.8-0.6-0.9-1-1.8-1.5-2.6-1.4-2.8-2.7-5.1-6.4-7.4-2.3-1.3-4.6-2.3-6.8-3.2zm12.7 12.5c-1-1-2-2.1-3.2-3.4-3.3-3.5-5.3-5.4-9.3-7.8-2.3-1.4-4.1-2.6-5.2-3.4 0.8 1 1.6 2.1 2.5 3.4 2.1 3 4.6 6.4 7.9 9 3.4 2.6 5.8 3.7 8 4.6 0.9 0.4 1.8 0.8 2.7 1.3-1.1-1.2-2.2-2.3-3.4-3.7zm-15.4-9.7c1.6 3.2 3.2 6.5 5.5 8.7q0 0 0 0c0 0.1 1 1.1 2.9 2.1q0.2 0.1 0.3 0.1c1.8 0.8 3.4 1.3 4.8 1.6 1.8 0.3 3.2 0.7 4.3 1q0.3 0.1 0.6 0.1c-0.8-0.4-1.6-0.8-2.5-1.1-2.1-1-4.6-2.1-8-4.7-3.4-2.6-5.9-6.1-8-9.1q-1-1.3-1.8-2.5 1 1.8 1.9 3.8zm20 15.1q-0.9-0.4-2.4-0.9-0.6-0.1-1.3-0.2-1.3-0.3-2.9-0.7-0.1 0-0.2-0.1c-2.2-0.3-3.9-1-5.2-1.7q-1.7-0.8-3-2.1c-0.5-0.2-3-0.9-6.6-1.2 1.1 0.5 2.4 1.3 3.7 2.4 0.9 0.8 1.7 1.7 2.4 2.6 1.8 2.2 3.3 4 6.2 4q0.2 0 0.3 0c2.2-0.1 3.8-0.6 5.4-1.2 1.1-0.4 2.3-0.8 3.6-0.9zm12.6 11.6c0.3 2 0.7 3.4 1.1 4.4-0.2-0.7-0.3-1.5-0.1-2.3 0.2-1.1 0.8-1.9 1.5-2.8 1-1.2 2-2.6 2.3-4.8 0.2-1.3 0-3.2-0.2-5.1-0.1-1.7-0.3-3.4-0.2-4.8-0.3 0.7-0.5 1.4-0.6 2.1-0.2 0.8-0.3 1.7-0.7 2.5q-0.3 0.6-0.8 1.3c-1.2 2-2.8 4.6-2.3 9.5zm-14.2 12.8c1.1-0.1 2.4-0.3 3.9-0.8 1.4-0.5 2.4-1 3.3-1.5 1.3-0.7 2.5-1.3 4.6-1.6 2.3-0.4 5.1 0.3 6.7 0.8-1.6-1-4.1-2-7.2-1.8-3.3 0.2-5.4 1.6-7.5 2.9-1.2 0.8-2.4 1.6-3.8 2zm3.8 0.7c2.1-0.1 3.5-0.7 5.3-1.6q1.1-0.6 2.4-1.2c2-0.8 4.8-0.8 6.6-0.7-1.6-0.5-4.2-1-6.3-0.7-2 0.2-3.1 0.8-4.4 1.6-1 0.5-2 1-3.4 1.5-1.8 0.6-3.3 0.7-4.7 0.9q-0.5 0-1 0.1 0.6 0 1.3 0c1 0.1 2.3 0.2 4.2 0.1zm-4.4-4.9c1.5 1.1 3.3 1.5 3.8 1.6 3.1-2.2 5.7-2.9 7.4-3.2-2.6-0.8-6.2-0.8-8.9-0.5-2.1 0.2-3.9 0.2-5.2 0.3 0.8 0.4 1.9 1 2.9 1.8zm18 1.8c-1.8-0.1-4.1 0-5.8 0.7q-1.3 0.6-2.3 1.1c-1.8 0.9-3.3 1.6-5.5 1.7q-0.8 0-1.4 0-0.3 0-0.5 0c1.5 0.2 3 0.4 4.7 0.3 2.9-0.2 4.1-1 5.5-1.9 0.8-0.5 1.6-1 2.8-1.4 0.8-0.3 1.7-0.5 2.5-0.5zm33.2 15.6c-0.6 0.1-1.1 0.1-1.7 0.1q-0.2 0-0.4 0c-1.1 0-2.2 0.1-3.9 0.9-2 0.9-3 2.2-3.9 3.4-0.4 0.5-0.8 1-1.3 1.4 1.8-0.1 5.2-0.6 7.5-2.2 2-1.4 3.2-2.8 3.7-3.6zm8.1 0.8q0.4 0.1 0.7 0.1c0.1-0.8 0.1-2.5-0.7-4.5-0.5-1.3-1.4-2.4-2.4-3.6-0.6-0.8-1.3-1.6-1.8-2.5q0 0.5 0 0.9c0 1.8 0.1 3.5 0.8 5.7 0.6 2.1 2.3 3.3 3.4 3.9zm-14.9-12c0.2 0.7 0.3 1.5 0.5 2.4v0.5q0.1 0.6 0.2 1.3 0 0.1 0 0.1 0.1 0.9 0.3 1.6 0 0.3 0.1 0.6c0.1 0.5 0.3 1 0.5 1.3q0-0.1 0.1-0.3c0.3-0.8 0.7-1.7 0.7-3.4 0.1-1.6-0.2-3.2-0.5-4.6q-0.2-0.9-0.3-1.7c-0.2-1.4-0.3-2.4-0.3-3.2-1.3 2.7-1.3 4.9-1.3 5.4zm-2.8-1.3q-0.3-0.4-0.5-0.8c-0.7-1.3-1.2-3.1-1.6-4.4 0.2 3.1 1.2 6.2 2.2 8.2 0.7 1.2 1.2 1.9 1.7 2.5 0.3 0.4 0.6 0.8 0.9 1.3-0.7-3-1.7-5-2.7-6.8zm-0.6-3q-0.5-0.7-0.9-1.4c0.4 1.1 0.8 2.4 1.4 3.4q0.2 0.4 0.4 0.8c0.8 1.4 1.6 3 2.3 5.2q0-0.4-0.1-0.7v-0.5c-0.4-3.2-1.3-4.4-2.3-5.7q-0.4-0.5-0.8-1.1zm2.9 10.2q0.2 0.1 0.4 0.3c-0.4-0.7-0.8-1.2-1.2-1.7-0.5-0.7-1.1-1.4-1.7-2.7-0.9-1.6-1.7-4-2.1-6.5 0 2.3 0.3 4.6 1.2 6.6 0.9 1.7 2.2 2.9 3.4 4zm-16.7 1.3c0.6-0.5 1.3-0.9 2-1.3 1.9-1 3.3-1.4 4.2-1.6-0.5-0.1-1.1-0.2-1.9-0.2-1 0-2.1 0.2-3.3 0.6-2.1 0.8-3.3 1.7-4.5 2.6q-0.5 0.3-0.9 0.6c-1.5 1.1-2.5 1.7-3.2 2.1q0.1 0 0.2 0c3.9-0.5 5.6-1.6 7.4-2.8zm-7 2c0.6-0.4 1.4-0.9 2.4-1.6q0.4-0.3 0.8-0.6c1.3-0.9 2.5-1.9 4.7-2.7q0.7-0.2 1.3-0.4c-2.2 0.1-3.9 0.6-4.9 1.1-1.4 0.8-2.2 1.8-3.3 3.1l-0.2 0.2q-0.4 0.5-0.8 0.9zm13.2-4.5c-0.9 0.2-2.3 0.6-4 1.5-0.7 0.4-1.4 0.9-2 1.3-1.4 0.9-2.7 1.8-5 2.4 1.7 0 3.6-0.2 5.3-1 2-0.9 2.7-1.7 3.4-2.5 0.5-0.5 0.9-0.9 1.6-1.3q0.4-0.2 0.7-0.4zm44.7 6.6q-0.2 0-0.4 0c-0.5 0-1 0-1.7-0.1 0.6 0.8 1.7 2.2 3.8 3.6 2.3 1.6 5.7 2.1 7.4 2.2-0.4-0.4-0.8-0.9-1.2-1.4-0.9-1.2-1.9-2.5-3.9-3.4-1.8-0.8-2.9-0.9-4-0.9zm9.9-16c-0.4 2.5-1.2 4.9-2.1 6.5-0.6 1.3-1.2 2-1.7 2.7-0.4 0.5-0.8 1-1.2 1.7q0.2-0.2 0.4-0.3c1.2-1.1 2.5-2.3 3.3-4 1-2 1.3-4.3 1.3-6.6zm-4.1 8.9c0.5-0.6 1-1.3 1.7-2.5 1-2 2-5.1 2.2-8.2-0.4 1.3-1 3.1-1.6 4.3q-0.3 0.5-0.5 0.9c-1 1.8-2.1 3.8-2.7 6.8 0.3-0.5 0.6-0.9 0.9-1.3zm-0.7-1.7l-0.1 0.5q0 0.3-0.1 0.7c0.7-2.2 1.6-3.8 2.4-5.2q0.2-0.4 0.4-0.8c0.5-1 1-2.3 1.4-3.4q-0.4 0.7-0.9 1.4-0.4 0.6-0.8 1.1c-1 1.3-1.9 2.5-2.3 5.7zm-2 5q0 0.2 0.1 0.3c0.2-0.3 0.4-0.8 0.5-1.3q0.1-0.3 0.1-0.6 0.1-0.7 0.3-1.6 0.1-0.7 0.1-1.4l0.1-0.5c0.1-0.9 0.3-1.7 0.5-2.4 0-0.5-0.1-2.7-1.3-5.4 0 0.8-0.1 1.8-0.3 3.2q-0.1 0.8-0.3 1.7c-0.3 1.4-0.6 3-0.6 4.6 0.1 1.7 0.4 2.6 0.8 3.4zm-13.9 4.6q0.3-0.1 0.6-0.1c1.2-0.6 2.8-1.8 3.5-3.9 0.7-2.2 0.7-3.9 0.8-5.7q0-0.4 0-0.9c-0.5 0.9-1.2 1.7-1.9 2.5-0.9 1.2-1.8 2.3-2.3 3.6-0.8 2-0.8 3.7-0.7 4.5zm40.3-2.1c-0.6-0.4-1.7-1-3.2-2.1q-0.4-0.3-0.8-0.6c-1.2-0.9-2.4-1.8-4.6-2.6-1.2-0.4-2.3-0.6-3.2-0.6-0.8 0-1.5 0.1-2 0.2 1 0.2 2.4 0.6 4.2 1.6 0.8 0.4 1.5 0.8 2.1 1.3 1.8 1.2 3.5 2.3 7.4 2.8q0.1 0 0.1 0zm-8-1.1c1.7 0.8 3.6 1 5.3 1-2.3-0.6-3.6-1.5-5-2.4-0.6-0.4-1.3-0.9-2.1-1.3-1.7-0.9-3-1.3-3.9-1.5q0.3 0.2 0.7 0.4c0.7 0.4 1.1 0.8 1.6 1.3 0.6 0.8 1.4 1.6 3.4 2.5zm3.1-3.9c-0.9-0.5-2.6-1-4.8-1.1q0.6 0.2 1.3 0.4c2.2 0.8 3.4 1.8 4.7 2.7q0.4 0.3 0.8 0.6c1 0.7 1.8 1.2 2.4 1.6q-0.4-0.4-0.9-0.9l-0.1-0.2c-1.1-1.3-1.9-2.3-3.4-3.1zm8.8-17.7c0.2 0.8 0.1 1.6-0.1 2.3 0.4-1 0.8-2.4 1-4.4 0.6-4.9-1.1-7.5-2.3-9.5q-0.4-0.7-0.7-1.3c-0.4-0.8-0.6-1.7-0.7-2.5-0.2-0.7-0.3-1.4-0.6-2.1 0.1 1.4-0.1 3.1-0.3 4.8-0.1 1.9-0.3 3.8-0.2 5.1 0.4 2.2 1.4 3.6 2.4 4.8 0.6 0.9 1.3 1.7 1.5 2.8zm-3.4 7.6c1.7-0.5 4.5-1.2 6.8-0.8 2.1 0.3 3.3 0.9 4.6 1.6 0.9 0.5 1.9 1 3.3 1.5 1.5 0.5 2.7 0.7 3.9 0.8-1.4-0.4-2.6-1.2-3.8-2-2.1-1.3-4.2-2.7-7.5-2.9-3.1-0.2-5.6 0.8-7.3 1.8zm19 3.7q0.7 0 1.3 0-0.5-0.1-1.1-0.1c-1.3-0.2-2.8-0.3-4.6-0.9-1.5-0.5-2.4-1-3.4-1.5-1.3-0.8-2.4-1.4-4.5-1.6-2.1-0.3-4.6 0.2-6.3 0.7 1.9-0.1 4.6-0.1 6.7 0.7q1.3 0.6 2.3 1.2c1.9 0.9 3.3 1.5 5.4 1.6 1.9 0.1 3.2 0 4.2-0.1zm-2.3 0.5q-0.2 0-0.5 0.1-0.6 0-1.4-0.1c-2.2-0.1-3.7-0.8-5.5-1.7q-1-0.5-2.4-1.1c-1.7-0.7-4-0.8-5.7-0.7 0.8 0 1.6 0.2 2.5 0.5 1.1 0.4 2 0.9 2.8 1.4 1.3 0.9 2.6 1.7 5.4 1.9 1.7 0.1 3.3-0.1 4.8-0.3zm-8.7-6.9c1.6 0.3 4.3 1 7.4 3.2 0.5-0.1 2.2-0.5 3.8-1.6 1-0.8 2-1.4 2.9-1.8-1.3-0.1-3.2-0.1-5.3-0.3-2.6-0.3-6.2-0.3-8.8 0.5zm30.9-37.5q-0.8 1.2-1.8 2.5c-2.2 3-4.6 6.5-8 9.1-3.4 2.6-5.9 3.7-8.1 4.7-0.8 0.3-1.6 0.7-2.4 1.1q0.2 0 0.5-0.1c1.2-0.3 2.6-0.7 4.4-1 1.4-0.3 2.9-0.8 4.8-1.6q0.1 0 0.2-0.1c1.9-1 3-2 3-2.1q0 0 0 0c2.2-2.2 3.9-5.5 5.4-8.7q1-2 2-3.8zm-18 15.9c2.1-0.9 4.6-2 8-4.6 3.3-2.6 5.7-6 7.9-9 0.9-1.3 1.7-2.4 2.5-3.4-1.2 0.8-2.9 2-5.2 3.4-4 2.4-6 4.3-9.3 7.8-1.2 1.3-2.2 2.4-3.2 3.4-1.3 1.4-2.3 2.5-3.4 3.7 0.9-0.5 1.8-0.9 2.7-1.3zm-3.1 1.1c1.1-1.2 2.2-2.4 3.5-3.7 1-1.1 2-2.2 3.2-3.5 3.3-3.5 5.3-5.4 9.4-7.9q2.4-1.4 4-2.5-1.8 0.8-3.6 1.6c-2.2 0.9-4.5 1.9-6.8 3.2-3.8 2.3-5 4.6-6.5 7.4-0.4 0.8-0.9 1.7-1.4 2.6-0.7 1.2-1.3 2.1-1.8 2.8zm20.8-5c-3.7 0.3-6.1 1-6.6 1.2q-1.3 1.3-3 2.1c-1.4 0.7-3.1 1.4-5.2 1.7q-0.1 0.1-0.2 0.1-1.6 0.4-2.9 0.7-0.7 0.1-1.3 0.2-1.6 0.5-2.4 0.9c1.3 0.1 2.4 0.5 3.6 0.9 1.6 0.6 3.2 1.1 5.4 1.2q0.1 0 0.2 0c3 0 4.5-1.8 6.3-4 0.7-0.9 1.5-1.8 2.4-2.6 1.2-1.1 2.6-1.9 3.7-2.4z"/>
	<path id="Layer" class="s0" d="m109.2 129l-0.9 2.9 2.5-1.7 2.4 1.8-0.8-2.9 2.4-1.8-3-0.1-1-2.9-1 2.9h-3z"/>
	<path id="Layer" class="s0" d="m124.3 125.2l-0.8-2.3-0.8 2.3h-2.5l1.9 1.6-0.7 2.3 2.1-1.4 2 1.5-0.7-2.4 2-1.5z"/>
	<path id="Layer" class="s0" d="m134.7 120.1l-0.8-2.1-0.7 2.1h-2.2l1.7 1.4-0.6 2.1 1.8-1.2 1.8 1.2-0.6-2.1 1.8-1.3z"/>
	<path id="Layer" class="s0" d="m142.5 112.3l-0.7-2.1-0.8 2.1h-2.2l1.8 1.3-0.7 2.2 1.9-1.3 1.8 1.3-0.7-2.1 1.8-1.4z"/>
	<path id="Layer" class="s0" d="m99.3 125.2l-0.8-2.3-0.8 2.3-2.5 0.1 2 1.5-0.7 2.4 2-1.5 2.1 1.4-0.7-2.3 1.9-1.6z"/>
	<path id="Layer" class="s0" d="m88.8 120.1l-0.8-2.1-0.7 2.1-2.2 0.1 1.8 1.3-0.6 2.1 1.8-1.2 1.8 1.2-0.6-2.1 1.7-1.4z"/>
	<path id="Layer" class="s0" d="m81 112.3l-0.8-2.1-0.7 2.1h-2.2l1.7 1.4-0.6 2.1 1.8-1.3 1.9 1.3-0.7-2.2 1.8-1.3z"/>
	<path id="Layer" class="s0" d="m132.2 77.8c3-0.1 5.4-2.5 5.8-5.5 0.2-1.3 0-2.7 0-4.1 0.1-1.9-0.9-3.4-2.6-3.8-1.7-0.4-3.4 0.4-4 2.1-0.7 1.6-0.2 3.3 1.4 4.2 1 0.6 0.9 1.2 0.3 1.7-0.5 0.5-1.3 0.9-2 1-1.4 0.1-2.8 0-4.2 0q-4-0.1-8 0c0-0.3-0.1-0.5-0.1-0.6q-0.1-6-0.1-12c0-1.3 0.8-2 2.2-2.2q0.2 0.2 0.3 0.5c1 1.7 2.8 2.3 4.4 1.7 1.6-0.7 2.5-2.4 2.1-4.1-0.4-1.7-1.9-2.7-3.8-2.6q-1 0-1.9-0.1c-3.8-0.6-7.6 2.2-7.8 6-0.1 5.9 0 11.8 0 17.9 6.1 0 12.1 0.1 18-0.1z"/>
	<path id="Layer" class="s0" d="m96.9 54.2c-1.5 0.2-2.6 1.6-2.7 3.2 0 1.4 0.9 2.8 2.2 3.4 1.9 0.7 3.3 0 4.8-2.2 1.5 0.2 2.1 0.9 2.1 2.5q0 3.9 0 7.9c0 1.4 0 2.8 0 4.4-4.4 0-8.6 0-12.8 0-1.2-0.1-1.9-0.9-2.1-2.1q0.3-0.2 0.6-0.4c1.8-1.1 2.4-2.8 1.7-4.5-0.7-1.5-2.4-2.4-4-2-1.8 0.4-2.8 1.9-2.6 3.9 0 0.4 0 0.9-0.1 1.3-0.8 4.5 2.3 8.3 6.8 8.3q8 0.1 15.9 0c0.3 0 0.7 0 1-0.1 0.1-0.2 0.1-0.3 0.1-0.5 0-5.7 0.1-11.3 0-17 0-3.1-2.4-5.8-5.4-6.2-1.8-0.2-3.7-0.1-5.5 0.1z"/>
	<path id="Layer" class="s0" d="m90 84.3c-3.7 0.1-6.6 3.9-6.1 7.7q0.1 1.1 0.1 2.3c0 1.7 1.1 3.1 2.7 3.4 1.6 0.4 3.2-0.4 3.9-1.8 0.7-1.6 0.3-3.3-1.1-4.3-0.3-0.3-0.7-0.5-1-0.7 0.3-1.6 1-2.1 2.4-2.1q5.6 0 11.1 0c0.4 0 0.8 0.1 1.3 0.1 0 4.3 0.1 8.4 0 12.6 0 1.2-0.8 1.9-2.1 2.2-0.2-0.3-0.3-0.5-0.4-0.7-1-1.7-2.7-2.3-4.4-1.6-1.5 0.6-2.4 2.3-2.1 3.9 0.4 1.8 1.8 2.8 3.8 2.7 0.4 0 0.9 0 1.3 0 5 0.8 8.5-2.2 8.5-7.2q0-7.6 0-15.2c0-0.4-0.1-0.8-0.1-1.3-6 0-11.9-0.1-17.8 0z"/>
	<path id="Layer" class="s0" d="m122.1 108.2q0.9-0.2 1.9-0.1c1.9 0 3.3-1 3.7-2.7 0.4-1.6-0.5-3.4-2-4-1.7-0.7-3.5-0.1-4.3 1.5-0.7 1.1-1.3 0.8-1.9 0.2-0.4-0.5-0.7-1.3-0.8-2-0.1-1.5 0-3 0-4.5 0-2.6 0-5.1 0-7.6 0.3-0.1 0.4-0.2 0.4-0.2 4.2 0 8.3 0 12.4 0 1.2 0 2 0.8 2.1 2.2q-0.4 0.1-0.7 0.3c-1.6 1-2.2 2.7-1.6 4.4 0.7 1.5 2.3 2.4 4 2 1.8-0.3 2.8-1.8 2.7-3.8q-0.1-0.8 0.1-1.6c0.6-4.4-2.4-8-6.9-8.1q-3.7 0-7.3 0c-3.2 0-6.4 0-9.7 0 0 6-0.1 11.8 0 17.6 0.1 4 3.9 6.9 7.9 6.4z"/>
	<path id="Layer" class="s0" d="m76.6 200.3q-1.6-1.2-5.7-3.5-5.2-2.7-6.5-4.4-1-1.1-1-2.5 0-1.8 1.5-3.2 1.5-1.4 3.8-1.4 2 0 3.9 1.1 1.9 1 2.9 2.8 1.1 1.7 1.5 4.7h0.8v-10.3h-0.8q-0.3 1-0.6 1.3-0.4 0.4-1 0.4-0.5 0-1.7-0.6-2.7-1.1-5.1-1.1-3.8 0-6.2 2.3-2.5 2.3-2.5 5.5 0 1.9 0.8 3.4 0.9 1.6 2.5 2.8 1.6 1.3 5.4 3.5 3.9 2.1 4.7 2.8 1.3 1 1.9 2.1 0.6 1.1 0.6 2.2 0 2-1.6 3.4-1.6 1.5-4.3 1.5-2.4 0-4.4-1.1-2-1-3-2.6-0.9-1.6-1.5-4.8h-0.8v10.2h0.8q0.2-1 0.5-1.3 0.3-0.4 0.8-0.4 0.6 0 2.8 0.7 2.1 0.7 2.8 0.8 1.1 0.2 2.4 0.2 4.2 0 6.8-2.4 2.7-2.5 2.7-5.9 0-1.8-0.9-3.4-0.8-1.6-2.3-2.8z"/>
	<path id="Layer" class="s0" d="m86.6 212.1q-0.3 0.7-0.8 1-0.5 0.2-2 0.2v0.8h9.8v-0.8q-1.4 0-1.9-0.3-0.6-0.3-0.9-0.9-0.2-0.6-0.2-2.5v-16.3h-1l-6.1 2.5 0.3 0.8q0.9-0.3 1.5-0.3 0.6 0 0.9 0.3 0.4 0.2 0.5 0.9 0.2 1 0.2 4.3v7.8q0 1.8-0.3 2.5z"/>
	<path id="Layer" class="s0" d="m90.3 186.6q0.7-0.7 0.7-1.6 0-0.9-0.7-1.6-0.6-0.6-1.6-0.6-0.9 0-1.6 0.6-0.6 0.7-0.6 1.6 0 0.9 0.6 1.6 0.7 0.7 1.6 0.7 1 0 1.6-0.7z"/>
	<path id="Layer" class="s0" d="m102.1 182.8l-6 2.5 0.3 0.7q0.9-0.3 1.5-0.3 0.5 0 0.9 0.3 0.3 0.2 0.5 1 0.1 0.8 0.1 4.2v18.4q0 1.8-0.3 2.5-0.2 0.7-0.8 1-0.5 0.2-1.9 0.2v0.8h9.9v-0.8q-1.5 0-2.1-0.3-0.6-0.3-0.8-0.9-0.3-0.6-0.3-2.5v-26.8z"/>
	<path id="Layer" class="s0" d="m116.5 194.8h0.7v-0.9h-9.6v0.9q1.2 0.1 1.5 0.3 0.7 0.4 1.1 0.9 0.5 0.5 1 1.7l7.2 17.1h0.9l7.2-17.4q0.6-1.5 1.3-2.2 0.5-0.4 1.6-0.4v-0.9h-6.6v0.9q1.2 0 1.6 0.1 0.3 0.1 0.6 0.4 0.2 0.2 0.2 0.5 0 0.7-0.6 1.9l-4.7 11.6-4.7-11.2q-0.4-1-0.4-1.8 0-0.7 0.4-1.1 0.5-0.4 1.3-0.4z"/>
	<path id="Layer" fill-rule="evenodd" class="s0" d="m148.6 201.6h-13.9q-0.1 4.4 2.1 7 2.2 2.6 5.2 2.6 2 0 3.5-1.1 1.4-1.1 2.4-3.8l0.7 0.5q-0.5 3-2.7 5.5-2.2 2.5-5.6 2.5-3.6 0-6.2-2.9-2.6-2.8-2.6-7.6 0-5.2 2.7-8.1 2.6-2.9 6.6-2.9 3.4 0 5.6 2.3 2.2 2.2 2.2 6zm-4.6-1.3q-0.1-2-0.5-2.8-0.5-1.2-1.6-1.9-1.1-0.7-2.3-0.7-1.8 0-3.3 1.4-1.4 1.4-1.6 4z"/>
	<path id="Layer" class="s0" d="m162.4 193.3q-2.7 0-5.2 4.6v-4.6h-0.9l-6.1 2.5 0.2 0.8q0.9-0.3 1.5-0.3 0.6 0 1 0.3 0.4 0.3 0.5 1 0.2 0.6 0.2 4.2v7.8q0 1.8-0.1 2.1-0.3 0.8-0.8 1.2-0.8 0.4-2.3 0.4v0.8h10.3v-0.8q-1.3 0-2.1-0.4-0.7-0.3-1-0.9-0.4-0.9-0.4-2.6v-9.7q1.1-2 2.1-2.9 0.4-0.5 0.8-0.5 0.5 0 1.4 0.8 1 0.7 1.8 0.7 0.8 0 1.3-0.5 0.6-0.6 0.6-1.5 0-1-0.8-1.7-0.8-0.8-2-0.8z"/>
	<path id="Layer" class="s0" d="m88.3 239.2h1.1q1 0 2 0.6 0.7 0.4 0.9 0.9 0.3 0.7 0.3 3v19.3q0 2.7-0.5 3.4-0.9 1.1-2.7 1.1h-1.1v0.8h12.8v-0.8h-1.1q-1 0-2-0.5-0.7-0.4-0.9-1-0.3-0.7-0.3-3v-19.3q0-2.7 0.6-3.4 0.8-1.1 2.6-1.1h1.1v-0.8h-12.8c0 0 0 0.8 0 0.8z"/>
	<path id="Layer" class="s0" d="m125.1 239.2q0.2 0.1 0.3 0.1 1.5 0.2 2.2 0.8 0.6 0.6 0.6 1.3 0 0.9-1 3.5l-7.1 17.3-7.6-17.5q-1-2.4-1-3.5 0-0.7 0.6-1.3 0.7-0.5 2.7-0.7v-0.8h-12.2v0.8q1.4 0.2 2.2 0.5 0.8 0.4 1.3 1.1 0.4 0.4 1.3 2.4l11.1 25.8h0.9l10.4-25.4q0.9-2.3 2.1-3.3 0.8-0.8 2.4-1.1v-0.8h-9.2z"/>
</svg>