<?xml version="1.0" encoding="utf-8"?>
<!-- Generator: Adobe Illustrator 25.0.0, SVG Export Plug-In . SVG Version: 6.00 Build 0)  -->
<svg version="1.1" id="Layer_1" xmlns="http://www.w3.org/2000/svg" xmlns:xlink="http://www.w3.org/1999/xlink" x="0px" y="0px"
	 viewBox="0 0 50 39.3" style="enable-background:new 0 0 50 39.3;" xml:space="preserve">
<g>
	<path d="M48.68,22.92c-0.17,0.71-0.29,1.44-0.52,2.13c-0.95,2.79-2.82,4.87-5.19,6.54c-0.41,0.29-0.85,0.55-1.27,0.83
		c0.42,1.23,1.15,2.24,1.97,3.18c0.44,0.51,0.91,1.01,1.35,1.52c0.27,0.31,0.37,0.66,0.19,1.06c-0.22,0.47-0.6,0.66-1.24,0.51
		c-1.15-0.26-2.31-0.49-3.44-0.85c-1.94-0.61-3.76-1.5-5.45-2.65c-0.18-0.12-0.45-0.21-0.66-0.17c-3.21,0.51-6.41,0.48-9.59-0.18
		c-2.52-0.52-4.88-1.45-7.15-2.93c0.45,0,0.79-0.02,1.13,0c2.27,0.15,4.52-0.05,6.74-0.5c4.07-0.83,7.8-2.43,10.95-5.19
		c2.7-2.37,4.57-5.25,5.21-8.84c0.34-1.94,0.23-3.86-0.26-5.76c-0.04-0.15-0.07-0.29-0.03-0.53c0.68,0.45,1.38,0.87,2.03,1.36
		c2.33,1.76,4.11,3.93,4.9,6.8c0.14,0.51,0.23,1.04,0.34,1.57C48.68,21.51,48.68,22.21,48.68,22.92z"/>
	<path d="M19.99,28.69c-1.44-0.14-2.87-0.3-4.31-0.42c-0.22-0.02-0.49,0.02-0.67,0.14c-2.56,1.72-5.35,2.86-8.38,3.44
		c-0.29,0.06-0.57,0.1-0.86,0.13c-0.39,0.05-0.7-0.11-0.89-0.45c-0.19-0.33-0.21-0.68,0.03-1c0.18-0.25,0.39-0.48,0.6-0.7
		c1.03-1.14,2.07-2.28,2.69-3.72c0.15-0.34,0.09-0.49-0.22-0.68c-2.24-1.36-4.12-3.09-5.34-5.43c-2-3.82-1.68-7.53,0.74-11.05
		c1.87-2.71,4.5-4.46,7.51-5.68c3.62-1.47,7.39-1.91,11.26-1.6c3.57,0.28,6.91,1.28,9.96,3.16c2.47,1.53,4.49,3.51,5.62,6.24
		c1.48,3.6,1.02,7.02-1.2,10.19c-2.21,3.16-5.37,4.99-8.95,6.19C25.12,28.26,22.58,28.6,19.99,28.69z M11.79,26.28
		c0.02,0.02,0.05,0.04,0.08,0.06c0.78-0.52,1.54-1.05,2.33-1.54c0.18-0.11,0.45-0.17,0.67-0.15c1.71,0.17,3.42,0.49,5.13,0.53
		c2.53,0.06,5.01-0.4,7.4-1.32c2.4-0.92,4.52-2.23,6.12-4.29c1.46-1.87,2-3.97,1.39-6.29c-0.49-1.86-1.65-3.29-3.1-4.48
		c-2.76-2.27-6.02-3.34-9.52-3.72c-3.32-0.36-6.57,0-9.71,1.18c-2.13,0.8-4.05,1.93-5.61,3.62c-1.24,1.35-2.09,2.89-2.19,4.76
		c-0.12,2.27,0.82,4.11,2.31,5.73c1.25,1.36,2.82,2.26,4.4,3.16c0.38,0.22,0.76,0.44,1.15,0.66C12.35,24.94,12.07,25.61,11.79,26.28
		z"/>
</g>
</svg>
