<?xml version="1.0" encoding="iso-8859-1"?>
<!-- Generator: Adobe Illustrator 25.0.0, SVG Export Plug-In . SVG Version: 6.00 Build 0)  -->
<svg version="1.1" id="Layer_1" xmlns="http://www.w3.org/2000/svg" xmlns:xlink="http://www.w3.org/1999/xlink" x="0px" y="0px"
	 viewBox="0 0 40.625 39.301" style="enable-background:new 0 0 40.625 39.301;" xml:space="preserve">
<g>
	<g>
		<path style="fill:#FF0000;" d="M20.312,38.275c10.267,0,18.625-8.358,18.625-18.625S30.58,1.025,20.312,1.025
			S1.688,9.383,1.688,19.65S10.045,38.275,20.312,38.275z M10.02,13.996h20.584c0.298,0,0.521,0.223,0.521,0.496
			c0,0.273-0.223,0.521-0.521,0.521H10.02c-0.298,0-0.521-0.248-0.521-0.521C9.5,14.219,9.723,13.996,10.02,13.996z M19.965,27.711
			l-7.986-7.986c-0.149-0.149-0.198-0.372-0.124-0.546c0.074-0.198,0.273-0.322,0.471-0.322h15.971c0.223,0,0.397,0.124,0.471,0.322
			c0.074,0.174,0.025,0.397-0.124,0.546l-7.961,7.986C20.486,27.909,20.164,27.909,19.965,27.711z"/>
	</g>
	<g>
		<path style="fill:#FFFFFF;" d="M28.769,19.179c0.074,0.174,0.025,0.397-0.124,0.546l-7.961,7.986
			c-0.198,0.198-0.521,0.198-0.719,0l-7.986-7.986c-0.149-0.149-0.198-0.372-0.124-0.546c0.074-0.198,0.273-0.322,0.471-0.322
			h15.971C28.521,18.857,28.695,18.981,28.769,19.179z"/>
		<path style="fill:#FFFFFF;" d="M9.5,14.492c0-0.273,0.223-0.496,0.521-0.496h20.584c0.298,0,0.521,0.223,0.521,0.496
			c0,0.273-0.223,0.521-0.521,0.521H10.02C9.723,15.013,9.5,14.765,9.5,14.492z"/>
	</g>
</g>
</svg>
