<?xml version="1.0" encoding="iso-8859-1"?>
<!-- Generator: Adobe Illustrator 25.0.0, SVG Export Plug-In . SVG Version: 6.00 Build 0)  -->
<svg version="1.1" id="Layer_1" xmlns="http://www.w3.org/2000/svg" xmlns:xlink="http://www.w3.org/1999/xlink" x="0px" y="0px"
	 viewBox="0 0 40.625 39.301" style="enable-background:new 0 0 40.625 39.301;" xml:space="preserve">
<g>
	<path d="M17.525,35.463c-0.417-0.166-0.516-0.492-0.515-0.913c0.007-5.856,0.005-11.713,0.005-17.569c0-0.122,0-0.244,0-0.369
		c-0.446,0.117-0.863,0.256-1.291,0.335c-2.403,0.448-4.899-1.37-5.238-3.803c-0.354-2.544,1.179-4.742,3.693-5.266
		c0.234-0.049,0.256-0.174,0.293-0.348c0.476-2.24,2.419-3.762,4.707-3.689c2.085,0.066,3.946,1.653,4.322,3.705
		c0.041,0.225,0.127,0.296,0.34,0.341c1.99,0.416,3.441,1.993,3.681,3.982c0.237,1.966-0.828,3.87-2.672,4.721
		c-1.166,0.538-2.364,0.563-3.567,0.101c-0.093-0.036-0.187-0.068-0.298-0.108c0,3.229,0,6.425,0,9.66c0.528,0,1.04-0.001,1.552,0
		c0.144,0,0.289-0.004,0.432,0.009c0.373,0.033,0.594,0.259,0.619,0.641c0.013,0.204,0.002,0.409,0.002,0.638
		c0.448,0,0.872,0,1.332,0c0-0.178-0.003-0.35,0.001-0.522c0.012-0.517,0.244-0.76,0.755-0.764c0.813-0.007,1.626-0.008,2.439,0
		c0.492,0.005,0.731,0.245,0.756,0.74c0.009,0.174,0.001,0.349,0.001,0.571c0.175,0,0.334-0.001,0.494,0
		c0.565,0.005,0.817,0.249,0.819,0.805c0.003,1.225,0.003,2.45,0,3.674c-0.002,0.534-0.242,0.774-0.77,0.787
		c-0.163,0.004-0.326,0.001-0.542,0.001c0,0.192,0.004,0.362-0.001,0.532c-0.015,0.527-0.255,0.785-0.774,0.792
		c-0.803,0.011-1.606,0.011-2.408,0c-0.526-0.007-0.76-0.258-0.77-0.788c-0.003-0.163,0-0.325,0-0.512c-0.445,0-0.86,0-1.327,0
		c0,0.142,0.001,0.281,0,0.42c-0.003,0.658-0.228,0.88-0.896,0.882c-0.484,0.001-0.968,0-1.451,0.001
		c-0.08,0-0.16,0.008-0.267,0.014c-0.037,0.501,0.106,1.081-0.553,1.299C19.461,35.463,18.493,35.463,17.525,35.463z"/>
</g>
</svg>
