<?xml version="1.0" encoding="utf-8"?>
<!-- Generator: Adobe Illustrator 25.0.0, SVG Export Plug-In . SVG Version: 6.00 Build 0)  -->
<svg version="1.1" id="Filled" xmlns="http://www.w3.org/2000/svg" xmlns:xlink="http://www.w3.org/1999/xlink" x="0px" y="0px"
	 viewBox="0 0 20 20" style="enable-background:new 0 0 20 20;" xml:space="preserve">
<path d="M10,0.03C5.41,0.04,1.69,3.76,1.68,8.35c0,2.14,1.66,5.49,4.93,9.96c1.37,1.87,3.99,2.28,5.86,0.92
	c0.35-0.26,0.66-0.56,0.92-0.92c3.27-4.47,4.93-7.82,4.93-9.96C18.31,3.76,14.59,0.04,10,0.03z M10,11.67
	c-1.84,0-3.33-1.49-3.33-3.33S8.16,5,10,5s3.33,1.49,3.33,3.33S11.84,11.67,10,11.67z"/>
</svg>
