<?xml version="1.0" encoding="iso-8859-1"?>
<!-- Generator: Adobe Illustrator 25.0.0, SVG Export Plug-In . SVG Version: 6.00 Build 0)  -->
<svg version="1.1" id="Layer_1" xmlns="http://www.w3.org/2000/svg" xmlns:xlink="http://www.w3.org/1999/xlink" x="0px" y="0px"
viewBox="0 0 40.625 39.301" style="enable-background:new 0 0 40.625 39.301;" xml:space="preserve">
<g>
	<path d="M25.58,34.31c-0.248,0-0.496,0-0.744,0c-0.015-0.012-0.028-0.03-0.044-0.034c-1.394-0.374-2.03-1.202-2.031-2.645
		c0-0.321,0-0.643,0-0.986c-0.141,0-0.244,0-0.348,0c-1.088,0-2.175,0.003-3.263-0.001c-2.098-0.007-3.697-1.594-3.716-3.688
		c-0.007-0.782-0.004-1.565,0.001-2.348c0.001-0.141,0.011-0.288,0.051-0.423c0.168-0.576,0.737-0.941,1.321-0.862
		c0.591,0.08,1.042,0.564,1.053,1.171c0.015,0.782,0.004,1.565,0.007,2.348c0.003,0.86,0.491,1.352,1.347,1.354
		c1.078,0.003,2.156,0.001,3.235,0.001c0.093,0,0.186,0,0.313,0c0-0.153,0-0.274,0-0.396c0-4.151,0-8.303,0-12.454
		c0-1.813-0.005-3.626,0.002-5.44c0.005-1.106,0.612-1.958,1.642-2.345c0.061-0.023,0.119-0.055,0.218-0.102
		c-0.08-0.012-0.107-0.02-0.135-0.02c-1.794-0.001-3.588-0.006-5.381,0.002c-0.717,0.003-1.214,0.505-1.238,1.228
		c-0.013,0.4,0.003,0.802-0.006,1.202c-0.016,0.699-0.539,1.225-1.21,1.229c-0.67,0.003-1.202-0.525-1.218-1.22
		c-0.01-0.429-0.009-0.859,0-1.288c0.042-2.01,1.645-3.588,3.658-3.6c0.744-0.005,1.488-0.001,2.233-0.001
		c3.721,0.003,7.442,0.006,11.163,0.009c1.066,0.001,2.012,0.664,2.348,1.648c0.052,0.151,0.089,0.308,0.132,0.462
		c0,7.558,0,15.117,0,22.675c-0.011,0.015-0.029,0.029-0.033,0.045c-0.22,1.07-0.897,1.686-1.916,2.016
		C30.535,32.654,28.059,33.487,25.58,34.31z"/>
	<path d="M11.768,15.987c0-0.144,0-0.248,0-0.351c0-1.088,0.001-2.175,0-3.263c0-0.553,0.243-0.964,0.753-1.173
		c0.508-0.209,0.973-0.089,1.365,0.296c0.34,0.335,0.675,0.674,1.013,1.011c1.248,1.248,2.496,2.495,3.743,3.745
		c0.608,0.61,0.61,1.299,0.001,1.908c-1.577,1.58-3.153,3.161-4.736,4.735c-0.713,0.709-1.812,0.468-2.084-0.453
		c-0.048-0.161-0.052-0.339-0.052-0.509c-0.005-1.049-0.002-2.099-0.002-3.148c0-0.103,0-0.206,0-0.351c-0.137,0-0.248,0-0.358,0
		c-1.479,0-2.957,0.003-4.436-0.001c-0.732-0.002-1.265-0.467-1.314-1.128c-0.054-0.718,0.495-1.313,1.234-1.316
		c1.507-0.007,3.014-0.002,4.521-0.002C11.52,15.987,11.624,15.987,11.768,15.987z"/>
</g>
</svg>
