<svg version="1.2" xmlns="http://www.w3.org/2000/svg" viewBox="0 0 200 200" width="200" height="200">
	<title>New Project</title>
	<style>
		.s0 { fill: #ffffff } 
		.s1 { fill: #008eae } 
		.s2 { fill: #15191d } 
	</style>
	<path id="&lt;Path&gt;" class="s0" d="m12 27.4c0-9 7.4-16.4 16.4-16.4h143.1c9.1 0 16.4 7.4 16.4 16.4v145.2c0 9-7.3 16.4-16.4 16.4h-143.1c-9 0-16.4-7.4-16.4-16.4z"/>
	<path id="&lt;Path&gt;" class="s1" d="m108 92c0-15.1-0.4-29.9 0.1-44.7 0.3-9.4 10-16.4 19.3-15 1.6 0.2 3.3 0.3 4.9 0.3 4.7-0.2 8.4 2.2 9.4 6.4 1 4.3-1.2 8.6-5.2 10.2-4.1 1.7-8.4 0.1-10.9-4-0.3-0.5-0.6-1-0.8-1.5-3.7 0.6-5.6 2.4-5.6 5.5 0 10.1 0.1 20.1 0.2 30.2 0 0.3 0.2 0.6 0.4 1.3q10 0 20 0c3.5 0 6.9 0.3 10.4 0 1.8-0.1 3.7-1.1 5.1-2.3 1.5-1.3 1.8-2.8-0.7-4.2-4.1-2.3-5.4-6.7-3.7-10.7 1.7-4.1 5.9-6.2 10.2-5.1 4.1 1 6.6 4.7 6.4 9.4-0.1 3.5 0.5 7 0 10.3-1.1 7.4-7.1 13.6-14.4 13.8-14.9 0.5-29.8 0.1-45.1 0.1z"/>
	<path id="&lt;Path&gt;" class="s2" d="m43.5 75.5c0.5 3.1 2.3 5.2 5.2 5.2 10.5 0.2 21.1 0.1 32 0.1 0-4 0-7.5 0-11q0-9.9 0.1-19.8c0-3.8-1.5-5.6-5.3-6.3-3.7 5.6-7.3 7.3-11.9 5.5-3.5-1.3-5.7-4.8-5.5-8.4 0.2-3.9 2.8-7.6 6.6-8 4.5-0.5 9.2-0.8 13.7-0.2 7.6 1 13.5 7.7 13.6 15.4 0.2 14.2 0.1 28.4 0 42.7 0 0.3-0.1 0.7-0.2 1.2-0.9 0.1-1.7 0.3-2.6 0.3-13.2 0-26.4 0-39.6 0-11.3-0.1-19.1-9.6-17.1-20.8 0.2-1.1 0.2-2.3 0.1-3.4-0.3-4.9 2.2-8.7 6.6-9.7 4.1-0.9 8.3 1.2 10 5 1.8 4.3 0.2 8.6-4.2 11.3-0.5 0.2-0.9 0.5-1.5 0.9z"/>
	<path id="&lt;Path&gt;" class="s1" d="m75.4 156.5c3.4-0.6 5.3-2.4 5.4-5.4 0.1-10.4 0-20.8 0-31.5-1.2-0.1-2.2-0.3-3.2-0.3q-13.9 0-27.8-0.1c-3.6 0-5.3 1.5-6.1 5.4 0.8 0.5 1.7 1 2.5 1.6 3.5 2.5 4.6 7 2.8 10.8-1.7 3.7-5.8 5.6-9.8 4.7-4.1-0.9-6.7-4.4-6.7-8.6 0-2 0-3.9-0.3-5.9-1.2-9.5 5.9-18.9 15.3-19.1 14.7-0.4 29.4-0.1 44.5-0.1 0.1 1.2 0.2 2.3 0.2 3.4q0 18.9 0 37.8c0 12.7-8.7 20.1-21.3 18.2-1-0.1-2.1 0-3.1 0-4.9 0.3-8.5-2.3-9.5-6.7-0.9-4.2 1.3-8.4 5.2-9.9 4.2-1.7 8.4-0.1 11 4.1 0.3 0.5 0.5 1 0.9 1.6z"/>
	<path id="&lt;Path&gt;" class="s2" d="m107.9 107.9c8.3 0 16.3 0 24.2 0 6.2 0 12.3 0 18.4 0 11.1 0.1 18.8 9.2 17.1 20.1-0.2 1.4-0.2 2.8-0.1 4.1 0.2 4.9-2.3 8.7-6.7 9.6-4.2 0.9-8.4-1.3-10-5.1-1.7-4.2-0.1-8.5 4-11 0.5-0.3 1-0.6 1.7-0.9-0.4-3.3-2.2-5.3-5.3-5.4-10.3-0.1-20.6 0.1-30.9 0.1-0.2 0-0.4 0.2-1 0.5 0 6.2 0.1 12.5 0 18.8 0 3.8-0.3 7.7 0 11.5 0.1 1.7 0.9 3.6 2 4.8 1.4 1.7 3 2.2 4.6-0.5 2.2-4 6.7-5.3 10.7-3.7 3.8 1.6 6 5.9 5.1 10-0.9 4.2-4.6 6.8-9.3 6.7-1.6-0.1-3.2 0-4.8 0.2-9.9 1.5-19.5-5.9-19.6-15.9-0.3-14.4-0.1-28.9-0.1-43.9z"/>
</svg>