<svg version="1.2" xmlns="http://www.w3.org/2000/svg" viewBox="0 0 200 200" width="200" height="200">
	<style>
		.s0 { fill: #ffffff } 
		.s1 { fill: #008eae } 
	</style>
	<path id="&lt;Path&gt;" class="s0" d="m110.2 89.8c0-19.5-0.4-38.4 0.2-57.3 0.4-12.1 12.8-21.1 24.8-19.3 2 0.3 4.1 0.5 6.1 0.4 6.2-0.2 10.9 2.9 12.1 8.2 1.4 5.5-1.4 11.1-6.6 13.1-5.3 2.2-10.8 0.1-14-5.2-0.4-0.6-0.7-1.2-1-1.8-4.7 0.7-7.2 3-7.2 7 0 12.9 0.2 25.8 0.3 38.7 0 0.4 0.2 0.8 0.5 1.7 8.5 0 17 0 25.6 0 4.4 0 8.9 0.4 13.3 0 2.3-0.2 4.8-1.4 6.5-2.9 2-1.7 2.3-3.7-0.8-5.5-5.3-2.9-7-8.6-4.8-13.7 2.2-5.2 7.6-7.9 13.1-6.6 5.3 1.4 8.4 6.1 8.2 12.2-0.2 4.4 0.6 8.9 0 13.2-1.4 9.4-9 17.3-18.5 17.6-19.1 0.6-38.2 0.2-57.8 0.2z"/>
	<path id="&lt;Path&gt;" class="s1" d="m27.7 68.5c0.6 4.1 2.8 6.7 6.6 6.8 13.5 0.2 27 0.1 41 0.1 0-5.1 0-9.6 0-14.2q0-12.6 0.1-25.3c0-4.9-1.9-7.2-6.8-8-4.7 7.1-9.4 9.3-15.3 7-4.4-1.7-7.2-6.1-7-10.8 0.3-5 3.7-9.6 8.4-10.2 5.9-0.6 11.9-1 17.7-0.2 9.7 1.3 17.2 9.9 17.4 19.7 0.3 18.2 0.1 36.4 0 54.7 0 0.4-0.2 0.8-0.3 1.6-1.1 0.1-2.2 0.3-3.4 0.3-16.9 0-33.8 0-50.7-0.1-14.5 0-24.4-12.2-21.9-26.5 0.3-1.5 0.3-3 0.2-4.4-0.4-6.3 2.8-11.2 8.4-12.4 5.3-1.2 10.7 1.5 12.8 6.4 2.3 5.5 0.2 11-5.3 14.4-0.7 0.4-1.3 0.7-1.9 1.1z"/>
	<path id="&lt;Path&gt;" class="s0" d="m68.5 172.4c4.3-0.8 6.8-3.1 6.9-6.9 0.1-13.4 0-26.7 0-40.4-1.6-0.1-2.8-0.3-4.1-0.3q-17.8-0.1-35.6-0.1c-4.7-0.1-6.8 1.8-7.9 6.8 1.1 0.7 2.2 1.3 3.3 2.1 4.5 3.2 5.9 8.9 3.6 13.8-2.3 4.7-7.5 7.2-12.6 6-5.2-1.2-8.5-5.6-8.5-11 0-2.5-0.1-5-0.4-7.5-1.6-12.2 7.5-24.3 19.6-24.6 18.8-0.4 37.6-0.1 57-0.1 0.1 1.6 0.2 3 0.2 4.4q0.1 24.2 0 48.5c0 16.3-11.1 25.7-27.3 23.3-1.3-0.2-2.6-0.1-3.9 0-6.4 0.3-11-2.9-12.2-8.7-1.1-5.3 1.7-10.6 6.7-12.6 5.4-2.1 10.7-0.1 14 5.2 0.4 0.6 0.7 1.3 1.2 2.1z"/>
	<path id="&lt;Path&gt;" class="s1" d="m110.1 110.2c10.7 0 20.9 0 31.1 0 7.9 0 15.7-0.1 23.6 0 14.2 0.1 24.1 11.8 21.9 25.7-0.3 1.7-0.3 3.5-0.2 5.3 0.3 6.3-3 11-8.6 12.2-5.4 1.2-10.7-1.6-12.7-6.5-2.2-5.3-0.2-10.9 5.1-14.1 0.6-0.4 1.3-0.7 2.1-1.2-0.4-4.2-2.8-6.8-6.8-6.8-13.2-0.2-26.3 0-39.5 0.1-0.3 0-0.5 0.2-1.3 0.6 0 7.9 0 16 0 24.1 0 4.9-0.4 9.8 0 14.7 0.1 2.1 1.1 4.6 2.6 6.2 1.7 2.1 3.8 2.8 5.8-0.7 2.8-5.1 8.6-6.8 13.8-4.7 4.8 2 7.6 7.6 6.5 12.8-1.2 5.4-5.9 8.7-11.9 8.5-2.1 0-4.1 0.1-6.2 0.4-12.8 1.8-24.9-7.7-25.2-20.4-0.3-18.5-0.1-37-0.1-56.2z"/>
</svg>