<?xml version="1.0" encoding="utf-8"?>
<!-- Generator: Adobe Illustrator 25.0.0, SVG Export Plug-In . SVG Version: 6.00 Build 0)  -->
<svg version="1.1" id="Layer_1" xmlns="http://www.w3.org/2000/svg" xmlns:xlink="http://www.w3.org/1999/xlink" x="0px" y="0px"
	 viewBox="0 0 308.93 308.93" style="enable-background:new 0 0 308.93 308.93;" xml:space="preserve">
<g>
	<path d="M26.43,42.55h256.08c8.88,0,16.09,7.2,16.09,16.09v0c0,8.88-7.2,16.09-16.09,16.09H26.43c-8.88,0-16.09-7.2-16.09-16.09v0
		C10.35,49.75,17.55,42.55,26.43,42.55z"/>
	<path d="M26.43,138.38h256.08c8.88,0,16.09,7.2,16.09,16.09v0c0,8.88-7.2,16.09-16.09,16.09H26.43c-8.88,0-16.09-7.2-16.09-16.09v0
		C10.35,145.58,17.55,138.38,26.43,138.38z"/>
	<path d="M26.43,234.21h256.08c8.88,0,16.09,7.2,16.09,16.09v0c0,8.88-7.2,16.09-16.09,16.09H26.43c-8.88,0-16.09-7.2-16.09-16.09v0
		C10.35,241.42,17.55,234.21,26.43,234.21z"/>
</g>
</svg>
