<?xml version="1.0" encoding="utf-8"?>
<!-- Generator: Adobe Illustrator 25.0.0, SVG Export Plug-In . SVG Version: 6.00 Build 0)  -->
<svg version="1.1" id="Layer_1" xmlns="http://www.w3.org/2000/svg" xmlns:xlink="http://www.w3.org/1999/xlink" x="0px" y="0px"
	 viewBox="0 0 16 16" style="enable-background:new 0 0 16 16;" xml:space="preserve">
<g>
	<path d="M14,12.9c-0.2,0.2-0.5,0.2-0.8,0.2H2.8c-0.8,0-1.5-0.6-1.5-1.4c0-0.3,0.1-0.6,0.2-0.8l1.6-2.4c0,0,0-0.1,0-0.1V5.6
		c0-2.6,2.1-4.8,4.8-4.8s4.8,2.1,4.8,4.8v2.8c0,0,0,0.1,0,0.1l1.6,2.4C14.8,11.6,14.7,12.5,14,12.9z"/>
	<path d="M9.9,14.3C9.8,15.3,9,16,8,16s-1.8-0.7-1.9-1.7c0-0.1,0.1-0.2,0.2-0.2h3.3C9.8,14.1,9.9,14.2,9.9,14.3z"/>
</g>
</svg>
