<?xml version="1.0" encoding="utf-8"?>
<!-- Generator: Adobe Illustrator 25.0.0, SVG Export Plug-In . SVG Version: 6.00 Build 0)  -->
<svg version="1.1" id="Layer_1" xmlns="http://www.w3.org/2000/svg" xmlns:xlink="http://www.w3.org/1999/xlink" x="0px" y="0px"
	 viewBox="0 0 308.93 308.93" style="enable-background:new 0 0 308.93 308.93;" xml:space="preserve">
<path d="M302.34,148.78v11.37c0,11.77-9.54,21.31-21.31,21.31H182v99.03c0,11.77-9.54,21.31-21.31,21.31h-11.38
	c-11.77,0-21.31-9.54-21.31-21.31v-99.03H28.97c-11.77,0-21.31-9.54-21.31-21.31v-11.37c0-11.77,9.54-21.32,21.31-21.32H128V28.44
	c0-11.77,9.54-21.32,21.31-21.32h11.38c11.77,0,21.31,9.55,21.31,21.32v99.02h99.03C292.8,127.46,302.34,137.01,302.34,148.78z"/>
</svg>
