<?xml version="1.0" encoding="utf-8"?>
<!-- Generator: Adobe Illustrator 25.0.0, SVG Export Plug-In . SVG Version: 6.00 Build 0)  -->
<svg version="1.1" id="Layer_1" xmlns="http://www.w3.org/2000/svg" xmlns:xlink="http://www.w3.org/1999/xlink" x="0px" y="0px"
	 viewBox="0 0 308.93 308.93" style="enable-background:new 0 0 308.93 308.93;" xml:space="preserve">
<g>
	<g>
		<path d="M299.92,152.19c-1.39,3.99-2.46,8.14-4.24,11.95c-2.59,5.52-6.92,9.39-12.77,11.45c-0.74,0.26-1.56,1.28-1.71,2.07
			c-0.8,4.17-1.4,8.38-2.14,12.99c5.24-4.57,10.53-8.71,17.9-9.42c-0.04,0.87,0.04,1.6-0.12,2.27c-1.66,6.84-4.72,12.95-9.37,18.27
			c-3.99,4.56-8.91,7.22-14.92,7.94c-0.78,0.09-1.84,0.63-2.15,1.27c-1.85,3.71-3.52,7.51-5.51,11.83
			c6.57-3.26,12.85-5.55,19.75-2.85c-3.26,12.49-18.63,23.3-30.88,21.92c-0.72-0.08-1.76,0.14-2.2,0.63
			c-2.84,3.15-5.55,6.41-8.62,10.02c6.79-0.98,13.14-1.39,18.84,3.13c-7.62,8.2-16.5,13.79-27.68,14.9
			c-2.55,0.25-5.32-0.26-7.78-1.07c-2.25-0.74-3.74-0.38-5.61,0.94c-1.94,1.38-4.24,2.62-6.54,3.03c-3.28,0.59-6.06-1.59-6.92-4.59
			c-0.93-3.24,0.07-6.85,3.01-8.11c4.34-1.86,5.77-4.61,6.05-9.42c0.57-9.85,5.47-19.55,11.29-25.05c4.14,2.65,5.1,4.94,6.49,15.42
			c2.84-2.6,5.67-5.19,8.46-7.75c-4.62-11.28-3.31-21.85,1.34-32.56c6.6,2.6,9.05,8.07,10.79,14.9c1.89-3.79,3.5-6.88,4.97-10.04
			c0.24-0.51,0.14-1.52-0.22-1.93c-6.51-7.46-7.7-16.42-7.35-25.82c0.05-1.23,0.21-2.45,0.38-3.67c0.03-0.25,0.3-0.46,0.53-0.79
			c6.97,0.78,10.93,5.34,14.16,11.88c0.97-4.56,1.79-8.44,2.66-12.51c-10.25-6.53-13.98-16.81-15.94-28.46
			c7.52-0.98,12.78,2.52,17.8,7.69c-0.25-3.9-0.43-7.8-0.85-11.68c-0.06-0.58-1.22-1.24-1.99-1.5
			c-11.01-3.74-17.24-12.06-21.76-22.37c7.38-2.95,13.51-0.64,19.8,3.36c-1.3-3.96-2.57-7.93-3.95-11.86
			c-0.15-0.43-1-0.85-1.53-0.86c-10.03-0.14-17.53-5.29-24.15-12.18c-1.29-1.35-2.45-2.83-3.83-4.44
			c6.67-4.94,13.31-4.03,20.52-1.58c-2.5-3.57-4.98-7.16-7.54-10.68c-0.27-0.37-1.16-0.57-1.66-0.45
			c-12.51,3.06-22.94-1.71-33.24-8.62c5.37-6.72,12.21-7.77,20.62-6.38c-2.16-1.89-3.65-3.42-5.36-4.66
			c-4.74-3.46-9.52-6.87-14.39-10.15c-3.35-2.26-4.46-4.63-2.96-7.18c1.64-2.79,4.73-3.37,8.12-1.06c7.18,4.9,14.21,10,21.13,14.9
			c-2.09-6.97-3.97-14.47,0.57-21.79c8.02,4.91,19.39,19.72,16.92,32.67c-0.21,1.11-0.3,2.4-0.93,3.24
			c-1.92,2.56-0.79,4.33,0.93,6.39c2.48,2.98,4.64,6.22,7.38,9.94c0.26-8.21,0.59-15.87,7.35-21.6
			c6.91,10.38,10.77,21.05,6.65,33.35c-0.41,1.24-0.98,2.62-1.9,3.46c-2.76,2.52-2.61,5-1.05,8.18c1.52,3.11,2.3,6.59,3.51,10.25
			c2.22-7.66,4.94-14.77,12.49-18.58c5.12,9.34,5.44,30.45-7.58,38.13c-0.53,0.31-1.13,1.13-1.1,1.68
			c0.26,4.59,0.65,9.18,1.04,14.25c4.45-6.53,8.73-12.6,17-13.46C299.92,144.97,299.92,148.58,299.92,152.19z"/>
		<path d="M64.49,254.42c-3.21-3.77-5.88-6.95-8.62-10.07c-0.36-0.41-1.12-0.78-1.62-0.7c-9.37,1.55-16.69-2.5-22.81-8.9
			c-3.55-3.71-6.32-8.16-9.66-12.56c7.76-3.21,14.3-0.85,21.53,1.61c-1.34-2.9-2.41-5.2-3.47-7.52c-0.63-1.38-1.14-2.81-1.85-4.14
			c-0.3-0.57-0.97-1.3-1.5-1.33c-9.56-0.51-15.69-6.22-20.11-13.9c-2.5-4.34-3.95-9.3-6.1-14.52c8.94-1.06,14.74,3.07,20.45,8.4
			c-0.8-4.78-1.5-9.17-2.33-13.53c-0.11-0.61-0.75-1.42-1.31-1.59c-10.09-3.09-14.16-11.16-16.4-20.42
			c-1.06-4.35-1.09-8.95-1.66-14.09c9.01,1.31,13.6,6.93,17.69,13.83c0.33-5.16,0.66-9.91,0.88-14.66c0.02-0.49-0.5-1.19-0.97-1.49
			c-8.56-5.52-10.92-14.01-10.65-23.41c0.14-4.85,1.39-9.67,2.22-15c8.26,3.98,11.01,10.92,13.28,18.7
			c1.81-4.92,3.47-9.35,5.04-13.83c0.17-0.48-0.08-1.34-0.45-1.74c-6.81-7.59-6.77-16.43-4.11-25.4c1.43-4.82,4.02-9.3,6.31-14.43
			c7.01,6.2,7.74,13.68,7.54,21.99c3.14-4.52,5.94-8.51,8.68-12.54c0.26-0.38,0.34-1.13,0.14-1.53c-4.83-9.42-1.92-17.97,3.34-25.93
			c2.66-4.03,6.4-7.35,9.99-11.37c5.12,8.1,3.44,15.6,1.07,23.25c5.18-3.94,10.1-7.76,15.1-11.46c2.13-1.57,4.42-2.93,6.69-4.29
			c2.99-1.78,6.17-1.14,7.67,1.42c1.48,2.54,0.39,4.81-2.76,7.01c-5.82,4.05-11.49,8.31-17.23,12.48c-0.75,0.54-1.53,1.03-2.07,1.9
			c7.77-0.7,14.58,0.24,19.9,6.93c-10.52,7.32-21.37,11.74-34.57,8.46c-2.45,3.59-5.04,7.39-8.16,11.96
			C61.13,88.97,67.8,88,74.4,92.94c-6.97,9.16-15.24,15.71-27.02,16.46c-1.51,0.1-2.41,0.33-2.88,1.93
			c-1.05,3.61-2.3,7.17-3.72,11.55c6.45-4.42,12.57-7.01,19.9-3.95c-4.23,10.23-10.5,18.21-21.05,21.95
			c-2.11,0.75-2.82,1.83-2.92,3.81c-0.17,3.3-0.41,6.59-0.68,10.71c4.83-5.88,10.11-9.42,17.94-8.75c-0.49,2.66-0.74,5.17-1.44,7.55
			c-2.37,8.08-6.11,15.29-13.35,20.18c-0.5,0.34-1.02,1.22-0.94,1.75c0.56,3.69,1.28,7.36,2.27,11.06
			c3.46-5.79,7.6-10.27,14.76-11.26c1.72,10.78,0.46,20.64-6.31,29.27c-1.02,1.3-1.3,2.25-0.46,3.73c1.55,2.75,2.91,5.61,4.73,9.16
			c1.55-7,4.24-12.16,11.02-15.11c1.2,4.39,2.74,8.39,3.32,12.53c0.84,6.01,0.91,12.09-1.39,17.96c-0.34,0.87-0.08,2.46,0.53,3.12
			c2.28,2.46,4.82,4.68,7.4,7.11c-0.27-6.09,1.03-11.62,6.14-15.88c6.84,8.23,11.6,17.19,11.48,28.1c-0.03,2.21,0.51,3.52,2.54,4.42
			c1.28,0.56,2.42,1.48,3.55,2.33c3.28,2.5,3.88,6.08,1.64,9.53c-2.02,3.12-5.87,4.13-9.24,2.43c-2.62-1.33-9.96-2.52-13.01-2.32
			c-10.06,0.69-18.39-3.51-26.01-9.5c-1.98-1.55-3.73-3.4-5.76-5.28C51.29,253.09,57.51,253.17,64.49,254.42z"/>
	</g>
	<g>
		<path id="_x3C_Path_x3E__1_" d="M162.51,146.46c0-15.1-0.4-29.9,0.1-44.7c0.3-9.4,10-16.4,19.3-15c1.6,0.2,3.3,0.3,4.9,0.3
			c4.7-0.2,8.4,2.2,9.4,6.4c1,4.3-1.2,8.6-5.2,10.2c-4.1,1.7-8.4,0.1-10.9-4c-0.3-0.5-0.6-1-0.8-1.5c-3.7,0.6-5.6,2.4-5.6,5.5
			c0,10.1,0.1,20.1,0.2,30.2c0,0.3,0.2,0.6,0.4,1.3c6.67,0,13.33,0,20,0c3.5,0,6.9,0.3,10.4,0c1.8-0.1,3.7-1.1,5.1-2.3
			c1.5-1.3,1.8-2.8-0.7-4.2c-4.1-2.3-5.4-6.7-3.7-10.7c1.7-4.1,5.9-6.2,10.2-5.1c4.1,1,6.6,4.7,6.4,9.4c-0.1,3.5,0.5,7,0,10.3
			c-1.1,7.4-7.1,13.6-14.4,13.8C192.71,146.86,177.81,146.46,162.51,146.46z"/>
		<path id="_x3C_Path_x3E__2_" d="M98.01,129.96c0.5,3.1,2.3,5.2,5.2,5.2c10.5,0.2,21.1,0.1,32,0.1c0-4,0-7.5,0-11
			c0-6.6,0.03-13.2,0.1-19.8c0-3.8-1.5-5.6-5.3-6.3c-3.7,5.6-7.3,7.3-11.9,5.5c-3.5-1.3-5.7-4.8-5.5-8.4c0.2-3.9,2.8-7.6,6.6-8
			c4.5-0.5,9.2-0.8,13.7-0.2c7.6,1,13.5,7.7,13.6,15.4c0.2,14.2,0.1,28.4,0,42.7c0,0.3-0.1,0.7-0.2,1.2c-0.9,0.1-1.7,0.3-2.6,0.3
			c-13.2,0-26.4,0-39.6,0c-11.3-0.1-19.1-9.6-17.1-20.8c0.2-1.1,0.2-2.3,0.1-3.4c-0.3-4.9,2.2-8.7,6.6-9.7c4.1-0.9,8.3,1.2,10,5
			c1.8,4.3,0.2,8.6-4.2,11.3C99.01,129.26,98.61,129.56,98.01,129.96L98.01,129.96z"/>
		<path id="_x3C_Path_x3E__3_" d="M129.91,210.96c3.4-0.6,5.3-2.4,5.4-5.4c0.1-10.4,0-20.8,0-31.5c-1.2-0.1-2.2-0.3-3.2-0.3
			c-9.27,0-18.53-0.03-27.8-0.1c-3.6,0-5.3,1.5-6.1,5.4c0.8,0.5,1.7,1,2.5,1.6c3.5,2.5,4.6,7,2.8,10.8c-1.7,3.7-5.8,5.6-9.8,4.7
			c-4.1-0.9-6.7-4.4-6.7-8.6c0-2,0-3.9-0.3-5.9c-1.2-9.5,5.9-18.9,15.3-19.1c14.7-0.4,29.4-0.1,44.5-0.1c0.1,1.2,0.2,2.3,0.2,3.4
			c0,12.6,0,25.2,0,37.8c0,12.7-8.7,20.1-21.3,18.2c-1-0.1-2.1,0-3.1,0c-4.9,0.3-8.5-2.3-9.5-6.7c-0.9-4.2,1.3-8.4,5.2-9.9
			c4.2-1.7,8.4-0.1,11,4.1C129.31,209.86,129.51,210.36,129.91,210.96L129.91,210.96z"/>
		<path id="_x3C_Path_x3E__4_" d="M162.41,162.36c8.3,0,16.3,0,24.2,0c6.2,0,12.3,0,18.4,0c11.1,0.1,18.8,9.2,17.1,20.1
			c-0.2,1.4-0.2,2.8-0.1,4.1c0.2,4.9-2.3,8.7-6.7,9.6c-4.2,0.9-8.4-1.3-10-5.1c-1.7-4.2-0.1-8.5,4-11c0.5-0.3,1-0.6,1.7-0.9
			c-0.4-3.3-2.2-5.3-5.3-5.4c-10.3-0.1-20.6,0.1-30.9,0.1c-0.2,0-0.4,0.2-1,0.5c0,6.2,0.1,12.5,0,18.8c0,3.8-0.3,7.7,0,11.5
			c0.1,1.7,0.9,3.6,2,4.8c1.4,1.7,3,2.2,4.6-0.5c2.2-4,6.7-5.3,10.7-3.7c3.8,1.6,6,5.9,5.1,10c-0.9,4.2-4.6,6.8-9.3,6.7
			c-1.6-0.1-3.2,0-4.8,0.2c-9.9,1.5-19.5-5.9-19.6-15.9C162.21,191.86,162.41,177.36,162.41,162.36z"/>
	</g>
</g>
</svg>
