<?xml version="1.0" encoding="utf-8"?>
<!-- Generator: Adobe Illustrator 25.0.0, SVG Export Plug-In . SVG Version: 6.00 Build 0)  -->
<svg version="1.1" id="Layer_1" xmlns="http://www.w3.org/2000/svg" xmlns:xlink="http://www.w3.org/1999/xlink" x="0px" y="0px"
	 viewBox="0 0 75.33 43.42" style="enable-background:new 0 0 75.33 43.42;" xml:space="preserve">
<style type="text/css">
	.st0{fill:#ffffff;}
</style>
<g>
	<path d="M61.83,22.29c-2.07,4.66-4.13,9.28-6.24,14.03c-1.15-0.54-2.23-1.02-3.27-1.56c-1.23-0.64-2.39-0.7-3.72-0.19
		c-5.28,2.01-10.65,3.68-16.26,4.57c-7.82,1.24-14.8-0.58-20.99-5.51c-3.15-2.51-5.9-5.39-8.35-8.56c-1.17-1.51-1.17-3.28-0.05-4.52
		c1.16-1.29,2.91-1.42,4.58-0.33c2.61,1.71,5.21,3.43,7.79,5.18c0.29,0.19,0.63,0.55,0.65,0.85c0.25,3.68,3.36,5.48,6.59,5.67
		c4.14,0.25,8.07-0.73,11.95-2c0.73-0.24,1.46-0.5,2.18-0.76c0.51-0.19,1.23-0.33,0.96-1.1c-0.29-0.81-0.94-0.44-1.51-0.27
		c-2.76,0.79-5.48,1.76-8.29,2.26c-2.13,0.38-4.39,0.33-6.57,0.13c-1.8-0.17-3.17-1.27-3.69-3.15c-0.41-1.5,0.09-2.45,1.58-2.91
		c2.74-0.86,5.52-1.6,8.22-2.59c2.39-0.87,4.75-1.89,7.02-3.05c5.67-2.89,11.43-3.07,17.27-0.7c3.28,1.33,6.49,2.83,9.73,4.25
		C61.53,22.08,61.63,22.17,61.83,22.29z"/>
	<path class="st0" d="M26.64,3.93c1.92-1.9,4.15-2.87,6.79-2.62c2.63,0.25,4.54,1.61,5.59,4.02c1.08,2.46,0.86,4.86-0.72,7.07
		c-1.87,2.61-4.2,4.63-7.32,5.69c-2.52,0.85-4.99,1.85-7.5,2.72c-0.36,0.12-1.01,0.02-1.25-0.23c-2.37-2.58-4.75-5.16-6.99-7.85
		c-2.97-3.55-1.77-9.03,2.37-10.84c2.93-1.28,5.69-0.66,8.17,1.29c0.14,0.11,0.26,0.23,0.39,0.35C26.3,3.64,26.43,3.75,26.64,3.93z"
		/>
	<path d="M65.65,42.21c0,0-7.56-2.72-8.67-3.21c2.6-5.85,5.17-11.63,7.8-17.55c2.82,1.25,5.57,2.47,8.45,3.74
		C70.67,30.92,65.65,42.21,65.65,42.21z"/>
</g>
</svg>
