<?xml version="1.0" encoding="iso-8859-1"?>
<!-- Generator: Adobe Illustrator 25.0.0, SVG Export Plug-In . SVG Version: 6.00 Build 0)  -->
<svg version="1.1" id="Layer_1" xmlns="http://www.w3.org/2000/svg" xmlns:xlink="http://www.w3.org/1999/xlink" x="0px" y="0px"
	 viewBox="0 0 40.625 39.301" style="enable-background:new 0 0 40.625 39.301;" xml:space="preserve">
<path d="M34.477,16.873h-1.449c-0.664,0-1.238-0.423-1.464-1.056c-0.166-0.483-0.362-0.966-0.589-1.434
	c-0.302-0.573-0.181-1.268,0.272-1.72l1.056-1.056c0.211-0.227,0.332-0.513,0.332-0.815c0-0.302-0.121-0.604-0.332-0.815
	l-2.309-2.309c-0.453-0.453-1.177-0.453-1.63,0l-1.072,1.072c-0.438,0.453-1.147,0.559-1.72,0.272
	c-0.468-0.226-0.951-0.422-1.434-0.588c-0.619-0.211-1.041-0.785-1.041-1.434V5.478c0-0.619-0.513-1.147-1.147-1.147h-3.26
	c-0.634,0-1.147,0.528-1.147,1.147v1.509c0,0.649-0.423,1.223-1.041,1.434c-0.483,0.166-0.966,0.362-1.434,0.588
	c-0.589,0.287-1.283,0.181-1.736-0.272l-1.071-1.072c-0.423-0.438-1.177-0.438-1.615,0l-2.31,2.309
	c-0.211,0.211-0.332,0.513-0.332,0.815c0,0.302,0.12,0.588,0.332,0.815l1.057,1.056c0.453,0.453,0.558,1.147,0.272,1.72
	c-0.227,0.468-0.438,0.951-0.604,1.434c-0.211,0.634-0.8,1.056-1.449,1.056H6.148c-0.634,0-1.147,0.513-1.147,1.147v3.26
	c0,0.634,0.513,1.147,1.147,1.147h1.434c0.664,0,1.253,0.423,1.464,1.056c0.166,0.498,0.362,0.981,0.604,1.464
	c0.287,0.574,0.166,1.268-0.287,1.721l-1.027,1.026c-0.453,0.453-0.453,1.177,0,1.63l2.31,2.309c0.437,0.438,1.192,0.438,1.615,0
	l1.027-1.011c0.452-0.468,1.147-0.573,1.736-0.287c0.468,0.241,0.951,0.438,1.449,0.619c0.634,0.211,1.072,0.8,1.072,1.464v1.404
	c0,0.619,0.513,1.147,1.147,1.147h3.26c0.634,0,1.147-0.528,1.147-1.147v-1.404c0-0.664,0.422-1.253,1.056-1.464
	c0.498-0.181,0.996-0.377,1.464-0.619c0.589-0.287,1.283-0.181,1.736,0.287l1.011,1.011c0.453,0.453,1.177,0.453,1.63,0l2.309-2.309
	c0.438-0.453,0.438-1.177,0-1.63l-1.026-1.026c-0.453-0.453-0.574-1.147-0.287-1.721c0.241-0.483,0.437-0.966,0.604-1.464
	c0.211-0.634,0.8-1.056,1.464-1.056h1.419c0.634,0,1.147-0.513,1.147-1.147v-3.26C35.624,17.386,35.111,16.873,34.477,16.873z
	 M28.017,19.65c0,4.241-3.456,7.697-7.697,7.697c-4.241,0-7.697-3.456-7.697-7.697c0-4.241,3.456-7.697,7.697-7.697
	C24.561,11.953,28.017,15.41,28.017,19.65z"/>
</svg>
