<?xml version="1.0" encoding="iso-8859-1"?>
<!-- Generator: Adobe Illustrator 25.0.0, SVG Export Plug-In . SVG Version: 6.00 Build 0)  -->
<svg version="1.1" id="Layer_1" xmlns="http://www.w3.org/2000/svg" xmlns:xlink="http://www.w3.org/1999/xlink" x="0px" y="0px"
	 viewBox="0 0 40.625 39.301" style="enable-background:new 0 0 40.625 39.301;" xml:space="preserve">
<g>
	<g>
		<path style="fill:#FF0000;" d="M20.312,1.025c-10.267,0-18.625,8.358-18.625,18.625s8.358,18.625,18.625,18.625
			s18.625-8.358,18.625-18.625S30.58,1.025,20.312,1.025z M30.605,25.305H10.02c-0.298,0-0.521-0.223-0.521-0.496
			c0-0.273,0.223-0.521,0.521-0.521h20.584c0.298,0,0.521,0.248,0.521,0.521C31.125,25.082,30.902,25.305,30.605,25.305z
			 M20.66,11.59l7.986,7.986c0.149,0.149,0.198,0.372,0.124,0.546c-0.074,0.198-0.273,0.322-0.471,0.322H12.327
			c-0.223,0-0.397-0.124-0.471-0.322c-0.074-0.174-0.025-0.397,0.124-0.546l7.961-7.986C20.139,11.392,20.461,11.392,20.66,11.59z"
			/>
	</g>
	<g>
		<path style="fill:#FFFFFF;" d="M11.856,20.122c-0.074-0.174-0.025-0.397,0.124-0.546l7.961-7.986c0.198-0.198,0.521-0.198,0.719,0
			l7.986,7.986c0.149,0.149,0.198,0.372,0.124,0.546c-0.074,0.198-0.273,0.322-0.471,0.322H12.327
			C12.104,20.444,11.93,20.32,11.856,20.122z"/>
		<path style="fill:#FFFFFF;" d="M31.125,24.809c0,0.273-0.223,0.496-0.521,0.496H10.02c-0.298,0-0.521-0.223-0.521-0.496
			c0-0.273,0.223-0.521,0.521-0.521h20.584C30.902,24.288,31.125,24.536,31.125,24.809z"/>
	</g>
</g>
</svg>
