<?xml version="1.0" encoding="iso-8859-1"?>
<!-- Generator: Adobe Illustrator 25.0.0, SVG Export Plug-In . SVG Version: 6.00 Build 0)  -->
<svg version="1.1" id="Layer_1" xmlns="http://www.w3.org/2000/svg" xmlns:xlink="http://www.w3.org/1999/xlink" x="0px" y="0px"
	 viewBox="0 0 40.625 39.301" style="enable-background:new 0 0 40.625 39.301;" xml:space="preserve">
<g>
	<path d="M7.528,35.025C6.16,35.158,6.15,35.21,6.127,33.793c-0.016-0.975-0.027-1.954,0.035-2.926
		c0.21-3.258,2.077-5.459,4.73-7.057c1.232-0.742,2.597-1.269,3.923-1.842c0.261-0.113,0.669-0.088,0.931,0.038
		c3.073,1.47,6.126,1.433,9.191-0.021c0.223-0.106,0.552-0.135,0.782-0.055c3.105,1.081,5.961,2.547,7.732,5.486
		c0.407,0.676,0.745,1.47,0.835,2.243c0.177,1.514,0.154,3.05,0.222,4.577c0.027,0.599-0.235,0.735-0.815,0.679
		c-2.883-0.28-5.768-0.555-8.658-0.754c-1.387-0.095-4.178-0.016-4.178-0.016S11.961,34.596,7.528,35.025z"/>
	<path d="M20.445,20.877c-4.536,0.101-8.251-3.549-8.357-8.211c-0.102-4.505,3.524-8.362,7.947-8.451
		c4.688-0.095,8.437,3.505,8.55,8.21C28.694,16.957,25.017,20.775,20.445,20.877z"/>
</g>
</svg>
