<?xml version="1.0" encoding="iso-8859-1"?>
<!-- Generator: Adobe Illustrator 25.0.0, SVG Export Plug-In . SVG Version: 6.00 Build 0)  -->
<svg version="1.1" id="Layer_1" xmlns="http://www.w3.org/2000/svg" xmlns:xlink="http://www.w3.org/1999/xlink" x="0px" y="0px"
	 viewBox="0 0 40.625 39.301" style="enable-background:new 0 0 40.625 39.301;" xml:space="preserve">
<g>
	<path d="M36.68,33.329c-0.052,0.16-0.094,0.325-0.159,0.48c-0.411,0.982-1.158,1.526-2.215,1.537
		c-2.498,0.025-4.997,0.026-7.496,0.002c-1.397-0.013-2.384-1.06-2.388-2.46c-0.004-1.51-0.002-3.02-0.001-4.529
		c0.001-1.508,0.959-2.496,2.468-2.547c0.073-0.003,0.146-0.011,0.261-0.021c0-0.439-0.022-0.873,0.005-1.304
		c0.038-0.601,0.017-1.228,0.189-1.793c0.464-1.533,2.063-2.52,3.588-2.305c1.723,0.243,2.956,1.572,3.008,3.268
		c0.022,0.7,0.004,1.4,0.004,2.136c0.15,0.008,0.272,0.016,0.394,0.022c1.153,0.061,2.003,0.761,2.283,1.878
		c0.013,0.05,0.038,0.097,0.058,0.146C36.68,29.669,36.68,31.499,36.68,33.329z M29.213,25.789c0.9,0,1.784,0,2.68,0
		c0-0.753,0.031-1.486-0.009-2.214c-0.035-0.64-0.651-1.151-1.308-1.162c-0.658-0.011-1.306,0.474-1.351,1.111
		C29.173,24.271,29.213,25.024,29.213,25.789z"/>
	<path d="M22.379,32.627c-0.162,0-0.279,0-0.395,0c-5.575,0-11.151,0-16.726,0c-0.897,0-1.266-0.364-1.266-1.25
		c0-1.49-0.003-2.979,0-4.469c0.008-3.675,2.861-6.532,6.539-6.538c3.798-0.006,7.597,0.001,11.395-0.002
		c1.332-0.001,2.559,0.342,3.657,1.067c-0.141,0.525-0.296,1.029-0.406,1.542c-0.062,0.288-0.06,0.591-0.065,0.888
		c-0.003,0.165-0.042,0.261-0.204,0.345c-1.665,0.86-2.514,2.232-2.528,4.107c-0.01,1.309-0.002,2.617-0.002,3.926
		C22.379,32.359,22.379,32.474,22.379,32.627z"/>
	<path d="M16.26,17.639c-3.753,0.007-6.804-3.024-6.823-6.779C9.418,7.106,12.48,4.03,16.24,4.026
		c3.764-0.004,6.827,3.054,6.823,6.815C23.061,14.593,20.019,17.631,16.26,17.639z"/>
</g>
</svg>
