<?xml version="1.0" encoding="utf-8"?>
<!-- Generator: Adobe Illustrator 25.0.0, SVG Export Plug-In . SVG Version: 6.00 Build 0)  -->
<svg version="1.1" id="Layer_1" xmlns="http://www.w3.org/2000/svg" xmlns:xlink="http://www.w3.org/1999/xlink" x="0px" y="0px"
	 viewBox="0 0 684.7 461.4" style="enable-background:new 0 0 684.7 461.4;" xml:space="preserve">
<g>
	<path d="M45.9,226.9c0.8-1.2,1.6-2.4,2.4-3.5c11.9-16.7,24.8-32.1,38.4-46.8c25.7-27.8,53.6-52.1,83.8-72.4
		c25.2-16.9,51.6-30.6,79.4-40.2c14.3-4.9,28.8-8.8,43.5-11.4c17.1-3,34.3-4.5,51.6-4.1c10.3,0.2,20.6,1.1,30.9,2.5
		c39.5,5.5,76.8,19.7,112.4,40.5c27.2,15.8,52.6,35.1,76.7,56.8c25.6,23.1,49.5,48.7,72,76c0.5,0.6,1,1.2,1.4,1.8
		c0.1,0.2,0.2,0.4,0.3,0.7c-0.2,1.4-1.1,2.2-1.8,3.2c-6.8,9.4-13.9,18.3-21.3,27c-28.6,33.5-59.7,63.1-93.9,88.1
		c-26.6,19.5-54.6,35.6-84.3,47.4c-16.9,6.7-34.1,11.9-51.6,15.4c-9.3,1.8-18.7,3.1-28.1,4c-12.9,1.1-25.9,1.3-38.8,0.4
		c-13.4-0.9-26.8-2.9-40-6c-39.3-9.2-75.6-27.2-109.7-51.8c-25.3-18.2-48.6-39.6-70.5-63.2c-18-19.4-34.9-40.1-51-61.8
		C47.1,228.7,46.5,227.8,45.9,226.9z M336.9,391.2c9.4,0,15.9-0.7,24.9-2.5c22.3-4.6,42.7-14.9,60.9-31
		c31.3-27.6,52.2-70.2,54.9-117.7c0.8-12.9,0.3-25.7-1.6-38.4c-3.5-24.2-11.4-46.2-23.5-66.1c-24.2-39.8-62.6-65.8-106.3-69.1
		c-12.1-0.9-24.1-0.1-36,2.6c-26.2,5.9-49.4,19.1-69.1,40.5c-27.6,29.8-42.8,67-45,111.5c-0.7,14.3,0.4,28.6,3.2,42.6
		c6.3,32.7,20,60.4,40.7,82.9C267.4,376.3,300,390.6,336.9,391.2z"/>
</g>
<ellipse cx="337" cy="233.7" rx="80.6" ry="97"/>
</svg>
